<svg xmlns="http://www.w3.org/2000/svg" xmlns:xlink="http://www.w3.org/1999/xlink" width="298.787" height="142.577" viewBox="0 0 298.787 142.577">
  <defs>
    <clipPath id="clip-path">
      <rect id="長方形_682" data-name="長方形 682" width="287.16" height="103.62" fill="#fff"/>
    </clipPath>
  </defs>
  <g id="グループ_591" data-name="グループ 591" transform="translate(0 39.965) rotate(-8)" clip-path="url(#clip-path)">
    <path id="パス_360" data-name="パス 360" d="M51.564,13.05a4.078,4.078,0,0,0-.217,1.733,12.414,12.414,0,0,1-1.029,3.843c-.758,1.895-2.327,5.252-3.356,7.2a72.341,72.341,0,0,1-4.6,7.038c-.216.27-.866,1.083-1.462,1.785-1.3,1.571-6.55,6.767-8.878,8.825a46.939,46.939,0,0,1-5.793,4.385c-.271.162-.488.271-.488.379a30.763,30.763,0,0,1-5.468,3.3c-4.656,2.382-8.878,3.681-11.8,3.681H7.551l-.217.921c-.162.541-.325,1.191-.433,1.462s-.216.6-.271.7c0,.162-.379,1.57-.812,3.14a17.473,17.473,0,0,0-.812,5.034c-.054,2.221-.108,2.544-.542,2.544-.162,0-.27.163-.27.488a1.6,1.6,0,0,1-1.354,1.408c-.433.108-.542.054-.65-.325-.108-.271-.325-.488-.433-.488A2.284,2.284,0,0,1,1,69.623c-.433-.433-.487-.6-.379-1.354.108-.7.054-.974-.271-1.353-.379-.488-.379-.7-.325-2.869A36.691,36.691,0,0,1,1.65,54.789c.487-1.787.541-2.112.325-2.6a6.966,6.966,0,0,1,.108-4.06A2.847,2.847,0,0,1,2.57,47.1a2.536,2.536,0,0,1,.163,1.137c0,1.3.216,1.948.433,1.137.379-1.624.487-1.895.758-1.895.217,0,.271-.163.162-.487a6.117,6.117,0,0,1,.542-2.275c.325-.974,1.245-3.789,2.058-6.172.758-2.435,1.678-5.143,2.056-6.008.867-2.165,1.408-3.519,1.895-4.765.163-.487.38-.812.488-.812.054,0,.162-.162.162-.433a38.372,38.372,0,0,1,1.733-4.385c.217-.433.379-.975.487-1.246.055-.324.217-.541.434-.541.433,0,.7-.487.433-.758-.163-.108-.108-.433.054-.921a82.685,82.685,0,0,1,3.248-7.8A6.046,6.046,0,0,0,18.432,9.1c-.054-.108-.162-.108-.217.054a3.5,3.5,0,0,1-1.57.812,1.009,1.009,0,0,1-1.029-.325c-.758-.541-.7-.974.271-1.57.433-.271.812-.542.812-.65,0-.054.867-1.083,2-2.327,2.056-2.219,2.327-2.544,3.031-3.357.325-.433.65-.541,1.787-.7C25.253.815,26.39,1.14,27.2,2.06s.975,1.462.758,2.221c-.162.324-.27.649-.379.649a1.924,1.924,0,0,0-.433.7A3.672,3.672,0,0,1,26.5,6.77a45.478,45.478,0,0,0-3.248,5.685,7.164,7.164,0,0,1-.649,1.3c-.488.812-2.761,5.414-2.761,5.576,0,.108-.921,2.165-1.787,3.9-.487,1.083-.487,1.083,1.679-2.273a76.28,76.28,0,0,1,8.283-10.5C34.835,3.522,40.791.057,45.392.328c2.814.216,4.385,1.028,5.63,2.923C52.484,5.525,52.647,8.394,51.564,13.05ZM3.76,54.356c-.108-.108-.487,1.191-.487,1.57,0,.163.163-.108.271-.595A2.491,2.491,0,0,0,3.76,54.356Zm5.9-14.725c.379-.812.92-2.165,1.245-3.031.271-.812.65-1.841.812-2.273a18.332,18.332,0,0,0,.921-2.436,48.888,48.888,0,0,1,2-4.981,10.276,10.276,0,0,0,.92-2.977c-.054-.054-.271.325-.433.866a5.375,5.375,0,0,1-.812,1.571,8.559,8.559,0,0,0-1.083,1.948,5.71,5.71,0,0,1-.867,1.516.776.776,0,0,0-.27.6,11.9,11.9,0,0,1-1.138,3.356,5.308,5.308,0,0,0-.325,1.083.369.369,0,0,1-.379.271c-.324,0-.379.054-.27.379.162.65-1.516,5.251-2.058,5.793A1.2,1.2,0,0,0,7.5,42.5a1.947,1.947,0,0,1-.163.975,6.187,6.187,0,0,0-.379,1.191,15.782,15.782,0,0,1-.649,2.112,9.049,9.049,0,0,0-.488,1.3c0,.379.325-.163.65-1.083C7.009,45.587,8.85,41.256,9.662,39.631ZM7.172,53.22a.6.6,0,0,0-.433,0c-.163.054-.054.108.216.108S7.28,53.274,7.172,53.22ZM8.037,49c.325-.812.325-1.083.163-1.191s-.271,0-.379.271c-.054.216-.271.812-.433,1.3-.488,1.246-.7,2-.434,1.895a1.7,1.7,0,0,0,.271-.758c.054-.379.217-.595.271-.541C7.6,50.025,7.821,49.539,8.037,49Zm.542,4.169A.144.144,0,0,0,8.416,53a.3.3,0,0,0-.27.163c-.055.108,0,.162.162.162S8.579,53.274,8.579,53.166Zm3.085-1.679c1.679-.6,2.329-.866,1.95-.866a17.522,17.522,0,0,0-1.9.595,13.837,13.837,0,0,1-2.381.758,1.962,1.962,0,0,0-.758.271C8.579,52.462,9.716,52.191,11.664,51.487ZM48.316,7.312c-.054-3.735-.271-4.656-1.083-4.873a8.533,8.533,0,0,0-3.248.379,4.671,4.671,0,0,1-1.3.7,22.962,22.962,0,0,0-5.522,3.411.833.833,0,0,1-.488.271c-.27.054-.379.216-.324.324,0,.163-.217.434-.542.65S34.4,9.369,33.373,10.343a14.834,14.834,0,0,1-2,1.733A6.106,6.106,0,0,0,30.4,13.1c-.6.758-.866.975-1.137.92-.217-.054-.433,0-.487.109-.109.162-.055.216.162.108.163-.054.271-.054.271.054,0,.217-.379.433-.758.488-.271,0-.7.433-2.382,2.814-1.029,1.408-1.083,1.571-.433.975.271-.271.487-.541.487-.7,0-.108.054-.271.109-.271a3.236,3.236,0,0,0,.866-.974c.7-.975,1.029-1.246,1.029-.867,0,.109-.108.271-.325.433a24.478,24.478,0,0,0-2,2.6c-.433.7-1.678,2.6-2.327,3.464a5.337,5.337,0,0,0-.65.975,10.2,10.2,0,0,1-.758,1.191,4.467,4.467,0,0,0-.758,1.246c0,.325-.487.7-.6.433-.054-.163-.162-.108-.325.054-.216.271-.162.325.055.217.487-.163.379.216-.217,1.083-.271.433-.758,1.191-1.029,1.731-.487.921-.812,1.246-.812.7a1.276,1.276,0,0,1,.108-.433c.108-.054,0,0-.162.108a2.122,2.122,0,0,0-.433.758c-.055.38-.055.38.054.217.433-.6.487,0,.054.65-.488.812-4.169,8.337-4.873,9.853a3.009,3.009,0,0,1-.649,1.137.668.668,0,0,0-.217.433c0,.325-2.6,7.092-3.031,7.85A2.246,2.246,0,0,0,8.958,51c0,.325,4.439-1.246,7.308-2.653,1.625-.758,1.733-.812,1.733-.541,0,.108-.325.379-.7.541-.379.217-1.137.65-1.679,1.029a5.479,5.479,0,0,1-1.191.7c-.108.054-.162.163-.054.217.108.162,1.57-.6,2.869-1.571,1.029-.7,1.3-.866,1.3-.595,0,.325-2.49,2.165-3.573,2.652a40.224,40.224,0,0,1-5.414,2c-.758.108-1.028.541-.324.487a2.1,2.1,0,0,0,.595-.162,1.248,1.248,0,0,1,.6-.109,2.706,2.706,0,0,0,.7-.162,17.086,17.086,0,0,1,2.436-1.029,43.275,43.275,0,0,0,4.71-2,5.966,5.966,0,0,1,1.191-.595,9.268,9.268,0,0,0,1.57-.921c.6-.433,2.112-1.462,3.3-2.273a35.673,35.673,0,0,0,5.739-4.71c1.571-1.408,1.625-1.625.054-.271a6.4,6.4,0,0,1-1.083.812c0-.108-.108-.054-.27.109-.217.162-.271.162-.271,0a1.394,1.394,0,0,1,.487-.65A80.242,80.242,0,0,0,41.765,27.017,24.414,24.414,0,0,0,44.2,22.686c-.325.163-.325.055.65-1.895a23.936,23.936,0,0,0,1.354-3.14c.271-.7.65-1.57.812-1.948a22.358,22.358,0,0,0,.812-2.815A15.967,15.967,0,0,0,48.316,7.312ZM9.608,45.477a1.354,1.354,0,0,0-.271.6c0,.108.108,0,.271-.162a1.362,1.362,0,0,0,.27-.6C9.878,45.208,9.77,45.316,9.608,45.477ZM14.48,31.511c0,.054.163.054.325,0,.271-.109.271-.054.162.487a3.65,3.65,0,0,0-.162.975c-.054.162-.108.379-.217.433a3.957,3.957,0,0,0-.812,1.733c0,.216-.108.325-.216.325-.163,0-.542.7-2.382,4.818-.65,1.462-.758,1.787-.542,2.058.163.325.109.541-.27,1.353a4.821,4.821,0,0,0-.488,1.192c.055.216.055.216.163,0a6.139,6.139,0,0,1,.433-.758,1.576,1.576,0,0,0,.325-.813c0-.162.108-.27.162-.216.109.054.163-.054.163-.271,0-.271.054-.433.162-.379.163,0,.217-.108.163-.325-.109-.433,1.3-3.573,1.57-3.41.054.054.217-.054.271-.217s0-.217-.108-.162c-.055.054-.163.054-.163,0,0-.217,4.981-10.178,5.306-10.5.162-.217.541-.813.866-1.3a59.217,59.217,0,0,1,4.331-6.767c.7-.92,1.408-1.948,1.57-2.219a62.933,62.933,0,0,1,4.71-5.522c2.707-2.869,7.309-6.821,9.1-7.8a24.768,24.768,0,0,1,5.035-2.219c1.57-.379,1.191-.541-.434-.162-1.462.325-2.652.758-2.652,1.029,0,.108-.108.162-.271.108-.325-.163-.65.054-2.435,1.137C35.81,5.633,34.4,6.77,34.348,7.149c-.108.217-.217.325-.325.271-.325-.216-.92.433-.812.758.108.217.054.217-.271.163-.271-.109-.379-.054-.379.054s.054.162.217.108c.108-.108.162-.054.054.054a.592.592,0,0,1-.487.217c-.38,0-.65.325-.325.379.108.054.108.217-.109.433-.27.271-.379.271-.487.054-.162-.216-.217-.054-.162.325.054.271-.975,1.192-1.354,1.192-.433,0-1.787,1.353-1.733,1.731.054.109.054.163,0,.054-.108-.162-1.57,1.138-1.679,1.462-.054.109-.541.7-1.083,1.354a6.259,6.259,0,0,0-1.083,1.625c-.162.866-.27,1.029-.433.866-.108-.054-.162.054-.054.217.054.162,0,.27-.162.216-.217-.054-.867.975-.975,1.571-.163.758-.867,1.624-1.354,1.624-.433,0-1.137.867-1.137,1.462,0,.163-.217.433-.433.65a6.248,6.248,0,0,0-.921,1.462c-.65,1.191-1.083,1.625-1.083,1.137,0-.541,1.95-3.952,3.519-6.225,4.06-5.9,4.764-6.713,10.448-12.072a36.912,36.912,0,0,1,8.283-5.9c.974-.541,1.733-.974,1.677-.974s-.649.216-1.353.487A15.336,15.336,0,0,0,36.081,4.55a.541.541,0,0,1-.542.271c-.108-.054-.595.217-1.137.7-.487.433-1.462,1.3-2.219,1.895a67.916,67.916,0,0,0-7.037,7.2c-2.382,3.14-4.927,6.767-5.793,8.283a21.444,21.444,0,0,1-1.246,1.948,6.962,6.962,0,0,0-.866,1.571.647.647,0,0,1-.271.487A37.724,37.724,0,0,0,14.48,31.511Zm-4.6,2.6c.055.217.109.271.163.108.054-.108.054-.27-.054-.325C9.933,33.838,9.878,33.947,9.878,34.109Zm.6-1.354c.108-.108.162-.271.108-.325s-.162.054-.216.217C10.257,32.919,10.312,32.973,10.474,32.756Zm1.083-2.869c0,.217.054.271.108.109a.464.464,0,0,0,0-.379C11.61,29.561,11.557,29.724,11.557,29.886Zm.542,6.5c.216-.433.216-.433-.055-.108a2.263,2.263,0,0,0-.325.541C11.718,37.086,11.827,36.979,12.1,36.383Zm.487-8.932c.108.108.216,0,.271-.325.108-.325.108-.6.054-.6C12.8,26.368,12.477,27.234,12.585,27.451ZM38.3,35.463a2.831,2.831,0,0,0-.866.65c-.379.379-.759.649-.921.595a2.344,2.344,0,0,0-.812.488c-.379.27-.542.487-.379.487.162-.054.27,0,.27.108a.248.248,0,0,1-.27.217c-.163,0-.379.054-.488.054a.342.342,0,0,1-.325,0c-.487-.054-1.57,1.733-1.191,1.895.163.108.163.163,0,.217-.108.108-.379.27-.487.379-.163.162-.271.216-.271.108a.233.233,0,0,0-.216-.217c-.109,0-.163.163-.163.38,0,.379-.758.92-.758.487,0-.108-.054-.054-.162.108-.109.217-.163.433-.109.488.054.108.054.27-.054.324s-.217,0-.217-.108-.054-.162-.162-.108c-.108.108-.162.216-.108.325.054.054-.054.27-.217.487A13.724,13.724,0,0,1,28.177,44.5a.9.9,0,0,0-.487.379.751.751,0,0,1-.65.271c-.271-.109-.921.379-.921.812a.206.206,0,0,1-.27.162c-.325-.108-1.083.379-.975.6.162.216-.812.866-1.083.812-.108-.054-.542.217-1.029.65a5.531,5.531,0,0,1-.921.7,1.642,1.642,0,0,0-.92.487c0,.108-.108.163-.271.163a.256.256,0,0,0-.271.27.3.3,0,0,1-.324.271,1.7,1.7,0,0,0-1.138.379,8.969,8.969,0,0,1-1.245.6c-.433.162-.812.379-.812.487,0,.054-.109.108-.217.054a.436.436,0,0,0-.487.163c-.109.162-.325.271-.379.216-.271-.162-1.625.325-1.516.488.054.108-.055.162-.271.108-.271-.054-.433,0-.488.217-.054.27.109.27,1.408-.217a28.544,28.544,0,0,0,2.978-1.191,22.433,22.433,0,0,0,4.06-2.219,8.931,8.931,0,0,1,1.083-.6,15.567,15.567,0,0,0,1.624-1.191c.867-.65,2.219-1.625,3.032-2.219.812-.542,2.056-1.463,2.76-2.058a52.359,52.359,0,0,0,5.793-5.414,10.27,10.27,0,0,1,1.192-1.246C38.029,35.9,38.408,35.517,38.3,35.463ZM13.939,32.919c.216-.434.216-.434-.109-.109a1.685,1.685,0,0,0-.27.542C13.56,33.567,13.668,33.459,13.939,32.919Zm.92-9.42c.271,0,.379-.163.433-1.138a7.157,7.157,0,0,0,0-1.191,6.34,6.34,0,0,0-.487.975C14.264,23.228,14.318,23.5,14.859,23.5Zm.867-3.032a16.107,16.107,0,0,0,.7-1.733,5.774,5.774,0,0,0,.379-1.3c-.055,0-.163.162-.271.379-.108.271-.379.92-.65,1.516C15.347,20.52,15.238,21.333,15.726,20.467Zm-.055,3.248c.055,0,.163-.271.271-.595s.163-.542.054-.434C15.78,22.9,15.563,23.715,15.67,23.715Zm.65-1.462a1.213,1.213,0,0,0,.217-.487c0-.108-.108-.054-.217.108a2.255,2.255,0,0,0-.162.433C16.158,22.416,16.266,22.361,16.32,22.253Zm6.064.758a3.536,3.536,0,0,0-.921,1.408c0,.054.217-.216.488-.595S22.438,23.065,22.384,23.011Zm20.409,7.038c-.162-.163-1.028.65-1.028.92-.055.271-1.3,1.625-1.462,1.462-.055-.054.054-.379.216-.7l.325-.541-.433.433a4.95,4.95,0,0,1-.65.6A3.639,3.639,0,0,0,38.625,34c0,.379.054.379.271.216a.869.869,0,0,0,.27-.595c0-.271.109-.379.379-.325.542.108,3.194-2.329,3.032-2.815-.054-.217-.054-.325.108-.325S42.848,30.1,42.793,30.049Zm-.758-1.462a2.189,2.189,0,0,0,.433-.7c0-.109-.216.054-.433.433C41.44,29.074,41.44,29.238,42.035,28.588ZM44.2,26.422a3.538,3.538,0,0,0-.812,1.029,2.542,2.542,0,0,1-.541.866,4.507,4.507,0,0,0-1.192,2c.109.217.488.109.488-.162a8.964,8.964,0,0,1,1.083-1.841C44.689,26.151,44.633,26.205,44.2,26.422Zm-1.353.866a.477.477,0,0,0,.216-.271c0-.108-.108-.162-.216-.108a.612.612,0,0,0-.163.325C42.685,27.342,42.793,27.342,42.848,27.288Zm34.43,26.419C75.6,55.493,74.9,55.98,73.055,56.522l-1.408.379-1.082-.379c-1.9-.65-2.653-1.354-3.628-3.41a6.522,6.522,0,0,1-.7-3.14c-.217-2.112-.163-2.869.487-6.442.108-.6.271-1.462.325-2s.216-1.57.379-2.327c.325-1.624.325-1.787-.054-2-.217-.109-.379-.055-1.029.487a73.9,73.9,0,0,0-5.9,7.362c-.65.921-1.625,2.219-2.112,2.869a12.916,12.916,0,0,0-1.354,1.95c-.271.433-.866,1.462-1.462,2.381-.866,1.516-1.462,2.544-3.465,6.064a16.981,16.981,0,0,0-.974,1.787c-.109.271-.434.975-.758,1.624a53.916,53.916,0,0,0-2.869,6.713c.108.433,0,.65-.65,1.516-.812,1.029-1.029,1.245-1.462,1.191a3.447,3.447,0,0,1-1.516-.812,1.029,1.029,0,0,1-.271-.65c-.054-.325-.108-.433-.325-.325-.217.055-.271-.108-.433-1.083-.163-1.353.216-3.3,1.462-7.47.433-1.516.92-3.248,1.137-3.9,1.191-4.277,4.6-13.047,5.63-14.562a10.747,10.747,0,0,0,.6-1.3c.271-.541.7-1.516.975-2.165a8.118,8.118,0,0,0,.541-1.3,1.5,1.5,0,0,1,.325-.7c.163-.271.7-1.354,1.137-2.382.488-1.029,1.3-2.652,1.787-3.573.542-.975,1.192-2.219,1.462-2.76.488-1.083,5.252-10.07,7.092-13.372.541-1.083,1.191-2.275,1.354-2.707a8.979,8.979,0,0,1,.595-1.245A14.976,14.976,0,0,0,67.8,9.26c.054-.108-.054-.108-.325-.054-.325.108,0-.433,1.733-2.544a30.235,30.235,0,0,0,2.165-2.815c0-.162.27-.433,1.408-1.191.92-.65,2.435-.325,2.544.542,0,.108.162.27.27.379.271.108.271.216.163.812-.163.866-.217.975-1.246,2.112a37.093,37.093,0,0,0-4.276,6.008A20.778,20.778,0,0,1,68.454,15a5.737,5.737,0,0,0-.65,1.029c-.325.6-.812,1.408-1.083,1.841a3.305,3.305,0,0,0-.487,1.083c.054.163-.055.325-.109.325-.108,0-.216.217-.271.487s-.162.434-.216.434c-.163-.109-1.137,1.57-1.083,1.841a.173.173,0,0,1-.163.162.457.457,0,0,0-.108.325c.054.162-.162.541-.379.812a2.219,2.219,0,0,0-.379.65.285.285,0,0,1-.108.217c-.109,0-.271.324-.379.758a14.236,14.236,0,0,1-1.029,1.948,9.1,9.1,0,0,0-.758,1.516c-.054.109-.433.867-.867,1.625-.379.758-.866,1.677-1.028,2.112-.163.379-.488,1.083-.7,1.516a2.617,2.617,0,0,0-.379,1.029,13.737,13.737,0,0,1-.867,2c-.487,1.029-1.408,3.086-2,4.548-.65,1.516-1.517,3.681-1.95,4.764-.487,1.137-1.245,3.14-1.733,4.493s-1.083,2.978-1.3,3.573c-.542,1.354-.542,1.571-.054.542.216-.434.433-.758.541-.7s.7-.812.7-.975c-.054-.054.054-.271.217-.433.108-.163.379-.542.541-.758a4.687,4.687,0,0,0,.6-.975c.162-.271.6-1.029,1.029-1.679a3.646,3.646,0,0,0,.7-1.353c-.109-.109-.054-.163,0-.109.108.055.433-.27.7-.7.866-1.3,1.191-1.731,1.787-2.489.324-.379.595-.867.541-.975,0-.163.054-.217.108-.108s.379-.217.813-.813.649-1.083.541-1.137-.108-.108,0-.216a.356.356,0,0,1,.325-.055c.162.109,1.3-1.407,1.137-1.57-.054-.108,0-.108.108-.108s.217-.163.217-.325c0-.271.108-.379.217-.325.216.054.487-.271,1.408-1.624a12.193,12.193,0,0,1,2.6-2.436c1.083-.65,3.518-.65,3.573,0,0,.162.541.65.974.812a.609.609,0,0,1,.379.6,6.28,6.28,0,0,0,.325,1.137,19.547,19.547,0,0,1-.162,5.793c-1.083,6.55-1.137,7.8-.65,9.907a3.789,3.789,0,0,0,.541,1.408,4,4,0,0,0,1.354-.054c1.95-.325,3.248-1.3,5.847-4.277.542-.65,1.083-1.137,1.138-1.083.108.054.108.163.054.325a2.537,2.537,0,0,0,.216,1.733C79.172,51.27,78.577,52.245,77.278,53.707Zm-28.963,1.57c.541-1.245.975-2.435,1.029-2.652a11.017,11.017,0,0,1,.65-1.895c1.245-3.465,1.678-4.6,1.841-4.927.162-.379.379-.974.595-1.624.109-.271.325-.812.542-1.246.758-1.678,2-4.547,2.327-5.468a28.2,28.2,0,0,1,1.3-2.652c1.354-2.544,2.869-5.9,2.652-6.064a.167.167,0,0,0-.108.054c-.217.379-1.354,2.869-1.354,2.923a13.317,13.317,0,0,1-.812,1.625,46.618,46.618,0,0,0-2.869,6.172,8.969,8.969,0,0,1-.487,1.083c-.271.6-.813,1.895-1.246,2.923a12.877,12.877,0,0,1-.92,2c-.217.162-.163-.271.108-1.083.217-.65.271-.813.054-.867-.216,0-.271-.216-.054-.379a.189.189,0,0,1,.271.054c.108.109.216-.054.433-.433.217-.487.217-.65.054-.812s-.108-.163.108-.217c.271,0,.65-.65.65-1.245a2.438,2.438,0,0,1,.325-.7,2.571,2.571,0,0,0,.433-.867,2.666,2.666,0,0,1,.325-.7c.217-.27.217-.379.054-.487-.216-.108-.27-.108-.325.163,0,.27-.108.324-.27.27s-.325.054-.379.271c-.163.325-.163.379.054.163.162-.163.271-.163.325-.055.108.109.108.163,0,.109-.163-.109-.6.866-.542,1.3,0,.217,0,.217-.216,0-.217-.27-.271-.216-.434.217s-.162.487,0,.487c.217.054.217.109.109.325-.109.163-.163.163-.217.054-.108-.27-.433.163-.6.813-.054.324-.054.379.109.324.108-.054.216-.054.216.055.054.216-.325.541-.541.487-.271,0-1.733,3.681-4.115,10.556-1.083,3.086-3.248,10.231-3.193,10.61,0,.109.108.109.216.055.054-.055.109-.055.109.108a.362.362,0,0,1-.271.216c-.109,0-.325.488-.433,1.246-.325,1.57-.271,2.219.108,1.191.108-.216.325-1.029.541-1.787a6.97,6.97,0,0,1,.542-1.57c.271-.379.6-1.462.379-1.408-.054,0-.163-.217-.163-.487-.054-.325,0-.433.109-.379s.162.054.054-.054a2.744,2.744,0,0,1,.433-1.787c.325-.271.325-.163.054.433-.433.758-.433,1.083,0,.379.163-.325.6-1.408.975-2.436.325-1.029.975-2.923,1.516-4.223a25.711,25.711,0,0,0,.867-2.6,5.924,5.924,0,0,1,.487-1.462c.379-.975.379-1.137.108-.758-.271.433-.325.433-.325.217a.973.973,0,0,1,.163-.65.884.884,0,0,0,.054-.65c-.054-.162-.054-.379.054-.433.054-.054.162,0,.162.108,0,.163.109.217.217.108.108-.054.108.055.108.38-.054.216-.054.324,0,.216.055-.216.325-.271.379-.054,0,.054-.433,1.354-.974,2.761-.542,1.462-.975,2.652-.975,2.706s-.325,1.029-.7,2.165c-.433,1.137-.812,2.273-.92,2.6-.055.325-.325,1.137-.542,1.9s-.379,1.353-.379,1.407c.054,0,.162-.216.271-.541C47.232,58.145,47.557,57.28,48.315,55.276ZM46.637,22.957a.435.435,0,0,0-.162.487c.054.109,0,.271-.109.271s-.162-.108-.108-.162a.333.333,0,0,0-.054-.325c-.108-.054-.108-.325.054-.7s.217-.65.108-.65a.232.232,0,0,1-.216-.216c0-.109.162-.163.27-.109.379.163.379-.054.055-.541-.217-.325-.271-.271-.379.108a13.3,13.3,0,0,1-1.679,3.41c-.812,1.083-.867,1.408-.054.975.27-.108.379-.108.433.108a1.584,1.584,0,0,0,.162.325s.434-.487.921-1.028a4.55,4.55,0,0,0,.975-1.571C46.908,22.849,46.854,22.8,46.637,22.957ZM44.418,1.194c.433,0,.541-.054.325-.108a1.545,1.545,0,0,0-.7,0C43.822,1.14,44.039,1.194,44.418,1.194Zm1.514,60.8c-.054.271-.162.65-.216.866,0,.325,0,.325.108-.054a3.218,3.218,0,0,0,.217-.92C46.1,61.611,46.1,61.611,45.932,61.99Zm1.192-41.2c-.054-.325-.379-.65-.487-.433a.464.464,0,0,0,0,.379C46.745,20.954,47.124,21.008,47.124,20.791ZM47.5,55.06c0,.216-.054.433-.217.487a.2.2,0,0,0-.108.271.585.585,0,0,1-.108.487c-.163.325-.163.325-.163-.27a1.544,1.544,0,0,1,.271-.921l.271-.379Zm.434-36.813c-.163-.162-.271-.108-.488.217a.873.873,0,0,0-.108.595,1.28,1.28,0,0,1-.054.758c-.271.921.054.65.487-.433C48.045,18.68,48.1,18.355,47.937,18.247Zm-.326,40.927c-.054-.054-.108,0-.162.109a1.627,1.627,0,0,0-.109.433c0,.054.054,0,.163-.109A1.664,1.664,0,0,0,47.611,59.174ZM48.8,51.541c-.162.542-.487.758-.541.325,0-.108.054-.217.108-.217.108,0,.163-.108.163-.216A.446.446,0,0,1,48.693,51C48.964,50.729,48.964,50.837,48.8,51.541Zm.6,2.058a20.8,20.8,0,0,0-1.083,3.248c0,.108.866-2.219,1.083-2.977C49.451,53.653,49.451,53.545,49.4,53.6ZM49.289,15.92c0-.163-.054-.325-.162-.325-.217,0-.542.866-.65,1.733l-.108.758.487-.921A6.778,6.778,0,0,0,49.289,15.92Zm.649,36.488c.055-.217.163-.488.163-.542,0-.108-.108,0-.217.217a1.643,1.643,0,0,0-.162.595C49.722,52.732,49.83,52.624,49.938,52.408Zm.218-44.88c-.054-.054-.109.055-.109.271s.055.217.109.109A.448.448,0,0,0,50.156,7.528Zm1.678,39.521c-.217.325-1.462,3.573-1.679,4.222-.217.867.108.217.758-1.462C51.834,47.427,52.1,46.615,51.834,47.048Zm-1.083-1.571c0-.758.108-.866.325-.379a.664.664,0,0,1-.109.65C50.8,46.019,50.751,45.965,50.751,45.477Zm7.9-13.859a11.918,11.918,0,0,0-.975,2.058,1.07,1.07,0,0,1-.163.433c-.108.217-.379.6-.595.975-.217.325-.433.7-.379.812a.824.824,0,0,1-.217.433,6.29,6.29,0,0,0-.65,1.354,7.106,7.106,0,0,1-.595,1.354,13.636,13.636,0,0,0-.542,1.3c-.216.6-.595,1.408-.758,1.895-.433.921-1.516,3.573-1.516,3.682.054.216.217-.109.812-1.571.379-.92,1.029-2.435,1.462-3.41.488-.975.975-2,1.083-2.273.108-.217.433-.867.758-1.408.271-.488.65-1.3.867-1.787.162-.488.433-1.192.595-1.571A15.268,15.268,0,0,0,58.655,31.619ZM54.107,37.14c.162.325.162.325.379-.054.108-.216.217-.379.163-.433s-.163.054-.271.162c-.109.163-.217.163-.217.055a.68.68,0,0,1,.217-.379,8.8,8.8,0,0,0,.866-1.679,12.3,12.3,0,0,1,.921-1.895c.216-.271.325-.542.216-.65-.054-.108-.054-.108.054-.054s.217-.054.325-.271c.163-.433-.162-.542-.379-.054a1.332,1.332,0,0,0-.216.595,1.912,1.912,0,0,1-.271.434A3.863,3.863,0,0,0,55.352,34c-.216.433-.541,1.3-.866,1.841A2.361,2.361,0,0,0,54.107,37.14Zm2.652-5.847c.163.271.217.217.7-.7.488-.974.542-1.083.271-1.029-.108,0-.217.163-.325.434a3.827,3.827,0,0,1-.271.649.724.724,0,0,0-.162.434c0,.162-.054.216-.163.162S56.652,31.186,56.759,31.294Zm.271,4.169c-.108.27-.217.487-.271.487s0-.217.109-.433c.108-.271.216-.542.27-.542S57.138,35.192,57.03,35.463Zm2.544-5.631c-.108-.054-.65.975-.6,1.191,0,.109.163-.108.325-.487C59.521,30.211,59.629,29.886,59.575,29.832Zm-.216-1.3c0,.27.27-.109.758-.975.866-1.733,1.083-2.273.974-2.329-.054-.108-.162-.054-.162.055-.054.054-.379.812-.812,1.624A12.667,12.667,0,0,0,59.359,28.534Zm1.57-1.408-.379.487a2.42,2.42,0,0,0-.325.7c.054.108,0,.217-.108.217-.055,0-.163.162-.163.324-.054.271-.054.325.108.109a4.613,4.613,0,0,0,.488-1.029Zm.216-2.165c.055.379.488-.325,1.408-2.112C64.5,19,64.5,18.951,64.285,19a4.949,4.949,0,0,0-.7,1.083c-.325.65-.974,1.95-1.516,2.923A14,14,0,0,0,61.144,24.961Zm64.747-12.452c-.812.109-2.165.163-2.977.217-1.408.054-2.652.108-3.519.162-.433.758-.812,1.462-1.245,2.219-4.06,7.688-4.6,8.825-5.9,11.856-.867,2.112-2.221,5.035-2.815,6.171-1.625,3.086-5.685,14.564-7.417,20.951-.325,1.354-.812,3.086-1.083,3.9-1.462,4.981-2.49,12.451-2.165,16.512a6.085,6.085,0,0,0,.7,2.814,5.729,5.729,0,0,0,1.137-.649,5.573,5.573,0,0,1,1.192-.6c.379.054,1.029,2.49.7,2.761a1.507,1.507,0,0,0-.271.595c-.054.433-1.191.921-2,.758a2.657,2.657,0,0,1-1.191-.433,8.221,8.221,0,0,1-1.137-.758,1.859,1.859,0,0,0-.758-.433,6.332,6.332,0,0,1-1.029-1.246c-1.516-2.165-1.787-5.522-1.029-12.072A81.544,81.544,0,0,1,97.9,51.866,177.65,177.65,0,0,1,109.6,21.279c-6.064,6.712-11.206,11.1-16.62,11.639a1.7,1.7,0,0,0-.974.216,3.3,3.3,0,0,0,.379.975,9.362,9.362,0,0,1,.974,4.06A22.72,22.72,0,0,1,92,44.341a38.96,38.96,0,0,1-7.146,9.853,7.838,7.838,0,0,1-2.977,1.842c-1.517.27-2.49-.325-3.519-2a12.387,12.387,0,0,1-1.516-8.554c.433-2.814,2.165-7.2,4.439-11.368,2.112-3.844,2.112-3.844,2.544-3.952a3.317,3.317,0,0,0,.758-.379c.325-.217.433-.217.7-.054a.585.585,0,0,0,.487.108.134.134,0,0,1,.217.054,2.533,2.533,0,0,0,.541.488c.434.216.759.27,2.112.162.867-.054,1.95-.217,2.382-.271,4.06-.7,11.856-2.814,22.088-16.836h-.054c0-.108-7.9.65-8.283.812-.108.054-.054.054-9.258.866-7.633.7-12.126,1.192-15.7,1.625-1.516.162-5.576.325-6.064.271a1.436,1.436,0,0,1-.975-1.029c0-.108-.054-.217-.162-.217-.271.054-.217-.866,0-1.083a.817.817,0,0,0,.217-.433c.108-.271.108-.271,1.462-.271,1.3,0,1.353,0,1.841-.27a2.1,2.1,0,0,1,2.435.162c.217.217.325.217,1.029.162.434,0,2.329-.162,4.169-.324,1.895-.109,3.681-.271,4.06-.271.433-.054.65-.054.65.054,0,.054-.217.108-.433.108a4.116,4.116,0,0,0-.813.109c-.92.216,4.115-.109,8.771-.6.866-.054,3.681-.325,6.225-.487,2.544-.217,5.685-.488,6.983-.6s2.761-.217,3.14-.271a13.349,13.349,0,0,0,1.516-.108l.542-.054c.216-.325.433-.65.7-1.029,1.625-2.923,4.223-7.525,4.711-8.229a4.481,4.481,0,0,0,.7-1.3A1.406,1.406,0,0,1,122.049,0c.649.054,2.056.866,2,1.137,0,.108.163.216.433.216.867.109,1.354,1.95.65,2.49a.865.865,0,0,0-.325.488,11.775,11.775,0,0,1-2.056,3.193,33.738,33.738,0,0,0-2.329,3.628c3.465-.271,7.579-.6,9.149-.7,1.842-.163,3.952-.217,8.5-.217,5.739,0,6.01,0,7.037.217a6.958,6.958,0,0,1,2.707,1.083.973.973,0,0,1,.162.595.831.831,0,0,0,.217.542c.217.108.271.541.108,1.137a4.1,4.1,0,0,1-1.787,1.3,1.2,1.2,0,0,0-.595.055,13.97,13.97,0,0,1-3.357.487c-.108,0-.541-.054-1.083-.054a3.424,3.424,0,0,1-1.083-.109.757.757,0,0,0-.487-.162c-.379,0-.325-.162.108-.271a15.485,15.485,0,0,0,3.14-.92,6.212,6.212,0,0,1,2.219-.867c.6-.162.7-.27.433-.325a97.382,97.382,0,0,0-10.178-.758C134.608,12.183,128.057,12.4,125.892,12.508ZM90.216,33.3a3.647,3.647,0,0,0-1.137-.325c-.542-.054-1.192-.108-1.463-.163-.379-.108-.433-.054-.541.271-.108.217-.7,1.408-1.354,2.6-3.41,6.064-5.63,12.181-5.63,15.375,0,1.895.379,2.058,2,1.029,1.571-1.029,2.869-2.436,5.089-5.523,2.49-3.518,3.627-6.008,3.9-8.716C91.244,36.058,90.865,33.947,90.216,33.3ZM104.292,13.05c0-.054-.055-.054-.163-.054a1.885,1.885,0,0,1-.7.108c-1.137.054-4.764.379-6.712.6-1.083.108-2.815.27-3.79.324-.975.109-1.787.217-1.841.217-.054.108.812,0,3.519-.217.974-.108,2.76-.216,3.952-.324s2.814-.271,3.627-.325C104.075,13.212,104.292,13.158,104.292,13.05ZM91.461,39.794c-.054-.109-.054,0-.054.216s0,.217.054.109C91.515,39.956,91.515,39.848,91.461,39.794Zm22.467-23.116a7.849,7.849,0,0,1-.866,1.029,38.106,38.106,0,0,0-3.519,6.766c-.054.217-.162.379-.217.379-.108,0-.162.109-.162.271.054.325-.6,1.733-1.895,4.115-.325.7-.65,1.3-.65,1.407a5.891,5.891,0,0,1-.433.867c-.7,1.083-3.248,7.741-4.819,12.343a23.441,23.441,0,0,1-1.57,3.952,18.781,18.781,0,0,0-1.137,3.356c-1.083,3.735-1.137,4.114-.866,4.169.162,0-.055.7-.325.866a6.08,6.08,0,0,0-.6,1.841A4.617,4.617,0,0,0,96.6,60.2c.217.6.217.65-.054.6-.325-.109-1.191,6.821-.975,8.228a14.526,14.526,0,0,1,.055,2.221c-.055,2.327.216,1.137.812-3.627.379-2.923.812-5.469,1.137-6.875.325-1.192.7-2.761.812-3.411a17.648,17.648,0,0,1,.7-2.49c.217-.758.65-2.112.867-2.977.27-.866.649-2.219.92-3.031.217-.813.542-1.787.6-2.112a11.381,11.381,0,0,1,.433-1.246,36.706,36.706,0,0,0,1.408-4.168c.054-.271,2.436-6.442,4.006-10.231.975-2.436,4.71-10.395,6.172-13.21C114.361,16.3,114.47,15.974,113.928,16.677ZM97.417,68.107c-.109-.379-.163,0-.271,1.408-.108,2.112-.108,3.248.054,3.085a9.08,9.08,0,0,0,.108-1.841,10.953,10.953,0,0,1,.109-1.948A1.506,1.506,0,0,0,97.417,68.107Zm.27-3.14c-.054-.108-.108.054-.108.271,0,.271,0,.271.108.108A.459.459,0,0,0,97.687,64.967Zm9.258-31.4c-.866,2.112-.975,2.546-.758,2.707.162.162.162.217-.108.217-.217-.055-.542.541-1.192,2.273-1.408,3.573-2.6,7.091-3.464,10.124-.217.812-.758,2.652-1.192,4.114s-.974,3.465-1.245,4.439c-.163.975-.542,2.49-.7,3.3-.217.812-.379,2-.487,2.652-.217,1.895.216.65.758-2.058.325-1.895.487-2.435.812-2.652.271-.217.325-.271.054-.6-.217-.325-.162-.433.163-.92a3.675,3.675,0,0,0,.379-1.246c.108-.595.379-1.516,1.516-5.089.162-.433.216-.866.108-.92-.054,0-.054-.217,0-.488.054-.162.217-.325.325-.216.217.108.541-.921.921-2.761a4.321,4.321,0,0,1,.324-1.083,10.227,10.227,0,0,0,.759-1.948,28.248,28.248,0,0,1,1.624-4.385,7.9,7.9,0,0,0,.487-1.354,2.389,2.389,0,0,1,.325-.975,4.163,4.163,0,0,0,.379-1.191c.163-.7.325-1.029.433-.975.109.108.163.054.109-.162a3,3,0,0,1,.812-1.95,2.112,2.112,0,0,0,.379-1.3c.054-.6.217-1.137.271-1.083.108,0,.271-.217.379-.488.108-.324.216-.541.325-.541a8.419,8.419,0,0,0,.812-2.219C110.355,25.934,108.514,29.724,106.944,33.567ZM105.05,13.05a.117.117,0,0,0-.109-.109c-.108,0-.162.055-.162.109s.054.108.162.108A.116.116,0,0,0,105.05,13.05Zm.812-.109c0-.054-.054-.108-.163-.108a.409.409,0,0,0-.216.108c-.054.055,0,.109.108.109C105.754,13.05,105.862,13,105.862,12.941Zm1.841-.162c-.162,0-.325,0-.325.054,0,.163.163.163.487,0C108.027,12.779,108.027,12.779,107.7,12.779Zm4.006-.217a21.1,21.1,0,0,0-3.573.271h.7c.433-.054,1.246-.108,1.787-.162A5.521,5.521,0,0,0,111.708,12.562Zm11.639,22.9c0,.054.27.65.541,1.353a9.933,9.933,0,0,1,.65,4.765,6.084,6.084,0,0,1-.7,2.869,15.467,15.467,0,0,1-3.681,4.98,8.122,8.122,0,0,1-3.79,2.112c-.7.163-1.462.433-1.678.488a2.836,2.836,0,0,1-2-.055c-.812-.216-2.165-1.516-2.112-2.056a2.261,2.261,0,0,0-.487-.758c-1.029-1.3-1.246-5.36-.433-7.688a24.163,24.163,0,0,1,6.225-9.2l1.029-.921-.379-.541c-.217-.271-.325-.6-.271-.65.108-.217,1.029-.054,1.57.271.434.271.6.325.975.162a2.213,2.213,0,0,1,1.841.163c.542.27,1.679,1.516,1.625,1.841,0,.487,3.248.7,7.091.379a53.242,53.242,0,0,0,7.254-1.029h1.083c.054,0,.325.054.379.054a.488.488,0,0,1,.271.054.188.188,0,0,1,.108.054.169.169,0,0,1,.109.055h.054l.108.108c-.162,0-.271.054-.379.054-.541.108-.975.217-.92.271a5.692,5.692,0,0,0,1.407-.217.054.054,0,0,0,.055.054.053.053,0,0,0,.054.054c0,.055.054.217.108.217a2.366,2.366,0,0,0,.054.271c-.054-.108,0,.162,0,.216v.379a2.315,2.315,0,0,1-.054.271l-.054.054c0,.055-.054.109-.054.163-.054.054-.054.054-.054.108h-.055c0,.054-.054.108-.108.163h-.054v.054a49.249,49.249,0,0,1-14.184,1.191A3.6,3.6,0,0,0,123.347,35.463Zm-1.517.216c-.379-.649-.487-.7-.974-.7a1.2,1.2,0,0,1-.65-.162c-.054-.108-.217-.163-.379-.217a.543.543,0,0,1-.433-.758c0-.108,0-.216-.109-.162a17.713,17.713,0,0,0-2.49,2.436,3.653,3.653,0,0,1-.595.758A30.918,30.918,0,0,0,112.52,43.1c-.813,2-1.192,4.6-.813,5.793.109.433.163.433,1.083.433a6.386,6.386,0,0,0,2.653-.7,11.906,11.906,0,0,0,4.439-3.356C122.427,42.392,123.292,38.223,121.831,35.679Zm50.564,6.5a7.368,7.368,0,0,0-3.627.65c-4.223,1.57-11.368,5.36-11.639,6.225-.108.217-.379,1.192-.65,2.165a128.309,128.309,0,0,1-9.149,23.658,57.2,57.2,0,0,1-10.395,14.67c-1.462,1.462-5.522,4.981-6.929,6.01A47.864,47.864,0,0,1,126,98.261c-4.06,2.329-6.279,2.869-8.229,1.9a5.388,5.388,0,0,0-1.137-.434c-.758-.054-2.327-2.652-2.273-3.681a4.923,4.923,0,0,0-.325-1.408c-.217-.65-.325-1.083-.217-1.191s.109-.271,0-.487c-.216-.434.163-2.112,1.029-4.548.487-1.191.7-1.733.812-1.516.109.108.109.054.109-.217-.055-.216-.055-.379,0-.325a11.685,11.685,0,0,0,1.3-2.11c3.248-6.01,9.691-13.806,17.757-21.547a145.272,145.272,0,0,1,18.895-15.212c.974-.65.974-.7,1.245-1.841A36.81,36.81,0,0,0,155.5,32.7l-.108-.758-.812,1.408c-.433.812-1.083,1.841-1.354,2.327a10.509,10.509,0,0,1-.975,1.408c-.866.921-7.308,9.2-8.066,10.341-.758,1.191-.812,1.408-.487,1.191.65-.379-.867,1.57-2.815,3.465-1.624,1.677-2.273,2.056-3.789,2.381-1.083.163-1.625.054-1.787-.433-.055-.162-.217-.217-.488-.217-.974.163-2.111-2.814-1.948-5.251.108-2.112,1.624-6.389,3.41-9.691a62.006,62.006,0,0,1,6.118-8.5c1.462-1.625,3.086-2.869,3.952-2.978.325-.054.921-.162,1.408-.216.758-.108.921-.054,1.895.433,1.625.921,2.383,1.516,2.761,2.382l.325.758.866-.975c.6-.758.812-.921.867-.65s.216.109.92-.595c.433-.542.867-.867.975-.813.054.109-.054.325-.217.488-.271.27-.271.379-.108.379.541.054,1.137.541,1.137.974-.054.271.054.379.271.379.379.055.595.813.866,3.032a35.718,35.718,0,0,1,.109,9.582c-.109.867-.217,1.571-.217,1.571s.7-.325,1.57-.7a5.615,5.615,0,0,1,1.733-.7c.271,0,.65-.109,2.923-1.137,2.49-1.029,5.739-1.733,7.038-1.517.974.163,2.165.813,2,1.083a1.126,1.126,0,0,0,.379.434C174.614,42.067,174.127,42.229,172.395,42.175Zm-19.11,8.662a.466.466,0,0,0-.325.379,11,11,0,0,1-1.462,1.3c-1.137.92-1.462,1.029-1.57.812s-.162-.162-.108.054-.054.433-.379.6a3.947,3.947,0,0,0-.65.487c-.108.109-1.354,1.137-2.761,2.219-1.408,1.138-2.815,2.275-3.139,2.6-.271.27-2.112,1.948-4.115,3.681a147.756,147.756,0,0,0-10.5,10.5A20.4,20.4,0,0,1,126.65,75.2c-.163.162-.6.7-1.029,1.245-.379.541-1.246,1.57-1.841,2.327s-1.246,1.625-1.516,1.95a48.79,48.79,0,0,0-5.09,9.745,17.311,17.311,0,0,0-.974,5.3c.054,1.029.325,1.192,1.841,1.3,1.408.054,1.679.325.758.6-.325.054-.433.162-.271.162a10.4,10.4,0,0,0,2.815-.866c.542-.379.866-.271.433.162a4.666,4.666,0,0,1-2.219,1.191c-.65.163-.758.217-.433.271a7.482,7.482,0,0,0,1.733-.325,18.32,18.32,0,0,0,4.6-2.112c1.029-.595,1.9-1.083,1.9-1.083a22.218,22.218,0,0,0,2.165-1.516,50.731,50.731,0,0,0,4.439-3.789c2.273-2.273,1.841-1.95-1.191.866-2.978,2.707-7.742,5.847-7.254,4.819.054-.163.162-.271.27-.271a33.345,33.345,0,0,0,4.115-2.653,80.082,80.082,0,0,0,6.983-6.658c1.948-2.327,3.356-4.006,2.652-3.248-.433.433-1.245,1.354-1.787,2a23.461,23.461,0,0,1-3.518,3.572c-.109-.054-.055-.162.054-.324a.318.318,0,0,0,.162-.379,6.069,6.069,0,0,0-1.3,1.137c-1.354,1.353-2.221,2-2.329,1.841a19.82,19.82,0,0,1,2.436-2.6,40.672,40.672,0,0,0,6.333-7.363,95.029,95.029,0,0,0,8.067-14.724A98.674,98.674,0,0,0,151.932,55.6c.162-.595.541-1.731.812-2.544C153.718,50.512,153.663,50.621,153.284,50.837Zm1.083-3.139c-.162-.163-1.787.92-2.112,1.353a.649.649,0,0,1-.541.379c-.433,0-4.548,2.978-6.01,4.385-.325.325-.541.488-.433.379.108-.216.054-.216-.054-.162a.5.5,0,0,0-.162.271c.108.216-.325.595-.6.487a.554.554,0,0,0-.433.379c-.163.163-.271.325-.325.271-.108-.163-1.029.6-1.029.92s-.542.7-.921.7c-.162,0-.27.055-.27.109.162.325-7.471,7.2-7.688,6.983-.054-.108-.054-.054,0,0,.163.271-.27.866-.487.758s-2.273,1.95-3.248,3.14c-.216.271-1.083,1.3-2,2.273-3.14,3.519-6.552,7.741-6.442,8.066.054.109-.109.488-.379.867a2.971,2.971,0,0,0-.488.866c0,.163.055.108.921-1.191.65-.867,1.57-2.058,4.006-4.981.487-.6,1.191-1.354,1.57-1.733s1.625-1.678,2.707-2.869c3.031-3.3,9.149-9.095,13.534-12.83,1.841-1.516,5.143-4.06,7.092-5.468,1.245-.867,2.6-1.841,3.085-2.165C154.421,48.293,154.692,47.914,154.367,47.7ZM131.522,11.21a9.443,9.443,0,0,0-2.761,0c-.758.054-1.787.108-2.381.162-1.462.054-1.571.108-1.733.217-.054,0,.108.054.379,0,.325-.054.487,0,.433.054s.108.054.487.054c.542,0,.542,0,.109-.054-.379-.054-.433-.054-.163-.108a3.549,3.549,0,0,1,1.029.054,3.475,3.475,0,0,0,1.733-.054,14.633,14.633,0,0,1,2.6-.271C131.415,11.318,131.522,11.264,131.522,11.21ZM125.188,97.5c-.055,0-.109.109-.163.271s-.054.271.054.271c.054,0,.163-.109.163-.271S125.242,97.5,125.188,97.5Zm1.137-.487a.467.467,0,0,0-.325.162c-.054.109,0,.217.054.217a.385.385,0,0,0,.325-.163C126.433,97.124,126.379,97.016,126.325,97.016Zm1.3-.65a1.217,1.217,0,0,0-.541.271c-.163.108-.271.271-.163.271a.9.9,0,0,0,.488-.271C127.623,96.529,127.678,96.42,127.623,96.366Zm2.815-2c-.487.324-.92.649-.975.7-.054,0-.433.271-.866.542a2.527,2.527,0,0,0-.758.6c0,.108.379-.055.866-.379.434-.325,1.083-.813,1.462-1.029a4.1,4.1,0,0,0,.867-.7C131.2,93.93,130.925,94.039,130.439,94.364Zm2.544-2.112c-.054-.054-.433.216-.866.649s-.7.759-.65.813a3.935,3.935,0,0,0,.921-.7A2.37,2.37,0,0,0,132.983,92.252Zm2.113-81.1a11.254,11.254,0,0,0,2.056-.109c.163-.054-4.6-.054-5.035.054-.379.055-.324.055.163.109a3.9,3.9,0,0,0,.7.054C133.038,11.21,134.013,11.21,135.1,11.156Zm-.434,79.635a6.331,6.331,0,0,0-1.462,1.245c0,.217.595-.216,1.245-.812C134.77,90.845,134.877,90.628,134.662,90.791Zm1.787-1.841c-.758.7-.812.758-.6.758.054.054.433-.217.7-.6C137.368,88.246,137.26,88.191,136.448,88.95Zm.054-56.085a2.153,2.153,0,0,0,.7-.217c.162-.108-.975.108-1.137.217C135.96,32.919,136.177,32.919,136.5,32.865Zm.758,53.6.433-.542-.595.488c-.542.541-.65.595-.434.595A2,2,0,0,0,137.26,86.46Zm11.8-50.347c.866-.867.92-1.138.758-3.194a11.8,11.8,0,0,0-.325-2c-.271-.379-4.439,4.169-6.983,7.633A47.827,47.827,0,0,0,136.827,49.1c-.163.488-.163.488.216.271a24.158,24.158,0,0,0,1.9-1.841c.758-.866,1.841-2.058,2.435-2.6.542-.542,1.517-1.625,2.166-2.436s1.354-1.677,1.625-1.948a26.78,26.78,0,0,0,2-2.219C148.033,37.3,148.845,36.329,149.062,36.113Zm-9.583,48.343c-.108.108-.812.921-1.516,1.787-1.3,1.625-.65,1.029,1.029-.866C139.75,84.51,139.966,84.077,139.479,84.456Zm-1.785-73.409a2.14,2.14,0,0,0,.812.109c.379-.055.7,0,.7.054s.108.108.271.108c.216,0,.216-.054.054-.108s-.162-.054,0-.109c.108-.054-.271-.108-.866-.108A6.658,6.658,0,0,0,137.694,11.047ZM138.939,85.7c-.055,0-.163.108-.217.27s0,.271.054.271c.108,0,.163-.108.217-.271A.655.655,0,0,0,138.939,85.7Zm2.652-3.248c-.271.162-.271-.271,0-.6.108-.108.108-.108-.054,0-.108.108-.542.65-.921,1.137-.487.65-.595.921-.487,1.029.325.162.325.162.217-.054a.463.463,0,0,1,.162-.488c.162-.162.217-.216.325-.054.054.163.108.163.216-.054s.055-.271-.054-.162c-.108.054-.162,0-.108-.163a.358.358,0,0,1,.271-.216c.108.054.271-.054.433-.217Q141.834,82.29,141.591,82.454Zm-.7-71.19a1.743,1.743,0,0,1,.866.054,1.8,1.8,0,0,0,.758.108,21.249,21.249,0,0,1,3.465.379c.595.163.866.163.379-.054a18.461,18.461,0,0,0-5.793-.7C139.806,11.156,140.075,11.318,140.888,11.264ZM141,80.937a.589.589,0,0,0,.163-.324c-.054-.055-.163.054-.271.216C140.779,81.046,140.833,81.1,141,80.937Zm3.9-4.331c-.054-.054-.271.217-.487.6-.217.433-.867,1.462-1.408,2.329s-1.029,1.677-1.029,1.731.054,0,.162-.108a.564.564,0,0,1,.38-.271c.162,0,.216-.108.216-.325a.247.247,0,0,1,.217-.27c.108.054.162-.055.216-.217a1.4,1.4,0,0,1,.379-.65,1.639,1.639,0,0,0,.434-.866.55.55,0,0,1,.324-.488.618.618,0,0,0,.271-.487,1.031,1.031,0,0,1,.217-.65C144.947,76.823,144.947,76.661,144.893,76.606Zm-1.624.759c.108-.055.162-.217.108-.271s-.163,0-.217.216C143.053,77.527,143.053,77.581,143.27,77.365Zm2.219-1.462c0-.055-.054-.055-.163-.109a.243.243,0,0,0-.162.217c0,.108.054.162.162.054A.173.173,0,0,0,145.489,75.9Zm.541-3.032c0-.108-.054-.108-.162.054a1.078,1.078,0,0,0-.217.433c0,.109.054.055.163-.054A1.539,1.539,0,0,0,146.03,72.871ZM147.87,54.9c.054,0,.163-.108.325-.27a2.781,2.781,0,0,0,.163-.271.634.634,0,0,0-.325.271C147.87,54.735,147.816,54.9,147.87,54.9Zm.813,14.51a5.679,5.679,0,0,0-.65,1.407c0,.217.162-.108.433-.7C148.628,69.731,148.737,69.407,148.683,69.407Zm1.028-2.058c-.108-.108-.7,1.3-.7,1.516,0,.054.163-.217.38-.65A3.617,3.617,0,0,0,149.711,67.349Zm.867-31.128a6.022,6.022,0,0,0-1.462,1.841,6.014,6.014,0,0,0,.92-1.083C150.524,36.383,150.74,36,150.578,36.221Zm-.271,2.49c-.054,0-.162.108-.325.27-.108.109-.162.217-.108.217s.162-.108.271-.217C150.307,38.819,150.361,38.711,150.307,38.711Zm.758,25.5c0-.108-.162.108-.325.542-.595,1.462-.595,1.57-.108.595A2.99,2.99,0,0,0,151.065,64.209Zm.6-1.3c-.054-.109-.163.108-.271.433-.271.65-.162.758.108.108C151.661,63.18,151.714,62.91,151.661,62.91Zm10.5-19.706c-.325.108-.379.271-.108.271.054,0,.162-.108.27-.163C162.379,43.2,162.325,43.15,162.163,43.2Zm1.623-.65c0-.108-1.028.325-1.191.488s.217.054.65-.163C163.571,42.771,163.786,42.608,163.786,42.554Zm8.879-1.624c-.325-.379-2.977-.379-4.385-.054a29.649,29.649,0,0,0-4.06,1.462c-.109.108.162.054.541-.054.325-.163,1.462-.542,2.49-.867a7.7,7.7,0,0,1,3.681-.433C172.179,41.093,172.773,41.039,172.665,40.931Zm22.682-2.869a4.846,4.846,0,0,1-1.354,2.219c-1.3,1.516-1.841,1.841-3.193,1.948a2.5,2.5,0,0,1-1.408-.108c-.163-.108-.488-.271-.7-.379-.921-.379-2.707-2.977-3.086-4.331a17.685,17.685,0,0,1-.325-2.49,10.839,10.839,0,0,0-.216-1.841c-.109-.108-.217-.108-.6.108-.325.163-.433.271-.379.379s.054.109-.054.055c-.217-.109-.921.541-.7.7.108.054.108.054-.054.054-.217-.054-1.246.92-1.895,1.733-.163.216-.325.379-.434.379a1.507,1.507,0,0,0-.7.812.507.507,0,0,1-.27.379.406.406,0,0,0-.271.379c.054.108-.054.325-.163.487a21.232,21.232,0,0,0-1.895,2.923c-.541.867-1.029,1.679-1.083,1.841a2.88,2.88,0,0,0-.379.813,18.619,18.619,0,0,1-1.678,3.464c-.434.758-.975,1.679-1.138,1.95-.108.27-.595,1.083-.974,1.731-.433.7-.867,1.517-1.029,1.842-.379.758-1.408,1.948-1.733,1.948a1.194,1.194,0,0,1-.433-.054.447.447,0,0,1-.325-.217.864.864,0,0,0-.433-.271.666.666,0,0,1-.433-.27,2.863,2.863,0,0,0-.434-.758l-.27-.542.27-1.245a47.587,47.587,0,0,1,3.14-8.987c.271-.65.7-1.733.975-2.382.271-.595.7-1.733,1.029-2.436.325-.758.812-1.948,1.137-2.706a42.179,42.179,0,0,1,1.895-3.844c.271-.541.758-1.462,1.083-2.11a5.041,5.041,0,0,1,.812-1.354,1.062,1.062,0,0,0,.217-.433c0-.055.108-.163.271-.163,1.407-.271,1.407-.271,1.624.054a.789.789,0,0,0,.433.271c.271,0,.271.433,0,.975a1.643,1.643,0,0,0-.162.595,5.571,5.571,0,0,1-.6,1.192,26.53,26.53,0,0,0-2.219,4.6c-.217.6-.866,2.221-1.462,3.627-1.029,2.544-1.354,3.3-1.245,3.3a5.988,5.988,0,0,0,.595-.867c.542-.812.867-1.137.65-.541a1.144,1.144,0,0,1-.217.379c-.108.162-1.407,2.327-1.677,2.869-.488,1.028-.109.595.974-1.246.65-.975,1.517-2.436,2-3.085a58.08,58.08,0,0,1,5.631-6.875,3.911,3.911,0,0,0,.758-.758,11.331,11.331,0,0,0-1.95,1.516,55.8,55.8,0,0,0-4.439,5.576c-.6.975-1.137,1.516-.866.921a66.538,66.538,0,0,1,4.276-5.685,10.064,10.064,0,0,1,3.032-2.707c.7-.324,2.381,0,2.652.542a1.548,1.548,0,0,0,.379.433,3.817,3.817,0,0,1,1.191,1.895,25.79,25.79,0,0,1,.542,2.815c.379,2.112.7,3.14,1.083,3.356a2.407,2.407,0,0,0,.921,0c.649-.054.92-.162,2.056-.92a26.456,26.456,0,0,0,2.219-1.787C195.673,36.329,195.781,36.383,195.348,38.061Zm-26.256,13.48a.684.684,0,0,0-.217.379.053.053,0,0,0,.054.054,3.261,3.261,0,0,0,.217-.325C169.308,51.379,169.254,51.379,169.092,51.541Zm4.385-11.26c0-.054-.109-.054-.271-.054s-.271.162-.379.433a.939.939,0,0,0-.108.379c.054,0,0,.163-.109.325a12.714,12.714,0,0,0-1.029,2.382c.055.054.109,0,.163-.055.108-.054.108-.054.108.055-.054.108-.162.162-.216.108-.109,0-.163.054-.217.162a17.535,17.535,0,0,1-.7,1.787c-.7,1.679-.975,2.49-.758,2.329.054-.054.108,0,.054.108s-.108.162-.216.162c-.055-.054-.109-.054,0,.055.108.162,0,.7-.163.595-.054,0-.054.054,0,.163s0,.216-.162.216c-.109,0-.163.054-.109.217a1.229,1.229,0,0,1-.108.7c-.271.6-.271.7.054.216.108-.216.6-1.353,1.029-2.544s.866-2.219.921-2.327a3.652,3.652,0,0,0,.379-.975c.108-.433.27-.866.379-.866a.785.785,0,0,0,.108-.379,1.957,1.957,0,0,1,.271-.7A14.516,14.516,0,0,0,173.477,40.281Zm-.379-.271v.054c.054,0,.108-.162.216-.324.163-.271.163-.271-.054-.109C173.152,39.794,173.044,39.9,173.1,40.01Zm.379-.974a.412.412,0,0,0-.109.216c.055.217.109.163.217-.108C173.585,39.036,173.585,38.981,173.477,39.036ZM226.044,40.5a1.931,1.931,0,0,0-.6.92.573.573,0,0,1-.216.488.173.173,0,0,0-.163.162,13.626,13.626,0,0,1-1.516,1.841,17.382,17.382,0,0,0-1.57,1.841,12.688,12.688,0,0,1-2.761,2.652c-.054-.054-.162.055-.162.163,0,.65-3.79,3.41-6.064,4.385-2.219.975-3.735,1.083-5.2.433-.65-.27-1.517-1.029-1.571-1.462a1.557,1.557,0,0,0-.433-.595,3.56,3.56,0,0,1-.975-2.707,8.767,8.767,0,0,1,.6-3.14c.054-.162.325-.812.542-1.462a72.978,72.978,0,0,1,2.977-6.983l.758-1.462-.542.379a6.226,6.226,0,0,0-1.191,1.191c-.433.7-.65.921-1.083.975-.433.108-.92.487-2.165,1.733a10.266,10.266,0,0,1-1.841,1.57.248.248,0,0,0-.217.271c0,.325-.595,1.191-.595.866,0-.054-.163.109-.325.379s-.812,1.083-1.408,1.841c-.65.759-1.948,2.436-2.977,3.79-2.329,3.031-2.653,3.465-4.06,4.6-1.408,1.245-1.787,1.353-2.436.974a3.659,3.659,0,0,1-.758-.487.644.644,0,0,0-.325-.271c-.217,0-.325-.595-.163-.7.109-.054.109-.162-.054-.27-.92-.7-.974-2.112-.054-4.007.325-.595.6-1.137.7-1.137.217,0,.217,0-.325,1.137-.487,1.029-.812,2.546-.6,2.869.109.163.163.163.163-.054a5.05,5.05,0,0,1,.325-1.029,1.574,1.574,0,0,0,.271-1.083c-.109-.27,0-.541.649-1.407.7-1.029.867-1.463.379-1.029-.162.108-.27.108-.27,0a.143.143,0,0,1,.162-.163,3.017,3.017,0,0,0,.487-.65,6.363,6.363,0,0,1,.7-1.191,24.007,24.007,0,0,0,1.571-2.219,32.931,32.931,0,0,1,2.436-3.356.672.672,0,0,0,.216-.433,6.2,6.2,0,0,1,.866-1.408A6.117,6.117,0,0,0,198.163,36a25.131,25.131,0,0,1,3.031-3.735,9.983,9.983,0,0,1,1.95-1.787,2.6,2.6,0,0,0,1.029-.6,2.6,2.6,0,0,1,2.706-.758,2.329,2.329,0,0,1,1.029.433,3.432,3.432,0,0,0,.758.542,3.7,3.7,0,0,1,.975,1.3,3.943,3.943,0,0,0,.7,1.029,3.9,3.9,0,0,1,.541.488,1.3,1.3,0,0,0,.6.379c.325,0,.7,1.029.7,1.841a9.3,9.3,0,0,1-.542,2.381c-.325.813-.812,2.221-1.083,3.032-.27.866-.974,2.652-1.516,4.06-1.137,2.815-1.624,4.548-1.624,5.847,0,.867,0,.975.379,1.029a4.328,4.328,0,0,0,2.706-.541,30.268,30.268,0,0,0,7.742-5.2c.812-.758,1.353-1.083,1.462-.975.054.109.7-.433,1.678-1.353,1.083-1.083,1.571-1.462,1.625-1.3.108.163-.054.433-.217.6a1.159,1.159,0,0,0-.325.487,8.727,8.727,0,0,0,1.029-.866,4.052,4.052,0,0,1,1.246-1.029c.162-.054.379-.163.433-.325a2.015,2.015,0,0,1,1.029-1.083C226.585,39.9,226.53,40.064,226.044,40.5Zm-19.11-8.716a20.644,20.644,0,0,0-2.814,2.273c-.325.379-.6.379-.434.054.054-.162.054-.217-.108-.162-.108.054-.162.27-.162.379,0,.324-.6,1.028-2.436,3.031a32.936,32.936,0,0,0-2.436,2.977c-.812,1.083-1.57,2.058-1.679,2.219a38.921,38.921,0,0,0-3.139,5.36c0,.271.325-.054,1.841-1.841,2.869-3.465,3.519-4.168,3.573-3.519,0,.109.054.054.108-.108a.4.4,0,0,0,0-.487,6.819,6.819,0,0,1,1.408-1.841c1.354-1.462,1.57-1.679,1.948-1.625s.379,0,.217-.217c-.217-.216-.054-.433,1.3-1.785a7.919,7.919,0,0,0,2.219-3.086C206.663,32.54,206.933,31.836,206.933,31.782Zm-12.4,10.556c0,.27.162.162.379-.163.108-.162.163-.325.054-.379s-.162,0-.162.163c0,.108-.054.216-.163.216C194.59,42.175,194.536,42.284,194.536,42.338Zm8.391-3.194A37.056,37.056,0,0,0,199.9,42.5c.054,0,.866-.92,1.895-2,1.191-1.3,1.895-2,2.112-2,.162,0,.271-.054.217-.162a1.356,1.356,0,0,1,.27-.6A12.53,12.53,0,0,0,202.927,39.144ZM201.9,41.256c-.054-.217-.108-.271-.27-.109-.163.109-.163.163,0,.379C201.844,41.8,202.007,41.634,201.9,41.256Zm50.293-13.535c.975,2.49-.487,6.55-4.656,13.047-2.165,3.465-8.716,10.827-12.4,14.022-2.382,2.058-5.631,3.9-7.362,4.169a7.086,7.086,0,0,1-4.6-.758l-.866-.542-.65,1.191c-.7,1.354-2.869,6.118-3.681,8.067-.271.7-.65,1.731-.921,2.273a33.068,33.068,0,0,0-2.273,9.8h-.975c-.758-.054-1.029-.108-1.191-.325a1.8,1.8,0,0,0-.7-.487c-.271-.109-.6-.325-.65-.542a5.482,5.482,0,0,0-.542-.866c-.433-.7-.324-1.462.434-4.385.812-3.14,4.547-14.943,5.468-17.162.216-.487.758-1.948,1.245-3.193a14.4,14.4,0,0,1,1.246-2.6,2.236,2.236,0,0,0,.487-1.083c.108-.433.325-1.137.487-1.57s.7-1.733,1.192-2.869a68.271,68.271,0,0,1,3.3-7.308,2.711,2.711,0,0,0,.379-.921,6.1,6.1,0,0,1,.541-1.137c.271-.487,1.083-1.948,1.733-3.248.7-1.245,1.408-2.6,1.625-2.923a6.691,6.691,0,0,0,.7-1.516,5.062,5.062,0,0,1,.541-1.191,26.7,26.7,0,0,0,1.841-3.519A1.659,1.659,0,0,1,234,20.954a2.553,2.553,0,0,1,1.137.27,2.1,2.1,0,0,0,.7.6c.6.379.65.487.6,1.191a3.8,3.8,0,0,1-.488,1.3,79.065,79.065,0,0,0-6.5,11.368c-1.462,3.086-4.439,10.016-4.385,10.124a8.069,8.069,0,0,0,1.191-1.624,37.28,37.28,0,0,1,3.14-4.169,19.641,19.641,0,0,0,1.841-2.219c.812-1.029,2.165-2.706,3.032-3.681a18.157,18.157,0,0,0,1.624-2.058,3.279,3.279,0,0,1,.812-.866c.434-.325,1.733-1.462,2.815-2.49a16.809,16.809,0,0,1,5.468-3.681,3.851,3.851,0,0,1,2.6-.325,5.225,5.225,0,0,1,1.95.487,1.762,1.762,0,0,0,.812.379C250.893,25.609,251.812,26.692,252.191,27.721ZM220.413,50.3a86.471,86.471,0,0,0,3.14-8.283c-.162-.163-2.058,3.952-2.49,5.414a25.916,25.916,0,0,1-1.3,3.356c-.27.65-1.028,2.869-1.785,4.981s-1.462,4.006-1.571,4.168a14.47,14.47,0,0,0-.595,1.733c-.217.758-.488,1.516-.542,1.733-.108.217-.108.379-.054.433a10.842,10.842,0,0,0,.812-1.733,24.763,24.763,0,0,1,1.137-2.49,4.932,4.932,0,0,0,.6-1.785,12.016,12.016,0,0,1,.7-2.436,25.875,25.875,0,0,0,1.624-4.223A3.517,3.517,0,0,1,220.413,50.3Zm-1.3,4.764c-.054-.054-.109,0-.109.216,0,.163,0,.217.109.109A.342.342,0,0,0,219.114,55.06Zm3.3-.975c.433-.7,1.516-2.49,2.436-4.006,5.63-9.366,12.289-17.486,18.73-22.738,1.517-1.245,2.219-1.733,2.707-1.787,2.112-.379,2.058-.379,1.191-.379-1.841-.054-4.385,1.3-7.8,4.061a20.321,20.321,0,0,0-2.112,1.895c-.054.108-.7.92-1.462,1.787-2.275,2.49-3.79,4.331-3.573,4.277.108,0,.216,0,.216.054.109.162-.541,1.191-.758,1.245-.325.054-.325,0,.054-.65.6-.866.055-.379-.758.7-.379.542-.7,1.083-.649,1.192.054.054-.217.379-.6.7-.6.488-.65.6-.65,1.246,0,.433-.108.65-.162.6-.109-.055-.163-.217-.163-.434.054-.216.054-.216-.162,0a.584.584,0,0,0-.109.488c.055.108-.108.216-.27.325-.217.054-.433.433-.542.758a6.634,6.634,0,0,1-.812,1.677,5.472,5.472,0,0,0-.65,1.3c0,.379-.541.7-.595.379,0-.108-.217.054-.434.325-.162.325-.325.65-.216.7,0,.054.054,0,.108-.108,0-.109.054-.217.162-.217.325.054.163.487-.324.866-.271.217-.434.434-.434.542a3.128,3.128,0,0,1-.649,1.245c-.379.65-1.083,1.787-1.517,2.653a11.09,11.09,0,0,1-.92,1.678.591.591,0,0,0-.108.542C221.659,55.222,221.874,55.06,222.416,54.085Zm26.8-26.8a1.928,1.928,0,0,0-.325-.92,4.874,4.874,0,0,0-1.516.379,12.89,12.89,0,0,0-3.681,2.381c-5.144,4.115-10.179,10.124-15.483,18.57-1.571,2.435-3.14,4.98-3.465,5.576-1.516,2.706-1.841,3.248-1.841,3.248a7.662,7.662,0,0,0,2.112-.108c1.408-.271,4.385-2,7.092-4.115a4.643,4.643,0,0,1,1.57-.92c.271.054.379-.054.379-.325a.486.486,0,0,1,.379-.542,16.243,16.243,0,0,0,3.3-2.6l.542-.487-.379.487c-.217.271-.271.433-.163.379a15.857,15.857,0,0,0,2.544-2.923,4.028,4.028,0,0,1,1.191-1.57,48.033,48.033,0,0,0,5.794-8.446,14.944,14.944,0,0,1,1.137-2.923A14.259,14.259,0,0,0,249.214,27.288ZM224.636,37.25a1.233,1.233,0,0,0,.217-.488c0-.054-.055-.108-.163-.054a.6.6,0,0,0-.216.488C224.474,37.574,224.474,37.574,224.636,37.25Zm8.12,16.457c-.595.433-1.137.867-1.245.975-.054,0-.6.433-1.191.866-1.137.812-1.733,1.029-1.517.488.109-.163.055-.217-.054-.163s-.162.325-.162.542c.054.325-.054.487-.487.649-.6.217-.759.217-.6,0,.108-.108.054-.162-.054-.162-.054-.054-.163.108-.163.325s.054.379.109.379.595-.271,1.3-.6c1.408-.7,4.223-2.6,4.277-2.923a3.956,3.956,0,0,1,.487-.758C233.785,53,233.569,53.057,232.756,53.707Zm51.647,0c-1.679,1.787-2.382,2.273-4.223,2.815l-1.408.379-1.083-.379c-1.895-.65-2.652-1.354-3.627-3.41a6.533,6.533,0,0,1-.7-3.14c-.216-2.112-.162-2.869.488-6.442.108-.6.27-1.462.324-2s.217-1.57.379-2.327c.325-1.624.325-1.787-.054-2-.216-.109-.379-.055-1.029.487a74.069,74.069,0,0,0-5.9,7.362c-.65.921-1.624,2.219-2.112,2.869a12.9,12.9,0,0,0-1.353,1.95c-.271.433-.867,1.462-1.462,2.381-.867,1.516-1.462,2.544-3.465,6.064A17.271,17.271,0,0,0,258.2,60.1c-.108.271-.433.975-.758,1.624a54.1,54.1,0,0,0-2.869,6.713c.109.433,0,.65-.65,1.516-.812,1.029-1.028,1.245-1.462,1.191a3.454,3.454,0,0,1-1.516-.812,1.036,1.036,0,0,1-.271-.65c-.054-.325-.108-.433-.324-.325-.217.055-.271-.108-.434-1.083-.162-1.353.217-3.3,1.462-7.47.434-1.516.921-3.248,1.138-3.9,1.191-4.277,4.6-13.047,5.63-14.562a11.123,11.123,0,0,0,.6-1.3c.271-.541.7-1.516.974-2.165a8.183,8.183,0,0,0,.542-1.3,1.491,1.491,0,0,1,.325-.7c.162-.271.7-1.354,1.137-2.382.487-1.029,1.3-2.652,1.787-3.573.541-.975,1.191-2.219,1.462-2.76.487-1.083,5.252-10.07,7.092-13.372.541-1.083,1.191-2.275,1.353-2.707a9.1,9.1,0,0,1,.6-1.245,14.984,14.984,0,0,0,.921-1.571c.054-.108-.055-.108-.325-.054-.325.108,0-.433,1.732-2.544A30,30,0,0,0,278.5,3.847c0-.162.271-.433,1.408-1.191.921-.65,2.436-.325,2.544.542,0,.108.163.27.271.379.271.108.271.216.163.812-.163.866-.217.975-1.246,2.112a37.069,37.069,0,0,0-4.277,6.008A20.482,20.482,0,0,1,275.577,15a5.694,5.694,0,0,0-.649,1.029c-.325.6-.813,1.408-1.083,1.841a3.315,3.315,0,0,0-.488,1.083c.054.163-.054.325-.108.325-.108,0-.217.217-.271.487s-.162.434-.216.434c-.163-.109-1.138,1.57-1.083,1.841a.174.174,0,0,1-.163.162.457.457,0,0,0-.108.325c.054.162-.163.541-.379.812a2.221,2.221,0,0,0-.379.65.282.282,0,0,1-.109.217c-.108,0-.27.324-.379.758a14.085,14.085,0,0,1-1.028,1.948,9.05,9.05,0,0,0-.759,1.516c-.054.109-.433.867-.866,1.625-.379.758-.866,1.677-1.029,2.112-.162.379-.487,1.083-.7,1.516a2.657,2.657,0,0,0-.379,1.029,13.666,13.666,0,0,1-.866,2c-.488,1.029-1.408,3.086-2,4.548-.65,1.516-1.516,3.681-1.948,4.764-.487,1.137-1.246,3.14-1.733,4.493s-1.083,2.978-1.3,3.573c-.541,1.354-.541,1.571-.054.542.217-.434.434-.758.542-.7s.7-.812.7-.975c-.054-.054.054-.271.216-.433.109-.163.379-.542.542-.758a4.785,4.785,0,0,0,.6-.975c.162-.271.595-1.029,1.028-1.679a3.625,3.625,0,0,0,.7-1.353c-.108-.109-.054-.163,0-.109.109.055.434-.27.7-.7.867-1.3,1.192-1.731,1.787-2.489.325-.379.6-.867.542-.975,0-.163.054-.217.108-.108s.379-.217.812-.813.65-1.083.542-1.137-.109-.108,0-.216a.356.356,0,0,1,.325-.055c.162.109,1.3-1.407,1.137-1.57-.054-.108,0-.108.108-.108s.217-.163.217-.325c0-.271.108-.379.216-.325.217.054.488-.271,1.408-1.624a12.248,12.248,0,0,1,2.6-2.436c1.083-.65,3.519-.65,3.573,0,0,.162.542.65.975.812a.609.609,0,0,1,.379.6,6.187,6.187,0,0,0,.325,1.137,19.556,19.556,0,0,1-.163,5.793c-1.083,6.55-1.137,7.8-.649,9.907a3.788,3.788,0,0,0,.541,1.408,3.994,3.994,0,0,0,1.354-.054c1.948-.325,3.248-1.3,5.847-4.277A4.029,4.029,0,0,1,285.647,49c.108.054.108.163.054.325a2.536,2.536,0,0,0,.217,1.733C286.3,51.27,285.7,52.245,284.4,53.707Zm-28.963,1.57c.541-1.245.974-2.435,1.028-2.652a11.016,11.016,0,0,1,.65-1.895c1.246-3.465,1.679-4.6,1.841-4.927.163-.379.379-.974.6-1.624.108-.271.325-.812.542-1.246.758-1.678,2-4.547,2.327-5.468a28.2,28.2,0,0,1,1.3-2.652c1.353-2.544,2.868-5.9,2.652-6.064a.167.167,0,0,0-.108.054c-.217.379-1.354,2.869-1.354,2.923a13.32,13.32,0,0,1-.812,1.625,46.472,46.472,0,0,0-2.869,6.172,8.863,8.863,0,0,1-.488,1.083c-.27.6-.812,1.895-1.245,2.923a12.707,12.707,0,0,1-.921,2c-.216.162-.162-.271.109-1.083.216-.65.27-.813.054-.867-.217,0-.271-.216-.054-.379a.188.188,0,0,1,.27.054c.109.109.217-.054.434-.433.216-.487.216-.65.054-.812s-.109-.163.108-.217c.271,0,.65-.65.65-1.245a2.406,2.406,0,0,1,.325-.7,2.593,2.593,0,0,0,.433-.867,2.629,2.629,0,0,1,.325-.7c.216-.27.216-.379.054-.487-.217-.108-.271-.108-.325.163,0,.27-.108.324-.271.27s-.325.054-.379.271c-.162.325-.162.379.054.163.163-.163.271-.163.325-.055.109.109.109.163,0,.109-.162-.109-.595.866-.541,1.3,0,.217,0,.217-.217,0-.216-.27-.271-.216-.433.217s-.162.487,0,.487c.217.054.217.109.108.325-.108.163-.162.163-.216.054-.109-.27-.433.163-.6.813-.054.324-.054.379.108.324.109-.054.217-.054.217.055.054.216-.325.541-.542.487-.27,0-1.731,3.681-4.114,10.556-1.083,3.086-3.248,10.231-3.194,10.61,0,.109.109.109.217.055.054-.055.108-.055.108.108a.358.358,0,0,1-.271.216c-.108,0-.324.488-.433,1.246-.325,1.57-.271,2.219.109,1.191.108-.216.324-1.029.541-1.787a6.855,6.855,0,0,1,.542-1.57c.27-.379.595-1.462.379-1.408-.055,0-.163-.217-.163-.487-.054-.325,0-.433.108-.379s.163.054.055-.054a2.744,2.744,0,0,1,.433-1.787c.325-.271.325-.163.054.433-.433.758-.433,1.083,0,.379.162-.325.6-1.408.975-2.436.325-1.029.974-2.923,1.516-4.223a25.549,25.549,0,0,0,.866-2.6,5.95,5.95,0,0,1,.488-1.462c.379-.975.379-1.137.108-.758-.271.433-.325.433-.325.217a.978.978,0,0,1,.162-.65.878.878,0,0,0,.055-.65c-.055-.162-.055-.379.054-.433.054-.054.162,0,.162.108,0,.163.108.217.217.108.108-.054.108.055.108.38-.054.216-.054.324,0,.216.054-.216.325-.271.379-.054,0,.054-.433,1.354-.975,2.761-.541,1.462-.974,2.652-.974,2.706s-.325,1.029-.7,2.165c-.433,1.137-.812,2.273-.921,2.6-.054.325-.325,1.137-.541,1.9s-.379,1.353-.379,1.407c.054,0,.162-.216.27-.541C254.357,58.145,254.682,57.28,255.439,55.276Zm-2.382,6.713c-.054.271-.162.65-.217.866,0,.325,0,.325.109-.054a3.212,3.212,0,0,0,.216-.92C253.22,61.611,253.22,61.611,253.057,61.99Zm1.57-6.929c0,.216-.054.433-.216.487a.2.2,0,0,0-.108.271.582.582,0,0,1-.109.487c-.162.325-.162.325-.162-.27a1.545,1.545,0,0,1,.271-.921l.27-.379Zm.109,4.114c-.054-.054-.109,0-.163.109a1.664,1.664,0,0,0-.108.433c0,.054.054,0,.162-.109A1.626,1.626,0,0,0,254.736,59.174Zm1.191-7.633c-.162.542-.487.758-.542.325,0-.108.055-.217.109-.217.108,0,.162-.108.162-.216a.447.447,0,0,1,.163-.433C256.088,50.729,256.088,50.837,255.926,51.541Zm.6,2.058a20.564,20.564,0,0,0-1.083,3.248c0,.108.866-2.219,1.083-2.977C256.576,53.653,256.576,53.545,256.522,53.6Zm.541-1.191c.054-.217.163-.488.163-.542,0-.108-.109,0-.217.217a1.643,1.643,0,0,0-.162.595C256.847,52.732,256.955,52.624,257.063,52.408Zm1.894-5.36c-.216.325-1.462,3.573-1.677,4.222-.217.867.108.217.758-1.462C258.957,47.427,259.228,46.615,258.957,47.048Zm-1.083-1.571c0-.758.109-.866.325-.379a.666.666,0,0,1-.108.65C257.93,46.019,257.875,45.965,257.875,45.477Zm7.9-13.859a12,12,0,0,0-.974,2.058,1.089,1.089,0,0,1-.163.433c-.108.217-.379.6-.6.975-.216.325-.433.7-.379.812a.821.821,0,0,1-.216.433,6.233,6.233,0,0,0-.65,1.354,7.087,7.087,0,0,1-.6,1.354,13.728,13.728,0,0,0-.541,1.3c-.217.6-.6,1.408-.758,1.895-.433.921-1.516,3.573-1.516,3.682.054.216.216-.109.812-1.571.379-.92,1.029-2.435,1.462-3.41.487-.975.975-2,1.083-2.273.108-.217.433-.867.758-1.408.271-.488.65-1.3.866-1.787.163-.488.434-1.192.6-1.571A15.221,15.221,0,0,0,265.779,31.619Zm-4.547,5.522c.162.325.162.325.379-.054.108-.216.216-.379.162-.433s-.162.054-.271.162c-.108.163-.216.163-.216.055a.684.684,0,0,1,.216-.379,8.72,8.72,0,0,0,.867-1.679,12.433,12.433,0,0,1,.92-1.895c.217-.271.325-.542.217-.65-.054-.108-.054-.108.054-.054s.217-.054.325-.271c.162-.433-.162-.542-.379-.054a1.335,1.335,0,0,0-.217.595,1.9,1.9,0,0,1-.27.434A3.832,3.832,0,0,0,262.477,34c-.216.433-.541,1.3-.866,1.841A2.361,2.361,0,0,0,261.232,37.14Zm2.652-5.847c.162.271.217.217.7-.7.487-.974.541-1.083.271-1.029-.109,0-.217.163-.325.434a3.93,3.93,0,0,1-.271.649.724.724,0,0,0-.162.434c0,.162-.055.216-.163.162S263.776,31.186,263.884,31.294Zm.271,4.169c-.109.27-.217.487-.271.487s0-.217.108-.433c.109-.271.217-.542.271-.542S264.263,35.192,264.155,35.463Zm2.544-5.631c-.109-.054-.65.975-.6,1.191,0,.109.163-.108.325-.487C266.646,30.211,266.754,29.886,266.7,29.832Zm-.217-1.3c0,.27.271-.109.758-.975.867-1.733,1.083-2.273.975-2.329-.054-.108-.162-.054-.162.055-.055.054-.38.812-.813,1.624A12.854,12.854,0,0,0,266.483,28.534Zm1.571-1.408-.38.487a2.44,2.44,0,0,0-.324.7c.054.108,0,.217-.109.217-.054,0-.162.162-.162.324-.054.271-.054.325.108.109a4.624,4.624,0,0,0,.487-1.029Zm.216-2.165c.054.379.487-.325,1.408-2.112,1.948-3.844,1.948-3.9,1.733-3.844a4.95,4.95,0,0,0-.7,1.083c-.325.65-.975,1.95-1.516,2.923A13.842,13.842,0,0,0,268.269,24.961Z" transform="translate(0 0)" fill="#fff"/>
  </g>
</svg>
