<svg xmlns="http://www.w3.org/2000/svg" width="661.53" height="816.747" viewBox="0 0 661.53 816.747">
  <g id="グループ_1110" data-name="グループ 1110" transform="translate(0 -0.005)">
    <g id="グループ_1117" data-name="グループ 1117">
      <path id="パス_130" data-name="パス 130" d="M142.232,610.383S-22.554,513.615,8.069,309.657,226.811,0,226.811,0L646.8,133.988S279.312,187.577,153.9,346.876C28.47,506.193,142.232,610.383,142.232,610.383" transform="translate(14.733 0.004)" fill="#002058"/>
      <path id="パス_131" data-name="パス 131" d="M229.642,159.475c0,49.33-39.175,89.323-87.5,89.323s-87.5-39.993-87.5-89.323,39.17-89.328,87.5-89.328,87.5,40,87.5,89.328" transform="translate(188.357 248.283)" fill="#002058"/>
      <path id="パス_132" data-name="パス 132" d="M504.565,45.46s164.787,96.768,134.163,300.726-218.742,309.66-218.742,309.66L0,521.855s367.485-53.588,492.9-212.888C618.326,149.65,504.565,45.46,504.565,45.46" transform="translate(0 160.904)" fill="#002058"/>
    </g>
  </g>
</svg>
