<svg xmlns="http://www.w3.org/2000/svg" width="1137.636" height="1404.563" viewBox="0 0 1137.636 1404.563">
  <path id="パス_130" data-name="パス 130" d="M241.521,1049.678S-41.863,883.266,10.8,532.517,386.971,0,386.971,0l722.252,230.418s-631.966,92.156-847.637,366.1c-215.7,273.979-20.065,453.155-20.065,453.155" transform="translate(28.412 -0.001)" fill="#fff"/>
  <path id="パス_131" data-name="パス 131" d="M355.584,223.764c0,84.834-67.368,153.61-150.467,153.61S54.65,308.6,54.65,223.764,122.011,70.147,205.117,70.147s150.467,68.784,150.467,153.617" transform="translate(363.25 477.451)" fill="#fff"/>
  <path id="パス_132" data-name="パス 132" d="M867.7,45.46s283.385,166.412,230.72,517.161-376.171,532.524-376.171,532.524L0,864.719s631.965-92.156,847.637-366.1C1063.339,224.636,867.7,45.46,867.7,45.46" transform="translate(0 309.418)" fill="#fff"/>
</svg>
