<svg xmlns="http://www.w3.org/2000/svg" width="8.28" height="123.304" viewBox="0 0 8.28 123.304">
  <g id="グループ_305" data-name="グループ 305" transform="translate(-1280.856 -626.544)">
    <path id="パス_313" data-name="パス 313" d="M-8151,7473.393v-50.806" transform="translate(9436 -6723.545)" fill="none" stroke="#fff" stroke-width="0.5"/>
    <path id="パス_2364" data-name="パス 2364" d="M-25.74-6.888a2.421,2.421,0,0,0-.78-.888,2.168,2.168,0,0,0-1.284-.36,2.068,2.068,0,0,0-2.244,2.064A1.662,1.662,0,0,0-29.5-4.764a3.543,3.543,0,0,0,1.068.66l.72.336a3.492,3.492,0,0,1,.96.552,1.194,1.194,0,0,1,.4.936A1.515,1.515,0,0,1-27.96-.7a1.53,1.53,0,0,1-1.152-.444,1.889,1.889,0,0,1-.48-1.02l-.864.24A2.9,2.9,0,0,0-29.712-.5a2.387,2.387,0,0,0,1.74.648,2.4,2.4,0,0,0,2.532-2.46,1.926,1.926,0,0,0-.576-1.452,3.888,3.888,0,0,0-1.236-.756l-.768-.336a2.614,2.614,0,0,1-.84-.5.839.839,0,0,1-.3-.7A1.228,1.228,0,0,1-27.816-7.3a1.44,1.44,0,0,1,.9.276,1.929,1.929,0,0,1,.468.6Zm12.852-.456a3.772,3.772,0,0,0-2.364-.792A4.069,4.069,0,0,0-19.44-3.972,4.046,4.046,0,0,0-15.3.144a4.167,4.167,0,0,0,2.412-.78v-1.1a3.641,3.641,0,0,1-.924.672A3.327,3.327,0,0,1-15.3-.7,3.2,3.2,0,0,1-18.528-3.96,3.229,3.229,0,0,1-15.312-7.3a3.409,3.409,0,0,1,1.38.312,3.945,3.945,0,0,1,1.044.744ZM-6.456-8V0h.888V-3.5h.228L-2.9,0h1.08L-4.368-3.576A2.1,2.1,0,0,0-2.352-5.784,2.089,2.089,0,0,0-3.228-7.56,3.51,3.51,0,0,0-5.172-8Zm.888.84h.54a2.283,2.283,0,0,1,1.152.228A1.245,1.245,0,0,1-3.24-5.76C-3.24-4.824-3.9-4.3-5-4.3h-.564ZM8.1.144A4.086,4.086,0,0,0,12.264-4,4.086,4.086,0,0,0,8.1-8.136,4.086,4.086,0,0,0,3.936-4,4.086,4.086,0,0,0,8.1.144Zm0-7.44A3.265,3.265,0,0,1,11.352-4,3.265,3.265,0,0,1,8.1-.7,3.265,3.265,0,0,1,4.848-4,3.265,3.265,0,0,1,8.1-7.3ZM18.7-8V0h3.1V-.84H19.584V-8Zm9.1,0V0h3.1V-.84H28.68V-8Z" transform="translate(1281 657) rotate(90)" fill="#fff"/>
  </g>
</svg>
