<svg xmlns="http://www.w3.org/2000/svg" width="283.637" height="113.155" viewBox="0 0 283.637 113.155">
  <path id="パス_324" data-name="パス 324" d="M.344,78.823a75.813,75.813,0,0,1,.7-17.893c1.206-6.408,4.95-15.165,9.835-22.969,2.6-4,8.249-11.548,8.694-11.548a8.772,8.772,0,0,0,1.206-2.157c1.966-4.251,4.187-9.327,4-9.138-.063.127-.634,1.015-1.206,1.9a57.364,57.364,0,0,1-4,5.456c-.825.953-.888,1.016-1.65.89-1.206-.191-1.332-.254-1.65-.89l-.318-.634,1.587-1.967c.825-1.078,1.967-2.728,2.6-3.679,2.6-4.188,5.711-8,7.741-9.455a2.622,2.622,0,0,1,2.856-.253c.825.444,1.079,1.206,1.079,3.235a5.013,5.013,0,0,1-.888,3.491,11.334,11.334,0,0,0-.762,1.585s.951-.825,2.094-1.84A33.267,33.267,0,0,1,34.8,10.8c.316-.191,1.141-.825,1.9-1.4a4.739,4.739,0,0,1,1.523-.953c.063.065.19-.063.253-.253s.191-.381.254-.381a9.031,9.031,0,0,0,1.4-.888,22.775,22.775,0,0,1,9.9-4.379,14.148,14.148,0,0,1,6.789.065,8.607,8.607,0,0,1,4.5,2.854A5.911,5.911,0,0,1,63.162,8.71a9.815,9.815,0,0,1,.634,4.441,9.258,9.258,0,0,1-.634,4.188,51.71,51.71,0,0,1-5.9,11.04,101.982,101.982,0,0,1-8,10.152,33.5,33.5,0,0,0-2.348,2.475c-7.93,8.439-10.405,10.787-16.37,15.355-7.361,5.585-15.039,9.138-19.988,9.2a5.254,5.254,0,0,0-1.585.127,6.153,6.153,0,0,0,1.332,1.9,40.656,40.656,0,0,0,3.681,2.347C17.73,72.034,24.266,73.557,31.752,74c1.714.127,2.348.254,2.6.507.316.318,1.078.381,6.789.318,9.454-.063,16.75-.762,22.144-2.094a11.2,11.2,0,0,1,2.22-.381c.191.191-1.459,1.776-1.84,1.776-.318,0-.318.063-.128.191.953.7-1.776,1.776-7.233,2.854-1.459.254-3.235.7-3.87.825-2.031.572-5.329.825-10.6.825-11.04.063-14.911-.19-20.113-1.332-5.583-1.269-9.01-2.856-11.739-5.583-2.284-2.22-2.284-2.22-2.6-1.015-.571,2.22-1.015,4.314-1.967,9.9a4.434,4.434,0,0,1-.444,1.332,5.7,5.7,0,0,0-.444,1.269,4.238,4.238,0,0,1-1.776,2.856c-1.015.634-1.078.634-1.269.063a.762.762,0,0,0-.634-.444c-.381,0-.509-.191-.635-1.015a5.593,5.593,0,0,1,.126-2.031C.6,81.87.6,81.425.344,78.823ZM1.55,85.3a.653.653,0,0,0,.318-.444c0-.254,0-.572-.127-.7-.063-.127-.128-.063-.128.126a2.71,2.71,0,0,1-.126.7C1.423,85.168,1.423,85.3,1.55,85.3ZM3.263,73.747c0,.444,0,.444.191.065.126-.381.126-.381.126.063,0,.253-.063.444-.126.444-.128,0-.191.634-.191,1.459,0,.762.063,1.143.128.762,0-.318.19-1.332.316-2.157.191-.825.762-3.173,1.269-5.139.825-2.982.953-3.681.762-4.125-.126-.381-.19-.444-.318-.254A54.933,54.933,0,0,0,3.263,73.747Zm.063-6.472A20.419,20.419,0,0,1,3.9,65.245a5.638,5.638,0,0,0,.318-2.665c-.128-.762-.191-.762-.445,1.079A21.951,21.951,0,0,0,3.326,67.275Zm.444,4.632a18.805,18.805,0,0,1,.89-2.982A21.41,21.41,0,0,1,3.9,71.971C3.835,72.034,3.77,72.034,3.77,71.907Zm1.967-2.6A80.929,80.929,0,0,0,3.962,78c0,.509.19-.19.634-2.538.254-1.459.825-3.807,1.143-5.2.381-1.4.7-2.728.762-2.982C6.689,66.2,6.119,67.72,5.738,69.306ZM4.66,61.057c.379.572.316.635,1.4-2.665A162.344,162.344,0,0,1,12.59,42.339a14.338,14.338,0,0,0,.825-1.966c-.063,0-2.791,4.759-3.679,6.408a70.057,70.057,0,0,0-4.95,12.31C4.406,60.486,4.406,60.613,4.66,61.057Zm.634,5.457a3.274,3.274,0,0,1,.127-.7c.128-.254.191-.318.191-.128a1.893,1.893,0,0,1-.191.762C5.357,66.7,5.294,66.768,5.294,66.514Zm1.4-17.195c0-.572.254-1.206.381-.888a1.539,1.539,0,0,1-.127.825C6.689,49.827,6.689,49.827,6.689,49.319Zm6.663-5.52c-.254.507-.381.825-.254.7.128-.063.254-.063.254.065a.272.272,0,0,1-.254.253A34.6,34.6,0,0,0,10.18,51.54c0,.254-.065.381-.128.318-.126-.063-.253.19-.316.507-.065.381-.191.634-.254.634-.254,0-.191.635,0,.7s0,.825-.635,2.6c-.19.572-.38.7-.444.507-.126-.19-.253-.126-.444.318-.253.444-.316.635-.126.825.254.381.063,1.332-.507,2.475-.254.634-.318,1.015-.063,1.015.063,0,.19-.253.316-.571.065-.318.635-1.84,1.269-3.426.7-1.523,1.4-3.363,1.65-4,.381-1.078,1.46-3.49,3.3-7.613.444-.825.762-1.4.825-1.269,0,.127-.7,1.966-1.587,4.06-1.966,4.632-2.22,5.267-3.807,9.454C7.9,61.565,7.958,61.438,8.213,61.438a10.184,10.184,0,0,0,.762-1.713c.316-.951.888-2.475,1.269-3.363a13.42,13.42,0,0,0,.7-1.84,25.832,25.832,0,0,1,.953-2.412c.571-1.206,1.2-2.728,1.522-3.426a13.342,13.342,0,0,1,.888-1.713c.191-.253.318-.571.254-.634a5.726,5.726,0,0,1,.507-1.713c.318-.762.762-1.778.888-2.157a9.193,9.193,0,0,1,.762-1.65,22.7,22.7,0,0,0,1.4-3.363c0-.318-.381.381-1.078,1.966-.444,1.016-.888,1.713-.888,1.523a8.414,8.414,0,0,1,.951-2.412,16.746,16.746,0,0,0,1.015-2.284,1.255,1.255,0,0,1,.254-.507c.127-.191.888-1.776,1.587-3.491,1.2-2.918,1.269-3.109.634-2.347a4.536,4.536,0,0,0-.571,1.015,5.226,5.226,0,0,1-.381.509c-.7.824-1.332,1.966-1.206,2.22.063.126.063.19-.063.126-.254-.19-.444.191-.507.825a9.025,9.025,0,0,1-.572,1.332,15.635,15.635,0,0,0-1.522,3.237,5.99,5.99,0,0,1-1.016,1.84c-.316,0-.76,1.143-.571,1.46.063.063,0,.253-.19.379A2.655,2.655,0,0,0,13.352,43.8Zm-5.9,15.1a.847.847,0,0,0,.191-.507c0-.127-.065-.063-.191.126a1.668,1.668,0,0,0-.19.509C7.261,59.154,7.388,59.091,7.451,58.9Zm1.4-4a1.024,1.024,0,0,0,.254-.635c-.063-.127-.19,0-.318.381C8.594,55.22,8.594,55.22,8.847,54.9ZM56.626,27.365,55.8,28.443c-.444.572-1.141,1.4-1.522,1.778-.381.444-1.206,1.332-1.778,2.029-.634.7-1.078,1.143-1.078.953,0-.318.634-1.269,2.22-3.11a5.42,5.42,0,0,0,.888-1.332,1.067,1.067,0,0,1,.444-.571,1.9,1.9,0,0,0,.444-.571,5.826,5.826,0,0,1,.444-.825c.635-1.016.762-1.46.191-.572a135.8,135.8,0,0,1-9.582,11.295c-2.982,3.109-3.679,3.807-3.679,3.363,0-.126,1.84-2.348,4.123-4.95a42.089,42.089,0,0,0,3.3-3.807c-1.332,1.332-4.885,5.2-7.869,8.5a67.056,67.056,0,0,1-8.122,7.932c-1.332,1.143-3.109,2.6-4,3.3a64.784,64.784,0,0,1-7.488,5.329c-.888.507-1.713,1.016-1.9,1.143s-.318.254-.254.318a13.233,13.233,0,0,0,2.031-1.079,12.269,12.269,0,0,1,2.157-1.143c.318,0-.571.825-.888.825-.126,0-.318.191-.381.381A3.925,3.925,0,0,1,21.537,58.9c-.127,0-.316.191-.444.318a1.327,1.327,0,0,1-.7.444,1.7,1.7,0,0,0-.762.381c-.444.381-1.4.825-1.206.571.063-.127-.063-.19-.19-.19-.191,0-.254.127-.191.318.126.253-.318.444-1.078.444a3.706,3.706,0,0,0-1.269.507,12.171,12.171,0,0,1-1.143.444c-.126,0-.318,0-.318.126a13.918,13.918,0,0,1-3.49,1.143,3.412,3.412,0,0,0-1.269.571c-.254.254-.063.254,1.143.128a6.512,6.512,0,0,0,1.585-.318.373.373,0,0,1,.509-.063.526.526,0,0,0,.507-.128,3.73,3.73,0,0,1,.825-.316,2.022,2.022,0,0,0,.825-.444c.126-.254.381-.318.7-.191.381.063.509,0,.635-.253.063-.254.253-.318.634-.254.572.19,2.6-.571,2.6-.888,0-.127.191-.191.444-.191.572,0,1.4-.444,1.269-.7-.127-.191.635-.572.953-.444.19.063.316-.063.381-.318.063-.381.19-.444.634-.381a1.5,1.5,0,0,0,.762-.063c.127-.127.127-.191.063-.191-.063-.063,0-.253.191-.444a.8.8,0,0,1,.507-.444c.063,0,0,.191-.191.444-.316.444-.316.444.381.065a5.376,5.376,0,0,0,1.079-.7,8.365,8.365,0,0,1,.7-.507c.191-.063.318-.191.254-.318s.063-.318.254-.444c.316-.191.379-.191.316,0-.253.444.063.254,1.841-1.015.381-.318.76-.635.825-.7a6.862,6.862,0,0,1,1.015-.825,5.2,5.2,0,0,0,1.015-.762c0-.063-.316.063-.7.318-.318.254-.635.381-.635.254,0-.254,1.079-.89,1.332-.762.128.063.509-.128.825-.381a3.256,3.256,0,0,1,.635-.572A65.778,65.778,0,0,0,40,46.464c.762-.762,1.587-1.523,1.84-1.713.191-.19,1.016-1.015,1.841-1.9.76-.824,2.157-2.347,3.109-3.3.951-1.016,2.347-2.475,2.982-3.173,1.459-1.587,5.33-6.6,6.282-8.058ZM21.41,34.217c-3.553,7.805-6.789,15.292-7.423,17.133-.381,1.078-.89,2.538-1.206,3.235s-.762,1.84-1.016,2.538c-.19.7-.634,1.9-.951,2.729-.507,1.2-.507,1.4-.254,1.332.191-.063,1.016-.318,1.9-.572a61.472,61.472,0,0,0,13.2-6.853c2.22-1.522,5.583-4.188,9.2-7.233,1.143-1.015,2.538-2.157,2.982-2.538a15.173,15.173,0,0,0,1.84-1.713,16.2,16.2,0,0,1,2.856-2.6A38.093,38.093,0,0,0,45.2,36.946c1.016-1.206,2.6-2.982,3.554-4,.888-1.015,2.029-2.412,2.538-3.109.507-.762,1.332-1.9,1.9-2.665.507-.7.888-1.334.762-1.4-.254-.19,1.078-2.22,1.4-2.157.191.063.318-.063.444-.318a24.983,24.983,0,0,1,1.4-2.6,25.947,25.947,0,0,0,3.237-7.042c.7-2.412.888-4.442.444-5.457a5.436,5.436,0,0,1-.253-.951c0-.318-1.334-1.269-2.412-1.714a13.243,13.243,0,0,0-5.2-.7,25.891,25.891,0,0,0-8.567,2.919,78.205,78.205,0,0,0-11.8,9.136c-.635.7-2.031,1.967-2.982,2.856-2.792,2.6-3.428,3.49-5.267,7.8C23.5,29.648,22.172,32.7,21.41,34.217ZM11.132,50.46c-.127.254-.127.128-.063-.38a1.7,1.7,0,0,1,.19-.825C11.385,49.065,11.321,50.144,11.132,50.46Zm6.789,11.105c.127.126,0,.253-.507.444l-.444.127.381-.381C17.6,61.565,17.858,61.5,17.921,61.565Zm1.4-2.094c.571-.318,1.016-.635.951-.7a3.2,3.2,0,0,0-1.141.571C17.794,60.105,17.921,60.169,19.316,59.471Zm-.825-22.843c.063-.063.635-1.269,1.206-2.538a14.057,14.057,0,0,0,.951-2.538c-.063-.063-1.141,2.475-2.284,5.076C18.3,36.819,18.3,36.819,18.492,36.629Zm2.538-5.9c-.063-.063-.19.063-.19.253-.128.318-.128.381.063.128C21.03,30.981,21.093,30.791,21.03,30.728Zm.063-.507c0,.316.128.253.254-.128.063-.19,0-.253-.127-.19A.661.661,0,0,0,21.093,30.22Zm8.439,23.032c-.127.19-.253.381-.381.381a2.686,2.686,0,0,0-.825.571,2.538,2.538,0,0,1-.825.507.2.2,0,0,0-.19.191c0,.126-.19.254-.507.444a6.758,6.758,0,0,0-1.079.634c-.316.254-.634.318-.634.191a2.945,2.945,0,0,1,.888-.762,18.625,18.625,0,0,0,1.65-1.143,7.511,7.511,0,0,1,.951-.634,1.671,1.671,0,0,0,.507-.381c.191-.254.381-.444.444-.444C29.66,52.809,29.66,53,29.532,53.253Zm-2.157-32.3c.063,0,.254-.191.381-.444.19-.254.254-.381.127-.381a.68.68,0,0,0-.381.381A1.1,1.1,0,0,0,27.375,20.956Zm.571,55.9c.572.19,3.363.316,3.237.127-.063,0-.951-.127-1.9-.19C28.2,76.729,27.629,76.794,27.945,76.857Zm.7-.635a6.137,6.137,0,0,0,1.776.254c1.269,0,1.523,0,1.46.318-.128.253.19.38,1.587.571a40.543,40.543,0,0,0,4.885-.126.951.951,0,0,0,.444-.191c.381-.253,5.711-.19,5.838.127.127.128.19.128.318-.063s.316-.253.634-.19c.254.063.571.063.571-.063.128-.254,1.016-.254,1.4,0A.391.391,0,0,0,48,76.92a4.452,4.452,0,0,1,1.65-.318,49.138,49.138,0,0,0,5.9-.762c.507-.19.507-.19-.191-.19a13.422,13.422,0,0,0-1.966.19c-.635.063-2.159.254-3.363.254-1.206.063-2.666.19-3.237.253a148.353,148.353,0,0,1-17.7-.253C28.517,76.032,28.391,76.1,28.644,76.222Zm0-56.852c0,.191.191,0,1.713-1.522a30.33,30.33,0,0,1,2.856-2.538c.634-.509,1.713-1.4,2.284-1.9.635-.571,1.776-1.523,2.6-2.157.762-.635,1.587-1.332,1.778-1.523,1.459-1.459-3.681,2.412-5.838,4.442C32.133,15.88,28.644,19.243,28.644,19.37Zm3.3,57.995a.543.543,0,0,0-.444,0c-.126.063,0,.127.253.127S32.07,77.428,31.944,77.364Zm10.723.7-3.045-.128c-3.3-.126-5.013,0-2.919.254a15.944,15.944,0,0,0,4.251,0ZM43.3,7.7a26.746,26.746,0,0,1,5.013-2.412c.76-.254,1.2-.507,1.015-.571a27.352,27.352,0,0,0-5.9,2.41,13.742,13.742,0,0,0-2.856,1.9C40.192,9.472,41.017,9.091,43.3,7.7Zm-2.031-.762c0,.063.19,0,.381-.128a3.02,3.02,0,0,0,.381-.316c0-.063-.191-.063-.381.063S41.271,6.87,41.271,6.934Zm.951,32.486a2.891,2.891,0,0,1,.444-.634c.7-.762,1.016-.7.381.063C42.54,39.42,42.222,39.674,42.222,39.42Zm5.52-1.84L47.3,37.9l.318-.507c.253-.318.444-.635.507-.635C48.441,36.755,48.187,37.263,47.743,37.58Zm3.426-3.87c.063.063-.253.507-.7,1.078-.7.825-1.079,1.143-1.079.825C49.392,35.36,51.042,33.583,51.169,33.71Zm-1.141-29a1.129,1.129,0,0,0,.634-.254c.191-.126.126-.191-.254-.063C49.71,4.585,49.584,4.713,50.028,4.713Zm1.649-.445c.254-.063.254-.063.128-.126a.406.406,0,0,0-.381,0C51.423,4.2,51.486,4.268,51.676,4.268Zm9.963,68.4h.507l-.507.19a23.235,23.235,0,0,1-3.045.507c-1.4.191-2.666.381-2.919.445s-.381,0-.381-.065c0-.126.444-.253,1.015-.316a15.251,15.251,0,0,0,1.523-.254A35.344,35.344,0,0,1,61.639,72.669Zm-4.506,2.856c.444,0,.635,0,.381-.065a1.811,1.811,0,0,0-.825,0C56.436,75.525,56.626,75.525,57.133,75.525Zm.762-.191.951.063a4.276,4.276,0,0,0,1.46-.19,12.686,12.686,0,0,1,1.713-.444,4.4,4.4,0,0,0,1.078-.318,35.853,35.853,0,0,0-4.441.7Zm38.387-28.3c-.888,1.206-8.185,8.63-9.391,9.645a52.376,52.376,0,0,1-8.313,5.52c-1.015.571-2.094,1.143-2.347,1.269-1.713,1.143-8.313,2.157-9.455,1.523a.714.714,0,0,0-.634-.191c-.507.318-4-2.728-4.886-4.251-.316-.571-.634-.825-1.015-.888-.634-.126-.634-.253-.063-.571.381-.128.444-.318.381-.572-.572-2.094-.128-4.948,1.269-8.058a44.632,44.632,0,0,1,5.392-8.566c.318-.318.953-1.078,1.523-1.713,1.4-1.713,2.665-2.919,3.237-2.982a3.451,3.451,0,0,1,1.585.063c.572.128,1.4.318,1.841.381a7.918,7.918,0,0,1,4,2.412c1.841,1.776,2.412,2.919,2.22,4.441a9.217,9.217,0,0,1-1.776,4.442,24.618,24.618,0,0,1-5.076,5.2,44.49,44.49,0,0,1-9.708,5.584,5.748,5.748,0,0,0-1.2.7c0,.7,1.9,1.269,3.679,1.078A27.1,27.1,0,0,0,79.658,57a10.383,10.383,0,0,1,1.776-.951c.381,0,1.332-.762,1.332-1.016a6.177,6.177,0,0,1,1.713-1.522c.318-.254.381-.254.128.063-.509.634.063.253,1.713-1.079.888-.825,2.157-1.84,2.791-2.347a51.809,51.809,0,0,0,4.378-4c.381-.507,1.46-1.585,2.285-2.475.888-.888,2.031-2.094,2.538-2.665,2.031-2.22,2.982-3.3,3.109-3.172a6.135,6.135,0,0,1-1.206,1.713c-1.078,1.4-1.141,1.459-.253.507.951-1.016,1.585-1.269.951-.381a1.32,1.32,0,0,0-.318.762c0,.253.063.253.254.063.571-.444.253,0-.7,1.143a13.794,13.794,0,0,0-1.459,2.094,8.536,8.536,0,0,1-1.143,1.776A14.71,14.71,0,0,1,96.282,47.034ZM62.337,72.543A14.841,14.841,0,0,1,65.572,71.4c.572,0-.19.381-1.459.825C62.653,72.669,62.083,72.732,62.337,72.543ZM63.859,57.06c0,.063.19-.063,2.41-1.587A34.444,34.444,0,0,0,70.2,52.619a10.93,10.93,0,0,1,1.459-1.206,50.742,50.742,0,0,0,5.2-5.394A8.668,8.668,0,0,0,78.2,41.7c-.126-.825-.381-1.079-1.459-1.4-1.523-.379-2.665.381-5.33,3.681a48.857,48.857,0,0,0-5.647,8.439A27.052,27.052,0,0,0,63.859,57.06Zm26.713-5.2c-1.016,1.141-1.143,1.332-.444.634A16.836,16.836,0,0,0,91.65,50.9C92.6,49.763,92.031,50.207,90.572,51.857Zm51.457-4.886a21.1,21.1,0,0,1-2.221,3.173,11.955,11.955,0,0,0-1.713,2.347c-.19.762-4.632,5.2-7.423,7.3-1.269,1.016-3.681,2.729-5.267,3.807-1.65,1.079-3.426,2.285-3.934,2.729a42.04,42.04,0,0,1-12.69,5.2c-.7.126-1.65.318-2.094.381a15.976,15.976,0,0,1-5.2.126A12.245,12.245,0,0,1,94.7,67.846c-.381-.571-.888-1.4-1.143-1.776-1.84-2.665-2.22-5.266-1.459-9.01,1.015-5.076,4.885-11.865,9.961-17.7,2.856-3.235,6.663-6.853,7.233-6.726a1.669,1.669,0,0,0,1.016-.571,17.611,17.611,0,0,1,7.106-3.237c3.11-.634,5.267-.381,6.98.825a4.72,4.72,0,0,1,2.347,3.426c.191,1.143.128,1.206-.507,3.173a17.392,17.392,0,0,1-1.459,3.426,11.176,11.176,0,0,0-.825,1.459,29.558,29.558,0,0,1-1.841,2.919c-1.966,2.982-4.06,5.267-5.584,6.155a4.649,4.649,0,0,1-5.076-.444,3.2,3.2,0,0,1-1.459-2.6l.063-.762h1.143a2.238,2.238,0,0,1,1.9.571,3.926,3.926,0,0,0,.888.635,12.729,12.729,0,0,0,3.173-2.856,43.258,43.258,0,0,0,5.329-8.058c1.143-2.284,1.206-2.538,1.206-3.681a11.2,11.2,0,0,0-.127-1.713c-.191-.634-1.079-1.015-2.665-1.015a6.847,6.847,0,0,0-4,1.332c-.507.318-1.522.888-2.22,1.269a19.988,19.988,0,0,0-2.094,1.332,5.329,5.329,0,0,1-.888.571c-.318,0-6.028,5.648-8,7.869-2.22,2.538-5.838,7.932-6.154,9.2-.065.253-.444,1.269-.825,2.22a36.438,36.438,0,0,0-1.269,3.744,13.61,13.61,0,0,0-.572,4.188,7.381,7.381,0,0,0,1.206,4.7,8.737,8.737,0,0,0,4.061,2.22,16.549,16.549,0,0,0,8.439-.635c8.629-2.665,18.781-8.947,26.269-16.243a41.089,41.089,0,0,0,3.172-3.363c.444-.634,1.206-1.587,1.713-2.22a14.191,14.191,0,0,0,1.143-1.587c.126-.316.318-.507.444-.507s.381-.318.634-.634c.635-.953.825-.762.254.316-.381.825-.381.888-.063.509.381-.445.381-.445.318-.065-.065.191,0,.381.063.381C142.854,44.877,142.665,45.7,142.029,46.971ZM95.584,50.9c.825-1.459,1.206-2.473.888-2.157-.571.509-2.412,4.569-3.237,7.044a10.018,10.018,0,0,0-.507,2.538l-.063,1.206.254-1.332c.127-.7.381-1.713.507-2.222A43.454,43.454,0,0,1,95.584,50.9Zm2.094-4.123c0,.063.19-.128.444-.444.254-.381.444-.7.444-.7C98.566,45.449,97.678,46.59,97.678,46.781Zm1.078-1.65c0,.253.635-.507.888-1.079.128-.19,0-.063-.316.254A3.757,3.757,0,0,0,98.756,45.131Zm1.967-2.665c0,.19.951-.762,1.459-1.65.191-.254-.063-.063-.507.444A5.707,5.707,0,0,0,100.723,42.467Zm37.246,8.947c0-.254-.635.253-1.9,1.65-1.078,1.078-2.41,2.473-2.982,3.109-.634.571-1.078,1.143-1.015,1.206,0,.126,0,.126-.063.063s-.444.127-.762.381-1.332,1.078-2.284,1.84c-2.157,1.587-3.363,2.665-3.363,2.919a1.671,1.671,0,0,1-.381.507c-.635.572-.063.191,1.65-.951.825-.635,2.094-1.587,2.854-2.22.762-.572,1.523-1.206,1.778-1.332a48.474,48.474,0,0,0,3.807-3.744C136.89,53.126,137.906,51.857,137.969,51.413Zm29.822-5.33a5.679,5.679,0,0,1-1.587,2.6c-1.522,1.776-2.157,2.157-3.744,2.285a2.939,2.939,0,0,1-1.65-.128c-.19-.126-.571-.316-.824-.444-1.079-.444-3.173-3.49-3.617-5.076a20.726,20.726,0,0,1-.381-2.919,12.511,12.511,0,0,0-.254-2.157c-.126-.127-.253-.127-.7.128-.381.19-.507.316-.444.444s.063.126-.063.063c-.254-.126-1.079.634-.825.825.127.063.127.063-.063.063-.254-.063-1.46,1.078-2.222,2.031-.19.253-.381.444-.507.444a1.761,1.761,0,0,0-.825.951.592.592,0,0,1-.318.444.477.477,0,0,0-.316.444c.063.126-.063.381-.191.571a24.835,24.835,0,0,0-2.22,3.428c-.635,1.015-1.206,1.966-1.269,2.157a3.344,3.344,0,0,0-.444.951,21.791,21.791,0,0,1-1.967,4.06c-.507.89-1.141,1.967-1.332,2.285-.126.318-.7,1.269-1.143,2.031-.507.825-1.015,1.776-1.2,2.157-.444.888-1.65,2.284-2.031,2.284a1.4,1.4,0,0,1-.507-.063.518.518,0,0,1-.381-.254,1,1,0,0,0-.507-.316.79.79,0,0,1-.509-.318,3.323,3.323,0,0,0-.507-.888l-.318-.635.318-1.459a55.61,55.61,0,0,1,3.681-10.533c.318-.762.825-2.031,1.143-2.792.316-.7.824-2.029,1.2-2.854.381-.888.953-2.285,1.332-3.173a49.088,49.088,0,0,1,2.222-4.5c.316-.635.888-1.713,1.269-2.475a5.872,5.872,0,0,1,.951-1.587,1.255,1.255,0,0,0,.254-.507c0-.063.126-.191.316-.191,1.65-.316,1.65-.316,1.9.063a.921.921,0,0,0,.507.318c.318,0,.318.507,0,1.143a1.931,1.931,0,0,0-.19.7,6.566,6.566,0,0,1-.7,1.4,31.051,31.051,0,0,0-2.6,5.394c-.254.7-1.016,2.6-1.713,4.251-1.206,2.982-1.587,3.87-1.46,3.87a6.878,6.878,0,0,0,.7-1.016c.634-.951,1.015-1.332.762-.634a1.366,1.366,0,0,1-.254.444c-.127.19-1.65,2.728-1.967,3.363-.571,1.206-.126.7,1.143-1.46.762-1.141,1.776-2.854,2.348-3.616a68.182,68.182,0,0,1,6.6-8.058c.572-.507.953-.888.888-.888a13.332,13.332,0,0,0-2.284,1.776,65.409,65.409,0,0,0-5.2,6.535c-.7,1.143-1.332,1.778-1.016,1.079a78.567,78.567,0,0,1,5.013-6.663,11.75,11.75,0,0,1,3.554-3.172c.824-.381,2.791,0,3.109.634a1.8,1.8,0,0,0,.444.507,4.478,4.478,0,0,1,1.4,2.222,30.527,30.527,0,0,1,.635,3.3c.444,2.475.825,3.681,1.269,3.935a2.874,2.874,0,0,0,1.078,0c.762-.063,1.079-.191,2.412-1.079a30.741,30.741,0,0,0,2.6-2.094C168.172,44.052,168.3,44.115,167.791,46.083Zm-30.774,15.8a.811.811,0,0,0-.253.444.062.062,0,0,0,.063.065,3.986,3.986,0,0,0,.253-.381C137.271,61.692,137.208,61.692,137.017,61.882Zm5.139-13.2c0-.063-.127-.063-.316-.063s-.318.191-.444.507a1.091,1.091,0,0,0-.128.444c.065,0,0,.191-.127.381a14.813,14.813,0,0,0-1.206,2.792c.063.063.128,0,.191-.063.127-.063.127-.063.127.063-.063.126-.19.19-.254.126-.127,0-.19.063-.253.191a20.823,20.823,0,0,1-.825,2.094c-.825,1.966-1.143,2.918-.888,2.728.063-.063.126,0,.063.126s-.127.191-.254.191c-.063-.063-.127-.063,0,.063.128.19,0,.825-.19.7-.063,0-.063.065,0,.191s0,.254-.191.254c-.126,0-.19.063-.126.253a1.44,1.44,0,0,1-.126.825c-.318.7-.318.825.063.254.126-.254.7-1.587,1.206-2.982s1.015-2.6,1.078-2.729A4.175,4.175,0,0,0,140,53.888c.128-.509.318-1.016.444-1.016a.9.9,0,0,0,.128-.444,2.309,2.309,0,0,1,.316-.825A16.757,16.757,0,0,0,142.156,48.684Zm-2.219.191a11.316,11.316,0,0,0-1.4,1.9c0,.254.635-.507,1.079-1.269C139.872,49.128,140,48.875,139.937,48.875Zm1.775-.509v.065c.065,0,.128-.191.254-.381.19-.318.19-.318-.063-.128C141.776,48.113,141.649,48.24,141.712,48.366Zm.444-1.141a.479.479,0,0,0-.127.253c.063.254.127.191.254-.126C142.284,47.225,142.284,47.162,142.156,47.225Zm59.327-1.9a6.464,6.464,0,0,1-.824,4.188,49.174,49.174,0,0,1-3.363,4.823,21.593,21.593,0,0,0-1.334,1.776c-.316.381-1.332,1.522-2.347,2.538-.951,1.015-1.967,2.094-2.284,2.475a13.021,13.021,0,0,1-3.428,2.347,2.667,2.667,0,0,0-.76.444,6.677,6.677,0,0,1-2.729.507,4.61,4.61,0,0,1-1.4-.381c-.381-.19-.825-.38-.825-.507a.726.726,0,0,0-.381-.19c-.571,0-1.84-1.776-2.22-3.11A14.238,14.238,0,0,1,179.846,53a9.379,9.379,0,0,0,.381-1.459c-.126-.063-4.632,5.964-6.345,8.5a6.193,6.193,0,0,1-2.665,2.538,2.879,2.879,0,0,1-1.587.507,3.5,3.5,0,0,1-2.157-.7.956.956,0,0,0-.507-.254.757.757,0,0,1-.507-.318c-1.269-1.776-1.4-2.41-1.143-4.314.572-3.934,1.967-8.058,4.7-13.833,1.9-3.87,2.221-4.441,2.919-4.822.444-.254,1.206-.19,1.206.063,0,.126.19.254.381.254a1.621,1.621,0,0,1,.888.507c.571.507.571.507.507,1.459a6.74,6.74,0,0,1-.888,2.538c-.381.89-.7,1.65-.7,1.65,0,.063-.571,1.332-1.2,2.729-.7,1.459-1.778,4-2.412,5.71a29.529,29.529,0,0,0-1.776,6.408l-.128.572.381-.444a10.411,10.411,0,0,1,1.143-1.016,23.532,23.532,0,0,0,2.982-3.3c.444-.571,4-4.7,4.506-5.329a3.588,3.588,0,0,0,.7-.888c.254-.254,1.143-1.332,1.967-2.285,2.412-2.854,2.665-3.172,3.363-4.567,2.475-4.823,3.3-6.029,4.188-6.029.253,0,.507.065.571.191,0,.127.254.253.444.318.381.063.507.19.7.825a1.836,1.836,0,0,1-.063,1.713,4.822,4.822,0,0,1-.825,1.713,48.231,48.231,0,0,0-4.886,10.66c-1.332,4-1.776,6.661-1.459,8.629.063.762.126.825.634.951.381.128.507.065.635-.063a2.259,2.259,0,0,1,.951-.381,12.5,12.5,0,0,0,4.125-2.284,91.254,91.254,0,0,0,8.375-8.566,34.013,34.013,0,0,0,2.919-3.935A17.862,17.862,0,0,1,201.293,45C201.357,44.94,201.42,45.131,201.483,45.321Zm76.269-29.188a4.514,4.514,0,0,1-2.157,1.523,1.388,1.388,0,0,0-.635.126,27.317,27.317,0,0,1-4,.572,4.907,4.907,0,0,0-1.206-.063,2.393,2.393,0,0,1-1.269-.191,1.518,1.518,0,0,0-.571-.19c-.444,0-.444-.191.063-.254a17.927,17.927,0,0,0,3.744-1.078,7.034,7.034,0,0,1,2.538-1.079c.7-.126.825-.254.571-.381a105.356,105.356,0,0,0-11.929-.825c-1.206-.063-8.946.191-11.421.381-1.015.063-2.6.126-3.553.19-1.587.065-3.047.128-4.125.254-.444.825-.951,1.713-1.4,2.6-4.76,8.947-5.457,10.343-6.917,13.833-1.078,2.538-2.6,5.964-3.3,7.3-1.9,3.617-6.663,17.068-8.693,24.493-.444,1.587-1.015,3.616-1.269,4.569-1.776,5.836-2.982,14.656-2.6,19.415.127,1.4.571,3.237.888,3.237a6.564,6.564,0,0,0,1.332-.7,5.22,5.22,0,0,1,1.4-.76c.444.063,1.143,2.918.825,3.235a1.022,1.022,0,0,0-.316.7c-.065.571-1.46,1.078-2.412.951a7.552,7.552,0,0,1-1.4-.507c-.381-.254-.953-.635-1.269-.888a2.184,2.184,0,0,0-.888-.507,8.018,8.018,0,0,1-1.269-1.523c-1.715-2.538-2.094-6.472-1.143-14.086a95.184,95.184,0,0,1,3.235-15.736A202.653,202.653,0,0,1,225.4,40.626c-5.266,7.3-11.23,15.42-12.754,17.322a21.25,21.25,0,0,1-2.918,3.109.565.565,0,0,0-.254.318,14.79,14.79,0,0,1-2.792,2.919c-1.4,1.206-4.7,3.109-5.457,3.109h-.888a6.43,6.43,0,0,1-5.2-2.665,10.093,10.093,0,0,1-.825-1.206,59.763,59.763,0,0,1,1.269-6.979c.126-.444.381-1.269.507-1.776a16.181,16.181,0,0,1,.7-2.094c.19-.572.634-1.778.951-2.729.381-.888.825-2.031,1.079-2.538s.951-1.84,1.459-2.982a32.75,32.75,0,0,1,2.919-5.457c.825-1.141.888-1.206,1.523-1.269.507-.063.76.063,1.776.7l1.269.825v.7a3.369,3.369,0,0,1-.381,1.522c-.254.444-.635,1.269-.951,1.841-.254.634-.762,1.459-1.016,1.966-.253.444-.825,1.523-1.2,2.285s-.89,1.713-1.143,2.093a14.517,14.517,0,0,0-.825,1.714c-.254.571-.571,1.2-.7,1.459a40.051,40.051,0,0,0-2.919,8.692q-.095.953-.381.953a.42.42,0,0,0-.316.253q0,.192.19,0c.318-.126.444.381.254.635a1.588,1.588,0,0,0-.063,1.015l.126.825.825-.19c.951-.191,2.665-1.332,4.885-3.237,3.617-3.172,18.274-22.207,26.65-33.692,1.9-3.935,3.934-8.058,6.219-12.374a4.205,4.205,0,0,1-.635.065c0-.128-9.263.76-9.644.888-.128.063-.065.063-10.851,1.078-8.947.825-14.212,1.332-18.465,1.841a62.494,62.494,0,0,1-7.042.316,1.6,1.6,0,0,1-1.143-1.141c0-.191-.127-.318-.253-.254-.254,0-.254-1.079,0-1.269a1.383,1.383,0,0,0,.316-.507c.128-.318.128-.318,1.713-.318,1.46,0,1.587-.063,2.157-.381a2.572,2.572,0,0,1,2.856.191c.254.316.318.316,1.206.253.507-.063,2.728-.19,4.886-.381s4.314-.316,4.7-.381c.507-.063.825,0,.825.065s-.254.126-.509.126a4.34,4.34,0,0,0-.951.126c-1.078.254,4.823-.126,10.279-.634,1.016-.128,4.316-.381,7.233-.635,2.982-.253,6.663-.571,8.249-.7,1.522-.128,3.172-.254,3.681-.254a16.768,16.768,0,0,1,1.776-.127l.762-.128c1.713-3.172,5.583-9.9,6.217-10.786a6.414,6.414,0,0,0,.762-1.523A1.612,1.612,0,0,1,246.914.017c.825.065,2.412.953,2.348,1.334,0,.063.253.19.507.253,1.079.126,1.65,2.22.762,2.856a1.676,1.676,0,0,0-.381.634A16.021,16.021,0,0,1,247.8,8.837c-.634.825-1.65,2.348-2.791,4.188,4.123-.318,8.883-.7,10.786-.825,2.157-.126,4.632-.19,9.9-.19,6.789,0,7.042,0,8.248.253a6.937,6.937,0,0,1,3.172,1.269,1.152,1.152,0,0,1,.254.7c0,.254.063.507.191.571C277.878,14.992,277.941,15.5,277.752,16.133Zm-71.066,15.8c-.253-.191-.253-.318.509-1.713a44,44,0,0,1,5.773-7.551c1.65-1.46,1.967-1.523,2.538-.254.318.635.318.888.191,1.143a6.26,6.26,0,0,0-.191.762,5.352,5.352,0,0,1-.888,1.65,34.817,34.817,0,0,0-3.109,4.885c-1.143,2.348-1.776,3.173-2.157,2.856a1.616,1.616,0,0,0-.762-.127,1.125,1.125,0,0,1-1.079-.509,4.042,4.042,0,0,1-.507-.7C207,32.25,206.814,32.06,206.686,31.934Zm19.48-16.689c0-.063-.126-.063-.19,0a6.838,6.838,0,0,1-.888.128c-1.269.063-5.583.381-7.869.634-1.269.126-3.235.318-4.378.444a9.986,9.986,0,0,0-2.157.254,31.941,31.941,0,0,0,4.123-.254c1.143-.127,3.173-.318,4.569-.444s3.3-.253,4.251-.381C225.849,15.5,226.165,15.436,226.165,15.245ZM218.3,71.209c.316-1.459.762-3.235.951-4,.126-.762.507-2.094.762-2.982s.762-2.412,1.078-3.426c.254-1.016.762-2.665,1.016-3.617.316-.888.634-2.029.762-2.41a9.692,9.692,0,0,1,.444-1.46c.7-1.84,1.649-4.632,1.713-4.885,0-.381,2.854-7.614,4.632-12.057.38-.951,1.141-2.6,2.029-4.5-.825,1.141-1.713,2.41-2.728,3.807a.49.49,0,0,0-.063.19,4.479,4.479,0,0,1-.572,1.079,148.808,148.808,0,0,0-5.647,14.467,22.851,22.851,0,0,1-1.776,4.567,23.64,23.64,0,0,0-1.4,3.935c-1.206,4.441-1.334,4.885-1.016,4.885.254.063-.063.825-.381,1.016a21.059,21.059,0,0,0-.7,2.157c-.381,1.585-.444,2.22-.254,2.6.254.634.19.762-.127.634-.381-.127-1.332,8.058-1.143,9.645.063.635.127,1.84.127,2.665-.063,2.729.254,1.269.953-4.251A69.585,69.585,0,0,1,218.3,71.209Zm-.254,8.567c-.063-.444-.19.063-.253,1.649-.128,2.475-.128,3.807.063,3.617a13.565,13.565,0,0,0,.063-2.157,12.081,12.081,0,0,1,.126-2.22A1.044,1.044,0,0,0,218.044,79.776Zm.381-3.617c-.063-.126-.126,0-.19.254,0,.316.063.381.127.19S218.488,76.222,218.425,76.159Zm10.786-36.8c-.951,2.412-1.141,2.919-.888,3.11.254.253.254.316-.063.253-.253,0-.634.635-1.459,2.729a120.176,120.176,0,0,0-4.061,11.865c-.253.951-.888,3.109-1.4,4.759-.507,1.713-1.143,4.06-1.4,5.2-.254,1.206-.635,2.919-.888,3.87-.191.951-.445,2.348-.509,3.11-.253,2.22.254.76.825-2.412.444-2.157.635-2.856.953-3.045.38-.254.38-.318.126-.7s-.254-.507.127-1.143a5.645,5.645,0,0,0,.507-1.459,43.562,43.562,0,0,1,1.713-5.9,2.168,2.168,0,0,0,.191-1.079c-.127-.063-.127-.316-.063-.571.126-.254.316-.381.444-.318.253.191.634-1.078,1.015-3.235a3.4,3.4,0,0,1,.444-1.206,10.22,10.22,0,0,0,.825-2.348,37.164,37.164,0,0,1,1.967-5.139,6.476,6.476,0,0,0,.571-1.587,3.665,3.665,0,0,1,.318-1.141,4.258,4.258,0,0,0,.507-1.4c.19-.76.318-1.2.507-1.078.063.126.128.063.063-.254a3.7,3.7,0,0,1,.953-2.22,3.108,3.108,0,0,0,.507-1.522c.063-.762.19-1.334.318-1.334s.253-.253.379-.571.318-.634.381-.634a7.342,7.342,0,0,0,1.016-2.6C233.209,30.41,231.052,34.788,229.211,39.357ZM227.053,15.31c0-.065-.063-.128-.19-.128-.063,0-.191.063-.191.128s.128.127.191.127C226.99,15.436,227.053,15.373,227.053,15.31Zm.888-.128c0-.063-.063-.126-.19-.126a.488.488,0,0,0-.254.126c-.063.063,0,.128.191.128C227.815,15.31,227.942,15.245,227.942,15.182Zm2.222-.253c-.191,0-.381.063-.381.127,0,.126.19.126.507,0C230.48,14.929,230.48,14.929,230.164,14.929Zm4.632-.254a31.562,31.562,0,0,0-4.125.318c-.063.063.318.063.825,0,.444,0,1.4-.128,2.094-.128A4.319,4.319,0,0,0,234.8,14.674ZM233.335,27.3c0-.063-.19-.126-.444-.191,0,.128-.063.191-.127.318a.38.38,0,0,0,.253-.063C233.272,27.365,233.4,27.3,233.335,27.3Zm2.412-4c-.635.888-1.206,1.778-1.523,2.222a1.34,1.34,0,0,0-.253.634c-.063.254,0,.254.316-.126l.191-.191Zm1.776-3.87c-.19.318-.444.762-.7,1.206-.507.888-.951,1.587-.951,1.65.063.126.191-.063.318-.318a5.2,5.2,0,0,1,.507-.762c.063-.126.381-.634.7-1.2C237.9,19.052,237.9,18.862,237.523,19.433Zm20.494-6.345a11,11,0,0,0-3.235,0,21.954,21.954,0,0,1-2.792.191c-1.65.127-1.84.127-2.031.253-.063.063.128.063.444,0,.381,0,.572,0,.509.063s.19.128.571.128c.634-.063.634-.063.127-.063-.444-.065-.444-.128-.19-.191a10.965,10.965,0,0,1,1.269.063,3.466,3.466,0,0,0,2.031-.063,29.318,29.318,0,0,1,2.982-.253C257.891,13.216,258.018,13.151,258.018,13.088Zm.7-.127c-.381.063-.381.127.254.127a4.327,4.327,0,0,0,.76.063c.128,0,1.206-.063,2.538-.063,1.269-.063,2.348-.127,2.412-.127C264.807,12.835,259.287,12.9,258.716,12.961Zm8.693.19c-.191-.127-.191-.127,0-.19.126-.063-.318-.063-1.016-.063-.634,0-1.143,0-1.078.063a2.659,2.659,0,0,0,.888.063c.444,0,.825.063.825.127s.126.065.316.065C267.6,13.216,267.6,13.216,267.41,13.151Zm7.994.635a18.266,18.266,0,0,0-6.789-.825c-.825.127-.571.254.381.19.509,0,.953,0,1.016.128.063,0,.507.063.951.063a23.679,23.679,0,0,1,4,.507C275.658,14.041,276.039,13.976,275.4,13.786Z" transform="matrix(0.998, -0.07, 0.07, 0.998, -0.102, 19.384)" fill="#fff"/>
</svg>
