<svg xmlns="http://www.w3.org/2000/svg" xmlns:xlink="http://www.w3.org/1999/xlink" width="358.605" height="442.746" viewBox="0 0 358.605 442.746">
  <defs>
    <clipPath id="clip-path">
      <rect id="長方形_488" data-name="長方形 488" width="358.605" height="442.746" fill="#f7f7f7"/>
    </clipPath>
  </defs>
  <g id="グループ_579" data-name="グループ 579" opacity="0.5">
    <g id="グループ_157" data-name="グループ 157" clip-path="url(#clip-path)">
      <path id="パス_130" data-name="パス 130" d="M79.059,330.88S-10.269,278.424,6.332,167.861,124.908,0,124.908,0L352.577,72.633s-199.208,29.05-267.192,115.4S79.059,330.88,79.059,330.88" transform="translate(6.029 0.001)" fill="#f7f7f7"/>
      <path id="パス_131" data-name="パス 131" d="M149.51,118.57c0,26.741-21.236,48.421-47.43,48.421S54.65,145.312,54.65,118.57s21.234-48.423,47.43-48.423,47.43,21.682,47.43,48.423" transform="translate(77.08 102.469)" fill="#f7f7f7"/>
      <path id="パス_132" data-name="パス 132" d="M273.517,45.46s89.328,52.456,72.728,163.019S227.668,376.342,227.668,376.342L0,303.707s199.208-29.049,267.192-115.4S273.517,45.46,273.517,45.46" transform="translate(0 66.407)" fill="#f7f7f7"/>
    </g>
  </g>
</svg>
