<svg xmlns="http://www.w3.org/2000/svg" width="235.619" height="122.08" viewBox="0 0 235.619 122.08">
  <g id="グループ_578" data-name="グループ 578" transform="matrix(0.998, -0.07, 0.07, 0.998, -5.286, -6.781)">
    <path id="パス_2361" data-name="パス 2361" d="M34.86-34.65a20.741,20.741,0,0,1,2.59-.49c1.4-.14,2.31-.49,2.31-.84,0-.14.07-.21.14-.21.14,0,.21.14.21.28,0,.28,1.12.28,3.57-.14a34.876,34.876,0,0,1,6.58-.07c.14.07.14.28-.07.56a21.043,21.043,0,0,0-.77,3.01c-.35,1.4-.77,3.57-1.05,4.76-3.15,13.65-3.99,20.3-2.94,23.73a5.16,5.16,0,0,1,.42,1.75c0,.7.07.84.63,1.54,1.19,1.33,2.73,2.38,3.64,2.45a2.089,2.089,0,0,0,1.12-.21c.28-.21.28-.98,0-1.47-.07-.21-.28-.63-.35-.91-.14-.28-.35-.56-.49-.56-.42,0-.7-2.38-.7-5.32,0-3.01.28-5.32,1.47-10.64a31.362,31.362,0,0,0,.63-3.64,1.672,1.672,0,0,1,.14-.63,2.1,2.1,0,0,0,.28-.7c.07-.42,1.26-5.67,2.31-9.94.42-1.54.98-3.92,1.33-5.39.91-3.99,4.62-18.2,6.3-24.15,1.4-4.62,1.54-5.39,2.87-10.29.63-2.59,1.33-5.32,1.54-6.09a11.107,11.107,0,0,0,.42-1.96,11.9,11.9,0,0,1,.28-2.17,9.363,9.363,0,0,0-.28-5.39c-.49-.84-1.33-1.68-1.68-1.68a3.666,3.666,0,0,1-.91-.84c-1.19-1.33-2.87-1.26-5.25.28-1.82,1.26-7.14,6.65-10.36,10.57a20.947,20.947,0,0,1-1.54,1.82c-1.05,1.19-4.9,6.09-7.42,9.66-1.26,1.68-2.52,3.36-2.8,3.71a3.163,3.163,0,0,0-.63.77c0,.21-3.01,4.69-3.78,5.74a2.145,2.145,0,0,1-.84.7c-.42,0-1.19.63-1.19.98a31.945,31.945,0,0,1-3.15,4.62,1.391,1.391,0,0,0-.42.63c0,.14-.14.35-.28.35a.517.517,0,0,0-.35.42,5.785,5.785,0,0,1-.7,1.54c-.42.63-.91,1.47-1.05,1.75-.21.28-.42.7-.56.84-.77.84-1.05,1.26-1.05,1.54a2.881,2.881,0,0,1-.7,1.26,8.176,8.176,0,0,0-.7,1.05,1.7,1.7,0,0,1-.28.77c-.14.28-.21.56-.07.63.28.21,0,.49-.35.35-.14-.07-.28,0-.28.21s-.07.35-.21.35c-.07,0-.21.21-.35.49-.7,1.75-2.45,4.13-3.36,4.48a38.423,38.423,0,0,1-3.71,1.05A91.958,91.958,0,0,0,1.54-29.96C.07-29.33,0-29.26.07-28.7c.28,1.26.56,2.03.84,2.03.14,0,.28.21.28.42,0,.42.21.49.56.14.21-.21.21-.21.21,0,0,.35.56.28.7-.07.21-.63,8.61-3.64,11.69-4.27l.7-.14-.42.84c-2.38,4.06-6.3,11.97-8.61,17.15-.7,1.61-1.33,3.08-1.47,3.29-.98,2.24-1.96,4.55-2.1,5.04a4.618,4.618,0,0,1-.28.77A82.349,82.349,0,0,0-1.12,6.37c-.35,1.47-.7,2.8-.77,2.94-.07.21.14.56.7,1.05a4.857,4.857,0,0,0,1.12.7,7.267,7.267,0,0,1,.84.49c1.33.98,2.17.56,2.52-1.4.07-.42.28-.98.35-1.26A18.847,18.847,0,0,0,4.76,5.46C5.25,3.78,5.81,1.75,6.16.84a8.761,8.761,0,0,0,.56-2.17c0-.28.14-.49.28-.49.14.07.28-.28.42-.7A10.2,10.2,0,0,1,7.7-3.71c.7-1.4,1.75-3.99,2.66-6.3,1.4-3.5,6.3-13.51,9.66-19.53.35-.7.84-1.61,1.05-2.03.42-.77.49-.84,1.82-1.12a11.626,11.626,0,0,1,1.96-.35c.28,0,1.75-.28,3.36-.63a27.806,27.806,0,0,1,4.06-.63C32.97-34.37,34.09-34.51,34.86-34.65Zm13.3-3.57c-.28,0-.49-.07-.35-.07a1.738,1.738,0,0,1,.63-.07C48.58-38.29,48.51-38.22,48.16-38.22Zm2.31,5.67c.07-.21.14-.28.14-.07a3.081,3.081,0,0,1-.14.7c-.14.21-.21.28-.21.07A3.772,3.772,0,0,1,50.47-32.55ZM46.9-8.12c-.07,1.75-.21,2.24-.28,1.82a5.989,5.989,0,0,1-.07-1.68,3.921,3.921,0,0,0,0-1.33c-.14-.49-.42-.28-.49.35-.07.35-.07-.35-.07-1.61a15.65,15.65,0,0,1,.77-4.9c.07-.07.14.14.14.56,0,.63,0,.63.28.28.28-.42.21-1.12-.14-1.26-.28-.14-.21-.63.35-2.73.56-2.17,1.4-6.16,1.68-7.98.42-2.31,1.05-4.62,1.33-4.62s.56-1.33.56-2.66c0-.7.07-.77.49-.84.7-.07.77,0,.56.77-1.26,4.76-3.36,14.28-4.34,20.09C47.32-11.97,47.04-9.45,46.9-8.12Zm5.74-33.46c-.14-.35-.14-.49.07-.63a.385.385,0,0,0,.21-.49c-.07-.21-.07-.35.07-.42s.28-.56.35-1.05a6.588,6.588,0,0,1,.84-2.66,1.722,1.722,0,0,0,.28-.77,30.767,30.767,0,0,1,.98-3.57,30.767,30.767,0,0,0,.98-3.57,1.752,1.752,0,0,1,.35-.77,10.271,10.271,0,0,0,.84-1.89c.28-.84.49-1.47.56-1.4s-1.26,5.18-1.82,7.07c-.28.84-.77,2.73-1.12,4.2s-.84,3.78-1.19,5.04c-.35,1.33-.7,3.22-.91,4.13a7.144,7.144,0,0,1-.49,1.75,7.8,7.8,0,0,1-.98-2.17.909.909,0,0,1,.35-.49,1.8,1.8,0,0,0,.35-.84,3.031,3.031,0,0,1,.28-.77A1.093,1.093,0,0,0,52.64-41.58ZM58.59-56.7a14.615,14.615,0,0,1-.49,2.1c-.49,1.82-.91,2.59-.84,1.68a3.448,3.448,0,0,1,.35-1.26,4.086,4.086,0,0,0,.42-1.33C58.03-56.07,58.59-57.19,58.59-56.7ZM54.53-40.81l-.28.49v-.49c0-.35.07-.56.21-.49a.134.134,0,0,0,.21-.07c0-.14,0-.21.07-.14S54.74-41.16,54.53-40.81ZM50.96-21c-.49,2.38-1.19,5.67-1.54,7.21-.56,2.8-.77,3.5-.77,2.66,0-.28-.07-.42-.14-.35-.14.07-.21.49-.21.98a25.541,25.541,0,0,1-.21,2.66,10.077,10.077,0,0,0-.07,3.22c.14.77.21,1.47.21,1.54-.21.14-.56-1.61-.7-3.15a57.87,57.87,0,0,1,1.54-12.11c.14-.35.42-1.96.7-3.5.7-3.64.7-3.64.91-3.64s.07.49-.42,2.66a3.6,3.6,0,0,0-.21,1.47c.28.07.28.42,0,.42-.14-.07-.28.07-.35.28,0,.21,0,.35.14.21.21-.07.21.14.07.7,0,.42-.07.84,0,.84.28,0,.56-.91.7-2.03.07-.7.14-1.33.28-1.4a1.381,1.381,0,0,0,.14-.49c.21-2.1.42-2.94.7-2.66A36.361,36.361,0,0,1,50.96-21ZM57.4-48.44c-.42,1.54-.91,3.57-1.12,4.48-1.19,4.83-2.03,8.47-2.52,10.5-1.33,5.81-1.75,7.56-1.89,7.56-.28,0-.28-.28.07-1.75a3.049,3.049,0,0,0,.21-1.33c-.14-.14-.77,1.12-.98,2.1a2.03,2.03,0,0,1-.49.98q-.42.1.42-1.68a4.227,4.227,0,0,0,.42-1.54q0-.63.21-.63c.14.14.14,0,.07-.14a.293.293,0,0,1,.21-.42c.21-.14.35,0,.42.28.07.42.14.42.21-.14.28-.98.21-1.47-.07-1.47-.21,0-.21-.35-.07-1.61A4.077,4.077,0,0,1,52.85-35a2.327,2.327,0,0,0,.14-.98,3.564,3.564,0,0,1,.42-1.47c.28-.42.42-.84.35-.98-.21-.49.42-1.75.91-1.82.35,0,.49-.21.56-.56a4.16,4.16,0,0,1,.35-1.33c.28-.98.35-1.33.07-1.12a1.1,1.1,0,0,0-.28.7c-.28,1.12-.63.91-.42-.21.07-.63.14-1.47.21-1.89a8.188,8.188,0,0,1,.35-1.4,7.363,7.363,0,0,0,.42-1.47,12.837,12.837,0,0,1,1.12-3.85c.21-.28.28-.42-.63,3.22-.7,3.01-.84,3.92-.56,4.06.07.07.21-.14.28-.49.28-1.47.91-4.27,1.19-5.25a11.078,11.078,0,0,0,.42-1.61,4.618,4.618,0,0,1,.28-.77c.14-.07.21-.35.21-.56,0-.42.56-1.61.56-1.26C58.8-53.83,58.31-51.8,57.4-48.44Zm1.54-6.02c-.07.14-.07.14-.14-.14,0-.21.07-.28.14-.28A.446.446,0,0,1,58.94-54.46Zm0-3.36c-.07.14-.07.07-.14-.14,0-.21.07-.35.14-.28A.44.44,0,0,1,58.94-57.82Zm.07-1.61c.14-.49.14-.49.21.14a1.16,1.16,0,0,1-.21.7Q58.695-58.38,59.01-59.43Zm1.75-1.68c-.07.28-.28.84-.35,1.26-.07.35-.42,1.54-.7,2.66a17.607,17.607,0,0,1-.63,2.1c-.21.21-.07-.63.42-2.45.28-.98.63-2.38.84-3.01a4.317,4.317,0,0,1,.49-1.4C61.04-62.23,61.04-61.81,60.76-61.11Zm-1.12-.14c.14-.21.14-.14.07.28a1.311,1.311,0,0,1-.35.77C59.15-59.92,59.36-60.76,59.64-61.25Zm.21-.91a2.487,2.487,0,0,1,.14-.7c.21-.21.21-.21.21.14a1.351,1.351,0,0,1-.21.7C59.85-61.81,59.85-61.81,59.85-62.16Zm.77-2.66c.07,0,.21.07.14.21a3.081,3.081,0,0,1-.14.7c-.14.28-.21.28-.28.07C60.2-64.19,60.41-64.82,60.62-64.82Zm.49,2.38c-.07.21-.07.14-.07-.07s0-.35.07-.28A.312.312,0,0,1,61.11-62.44Zm.42-1.4c-.21.56-.35.7-.35.49,0-.49.35-1.61.49-1.47A1.984,1.984,0,0,1,61.53-63.84Zm.77-2.59c-.28.84-.49,1.33-.49,1.05a7.831,7.831,0,0,1,.91-2.59A8.679,8.679,0,0,1,62.3-66.43Zm-.42-1.75a12.36,12.36,0,0,1-1.05,2.94c-.35.07-.28-.21.21-1.68.28-.77.63-1.82.77-2.31.28-.98.84-2.24.91-2.03A19.179,19.179,0,0,1,61.88-68.18ZM16.73-31.08c.14,0-.49,1.19-2.94,5.81-.56,1.12-1.33,2.52-1.61,3.15s-.77,1.68-1.12,2.31c-.56,1.19-.91,1.68-.91,1.4C10.15-18.97,16.38-31.08,16.73-31.08ZM9.94-17.92c.14,0,.21,0,.21.07s-.07.14-.21.21-.21,0-.21-.07A.186.186,0,0,1,9.94-17.92ZM8.75-15.47c.14-.07.21,0,.21.07a2.3,2.3,0,0,1-.21.42c-.21.28-.21.28-.21,0A.545.545,0,0,1,8.75-15.47Zm-.91,3.85c-.21.21-.07-.14.77-1.89.98-2.03,1.05-2.17.63-2.38-.21-.14-.21-.28.14-.84.35-.77.49-.56.14.28-.14.35-.14.49,0,.49s.42-.49.77-1.12c.49-1.19,3.36-7,5.74-11.55,1.05-2.1,1.47-2.66,1.89-2.8a1.4,1.4,0,0,1,.56-.14,10.68,10.68,0,0,1-.7,1.19,4.4,4.4,0,0,0-.7,1.47c0,.28-.14.42-.28.42-.21,0-.35.21-.35.49s-.07.56-.14.56c-.14,0-.28.14-.35.35a6.309,6.309,0,0,1-.35.63c-.35.42-2.1,3.71-5.11,9.66C9.1-14,7.91-11.69,7.84-11.62Zm5.88-10.22a.8.8,0,0,1-.21.42c-.28.14-.28-.07,0-.49C13.65-22.19,13.72-22.12,13.72-21.84Zm1.82-1.26a18,18,0,0,0-1.96,3.08c-.49.91-.84,1.4-.63.98a22.609,22.609,0,0,1,2.52-4.48.224.224,0,0,1,.21.21C15.68-23.17,15.61-23.1,15.54-23.1Zm.7-1.33c-.35.7-.77.98-.77.49,0-.42.63-1.33.91-1.33C16.8-25.27,16.73-25.27,16.24-24.43Zm2.94-5.88a18.453,18.453,0,0,0-1.19,2.45c-.21.42-.49,1.05-.7,1.4-.42.56-.84.77-.84.49a24.9,24.9,0,0,1,1.19-2.31c.63-1.12,1.33-2.38,1.54-2.8.35-.63.7-.98.84-.91A10.9,10.9,0,0,1,19.18-30.31Zm.21-5.74c.49-.91,2.66-4.76,3.08-5.32.14-.28.77-1.26,1.26-2.17.98-1.54,1.47-2.1,1.19-1.19a1.34,1.34,0,0,1-.28.56,45.542,45.542,0,0,0-3.22,5.18c-.49.91-1.12,2.03-1.4,2.52C19.46-35.42,18.9-35.07,19.39-36.05Zm2.03-.7a7.963,7.963,0,0,1-.77.98c-.28.14-.56.21-.56.07a12.086,12.086,0,0,1,.84-1.61,9.981,9.981,0,0,0,.91-1.82c0-.14.07-.28.21-.28.07-.07.91-1.4,1.89-3.08.98-1.61,2.24-3.78,2.87-4.69a7.233,7.233,0,0,0,.91-1.89c-.14-.21-.56.35-1.47,2.1-.84,1.68-1.4,1.96-.84.42.35-.98,1.68-3.15,1.96-3.15a37.46,37.46,0,0,0,2.8-4.27,3.9,3.9,0,0,1,1.61-1.75.835.835,0,0,0,.63-.35c.49-.56,2.45-3.43,3.43-5.04.91-1.61,1.61-2.38,2.03-2.45.07,0,.28-.07.42-.07a.3.3,0,0,0,.28-.28c0-.21-.14-.28-.35-.21-.14.07.14-.49.7-1.26.56-.7,1.12-1.54,1.33-1.82.14-.21.42-.35.49-.28.14.07.21.07.14-.14-.14-.14.84-1.54,2.45-3.64,1.47-1.96,3.08-4.06,3.5-4.69a7.228,7.228,0,0,1,1.05-1.19,14.91,14.91,0,0,0,1.68-1.89c1.89-2.38,7.63-8.33,7.91-8.19.35.14.91-.21.84-.49-.21-.49,3.15-2.73,4.06-2.73.56,0,.49.35,0,.49-.21.07-.84.42-1.4.7-1.12.63-1.26.7-1.05.35.07-.14.07-.21,0-.14-.21.21-.28.98-.14.98a9.286,9.286,0,0,0,1.26-.63c1.19-.7,1.96-.77.91-.14a53.136,53.136,0,0,0-9.52,8.96c-3.22,3.64-5.95,6.93-6.3,7.49-.21.28-.49.63-.63.84a6.907,6.907,0,0,0-.91,1.4,10.031,10.031,0,0,1-1.54,2.1,8.677,8.677,0,0,0-.91,1.33.576.576,0,0,1-.28.42,2.753,2.753,0,0,0-.7,1.12,5.5,5.5,0,0,1-1.05,1.33c-.35.21-.56.49-.56.63a6.277,6.277,0,0,1-.98,1.4c-.84,1.12-2.8,3.92-5.46,8.05-.63.98-.98,1.33-1.4,1.4a1.331,1.331,0,0,0-.7.42c-.07.14-.91,1.54-1.89,3.01-3.64,5.53-4.69,7.21-5.6,8.82-.28.56-.77,1.33-1.05,1.82C22.19-37.87,21.7-37.17,21.42-36.75ZM54.67-80.99c0,.14-.35.42-.7.77-.49.49-.56.49-.21.14C54.39-80.92,54.67-81.2,54.67-80.99Zm-2.45,2.73c-.14.21-.77.98-1.33,1.68a9.767,9.767,0,0,1-1.4,1.47,17.378,17.378,0,0,1,2.73-3.22C52.5-78.61,52.5-78.61,52.22-78.26Zm-3.29,3.99c-.21.28-.42.49-.49.49s0-.21.14-.49a1.451,1.451,0,0,1,.56-.49C49.21-74.76,49.14-74.55,48.93-74.27Zm-6.58,8.75a.337.337,0,0,0-.14.42c.14.35-.14.63-.42.35-.21-.21.07-.63,1.12-2.03a28.367,28.367,0,0,1,2.31-2.73,2.893,2.893,0,0,0,.84-1.26.32.32,0,0,1,.28-.35c.14,0,.21-.14.21-.35-.07-.35,0-.35.14-.14s.28.07.56-.63c.28-.56.49-.98.56-.91.21.28-.49,1.54-1.68,2.94a22.541,22.541,0,0,0-1.4,2.03,25.465,25.465,0,0,1-2.31,2.94q-.1,0,0-.21C42.56-65.59,42.49-65.59,42.35-65.52Zm-.84,1.05a.385.385,0,0,1-.21.35.134.134,0,0,1-.21-.07.6.6,0,0,1,.21-.35C41.44-64.61,41.51-64.54,41.51-64.47ZM22.75-36.61c-.14.35-.49.56-.49.35a31.368,31.368,0,0,1,2.31-3.99c1.05-1.68.77-.77-.56,1.33C23.38-37.8,22.82-36.75,22.75-36.61Zm5.04-.56c-1.89.35-3.71.7-3.99.7l-.56.07.35-.7c.28-.63.35-.7.42-.35,0,.21.14.42.21.42a6,6,0,0,0,.98-2.45c0-.28.07-.42.21-.35.35.07,1.61-1.96,1.68-2.8.07-.35.21-.63.42-.63.42-.07.28.07,1.82-2.31.91-1.4,1.26-2.17,1.19-2.45a2.3,2.3,0,0,1,1.33-1.96c.35-.07.91-.77,1.82-2.1,1.26-1.89,1.47-2.38,1.19-2.38a7.542,7.542,0,0,0-1.47,2.1c0,.35-1.61,1.89-1.75,1.75-.28-.14-.77.49-3.5,4.9a31.549,31.549,0,0,1-2.45,3.64,53.213,53.213,0,0,1,3.78-6.37c1.4-2.17,2.03-2.94,2.38-3.01.56-.07.77-.35,2.66-3.36,2.87-4.55,6.02-8.82,6.44-8.82.21,0,.35.07.35.14a10.352,10.352,0,0,1-2.17,2.94c-.42,0-2.24,2.38-2.24,3.15a4.449,4.449,0,0,1-.42,1.26c-.35.7-.35.84-.14.84a10.622,10.622,0,0,0,1.82-2.45c0-.07.98-1.47,2.17-3.15,5.11-7.21,5.39-7.63,9.31-12.67a8.845,8.845,0,0,0,1.05-1.61.553.553,0,0,1,.35-.35,11.38,11.38,0,0,0,2.52-2.8c-.07-.07-.42.21-.77.56-.28.42-.56.56-.49.49.14-.42,1.54-1.89,1.75-1.75a.638.638,0,0,0,.49-.35c.21-.21.28-.35.14-.28-.21.14-.28.07-.21-.07a.667.667,0,0,1,.56-.35c.35-.07.42-.14.35-.42-.14-.14-.07-.21,0-.14.21.21.63-.28.63-.63a2.63,2.63,0,0,1,1.4-1.47c.14,0,.21-.07.21-.28s.56-.56.84-.56c.07.07.35-.14.63-.42.35-.28,1.05-.91,1.61-1.33a3.666,3.666,0,0,0,.84-.91c-.07-.07-.35.07-.56.28l-.49.35.42-.42c.42-.56,1.26-1.05.98-.7-.21.42.21.28.56-.14.21-.21.42-.42.49-.42.35,0,.07,3.22-.35,4.97a29.829,29.829,0,0,1-1.05,3.29,23.1,23.1,0,0,0-1.33,4.69,15.95,15.95,0,0,1-.7,3.01c-1.12,3.99-2.66,9.38-3.57,12.67-.49,1.68-1.82,6.86-3.01,11.41-1.19,4.62-2.17,8.4-2.17,8.4,0,.07-.42-.07-.84-.28-1.12-.49-5.32-.56-8.47-.21C38.43-38.92,32.76-38.08,27.79-37.17Zm-.07-7a28.021,28.021,0,0,1,2.66-3.92,6.351,6.351,0,0,1-.7,1.26c-.42.63-.98,1.54-1.26,1.89-.28.42-.63.91-.77,1.12S27.58-43.75,27.72-44.17Zm52.5,28.84c0,.07.14.14.35.07a1.3,1.3,0,0,1,.49-.14c.07,0,.28-.28.49-.56.14-.35.21-.63.07-.63C81.34-16.59,80.22-15.61,80.22-15.33ZM103.18-35c-2.45-1.61-5.6-1.68-9.66-.21l-1.26.49v-3.01c-.07-2.66-.07-3.15-.49-4.13a6.328,6.328,0,0,0-2.73-3.22,9.934,9.934,0,0,1-1.26-.77c-.77-.56-3.71-.84-5.04-.56-3.22.77-7.21,3.78-10.08,7.56-.42.49-.84,1.05-1.05,1.33a27.417,27.417,0,0,0-2.66,3.29,6.505,6.505,0,0,1-.98,1.33s.28-.98.63-2.24c.35-1.19.77-2.38.84-2.66,0-.21.63-.91,1.33-1.4,3.5-2.8,8.96-9.03,15.19-17.43C93.03-66.01,96.25-70.7,99.12-75.6c2.87-4.97,4.06-7.84,4.27-10.08a3.05,3.05,0,0,0-1.47-3.29,1.987,1.987,0,0,0-1.82-.7,7.435,7.435,0,0,0-4.06,1.19c-1.4.77-1.89,1.33-1.19,1.33.14,0,.28.07.28.21,0,.21-.49.42-.98.42-.77,0-5.81,5.25-10.43,10.85-.63.77-1.33,1.54-1.54,1.82-.98,1.19-4.06,5.39-5.53,7.56a52.69,52.69,0,0,0-4.27,7.28c-.84,1.68-1.75,3.36-1.96,3.78a101.672,101.672,0,0,0-4.9,12.6,7.114,7.114,0,0,1-.84,1.89,2,2,0,0,0-.35,1.19,13.14,13.14,0,0,1-.56,2.87c-1.33,4.69-2.94,11.69-3.5,15.26a16.8,16.8,0,0,0-.21,4.27l.14,2.24.98.91c1.12.98,1.82,1.33,2.17.91a.5.5,0,0,1,.42-.21c.49.21.77-.49.91-1.89.21-3.64,2.73-8.89,7.77-16.17a21.549,21.549,0,0,0,1.68-2.66c0-.14.07-.21.07-.14.14.14,1.26-1.26,1.26-1.54,0-.56,3.15-3.99,5.18-5.6,2.1-1.68,4.69-3.08,5.67-3.08.77,0,1.68,1.4,1.68,2.59a1.061,1.061,0,0,0,.28.56c.49.42.28,3.15-.42,5.95-.98,4.06-.77,3.78-3.29,5.46-4.2,2.8-8.47,6.51-14.07,12.18a73.841,73.841,0,0,0-7.91,9.1c-.84,1.19-1.12,1.19-1.05.07.07-.77,0-1.19-.21-1.19-.07,0-.21.21-.21.42a1.053,1.053,0,0,1-.28.77c-.28.28-.28.21-.21-.56.14-.84.14-.84-.14-.49a1.373,1.373,0,0,0,0,1.75.543.543,0,0,1,.07.7c-.21.14-.21.28,0,.56a1.135,1.135,0,0,1,.14.91c-.14.56-.07.77.7,1.54a11.138,11.138,0,0,1,1.12,1.33A4.743,4.743,0,0,0,65.45-.91a6.584,6.584,0,0,0,5.11-.42c2.52-1.05,4.76-3.01,8.05-7,1.19-1.4,2.52-3.08,2.94-3.71a93.494,93.494,0,0,0,6.44-10.99,44.455,44.455,0,0,0,2.94-7.28c0-.28,1.68-1.33,3.08-1.96,3.08-1.4,6.79-2.17,7.84-1.61.35.21.42.42.42,1.68a3.305,3.305,0,0,0,.21,1.61,2.252,2.252,0,0,0,1.12-.28c.7-.35.91-.56,1.05-1.26C105-33.32,104.58-34.02,103.18-35ZM92.75-80.29c3.43-3.99,5.67-6.16,7.28-7,.49-.28.49-.28.42.91-.07,1.26-.91,3.43-2.38,6.3-.49.91-1.12,1.96-1.33,2.38-1.19,2.24-4.97,8.05-6.93,10.71-.91,1.19-2.03,2.73-2.45,3.29-.42.63-1.05,1.47-1.4,1.96-1.12,1.33-5.39,7.07-5.6,7.42l-.56.56c-.21.21-1.05,1.19-1.89,2.24s-2.52,3.01-3.71,4.41c-2.1,2.38-2.73,2.94-2.45,2.17.28-.7,1.75-4.55,2.31-6.09a24.922,24.922,0,0,1,1.89-4.48,1.468,1.468,0,0,0,.28-.77,37.165,37.165,0,0,1,3.5-6.79c.7-.98.91-1.54.49-1.26-.35.21-.14-.14,1.75-2.73a113.579,113.579,0,0,1,7.49-9.45C90.23-77.35,91.77-79.03,92.75-80.29ZM79.03-64.19a39.9,39.9,0,0,1,2.94-3.85c.07,0,0,.14-.07.28a23.941,23.941,0,0,0-1.54,1.96A15.163,15.163,0,0,1,79.03-64.19Zm4.2-5.6a.535.535,0,0,1,.14-.35c.14-.07.21,0,.07.21C83.37-69.58,83.23-69.51,83.23-69.79ZM72.45-58.1c.28-.42.49-.77.56-.7.07,0-.07.35-.21.63a2.694,2.694,0,0,1-.56.77C72.17-57.33,72.24-57.68,72.45-58.1Zm-.91,1.96c.07,0,.07.21-.07.49-.21.63-2.17,4.9-2.38,5.32A5.391,5.391,0,0,0,68.6-49c-.35.84-.7,1.54-.7,1.19C67.9-48.44,71.26-56.14,71.54-56.14ZM67.06-41.51A.816.816,0,0,0,67.2-42a9.362,9.362,0,0,1,1.12-4.06,2.89,2.89,0,0,0,.49-1.4c-.07-.21,0-.35.14-.35.07,0,.14-.14.07-.42a6.882,6.882,0,0,1,.91-2.73c1.47-3.22,4.55-9.45,5.46-10.92,2.87-4.48,3.78-5.81,5.95-8.68,2.87-3.78,3.57-4.48,1.19-1.19a37.787,37.787,0,0,0-2.66,4.27c-.49,1.05-1.12,2.24-1.33,2.59-1.12,1.75-4.27,7.21-4.27,7.28s-.7,1.61-1.54,3.36a57.634,57.634,0,0,0-2.87,6.16c-.21.56-.63,1.75-.98,2.59-.35.91-.84,2.38-1.19,3.29-.56,1.82-1.05,2.73-1.26,2.45C66.29-40.04,66.71-41.44,67.06-41.51ZM64.05-26.74l-.35.56.14-.63a8.922,8.922,0,0,1,.28-.98c.14-.35.21-.35.21.07A2.6,2.6,0,0,1,64.05-26.74Zm.49-2.03c-.21.49-.21-.07,0-.7.07-.42.14-.42.14-.14A4.191,4.191,0,0,1,64.54-28.77Zm.49-2.24c-.07.14-.07.07-.07-.14s0-.35.07-.28S65.1-31.22,65.03-31.01Zm.56-1.89a7.142,7.142,0,0,1-.28,1.05c-.14.14-.14,0-.07-.42a4.34,4.34,0,0,1,.28-.98C65.66-33.46,65.73-33.32,65.59-32.9Zm.42-1.54-.28.49.14-.63c.07-.28.21-.77.28-.98.14-.35.14-.35.14.07A2.934,2.934,0,0,1,66.01-34.44Zm.21-3.15c-.07.21-.35,1.4-.7,2.59-.28,1.12-.63,2.38-.77,2.73-.21.63-1.47,5.95-1.68,7.28a12.026,12.026,0,0,1-1.12,2.45c0-.21.77-4.27,1.12-5.67.98-4.13,1.47-6.16,1.75-6.79a11.045,11.045,0,0,0,.49-1.12,5.243,5.243,0,0,0,.28-1.12c0-.49.14-.7.42-.77S66.36-38.01,66.22-37.59Zm.28,1.54a.224.224,0,0,1-.21-.21c0-.07.07-.21.14-.21l.21.21C66.71-36.12,66.64-36.05,66.5-36.05Zm1.26-5.04c.14-.28.35-1.12.63-1.89a14.613,14.613,0,0,1,.7-1.89c.14-.28.35-.98.63-1.61a19.172,19.172,0,0,1,.77-1.96c.21-.49.91-2.17,1.68-3.78a23.574,23.574,0,0,1,1.54-3.22c.42-.42-.14,1.12-1.61,4.69-1.61,3.78-2.31,5.46-3.22,7.91a6.041,6.041,0,0,1-.91,1.82C67.69-40.74,67.62-40.74,67.76-41.09ZM63.91-4.34c0-.42,1.54-2.66,3.57-5.18A157.263,157.263,0,0,1,81.97-24.01c1.26-1.05,2.45-1.96,2.52-2.1.28-.42.49-.21.28.28-.7,1.96-4.9,9.52-4.9,8.96-.07-.14.07-.35.21-.42.28-.28.14-.7-.14-.56-.14.14-.91,1.19-1.75,2.38a66.6,66.6,0,0,1-6.02,7.49A27.557,27.557,0,0,1,67.2-4.76C65.94-4.2,63.91-3.92,63.91-4.34Zm6.02,1.82c-.49.28-.63.28-.63.07s.77-.63.91-.42C70.28-2.8,70.14-2.59,69.93-2.52Zm1.26-.56a.385.385,0,0,1-.35.21c-.28,0-.21-.14.14-.28C71.19-3.22,71.26-3.15,71.19-3.08Zm.77-.42c-.63.28-.63.14,0-.21.28-.21.49-.28.49-.21C72.45-3.78,72.24-3.64,71.96-3.5Zm9.31-9.03c-.21.14-.28.14-.14-.14.07-.21.14-.28.28-.21A.547.547,0,0,1,81.27-12.53Zm1.75-3.85a1.091,1.091,0,0,0-.42.7.465.465,0,0,1-.28.35c-.21.07-.28.21-.28.28.21.63-4.34,6.44-6.86,8.89-.77.7-1.68,1.47-2.03,1.75l-.56.42.63-.7a2.309,2.309,0,0,0,.63-.91.186.186,0,0,1,.21-.21c.21.07,1.19-.98,1.19-1.26,0-.07.14-.14.35-.14.42,0,1.33-.84,1.33-1.33a3.351,3.351,0,0,1,.56-.77,3.936,3.936,0,0,0,.49-.91,2.94,2.94,0,0,1,.77-1.4c.07,0,.07.14,0,.21-.14.14.07.07.35-.14a.888.888,0,0,0,.49-.56,3.249,3.249,0,0,1,.77-.84A2.515,2.515,0,0,0,80.99-14a2.567,2.567,0,0,1,.7-1.05,1.933,1.933,0,0,0,.56-.91c-.07-.14,0-.21.14-.21s.21-.14.21-.35c0-.14.14-.35.28-.35.21-.07.35-.21.35-.28a34.692,34.692,0,0,1,2.45-4.41C86.17-21.91,83.79-17.43,83.02-16.38Zm.07-2.59c-.07-.07.07-.42.28-.7s.42-.42.42-.35C83.79-19.6,83.23-18.76,83.09-18.97Zm1.05-2.1c.21-.35.35-.63.42-.56a1.767,1.767,0,0,1-.28.63C83.86-20.16,83.72-20.16,84.14-21.07Zm1.89-5.46c-.35.98-3.29,6.44-4.34,8.26-1.19,1.89-1.33,2.45-.28,1.05.7-.98.98-1.19.98-.7,0,.14.14.07.28-.21.07-.21.28-.42.35-.42.21,0,.07.49-.21.91a17.4,17.4,0,0,0-.91,1.54c-.7,1.26-2.87,4.34-2.87,3.99,0-.07.42-.63.91-1.4.56-.77.77-1.33.63-1.4a.346.346,0,0,0-.21-.07c-.07.07-.49.7-.98,1.47a49.862,49.862,0,0,1-6.37,7.84c-.63.63-1.4,1.33-1.61,1.54a2.1,2.1,0,0,1-.63.49,9.7,9.7,0,0,0-1.54.63c-1.33.7-1.4.77-.91.91l.49.21h-.49a5.3,5.3,0,0,0-1.05.07c-1.19.21-2.59-.28-2.38-.91.07-.21.14-.28.28-.14.28.21,2.38-.49,3.85-1.26,1.54-.91,5.25-3.78,5.25-4.2a14.393,14.393,0,0,1,1.47-1.75c.28-.35,1.19-1.54,1.89-2.59,1.96-2.94,2.24-3.36,1.96-3.5-.14-.07-.07-.21.21-.28a1.365,1.365,0,0,0,.7-.7,1.656,1.656,0,0,1,.35-.63,35.906,35.906,0,0,0,3.36-5.67C85.75-26.46,86.45-27.58,86.03-26.53Zm35.63-17.01c4.48.49,11.62-.07,18.34-1.54v-.07h.07c.07-.07.14-.14.14-.21h.07c0-.07,0-.07.07-.14,0-.07.07-.14.07-.21l.07-.07a3.032,3.032,0,0,0,.07-.35v-.49c0-.07-.07-.42,0-.28a3.032,3.032,0,0,1-.07-.35c-.07,0-.14-.21-.14-.28a.069.069,0,0,1-.07-.07.069.069,0,0,1-.07-.07,7.382,7.382,0,0,1-1.82.28c-.07-.07.49-.21,1.19-.35.14,0,.28-.07.49-.07l-.14-.14h-.07a.217.217,0,0,0-.14-.07.244.244,0,0,0-.14-.07.631.631,0,0,0-.35-.07c-.07,0-.42-.07-.49-.07h-1.4a68.624,68.624,0,0,1-9.38,1.33c-4.97.42-9.17.14-9.17-.49.07-.42-1.4-2.03-2.1-2.38a2.859,2.859,0,0,0-2.38-.21c-.49.21-.7.14-1.26-.21-.7-.42-1.89-.63-2.03-.35-.07.07.07.49.35.84l.49.7-1.33,1.19a31.256,31.256,0,0,0-8.05,11.9c-1.05,3.01-.77,8.26.56,9.94a2.958,2.958,0,0,1,.63.98c-.07.7,1.68,2.38,2.73,2.66a3.661,3.661,0,0,0,2.59.07c.28-.07,1.26-.42,2.17-.63a10.507,10.507,0,0,0,4.9-2.73,20,20,0,0,0,4.76-6.44,7.855,7.855,0,0,0,.91-3.71,12.835,12.835,0,0,0-.84-6.16c-.35-.91-.7-1.68-.7-1.75A4.647,4.647,0,0,1,121.66-43.54Zm14.98-3.5c.21-.14,1.68-.42,1.47-.28a2.754,2.754,0,0,1-.91.28C136.78-46.97,136.5-46.97,136.64-47.04ZM115.71-31.01a15.408,15.408,0,0,1-5.74,4.34,8.267,8.267,0,0,1-3.43.91c-1.19,0-1.26,0-1.4-.56-.49-1.54,0-4.9,1.05-7.49.84-2.1,3.78-7.14,4.76-8.05a4.738,4.738,0,0,0,.77-.98,22.908,22.908,0,0,1,3.22-3.15c.14-.07.14.07.14.21a.7.7,0,0,0,.56.98c.21.07.42.14.49.28a1.541,1.541,0,0,0,.84.21c.63,0,.77.07,1.26.91C120.12-40.11,119-34.72,115.71-31.01Zm54.39-10.5a19.378,19.378,0,0,0-1.26,1.82,37.747,37.747,0,0,1-3.22,4.34,100.52,100.52,0,0,1-9.24,9.45,13.813,13.813,0,0,1-4.55,2.52,2.5,2.5,0,0,0-1.05.42c-.14.14-.28.21-.7.07-.56-.14-.63-.21-.7-1.05-.35-2.17.14-5.11,1.61-9.52a53.272,53.272,0,0,1,5.39-11.76,5.279,5.279,0,0,0,.91-1.89,2.02,2.02,0,0,0,.07-1.89c-.21-.7-.35-.84-.77-.91-.21-.07-.49-.21-.49-.35-.07-.14-.35-.21-.63-.21-.98,0-1.89,1.33-4.62,6.65-.77,1.54-1.05,1.89-3.71,5.04-.91,1.05-1.89,2.24-2.17,2.52a3.976,3.976,0,0,1-.77.98c-.56.7-4.48,5.25-4.97,5.88a26.036,26.036,0,0,1-3.29,3.64,11.446,11.446,0,0,0-1.26,1.12l-.42.49.14-.63a32.62,32.62,0,0,1,1.96-7.07c.7-1.89,1.89-4.69,2.66-6.3.7-1.54,1.33-2.94,1.33-3.01,0,0,.35-.84.77-1.82a7.439,7.439,0,0,0,.98-2.8c.07-1.05.07-1.05-.56-1.61a1.789,1.789,0,0,0-.98-.56c-.21,0-.42-.14-.42-.28,0-.28-.84-.35-1.33-.07-.77.42-1.12,1.05-3.22,5.32-3.01,6.37-4.55,10.92-5.18,15.26-.28,2.1-.14,2.8,1.26,4.76a.838.838,0,0,0,.56.35,1.061,1.061,0,0,1,.56.28,3.856,3.856,0,0,0,2.38.77,3.182,3.182,0,0,0,1.75-.56,6.846,6.846,0,0,0,2.94-2.8c1.89-2.8,6.86-9.45,7-9.38a10.442,10.442,0,0,1-.42,1.61c-.77,3.22-.91,6.02-.28,7.98.42,1.47,1.82,3.43,2.45,3.43a.8.8,0,0,1,.42.21c0,.14.49.35.91.56a5.114,5.114,0,0,0,1.54.42,7.367,7.367,0,0,0,3.01-.56,2.941,2.941,0,0,1,.84-.49,14.338,14.338,0,0,0,3.78-2.59c.35-.42,1.47-1.61,2.52-2.73,1.12-1.12,2.24-2.38,2.59-2.8a23.708,23.708,0,0,1,1.47-1.96,53.894,53.894,0,0,0,3.71-5.32c.84-1.54.98-2.24.91-4.62C170.24-41.37,170.17-41.58,170.1-41.51Zm19.18-30.38c1.19-.07,2.8-.21,4.55-.28,1.05-.07,2.8-.14,3.92-.21,2.73-.21,11.27-.49,12.6-.42,5.32.14,12.6.7,13.16.91.28.14.14.28-.56.49a6.874,6.874,0,0,0-2.87,1.12,19.68,19.68,0,0,1-4.13,1.19c-.56.07-.56.35-.07.35a1.672,1.672,0,0,1,.63.14,2.641,2.641,0,0,0,1.4.21,5.392,5.392,0,0,1,1.33.07,30.235,30.235,0,0,0,4.41-.63,1.682,1.682,0,0,1,.7-.14,4.684,4.684,0,0,0,2.38-1.68c.21-.7.14-1.26-.14-1.47-.21-.07-.28-.35-.28-.63a2.03,2.03,0,0,0-.21-.77,8.452,8.452,0,0,0-3.5-1.4c-1.4-.28-1.68-.28-9.17-.28-5.81,0-8.54.07-10.92.21-2.1.14-7.35.56-11.9.91,1.26-2.03,2.38-3.71,3.08-4.62,1.19-1.47,2.59-3.64,2.59-4.13a2.133,2.133,0,0,1,.49-.7c.91-.7.28-3.01-.84-3.15-.35,0-.63-.14-.56-.28,0-.35-1.75-1.4-2.66-1.47a1.846,1.846,0,0,0-1.96,1.33,7.077,7.077,0,0,1-.84,1.68c-.7.98-4.9,8.4-6.86,11.9l-.84.14a18.446,18.446,0,0,0-1.96.14c-.56,0-2.38.14-4.06.35-1.68.14-5.74.42-9.03.7s-6.93.56-8.05.7c-6.02.56-12.53.98-11.34.7a4.763,4.763,0,0,1,1.05-.14c.28,0,.56-.07.56-.14s-.35-.07-.84-.07c-.49.07-2.87.21-5.25.42s-4.83.35-5.39.42c-.91.07-1.05.07-1.33-.28a2.838,2.838,0,0,0-3.15-.21c-.63.42-.7.42-2.38.42-1.75,0-1.75,0-1.89.35a4.158,4.158,0,0,1-.28.56c-.35.21-.35,1.4,0,1.4.14-.07.21.07.21.28,0,.42.77,1.19,1.26,1.33.56.07,5.81-.21,7.77-.42,4.69-.56,10.5-1.12,20.37-2.03,11.9-1.12,11.83-1.12,11.97-1.19.42-.14,10.71-1.12,10.71-.98h.63c-9.52,17.92-15.61,32.9-20.23,49.63A99.17,99.17,0,0,0,157.92-4.2c-.98,8.4-.63,12.74,1.26,15.54a8.85,8.85,0,0,0,1.4,1.68,2.413,2.413,0,0,1,.98.56c.35.28.98.7,1.4.98a8.866,8.866,0,0,0,1.61.56c1.05.14,2.52-.42,2.59-1.05a1.89,1.89,0,0,1,.35-.77c.35-.28-.42-3.5-.91-3.5a3.581,3.581,0,0,0-1.54.77,7.456,7.456,0,0,1-1.47.84c-.35-.07-.84-2.1-.98-3.64-.35-5.25.91-14.98,2.87-21.42.28-.98.91-3.29,1.4-5.04,2.24-8.19,7.49-23.03,9.59-27.02.77-1.47,2.52-5.25,3.64-8.05,1.61-3.85,2.38-5.39,7.63-15.26C188.23-70,188.79-70.98,189.28-71.89Zm27.37-2.38a20.184,20.184,0,0,1,7.49.91c.7.21.28.28-.49.07a26.5,26.5,0,0,0-4.41-.49,2.774,2.774,0,0,1-1.05-.14,2.25,2.25,0,0,0-1.12-.07C216.02-73.99,215.74-74.13,216.65-74.27Zm-2.38-.07a6.448,6.448,0,0,1,1.12.07c-.28.07-.28.07,0,.21.14.07.14.07-.14.07-.14,0-.35,0-.35-.07s-.35-.14-.84-.14a3.2,3.2,0,0,1-1.05-.07C212.94-74.34,213.5-74.34,214.27-74.34Zm-8.47.07c.56-.07,6.65-.14,6.51,0-.07,0-1.26.07-2.66.14-1.4,0-2.66.07-2.8.07-.07.07-.49,0-.84,0C205.31-74.13,205.31-74.2,205.8-74.27Zm-9.73.63c.21-.14.42-.14,2.24-.21.77-.07,2.17-.14,3.08-.21,2.17-.21,3.57-.21,3.57,0,0,.07-.14.07-.35.07a32.281,32.281,0,0,0-3.29.28,4.306,4.306,0,0,1-2.24.14,5.91,5.91,0,0,0-1.33-.14c-.35.14-.28.14.21.21s.49.07-.21.07c-.42,0-.7-.07-.63-.14s-.14-.07-.49,0C196.28-73.57,196-73.57,196.07-73.64Zm-29.05,2.31c-1.05.14-3.08.28-4.69.42-1.47.14-3.78.35-5.04.49a35.217,35.217,0,0,1-4.55.28,23.735,23.735,0,0,1,2.38-.28c1.26-.14,3.43-.35,4.83-.49,2.52-.28,7.28-.63,8.68-.7a2.9,2.9,0,0,0,.98-.14c.07-.07.21-.07.21.07S169.47-71.47,167.02-71.33Zm3.57-.21a.151.151,0,0,1-.14-.14.151.151,0,0,1,.14-.14c.14,0,.21.07.21.14S170.73-71.54,170.59-71.54Zm.91-.14c-.21,0-.28-.07-.21-.14a.535.535,0,0,1,.35-.14.151.151,0,0,1,.14.14C171.78-71.75,171.64-71.68,171.5-71.68Zm2.87-.28c-.35.14-.56.14-.56,0,0-.07.21-.14.42-.14C174.58-72.1,174.65-72.03,174.37-71.96Zm3.64-.21c-.7.07-1.75.14-2.31.14-.56.07-.98.07-.91,0,.14-.07,4.55-.42,4.55-.35A4.161,4.161,0,0,1,178.01-72.17ZM160.86.42a13.919,13.919,0,0,0-.14,2.45,9.054,9.054,0,0,1-.07,2.38c-.21.21-.21-1.19-.07-3.92.14-1.82.21-2.38.28-1.82A1.012,1.012,0,0,1,160.86.42Zm.35-4.48c-.07.21-.14.14-.14-.14.07-.35.14-.49.21-.35C161.35-4.48,161.28-4.27,161.21-4.06Zm16.31-49.91a8.576,8.576,0,0,1-1.12,2.94c-.07-.07-.28.28-.35.63-.14.35-.35.63-.49.63s-.28.63-.35,1.47a3.426,3.426,0,0,1-.56,1.68,4.268,4.268,0,0,0-1.05,2.52c.07.28.07.35-.07.21s-.35.35-.56,1.19a5.405,5.405,0,0,1-.49,1.54,2.537,2.537,0,0,0-.42,1.26,7.139,7.139,0,0,1-.63,1.75,35.149,35.149,0,0,0-2.1,5.67,14.615,14.615,0,0,1-.98,2.59,3.752,3.752,0,0,0-.49,1.33c-.42,2.45-.84,3.78-1.12,3.57-.14-.07-.35.07-.49.35-.07.28-.07.56.07.63a2.32,2.32,0,0,1-.21,1.19,65.762,65.762,0,0,0-1.89,6.51,4.417,4.417,0,0,1-.56,1.61c-.42.7-.42.84-.14,1.26s.28.49-.14.77c-.35.21-.56.98-1.05,3.36-.63,3.57-1.19,5.11-.91,2.73a23.18,23.18,0,0,1,.63-3.5c.21-1.05.63-2.94.91-4.27.28-1.26.98-3.85,1.54-5.67.56-1.89,1.26-4.27,1.61-5.32a115.343,115.343,0,0,1,4.41-13.09c.91-2.24,1.33-3.01,1.61-3.01.35.07.35,0,.07-.28-.28-.21-.07-.77.98-3.43C175.21-50.12,177.66-55.02,177.52-53.97Zm4.2-11.48c-1.89,3.57-6.72,13.86-8.05,17.01-1.96,4.9-5.04,12.88-5.11,13.3-.07.28-1.12,3.36-1.89,5.39-.14.42-.35,1.12-.49,1.61-.14.42-.49,1.68-.77,2.73-.35.98-.91,2.8-1.19,3.92-.35,1.12-.84,2.8-1.19,3.78-.28.98-.7,2.45-.84,3.29-.21.84-.63,2.8-1.05,4.41-.42,1.82-.98,5.11-1.47,8.89-.77,6.09-1.12,7.7-1.05,4.69,0-.91-.07-2.24-.14-2.94-.21-1.75.84-10.78,1.33-10.64.28.14.35,0,.07-.7-.21-.42-.07-1.12.28-2.8a10.556,10.556,0,0,1,.84-2.45c.28-.21.63-1.05.35-1.05-.35-.07-.21-.56,1.19-5.46a22.866,22.866,0,0,1,1.47-4.34,25.231,25.231,0,0,0,1.96-5.04,163.981,163.981,0,0,1,6.23-15.96,4.907,4.907,0,0,0,.63-1.19,8.119,8.119,0,0,1,.84-1.75c1.61-3.15,2.45-4.9,2.45-5.32,0-.21.07-.35.14-.35.14,0,.28-.21.28-.56a61.519,61.519,0,0,1,4.62-8.75,8.343,8.343,0,0,0,1.05-1.26C182.91-67.9,182.77-67.48,181.72-65.45Z" transform="translate(5.59 114.291)" fill="#fff"/>
  </g>
</svg>
