<svg xmlns="http://www.w3.org/2000/svg" xmlns:xlink="http://www.w3.org/1999/xlink" width="327" height="66" viewBox="0 0 327 66">
  <defs>
    <clipPath id="clip-path">
      <rect id="長方形_862" data-name="長方形 862" width="327" height="66" transform="translate(10730 8908)" fill="none"/>
    </clipPath>
    <clipPath id="clip-path-2">
      <rect id="長方形_744" data-name="長方形 744" width="327.127" height="95.472" fill="#fff"/>
    </clipPath>
  </defs>
  <g id="マスクグループ_24" data-name="マスクグループ 24" transform="translate(-10730 -8908)" clip-path="url(#clip-path)">
    <g id="グループ_1173" data-name="グループ 1173" transform="matrix(0.996, -0.087, 0.087, 0.996, 10724.404, 8891.892)">
      <g id="グループ_685" data-name="グループ 685" clip-path="url(#clip-path-2)">
        <path id="パス_392" data-name="パス 392" d="M26.965,79.926a12.67,12.67,0,0,1,0,3.643,20.521,20.521,0,0,1-.944,3.643,1.113,1.113,0,0,0-.054.189c-.081.243-.486,1.323-.567,1.539-.054.108-.243.54-.405.944a17.313,17.313,0,0,1-1.08,2.132,2.039,2.039,0,0,0-.27.594,17.128,17.128,0,0,1-1.322,2.51c-.108,0-.486.675-.486.837a.718.718,0,0,1-.135.351,2.316,2.316,0,0,0-.27.432,20.961,20.961,0,0,1-1.485,2.213,3.38,3.38,0,0,0-.7,1,23.083,23.083,0,0,1-2.4,3.239c-.162.189-.458.594-.647.864a17.182,17.182,0,0,1-2.105,2.456c-.432.459-.891.891-1,1.026-.216.243-.378.351-1.43,1.3a22.379,22.379,0,0,1-3.751,2.78.08.08,0,0,0-.108.054,6.411,6.411,0,0,1-1.754,1,5.105,5.105,0,0,1-1.484.512,5.464,5.464,0,0,1-2.078.054,3.09,3.09,0,0,1-1.458-1,2.488,2.488,0,0,1-.836-1.566,1.461,1.461,0,0,0-.108-.54c-.135-.216-.108-.323.081-1.133.27-1,1.106-2.78,1.3-2.7s.62-.729.7-1.268a6.093,6.093,0,0,1,.216-1c.081-.351.243-1.026.351-1.485.135-.485.432-1.808.7-2.915.594-2.618,1-4.129,1.646-6.288C5.671,91.45,7.1,87.348,7.83,85.513c.243-.62.459-1.133.459-1.188,0,0-.162-.135-.351-.27-.567-.378-.756-.81-.4-.944a.305.305,0,0,0,.135-.216c0-.135,1.808-2.726,2.834-4.075a28.579,28.579,0,0,1,2.186-2.51c.513-.513.621-.54,1.242-.351.4.108.513.216.486.378-.027.108,0,.135.054.135.081,0,.108.054.081.135s0,.108.135.108c.243,0,.3.162.162.432a.905.905,0,0,0-.135.323,3.693,3.693,0,0,1-.54.756c-.674.836-1,1.3-.944,1.349.081.081-.189.486-.27.432-.027-.027-.054.054-.054.162a.412.412,0,0,1-.135.243.178.178,0,0,0-.108.135c0,.054-.3.648-.648,1.323s-.647,1.242-.647,1.268c0,0-.189.485-.432,1.025-.243.567-.647,1.512-.863,2.132-.216.594-.459,1.268-.54,1.457-.108.216-.162.405-.135.405a1.376,1.376,0,0,0,.27-.324c.648-.918,2.294-3.1,2.888-3.805.243-.3.675-.81.918-1.134a30.372,30.372,0,0,1,3.7-3.7c-.054.108,0,.081.189-.081.162-.161.216-.243.135-.3-.054-.027-.027-.054.081-.081.108-.054.189-.081.189-.108a.987.987,0,0,1,.324-.243,11.417,11.417,0,0,0,1.053-.7c.809-.567,1.026-.7,1.187-.7.135,0-.378.432-.7.567-.135.081-.243.162-.243.243a.086.086,0,0,1-.081.081.886.886,0,0,0-.351.243,2.391,2.391,0,0,1-.351.216c-.054,0-.081.054-.081.108s-.135.189-.323.3c-.162.108-.3.243-.3.324,0,.054-.054.081-.135.081-.081-.027-.162.054-.216.135a.2.2,0,0,1-.216.108c-.081,0-.189.054-.27.216a.874.874,0,0,1-.432.324c-.243.108-.27.162-.3.4s-.054.3-.243.324c-.189,0-.594.4-.62.567,0,.135-.486.648-.594.621-.027-.027-.135.027-.189.108-.081.081-.216.27-.324.378a1.737,1.737,0,0,0-.216.3c0,.027-.054.054-.108.054-.081,0-.135.081-.135.189,0,.3-.216.567-.378.513-.108-.027-.189.027-.3.189-.189.243-.216.351-.108.3.108-.081.108,0-.054.216a.758.758,0,0,1-.324.27.226.226,0,0,0-.162.216c0,.108-.054.135-.081.108-.108-.054-.432.27-.513.486-.027.081-.081.162-.108.162-.054,0-.081.054-.081.108a.776.776,0,0,1-.216.3,1.544,1.544,0,0,0-.351.378,1.119,1.119,0,0,1-.3.4.829.829,0,0,0-.162.3.706.706,0,0,1-.161.216,1.25,1.25,0,0,0-.324.459c-.108.162-.27.432-.4.62-.135.162-.216.351-.189.378.054.081-.243.621-.35.621-.054,0-.081.054-.081.135a.8.8,0,0,1-.162.351,3.736,3.736,0,0,0-.486.918c.027-.054.27-.378.513-.756.513-.756.675-.782.243-.027-.162.27-.432.729-.567,1-.162.324-.378.729-.513.971a1.859,1.859,0,0,0-.216.432s.432-.648.944-1.485a59.53,59.53,0,0,1,5.452-7.5c.351-.378.809-.918,1.026-1.161a26.964,26.964,0,0,1,4.75-4.183,7.587,7.587,0,0,1,3.428-1.322c.243.054.27.027.135-.054a5.385,5.385,0,0,0-2.078-.027c-.216.108-.351.054-.162-.081a4.066,4.066,0,0,1,1.539-.189,2.39,2.39,0,0,1,1.673.513.9.9,0,0,0,.351.216c.162-.054,1,.648,1,.864a.376.376,0,0,0,.108.243A6.726,6.726,0,0,1,26.965,79.926ZM.3,109.992c-.027-.054-.054-.081-.081-.081s-.027.027-.027.081a.086.086,0,0,0,.081.081C.3,110.072.327,110.046.3,109.992ZM25.67,81.3a14.775,14.775,0,0,0-.162-1.943c-.027-.216-.135-.567-.162-.81-.162-.891-.594-1.43-1.187-1.538a5.093,5.093,0,0,0-2.24.486,9.866,9.866,0,0,0-1.376.836,34.859,34.859,0,0,0-4.966,4.615,1.842,1.842,0,0,1-.486.485c-.054-.027-.081,0-.081.054.027.054-.054.216-.189.378-1.539,1.97-2.969,3.805-3.131,4.075-.027.081-.486.783-1,1.592a48.209,48.209,0,0,0-2.429,4.183,25.613,25.613,0,0,0-2.591,6.126c-.378,1.43-.432,1.728-.324,1.647a.346.346,0,0,0,.189-.135,21.024,21.024,0,0,1,2.753-1.673,12.383,12.383,0,0,1,1.268-.513,4.152,4.152,0,0,1,1.7-.162,3.959,3.959,0,0,1,1.512.162c.323.135.458.216.485.323a.3.3,0,0,0,.135.216c.324.189-.162.323-.513.135-.567-.3-2.375.081-3.454.7-.081.054-.351.216-.62.378a11.25,11.25,0,0,0-2.618,2.025c-1.349,1.3-1.539,1.565-1.592,2.1-.054.351-.027.432.135.594a.759.759,0,0,1,.189.567c0,.432-.108.513-.54.458l-.324-.027V107a.651.651,0,0,1-.081.432c-.108.162-.594.108-.81-.054a.5.5,0,0,0-.27-.162A6.5,6.5,0,0,0,2,109.182c.027.054,0,.081-.027.108a1.88,1.88,0,0,0-.189.7,4.96,4.96,0,0,1-.162.863,2.028,2.028,0,0,0,.189,1.053.223.223,0,0,0,.216.054c.054-.027.108,0,.108.054,0,.081.054.081.189.054.108-.027.189-.027.189.027,0,.108.243.108.809.027a5.84,5.84,0,0,0,1.322-.378c0-.027-.108-.027-.27.027-.459.081-.486.054-.054-.081.432-.162.7-.189.513-.081-.081.054-.108.081-.054.081A15.847,15.847,0,0,0,7.02,110.5c.351-.243.7-.459.809-.513a1.248,1.248,0,0,0,.243-.162c.027-.027.323-.27.7-.54.351-.3.945-.756,1.268-1.026a2.215,2.215,0,0,1,.675-.486,8.685,8.685,0,0,0,1.161-1.052c.594-.621,1.457-1.485,1.943-1.943.648-.648.891-.918.891-1.053s.027-.162.108-.135c.108.027.675-.54.675-.675a.409.409,0,0,1,.108-.161c.216-.243.27-.351.27-.405.027,0,.108-.162.216-.3s.189-.27.162-.3-.054,0-.081.081a.179.179,0,0,1-.135.108,18.2,18.2,0,0,1,2.159-3.4,49.956,49.956,0,0,0,4.129-6.8c.62-1.215,1.754-3.617,1.943-4.184.378-.971.783-1.538.486-.674-.243.7-.27.782-.216.918a6.327,6.327,0,0,0,.458-1.539,6.019,6.019,0,0,1,.216-.971A10.452,10.452,0,0,0,25.67,81.3ZM4.213,112.636a3.216,3.216,0,0,0-.54.162c-.216.081-.216.081.135.054a2.274,2.274,0,0,0,.54-.135C4.537,112.609,4.51,112.609,4.213,112.636Zm.162-12.631.108-.27a4.477,4.477,0,0,0,.161-.567l.054-.324-.108.324a2.247,2.247,0,0,0-.162.567Zm.782,12.307a1.823,1.823,0,0,0-.513.243c0,.054.243-.027.432-.135C5.158,112.367,5.185,112.313,5.158,112.313ZM4.942,98.737c0,.135.135-.108.135-.27,0-.027-.027,0-.081.054A.636.636,0,0,0,4.942,98.737ZM5,96.119c0,.081,0,.108.027.027a.121.121,0,0,0,0-.135C5,95.984,5,96.038,5,96.119Zm.081-.3c0,.108,0,.108.054,0,.027-.054.081-.216.162-.378s.135-.324.081-.378C5.32,94.985,5.077,95.606,5.077,95.822Zm.378-.432c-.162.378-.27.836-.189.836a1.978,1.978,0,0,0,.27-.62c.135-.378.189-.594.135-.621s-.027-.108.081-.216a.651.651,0,0,0,.189-.485,1.607,1.607,0,0,1,.135-.621A6.246,6.246,0,0,0,6.588,92.1c-.081-.054,0-.3.108-.3.027,0,.054-.108.054-.27a1.8,1.8,0,0,1,.162-.54c.108-.162.162-.3.135-.323-.054-.108.108-.621.216-.621.027,0,.054-.054.081-.135a1.838,1.838,0,0,1,.135-.459c.108-.162.135-.324.081-.324a.058.058,0,0,1-.054-.054.072.072,0,0,1,.081-.081c.135,0,.351-.567.27-.7-.027-.027,0-.054.054-.054.081.027.108-.081.135-.27a2.661,2.661,0,0,1,.135-.54,1.141,1.141,0,0,0,.135-.324.072.072,0,0,1,.081-.081c.027,0,.108-.108.162-.216s.162-.4.27-.62a1.136,1.136,0,0,0,.162-.54c-.027-.081.027-.216.161-.351a.423.423,0,0,0,.162-.378c0-.108.027-.162.054-.162.054,0,.081-.054.081-.162s.027-.162.081-.108c.054.027.081,0,.027-.081a.622.622,0,0,1,.108-.378,1.891,1.891,0,0,0,.216-.54l.054-.3-.216.189c-.108.108-.189.243-.162.27.027.054,0,.108-.081.135-.108.027-.108.054-.027.108.081.081.081.108-.054.216-.189.135-.27.3-.108.216.027-.027.054.027.027.108a.42.42,0,0,1-.216.216c-.081.054-.135.135-.108.189.027.081,0,.108-.027.108-.054,0-.081.054-.054.108.054.162-.162.675-.27.675-.054-.027-.081,0-.054.027s-.054.162-.162.324a.678.678,0,0,0-.135.459,1.035,1.035,0,0,1-.135.512,1.731,1.731,0,0,0-.162.405,1.456,1.456,0,0,1-.162.432,1.378,1.378,0,0,0-.162.4.179.179,0,0,1-.108.135c-.081.027-.108.135-.108.27a.448.448,0,0,1-.081.27.241.241,0,0,0-.108.216c0,.108-.027.189-.081.189-.027,0-.081.108-.108.27a6.5,6.5,0,0,1-.3,1.215c-.027.081-.162.458-.3.836a5.094,5.094,0,0,1-.351.918c-.081.135-.135.243-.108.27s-.027.189-.081.378a1.435,1.435,0,0,0-.135.54,2.117,2.117,0,0,1-.189.7c-.135.324-.162.458-.081.485C5.59,95.04,5.59,95.147,5.455,95.391Zm.7-.324a8.146,8.146,0,0,1-.27.837,5.566,5.566,0,0,0-.351.971,2.057,2.057,0,0,1-.161.486,1.145,1.145,0,0,0-.108.378c0,.189,0,.189.081.054.054-.081.162-.351.27-.594a22.318,22.318,0,0,0,.918-2.861C6.535,94.176,6.157,94.878,6.157,95.067Zm-.513,17.111a.072.072,0,0,0-.081-.081c-.027,0-.054.027-.054.081a.058.058,0,0,0,.054.054C5.617,112.258,5.644,112.2,5.644,112.178Zm4.669-2.969c0-.162-.3-.054-.648.27a16.087,16.087,0,0,1-1.97,1.376,7.159,7.159,0,0,0-1.646,1.026l.108.054.27-.108c.162-.081.432-.243.648-.378a1.5,1.5,0,0,1,.459-.243.163.163,0,0,0,.161-.081.462.462,0,0,1,.135-.054c.054.027.162-.027.243-.135a.42.42,0,0,1,.323-.162.3.3,0,0,0,.243-.108c.027-.081.081-.135.135-.108.054,0,.216-.162.378-.351a1.277,1.277,0,0,1,.432-.324c.135.027.486-.3.486-.432,0-.054.054-.108.135-.135C10.259,109.29,10.313,109.236,10.313,109.209Zm-3.67-15.3a.209.209,0,0,0-.081.189c0,.108,0,.108.081,0a.9.9,0,0,0,.081-.162A.051.051,0,0,0,6.643,93.906Zm.3-1.3a1.925,1.925,0,0,0,.108-.594c0-.3,0-.3-.216.324a5.078,5.078,0,0,0-.243.756C6.561,93.258,6.777,92.961,6.939,92.611Zm2.213-6.693A11.039,11.039,0,0,1,8.5,87.51a5.452,5.452,0,0,0-.324.837c-.135.3-.378,1-.567,1.565a5.126,5.126,0,0,0-.351,1.134.521.521,0,0,1-.081.27.567.567,0,0,0-.108.27c0,.081,0,.108.081-.027.135-.189.243-.161.189.081-.081.378.081.027.27-.513.108-.27.27-.756.378-1.106.108-.324.3-.944.432-1.35.3-.89.27-.836.162-.756-.081.027-.081,0-.027-.108.135-.3.756-2.052.81-2.267C9.476,85.162,9.342,85.351,9.152,85.917ZM7.965,92.8c0,.027.054-.027.135-.135.054-.135.135-.189.162-.189.081.054.161-.027.485-.594.135-.243.351-.594.459-.782s.162-.324.108-.3c-.054.054-.081.027-.081-.027,0-.081-.054-.054-.081.027a.217.217,0,0,0-.027.216c.027.054.027.081-.027.054-.081-.054-.351.27-.324.4,0,.189-.027.3-.108.27A3.561,3.561,0,0,0,7.965,92.8ZM9.5,90.56a.158.158,0,0,0,.081-.189c-.027-.081,0-.108.027-.081s.162-.135.324-.35c.135-.216.324-.486.4-.594.27-.378.3-.513.216-.54-.135-.054-.647.648-.567.756.027.054-.027.081-.081.081-.081,0-.135.054-.081.135,0,.054,0,.081-.027.081-.081-.054-.351.378-.378.594C9.4,90.613,9.422,90.613,9.5,90.56Zm-.081-1.728c0,.054.027.027.081-.027.027-.081.081-.162.081-.189,0-.054-.027-.027-.081.027A.361.361,0,0,0,9.422,88.832Zm5.047,16.275c0-.135-.243-.027-.4.189-.324.4-.432.513-.54.513-.027,0-.108.081-.162.189a6.022,6.022,0,0,1-.459.485,1.533,1.533,0,0,0-.351.432c0,.027-.108.081-.216.081-.243.027-.27-.027-.081-.243.135-.135.135-.135-.027-.054-.189.081-.459.459-.351.459a.144.144,0,0,0,.108-.081c0-.054.054-.081.081-.027.054.135-.513.7-.783.756a1.476,1.476,0,0,0-.4.216.592.592,0,0,1-.324.189,4.181,4.181,0,0,0-1.053.809c.054.054.54-.243,1-.594.27-.189.486-.351.54-.324.081.054-.162.4-.351.486a.28.28,0,0,0-.135.189c0,.054-.108.108-.216.135-.3.027-.324.189-.027.162a.516.516,0,0,0,.378-.189c.108-.135.189-.189.243-.189,0,.027.162-.081.324-.216a.838.838,0,0,1,.4-.243.144.144,0,0,0,.135-.135c0-.108.135-.3.756-.944.216-.243.378-.351.486-.351.054,0,.081-.054.081-.135s.162-.27.351-.432a1.237,1.237,0,0,0,.351-.4c0-.054.054-.081.108-.081C14.038,105.754,14.442,105.241,14.469,105.107ZM9.611,84.865a.412.412,0,0,0-.108.216c0,.081.027.054.135-.189C9.746,84.7,9.746,84.7,9.611,84.865Zm0,15.2a.291.291,0,0,0,.162-.054c.027-.054-.027-.054-.108-.027C9.476,100.005,9.449,100.06,9.611,100.06Zm.62-.216a.289.289,0,0,0,.162-.054c0-.054-.027-.054-.108-.054C10.1,99.79,10.07,99.843,10.232,99.843ZM10.5,88.7c0,.027.054.054.108.054a5.187,5.187,0,0,0,.756-.918c.918-1.323,2.672-3.643,2.942-3.887a3.529,3.529,0,0,0,.4-.485,8.457,8.457,0,0,1,.54-.675,3.043,3.043,0,0,0,.486-.54c.135-.162.513-.594.891-.972.648-.674.648-.7.108-.216-.27.27-.918.945-1.43,1.539-.513.567-.972,1.08-1.053,1.133-.054.054-.378.432-.7.864-.3.4-.782,1-1.026,1.3C12.121,86.376,10.5,88.616,10.5,88.7Zm.351,11.011c.081,0,.108-.027.054-.054a.17.17,0,0,0-.162,0C10.718,99.682,10.771,99.709,10.853,99.709Zm.162,9.149c0-.027-.054-.027-.081-.027a.072.072,0,0,0-.081.081c0,.027.027.054.081.027C10.961,108.912,11.015,108.885,11.015,108.858Zm.135-9.23c.108,0,.135-.027.054-.054a.119.119,0,0,0-.135.027C11.042,99.6,11.1,99.628,11.15,99.628Zm4.48,3.994c-.081-.081-.108-.054-.243.108-.108.135-.351.432-.54.648-.432.458-.458.54-.243.54.081,0,.243-.135.351-.324.135-.162.351-.432.513-.594C15.684,103.757,15.711,103.7,15.63,103.622Zm.405-.378c0-.108-.162-.162-.27-.054-.054.054-.054.081,0,.027.162-.081.135.081,0,.189-.081.054-.108.135-.081.162C15.738,103.676,16.035,103.379,16.035,103.244Zm9.5-17.111c0,.027-.135.3-.243.621a5.643,5.643,0,0,1-.891,1.727c-.081,0-.108.054-.054.081a.256.256,0,0,1-.054.189c-.054.054-.081.108-.054.108a1,1,0,0,1-.189.432,1.291,1.291,0,0,0-.216.54c.027.054.027.081-.027.081a2.072,2.072,0,0,0-.432.756,47.849,47.849,0,0,1-4.183,7.287,1.164,1.164,0,0,0-.243.4q0,.122.081,0c.027-.054.108-.081.135-.054.054.027.081-.027.081-.081-.027-.161.135-.216.189-.081.081.189-.027.513-.189.54a6.98,6.98,0,0,0-.647.809c-.27.432-.594.891-.675,1-.162.216-.162.216-.108.054a2.558,2.558,0,0,1,.161-.4,1.145,1.145,0,0,0,.081-.27c-.054-.054-.432.378-.432.485,0,.054-.054.108-.108.162a1.44,1.44,0,0,0-.378.459,3.613,3.613,0,0,1-.4.594.608.608,0,0,0-.135.27c0,.054.027.027.054-.027.054-.054.108-.081.135-.054.054.054-.054.513-.135.513-.189,0-.378.351-.27.486a2.8,2.8,0,0,0,.62-.81c0-.054.135-.162.243-.216s.189-.135.162-.189a2.984,2.984,0,0,1,.783-1.106c.135-.054.135,0,.027.216-.081.135-.081.162.027.027a.412.412,0,0,0,.162-.27,1.783,1.783,0,0,1,.216-.486,1.69,1.69,0,0,0,.162-.378c0-.108.4-.675.459-.621a19.144,19.144,0,0,0,1.7-2.456c.189-.27.378-.567.432-.648a12.418,12.418,0,0,0,1.161-2.105c.27-.512.674-1.322.944-1.835a42.039,42.039,0,0,0,1.862-4.588A4.028,4.028,0,0,0,25.534,86.133Zm-8.1-5.667a6.966,6.966,0,0,0,.7-.62c.621-.621.432-.486-.323.216C17.519,80.331,17.357,80.52,17.438,80.466Zm.378,20.674a.376.376,0,0,0-.243.189c-.081.108-.108.189-.081.189a.454.454,0,0,0,.243-.189C17.9,101.193,17.9,101.166,17.816,101.139Zm1.322-3.563a.765.765,0,0,0,.27-.27c.108-.162.189-.27.135-.243A2.5,2.5,0,0,0,19.138,97.577Zm.594-.756a5.027,5.027,0,0,0,.324-.486c.108-.162.108-.216.054-.135a5.57,5.57,0,0,0-.351.513C19.678,96.875,19.651,96.929,19.732,96.821Zm.54-.837c.027,0,.081-.108.162-.216.054-.135.108-.243.081-.243s-.108.108-.161.243C20.3,95.876,20.245,95.984,20.272,95.984Zm.324-.513s.081-.108.162-.243c.054-.108.108-.216.081-.216s-.108.108-.162.216C20.6,95.364,20.569,95.471,20.6,95.471Zm.351-.594c.054-.054.081-.108.054-.135,0-.027-.054.027-.081.081C20.865,94.932,20.865,94.959,20.947,94.878Zm.513-.918a2.939,2.939,0,0,0,.324-.675,7.5,7.5,0,0,0-.675,1.242A3.012,3.012,0,0,0,21.459,93.96Zm16.409.809a2.41,2.41,0,0,1-.674,1.106c-.648.756-.918.918-1.592.972a1.257,1.257,0,0,1-.7-.054c-.081-.054-.243-.135-.351-.189a4.745,4.745,0,0,1-1.539-2.159,8.833,8.833,0,0,1-.161-1.241,5.432,5.432,0,0,0-.108-.918c-.054-.054-.108-.054-.3.054-.162.081-.216.135-.189.189s.027.054-.027.027c-.108-.054-.459.27-.351.351.054.027.054.027-.027.027-.108-.027-.62.459-.944.864-.081.108-.162.189-.216.189a.747.747,0,0,0-.351.4.252.252,0,0,1-.135.189.2.2,0,0,0-.135.189c.027.054-.027.162-.081.243a10.491,10.491,0,0,0-.945,1.457c-.27.432-.512.836-.54.918a1.439,1.439,0,0,0-.189.4,9.288,9.288,0,0,1-.836,1.728c-.216.378-.486.836-.567.971-.054.135-.3.54-.486.864-.216.351-.432.756-.513.918-.189.378-.7.971-.864.971a.6.6,0,0,1-.216-.027.222.222,0,0,1-.162-.108.423.423,0,0,0-.216-.135.332.332,0,0,1-.216-.135,1.439,1.439,0,0,0-.216-.378l-.135-.27.135-.62a23.685,23.685,0,0,1,1.565-4.48c.135-.324.351-.864.486-1.187.135-.3.351-.864.513-1.215.162-.378.4-.972.567-1.35a21.021,21.021,0,0,1,.944-1.916c.135-.27.378-.729.54-1.053a2.513,2.513,0,0,1,.4-.675.527.527,0,0,0,.108-.216c0-.027.054-.081.135-.081.7-.135.7-.135.809.027a.394.394,0,0,0,.216.135c.135,0,.135.216,0,.486a.813.813,0,0,0-.081.3,2.78,2.78,0,0,1-.3.594,13.27,13.27,0,0,0-1.106,2.294c-.108.3-.432,1.106-.729,1.808a8.128,8.128,0,0,0-.62,1.646,2.911,2.911,0,0,0,.3-.432c.27-.405.432-.567.324-.27a.581.581,0,0,1-.108.189c-.054.081-.7,1.161-.837,1.43-.243.513-.054.3.486-.62.323-.486.756-1.215,1-1.539a29.1,29.1,0,0,1,2.807-3.428,1.932,1.932,0,0,0,.378-.378,5.649,5.649,0,0,0-.971.756,27.767,27.767,0,0,0-2.214,2.78c-.3.485-.567.756-.432.459A33.261,33.261,0,0,1,30.339,92.8,5,5,0,0,1,31.85,91.45a1.384,1.384,0,0,1,1.322.27.784.784,0,0,0,.189.216,1.9,1.9,0,0,1,.594.944,13.011,13.011,0,0,1,.27,1.4c.189,1.052.351,1.565.54,1.673a1.226,1.226,0,0,0,.459,0c.324-.027.458-.081,1.025-.459a13.18,13.18,0,0,0,1.107-.891C38.03,93.906,38.085,93.933,37.868,94.77ZM24.455,88.347a1.034,1.034,0,0,0,.081-.27v-.162l-.081.162a1.033,1.033,0,0,0-.081.27C24.374,88.427,24.374,88.427,24.455,88.347Zm.324,13.144a.342.342,0,0,0-.108.189.026.026,0,0,0,.027.027,1.506,1.506,0,0,0,.108-.162C24.886,101.409,24.86,101.409,24.779,101.49Zm2.186-5.614c0-.027-.054-.027-.135-.027s-.135.081-.189.216a.47.47,0,0,0-.054.189c.027,0,0,.081-.054.161A6.3,6.3,0,0,0,26.02,97.6c.027.027.054,0,.081-.027.054-.027.054-.027.054.027-.027.054-.081.081-.108.054-.054,0-.081.027-.108.081a8.857,8.857,0,0,1-.351.891c-.351.836-.485,1.242-.378,1.16.027-.027.054,0,.027.054s-.054.081-.108.081c-.027-.027-.054-.027,0,.027.054.081,0,.351-.081.3q-.04,0,0,.081c.027.054,0,.108-.081.108-.054,0-.081.027-.054.108a.608.608,0,0,1-.054.351c-.135.3-.135.351.027.108.054-.108.3-.675.513-1.268s.432-1.106.459-1.161a1.8,1.8,0,0,0,.189-.485c.054-.216.135-.432.189-.432a.389.389,0,0,0,.054-.189.986.986,0,0,1,.135-.351A7.172,7.172,0,0,0,26.965,95.876Zm-.189-.135v.027c.027,0,.054-.081.108-.162.081-.135.081-.135-.027-.054C26.8,95.633,26.749,95.687,26.776,95.742Zm.189-.486a.2.2,0,0,0-.054.108c.027.108.054.081.108-.054C27.019,95.256,27.019,95.229,26.965,95.256Zm34.249-.108c.189.513.054.891-.648,1.781-.243.351-.458.7-.512.81a.915.915,0,0,1-.216.378.5.5,0,0,0-.135.27,16.069,16.069,0,0,1-2.078,2.105,2.242,2.242,0,0,1-.7.432.616.616,0,0,0-.3.081c-.189.135-.783-.135-1.3-.567a6.5,6.5,0,0,1-1.376-2.025,9.179,9.179,0,0,1-.7-3.211c-.108-.945-.189-1.754-.216-1.781a3.355,3.355,0,0,0-.324.189,35.367,35.367,0,0,0-7.287,8.663c-.351.756-.647,1.16-.836,1.16a1.075,1.075,0,0,1-.459-.243,1.226,1.226,0,0,1-.3-.486.329.329,0,0,0-.216-.27c-.432-.081-.4-.972.027-2.267.323-.971,2.159-5.155,2.807-6.423.513-1,.594-1.3.243-1.026-.243.189-.243.027,0-.162.108-.108.135-.162.054-.162s-.054-.054.081-.189c.135-.108-.108-.027-.647.216a4.615,4.615,0,0,1-2.429.675l-.675-.027v.621a3.9,3.9,0,0,1-.108,1.268c-.081.324-.189.756-.216.891a12.2,12.2,0,0,1-1.728,2.969c-.216.3-.324.513-.243.458.378-.135-.675,1.106-1.89,2.348-.594.567-.782.7-1,.7-.135,0-.405.027-.567.027a1.138,1.138,0,0,1-.945-.647,1.121,1.121,0,0,0-.27-.4c-.27-.216-.351-.675-.324-1.728a9.316,9.316,0,0,1,.891-3.805A17.5,17.5,0,0,1,39.7,90.829c.485-.485.567-.54.971-.567a.968.968,0,0,1,.648.135c.108.081.243.135.27.108s.189.162.324.432l.3.486.756.027a4.106,4.106,0,0,0,1.511-.216,15.991,15.991,0,0,0,4.183-2c.378-.27.594-.378.621-.3,0,.081.108.162.189.216a.325.325,0,0,1,.189.27.4.4,0,0,0,.081.27c.027.027.054.081.027.108-.027.054.027.135.135.216a.766.766,0,0,1,.27.4c.081.243.054.3-.189.621a30.479,30.479,0,0,0-1.808,3.184c-.594,1.161-1.646,3.428-1.619,3.454A12.773,12.773,0,0,0,47.8,96.335a17.943,17.943,0,0,1,1.943-2.105,10.017,10.017,0,0,0,1.3-1.268A3.31,3.31,0,0,1,52.5,91.99a1.826,1.826,0,0,1,1.052.486,1.27,1.27,0,0,0,.351.485c.3.27.324.378.432.945.054.35.135,1.268.216,2.051a8.527,8.527,0,0,0,.567,2.942c.162.3.162.324.648.324a1.706,1.706,0,0,0,.944-.243,15.578,15.578,0,0,0,2.753-2.4,6.824,6.824,0,0,1,1.026-1c.027.027.054,0,.027-.054s.081-.216.243-.4l.27-.3-.135.27-.135.3.189-.27.189-.216ZM41.728,92.5c-.324-.162-.324-.162-.621.081a2.617,2.617,0,0,1-1.16.486,6.1,6.1,0,0,0-1.268,1.916,15.694,15.694,0,0,0-1.728,5.4c0,.378.135.378.675.027a13.932,13.932,0,0,0,2.618-3.023c1.3-1.863,1.673-2.672,1.835-3.86C42.159,92.854,42.106,92.692,41.728,92.5Zm32.737,2.672c-.378.512-3.481,3.67-3.994,4.1a22.277,22.277,0,0,1-3.536,2.348c-.432.243-.891.486-1,.54a7.919,7.919,0,0,1-4.022.648.3.3,0,0,0-.27-.081c-.216.135-1.7-1.16-2.078-1.808-.135-.243-.27-.351-.432-.378-.27-.054-.27-.108-.027-.243.162-.054.189-.135.162-.243a5.35,5.35,0,0,1,.54-3.428A18.972,18.972,0,0,1,62.1,92.988c.135-.135.405-.458.648-.729.594-.729,1.133-1.242,1.377-1.268a1.468,1.468,0,0,1,.674.027c.243.054.594.135.783.162a3.368,3.368,0,0,1,1.7,1.026c.782.756,1.026,1.242.944,1.89a3.921,3.921,0,0,1-.756,1.889A10.471,10.471,0,0,1,65.316,98.2a18.937,18.937,0,0,1-4.129,2.375,2.457,2.457,0,0,0-.513.3c0,.3.81.54,1.566.459a11.533,11.533,0,0,0,5.155-1.916,4.417,4.417,0,0,1,.756-.4c.162,0,.567-.324.567-.432a2.628,2.628,0,0,1,.729-.647c.135-.108.162-.108.054.027-.216.27.027.108.729-.459.378-.351.918-.782,1.188-1a22.039,22.039,0,0,0,1.862-1.7c.162-.216.621-.674.972-1.052.378-.378.863-.891,1.08-1.134.863-.944,1.268-1.4,1.322-1.349a2.609,2.609,0,0,1-.513.729c-.459.594-.486.62-.108.216.4-.432.674-.54.4-.162a.561.561,0,0,0-.135.324c0,.108.027.108.108.027.243-.189.108,0-.3.486a5.867,5.867,0,0,0-.62.891,3.631,3.631,0,0,1-.486.756A6.265,6.265,0,0,1,74.465,95.175ZM60.673,99.439c0,.027.081-.027,1.026-.675a14.557,14.557,0,0,0,1.673-1.214,4.722,4.722,0,0,1,.621-.513,21.581,21.581,0,0,0,2.213-2.294,3.691,3.691,0,0,0,.567-1.835c-.054-.351-.162-.459-.62-.594-.648-.162-1.134.162-2.267,1.565a20.748,20.748,0,0,0-2.4,3.59A11.544,11.544,0,0,0,60.673,99.439Zm11.362-2.213c-.432.486-.485.567-.189.27a7.107,7.107,0,0,0,.648-.674C72.9,96.335,72.657,96.524,72.036,97.226Zm28.257-1.242a.967.967,0,0,0-.3.459.285.285,0,0,1-.108.243.086.086,0,0,0-.081.081,6.754,6.754,0,0,1-.756.918,8.576,8.576,0,0,0-.782.918,6.352,6.352,0,0,1-1.377,1.322c-.027-.027-.081.027-.081.081,0,.324-1.89,1.7-3.023,2.186a3.009,3.009,0,0,1-2.591.216c-.324-.135-.756-.513-.783-.729a.777.777,0,0,0-.216-.3,1.773,1.773,0,0,1-.486-1.35,4.365,4.365,0,0,1,.3-1.565c.027-.081.162-.4.27-.729a36.334,36.334,0,0,1,1.484-3.482l.378-.729-.27.189a3.091,3.091,0,0,0-.594.594c-.216.351-.324.459-.54.485-.216.054-.459.243-1.08.864a5.105,5.105,0,0,1-.918.783.123.123,0,0,0-.108.135c0,.162-.3.594-.3.432,0-.027-.081.054-.162.189s-.4.54-.7.918c-.324.378-.971,1.215-1.484,1.889a10.5,10.5,0,0,1-2.024,2.294c-.7.62-.891.675-1.215.486a1.821,1.821,0,0,1-.378-.243.319.319,0,0,0-.162-.135c-.108,0-.162-.3-.081-.351.054-.027.054-.081-.027-.135-.458-.351-.485-1.053-.027-2,.162-.3.3-.567.351-.567.108,0,.108,0-.162.567a2.556,2.556,0,0,0-.3,1.43c.054.081.081.081.081-.027a2.5,2.5,0,0,1,.162-.513.785.785,0,0,0,.135-.54c-.054-.135,0-.27.323-.7.351-.513.432-.729.189-.513-.081.054-.135.054-.135,0a.071.071,0,0,1,.081-.081,1.5,1.5,0,0,0,.243-.324,3.154,3.154,0,0,1,.351-.594,12.047,12.047,0,0,0,.783-1.107,16.53,16.53,0,0,1,1.214-1.673.331.331,0,0,0,.108-.216,3.118,3.118,0,0,1,.432-.7,3.055,3.055,0,0,0,.459-.62A12.514,12.514,0,0,1,87.9,91.882a5,5,0,0,1,.972-.891,1.3,1.3,0,0,0,.513-.3,1.293,1.293,0,0,1,1.349-.378,1.148,1.148,0,0,1,.513.216,1.713,1.713,0,0,0,.378.27,1.844,1.844,0,0,1,.486.648,1.972,1.972,0,0,0,.351.513,1.973,1.973,0,0,1,.27.243.645.645,0,0,0,.3.189c.162,0,.351.513.351.918a4.637,4.637,0,0,1-.27,1.188c-.162.4-.4,1.106-.54,1.511-.135.432-.485,1.323-.756,2.024a8.522,8.522,0,0,0-.809,2.915c0,.432,0,.485.189.512a2.154,2.154,0,0,0,1.349-.27,15.071,15.071,0,0,0,3.86-2.591c.4-.378.674-.54.729-.486.027.054.351-.216.836-.675.54-.54.783-.729.81-.647.054.081-.027.216-.108.3a.578.578,0,0,0-.162.243,4.391,4.391,0,0,0,.513-.432,2.036,2.036,0,0,1,.621-.513c.081-.027.189-.081.216-.162a1,1,0,0,1,.513-.54C100.563,95.687,100.535,95.768,100.293,95.984Zm-9.527-4.345a10.373,10.373,0,0,0-1.4,1.133c-.161.189-.3.189-.216.027.027-.081.027-.108-.054-.081-.054.027-.081.135-.081.189,0,.162-.3.513-1.215,1.511A16.434,16.434,0,0,0,86.582,95.9c-.4.54-.782,1.025-.837,1.106a19.369,19.369,0,0,0-1.565,2.672c0,.134.162-.027.918-.918,1.43-1.727,1.754-2.078,1.781-1.754,0,.054.027.027.054-.054a.2.2,0,0,0,0-.243,3.419,3.419,0,0,1,.7-.918c.675-.729.782-.837.971-.81s.189,0,.108-.108c-.108-.108-.027-.216.647-.891a3.94,3.94,0,0,0,1.107-1.539C90.631,92.017,90.766,91.666,90.766,91.639ZM84.585,96.9c0,.135.081.081.189-.081.054-.081.081-.162.027-.189s-.081,0-.081.081c0,.054-.027.108-.081.108C84.612,96.821,84.585,96.875,84.585,96.9Zm4.183-1.592a18.42,18.42,0,0,0-1.511,1.674c.027,0,.432-.459.944-1,.594-.648.944-1,1.053-1,.081,0,.135-.027.108-.081a.682.682,0,0,1,.135-.3A6.413,6.413,0,0,0,88.768,95.309Zm-.513,1.053c-.027-.108-.054-.135-.135-.054-.081.054-.081.081,0,.189C88.229,96.632,88.31,96.551,88.256,96.362Zm24.56-1.187c-.378.512-3.481,3.67-3.994,4.1a22.251,22.251,0,0,1-3.536,2.348c-.432.243-.89.486-1,.54a7.918,7.918,0,0,1-4.021.648.305.305,0,0,0-.27-.081c-.216.135-1.7-1.16-2.078-1.808-.135-.243-.27-.351-.432-.378-.27-.054-.27-.108-.027-.243.162-.054.189-.135.162-.243a5.358,5.358,0,0,1,.54-3.428,18.973,18.973,0,0,1,2.294-3.644c.135-.135.4-.458.647-.729.594-.729,1.134-1.242,1.377-1.268a1.47,1.47,0,0,1,.675.027c.243.054.594.135.782.162a3.366,3.366,0,0,1,1.7,1.026c.783.756,1.026,1.242.945,1.89a3.928,3.928,0,0,1-.756,1.889,10.483,10.483,0,0,1-2.159,2.213,18.95,18.95,0,0,1-4.129,2.375,2.439,2.439,0,0,0-.513.3c0,.3.809.54,1.565.459a11.533,11.533,0,0,0,5.155-1.916,4.417,4.417,0,0,1,.756-.4c.162,0,.567-.324.567-.432a2.628,2.628,0,0,1,.729-.647c.135-.108.162-.108.054.027-.216.27.027.108.729-.459.378-.351.918-.782,1.187-1a22.131,22.131,0,0,0,1.863-1.7c.162-.216.62-.674.971-1.052.378-.378.864-.891,1.08-1.134.864-.944,1.268-1.4,1.322-1.349a2.6,2.6,0,0,1-.512.729c-.459.594-.486.62-.108.216.4-.432.675-.54.4-.162a.565.565,0,0,0-.135.324c0,.108.027.108.108.027.243-.189.108,0-.3.486a5.909,5.909,0,0,0-.62.891,3.631,3.631,0,0,1-.486.756A6.263,6.263,0,0,1,112.815,95.175ZM99.024,99.439c0,.027.081-.027,1.025-.675a14.528,14.528,0,0,0,1.674-1.214,4.7,4.7,0,0,1,.62-.513,21.47,21.47,0,0,0,2.213-2.294,3.692,3.692,0,0,0,.567-1.835c-.054-.351-.162-.459-.621-.594-.647-.162-1.133.162-2.267,1.565a20.754,20.754,0,0,0-2.4,3.59A11.526,11.526,0,0,0,99.024,99.439Zm11.362-2.213c-.432.486-.486.567-.189.27a7.1,7.1,0,0,0,.647-.674C111.25,96.335,111.007,96.524,110.387,97.226Zm14.169-2.456a2.413,2.413,0,0,1-.675,1.106c-.647.756-.918.918-1.592.972a1.257,1.257,0,0,1-.7-.054c-.081-.054-.243-.135-.351-.189a4.744,4.744,0,0,1-1.538-2.159,8.82,8.82,0,0,1-.162-1.241,5.3,5.3,0,0,0-.108-.918c-.054-.054-.108-.054-.3.054-.162.081-.216.135-.189.189s.027.054-.027.027c-.108-.054-.459.27-.351.351.054.027.054.027-.027.027-.108-.027-.621.459-.945.864-.081.108-.162.189-.216.189a.747.747,0,0,0-.351.4.251.251,0,0,1-.135.189.2.2,0,0,0-.135.189c.027.054-.027.162-.081.243a10.452,10.452,0,0,0-.944,1.457c-.27.432-.513.836-.54.918a1.422,1.422,0,0,0-.189.4,9.291,9.291,0,0,1-.837,1.728c-.216.378-.485.836-.567.971-.054.135-.3.54-.486.864-.216.351-.432.756-.512.918-.189.378-.7.971-.864.971a.594.594,0,0,1-.216-.027.221.221,0,0,1-.162-.108.422.422,0,0,0-.216-.135.334.334,0,0,1-.216-.135,1.422,1.422,0,0,0-.216-.378l-.135-.27.135-.62a23.652,23.652,0,0,1,1.566-4.48c.135-.324.351-.864.485-1.187.135-.3.351-.864.513-1.215.162-.378.405-.972.567-1.35a20.879,20.879,0,0,1,.945-1.916c.135-.27.378-.729.54-1.053a2.483,2.483,0,0,1,.4-.675.534.534,0,0,0,.108-.216c0-.027.054-.081.135-.081.7-.135.7-.135.81.027a.393.393,0,0,0,.216.135c.135,0,.135.216,0,.486a.821.821,0,0,0-.081.3,2.779,2.779,0,0,1-.3.594,13.227,13.227,0,0,0-1.106,2.294c-.108.3-.432,1.106-.729,1.808a8.172,8.172,0,0,0-.621,1.646,2.937,2.937,0,0,0,.3-.432c.27-.405.432-.567.324-.27a.581.581,0,0,1-.108.189c-.054.081-.7,1.161-.837,1.43-.243.513-.054.3.486-.62.324-.486.756-1.215,1-1.539a29.049,29.049,0,0,1,2.807-3.428c.243-.216.405-.378.378-.378a5.671,5.671,0,0,0-.971.756,27.765,27.765,0,0,0-2.213,2.78c-.3.485-.567.756-.432.459a33.518,33.518,0,0,1,2.132-2.834,5,5,0,0,1,1.512-1.349,1.385,1.385,0,0,1,1.322.27.775.775,0,0,0,.189.216,1.9,1.9,0,0,1,.594.944,13.117,13.117,0,0,1,.27,1.4c.189,1.052.351,1.565.54,1.673a1.223,1.223,0,0,0,.458,0c.324-.027.459-.081,1.026-.459a13.074,13.074,0,0,0,1.106-.891C124.717,93.906,124.771,93.933,124.555,94.77Zm-13.09,6.721a.341.341,0,0,0-.108.189.026.026,0,0,0,.027.027,1.626,1.626,0,0,0,.108-.162C111.574,101.409,111.547,101.409,111.466,101.49Zm2.186-5.614c0-.027-.054-.027-.135-.027s-.135.081-.189.216a.466.466,0,0,0-.054.189c.027,0,0,.081-.054.161a6.3,6.3,0,0,0-.513,1.188c.027.027.054,0,.081-.027.054-.027.054-.027.054.027-.027.054-.081.081-.108.054-.054,0-.081.027-.108.081a8.86,8.86,0,0,1-.351.891c-.351.836-.486,1.242-.378,1.16.027-.027.054,0,.027.054s-.054.081-.108.081c-.027-.027-.054-.027,0,.027.054.081,0,.351-.081.3q-.04,0,0,.081c.027.054,0,.108-.081.108-.054,0-.081.027-.054.108a.611.611,0,0,1-.054.351c-.135.3-.135.351.027.108.054-.108.3-.675.513-1.268s.432-1.106.459-1.161a1.776,1.776,0,0,0,.189-.485c.054-.216.135-.432.189-.432a.383.383,0,0,0,.054-.189.983.983,0,0,1,.135-.351A7.126,7.126,0,0,0,113.652,95.876Zm-.189-.135v.027c.027,0,.054-.081.108-.162.081-.135.081-.135-.027-.054C113.49,95.633,113.436,95.687,113.463,95.742Zm.189-.486a.2.2,0,0,0-.054.108c.027.108.054.081.108-.054C113.706,95.256,113.706,95.229,113.652,95.256Zm14.169,7.368a6.689,6.689,0,0,1-2.294,1.322h-.4a2.688,2.688,0,0,1-2.186-1.133,2.363,2.363,0,0,1-.351-.513,26.458,26.458,0,0,1,.54-2.968c.054-.189.135-.54.216-.756.054-.216.189-.62.27-.863.108-.27.3-.783.432-1.161a9.934,9.934,0,0,1,.459-1.106c.108-.216.378-.782.594-1.242a14.888,14.888,0,0,1,1.242-2.321c.351-.485.4-.54.647-.567.216-.027.351.027.783.324l.513.324.027.324a1.769,1.769,0,0,1-.162.62c-.108.189-.27.54-.4.782a7.908,7.908,0,0,1-.432.837c-.108.216-.351.648-.513.971-.189.351-.4.729-.485.891s-.243.486-.351.729-.243.54-.3.621a16.788,16.788,0,0,0-1.242,3.724c-.054.243-.108.378-.162.378a.123.123,0,0,0-.135.108c0,.054.027.054.081.027.135-.081.189.135.081.27a1.043,1.043,0,0,0,0,.432l.027.324.351-.081a6.081,6.081,0,0,0,2.1-1.376,39.623,39.623,0,0,0,6.45-7.584,3.1,3.1,0,0,1,.54-.756c.054,0,.162-.162.27-.351s.189-.324.216-.3c.081.054-.324.81-.459.837-.054,0-.081.054-.054.081.054.027-.108.351-.324.675-.216.378-.4.675-.4.7.027.054.081-.027.135-.135.081-.108.161-.27.216-.324.027-.054.189-.3.324-.54.323-.54.432-.675.485-.54a.238.238,0,0,1-.054.216,3.562,3.562,0,0,0-.486.7c-.324.513-1.025,1.592-1.322,2a.573.573,0,0,0-.108.27c-.027.135,0,.108.162-.054a13.724,13.724,0,0,0,1.457-2.132c-.054-.054-.027-.054.027-.054.081.054.27-.3.189-.378-.027-.027,0-.135.081-.216l.108-.189.027.27c0,.432-.243.944-1.97,3.643a16.567,16.567,0,0,1-1.916,2.537,9.5,9.5,0,0,1-1.215,1.322.168.168,0,0,0-.108.162A8.778,8.778,0,0,1,127.821,102.624Zm.486-15.114A18.919,18.919,0,0,1,130.79,84.3c.674-.62.809-.647,1.052-.108.135.27.162.378.108.485a.951.951,0,0,0-.081.324,1.952,1.952,0,0,1-.378.675,14.123,14.123,0,0,0-1.322,2.105c-.513,1-.782,1.349-.918,1.187a.935.935,0,0,0-.324-.027.506.506,0,0,1-.458-.216,1.07,1.07,0,0,1-.216-.324c-.027-.027-.081-.108-.135-.162C127.983,88.158,128.01,88.1,128.307,87.51Zm20.322,8.475a.961.961,0,0,0-.3.459.285.285,0,0,1-.108.243.086.086,0,0,0-.081.081,6.753,6.753,0,0,1-.756.918,8.579,8.579,0,0,0-.782.918,6.352,6.352,0,0,1-1.377,1.322c-.027-.027-.081.027-.081.081,0,.324-1.89,1.7-3.023,2.186a3.009,3.009,0,0,1-2.591.216c-.324-.135-.756-.513-.783-.729a.777.777,0,0,0-.216-.3,1.775,1.775,0,0,1-.486-1.35,4.365,4.365,0,0,1,.3-1.565c.027-.081.162-.4.27-.729a36.331,36.331,0,0,1,1.484-3.482l.378-.729-.27.189a3.107,3.107,0,0,0-.594.594c-.216.351-.324.459-.54.485-.216.054-.459.243-1.08.864a5.106,5.106,0,0,1-.918.783.123.123,0,0,0-.108.135c0,.162-.3.594-.3.432,0-.027-.081.054-.162.189s-.4.54-.7.918c-.324.378-.971,1.215-1.484,1.889A10.5,10.5,0,0,1,132.3,102.3c-.7.62-.891.675-1.215.486a1.821,1.821,0,0,1-.378-.243.319.319,0,0,0-.162-.135c-.108,0-.162-.3-.081-.351.054-.027.054-.081-.027-.135-.458-.351-.485-1.053-.027-2,.162-.3.3-.567.351-.567.108,0,.108,0-.162.567a2.549,2.549,0,0,0-.3,1.43c.054.081.081.081.081-.027a2.5,2.5,0,0,1,.162-.513.785.785,0,0,0,.135-.54c-.054-.135,0-.27.323-.7.351-.513.432-.729.189-.513-.081.054-.135.054-.135,0a.071.071,0,0,1,.081-.081,1.518,1.518,0,0,0,.243-.324,3.122,3.122,0,0,1,.35-.594,12.046,12.046,0,0,0,.783-1.107,16.421,16.421,0,0,1,1.215-1.673.333.333,0,0,0,.108-.216,3.107,3.107,0,0,1,.432-.7,3.066,3.066,0,0,0,.458-.62,12.512,12.512,0,0,1,1.511-1.863,5,5,0,0,1,.972-.891,1.3,1.3,0,0,0,.513-.3,1.293,1.293,0,0,1,1.349-.378,1.147,1.147,0,0,1,.513.216,1.714,1.714,0,0,0,.378.27,1.844,1.844,0,0,1,.486.648,1.987,1.987,0,0,0,.351.513,1.974,1.974,0,0,1,.27.243.645.645,0,0,0,.3.189c.162,0,.351.513.351.918a4.637,4.637,0,0,1-.27,1.188c-.162.4-.4,1.106-.54,1.511-.135.432-.485,1.323-.756,2.024a8.521,8.521,0,0,0-.809,2.915c0,.432,0,.485.189.512a2.153,2.153,0,0,0,1.349-.27,15.062,15.062,0,0,0,3.86-2.591c.4-.378.674-.54.729-.486.027.054.351-.216.836-.675.54-.54.783-.729.81-.647.054.081-.027.216-.108.3a.578.578,0,0,0-.162.243,4.389,4.389,0,0,0,.513-.432,2.029,2.029,0,0,1,.621-.513c.081-.027.189-.081.216-.162a1,1,0,0,1,.513-.54C148.9,95.687,148.872,95.768,148.629,95.984Zm-17.03.971c0,.054.081.081.189.081a.865.865,0,0,0,.162-.054c-.027,0-.108-.054-.216-.081S131.6,96.9,131.6,96.956Zm7.5-5.317a10.338,10.338,0,0,0-1.4,1.133c-.162.189-.3.189-.216.027.027-.081.027-.108-.054-.081-.054.027-.081.135-.081.189,0,.162-.3.513-1.215,1.511a16.429,16.429,0,0,0-1.215,1.485c-.4.54-.782,1.025-.837,1.106a19.369,19.369,0,0,0-1.565,2.672c0,.134.162-.027.918-.918,1.43-1.727,1.754-2.078,1.781-1.754,0,.054.027.027.054-.054a.2.2,0,0,0,0-.243,3.418,3.418,0,0,1,.7-.918c.675-.729.782-.837.971-.81s.189,0,.108-.108c-.108-.108-.027-.216.648-.891a3.944,3.944,0,0,0,1.106-1.539C138.967,92.017,139.1,91.666,139.1,91.639Zm-6.18,5.263c0,.135.081.081.189-.081.054-.081.081-.162.027-.189s-.081,0-.081.081c0,.054-.027.108-.081.108C132.949,96.821,132.922,96.875,132.922,96.9Zm4.183-1.592a18.526,18.526,0,0,0-1.511,1.674c.027,0,.432-.459.944-1,.594-.648.944-1,1.053-1,.081,0,.135-.027.108-.081a.679.679,0,0,1,.135-.3A6.411,6.411,0,0,0,137.1,95.309Zm-.513,1.053c-.027-.108-.054-.135-.135-.054-.081.054-.081.081,0,.189C136.565,96.632,136.646,96.551,136.592,96.362Zm23.993,1.322c-.3.324-.432.135-.162-.3l.189-.324-.243.216a7.3,7.3,0,0,0-.756,1.053,66.029,66.029,0,0,1-4.507,5.614,2.6,2.6,0,0,0-.594.648.748.748,0,0,1-.162.324c-.054.081-.081.161-.054.161a8.3,8.3,0,0,0,1.161-.971c.674-.7,1.538-1.728,1.97-2.267a23.34,23.34,0,0,1,2.537-3.158,5.413,5.413,0,0,1-.513.891c-.3.4-.675.971-.864,1.3a43.215,43.215,0,0,1-3.023,3.805c-.62.648-1.916,1.863-2.51,2.375a11.031,11.031,0,0,1-2.456,1.592c-.135.054-.378.135-.54.216a3.461,3.461,0,0,1-1.026.162,1.9,1.9,0,0,1-1.268-.216,4.127,4.127,0,0,1-2.24-2.24,8.853,8.853,0,0,0-.351-.837,6.607,6.607,0,0,1-.189-3.508,40.557,40.557,0,0,1,2.51-8.043c.135-.324.27-.62.27-.648a47.468,47.468,0,0,1,2.888-5.559c.3-.486.594-1.053.7-1.242.324-.621,6.235-9.77,10.363-11.821a1.4,1.4,0,0,1,1.647.432c.512.782.54.89.485,1.349a7.864,7.864,0,0,1-.863,2.321c-.864,1.862-3.482,6.693-4.291,7.962-.054.054-.378.62-.756,1.215s-.918,1.484-1.241,1.943l-1.08,1.619a73.619,73.619,0,0,1-5.911,7.556,3.614,3.614,0,0,1-2.294,1.215c-.243-.054-.243-.054-.458.648-.108.378-.3,1.242-.432,1.889-.324,1.97-.216,3.131.4,4.022a.8.8,0,0,0,.621.432c.243.027.54.054.7.054a7.807,7.807,0,0,0,3.05-1.4A29.951,29.951,0,0,0,155.538,102a7.56,7.56,0,0,1,1.268-1.349c.162-.027.486-.351.756-.729a4.6,4.6,0,0,1,.7-.782,28.565,28.565,0,0,0,2.429-3.1,7.456,7.456,0,0,1,.54-.756c.216-.189.243.081.054.4-.189.27-.189.351-.027.27C161.638,95.768,161.125,97.118,160.585,97.684Zm-14.817,4.264c-.027-.081-.081.054-.135.3a2.5,2.5,0,0,0-.108.594c0,.081.054-.081.135-.324C145.714,102.273,145.768,102,145.768,101.949Zm.4-1.835a.717.717,0,0,0-.081.27c0,.054-.081.351-.162.648-.162.513-.216.837-.135.729.027-.027.135-.458.27-.944S146.227,100.005,146.173,100.114Zm.324-2.105c.027.108.4-.674.513-.971a6.61,6.61,0,0,1,.3-.864c.135-.324.323-.809.459-1.08.108-.3.27-.7.351-.891a5.209,5.209,0,0,0,.351-.782c.108-.216.4-.864.7-1.457.27-.54.567-1.134.621-1.3.054-.135.324-.621.567-1.053a7.717,7.717,0,0,0,.486-.864,1.121,1.121,0,0,1,.189-.324.893.893,0,0,0,.243-.351c-.027-.081.243-.432.323-.432.054,0,.135-.081.189-.162.081-.135.081-.135-.054-.027-.108.108-.108.108-.108,0,0-.081.027-.189.081-.216a4.924,4.924,0,0,0,.324-.486,11.63,11.63,0,0,1,.945-1.377,9.378,9.378,0,0,0,.729-1.025,1.092,1.092,0,0,1,.189-.324c.081-.162.135-.3.135-.3-.054,0-1.377,1.89-2.105,3a56.639,56.639,0,0,0-4.183,7.962C147.279,95.768,146.5,97.874,146.5,98.008Zm1.188-2.1c.3-.756.485-1.323.459-1.268-.081.081-1.08,2.591-1.106,2.807C146.983,97.712,147.226,97.091,147.685,95.9Zm6.774-10.526c-.378.459-1.646,2.375-2.186,3.292-1.106,1.943-2.105,3.833-2.159,4.049a13.1,13.1,0,0,1-1.026,2.4c-.243.594-1.322,3.4-1.4,3.752-.054.216-.027.216.378-.135a36.915,36.915,0,0,0,4.8-5.721c.7-.945,1.4-1.916,1.592-2.159.162-.216.513-.7.756-1.08a11.214,11.214,0,0,1,.864-1.242,24.274,24.274,0,0,0,2.051-3.185c1.16-1.916,2.024-3.454,2.915-5.182.944-1.862,1.025-2.051.971-2.132-.027-.027,0-.108.054-.162a2.953,2.953,0,0,0,.486-1.377l.081-.567-.27.189a3.769,3.769,0,0,0-.486.378c-.135.135-.459.432-.729.675a34.548,34.548,0,0,0-2.833,2.942C157.751,80.79,154.567,85.27,154.459,85.378Zm-6.18,8.987c.027-.081.027-.108-.027-.081a.183.183,0,0,0-.081.135C148.2,94.554,148.251,94.527,148.278,94.365Zm.081-.27a1.861,1.861,0,0,0,.243-.432c.081-.216.108-.3.027-.189A2.111,2.111,0,0,0,148.359,94.1Zm.675-1.4a1.02,1.02,0,0,0,.135-.216c.081-.162.081-.162-.027-.054-.081.081-.135.162-.108.216Zm.944-1.863.108-.243-.162.162a.616.616,0,0,0-.135.27C149.789,91.126,149.844,91.072,149.978,90.829Zm.162-.3c.054,0,.162-.216.3-.459.108-.243.189-.432.135-.4C150.464,89.75,150.06,90.533,150.14,90.533Zm.675-1.106a3.2,3.2,0,0,1,.351-.621c.135-.243.243-.432.189-.432s-.081.027-.081.054a2.054,2.054,0,0,1-.243.4,1.413,1.413,0,0,0-.27.54C150.707,89.561,150.707,89.561,150.815,89.426Zm.7-1.3c.027-.081,0-.108-.027-.081a.362.362,0,0,0-.081.135C151.436,88.32,151.463,88.292,151.517,88.13Zm.4-.863a1.013,1.013,0,0,0,.135-.216c.108-.161.081-.161-.027-.054a.393.393,0,0,0-.135.216C151.922,87.267,151.922,87.294,151.922,87.267Zm2.321-2.4a.458.458,0,0,0,.162-.189c0-.108-.054-.081-.189.135C154.081,85,154.081,85,154.243,84.865Zm5.856-1.187c-.081.054-.243.4-.189.4.027,0,.108-.108.162-.243S160.153,83.623,160.1,83.678Zm26.071,5.938c.486,1.242-.243,3.266-2.321,6.5a44.372,44.372,0,0,1-6.18,6.99,9.607,9.607,0,0,1-3.67,2.078,3.529,3.529,0,0,1-2.294-.378l-.432-.27-.323.594c-.351.675-1.43,3.05-1.836,4.021-.135.351-.323.864-.459,1.133a16.5,16.5,0,0,0-1.133,4.885h-.486c-.378-.027-.513-.054-.594-.161a.9.9,0,0,0-.351-.243c-.135-.054-.3-.162-.324-.27a2.709,2.709,0,0,0-.27-.432c-.216-.351-.161-.729.216-2.186.4-1.566,2.267-7.449,2.726-8.555.108-.243.378-.972.62-1.592a7.143,7.143,0,0,1,.621-1.3,1.121,1.121,0,0,0,.243-.54c.054-.216.162-.567.243-.783s.351-.863.594-1.43a34.042,34.042,0,0,1,1.646-3.643,1.355,1.355,0,0,0,.189-.459,3.007,3.007,0,0,1,.27-.567c.135-.243.54-.972.864-1.619.351-.621.7-1.3.81-1.457a3.306,3.306,0,0,0,.35-.756,2.555,2.555,0,0,1,.27-.594,13.27,13.27,0,0,0,.918-1.754.828.828,0,0,1,1.026-.594,1.262,1.262,0,0,1,.567.135,1.048,1.048,0,0,0,.351.3c.3.189.324.243.3.594a1.891,1.891,0,0,1-.243.647,39.424,39.424,0,0,0-3.239,5.668c-.729,1.538-2.213,4.993-2.186,5.047a4.018,4.018,0,0,0,.594-.81,18.565,18.565,0,0,1,1.566-2.078,9.841,9.841,0,0,0,.918-1.106c.4-.513,1.08-1.35,1.512-1.836a9.073,9.073,0,0,0,.809-1.025,1.624,1.624,0,0,1,.4-.432c.216-.162.864-.729,1.4-1.242a8.388,8.388,0,0,1,2.726-1.835,1.923,1.923,0,0,1,1.3-.162,2.6,2.6,0,0,1,.972.243.882.882,0,0,0,.4.189C185.522,88.562,185.981,89.1,186.17,89.615Zm-15.843,11.254a43.044,43.044,0,0,0,1.566-4.129,13.118,13.118,0,0,0-1.242,2.7,12.884,12.884,0,0,1-.648,1.673c-.135.324-.512,1.43-.891,2.483s-.729,2-.782,2.078a7.221,7.221,0,0,0-.3.864c-.108.378-.243.756-.27.863-.054.108-.054.189-.027.216a5.433,5.433,0,0,0,.4-.864,12.224,12.224,0,0,1,.567-1.242,2.458,2.458,0,0,0,.3-.891,5.99,5.99,0,0,1,.351-1.215,12.927,12.927,0,0,0,.809-2.1A1.733,1.733,0,0,1,170.327,100.869Zm-.647,2.375c-.027-.027-.054,0-.054.108,0,.081,0,.108.054.054A.17.17,0,0,0,169.68,103.244Zm1.646-.485c.216-.351.756-1.242,1.214-2a44.572,44.572,0,0,1,9.338-11.335c.756-.621,1.106-.864,1.35-.891,1.053-.189,1.025-.189.594-.189-.918-.027-2.186.647-3.887,2.024a10.235,10.235,0,0,0-1.052.944c-.027.054-.351.459-.729.891a14.23,14.23,0,0,0-1.781,2.132c.054,0,.108,0,.108.027.054.081-.27.594-.378.62-.162.027-.162,0,.027-.323.3-.432.027-.189-.378.351-.189.27-.351.54-.324.594.027.027-.108.189-.3.351-.3.243-.324.3-.324.62,0,.216-.054.324-.081.3-.054-.027-.081-.108-.081-.216.027-.108.027-.108-.081,0a.29.29,0,0,0-.054.243c.027.054-.054.108-.135.162-.108.027-.216.216-.27.378a3.318,3.318,0,0,1-.4.837,2.727,2.727,0,0,0-.324.647c0,.189-.27.351-.3.189,0-.054-.108.027-.216.162-.081.162-.162.324-.108.351,0,.027.027,0,.054-.054,0-.054.027-.108.081-.108.162.027.081.243-.161.432-.135.108-.216.216-.216.27a1.572,1.572,0,0,1-.323.621c-.189.323-.54.891-.756,1.322a5.578,5.578,0,0,1-.458.837.294.294,0,0,0-.054.27C170.948,103.325,171.056,103.244,171.326,102.759ZM184.686,89.4a.961.961,0,0,0-.162-.459,2.448,2.448,0,0,0-.756.189,6.424,6.424,0,0,0-1.835,1.188,36.491,36.491,0,0,0-7.719,9.257c-.783,1.215-1.566,2.483-1.728,2.78-.756,1.35-.918,1.619-.918,1.619a3.8,3.8,0,0,0,1.053-.054,11.575,11.575,0,0,0,3.536-2.051,2.3,2.3,0,0,1,.783-.459c.135.027.189-.027.189-.162a.241.241,0,0,1,.189-.27,8.121,8.121,0,0,0,1.646-1.3l.27-.243-.189.243c-.108.134-.135.216-.081.189a7.927,7.927,0,0,0,1.268-1.458,2.016,2.016,0,0,1,.594-.782,23.907,23.907,0,0,0,2.888-4.21,7.454,7.454,0,0,1,.567-1.457A7.113,7.113,0,0,0,184.686,89.4Zm-12.253,4.966a.611.611,0,0,0,.108-.243c0-.027-.027-.054-.081-.027a.3.3,0,0,0-.108.243C172.351,94.527,172.351,94.527,172.433,94.365Zm4.048,8.2c-.3.216-.567.432-.62.485-.027,0-.3.216-.594.432-.567.4-.864.512-.756.243.054-.081.027-.108-.027-.081s-.081.161-.081.27c.027.162-.027.243-.243.324-.3.108-.378.108-.3,0,.054-.054.027-.081-.027-.081-.027-.027-.081.054-.081.162s.027.189.054.189.3-.135.647-.3a9.586,9.586,0,0,0,2.132-1.457,1.954,1.954,0,0,1,.243-.378C176.994,102.219,176.886,102.246,176.481,102.57Zm25.748,0a3.883,3.883,0,0,1-2.105,1.4l-.7.189-.54-.189a2.637,2.637,0,0,1-1.808-1.7,3.256,3.256,0,0,1-.351-1.566,9.01,9.01,0,0,1,.243-3.212c.054-.3.135-.729.162-1s.108-.782.189-1.161c.162-.809.162-.891-.027-1-.108-.054-.189-.027-.513.243a36.88,36.88,0,0,0-2.942,3.671c-.324.459-.809,1.106-1.053,1.43a6.43,6.43,0,0,0-.674.971c-.135.216-.432.729-.729,1.188-.432.756-.729,1.268-1.727,3.022a8.6,8.6,0,0,0-.486.891c-.054.135-.216.486-.378.81a26.941,26.941,0,0,0-1.43,3.346c.054.216,0,.324-.324.756-.4.513-.512.621-.729.594a1.723,1.723,0,0,1-.756-.405.516.516,0,0,1-.135-.323c-.027-.162-.054-.216-.161-.162-.108.027-.135-.054-.216-.54a10.537,10.537,0,0,1,.729-3.725c.216-.756.459-1.619.567-1.943a47.344,47.344,0,0,1,2.807-7.26,5.525,5.525,0,0,0,.3-.647c.135-.27.351-.756.485-1.08a4.075,4.075,0,0,0,.27-.648.748.748,0,0,1,.162-.351c.081-.135.351-.675.567-1.188.243-.512.648-1.322.891-1.781.27-.486.594-1.107.729-1.377.243-.54,2.618-5.02,3.536-6.666.27-.54.594-1.133.674-1.35a4.5,4.5,0,0,1,.3-.62,7.349,7.349,0,0,0,.458-.782c.027-.054-.027-.054-.161-.027-.162.054,0-.216.863-1.269a15.077,15.077,0,0,0,1.08-1.4c0-.081.135-.216.7-.594.459-.323,1.215-.161,1.268.27,0,.054.081.135.135.189.135.054.135.108.081.4-.081.432-.108.486-.62,1.053a18.487,18.487,0,0,0-2.132,3,10.272,10.272,0,0,1-.891,1.242,2.87,2.87,0,0,0-.324.512c-.161.3-.4.7-.54.918a1.665,1.665,0,0,0-.243.54c.027.081-.027.162-.054.162-.054,0-.108.108-.135.243s-.081.216-.108.216c-.081-.054-.567.782-.54.918a.086.086,0,0,1-.081.081.23.23,0,0,0-.054.162c.027.081-.081.27-.189.405a1.1,1.1,0,0,0-.189.323.14.14,0,0,1-.054.108c-.054,0-.135.162-.189.378a6.937,6.937,0,0,1-.513.971,4.512,4.512,0,0,0-.378.756c-.027.054-.216.432-.432.809-.189.378-.432.837-.513,1.053-.081.189-.243.54-.351.756a1.328,1.328,0,0,0-.189.513,6.806,6.806,0,0,1-.432,1c-.243.512-.7,1.538-1,2.267-.324.756-.756,1.835-.971,2.375-.243.567-.621,1.566-.864,2.24s-.54,1.484-.648,1.781c-.27.674-.27.782-.027.27.108-.216.216-.378.27-.351s.351-.4.351-.486c-.027-.027.027-.135.108-.216.054-.081.189-.27.27-.378a2.359,2.359,0,0,0,.3-.486c.081-.135.3-.512.513-.836a1.808,1.808,0,0,0,.351-.675c-.054-.054-.027-.081,0-.054.054.027.216-.135.351-.351.432-.648.594-.864.891-1.242.162-.189.3-.432.27-.486,0-.081.027-.108.054-.054s.189-.108.4-.4.324-.54.27-.567-.054-.054,0-.108a.179.179,0,0,1,.162-.027c.081.054.647-.7.567-.783-.027-.054,0-.054.054-.054s.108-.081.108-.162c0-.135.054-.189.108-.162.108.027.243-.135.7-.809a6.08,6.08,0,0,1,1.3-1.215c.54-.324,1.754-.324,1.781,0,0,.081.27.324.486.4a.3.3,0,0,1,.189.3,3.071,3.071,0,0,0,.162.567,9.749,9.749,0,0,1-.081,2.888c-.54,3.266-.567,3.887-.323,4.939a1.884,1.884,0,0,0,.27.7,1.959,1.959,0,0,0,.675-.027c.971-.162,1.619-.647,2.915-2.132.27-.324.54-.567.567-.54.054.027.054.081.027.161a1.264,1.264,0,0,0,.108.864C203.173,101.355,202.876,101.841,202.228,102.57Zm-14.439.782c.27-.621.485-1.215.512-1.322a5.494,5.494,0,0,1,.324-.945c.621-1.727.837-2.294.918-2.456.081-.189.189-.486.3-.81.054-.135.162-.4.27-.62.378-.837,1-2.267,1.161-2.726a14.022,14.022,0,0,1,.647-1.323,13.6,13.6,0,0,0,1.323-3.022.083.083,0,0,0-.054.027c-.108.189-.675,1.43-.675,1.457a6.7,6.7,0,0,1-.4.809,23.159,23.159,0,0,0-1.43,3.077,4.382,4.382,0,0,1-.243.54c-.135.3-.4.945-.62,1.457a6.311,6.311,0,0,1-.459,1c-.108.081-.081-.135.054-.54.108-.324.135-.4.027-.432-.108,0-.135-.108-.027-.189a.093.093,0,0,1,.135.027c.054.054.108-.027.216-.216.108-.243.108-.323.027-.4s-.054-.081.054-.108c.135,0,.324-.324.324-.621a1.206,1.206,0,0,1,.162-.351,1.3,1.3,0,0,0,.216-.432,1.3,1.3,0,0,1,.162-.351c.108-.135.108-.189.027-.243-.108-.054-.135-.054-.162.081,0,.135-.054.162-.135.135s-.162.027-.189.135c-.081.162-.081.189.027.081.081-.081.135-.081.162-.027.054.054.054.081,0,.054-.081-.054-.3.432-.27.648,0,.108,0,.108-.108,0-.108-.135-.135-.108-.216.108s-.081.243,0,.243c.108.027.108.054.054.162-.054.081-.081.081-.108.027-.054-.135-.216.081-.3.4-.027.162-.027.189.054.162.054-.027.108-.027.108.027.027.108-.162.27-.27.243-.135,0-.863,1.835-2.051,5.263-.54,1.539-1.619,5.1-1.592,5.29,0,.054.054.054.108.027.027-.027.054-.027.054.054a.178.178,0,0,1-.135.108c-.054,0-.162.243-.216.62-.162.783-.135,1.106.054.594.054-.108.162-.513.27-.891a3.472,3.472,0,0,1,.27-.783c.135-.189.3-.729.189-.7-.027,0-.081-.108-.081-.243-.027-.162,0-.216.054-.189s.081.027.027-.027a1.373,1.373,0,0,1,.216-.891c.162-.135.162-.081.027.216-.216.378-.216.54,0,.189.081-.162.3-.7.486-1.215.161-.512.485-1.457.756-2.1a12.833,12.833,0,0,0,.432-1.3,2.973,2.973,0,0,1,.243-.729c.189-.486.189-.567.054-.378-.135.216-.162.216-.162.108a.489.489,0,0,1,.081-.324.435.435,0,0,0,.027-.324c-.027-.081-.027-.189.027-.216.027-.027.081,0,.081.054,0,.081.054.108.108.054.054-.027.054.027.054.189-.027.108-.027.162,0,.108.027-.108.162-.135.189-.027,0,.027-.216.675-.486,1.377-.27.729-.485,1.322-.485,1.349s-.162.513-.351,1.08c-.216.567-.405,1.134-.459,1.3-.027.162-.162.567-.27.944s-.189.675-.189.7c.027,0,.081-.108.135-.27C187.249,104.783,187.411,104.351,187.789,103.352ZM186.6,106.7c-.027.135-.081.324-.108.432,0,.162,0,.162.054-.027a1.606,1.606,0,0,0,.108-.459C186.682,106.51,186.682,106.51,186.6,106.7Zm.782-3.454c0,.108-.027.216-.108.243a.1.1,0,0,0-.054.135.291.291,0,0,1-.054.243c-.081.162-.081.162-.081-.135a.775.775,0,0,1,.135-.459l.135-.189Zm.054,2.051c-.027-.027-.054,0-.081.054a.836.836,0,0,0-.054.216c0,.027.027,0,.081-.054A.845.845,0,0,0,187.438,105.3Zm.594-3.805c-.081.27-.243.378-.27.161,0-.054.027-.108.054-.108.054,0,.081-.054.081-.108a.223.223,0,0,1,.081-.216C188.113,101.085,188.113,101.139,188.032,101.49Zm.3,1.025a10.288,10.288,0,0,0-.54,1.619c0,.054.432-1.106.54-1.484C188.356,102.542,188.356,102.489,188.329,102.515Zm.27-.594c.027-.108.081-.243.081-.27,0-.054-.054,0-.108.108a.825.825,0,0,0-.081.3C188.49,102.084,188.545,102.03,188.6,101.922Zm.944-2.672c-.108.162-.729,1.781-.836,2.105-.108.432.054.108.378-.729C189.543,99.439,189.678,99.034,189.543,99.25Zm-.54-.782c0-.378.054-.432.162-.189a.333.333,0,0,1-.054.324C189.03,98.737,189,98.71,189,98.467Zm3.94-6.91a6.006,6.006,0,0,0-.486,1.026.539.539,0,0,1-.081.216c-.054.108-.189.3-.3.486-.108.162-.216.351-.189.4a.411.411,0,0,1-.108.216,3.116,3.116,0,0,0-.324.674,3.5,3.5,0,0,1-.3.675,6.8,6.8,0,0,0-.27.648c-.108.3-.3.7-.378.944-.216.458-.756,1.781-.756,1.835.027.108.108-.054.405-.782.189-.459.513-1.215.729-1.7.243-.485.485-1,.54-1.133.054-.108.216-.432.378-.7.135-.243.324-.648.432-.891.081-.243.216-.594.3-.782A7.586,7.586,0,0,0,192.944,91.558Zm-2.267,2.753c.081.162.081.162.189-.027.054-.108.108-.189.081-.216s-.081.027-.135.081c-.054.081-.108.081-.108.027a.343.343,0,0,1,.108-.189,4.329,4.329,0,0,0,.432-.837,6.228,6.228,0,0,1,.458-.944c.108-.135.162-.27.108-.324-.027-.054-.027-.054.027-.027s.108-.027.162-.135c.081-.216-.081-.27-.189-.027a.668.668,0,0,0-.108.3.946.946,0,0,1-.134.216,1.9,1.9,0,0,0-.27.54c-.108.216-.27.648-.432.918A1.172,1.172,0,0,0,190.677,94.311ZM192,91.4c.081.135.108.108.351-.351.243-.486.27-.54.135-.513-.054,0-.108.081-.162.216a1.961,1.961,0,0,1-.135.324.359.359,0,0,0-.081.216c0,.081-.027.108-.081.081S191.946,91.342,192,91.4Zm.135,2.078c-.054.135-.108.243-.135.243s0-.108.054-.216c.054-.135.108-.27.135-.27S192.188,93.339,192.134,93.474Zm1.268-2.807c-.054-.027-.324.485-.3.594,0,.054.081-.054.162-.243C193.376,90.857,193.43,90.695,193.4,90.668Zm-.108-.648c0,.135.135-.054.378-.486.432-.864.54-1.133.486-1.16-.027-.054-.081-.027-.081.027-.027.027-.189.4-.4.809A6.486,6.486,0,0,0,193.295,90.02Zm.782-.7-.189.243a1.223,1.223,0,0,0-.162.351c.027.054,0,.108-.054.108-.027,0-.081.081-.081.162-.027.135-.027.162.054.054a2.277,2.277,0,0,0,.243-.513Zm.108-1.08c.027.189.243-.162.7-1.053.971-1.916.971-1.943.864-1.916a2.451,2.451,0,0,0-.351.54c-.162.323-.486.971-.756,1.457A6.876,6.876,0,0,0,194.185,88.238Zm32.279-6.207c-.4.054-1.08.081-1.484.108-.7.027-1.323.054-1.754.081-.216.378-.4.729-.621,1.106-2.024,3.832-2.294,4.4-2.942,5.911-.432,1.052-1.106,2.51-1.4,3.077a81.3,81.3,0,0,0-3.7,10.445c-.162.674-.4,1.538-.54,1.943a27.985,27.985,0,0,0-1.08,8.232,3.029,3.029,0,0,0,.351,1.4,2.892,2.892,0,0,0,.567-.324,2.779,2.779,0,0,1,.594-.3c.189.027.513,1.242.351,1.377a.767.767,0,0,0-.135.3c-.027.216-.594.459-1,.378a1.331,1.331,0,0,1-.594-.216,4.162,4.162,0,0,1-.567-.378.927.927,0,0,0-.378-.216,3.153,3.153,0,0,1-.512-.62c-.756-1.08-.891-2.753-.513-6.019a40.647,40.647,0,0,1,1.4-6.666A88.635,88.635,0,0,1,218.34,86.4c-3.023,3.346-5.587,5.533-8.286,5.8a.847.847,0,0,0-.486.108,1.683,1.683,0,0,0,.189.485,4.662,4.662,0,0,1,.486,2.025,11.316,11.316,0,0,1-.675,3.077,19.419,19.419,0,0,1-3.563,4.912,3.905,3.905,0,0,1-1.484.918c-.756.135-1.242-.162-1.754-1a6.177,6.177,0,0,1-.756-4.264,20.073,20.073,0,0,1,2.213-5.668c1.052-1.916,1.052-1.916,1.268-1.97a1.63,1.63,0,0,0,.378-.189c.162-.108.216-.108.351-.027a.29.29,0,0,0,.243.054.067.067,0,0,1,.108.027,1.249,1.249,0,0,0,.27.243c.216.108.378.135,1.053.081.432-.027.971-.108,1.187-.135,2.025-.351,5.911-1.4,11.012-8.394h-.027c0-.054-3.94.324-4.129.4-.054.027-.027.027-4.615.432-3.805.351-6.046.594-7.827.809-.756.081-2.78.162-3.022.135a.716.716,0,0,1-.486-.513c0-.054-.027-.108-.081-.108-.135.027-.108-.432,0-.54a.409.409,0,0,0,.108-.216c.054-.135.054-.135.729-.135.648,0,.675,0,.918-.135a1.049,1.049,0,0,1,1.215.081c.108.108.162.108.513.081.216,0,1.16-.081,2.078-.162.945-.054,1.836-.135,2.025-.135.216-.027.323-.027.323.027,0,.027-.108.054-.216.054a2.094,2.094,0,0,0-.4.054,30.471,30.471,0,0,0,4.372-.3c.432-.027,1.835-.162,3.1-.243l3.482-.3c.647-.054,1.376-.108,1.565-.135a6.65,6.65,0,0,0,.756-.054l.27-.027c.108-.162.216-.324.351-.513.81-1.457,2.105-3.752,2.348-4.1a2.24,2.24,0,0,0,.351-.648.7.7,0,0,1,.756-.513c.324.027,1.026.432,1,.567,0,.054.081.108.216.108.432.054.675.971.324,1.242a.427.427,0,0,0-.162.243,5.861,5.861,0,0,1-1.026,1.592,16.809,16.809,0,0,0-1.16,1.808c1.727-.135,3.778-.3,4.561-.351.918-.081,1.97-.108,4.238-.108a17.105,17.105,0,0,1,3.508.108,3.474,3.474,0,0,1,1.349.54.482.482,0,0,1,.081.3.41.41,0,0,0,.108.27c.108.054.135.27.054.567a2.052,2.052,0,0,1-.891.648.605.605,0,0,0-.3.027,6.9,6.9,0,0,1-1.673.243c-.054,0-.27-.027-.54-.027a1.728,1.728,0,0,1-.54-.054.378.378,0,0,0-.243-.081c-.189,0-.162-.081.054-.135a7.746,7.746,0,0,0,1.566-.459,3.1,3.1,0,0,1,1.106-.432c.3-.081.351-.135.216-.162a48.222,48.222,0,0,0-5.074-.378C230.809,81.869,227.544,81.977,226.464,82.031ZM208.678,92.395a1.841,1.841,0,0,0-.567-.162c-.27-.027-.594-.054-.729-.081-.189-.054-.216-.027-.27.135-.054.108-.351.7-.675,1.3-1.7,3.022-2.807,6.072-2.807,7.665,0,.944.189,1.026,1,.513a9.934,9.934,0,0,0,2.537-2.753,8.956,8.956,0,0,0,1.943-4.345A3.539,3.539,0,0,0,208.678,92.395ZM215.7,82.3c0-.027-.027-.027-.081-.027a.942.942,0,0,1-.351.054c-.567.027-2.375.189-3.347.3-.54.054-1.4.135-1.889.162-.486.054-.891.108-.918.108a8.69,8.69,0,0,0,1.754-.108c.486-.054,1.377-.108,1.97-.162s1.4-.135,1.808-.162C215.588,82.382,215.7,82.355,215.7,82.3Zm-6.4,13.333c-.027-.054-.027,0-.027.108s0,.108.027.054C209.326,95.715,209.326,95.66,209.3,95.633Zm11.2-11.524a3.966,3.966,0,0,1-.432.513A19.037,19.037,0,0,0,218.314,88c-.027.108-.081.189-.108.189-.054,0-.081.054-.081.135a7.808,7.808,0,0,1-.945,2.051,7.723,7.723,0,0,0-.323.7,2.939,2.939,0,0,1-.216.432,59.211,59.211,0,0,0-2.4,6.153,11.683,11.683,0,0,1-.782,1.97,9.362,9.362,0,0,0-.567,1.674c-.54,1.862-.567,2.051-.432,2.078.081,0-.027.351-.162.432a3.052,3.052,0,0,0-.3.918,2.3,2.3,0,0,0-.135,1.08c.108.3.108.323-.027.3a15.723,15.723,0,0,0-.486,4.1,7.311,7.311,0,0,1,.027,1.106c-.027,1.16.108.567.4-1.808.189-1.457.405-2.726.567-3.428.161-.594.351-1.377.4-1.7a8.723,8.723,0,0,1,.351-1.242c.108-.378.324-1.053.432-1.485.135-.432.324-1.106.459-1.511.108-.4.27-.891.3-1.053a5.675,5.675,0,0,1,.216-.62,18.373,18.373,0,0,0,.7-2.078c.027-.135,1.215-3.212,2-5.1.485-1.215,2.348-5.182,3.077-6.586C220.715,83.92,220.769,83.758,220.5,84.109Zm-8.232,25.639c-.054-.189-.081,0-.135.7-.054,1.053-.054,1.619.027,1.539a4.53,4.53,0,0,0,.054-.918,5.561,5.561,0,0,1,.054-.972A.75.75,0,0,0,212.268,109.748Zm.135-1.565c-.027-.054-.054.027-.054.134,0,.135,0,.135.054.054A.229.229,0,0,0,212.4,108.183Zm4.615-15.654c-.432,1.053-.485,1.268-.378,1.349.081.081.081.108-.054.108-.108-.027-.27.27-.594,1.133-.7,1.781-1.3,3.536-1.728,5.047-.108.4-.378,1.323-.594,2.052s-.486,1.727-.621,2.213c-.081.486-.27,1.242-.35,1.646-.108.4-.189,1-.243,1.322-.108.945.108.324.378-1.025.162-.945.243-1.215.405-1.323.135-.108.161-.135.027-.3-.108-.162-.081-.216.081-.459a1.817,1.817,0,0,0,.189-.62c.054-.3.189-.756.756-2.537.081-.216.108-.432.054-.459-.027,0-.027-.108,0-.243.027-.081.108-.162.162-.108.108.054.27-.459.459-1.377a2.153,2.153,0,0,1,.162-.54,5.128,5.128,0,0,0,.378-.971,14.152,14.152,0,0,1,.81-2.186,3.94,3.94,0,0,0,.243-.675,1.178,1.178,0,0,1,.162-.485,2.09,2.09,0,0,0,.189-.594c.081-.351.162-.513.216-.485.054.054.081.027.054-.081a1.494,1.494,0,0,1,.405-.971,1.057,1.057,0,0,0,.189-.648c.027-.3.108-.567.135-.54.054,0,.135-.108.189-.243.054-.162.108-.27.162-.27a4.187,4.187,0,0,0,.405-1.106C218.718,88.724,217.8,90.613,217.018,92.53ZM216.073,82.3a.058.058,0,0,0-.054-.054c-.054,0-.081.027-.081.054s.027.054.081.054A.058.058,0,0,0,216.073,82.3Zm.4-.054c0-.027-.027-.054-.081-.054a.207.207,0,0,0-.108.054c-.027.027,0,.054.054.054C216.424,82.3,216.478,82.274,216.478,82.247Zm.918-.081c-.081,0-.162,0-.162.027q0,.121.243,0C217.557,82.166,217.557,82.166,217.4,82.166Zm2-.108a10.457,10.457,0,0,0-1.781.135h.351c.216-.027.62-.054.891-.081A2.788,2.788,0,0,0,219.393,82.058Zm5.8,11.416c0,.027.135.324.27.675a4.948,4.948,0,0,1,.323,2.375,3.03,3.03,0,0,1-.35,1.43,7.715,7.715,0,0,1-1.836,2.483,4.053,4.053,0,0,1-1.889,1.053c-.351.081-.729.216-.837.243a1.408,1.408,0,0,1-1-.027c-.405-.108-1.08-.756-1.053-1.026a1.149,1.149,0,0,0-.243-.378,5.335,5.335,0,0,1-.216-3.832,12.05,12.05,0,0,1,3.1-4.588l.512-.459-.189-.27c-.108-.135-.162-.3-.135-.324.054-.108.512-.027.783.135.216.135.3.162.486.081a1.1,1.1,0,0,1,.918.081c.27.135.836.756.809.918,0,.243,1.619.351,3.536.189a26.377,26.377,0,0,0,3.616-.513h.54c.027,0,.162.027.189.027a.245.245,0,0,1,.135.027.094.094,0,0,1,.054.027.083.083,0,0,1,.054.027h.027l.054.054c-.081,0-.135.027-.189.027-.27.054-.486.108-.459.135a2.854,2.854,0,0,0,.7-.108,134.2,134.2,0,0,0,.054.054c0,.027.027.108.054.108a1.154,1.154,0,0,0,.027.135c-.027-.054,0,.081,0,.108v.189a1.206,1.206,0,0,1-.027.135l-.027.027c0,.027-.027.054-.027.081-.027.027-.027.027-.027.054h-.027c0,.027-.027.054-.054.081h-.027v.027a24.556,24.556,0,0,1-7.072.594A1.8,1.8,0,0,0,225.2,93.474Zm-.756.108c-.189-.324-.243-.351-.486-.351a.6.6,0,0,1-.324-.081c-.027-.054-.108-.081-.189-.108a.271.271,0,0,1-.216-.378c0-.054,0-.108-.054-.081a8.8,8.8,0,0,0-1.242,1.215,1.831,1.831,0,0,1-.3.378,15.458,15.458,0,0,0-1.835,3.1,5.352,5.352,0,0,0-.4,2.888c.054.216.081.216.54.216a3.181,3.181,0,0,0,1.322-.351,5.942,5.942,0,0,0,2.214-1.673C224.737,96.929,225.168,94.851,224.439,93.582Zm25.208,3.239a3.679,3.679,0,0,0-1.808.323c-2.105.783-5.668,2.672-5.8,3.1-.054.108-.189.594-.324,1.08a63.96,63.96,0,0,1-4.562,11.794,28.521,28.521,0,0,1-5.181,7.314c-.729.729-2.753,2.483-3.454,3a23.888,23.888,0,0,1-2,1.35c-2.024,1.16-3.131,1.43-4.1.944a2.686,2.686,0,0,0-.567-.216c-.378-.027-1.161-1.323-1.134-1.835a2.427,2.427,0,0,0-.162-.7c-.108-.324-.162-.54-.108-.594s.054-.135,0-.243a5.215,5.215,0,0,1,.513-2.267c.243-.594.351-.863.4-.756.054.054.054.027.054-.108-.027-.108-.027-.189,0-.162a5.853,5.853,0,0,0,.648-1.053,49.08,49.08,0,0,1,8.852-10.742,72.469,72.469,0,0,1,9.419-7.584c.486-.323.486-.351.621-.918a18.351,18.351,0,0,0,.27-6.45l-.054-.378-.405.7c-.216.405-.54.918-.674,1.161a5.281,5.281,0,0,1-.486.7c-.432.458-3.643,4.588-4.021,5.155-.378.594-.405.7-.243.594.324-.189-.432.783-1.4,1.728a3.11,3.11,0,0,1-1.89,1.188c-.54.081-.809.027-.891-.216-.027-.081-.108-.108-.243-.108-.486.081-1.053-1.4-.972-2.618a14.665,14.665,0,0,1,1.7-4.831,30.9,30.9,0,0,1,3.05-4.238,4.647,4.647,0,0,1,1.97-1.484c.162-.027.458-.081.7-.108.378-.054.458-.027.944.216.809.459,1.187.756,1.376,1.188l.162.378.432-.486c.3-.378.4-.458.432-.323s.108.054.459-.3c.216-.27.432-.432.485-.4.027.054-.027.162-.108.243-.135.135-.135.189-.054.189.27.027.567.27.567.486-.027.135.027.189.135.189.189.027.3.4.432,1.511a17.832,17.832,0,0,1,.054,4.777c-.054.432-.108.782-.108.782s.351-.162.783-.351a2.788,2.788,0,0,1,.864-.351,5.055,5.055,0,0,0,1.457-.567,8.8,8.8,0,0,1,3.508-.756c.486.081,1.08.4,1,.54a.556.556,0,0,0,.189.216C250.754,96.767,250.51,96.848,249.647,96.821Zm-9.527,4.318a.231.231,0,0,0-.162.189,5.5,5.5,0,0,1-.729.647c-.567.459-.729.513-.783.4s-.081-.081-.054.027-.027.216-.189.3a2.017,2.017,0,0,0-.324.243c-.054.054-.674.567-1.376,1.106-.7.567-1.4,1.133-1.566,1.3-.135.135-1.053.971-2.051,1.835a73.661,73.661,0,0,0-5.236,5.236,9.954,9.954,0,0,1-.81.864c-.081.081-.3.351-.513.62-.189.27-.621.783-.918,1.161s-.62.809-.756.971a24.293,24.293,0,0,0-2.537,4.858,8.635,8.635,0,0,0-.486,2.645c.027.513.162.594.918.647.7.027.837.162.378.3-.162.027-.216.081-.135.081a5.191,5.191,0,0,0,1.4-.432c.27-.189.432-.135.216.081a2.336,2.336,0,0,1-1.106.594c-.324.081-.378.108-.216.135a3.761,3.761,0,0,0,.864-.162,9.143,9.143,0,0,0,2.294-1.053c.513-.3.944-.54.944-.54a11.117,11.117,0,0,0,1.08-.756,25.218,25.218,0,0,0,2.213-1.89c1.134-1.133.918-.971-.594.432-1.484,1.349-3.859,2.915-3.616,2.4.027-.081.081-.135.135-.135a16.677,16.677,0,0,0,2.051-1.322,39.852,39.852,0,0,0,3.482-3.32,13.382,13.382,0,0,0,1.322-1.619c-.216.216-.621.675-.891,1a11.7,11.7,0,0,1-1.754,1.781c-.054-.027-.027-.081.027-.162a.158.158,0,0,0,.081-.189,3.056,3.056,0,0,0-.648.567c-.675.675-1.106,1-1.16.918a9.929,9.929,0,0,1,1.215-1.3,20.3,20.3,0,0,0,3.157-3.67,47.462,47.462,0,0,0,4.021-7.341,48.928,48.928,0,0,0,2.132-5.074c.081-.3.27-.864.4-1.268C240.336,100.977,240.309,101.031,240.12,101.139Zm.54-1.566c-.081-.081-.891.458-1.053.675a.325.325,0,0,1-.27.189,16.872,16.872,0,0,0-3,2.186c-.162.162-.27.243-.216.189.054-.108.027-.108-.027-.081a.247.247,0,0,0-.081.135c.054.108-.162.3-.3.243a.277.277,0,0,0-.216.189c-.081.081-.135.161-.162.135-.054-.081-.512.3-.512.459s-.27.351-.459.351c-.081,0-.135.027-.135.054a27.356,27.356,0,0,1-3.832,3.481c-.027-.054-.027-.027,0,0,.081.135-.135.432-.243.378a7.859,7.859,0,0,0-1.619,1.565c-.108.135-.54.648-1,1.133a29.062,29.062,0,0,0-3.212,4.022c.027.054-.054.243-.189.432a1.481,1.481,0,0,0-.243.432c0,.081.027.054.458-.594.324-.432.783-1.025,2-2.483.243-.3.594-.675.783-.864s.809-.837,1.349-1.43c1.512-1.646,4.562-4.534,6.748-6.4.918-.756,2.564-2.024,3.535-2.726.621-.432,1.3-.918,1.539-1.08C240.687,99.871,240.822,99.682,240.66,99.574ZM229.271,81.383a4.753,4.753,0,0,0-1.376,0c-.378.027-.891.054-1.188.081-.729.027-.782.054-.864.108-.027,0,.054.027.189,0,.162-.027.243,0,.216.027s.054.027.243.027c.27,0,.27,0,.054-.027-.189-.027-.216-.027-.081-.054a1.791,1.791,0,0,1,.513.027,1.729,1.729,0,0,0,.863-.027,7.364,7.364,0,0,1,1.3-.135C229.217,81.437,229.271,81.41,229.271,81.383Zm-3.158,43.02c-.027,0-.054.054-.081.135s-.027.135.027.135c.027,0,.081-.054.081-.135S226.139,124.4,226.113,124.4Zm.567-.243a.233.233,0,0,0-.162.081c-.027.054,0,.108.027.108a.192.192,0,0,0,.161-.081C226.734,124.215,226.706,124.161,226.679,124.161Zm.648-.324a.617.617,0,0,0-.27.135c-.081.054-.135.135-.081.135a.443.443,0,0,0,.243-.135C227.327,123.918,227.354,123.864,227.327,123.837Zm1.4-1c-.243.162-.459.324-.486.351-.027,0-.216.135-.432.27a1.27,1.27,0,0,0-.378.3c0,.054.189-.027.432-.189.216-.162.54-.4.729-.513a1.989,1.989,0,0,0,.432-.351C229.109,122.622,228.973,122.676,228.731,122.838ZM230,121.786c-.027-.027-.216.108-.432.324s-.351.378-.323.4a1.951,1.951,0,0,0,.458-.351A1.189,1.189,0,0,0,230,121.786Zm1.053-40.429a5.649,5.649,0,0,0,1.026-.054c.081-.027-2.294-.027-2.51.027-.189.027-.162.027.081.054a1.935,1.935,0,0,0,.35.027C230.027,81.383,230.512,81.383,231.052,81.356Zm-.216,39.7a3.168,3.168,0,0,0-.729.62c0,.108.3-.108.621-.4C230.89,121.084,230.944,120.976,230.836,121.057Zm.891-.918c-.378.351-.4.378-.3.378.027.027.216-.108.351-.3C232.185,119.788,232.131,119.762,231.726,120.139Zm.027-27.96a1.059,1.059,0,0,0,.35-.108c.081-.054-.485.054-.567.108C231.484,92.206,231.592,92.206,231.754,92.179Zm.378,26.719.216-.27-.3.243c-.27.27-.324.3-.216.3A1.011,1.011,0,0,0,232.131,118.9Zm5.883-25.1c.432-.432.459-.567.378-1.592a5.742,5.742,0,0,0-.162-1c-.135-.189-2.213,2.078-3.481,3.805a23.854,23.854,0,0,0-2.834,5.263c-.081.243-.081.243.108.135a12.006,12.006,0,0,0,.944-.918c.378-.432.918-1.025,1.215-1.3.27-.27.756-.809,1.08-1.214s.675-.837.809-.972a13.128,13.128,0,0,0,1-1.106C237.5,94.392,237.907,93.906,238.015,93.8Zm-4.777,24.1c-.054.054-.405.459-.756.89-.648.81-.324.513.512-.432C233.372,117.926,233.481,117.71,233.238,117.9Zm-.891-36.6a1.077,1.077,0,0,0,.405.054c.189-.027.351,0,.351.027s.054.054.135.054c.108,0,.108-.027.027-.054s-.081-.027,0-.054c.054-.027-.135-.054-.432-.054A3.26,3.26,0,0,0,232.347,81.3Zm.62,37.217c-.027,0-.081.054-.108.135s0,.135.027.135c.054,0,.081-.054.108-.135A.328.328,0,0,0,232.968,118.52Zm1.323-1.619c-.135.081-.135-.135,0-.3.054-.054.054-.054-.027,0-.054.054-.27.324-.459.567-.243.323-.3.459-.243.512.161.081.161.081.108-.027a.23.23,0,0,1,.081-.243c.081-.081.108-.108.161-.027.027.081.054.081.108-.027s.027-.135-.027-.081c-.054.027-.081,0-.054-.081a.178.178,0,0,1,.135-.108c.054.027.135-.027.216-.108Q234.412,116.82,234.291,116.9Zm-.351-35.49a.871.871,0,0,1,.432.027.886.886,0,0,0,.378.054,10.523,10.523,0,0,1,1.727.189c.3.081.432.081.189-.027a9.168,9.168,0,0,0-2.888-.351C233.4,81.356,233.535,81.437,233.94,81.41Zm.054,34.735a.3.3,0,0,0,.081-.162c-.027-.027-.081.027-.135.108C233.885,116.2,233.912,116.226,233.993,116.145Zm1.943-2.159c-.027-.027-.135.108-.243.3-.108.216-.432.729-.7,1.161s-.512.837-.512.864.027,0,.081-.054a.279.279,0,0,1,.189-.135c.081,0,.108-.054.108-.162a.123.123,0,0,1,.108-.135c.054.027.081-.027.108-.108a.69.69,0,0,1,.189-.323.817.817,0,0,0,.216-.432.274.274,0,0,1,.162-.243.31.31,0,0,0,.135-.243.513.513,0,0,1,.108-.324C235.964,114.094,235.964,114.013,235.937,113.986Zm-.81.378c.054-.027.081-.108.054-.135s-.081,0-.108.108C235.019,114.444,235.019,114.472,235.127,114.364Zm1.106-.729c0-.027-.027-.027-.081-.054a.121.121,0,0,0-.081.108c0,.054.027.081.081.027A.086.086,0,0,0,236.233,113.635Zm.27-1.511c0-.054-.027-.054-.081.027a.531.531,0,0,0-.108.216c0,.054.027.027.081-.027A.765.765,0,0,0,236.5,112.124Zm.918-8.96c.027,0,.081-.054.162-.135a1.354,1.354,0,0,0,.081-.135.321.321,0,0,0-.162.135C237.421,103.082,237.394,103.163,237.421,103.163Zm.4,7.233a2.848,2.848,0,0,0-.324.7c0,.108.081-.054.216-.351C237.8,110.558,237.853,110.4,237.826,110.4Zm.513-1.026c-.054-.054-.351.648-.351.756,0,.027.081-.108.189-.323A1.8,1.8,0,0,0,238.339,109.371Zm.432-15.519a3.013,3.013,0,0,0-.729.918,2.962,2.962,0,0,0,.459-.54C238.743,93.933,238.852,93.744,238.77,93.852Zm-.135,1.242c-.027,0-.081.054-.162.135-.054.054-.081.108-.054.108s.081-.054.135-.108C238.636,95.147,238.663,95.094,238.636,95.094Zm.378,12.712c0-.054-.081.054-.162.27-.3.729-.3.783-.054.3A1.506,1.506,0,0,0,239.014,107.806Zm.3-.648c-.027-.054-.081.054-.135.216-.135.324-.081.378.054.054C239.31,107.293,239.338,107.158,239.31,107.158Zm5.236-9.824c-.161.054-.189.135-.054.135.027,0,.081-.054.135-.081C244.654,97.334,244.627,97.307,244.546,97.334Zm.81-.324c0-.054-.513.162-.594.243s.108.027.323-.081C245.248,97.118,245.356,97.037,245.356,97.01Zm4.426-.81a4.377,4.377,0,0,0-2.186-.027,14.891,14.891,0,0,0-2.024.729c-.054.054.081.027.27-.027.162-.081.729-.27,1.241-.432a3.836,3.836,0,0,1,1.836-.216C249.539,96.281,249.836,96.254,249.782,96.2Zm11.309-1.43a2.413,2.413,0,0,1-.675,1.106c-.648.756-.918.918-1.592.972a1.257,1.257,0,0,1-.7-.054c-.081-.054-.243-.135-.351-.189a4.744,4.744,0,0,1-1.538-2.159,8.815,8.815,0,0,1-.162-1.241,5.368,5.368,0,0,0-.108-.918c-.054-.054-.108-.054-.3.054-.162.081-.216.135-.189.189s.027.054-.027.027c-.108-.054-.458.27-.35.351.054.027.054.027-.027.027-.108-.027-.62.459-.944.864-.081.108-.162.189-.216.189a.747.747,0,0,0-.351.4.251.251,0,0,1-.135.189.2.2,0,0,0-.135.189c.027.054-.027.162-.081.243a10.452,10.452,0,0,0-.944,1.457c-.27.432-.513.836-.54.918a1.423,1.423,0,0,0-.189.4,9.325,9.325,0,0,1-.837,1.728c-.216.378-.486.836-.567.971-.054.135-.3.54-.486.864-.216.351-.432.756-.513.918-.189.378-.7.971-.863.971a.6.6,0,0,1-.216-.027.221.221,0,0,1-.161-.108.425.425,0,0,0-.216-.135.334.334,0,0,1-.216-.135,1.422,1.422,0,0,0-.216-.378l-.135-.27.135-.62a23.652,23.652,0,0,1,1.566-4.48c.135-.324.351-.864.485-1.187.135-.3.351-.864.513-1.215.162-.378.4-.972.567-1.35a20.871,20.871,0,0,1,.945-1.916c.135-.27.378-.729.54-1.053a2.483,2.483,0,0,1,.4-.675.531.531,0,0,0,.108-.216c0-.027.054-.081.135-.081.7-.135.7-.135.81.027a.393.393,0,0,0,.216.135c.135,0,.135.216,0,.486a.824.824,0,0,0-.081.3,2.767,2.767,0,0,1-.3.594,13.227,13.227,0,0,0-1.106,2.294c-.108.3-.432,1.106-.729,1.808a8.176,8.176,0,0,0-.621,1.646,2.933,2.933,0,0,0,.3-.432c.27-.405.432-.567.324-.27a.592.592,0,0,1-.108.189c-.054.081-.7,1.161-.837,1.43-.243.513-.054.3.486-.62.324-.486.756-1.215,1-1.539a29.048,29.048,0,0,1,2.807-3.428,1.932,1.932,0,0,0,.378-.378,5.672,5.672,0,0,0-.971.756,27.684,27.684,0,0,0-2.213,2.78c-.3.485-.567.756-.432.459A33.382,33.382,0,0,1,253.56,92.8a5,5,0,0,1,1.511-1.349,1.386,1.386,0,0,1,1.323.27.766.766,0,0,0,.189.216,1.9,1.9,0,0,1,.594.944,13.116,13.116,0,0,1,.27,1.4c.189,1.052.351,1.565.54,1.673a1.223,1.223,0,0,0,.458,0c.324-.027.459-.081,1.026-.459a13.171,13.171,0,0,0,1.107-.891C261.252,93.906,261.306,93.933,261.09,94.77ZM248,101.49a.341.341,0,0,0-.108.189.026.026,0,0,0,.027.027,1.631,1.631,0,0,0,.108-.162C248.109,101.409,248.082,101.409,248,101.49Zm2.186-5.614c0-.027-.054-.027-.135-.027s-.135.081-.189.216a.466.466,0,0,0-.054.189c.027,0,0,.081-.054.161a6.3,6.3,0,0,0-.513,1.188c.027.027.054,0,.081-.027.054-.027.054-.027.054.027-.027.054-.081.081-.108.054-.054,0-.081.027-.108.081a9.012,9.012,0,0,1-.351.891c-.351.836-.486,1.242-.378,1.16.027-.027.054,0,.027.054s-.054.081-.108.081c-.027-.027-.054-.027,0,.027.054.081,0,.351-.081.3q-.04,0,0,.081c.027.054,0,.108-.081.108-.054,0-.081.027-.054.108a.612.612,0,0,1-.054.351c-.135.3-.135.351.027.108.054-.108.3-.675.513-1.268s.432-1.106.459-1.161a1.8,1.8,0,0,0,.189-.485c.054-.216.135-.432.189-.432a.389.389,0,0,0,.054-.189.983.983,0,0,1,.135-.351A7.174,7.174,0,0,0,250.186,95.876ZM250,95.742v.027c.027,0,.054-.081.108-.162.081-.135.081-.135-.027-.054C250.024,95.633,249.971,95.687,250,95.742Zm.189-.486a.2.2,0,0,0-.054.108c.027.108.054.081.108-.054C250.241,95.256,250.241,95.229,250.186,95.256Zm26.207.729a.963.963,0,0,0-.3.459.283.283,0,0,1-.108.243.086.086,0,0,0-.081.081,6.8,6.8,0,0,1-.756.918,8.542,8.542,0,0,0-.783.918,6.363,6.363,0,0,1-1.376,1.322c-.027-.027-.081.027-.081.081,0,.324-1.889,1.7-3.022,2.186a3.01,3.01,0,0,1-2.591.216c-.324-.135-.756-.513-.782-.729a.784.784,0,0,0-.216-.3,1.773,1.773,0,0,1-.486-1.35,4.366,4.366,0,0,1,.3-1.565c.027-.081.162-.4.27-.729a36.331,36.331,0,0,1,1.484-3.482l.378-.729-.27.189a3.091,3.091,0,0,0-.594.594c-.216.351-.324.459-.54.485-.216.054-.459.243-1.08.864a5.125,5.125,0,0,1-.918.783.123.123,0,0,0-.108.135c0,.162-.3.594-.3.432,0-.027-.081.054-.161.189s-.405.54-.7.918c-.324.378-.972,1.215-1.485,1.889a10.464,10.464,0,0,1-2.024,2.294c-.7.62-.891.675-1.215.486a1.854,1.854,0,0,1-.378-.243.315.315,0,0,0-.162-.135c-.108,0-.161-.3-.081-.351.054-.027.054-.081-.027-.135-.459-.351-.486-1.053-.027-2,.162-.3.3-.567.351-.567.108,0,.108,0-.162.567a2.546,2.546,0,0,0-.3,1.43c.054.081.081.081.081-.027a2.52,2.52,0,0,1,.161-.513.785.785,0,0,0,.135-.54c-.054-.135,0-.27.324-.7.351-.513.432-.729.189-.513-.081.054-.135.054-.135,0a.072.072,0,0,1,.081-.081,1.525,1.525,0,0,0,.243-.324,3.121,3.121,0,0,1,.351-.594,12.16,12.16,0,0,0,.783-1.107,16.509,16.509,0,0,1,1.215-1.673.334.334,0,0,0,.108-.216,3.117,3.117,0,0,1,.432-.7,3.055,3.055,0,0,0,.459-.62A12.429,12.429,0,0,1,264,91.882a5.021,5.021,0,0,1,.971-.891,1.3,1.3,0,0,0,.513-.3,1.3,1.3,0,0,1,1.35-.378,1.151,1.151,0,0,1,.513.216,1.712,1.712,0,0,0,.378.27,1.837,1.837,0,0,1,.485.648,2,2,0,0,0,.351.513,1.972,1.972,0,0,1,.27.243.642.642,0,0,0,.3.189c.162,0,.351.513.351.918a4.63,4.63,0,0,1-.27,1.188c-.162.4-.4,1.106-.54,1.511-.135.432-.486,1.323-.756,2.024a8.526,8.526,0,0,0-.81,2.915c0,.432,0,.485.189.512a2.155,2.155,0,0,0,1.35-.27,15.06,15.06,0,0,0,3.859-2.591c.4-.378.675-.54.729-.486.027.054.351-.216.837-.675.54-.54.782-.729.809-.647.054.081-.027.216-.108.3a.572.572,0,0,0-.162.243,4.446,4.446,0,0,0,.513-.432,2.035,2.035,0,0,1,.62-.513c.081-.027.189-.081.216-.162a1.009,1.009,0,0,1,.513-.54C276.663,95.687,276.636,95.768,276.393,95.984Zm-9.527-4.345a10.338,10.338,0,0,0-1.4,1.133c-.162.189-.3.189-.216.027.027-.081.027-.108-.054-.081-.054.027-.081.135-.081.189,0,.162-.3.513-1.215,1.511a16.533,16.533,0,0,0-1.214,1.485c-.405.54-.783,1.025-.837,1.106a19.378,19.378,0,0,0-1.565,2.672c0,.134.162-.027.918-.918,1.43-1.727,1.754-2.078,1.781-1.754,0,.054.027.027.054-.054a.2.2,0,0,0,0-.243,3.4,3.4,0,0,1,.7-.918c.674-.729.783-.837.971-.81s.189,0,.108-.108c-.108-.108-.027-.216.647-.891a3.938,3.938,0,0,0,1.106-1.539C266.731,92.017,266.866,91.666,266.866,91.639Zm-6.18,5.263c0,.135.081.081.189-.081.054-.081.081-.162.027-.189s-.081,0-.081.081c0,.054-.027.108-.081.108C260.712,96.821,260.685,96.875,260.685,96.9Zm4.183-1.592a18.476,18.476,0,0,0-1.512,1.674c.027,0,.432-.459.945-1,.594-.648.944-1,1.053-1,.081,0,.135-.027.108-.081a.674.674,0,0,1,.135-.3A6.331,6.331,0,0,0,264.869,95.309Zm-.513,1.053c-.027-.108-.054-.135-.135-.054-.081.054-.081.081,0,.189C264.329,96.632,264.41,96.551,264.356,96.362Zm25.073-6.747c.485,1.242-.243,3.266-2.321,6.5a44.372,44.372,0,0,1-6.18,6.99,9.6,9.6,0,0,1-3.671,2.078,3.528,3.528,0,0,1-2.294-.378l-.432-.27-.324.594c-.351.675-1.43,3.05-1.835,4.021-.135.351-.324.864-.459,1.133a16.476,16.476,0,0,0-1.134,4.885h-.485c-.378-.027-.513-.054-.594-.161a.888.888,0,0,0-.351-.243c-.135-.054-.3-.162-.323-.27a2.749,2.749,0,0,0-.27-.432c-.216-.351-.162-.729.216-2.186.405-1.566,2.267-7.449,2.726-8.555.108-.243.378-.972.621-1.592a7.159,7.159,0,0,1,.62-1.3,1.12,1.12,0,0,0,.243-.54c.054-.216.162-.567.243-.783s.351-.863.594-1.43a34.16,34.16,0,0,1,1.646-3.643,1.342,1.342,0,0,0,.189-.459,2.985,2.985,0,0,1,.27-.567c.135-.243.54-.972.864-1.619.351-.621.7-1.3.809-1.457a3.284,3.284,0,0,0,.351-.756,2.531,2.531,0,0,1,.27-.594,13.4,13.4,0,0,0,.918-1.754.827.827,0,0,1,1.025-.594,1.266,1.266,0,0,1,.567.135,1.041,1.041,0,0,0,.351.3c.3.189.323.243.3.594a1.891,1.891,0,0,1-.243.647,39.369,39.369,0,0,0-3.239,5.668c-.729,1.538-2.213,4.993-2.186,5.047a4.044,4.044,0,0,0,.594-.81,18.493,18.493,0,0,1,1.565-2.078,9.908,9.908,0,0,0,.918-1.106c.4-.513,1.08-1.35,1.511-1.836a9.036,9.036,0,0,0,.81-1.025,1.624,1.624,0,0,1,.4-.432c.216-.162.864-.729,1.4-1.242a8.382,8.382,0,0,1,2.726-1.835,1.923,1.923,0,0,1,1.3-.162,2.6,2.6,0,0,1,.971.243.884.884,0,0,0,.405.189C288.78,88.562,289.24,89.1,289.428,89.615Zm-15.843,11.254a43.2,43.2,0,0,0,1.566-4.129,13.118,13.118,0,0,0-1.242,2.7,13.07,13.07,0,0,1-.648,1.673c-.135.324-.513,1.43-.891,2.483s-.729,2-.783,2.078a7.112,7.112,0,0,0-.3.864c-.108.378-.243.756-.27.863-.054.108-.054.189-.027.216a5.43,5.43,0,0,0,.4-.864,12.1,12.1,0,0,1,.567-1.242,2.468,2.468,0,0,0,.3-.891,6.025,6.025,0,0,1,.35-1.215,12.9,12.9,0,0,0,.81-2.1A1.712,1.712,0,0,1,273.586,100.869Zm-.648,2.375c-.027-.027-.054,0-.054.108,0,.081,0,.108.054.054A.17.17,0,0,0,272.938,103.244Zm1.646-.485c.216-.351.756-1.242,1.215-2a44.574,44.574,0,0,1,9.338-11.335c.756-.621,1.106-.864,1.349-.891,1.053-.189,1.026-.189.594-.189-.918-.027-2.186.647-3.887,2.024a10.276,10.276,0,0,0-1.053.944c-.027.054-.351.459-.729.891a14.32,14.32,0,0,0-1.781,2.132c.054,0,.108,0,.108.027.054.081-.27.594-.378.62-.162.027-.162,0,.027-.323.3-.432.027-.189-.378.351-.189.27-.351.54-.324.594.027.027-.108.189-.3.351-.3.243-.324.3-.324.62,0,.216-.054.324-.081.3-.054-.027-.081-.108-.081-.216.027-.108.027-.108-.081,0a.292.292,0,0,0-.054.243c.027.054-.054.108-.135.162-.108.027-.216.216-.27.378a3.319,3.319,0,0,1-.4.837,2.727,2.727,0,0,0-.324.647c0,.189-.27.351-.3.189,0-.054-.108.027-.216.162-.081.162-.162.324-.108.351,0,.027.027,0,.054-.054,0-.054.027-.108.081-.108.162.027.081.243-.162.432-.135.108-.216.216-.216.27a1.578,1.578,0,0,1-.324.621c-.189.323-.54.891-.756,1.322a5.507,5.507,0,0,1-.459.837.3.3,0,0,0-.054.27C274.206,103.325,274.315,103.244,274.584,102.759ZM287.944,89.4a.962.962,0,0,0-.161-.459,2.446,2.446,0,0,0-.756.189,6.431,6.431,0,0,0-1.835,1.188,36.512,36.512,0,0,0-7.719,9.257c-.783,1.215-1.565,2.483-1.727,2.78-.756,1.35-.918,1.619-.918,1.619a3.8,3.8,0,0,0,1.053-.054,11.575,11.575,0,0,0,3.535-2.051,2.31,2.31,0,0,1,.783-.459c.135.027.189-.027.189-.162a.241.241,0,0,1,.189-.27,8.136,8.136,0,0,0,1.646-1.3l.27-.243-.189.243c-.108.134-.135.216-.081.189a7.926,7.926,0,0,0,1.268-1.458,2.01,2.01,0,0,1,.594-.782,23.942,23.942,0,0,0,2.888-4.21,7.46,7.46,0,0,1,.567-1.457A7.1,7.1,0,0,0,287.944,89.4Zm-12.252,4.966a.61.61,0,0,0,.108-.243c0-.027-.027-.054-.081-.027a.294.294,0,0,0-.108.243C275.61,94.527,275.61,94.527,275.691,94.365Zm4.048,8.2c-.3.216-.567.432-.62.485-.027,0-.3.216-.594.432-.567.4-.864.512-.756.243.054-.081.027-.108-.027-.081s-.081.161-.081.27c.027.162-.027.243-.243.324-.3.108-.378.108-.3,0,.054-.054.027-.081-.027-.081-.027-.027-.081.054-.081.162s.027.189.054.189.3-.135.648-.3a9.6,9.6,0,0,0,2.132-1.457,1.925,1.925,0,0,1,.243-.378C280.252,102.219,280.144,102.246,279.739,102.57Zm25.747,0a3.88,3.88,0,0,1-2.1,1.4l-.7.189-.54-.189a2.635,2.635,0,0,1-1.808-1.7,3.243,3.243,0,0,1-.351-1.566,8.984,8.984,0,0,1,.243-3.212c.054-.3.135-.729.162-1s.108-.782.189-1.161c.162-.809.162-.891-.027-1-.108-.054-.189-.027-.513.243a36.884,36.884,0,0,0-2.942,3.671c-.324.459-.81,1.106-1.053,1.43a6.433,6.433,0,0,0-.675.971c-.135.216-.432.729-.729,1.188-.432.756-.729,1.268-1.727,3.022a8.4,8.4,0,0,0-.486.891c-.054.135-.216.486-.378.81a26.944,26.944,0,0,0-1.43,3.346c.054.216,0,.324-.324.756-.4.513-.513.621-.729.594a1.723,1.723,0,0,1-.756-.405.513.513,0,0,1-.135-.323c-.027-.162-.054-.216-.162-.162-.108.027-.135-.054-.216-.54a10.524,10.524,0,0,1,.729-3.725c.216-.756.459-1.619.567-1.943A47.29,47.29,0,0,1,292.4,96.9a5.456,5.456,0,0,0,.3-.647c.135-.27.351-.756.486-1.08a4.076,4.076,0,0,0,.27-.648.751.751,0,0,1,.161-.351c.081-.135.351-.675.567-1.188.243-.512.647-1.322.891-1.781.27-.486.594-1.107.729-1.377.243-.54,2.618-5.02,3.535-6.666.27-.54.594-1.133.675-1.35a4.442,4.442,0,0,1,.3-.62,7.553,7.553,0,0,0,.458-.782c.027-.054-.027-.054-.162-.027-.162.054,0-.216.864-1.269a15.2,15.2,0,0,0,1.079-1.4c0-.081.135-.216.7-.594.458-.323,1.215-.161,1.268.27,0,.054.081.135.135.189.135.054.135.108.081.4-.081.432-.108.486-.62,1.053a18.486,18.486,0,0,0-2.132,3,10.416,10.416,0,0,1-.891,1.242,2.87,2.87,0,0,0-.324.512c-.162.3-.4.7-.54.918a1.653,1.653,0,0,0-.243.54c.027.081-.027.162-.054.162-.054,0-.108.108-.135.243s-.081.216-.108.216c-.081-.054-.567.782-.54.918a.086.086,0,0,1-.081.081.227.227,0,0,0-.054.162c.027.081-.081.27-.189.405a1.114,1.114,0,0,0-.189.323.14.14,0,0,1-.054.108c-.054,0-.135.162-.189.378a7.064,7.064,0,0,1-.513.971,4.513,4.513,0,0,0-.378.756c-.027.054-.216.432-.432.809-.189.378-.432.837-.513,1.053-.081.189-.243.54-.351.756a1.318,1.318,0,0,0-.189.513,6.775,6.775,0,0,1-.432,1c-.243.512-.7,1.538-1,2.267-.324.756-.756,1.835-.972,2.375-.243.567-.62,1.566-.863,2.24s-.54,1.484-.648,1.781c-.27.674-.27.782-.027.27.108-.216.216-.378.27-.351s.351-.4.351-.486c-.027-.027.027-.135.108-.216.054-.081.189-.27.27-.378a2.334,2.334,0,0,0,.3-.486c.081-.135.3-.512.513-.836a1.818,1.818,0,0,0,.351-.675c-.054-.054-.027-.081,0-.054.054.027.216-.135.351-.351.432-.648.594-.864.891-1.242.162-.189.3-.432.27-.486,0-.081.027-.108.054-.054s.189-.108.4-.4.324-.54.27-.567-.054-.054,0-.108a.179.179,0,0,1,.162-.027c.081.054.648-.7.567-.783-.027-.054,0-.054.054-.054s.108-.081.108-.162c0-.135.054-.189.108-.162.108.027.243-.135.7-.809a6.081,6.081,0,0,1,1.3-1.215c.54-.324,1.754-.324,1.781,0,0,.081.27.324.485.4a.3.3,0,0,1,.189.3,3.11,3.11,0,0,0,.161.567A9.745,9.745,0,0,1,302,97.28c-.54,3.266-.567,3.887-.324,4.939a1.881,1.881,0,0,0,.27.7,1.956,1.956,0,0,0,.674-.027c.972-.162,1.619-.647,2.915-2.132.27-.324.54-.567.567-.54.054.027.054.081.027.161a1.265,1.265,0,0,0,.108.864C306.431,101.355,306.134,101.841,305.486,102.57Zm-14.439.782c.27-.621.486-1.215.513-1.322a5.491,5.491,0,0,1,.324-.945c.62-1.727.836-2.294.918-2.456.081-.189.189-.486.3-.81.054-.135.162-.4.27-.62.378-.837,1-2.267,1.161-2.726a14.026,14.026,0,0,1,.647-1.323,13.557,13.557,0,0,0,1.322-3.022.083.083,0,0,0-.054.027c-.108.189-.675,1.43-.675,1.457a6.691,6.691,0,0,1-.4.809,23.307,23.307,0,0,0-1.43,3.077,4.328,4.328,0,0,1-.243.54c-.135.3-.4.945-.621,1.457a6.4,6.4,0,0,1-.458,1c-.108.081-.081-.135.054-.54.108-.324.135-.4.027-.432-.108,0-.135-.108-.027-.189a.093.093,0,0,1,.135.027c.054.054.108-.027.216-.216.108-.243.108-.323.027-.4s-.054-.081.054-.108c.134,0,.323-.324.323-.621a1.223,1.223,0,0,1,.162-.351,1.3,1.3,0,0,0,.216-.432,1.31,1.31,0,0,1,.161-.351c.108-.135.108-.189.027-.243-.108-.054-.135-.054-.162.081,0,.135-.054.162-.135.135s-.162.027-.189.135c-.081.162-.081.189.027.081.081-.081.135-.081.162-.027.054.054.054.081,0,.054-.081-.054-.3.432-.27.648,0,.108,0,.108-.108,0-.108-.135-.135-.108-.216.108s-.081.243,0,.243c.108.027.108.054.054.162-.054.081-.081.081-.108.027-.054-.135-.216.081-.3.4-.027.162-.027.189.054.162.054-.027.108-.027.108.027.027.108-.162.27-.27.243-.135,0-.864,1.835-2.051,5.263-.54,1.539-1.619,5.1-1.592,5.29,0,.054.054.054.108.027.027-.027.054-.027.054.054a.179.179,0,0,1-.135.108c-.054,0-.162.243-.216.62-.162.783-.135,1.106.054.594.054-.108.162-.513.27-.891a3.471,3.471,0,0,1,.27-.783c.135-.189.3-.729.189-.7-.027,0-.081-.108-.081-.243-.027-.162,0-.216.054-.189s.081.027.027-.027a1.375,1.375,0,0,1,.216-.891c.162-.135.162-.081.027.216-.216.378-.216.54,0,.189.081-.162.3-.7.486-1.215.162-.512.486-1.457.756-2.1a12.751,12.751,0,0,0,.432-1.3,2.944,2.944,0,0,1,.243-.729c.189-.486.189-.567.054-.378-.135.216-.161.216-.161.108a.486.486,0,0,1,.081-.324.44.44,0,0,0,.027-.324c-.027-.081-.027-.189.027-.216.027-.027.081,0,.081.054,0,.081.054.108.108.054.054-.027.054.027.054.189-.027.108-.027.162,0,.108.027-.108.161-.135.189-.027,0,.027-.216.675-.486,1.377-.27.729-.486,1.322-.486,1.349s-.162.513-.351,1.08c-.216.567-.4,1.134-.459,1.3-.027.162-.162.567-.27.944s-.189.675-.189.7c.027,0,.081-.108.135-.27C290.507,104.783,290.669,104.351,291.047,103.352ZM289.86,106.7c-.027.135-.081.324-.108.432,0,.162,0,.162.054-.027a1.59,1.59,0,0,0,.108-.459C289.941,106.51,289.941,106.51,289.86,106.7Zm.783-3.454c0,.108-.027.216-.108.243a.1.1,0,0,0-.054.135.293.293,0,0,1-.054.243c-.081.162-.081.162-.081-.135a.775.775,0,0,1,.135-.459l.135-.189Zm.054,2.051c-.027-.027-.054,0-.081.054a.835.835,0,0,0-.054.216c0,.027.027,0,.081-.054A.841.841,0,0,0,290.7,105.3Zm.594-3.805c-.081.27-.243.378-.27.161,0-.054.027-.108.054-.108.054,0,.081-.054.081-.108a.224.224,0,0,1,.081-.216C291.371,101.085,291.371,101.139,291.29,101.49Zm.3,1.025a10.415,10.415,0,0,0-.54,1.619c0,.054.432-1.106.54-1.484C291.614,102.542,291.614,102.489,291.587,102.515Zm.27-.594c.027-.108.081-.243.081-.27,0-.054-.054,0-.108.108a.812.812,0,0,0-.081.3C291.749,102.084,291.8,102.03,291.857,101.922Zm.944-2.672c-.108.162-.729,1.781-.837,2.105-.108.432.054.108.378-.729C292.8,99.439,292.937,99.034,292.8,99.25Zm-.54-.782c0-.378.054-.432.162-.189a.333.333,0,0,1-.054.324C292.289,98.737,292.262,98.71,292.262,98.467Zm3.94-6.91a5.963,5.963,0,0,0-.486,1.026.539.539,0,0,1-.081.216c-.054.108-.189.3-.3.486-.108.162-.216.351-.189.4a.408.408,0,0,1-.108.216,3.117,3.117,0,0,0-.323.674,3.535,3.535,0,0,1-.3.675,6.934,6.934,0,0,0-.27.648c-.108.3-.3.7-.378.944-.216.458-.756,1.781-.756,1.835.027.108.108-.054.4-.782.189-.459.513-1.215.729-1.7.243-.485.486-1,.54-1.133.054-.108.216-.432.378-.7.134-.243.323-.648.432-.891.081-.243.216-.594.3-.782A7.653,7.653,0,0,0,296.2,91.558Zm-2.267,2.753c.081.162.081.162.189-.027.054-.108.108-.189.081-.216s-.081.027-.135.081c-.054.081-.108.081-.108.027a.344.344,0,0,1,.108-.189,4.337,4.337,0,0,0,.432-.837,6.168,6.168,0,0,1,.459-.944c.108-.135.162-.27.108-.324-.027-.054-.027-.054.027-.027s.108-.027.162-.135c.081-.216-.081-.27-.189-.027a.661.661,0,0,0-.108.3.948.948,0,0,1-.135.216,1.921,1.921,0,0,0-.27.54c-.108.216-.27.648-.432.918A1.178,1.178,0,0,0,293.935,94.311Zm1.323-2.915c.081.135.108.108.351-.351.243-.486.27-.54.134-.513-.054,0-.108.081-.162.216a1.972,1.972,0,0,1-.135.324.356.356,0,0,0-.081.216c0,.081-.027.108-.081.081S295.2,91.342,295.258,91.4Zm.134,2.078c-.054.135-.108.243-.134.243s0-.108.054-.216c.054-.135.108-.27.135-.27S295.447,93.339,295.392,93.474Zm1.268-2.807c-.054-.027-.323.485-.3.594,0,.054.081-.054.162-.243C296.634,90.857,296.688,90.695,296.661,90.668Zm-.108-.648c0,.135.135-.054.378-.486.432-.864.54-1.133.486-1.16-.027-.054-.081-.027-.081.027-.027.027-.189.4-.4.809A6.481,6.481,0,0,0,296.553,90.02Zm.782-.7-.189.243a1.222,1.222,0,0,0-.162.351c.027.054,0,.108-.054.108-.027,0-.081.081-.081.162-.027.135-.027.162.054.054a2.279,2.279,0,0,0,.243-.513Zm.108-1.08c.027.189.243-.162.7-1.053.971-1.916.971-1.943.863-1.916a2.451,2.451,0,0,0-.351.54c-.162.323-.485.971-.756,1.457A6.917,6.917,0,0,0,297.444,88.238Zm29.687,9.392c0,.216-.054.27-.378.324a19.039,19.039,0,0,0-5.4,2.726c-.918.675-.944.7-1.053,1.215a41.363,41.363,0,0,1-3.022,7.476,65.222,65.222,0,0,1-3.671,5.641,17.486,17.486,0,0,1-4.723,4.426,3.387,3.387,0,0,1-2.132.27,4.066,4.066,0,0,1-1.457-1.863,3.523,3.523,0,0,1-.027-2.132c.162-.108.162-.135,0-.135-.081,0-.162-.054-.162-.108a14.807,14.807,0,0,1,1.457-3.266c.351-.62,1.943-2.942,2-2.942.027,0,.027.108-.027.216-.027.135.081.054.351-.27a38.763,38.763,0,0,1,3.077-3.293c.567-.513,1.268-1.187,1.592-1.511a5.317,5.317,0,0,1,.971-.756,12.019,12.019,0,0,0,1.08-.783,22,22,0,0,1,2.456-1.727c.351-.243.513-.405.567-.621.027-.135.135-.567.216-.944a11.015,11.015,0,0,0,.378-3.428,17.515,17.515,0,0,0-.189-2.78c-.324-2.052-.432-2.349-.891-2.349a1,1,0,0,1-.458-.135,1.013,1.013,0,0,1,.027.3,4.027,4.027,0,0,1-.864,2.618,5.777,5.777,0,0,0-.809,1.619,14.5,14.5,0,0,1-1.647,2.942c-.161.216-.54.783-.809,1.242a16.771,16.771,0,0,1-1.188,1.646c-.351.432-.836,1.053-1.106,1.377a12.357,12.357,0,0,1-2.645,2.429,1.572,1.572,0,0,1-1.836-.081,2.955,2.955,0,0,1-1.322-2.186,8.678,8.678,0,0,1,.351-3.239c.216-.837.4-1.43,1.161-3.616.054-.216.458-1.134.863-2a13.558,13.558,0,0,0,.756-1.836,11.176,11.176,0,0,1,1.268-2.7l1.268-2c.108-.216.189-.243.594-.243.378,0,.458.027.513.189.027.162.108.189.323.135.243-.054.3-.027.243.108-.027.081-.027.162.027.162.162,0,.27.432.135.648-.054.108-.216.459-.351.809a10.7,10.7,0,0,1-.729,1.539c-.3.54-.783,1.457-1.08,2.078-.3.594-.675,1.349-.837,1.646a52.93,52.93,0,0,0-2,5.587,17.331,17.331,0,0,0-.594,3.022c.135.108,1-.647,2.051-1.781a22.84,22.84,0,0,0,1.89-2.159,5.15,5.15,0,0,1,.458-.54,34.717,34.717,0,0,0,2.4-3.293,2.385,2.385,0,0,0,.486-1c-.054-.135-.054-.162.027-.054.054.108.162,0,.378-.35a4.882,4.882,0,0,0,.675-1.35,17.214,17.214,0,0,1,1.35-2.294c-.081-.189-.027-.243.189-.567.189-.243.378-.4.567-.4a.855.855,0,0,0,.378-.135c.108-.081.162-.054.216.135.054.162.162.27.243.27a1.976,1.976,0,0,1,.54.594,9.525,9.525,0,0,1,1.242,3.508,22.025,22.025,0,0,1,.27,4.264c-.027.485-.027.782.027.756.054,0,.567-.3,1.133-.594,1.08-.594,1.512-.729,1.08-.378-.243.189-.216.189.27,0,.594-.243.945-.459.567-.351a2.784,2.784,0,0,0-.351.108c-.054.027-.108,0-.108-.054a2.084,2.084,0,0,1,.783-.351,2.963,2.963,0,0,1,1.673-.243c.837.054,1.133.189,1.053.432-.027.108,0,.162.108.162C327.077,97.415,327.131,97.5,327.131,97.631Zm-19.324-.27a4.342,4.342,0,0,0,.243-.675c0-.189-.189-.108-.378.135-.134.162-.216.189-.27.081s-.135.027-.3.432a6.311,6.311,0,0,0-.513,1.916.139.139,0,0,1-.081.189,8.961,8.961,0,0,0-.486,2.915c.054,1.3.27,1.268.4-.027A18.08,18.08,0,0,1,307.807,97.361Zm.3,20.026a16.527,16.527,0,0,0,1.376-1.106,26.557,26.557,0,0,0,2.888-3.347c.891-1.3,1.161-1.592,1.323-1.646a5.585,5.585,0,0,0,.863-1.215,43.137,43.137,0,0,0,2.105-3.994,5.42,5.42,0,0,0-.756,1.3c-.027.108-.081.162-.108.162a4.549,4.549,0,0,1,.756-1.646,5.113,5.113,0,0,0,.54-1.08c.675-1.619.675-1.592-.27-.864a42.078,42.078,0,0,0-6.855,6.828c-1.673,2.24-3.212,5.155-3.347,6.235a4.29,4.29,0,0,0-.027.782C306.7,118.034,307.376,117.845,308.1,117.387Zm10.013-12.712c0-.108-.189.216-.432.729a11.181,11.181,0,0,1-.864,1.512,5.2,5.2,0,0,0-.648,1.025,1.029,1.029,0,0,1-.243.405c-.054,0-.081.081-.081.161a.124.124,0,0,1-.108.135c-.054,0-.081.054-.054.081a2.63,2.63,0,0,1-.513,1.025c-.054,0-.081.081-.081.162s-.054.135-.081.108c-.054-.027-.081.027-.081.108.028.108-.027.162-.081.162-.081,0-.108.054-.081.135a1.142,1.142,0,0,1-.243.621c-.162.243-.243.432-.189.432s.081.054.081.162c0,.189-.243.54-.405.54-.054,0,0-.135.135-.243.108-.135.162-.27.108-.323-.054-.027-.162.081-.27.27q-.243.446-.324.162c-.027-.081-.108-.027-.161.135-.135.216-.108.216.027.108.189-.189.216,0,0,.405-.108.243-.162.27-.3.162-.108-.108-.135-.108-.216.027a27.063,27.063,0,0,1-4.507,4.993,4.187,4.187,0,0,1-1.133.594c-.621.189-.621.189-.486.378.243.3.864.189,1.7-.27a8.594,8.594,0,0,0,1.457-1.053,3.757,3.757,0,0,1,.783-.594c.081.054.135.027.162-.027.027-.081,0-.108-.054-.108s.189-.351.594-.782c.378-.432,1.025-1.188,1.4-1.673a3.168,3.168,0,0,1,.756-.891c.054.027.081,0,.054-.054a9.476,9.476,0,0,1,.944-1.7,21.413,21.413,0,0,0,1.107-1.916,3.352,3.352,0,0,1,.378-.674,2.053,2.053,0,0,0,.243-.4c0-.027.108-.216.216-.432A26.1,26.1,0,0,0,318.117,104.675Zm-10.5-8.124a.678.678,0,0,0,.135-.3c0-.135-.162-.081-.216.081C307.429,96.632,307.483,96.74,307.618,96.551Zm.216-.7c.054.189.081.189.108,0,0-.081.054-.162.108-.162.028,0,.108.054.108.108a8.327,8.327,0,0,0,.809-1.97c.027-.054-.081.027-.27.189A4.263,4.263,0,0,0,307.834,95.849Zm2.753,12.9a.286.286,0,0,0,.162-.162c.081-.081.108-.135.081-.135a.316.316,0,0,0-.162.135Zm.621-.648.432-.458c.243-.243.432-.459.432-.459,0-.162-.216.027-.513.432Zm.513,8.016a3,3,0,0,0-.405.459,2.567,2.567,0,0,0,.648-.62C312.044,115.821,311.937,115.9,311.721,116.118Zm4.21-12.955a43.261,43.261,0,0,0-3.941,3.481c-.675.675-.729.837-.108.3.161-.135.512-.459.783-.729.3-.3.54-.459.647-.432a.259.259,0,0,0,.27-.081c.108-.135.108-.162,0-.162-.135,0,.216-.432.594-.729.3-.216.459-.162.243.108-.108.161-.108.161.054,0a.645.645,0,0,1,.351-.189c.189,0,.216-.108.054-.27-.135-.162,0-.351.972-1.053a15.323,15.323,0,0,0,2.51-1.97C318.414,101.3,318.171,101.463,315.931,103.163Zm1.133-10.823a17.234,17.234,0,0,0-1.214,2,20.931,20.931,0,0,1-1.323,2.132c-1.349,2.051-1.376,2.186-.027.4a14.935,14.935,0,0,0,.971-1.457c.162-.324.621-1.188,1-1.89A5.83,5.83,0,0,0,317.064,92.341Zm-3,12.955c.027-.027.081-.081.081-.108s-.054-.054-.081-.054a.116.116,0,0,0-.108.108C313.961,105.3,314.015,105.323,314.069,105.3Zm.891,6.234c-.108.135-.135.243-.081.189.081-.027.162-.162.216-.27C315.229,111.179,315.148,111.206,314.96,111.53Zm.189-7.1c-.054-.054-.108-.108-.162-.108s-.054.054-.027.108a.179.179,0,0,0,.134.108C315.148,104.54,315.175,104.486,315.148,104.432Zm.081-.189c.081.135.162.108.4-.108.216-.162.216-.162.027-.162-.135-.027-.189.027-.189.135,0,.081-.054.108-.161.081C315.229,104.162,315.2,104.189,315.229,104.243Zm1.215-.81a.227.227,0,0,0,.189-.108c.027-.027-.027-.054-.135-.027C316.282,103.352,316.255,103.433,316.444,103.433Zm.971-12.793a1.185,1.185,0,0,1-.162-.189,4.489,4.489,0,0,0-.7,1.512c.027,0,.243-.378.54-.81A4.335,4.335,0,0,1,317.415,90.64Zm-.162,12.172.216-.324-.3.216c-.162.135-.3.27-.3.324C316.875,103.217,317.037,103.11,317.253,102.813Z" transform="translate(0 -31.981)" fill="#fff"/>
      </g>
    </g>
  </g>
</svg>
