<svg xmlns="http://www.w3.org/2000/svg" width="379.579" height="91.324" viewBox="0 0 379.579 91.324">
  <path id="パス_392" data-name="パス 392" d="M30.984,5.9a14.558,14.558,0,0,1,0,4.186A23.579,23.579,0,0,1,29.9,14.27a1.279,1.279,0,0,0-.062.217c-.093.28-.558,1.52-.651,1.768-.062.124-.28.62-.466,1.085a19.894,19.894,0,0,1-1.24,2.45,2.343,2.343,0,0,0-.31.682,19.682,19.682,0,0,1-1.519,2.884c-.124,0-.558.775-.558.962a.825.825,0,0,1-.155.4,2.662,2.662,0,0,0-.31.5,24.086,24.086,0,0,1-1.706,2.543,3.884,3.884,0,0,0-.806,1.148,26.523,26.523,0,0,1-2.76,3.721c-.186.217-.527.682-.744.992a19.743,19.743,0,0,1-2.419,2.822c-.5.527-1.023,1.023-1.148,1.179-.248.279-.434.4-1.644,1.488A25.714,25.714,0,0,1,9.09,42.3a.092.092,0,0,0-.124.062A7.366,7.366,0,0,1,6.95,43.514a5.866,5.866,0,0,1-1.705.589,6.279,6.279,0,0,1-2.388.062,3.55,3.55,0,0,1-1.675-1.148,2.859,2.859,0,0,1-.961-1.8A1.678,1.678,0,0,0,.1,40.6c-.155-.248-.124-.372.093-1.3C.5,38.149,1.462,36.1,1.679,36.2s.713-.837.806-1.458a7,7,0,0,1,.248-1.147c.093-.4.279-1.179.4-1.706.155-.558.5-2.078.806-3.349.682-3.008,1.147-4.745,1.892-7.226C6.516,19.139,8.16,14.425,9,12.317c.28-.713.527-1.3.527-1.365,0,0-.186-.155-.4-.31-.651-.434-.868-.931-.465-1.085a.351.351,0,0,0,.155-.249c0-.155,2.078-3.132,3.256-4.682a32.839,32.839,0,0,1,2.512-2.884c.589-.589.714-.62,1.427-.4.465.124.589.248.558.434-.031.124,0,.155.062.155.093,0,.124.062.093.155s0,.124.155.124c.28,0,.341.186.186.5a1.04,1.04,0,0,0-.155.372,4.243,4.243,0,0,1-.62.869c-.775.961-1.147,1.488-1.085,1.55.093.093-.217.558-.31.5-.032-.031-.062.062-.062.186a.473.473,0,0,1-.155.28.2.2,0,0,0-.124.155c0,.062-.341.745-.745,1.52s-.744,1.427-.744,1.458c0,0-.217.558-.5,1.178-.279.652-.744,1.737-.992,2.45-.249.683-.527,1.457-.62,1.675-.124.249-.186.466-.155.466a1.581,1.581,0,0,0,.31-.372c.745-1.054,2.636-3.566,3.318-4.372.28-.341.775-.931,1.054-1.3.9-1.116,4.373-4.62,4.249-4.248-.062.124,0,.093.217-.093.186-.185.248-.279.155-.341-.062-.031-.031-.062.093-.093.124-.062.217-.093.217-.124a1.134,1.134,0,0,1,.372-.28,13.118,13.118,0,0,0,1.21-.806c.93-.652,1.179-.806,1.364-.806.155,0-.434.5-.806.651-.155.093-.28.186-.28.279a.1.1,0,0,1-.093.093,1.017,1.017,0,0,0-.4.279,2.747,2.747,0,0,1-.4.248c-.062,0-.093.062-.093.124s-.155.217-.372.341c-.186.124-.341.28-.341.372,0,.062-.062.093-.155.093-.093-.032-.186.062-.248.155a.228.228,0,0,1-.248.124c-.093,0-.217.062-.31.248a1,1,0,0,1-.5.372c-.279.124-.31.186-.341.465s-.062.341-.279.372c-.217,0-.682.465-.713.651,0,.155-.558.745-.683.714-.031-.032-.155.031-.217.124-.093.093-.248.31-.372.434A2,2,0,0,0,16.254,9c0,.031-.062.062-.124.062-.093,0-.155.093-.155.217,0,.341-.248.651-.434.589-.124-.031-.217.031-.341.217-.217.28-.248.4-.124.341.124-.093.124,0-.062.248a.871.871,0,0,1-.372.31.26.26,0,0,0-.186.248c0,.124-.062.155-.093.124-.124-.062-.5.31-.589.558-.031.093-.093.186-.124.186-.062,0-.093.062-.093.124a.892.892,0,0,1-.248.341,1.774,1.774,0,0,0-.4.434,1.286,1.286,0,0,1-.341.465.953.953,0,0,0-.186.341.811.811,0,0,1-.185.248,1.436,1.436,0,0,0-.372.527c-.124.186-.31.5-.465.713-.155.186-.249.4-.218.434.062.093-.279.714-.4.714-.062,0-.093.062-.093.155a.92.92,0,0,1-.186.4A4.293,4.293,0,0,0,9.9,18.054c.032-.062.31-.434.589-.869.589-.868.775-.9.28-.031-.186.31-.5.837-.651,1.148-.186.372-.435.837-.589,1.116a2.136,2.136,0,0,0-.248.5s.5-.745,1.085-1.706a68.4,68.4,0,0,1,6.264-8.621c.4-.434.93-1.054,1.179-1.334a30.982,30.982,0,0,1,5.458-4.807A8.718,8.718,0,0,1,27.2,1.928c.279.062.31.031.155-.062a6.188,6.188,0,0,0-2.388-.032c-.248.124-.4.062-.186-.093a4.672,4.672,0,0,1,1.768-.217,2.746,2.746,0,0,1,1.923.589,1.039,1.039,0,0,0,.4.248c.186-.062,1.148.745,1.148.992a.432.432,0,0,0,.124.279A7.728,7.728,0,0,1,30.984,5.9ZM.345,40.444c-.031-.062-.062-.093-.093-.093s-.031.031-.031.093a.1.1,0,0,0,.093.093C.345,40.537.376,40.506.345,40.444ZM29.5,7.479a16.977,16.977,0,0,0-.186-2.233c-.031-.248-.155-.651-.186-.931-.186-1.023-.682-1.644-1.364-1.767a5.852,5.852,0,0,0-2.574.558,11.336,11.336,0,0,0-1.581.961,40.054,40.054,0,0,0-5.706,5.3,2.116,2.116,0,0,1-.558.558c-.062-.031-.093,0-.093.062.031.062-.062.248-.217.434-1.768,2.264-3.412,4.373-3.6,4.682-.032.093-.558.9-1.148,1.83a55.392,55.392,0,0,0-2.791,4.807,29.43,29.43,0,0,0-2.977,7.04c-.434,1.644-.5,1.985-.372,1.892a.4.4,0,0,0,.217-.155A24.158,24.158,0,0,1,9.525,28.6a14.23,14.23,0,0,1,1.458-.589,4.771,4.771,0,0,1,1.953-.186,4.55,4.55,0,0,1,1.737.186c.372.155.527.248.558.372a.35.35,0,0,0,.155.249c.372.217-.186.372-.589.155-.651-.341-2.729.093-3.969.806-.093.062-.4.249-.713.434A12.927,12.927,0,0,0,7.105,32.35c-1.55,1.488-1.768,1.8-1.83,2.418-.062.4-.031.5.155.683a.872.872,0,0,1,.217.651c0,.5-.124.589-.62.527L4.655,36.6V37a.748.748,0,0,1-.093.5c-.124.186-.683.124-.931-.062a.568.568,0,0,0-.31-.186A7.467,7.467,0,0,0,2.3,39.513c.031.062,0,.093-.031.124a2.16,2.16,0,0,0-.217.806,5.7,5.7,0,0,1-.186.992,2.331,2.331,0,0,0,.217,1.21.257.257,0,0,0,.248.062c.062-.032.124,0,.124.062,0,.093.062.093.217.062.124-.031.217-.031.217.031,0,.124.279.124.93.032a6.71,6.71,0,0,0,1.519-.435c0-.031-.124-.031-.31.032-.527.093-.558.062-.062-.093.5-.186.806-.217.589-.093-.093.062-.124.093-.062.093a18.21,18.21,0,0,0,2.574-1.364c.4-.28.806-.527.93-.589a1.435,1.435,0,0,0,.28-.186c.031-.031.372-.31.806-.62.4-.341,1.086-.868,1.458-1.179a2.544,2.544,0,0,1,.775-.558,9.981,9.981,0,0,0,1.334-1.209c.682-.714,1.675-1.706,2.232-2.233.745-.745,1.023-1.054,1.023-1.21s.031-.186.124-.155c.124.031.775-.62.775-.775a.47.47,0,0,1,.124-.185c.248-.28.31-.4.31-.466.031,0,.124-.186.248-.341s.217-.31.186-.341-.062,0-.093.093a.205.205,0,0,1-.155.124c-.155,0,.775-1.458,2.481-3.907a57.4,57.4,0,0,0,4.745-7.814c.713-1.4,2.015-4.156,2.232-4.807.434-1.116.9-1.767.558-.775-.279.806-.31.9-.248,1.054a7.27,7.27,0,0,0,.527-1.768,6.916,6.916,0,0,1,.249-1.116A12.009,12.009,0,0,0,29.5,7.479Zm-24.654,36a3.7,3.7,0,0,0-.62.186c-.248.093-.248.093.155.062A2.613,2.613,0,0,0,5,43.576C5.214,43.452,5.183,43.452,4.842,43.483Zm.186-14.513.124-.31a5.144,5.144,0,0,0,.185-.651l.062-.372-.124.372a2.582,2.582,0,0,0-.186.651Zm.9,14.142a2.1,2.1,0,0,0-.589.279c0,.062.28-.031.5-.155C5.927,43.173,5.958,43.111,5.927,43.111Zm-.248-15.6c0,.155.155-.124.155-.31,0-.031-.031,0-.093.062A.731.731,0,0,0,5.679,27.512ZM5.741,24.5c0,.093,0,.124.032.031a.139.139,0,0,0,0-.155C5.741,24.349,5.741,24.411,5.741,24.5Zm.093-.341c0,.124,0,.124.062,0,.031-.062.093-.248.186-.434s.155-.372.093-.434C6.113,23.2,5.834,23.915,5.834,24.163Zm.434-.5c-.186.434-.31.961-.217.961a2.273,2.273,0,0,0,.31-.713c.155-.434.217-.682.155-.714s-.031-.124.093-.248a.747.747,0,0,0,.217-.558,1.847,1.847,0,0,1,.155-.714,7.177,7.177,0,0,0,.589-1.8c-.093-.062,0-.341.124-.341.031,0,.062-.124.062-.31a2.065,2.065,0,0,1,.186-.62c.124-.186.186-.341.155-.372-.062-.124.124-.714.248-.714.031,0,.062-.062.093-.155a2.112,2.112,0,0,1,.155-.527c.124-.186.155-.372.093-.372a.067.067,0,0,1-.062-.062.083.083,0,0,1,.093-.093c.155,0,.4-.651.31-.806-.031-.031,0-.062.062-.062.093.031.124-.093.155-.31a3.057,3.057,0,0,1,.155-.62,1.311,1.311,0,0,0,.155-.372.082.082,0,0,1,.093-.093c.031,0,.124-.124.186-.248s.186-.465.31-.713a1.305,1.305,0,0,0,.186-.62c-.032-.093.031-.248.185-.4a.486.486,0,0,0,.186-.434c0-.124.032-.186.062-.186.062,0,.093-.062.093-.186s.031-.186.093-.124c.062.031.093,0,.031-.093a.715.715,0,0,1,.124-.434,2.173,2.173,0,0,0,.249-.62l.062-.341-.248.217c-.124.124-.217.279-.186.31.031.062,0,.124-.093.155-.124.032-.124.062-.031.124.093.093.093.124-.062.248-.217.155-.31.341-.124.248.031-.031.062.032.031.124a.483.483,0,0,1-.248.248c-.093.062-.155.155-.124.217.031.093,0,.124-.032.124-.062,0-.093.062-.062.124.062.186-.186.775-.31.775-.062-.031-.093,0-.062.031s-.062.186-.186.372a.779.779,0,0,0-.155.527,1.19,1.19,0,0,1-.155.589,1.989,1.989,0,0,0-.186.466,1.674,1.674,0,0,1-.186.5,1.584,1.584,0,0,0-.186.465.205.205,0,0,1-.124.155c-.093.031-.124.155-.124.31a.515.515,0,0,1-.093.31.276.276,0,0,0-.124.248c0,.124-.031.217-.093.217-.032,0-.093.124-.124.31a7.468,7.468,0,0,1-.341,1.4c-.031.093-.186.527-.341.961a5.853,5.853,0,0,1-.4,1.054c-.093.155-.155.28-.124.31s-.031.217-.093.434a1.649,1.649,0,0,0-.155.62,2.432,2.432,0,0,1-.217.806c-.155.372-.186.527-.093.558C6.423,23.264,6.423,23.387,6.268,23.667Zm.806-.372a9.361,9.361,0,0,1-.31.962,6.4,6.4,0,0,0-.4,1.116,2.364,2.364,0,0,1-.185.558,1.316,1.316,0,0,0-.124.434c0,.217,0,.217.093.062.062-.093.186-.4.31-.682a25.645,25.645,0,0,0,1.054-3.287C7.509,22.271,7.075,23.078,7.075,23.295ZM6.485,42.956a.082.082,0,0,0-.093-.093c-.032,0-.062.032-.062.093a.067.067,0,0,0,.062.062C6.454,43.049,6.485,42.987,6.485,42.956Zm5.365-3.412c0-.186-.341-.062-.745.31a18.486,18.486,0,0,1-2.264,1.581A8.227,8.227,0,0,0,6.95,42.614l.124.062.31-.124c.186-.093.5-.279.745-.434a1.721,1.721,0,0,1,.527-.28.187.187,0,0,0,.185-.093A.531.531,0,0,1,9,41.684c.062.031.186-.031.28-.155a.483.483,0,0,1,.372-.186.341.341,0,0,0,.28-.124c.031-.093.093-.155.155-.124.062,0,.249-.186.434-.4a1.468,1.468,0,0,1,.5-.372c.155.031.558-.341.558-.5,0-.062.062-.124.155-.155C11.788,39.638,11.85,39.576,11.85,39.544ZM7.633,21.962a.24.24,0,0,0-.093.217c0,.124,0,.124.093,0a1.039,1.039,0,0,0,.093-.186A.059.059,0,0,0,7.633,21.962Zm.341-1.489A2.212,2.212,0,0,0,8.1,19.79c0-.341,0-.341-.248.372a5.835,5.835,0,0,0-.28.868C7.54,21.217,7.788,20.876,7.974,20.472Zm2.543-7.691a12.685,12.685,0,0,1-.744,1.83,6.265,6.265,0,0,0-.372.962c-.155.341-.434,1.147-.651,1.8a5.89,5.89,0,0,0-.4,1.3.6.6,0,0,1-.093.31.652.652,0,0,0-.124.31c0,.093,0,.124.093-.032.155-.217.28-.185.217.093-.093.434.093.031.31-.589.124-.31.31-.868.434-1.271.124-.372.341-1.085.5-1.551.341-1.023.31-.961.186-.868-.093.031-.093,0-.031-.124.155-.341.868-2.357.931-2.605C10.889,11.914,10.734,12.131,10.516,12.782ZM9.152,20.689c0,.032.062-.031.155-.155.062-.155.155-.217.186-.217.093.062.185-.032.558-.683.155-.279.4-.682.527-.9s.186-.372.124-.341c-.062.062-.093.031-.093-.031,0-.093-.062-.062-.093.031a.249.249,0,0,0-.031.248c.031.062.031.093-.031.062-.093-.062-.4.31-.372.465,0,.217-.031.341-.124.31A4.092,4.092,0,0,0,9.152,20.689Zm1.767-2.574a.181.181,0,0,0,.093-.217c-.031-.093,0-.124.031-.093s.186-.155.372-.4c.155-.249.372-.558.465-.683.31-.434.341-.589.248-.62-.155-.062-.744.745-.651.868.031.062-.031.093-.093.093-.093,0-.155.062-.093.155,0,.062,0,.093-.031.093-.093-.062-.4.434-.434.682C10.8,18.178,10.827,18.178,10.92,18.116Zm-.093-1.985c0,.062.031.032.093-.031.032-.093.093-.186.093-.217,0-.062-.031-.031-.093.031A.415.415,0,0,0,10.827,16.131Zm5.8,18.7c0-.155-.279-.032-.465.217-.372.465-.5.589-.62.589-.031,0-.124.093-.186.217a6.92,6.92,0,0,1-.527.558,1.761,1.761,0,0,0-.4.5c0,.031-.124.093-.248.093-.279.031-.31-.031-.093-.279.155-.155.155-.155-.031-.062-.217.093-.527.527-.4.527a.166.166,0,0,0,.124-.093c0-.062.062-.093.093-.032.062.155-.589.806-.9.869a1.7,1.7,0,0,0-.465.248.68.68,0,0,1-.372.217,4.8,4.8,0,0,0-1.21.93c.062.062.62-.279,1.148-.682.31-.217.558-.4.62-.372.093.062-.186.465-.4.558a.322.322,0,0,0-.155.217c0,.062-.124.124-.248.155-.341.031-.372.217-.031.186a.593.593,0,0,0,.434-.217c.124-.155.217-.217.279-.217,0,.031.186-.093.372-.249a.963.963,0,0,1,.465-.279.166.166,0,0,0,.155-.155c0-.124.155-.341.868-1.085.249-.279.434-.4.558-.4.062,0,.093-.062.093-.155s.186-.31.4-.5a1.421,1.421,0,0,0,.4-.465c0-.062.062-.093.124-.093C16.13,35.575,16.6,34.986,16.626,34.831ZM11.044,11.572a.474.474,0,0,0-.124.249c0,.093.032.062.155-.217C11.2,11.386,11.2,11.386,11.044,11.572Zm0,17.46a.334.334,0,0,0,.186-.062c.031-.062-.031-.062-.124-.031C10.889,28.969,10.858,29.032,11.044,29.032Zm.713-.249a.332.332,0,0,0,.186-.062c0-.062-.031-.062-.124-.062C11.6,28.722,11.571,28.783,11.757,28.783Zm.31-12.807c0,.031.062.062.124.062a5.96,5.96,0,0,0,.868-1.054c1.054-1.52,3.07-4.186,3.38-4.466A4.054,4.054,0,0,0,16.9,9.96a9.718,9.718,0,0,1,.62-.775,3.5,3.5,0,0,0,.558-.62c.155-.186.589-.682,1.023-1.117.745-.775.745-.806.124-.248-.31.31-1.055,1.086-1.644,1.768-.589.651-1.117,1.24-1.21,1.3-.062.062-.434.5-.806.992-.341.465-.9,1.147-1.179,1.488C13.928,13.309,12.067,15.883,12.067,15.976Zm.4,12.652c.093,0,.124-.031.062-.062a.2.2,0,0,0-.186,0C12.315,28.6,12.377,28.629,12.47,28.629Zm.186,10.512c0-.031-.062-.031-.093-.031a.082.082,0,0,0-.093.093c0,.031.031.062.093.031C12.595,39.2,12.657,39.173,12.657,39.141Zm.155-10.606c.124,0,.155-.031.062-.062a.137.137,0,0,0-.155.031C12.688,28.5,12.749,28.535,12.812,28.535Zm5.147,4.59c-.093-.093-.124-.062-.279.124-.124.155-.4.5-.62.745-.5.527-.527.62-.279.62.093,0,.279-.155.4-.372.155-.186.4-.5.589-.683C18.022,33.28,18.053,33.218,17.959,33.125Zm.466-.434c0-.124-.186-.186-.31-.062-.062.062-.062.093,0,.031.186-.093.155.093,0,.217-.093.062-.124.155-.093.186C18.083,33.187,18.425,32.846,18.425,32.691ZM29.34,13.03c0,.032-.155.341-.279.714a6.484,6.484,0,0,1-1.023,1.984c-.093,0-.124.062-.062.093a.294.294,0,0,1-.062.217c-.062.062-.093.124-.062.124a1.153,1.153,0,0,1-.217.5,1.484,1.484,0,0,0-.248.62c.031.062.031.093-.031.093a2.381,2.381,0,0,0-.5.869,54.98,54.98,0,0,1-4.807,8.373,1.337,1.337,0,0,0-.279.465q0,.14.093,0c.031-.062.124-.093.155-.062.062.031.093-.031.093-.093-.031-.185.155-.248.218-.093.093.217-.032.589-.218.62a8.021,8.021,0,0,0-.744.93c-.31.5-.682,1.023-.775,1.148-.186.248-.186.248-.124.062a2.939,2.939,0,0,1,.185-.465,1.316,1.316,0,0,0,.093-.31c-.062-.062-.5.434-.5.558,0,.062-.062.124-.124.186a1.655,1.655,0,0,0-.434.527,4.153,4.153,0,0,1-.465.682.7.7,0,0,0-.155.31c0,.062.031.031.062-.032.062-.062.124-.093.155-.062.062.062-.062.589-.155.589-.217,0-.434.4-.31.558a3.22,3.22,0,0,0,.713-.931c0-.062.155-.186.279-.248s.217-.155.186-.217a3.429,3.429,0,0,1,.9-1.271c.155-.062.155,0,.031.248-.093.155-.093.186.031.031a.473.473,0,0,0,.186-.31,2.049,2.049,0,0,1,.248-.558,1.942,1.942,0,0,0,.186-.434c0-.124.465-.775.527-.714a22,22,0,0,0,1.954-2.822c.217-.31.434-.651.5-.745A14.267,14.267,0,0,0,25.9,21.744c.31-.589.775-1.519,1.085-2.109a48.305,48.305,0,0,0,2.14-5.272A4.628,4.628,0,0,0,29.34,13.03Zm-9.3-6.512a8,8,0,0,0,.806-.713c.714-.714.5-.558-.372.248C20.13,6.362,19.944,6.58,20.037,6.518Zm.435,23.755a.432.432,0,0,0-.28.217c-.093.124-.124.217-.093.217a.522.522,0,0,0,.279-.217C20.564,30.334,20.564,30.3,20.472,30.272Zm1.519-4.094a.879.879,0,0,0,.31-.31c.124-.186.217-.31.155-.279A2.87,2.87,0,0,0,21.991,26.179Zm.682-.868a5.777,5.777,0,0,0,.372-.558c.124-.186.124-.248.062-.155a6.4,6.4,0,0,0-.4.589C22.611,25.372,22.58,25.434,22.673,25.311Zm.62-.962c.031,0,.093-.124.186-.248.062-.155.124-.28.093-.28s-.124.124-.185.28C23.324,24.225,23.262,24.349,23.293,24.349Zm.372-.589s.093-.124.186-.279c.062-.124.124-.248.093-.248s-.124.124-.186.248C23.665,23.636,23.635,23.76,23.665,23.76Zm.4-.682c.062-.062.093-.124.062-.155,0-.031-.062.031-.093.093C23.975,23.139,23.975,23.17,24.069,23.078Zm.589-1.054a3.377,3.377,0,0,0,.372-.775,8.619,8.619,0,0,0-.775,1.427A3.462,3.462,0,0,0,24.658,22.023Zm18.854.93a2.77,2.77,0,0,1-.775,1.271c-.745.869-1.054,1.055-1.83,1.117a1.445,1.445,0,0,1-.806-.062c-.093-.062-.279-.155-.4-.218a5.452,5.452,0,0,1-1.768-2.481,10.148,10.148,0,0,1-.185-1.426A6.241,6.241,0,0,0,37.62,20.1c-.062-.062-.124-.062-.341.062-.186.093-.248.155-.217.217s.031.062-.031.031c-.124-.062-.527.31-.4.4.062.031.062.031-.031.031-.124-.031-.713.527-1.085.993-.093.124-.186.217-.248.217a.858.858,0,0,0-.4.465.29.29,0,0,1-.155.217.233.233,0,0,0-.155.217c.031.062-.031.186-.093.28a12.056,12.056,0,0,0-1.086,1.675c-.31.5-.589.961-.62,1.054a1.653,1.653,0,0,0-.217.465,10.672,10.672,0,0,1-.961,1.985c-.248.434-.558.961-.651,1.116-.062.155-.341.62-.558.992-.248.4-.5.868-.589,1.054-.217.434-.806,1.116-.992,1.116a.684.684,0,0,1-.248-.031.255.255,0,0,1-.186-.124.486.486,0,0,0-.248-.155.382.382,0,0,1-.248-.155,1.653,1.653,0,0,0-.248-.434l-.155-.31.155-.713a27.215,27.215,0,0,1,1.8-5.148c.155-.372.4-.992.558-1.364.155-.341.4-.992.589-1.4.186-.434.465-1.117.651-1.551a24.153,24.153,0,0,1,1.085-2.2c.155-.31.434-.837.62-1.21a2.887,2.887,0,0,1,.465-.775.605.605,0,0,0,.124-.248c0-.031.062-.093.155-.093.806-.155.806-.155.93.031a.453.453,0,0,0,.249.155c.155,0,.155.249,0,.558a.934.934,0,0,0-.093.341,3.194,3.194,0,0,1-.341.682,15.248,15.248,0,0,0-1.271,2.636c-.124.341-.5,1.271-.837,2.078a9.339,9.339,0,0,0-.713,1.892,3.344,3.344,0,0,0,.341-.5c.31-.466.5-.652.372-.31a.668.668,0,0,1-.124.217c-.062.093-.806,1.334-.962,1.644-.279.589-.062.341.558-.713.372-.558.868-1.4,1.147-1.768a33.441,33.441,0,0,1,3.225-3.938,2.22,2.22,0,0,0,.434-.434,6.491,6.491,0,0,0-1.116.868,31.906,31.906,0,0,0-2.543,3.195c-.341.558-.651.868-.5.527a38.216,38.216,0,0,1,2.45-3.256,5.743,5.743,0,0,1,1.736-1.55,1.59,1.59,0,0,1,1.519.31.9.9,0,0,0,.217.249,2.184,2.184,0,0,1,.683,1.085,14.949,14.949,0,0,1,.31,1.613c.217,1.209.4,1.8.62,1.923a1.409,1.409,0,0,0,.527,0c.372-.031.527-.093,1.178-.527a15.145,15.145,0,0,0,1.272-1.023C43.7,21.962,43.761,21.992,43.512,22.953ZM28.1,15.573a1.188,1.188,0,0,0,.093-.31v-.186l-.093.186a1.187,1.187,0,0,0-.093.31C28.007,15.666,28.007,15.666,28.1,15.573Zm.372,15.1a.393.393,0,0,0-.124.217.03.03,0,0,0,.031.031,1.726,1.726,0,0,0,.124-.186C28.6,30.582,28.565,30.582,28.472,30.676Zm2.512-6.451c0-.031-.062-.031-.155-.031s-.155.093-.217.248a.539.539,0,0,0-.062.218c.031,0,0,.093-.062.185A7.239,7.239,0,0,0,29.9,26.21c.031.031.062,0,.093-.031.062-.031.062-.031.062.031-.031.062-.093.093-.124.062-.062,0-.093.031-.124.093a10.177,10.177,0,0,1-.4,1.023c-.4.961-.558,1.427-.434,1.333.031-.031.062,0,.031.062s-.062.093-.124.093c-.031-.031-.062-.031,0,.031.062.093,0,.4-.093.341q-.046,0,0,.093c.031.062,0,.124-.093.124-.062,0-.093.031-.062.124a.7.7,0,0,1-.062.4c-.155.341-.155.4.031.124.062-.124.341-.775.589-1.457s.5-1.271.527-1.334a2.063,2.063,0,0,0,.217-.558c.062-.248.155-.5.217-.5a.447.447,0,0,0,.062-.217,1.134,1.134,0,0,1,.155-.4A8.241,8.241,0,0,0,30.984,24.225Zm-.217-.155V24.1c.031,0,.062-.093.124-.186.093-.155.093-.155-.032-.062C30.8,23.946,30.736,24.008,30.767,24.07Zm.217-.558a.234.234,0,0,0-.062.124c.031.124.062.093.124-.062C31.046,23.512,31.046,23.481,30.984,23.512Zm39.353-.124c.217.589.062,1.023-.745,2.047-.279.4-.527.806-.589.931a1.051,1.051,0,0,1-.249.434.578.578,0,0,0-.155.31,18.464,18.464,0,0,1-2.388,2.419,2.576,2.576,0,0,1-.806.5.708.708,0,0,0-.341.093c-.218.155-.9-.155-1.489-.651A7.464,7.464,0,0,1,62,27.14a10.546,10.546,0,0,1-.806-3.69c-.124-1.086-.217-2.016-.248-2.047a3.856,3.856,0,0,0-.372.217c-2.264,1.613-7.257,7.535-8.373,9.955-.4.868-.744,1.333-.961,1.333a1.236,1.236,0,0,1-.527-.279,1.408,1.408,0,0,1-.341-.558.378.378,0,0,0-.249-.31c-.5-.093-.465-1.117.032-2.605.372-1.116,2.481-5.923,3.225-7.38.589-1.148.682-1.489.279-1.179-.279.217-.279.031,0-.186.124-.124.155-.186.062-.186s-.062-.062.093-.217c.155-.124-.124-.031-.744.248a5.3,5.3,0,0,1-2.791.775L49.5,21v.713a4.486,4.486,0,0,1-.124,1.458c-.093.372-.217.869-.248,1.023a14.014,14.014,0,0,1-1.985,3.412c-.248.341-.372.589-.279.527.434-.155-.775,1.271-2.171,2.7-.682.651-.9.806-1.147.806-.155,0-.466.031-.651.031a1.307,1.307,0,0,1-1.086-.744,1.288,1.288,0,0,0-.31-.465c-.31-.249-.4-.775-.372-1.985A10.7,10.7,0,0,1,42.148,24.1a20.109,20.109,0,0,1,3.473-5.675c.558-.558.651-.62,1.116-.651a1.113,1.113,0,0,1,.745.155c.124.093.279.155.31.124s.217.186.372.5l.341.558.868.031a4.719,4.719,0,0,0,1.736-.248A18.374,18.374,0,0,0,55.917,16.6c.434-.31.683-.434.714-.341,0,.093.124.186.217.248a.374.374,0,0,1,.217.31.463.463,0,0,0,.093.31c.032.031.062.093.032.124-.032.062.031.155.155.248a.881.881,0,0,1,.31.465c.093.28.062.341-.217.714a35.019,35.019,0,0,0-2.078,3.659c-.683,1.334-1.892,3.938-1.861,3.969a14.678,14.678,0,0,0,1.427-1.55,20.617,20.617,0,0,1,2.232-2.419,11.509,11.509,0,0,0,1.489-1.458,3.8,3.8,0,0,1,1.675-1.116,2.1,2.1,0,0,1,1.209.558,1.459,1.459,0,0,0,.4.558c.341.31.372.434.5,1.086.062.4.155,1.457.248,2.357a9.8,9.8,0,0,0,.651,3.38c.186.341.186.372.745.372a1.961,1.961,0,0,0,1.085-.279,17.9,17.9,0,0,0,3.163-2.76A7.841,7.841,0,0,1,69.5,23.884c.031.031.062,0,.031-.062s.093-.248.279-.465l.31-.341-.155.31-.155.341.217-.31.218-.248Zm-22.39-3.039c-.372-.186-.372-.186-.714.093A3.007,3.007,0,0,1,45.9,21a7.014,7.014,0,0,0-1.458,2.2,18.033,18.033,0,0,0-1.985,6.2c0,.435.155.435.775.032a16.009,16.009,0,0,0,3.008-3.473c1.488-2.14,1.923-3.07,2.109-4.435C48.443,20.752,48.381,20.566,47.947,20.349Zm37.616,3.07c-.434.589-4,4.217-4.59,4.713a25.6,25.6,0,0,1-4.063,2.7c-.5.28-1.023.558-1.147.62-.837.558-4.063,1.054-4.621.745a.349.349,0,0,0-.31-.093c-.248.155-1.954-1.333-2.388-2.078-.155-.279-.31-.4-.5-.434-.31-.062-.31-.124-.031-.279.186-.062.217-.155.186-.279a6.147,6.147,0,0,1,.62-3.938,21.8,21.8,0,0,1,2.635-4.187c.155-.155.466-.527.745-.837.682-.837,1.3-1.427,1.582-1.457a1.686,1.686,0,0,1,.775.031c.28.062.683.155.9.186a3.87,3.87,0,0,1,1.953,1.179c.9.868,1.179,1.427,1.085,2.171a4.505,4.505,0,0,1-.868,2.17,12.031,12.031,0,0,1-2.481,2.543,21.759,21.759,0,0,1-4.745,2.729,2.823,2.823,0,0,0-.589.341c0,.341.931.62,1.8.527a13.252,13.252,0,0,0,5.923-2.2,5.074,5.074,0,0,1,.868-.465c.186,0,.651-.372.651-.5a3.019,3.019,0,0,1,.837-.744c.155-.124.186-.124.062.031-.248.31.031.124.837-.527.434-.4,1.054-.9,1.365-1.147a25.323,25.323,0,0,0,2.14-1.954c.186-.248.714-.775,1.117-1.209.434-.434.992-1.023,1.24-1.3.992-1.085,1.458-1.612,1.519-1.55a3,3,0,0,1-.589.837c-.527.682-.558.713-.124.248.465-.5.775-.62.465-.186a.644.644,0,0,0-.155.372c0,.124.031.124.124.031.279-.217.124,0-.341.558a6.742,6.742,0,0,0-.713,1.023,4.173,4.173,0,0,1-.558.868A7.2,7.2,0,0,1,85.563,23.419Zm-15.847,4.9c0,.031.093-.031,1.179-.775a16.724,16.724,0,0,0,1.923-1.395,5.428,5.428,0,0,1,.714-.589,24.8,24.8,0,0,0,2.543-2.636,4.241,4.241,0,0,0,.651-2.109c-.062-.4-.186-.527-.713-.682-.745-.186-1.3.186-2.605,1.8a23.84,23.84,0,0,0-2.76,4.125A13.264,13.264,0,0,0,69.716,28.318Zm13.056-2.543c-.5.558-.558.651-.217.31a8.167,8.167,0,0,0,.745-.775C83.764,24.752,83.486,24.969,82.772,25.776Zm32.468-1.427a1.111,1.111,0,0,0-.341.527.328.328,0,0,1-.124.279.1.1,0,0,0-.093.093,7.758,7.758,0,0,1-.868,1.054,9.854,9.854,0,0,0-.9,1.055,7.3,7.3,0,0,1-1.582,1.519c-.031-.031-.093.031-.093.093,0,.372-2.171,1.954-3.473,2.512a3.457,3.457,0,0,1-2.977.249c-.372-.155-.869-.589-.9-.837a.893.893,0,0,0-.248-.341A2.037,2.037,0,0,1,103.084,29a5.015,5.015,0,0,1,.341-1.8c.031-.093.186-.465.31-.837a41.75,41.75,0,0,1,1.705-4l.434-.837-.31.217a3.552,3.552,0,0,0-.682.683c-.248.4-.372.527-.62.558-.248.062-.527.28-1.24.992a5.866,5.866,0,0,1-1.054.9.142.142,0,0,0-.124.155c0,.186-.341.683-.341.5,0-.031-.093.062-.186.217s-.465.62-.806,1.054c-.372.434-1.116,1.4-1.705,2.17a12.059,12.059,0,0,1-2.326,2.636c-.806.713-1.023.775-1.4.558a2.092,2.092,0,0,1-.434-.28.366.366,0,0,0-.186-.155c-.124,0-.186-.341-.093-.4.063-.031.063-.093-.031-.155-.527-.4-.558-1.21-.031-2.295.186-.341.341-.651.4-.651.124,0,.124,0-.186.651a2.937,2.937,0,0,0-.341,1.644c.062.093.093.093.093-.031a2.868,2.868,0,0,1,.186-.589.9.9,0,0,0,.155-.62c-.062-.155,0-.31.372-.806.4-.589.5-.837.217-.589-.093.062-.155.062-.155,0a.082.082,0,0,1,.093-.093,1.728,1.728,0,0,0,.279-.372,3.625,3.625,0,0,1,.4-.682,13.842,13.842,0,0,0,.9-1.272,18.992,18.992,0,0,1,1.4-1.922.381.381,0,0,0,.124-.248,3.583,3.583,0,0,1,.5-.806,3.509,3.509,0,0,0,.527-.713,14.381,14.381,0,0,1,1.736-2.14,5.74,5.74,0,0,1,1.117-1.023,1.5,1.5,0,0,0,.589-.341,1.486,1.486,0,0,1,1.55-.434,1.318,1.318,0,0,1,.589.248,1.968,1.968,0,0,0,.434.31,2.119,2.119,0,0,1,.558.745,2.266,2.266,0,0,0,.4.589,2.267,2.267,0,0,1,.31.279.741.741,0,0,0,.341.217c.186,0,.4.589.4,1.054a5.328,5.328,0,0,1-.31,1.365c-.186.465-.465,1.271-.62,1.736-.155.5-.558,1.52-.868,2.326a9.792,9.792,0,0,0-.93,3.35c0,.5,0,.558.217.589a2.475,2.475,0,0,0,1.55-.31,17.317,17.317,0,0,0,4.435-2.977c.465-.435.775-.62.837-.558.031.062.4-.248.961-.775.62-.62.9-.837.931-.744.062.093-.031.248-.124.341a.664.664,0,0,0-.186.28,5.046,5.046,0,0,0,.589-.5,2.339,2.339,0,0,1,.713-.589c.093-.031.218-.093.249-.186a1.155,1.155,0,0,1,.589-.62C115.551,24.008,115.519,24.1,115.24,24.349Zm-10.947-4.993a11.918,11.918,0,0,0-1.613,1.3c-.185.217-.341.217-.248.031.031-.093.031-.124-.062-.093-.062.031-.093.155-.093.217,0,.186-.341.589-1.4,1.736a18.888,18.888,0,0,0-1.4,1.706c-.465.62-.9,1.178-.962,1.271a22.255,22.255,0,0,0-1.8,3.07c0,.155.186-.032,1.054-1.055,1.644-1.984,2.016-2.387,2.047-2.015,0,.062.031.031.062-.062a.232.232,0,0,0,0-.279,3.928,3.928,0,0,1,.806-1.054c.775-.837.9-.962,1.116-.931s.217,0,.124-.124c-.124-.124-.031-.248.744-1.023a4.528,4.528,0,0,0,1.272-1.768C104.138,19.79,104.293,19.387,104.293,19.356Zm-7.1,6.047c0,.155.093.093.217-.093.062-.093.093-.186.031-.217s-.093,0-.093.093c0,.062-.031.124-.093.124C97.223,25.311,97.192,25.372,97.192,25.4ZM102,23.574a21.169,21.169,0,0,0-1.736,1.923c.031,0,.5-.527,1.085-1.148.682-.745,1.085-1.148,1.21-1.148.093,0,.155-.031.124-.093a.783.783,0,0,1,.155-.341A7.367,7.367,0,0,0,102,23.574Zm-.589,1.21c-.031-.124-.062-.155-.155-.062-.093.062-.093.093,0,.217C101.378,25.094,101.471,25,101.409,24.783Zm28.22-1.364c-.434.589-4,4.217-4.59,4.713a25.568,25.568,0,0,1-4.063,2.7c-.5.28-1.023.558-1.147.62-.837.558-4.063,1.054-4.62.745a.351.351,0,0,0-.31-.093c-.248.155-1.953-1.333-2.388-2.078-.155-.279-.31-.4-.5-.434-.31-.062-.31-.124-.031-.279.186-.062.217-.155.186-.279a6.156,6.156,0,0,1,.62-3.938,21.8,21.8,0,0,1,2.636-4.187c.155-.155.465-.527.744-.837.683-.837,1.3-1.427,1.582-1.457a1.689,1.689,0,0,1,.775.031c.279.062.682.155.9.186a3.867,3.867,0,0,1,1.953,1.179c.9.868,1.179,1.427,1.086,2.171a4.513,4.513,0,0,1-.869,2.17,12.045,12.045,0,0,1-2.48,2.543,21.774,21.774,0,0,1-4.745,2.729,2.8,2.8,0,0,0-.589.341c0,.341.93.62,1.8.527a13.252,13.252,0,0,0,5.923-2.2,5.073,5.073,0,0,1,.868-.465c.186,0,.651-.372.651-.5a3.019,3.019,0,0,1,.837-.744c.155-.124.186-.124.062.031-.248.31.031.124.837-.527.434-.4,1.054-.9,1.364-1.147a25.431,25.431,0,0,0,2.14-1.954c.186-.248.713-.775,1.116-1.209.434-.434.993-1.023,1.24-1.3.992-1.085,1.457-1.612,1.519-1.55a2.988,2.988,0,0,1-.589.837c-.527.682-.558.713-.124.248.465-.5.775-.62.465-.186a.649.649,0,0,0-.155.372c0,.124.032.124.124.031.279-.217.124,0-.341.558a6.791,6.791,0,0,0-.713,1.023,4.173,4.173,0,0,1-.558.868A7.193,7.193,0,0,1,129.629,23.419Zm-15.846,4.9c0,.031.093-.031,1.178-.775a16.693,16.693,0,0,0,1.923-1.395,5.4,5.4,0,0,1,.713-.589,24.669,24.669,0,0,0,2.543-2.636,4.243,4.243,0,0,0,.652-2.109c-.062-.4-.186-.527-.714-.682-.744-.186-1.3.186-2.6,1.8a23.847,23.847,0,0,0-2.76,4.125A13.244,13.244,0,0,0,113.783,28.318Zm13.056-2.543c-.5.558-.558.651-.217.31a8.151,8.151,0,0,0,.744-.775C127.831,24.752,127.551,24.969,126.838,25.776Zm16.28-2.822a2.772,2.772,0,0,1-.775,1.271c-.744.869-1.054,1.055-1.83,1.117a1.445,1.445,0,0,1-.806-.062c-.093-.062-.279-.155-.4-.218a5.451,5.451,0,0,1-1.767-2.481,10.134,10.134,0,0,1-.186-1.426,6.1,6.1,0,0,0-.124-1.054c-.062-.062-.124-.062-.341.062-.186.093-.248.155-.217.217s.031.062-.031.031c-.124-.062-.527.31-.4.4.062.031.062.031-.031.031-.124-.031-.714.527-1.086.993-.093.124-.186.217-.248.217a.858.858,0,0,0-.4.465.288.288,0,0,1-.155.217.233.233,0,0,0-.155.217c.031.062-.032.186-.093.28a12.013,12.013,0,0,0-1.085,1.675c-.31.5-.589.961-.62,1.054a1.635,1.635,0,0,0-.217.465,10.674,10.674,0,0,1-.962,1.985c-.248.434-.558.961-.651,1.116-.062.155-.341.62-.558.992-.248.4-.5.868-.589,1.054-.217.434-.806,1.116-.993,1.116a.682.682,0,0,1-.248-.031.254.254,0,0,1-.186-.124.485.485,0,0,0-.249-.155.384.384,0,0,1-.248-.155,1.635,1.635,0,0,0-.248-.434l-.155-.31.155-.713a27.178,27.178,0,0,1,1.8-5.148c.155-.372.4-.992.558-1.364.155-.341.4-.992.589-1.4.186-.434.466-1.117.651-1.551a23.985,23.985,0,0,1,1.086-2.2c.155-.31.434-.837.62-1.21a2.853,2.853,0,0,1,.465-.775.614.614,0,0,0,.124-.248c0-.031.062-.093.155-.093.806-.155.806-.155.931.031a.452.452,0,0,0,.248.155c.155,0,.155.249,0,.558a.943.943,0,0,0-.093.341,3.193,3.193,0,0,1-.341.682,15.2,15.2,0,0,0-1.271,2.636c-.124.341-.5,1.271-.837,2.078a9.388,9.388,0,0,0-.714,1.892,3.377,3.377,0,0,0,.341-.5c.31-.466.5-.652.372-.31a.667.667,0,0,1-.124.217c-.062.093-.806,1.334-.962,1.644-.279.589-.062.341.558-.713.372-.558.868-1.4,1.148-1.768a33.377,33.377,0,0,1,3.225-3.938c.28-.248.466-.434.434-.434a6.516,6.516,0,0,0-1.116.868,31.9,31.9,0,0,0-2.543,3.195c-.341.558-.651.868-.5.527a38.508,38.508,0,0,1,2.45-3.256,5.743,5.743,0,0,1,1.737-1.55,1.591,1.591,0,0,1,1.519.31.89.89,0,0,0,.217.249,2.183,2.183,0,0,1,.682,1.085,15.067,15.067,0,0,1,.31,1.613c.217,1.209.4,1.8.62,1.923a1.4,1.4,0,0,0,.527,0c.372-.031.528-.093,1.179-.527a15.028,15.028,0,0,0,1.271-1.023C143.3,21.962,143.367,21.992,143.119,22.953Zm-15.041,7.722a.392.392,0,0,0-.124.217.03.03,0,0,0,.031.031,1.868,1.868,0,0,0,.124-.186C128.2,30.582,128.171,30.582,128.078,30.676Zm2.512-6.451c0-.031-.062-.031-.155-.031s-.155.093-.217.248a.535.535,0,0,0-.062.218c.031,0,0,.093-.062.185a7.238,7.238,0,0,0-.589,1.365c.031.031.062,0,.093-.031.062-.031.062-.031.062.031-.031.062-.093.093-.124.062-.062,0-.093.031-.124.093a10.178,10.178,0,0,1-.4,1.023c-.4.961-.558,1.427-.434,1.333.031-.031.062,0,.031.062s-.062.093-.124.093c-.031-.031-.062-.031,0,.031.062.093,0,.4-.093.341q-.046,0,0,.093c.031.062,0,.124-.093.124-.062,0-.093.031-.062.124a.7.7,0,0,1-.062.4c-.155.341-.155.4.031.124.062-.124.341-.775.589-1.457s.5-1.271.527-1.334a2.041,2.041,0,0,0,.217-.558c.063-.248.155-.5.217-.5a.44.44,0,0,0,.063-.217,1.129,1.129,0,0,1,.155-.4A8.189,8.189,0,0,0,130.59,24.225Zm-.217-.155V24.1c.032,0,.062-.093.124-.186.093-.155.093-.155-.031-.062C130.4,23.946,130.342,24.008,130.373,24.07Zm.217-.558a.234.234,0,0,0-.062.124c.031.124.062.093.124-.062C130.652,23.512,130.652,23.481,130.59,23.512Zm16.281,8.466a7.685,7.685,0,0,1-2.636,1.519h-.465a3.089,3.089,0,0,1-2.512-1.3,2.715,2.715,0,0,1-.4-.589,30.413,30.413,0,0,1,.62-3.411c.062-.217.155-.62.248-.869.062-.248.217-.713.31-.992.124-.31.341-.9.5-1.334a11.424,11.424,0,0,1,.527-1.271c.124-.248.434-.9.682-1.427a17.111,17.111,0,0,1,1.427-2.667c.4-.558.465-.62.744-.651.249-.031.4.031.9.372l.589.372.031.372a2.032,2.032,0,0,1-.186.713c-.124.217-.31.62-.465.9a9.089,9.089,0,0,1-.5.962c-.124.248-.4.745-.589,1.116-.217.4-.465.837-.558,1.023s-.28.558-.4.837-.28.62-.341.714a19.288,19.288,0,0,0-1.427,4.279c-.062.28-.124.435-.186.435a.141.141,0,0,0-.155.124c0,.062.031.062.093.031.155-.093.217.155.093.31a1.2,1.2,0,0,0,0,.5l.032.372.4-.093a6.987,6.987,0,0,0,2.418-1.581,45.527,45.527,0,0,0,7.412-8.714,3.564,3.564,0,0,1,.62-.868c.062,0,.186-.186.31-.4s.217-.372.248-.341c.093.062-.372.931-.527.962-.062,0-.093.062-.062.093.062.031-.124.4-.372.775-.248.434-.465.775-.465.806.031.062.093-.031.155-.155.093-.124.185-.31.248-.372.031-.062.217-.341.372-.62.372-.62.5-.775.558-.62a.273.273,0,0,1-.062.248,4.094,4.094,0,0,0-.558.806c-.372.589-1.178,1.83-1.519,2.295a.659.659,0,0,0-.124.31c-.031.155,0,.124.186-.062a15.77,15.77,0,0,0,1.675-2.45c-.062-.062-.031-.062.031-.062.093.062.31-.341.218-.434-.032-.031,0-.155.093-.248l.124-.217.031.31c0,.5-.28,1.085-2.264,4.186a19.034,19.034,0,0,1-2.2,2.915,10.915,10.915,0,0,1-1.4,1.519.193.193,0,0,0-.124.186A10.087,10.087,0,0,1,146.871,31.978Zm.558-17.366a21.739,21.739,0,0,1,2.853-3.69c.775-.713.93-.744,1.209-.124.155.31.186.434.124.558a1.093,1.093,0,0,0-.093.372,2.244,2.244,0,0,1-.435.775,16.227,16.227,0,0,0-1.519,2.419c-.589,1.147-.9,1.55-1.054,1.364a1.074,1.074,0,0,0-.372-.031.582.582,0,0,1-.527-.248,1.23,1.23,0,0,1-.249-.372c-.031-.031-.093-.124-.155-.186C147.057,15.356,147.088,15.294,147.429,14.612Zm23.351,9.737a1.1,1.1,0,0,0-.341.527.328.328,0,0,1-.124.279.1.1,0,0,0-.093.093,7.76,7.76,0,0,1-.868,1.054,9.855,9.855,0,0,0-.9,1.055,7.3,7.3,0,0,1-1.582,1.519c-.031-.031-.093.031-.093.093,0,.372-2.171,1.954-3.473,2.512a3.457,3.457,0,0,1-2.977.249c-.372-.155-.868-.589-.9-.837a.893.893,0,0,0-.248-.341A2.04,2.04,0,0,1,158.624,29a5.015,5.015,0,0,1,.341-1.8c.031-.093.186-.465.31-.837a41.744,41.744,0,0,1,1.705-4l.434-.837-.31.217a3.572,3.572,0,0,0-.682.683c-.248.4-.372.527-.62.558-.248.062-.527.28-1.24.992a5.865,5.865,0,0,1-1.054.9.142.142,0,0,0-.124.155c0,.186-.341.683-.341.5,0-.031-.093.062-.186.217s-.465.62-.806,1.054c-.372.434-1.116,1.4-1.705,2.17a12.059,12.059,0,0,1-2.326,2.636c-.806.713-1.023.775-1.4.558a2.092,2.092,0,0,1-.434-.28A.367.367,0,0,0,150,31.73c-.124,0-.186-.341-.093-.4.062-.031.062-.093-.031-.155-.527-.4-.558-1.21-.031-2.295.186-.341.341-.651.4-.651.124,0,.124,0-.186.651a2.929,2.929,0,0,0-.341,1.644c.062.093.093.093.093-.031A2.868,2.868,0,0,1,150,29.9a.9.9,0,0,0,.155-.62c-.062-.155,0-.31.372-.806.4-.589.5-.837.217-.589-.093.062-.155.062-.155,0a.082.082,0,0,1,.093-.093,1.745,1.745,0,0,0,.28-.372,3.588,3.588,0,0,1,.4-.682,13.845,13.845,0,0,0,.9-1.272,18.869,18.869,0,0,1,1.4-1.922.383.383,0,0,0,.124-.248,3.57,3.57,0,0,1,.5-.806,3.522,3.522,0,0,0,.527-.713,14.38,14.38,0,0,1,1.736-2.14,5.742,5.742,0,0,1,1.117-1.023,1.5,1.5,0,0,0,.589-.341,1.486,1.486,0,0,1,1.55-.434,1.319,1.319,0,0,1,.589.248,1.969,1.969,0,0,0,.434.31,2.119,2.119,0,0,1,.558.745,2.282,2.282,0,0,0,.4.589,2.267,2.267,0,0,1,.31.279.741.741,0,0,0,.341.217c.186,0,.4.589.4,1.054a5.328,5.328,0,0,1-.31,1.365c-.186.465-.465,1.271-.62,1.736-.155.5-.558,1.52-.868,2.326a9.791,9.791,0,0,0-.93,3.35c0,.5,0,.558.217.589a2.474,2.474,0,0,0,1.55-.31,17.306,17.306,0,0,0,4.435-2.977c.465-.435.775-.62.837-.558.031.062.4-.248.961-.775.62-.62.9-.837.931-.744.062.093-.031.248-.124.341a.664.664,0,0,0-.186.28,5.043,5.043,0,0,0,.589-.5,2.331,2.331,0,0,1,.714-.589c.093-.031.217-.093.248-.186a1.155,1.155,0,0,1,.589-.62C171.091,24.008,171.06,24.1,170.78,24.349Zm-19.568,1.116c0,.062.093.093.217.093a.994.994,0,0,0,.186-.062c-.031,0-.124-.062-.248-.093S151.213,25.4,151.213,25.465Zm8.621-6.109a11.875,11.875,0,0,0-1.612,1.3c-.186.217-.341.217-.249.031.031-.093.031-.124-.062-.093-.062.031-.093.155-.093.217,0,.186-.341.589-1.4,1.736a18.871,18.871,0,0,0-1.4,1.706c-.465.62-.9,1.178-.962,1.271a22.258,22.258,0,0,0-1.8,3.07c0,.155.186-.032,1.054-1.055,1.644-1.984,2.016-2.388,2.047-2.015,0,.062.031.031.062-.062a.232.232,0,0,0,0-.279,3.928,3.928,0,0,1,.806-1.054c.775-.837.9-.962,1.116-.931s.217,0,.124-.124c-.124-.124-.031-.248.745-1.023a4.532,4.532,0,0,0,1.271-1.768C159.679,19.79,159.833,19.387,159.833,19.356Zm-7.1,6.047c0,.155.093.093.217-.093.062-.093.093-.186.031-.217s-.093,0-.093.093c0,.062-.031.124-.093.124C152.763,25.311,152.732,25.372,152.732,25.4Zm4.807-1.83A21.29,21.29,0,0,0,155.8,25.5c.031,0,.5-.527,1.085-1.148.682-.745,1.085-1.148,1.21-1.148.093,0,.155-.031.124-.093a.78.78,0,0,1,.155-.341A7.367,7.367,0,0,0,157.539,23.574Zm-.589,1.21c-.031-.124-.062-.155-.155-.062-.093.062-.093.093,0,.217C156.918,25.094,157.012,25,156.949,24.783ZM184.518,26.3c-.341.372-.5.155-.186-.341l.217-.372-.279.248a8.39,8.39,0,0,0-.868,1.21,75.874,75.874,0,0,1-5.179,6.45,2.985,2.985,0,0,0-.682.745.859.859,0,0,1-.186.372c-.063.093-.093.185-.063.185a9.533,9.533,0,0,0,1.334-1.116c.775-.806,1.767-1.985,2.264-2.6a26.817,26.817,0,0,1,2.915-3.629,6.221,6.221,0,0,1-.589,1.023c-.341.465-.775,1.116-.992,1.488a49.663,49.663,0,0,1-3.473,4.372c-.713.745-2.2,2.14-2.884,2.729a12.677,12.677,0,0,1-2.822,1.83c-.155.062-.434.155-.62.248a3.977,3.977,0,0,1-1.179.186,2.182,2.182,0,0,1-1.458-.248,4.742,4.742,0,0,1-2.574-2.574,10.183,10.183,0,0,0-.4-.962,7.592,7.592,0,0,1-.217-4.031,46.6,46.6,0,0,1,2.884-9.242c.155-.372.31-.713.31-.745a54.541,54.541,0,0,1,3.318-6.388c.341-.558.682-1.21.806-1.427C174.285,13,181.076,2.487,185.82.129a1.613,1.613,0,0,1,1.892.5c.589.9.62,1.023.558,1.55a9.036,9.036,0,0,1-.992,2.667c-.992,2.14-4,7.691-4.931,9.148-.063.062-.434.713-.869,1.4s-1.054,1.705-1.426,2.233l-1.24,1.861a84.591,84.591,0,0,1-6.792,8.683,4.153,4.153,0,0,1-2.636,1.4c-.279-.062-.279-.062-.527.745-.124.434-.341,1.427-.5,2.17-.372,2.264-.248,3.6.465,4.621a.919.919,0,0,0,.714.5c.279.031.62.062.806.062a8.97,8.97,0,0,0,3.5-1.613,34.413,34.413,0,0,0,4.868-4.776,8.686,8.686,0,0,1,1.458-1.55c.186-.031.558-.4.868-.837a5.284,5.284,0,0,1,.806-.9,32.824,32.824,0,0,0,2.791-3.567,8.56,8.56,0,0,1,.62-.868c.248-.217.279.093.062.465-.217.31-.217.4-.031.31C185.728,24.1,185.138,25.651,184.518,26.3Zm-17.025,4.9c-.031-.093-.093.062-.155.341a2.872,2.872,0,0,0-.124.682c0,.093.062-.093.155-.372C167.431,31.575,167.493,31.264,167.493,31.2Zm.465-2.109a.824.824,0,0,0-.093.31c0,.062-.093.4-.186.745-.186.589-.248.962-.155.837.031-.031.155-.527.31-1.085S168.021,28.969,167.958,29.094Zm.372-2.419c.031.124.465-.775.589-1.116a7.593,7.593,0,0,1,.341-.992c.155-.372.372-.93.527-1.24.124-.341.31-.806.4-1.023a5.987,5.987,0,0,0,.4-.9c.124-.248.465-.992.806-1.675.31-.62.651-1.3.713-1.488.062-.155.372-.714.651-1.21a8.863,8.863,0,0,0,.558-.992,1.288,1.288,0,0,1,.217-.372,1.026,1.026,0,0,0,.28-.4c-.032-.093.279-.5.372-.5.062,0,.155-.093.217-.186.093-.155.093-.155-.062-.031-.124.124-.124.124-.124,0,0-.093.032-.217.093-.248a5.652,5.652,0,0,0,.372-.558,13.367,13.367,0,0,1,1.085-1.582,10.776,10.776,0,0,0,.837-1.178,1.255,1.255,0,0,1,.217-.372c.093-.186.155-.341.155-.341-.062,0-1.582,2.171-2.419,3.442a65.08,65.08,0,0,0-4.807,9.148C169.229,24.1,168.33,26.52,168.33,26.675Zm1.365-2.418c.341-.869.558-1.52.527-1.457-.093.093-1.24,2.977-1.271,3.225C168.889,26.334,169.168,25.62,169.7,24.256Zm7.783-12.095c-.434.527-1.892,2.729-2.512,3.783-1.271,2.233-2.419,4.4-2.481,4.652a15.058,15.058,0,0,1-1.179,2.76c-.279.683-1.519,3.907-1.612,4.311-.062.248-.032.248.434-.155a42.418,42.418,0,0,0,5.52-6.574c.806-1.086,1.613-2.2,1.83-2.481.186-.249.589-.806.868-1.24a12.879,12.879,0,0,1,.992-1.427,27.894,27.894,0,0,0,2.357-3.66c1.333-2.2,2.326-3.969,3.349-5.954,1.085-2.14,1.178-2.357,1.116-2.449-.031-.032,0-.124.062-.186a3.394,3.394,0,0,0,.558-1.582l.093-.651-.31.217a4.331,4.331,0,0,0-.558.434c-.155.155-.527.5-.837.775a39.7,39.7,0,0,0-3.256,3.38C181.262,6.89,177.6,12.038,177.479,12.162Zm-7.1,10.327c.031-.093.031-.124-.031-.093a.21.21,0,0,0-.093.155C170.284,22.705,170.346,22.675,170.377,22.488Zm.093-.31a2.138,2.138,0,0,0,.28-.5c.093-.248.124-.341.031-.217A2.427,2.427,0,0,0,170.47,22.179Zm.775-1.613a1.172,1.172,0,0,0,.155-.248c.093-.186.093-.186-.031-.062-.093.093-.155.186-.124.248Zm1.085-2.14.124-.279-.186.186a.708.708,0,0,0-.155.31C172.114,18.767,172.176,18.705,172.331,18.426Zm.186-.341c.062,0,.186-.248.341-.527.124-.279.217-.5.155-.465C172.889,17.185,172.424,18.085,172.517,18.085Zm.775-1.271a3.675,3.675,0,0,1,.4-.714c.155-.279.279-.5.217-.5s-.093.031-.093.062a2.36,2.36,0,0,1-.28.465,1.624,1.624,0,0,0-.31.62C173.168,16.968,173.168,16.968,173.292,16.814Zm.806-1.489c.031-.093,0-.124-.031-.093a.416.416,0,0,0-.093.155C174.005,15.542,174.037,15.511,174.1,15.325Zm.465-.992a1.165,1.165,0,0,0,.155-.249c.124-.185.093-.185-.031-.062a.452.452,0,0,0-.155.248C174.564,14.333,174.564,14.364,174.564,14.333Zm2.667-2.76a.526.526,0,0,0,.186-.217c0-.124-.062-.093-.217.155C177.044,11.727,177.044,11.727,177.231,11.572Zm6.729-1.364c-.093.062-.279.465-.217.465.032,0,.124-.124.186-.279S184.022,10.146,183.96,10.208Zm29.956,6.822c.558,1.427-.279,3.752-2.667,7.474a50.984,50.984,0,0,1-7.1,8.032,11.039,11.039,0,0,1-4.217,2.388,4.055,4.055,0,0,1-2.636-.434l-.5-.31-.372.683c-.4.775-1.644,3.5-2.109,4.62-.155.4-.372.992-.527,1.3a18.952,18.952,0,0,0-1.3,5.613h-.558c-.434-.031-.589-.062-.682-.185a1.03,1.03,0,0,0-.4-.28c-.155-.062-.341-.186-.372-.31a3.112,3.112,0,0,0-.31-.5c-.248-.4-.185-.837.249-2.512.465-1.8,2.6-8.559,3.132-9.83.124-.28.434-1.117.713-1.83a8.208,8.208,0,0,1,.714-1.488,1.288,1.288,0,0,0,.279-.62c.062-.248.186-.651.279-.9s.4-.992.683-1.644a39.116,39.116,0,0,1,1.892-4.186,1.557,1.557,0,0,0,.217-.527,3.454,3.454,0,0,1,.31-.651c.155-.28.62-1.117.993-1.861.4-.714.806-1.489.931-1.675a3.8,3.8,0,0,0,.4-.869,2.934,2.934,0,0,1,.31-.682,15.246,15.246,0,0,0,1.054-2.016.951.951,0,0,1,1.179-.682,1.45,1.45,0,0,1,.651.155,1.2,1.2,0,0,0,.4.341c.341.217.372.28.341.683a2.173,2.173,0,0,1-.28.744,45.3,45.3,0,0,0-3.721,6.513c-.837,1.767-2.543,5.737-2.512,5.8a4.617,4.617,0,0,0,.682-.931,21.33,21.33,0,0,1,1.8-2.388,11.313,11.313,0,0,0,1.054-1.271c.465-.589,1.24-1.551,1.737-2.109a10.426,10.426,0,0,0,.93-1.178,1.866,1.866,0,0,1,.465-.5c.248-.186.992-.837,1.613-1.427a9.639,9.639,0,0,1,3.132-2.109,2.21,2.21,0,0,1,1.488-.186,2.99,2.99,0,0,1,1.117.28,1.013,1.013,0,0,0,.465.217C213.172,15.821,213.7,16.441,213.916,17.031Zm-18.2,12.931a49.466,49.466,0,0,0,1.8-4.745,15.071,15.071,0,0,0-1.427,3.1,14.807,14.807,0,0,1-.745,1.923c-.155.372-.589,1.644-1.023,2.853s-.837,2.295-.9,2.388a8.3,8.3,0,0,0-.341.993c-.124.434-.279.868-.31.992-.062.124-.062.217-.031.249a6.24,6.24,0,0,0,.465-.992,14.043,14.043,0,0,1,.651-1.427,2.824,2.824,0,0,0,.341-1.023,6.886,6.886,0,0,1,.4-1.4,14.853,14.853,0,0,0,.93-2.418A1.99,1.99,0,0,1,195.712,29.962Zm-.744,2.729c-.032-.031-.062,0-.062.124,0,.093,0,.124.062.062A.2.2,0,0,0,194.969,32.691Zm1.892-.558c.248-.4.868-1.427,1.395-2.295a51.215,51.215,0,0,1,10.73-13.025c.868-.714,1.271-.992,1.551-1.023,1.21-.217,1.178-.217.682-.217-1.054-.031-2.512.744-4.466,2.326a11.762,11.762,0,0,0-1.209,1.085c-.032.062-.4.527-.837,1.023a16.348,16.348,0,0,0-2.047,2.45c.062,0,.124,0,.124.031.062.093-.31.682-.434.713-.186.032-.186,0,.031-.372.341-.5.032-.217-.434.4-.217.31-.4.62-.372.682.032.031-.124.217-.341.4-.341.279-.372.341-.372.713,0,.249-.062.372-.093.341-.062-.031-.093-.124-.093-.248.031-.124.031-.124-.093,0a.333.333,0,0,0-.062.279c.032.062-.062.124-.155.186-.124.031-.249.248-.31.434a3.814,3.814,0,0,1-.465.962,3.133,3.133,0,0,0-.372.744c0,.217-.31.4-.341.217,0-.062-.124.032-.248.186-.093.186-.186.372-.124.4,0,.031.031,0,.062-.062,0-.062.031-.124.093-.124.186.031.093.28-.185.5-.155.124-.249.248-.249.31a1.806,1.806,0,0,1-.372.714c-.218.372-.62,1.023-.869,1.519a6.41,6.41,0,0,1-.527.962.337.337,0,0,0-.062.31C196.426,32.784,196.55,32.691,196.86,32.133Zm15.35-15.35a1.1,1.1,0,0,0-.186-.527,2.813,2.813,0,0,0-.868.217,7.38,7.38,0,0,0-2.109,1.365,41.929,41.929,0,0,0-8.869,10.637c-.9,1.4-1.8,2.853-1.985,3.194-.868,1.551-1.054,1.861-1.054,1.861a4.364,4.364,0,0,0,1.21-.062,13.3,13.3,0,0,0,4.063-2.357,2.648,2.648,0,0,1,.9-.527c.155.031.217-.031.217-.186a.277.277,0,0,1,.217-.31,9.331,9.331,0,0,0,1.892-1.488l.31-.28-.217.28c-.124.155-.155.248-.093.217a9.107,9.107,0,0,0,1.458-1.675,2.316,2.316,0,0,1,.682-.9,27.467,27.467,0,0,0,3.318-4.838,8.569,8.569,0,0,1,.652-1.675A8.173,8.173,0,0,0,212.211,16.783Zm-14.079,5.706a.7.7,0,0,0,.124-.279c0-.031-.031-.062-.093-.031a.34.34,0,0,0-.124.279C198.038,22.675,198.038,22.675,198.132,22.488Zm4.651,9.428c-.341.248-.651.5-.713.558-.031,0-.341.248-.682.5-.652.465-.992.589-.869.279.063-.093.032-.124-.031-.093s-.093.185-.093.31c.031.186-.031.279-.28.372-.341.124-.434.124-.341,0,.062-.062.031-.093-.031-.093-.031-.031-.093.062-.093.186s.031.217.062.217.341-.155.744-.341a11.015,11.015,0,0,0,2.45-1.675,2.246,2.246,0,0,1,.279-.435C203.372,31.513,203.249,31.544,202.783,31.916Zm29.585,0a4.462,4.462,0,0,1-2.419,1.612l-.806.217-.62-.217a3.03,3.03,0,0,1-2.078-1.953,3.741,3.741,0,0,1-.4-1.8,10.354,10.354,0,0,1,.279-3.69c.062-.341.155-.837.186-1.147s.124-.9.217-1.334c.186-.93.186-1.023-.031-1.147-.124-.062-.217-.031-.589.279a42.367,42.367,0,0,0-3.38,4.218c-.372.527-.93,1.271-1.21,1.644a7.385,7.385,0,0,0-.775,1.116c-.155.248-.5.837-.838,1.365-.5.868-.837,1.458-1.984,3.473a9.881,9.881,0,0,0-.558,1.023c-.062.155-.248.558-.434.931a30.95,30.95,0,0,0-1.644,3.845c.062.248,0,.372-.372.868-.465.589-.589.714-.837.683a1.979,1.979,0,0,1-.868-.466.593.593,0,0,1-.155-.372c-.031-.186-.062-.249-.185-.186-.124.031-.155-.062-.249-.62-.093-.775.124-1.892.837-4.28.249-.868.528-1.861.651-2.233a54.4,54.4,0,0,1,3.225-8.342,6.339,6.339,0,0,0,.341-.744c.155-.31.4-.869.558-1.24a4.681,4.681,0,0,0,.31-.745.859.859,0,0,1,.186-.4c.093-.155.4-.775.651-1.365.279-.589.745-1.519,1.023-2.046.31-.558.682-1.272.837-1.582.279-.62,3.008-5.768,4.063-7.66.31-.62.682-1.3.775-1.551a5.173,5.173,0,0,1,.341-.713,8.451,8.451,0,0,0,.527-.9c.032-.062-.031-.062-.185-.031-.186.062,0-.249.992-1.458a17.322,17.322,0,0,0,1.24-1.612c0-.093.155-.248.806-.683.527-.372,1.4-.185,1.458.31,0,.062.093.155.155.217.155.062.155.124.093.465-.093.5-.124.558-.713,1.21a21.241,21.241,0,0,0-2.45,3.442,11.807,11.807,0,0,1-1.023,1.427,3.294,3.294,0,0,0-.372.589c-.185.341-.465.806-.62,1.054a1.914,1.914,0,0,0-.279.62c.031.093-.031.186-.062.186-.062,0-.124.124-.155.28s-.093.248-.124.248c-.093-.062-.651.9-.62,1.054a.1.1,0,0,1-.093.093.264.264,0,0,0-.062.186c.031.093-.093.31-.217.466a1.264,1.264,0,0,0-.217.372.161.161,0,0,1-.062.124c-.062,0-.155.186-.217.434a7.971,7.971,0,0,1-.589,1.116,5.183,5.183,0,0,0-.434.869c-.031.062-.248.5-.5.93-.217.434-.5.962-.589,1.21-.093.217-.279.62-.4.868a1.526,1.526,0,0,0-.217.589,7.82,7.82,0,0,1-.5,1.148c-.28.589-.806,1.767-1.148,2.6-.372.868-.868,2.109-1.116,2.729-.28.651-.714,1.8-.992,2.574s-.62,1.705-.745,2.047c-.31.775-.31.9-.031.31.124-.248.248-.434.31-.4s.4-.465.4-.558c-.031-.031.031-.155.124-.248.062-.093.217-.31.31-.434a2.709,2.709,0,0,0,.341-.558c.093-.155.341-.589.589-.961a2.078,2.078,0,0,0,.4-.775c-.062-.062-.031-.093,0-.062.063.031.248-.155.4-.4.5-.745.682-.992,1.023-1.427.186-.217.341-.5.31-.558,0-.093.031-.124.062-.062s.217-.124.465-.465.372-.62.31-.651-.062-.062,0-.124a.206.206,0,0,1,.186-.031c.093.062.744-.806.651-.9-.031-.062,0-.062.062-.062s.124-.093.124-.186c0-.155.062-.217.124-.186.124.032.28-.155.806-.93a6.986,6.986,0,0,1,1.488-1.4c.62-.372,2.016-.372,2.047,0,0,.093.31.372.558.465a.35.35,0,0,1,.217.341,3.528,3.528,0,0,0,.186.651,11.2,11.2,0,0,1-.093,3.318c-.62,3.752-.651,4.466-.372,5.675a2.166,2.166,0,0,0,.31.806,2.251,2.251,0,0,0,.775-.031c1.116-.186,1.861-.744,3.349-2.449.31-.372.62-.652.651-.62.062.031.062.093.031.185a1.453,1.453,0,0,0,.124.993C233.453,30.52,233.112,31.079,232.368,31.916Zm-16.591.9c.31-.714.558-1.4.589-1.519a6.309,6.309,0,0,1,.372-1.086c.714-1.984.962-2.635,1.054-2.822.093-.217.217-.558.341-.931.062-.155.186-.465.31-.713.435-.962,1.148-2.605,1.334-3.132a16.119,16.119,0,0,1,.744-1.52,15.629,15.629,0,0,0,1.52-3.473.1.1,0,0,0-.062.031c-.124.217-.775,1.644-.775,1.675a7.7,7.7,0,0,1-.465.93,26.609,26.609,0,0,0-1.644,3.535,5.038,5.038,0,0,1-.28.62c-.155.341-.465,1.086-.713,1.675a7.248,7.248,0,0,1-.527,1.148c-.124.093-.093-.155.063-.62.124-.372.155-.465.031-.5-.124,0-.155-.124-.031-.217a.107.107,0,0,1,.155.031c.062.062.124-.031.248-.249.124-.279.124-.372.032-.465s-.063-.093.062-.124c.155,0,.372-.372.372-.714a1.386,1.386,0,0,1,.186-.4,1.489,1.489,0,0,0,.248-.5,1.49,1.49,0,0,1,.186-.4c.124-.155.124-.217.031-.279-.124-.062-.155-.062-.186.093,0,.155-.062.186-.155.155s-.186.031-.217.155c-.093.186-.093.218.031.093.093-.093.155-.093.186-.031.062.062.062.093,0,.062-.093-.062-.341.5-.31.745,0,.124,0,.124-.124,0-.124-.155-.155-.124-.248.124s-.093.28,0,.28c.124.031.124.062.062.186-.062.093-.093.093-.124.031-.063-.155-.249.093-.341.465-.031.186-.031.217.062.186.062-.031.124-.031.124.031.031.124-.186.31-.31.279-.155,0-.992,2.109-2.357,6.047-.62,1.768-1.861,5.862-1.83,6.079,0,.062.062.062.124.031.031-.031.062-.031.062.062a.2.2,0,0,1-.155.124c-.062,0-.186.279-.248.713-.186.9-.155,1.271.062.683.062-.124.186-.589.31-1.023a3.991,3.991,0,0,1,.31-.9c.155-.217.341-.837.217-.806-.031,0-.093-.124-.093-.279-.031-.186,0-.248.062-.217s.093.031.031-.031a1.577,1.577,0,0,1,.249-1.023c.186-.155.186-.093.031.248-.248.434-.248.62,0,.217.093-.186.341-.806.558-1.4.185-.589.558-1.675.868-2.418a14.741,14.741,0,0,0,.5-1.488,3.418,3.418,0,0,1,.279-.837c.218-.558.218-.652.063-.435-.155.249-.186.249-.186.124a.562.562,0,0,1,.093-.372.5.5,0,0,0,.031-.372c-.031-.093-.031-.217.032-.248.031-.031.093,0,.093.062,0,.093.062.124.124.062.062-.031.062.031.062.217-.031.124-.031.186,0,.124.031-.124.186-.155.217-.032,0,.032-.248.775-.558,1.582-.31.837-.558,1.519-.558,1.55s-.186.589-.4,1.24c-.249.652-.466,1.3-.527,1.489-.031.186-.186.651-.31,1.085s-.217.775-.217.806c.031,0,.093-.124.155-.31C215.157,34.459,215.342,33.962,215.777,32.815Zm-1.365,3.845c-.031.155-.093.372-.124.5,0,.186,0,.186.062-.031a1.844,1.844,0,0,0,.124-.527C214.5,36.443,214.5,36.443,214.412,36.66Zm.9-3.969c0,.124-.031.248-.124.28a.113.113,0,0,0-.062.155.334.334,0,0,1-.062.28c-.093.186-.093.186-.093-.155a.891.891,0,0,1,.155-.527l.155-.217Zm.062,2.357c-.032-.031-.062,0-.093.062a.959.959,0,0,0-.062.248c0,.031.031,0,.093-.062A.972.972,0,0,0,215.374,35.048Zm.682-4.372c-.093.31-.279.434-.31.185,0-.062.032-.124.062-.124.062,0,.093-.062.093-.124a.256.256,0,0,1,.093-.248C216.148,30.21,216.148,30.272,216.056,30.676Zm.341,1.178a11.819,11.819,0,0,0-.62,1.861c0,.062.5-1.271.62-1.705C216.428,31.885,216.428,31.823,216.4,31.854Zm.31-.682c.031-.124.093-.279.093-.31,0-.062-.063,0-.124.124a.947.947,0,0,0-.093.341C216.582,31.358,216.645,31.3,216.707,31.172Zm1.085-3.07c-.124.186-.837,2.047-.961,2.419-.124.5.062.124.434-.837C217.792,28.318,217.947,27.853,217.792,28.1Zm-.62-.9c0-.434.063-.5.186-.217a.382.382,0,0,1-.062.372C217.2,27.512,217.172,27.481,217.172,27.2Zm4.528-7.939a6.9,6.9,0,0,0-.558,1.179.619.619,0,0,1-.093.248c-.062.124-.217.341-.341.558-.124.186-.248.4-.217.465a.472.472,0,0,1-.124.249,3.58,3.58,0,0,0-.372.775,4.018,4.018,0,0,1-.341.775,7.809,7.809,0,0,0-.31.745c-.124.341-.341.806-.434,1.085-.249.527-.869,2.047-.869,2.109.032.124.124-.062.466-.9.217-.527.589-1.4.837-1.954.279-.558.558-1.147.62-1.3.062-.124.248-.5.434-.806.155-.279.372-.745.5-1.023.093-.279.248-.682.341-.9A8.717,8.717,0,0,0,221.7,19.263Zm-2.6,3.164c.093.186.093.186.217-.031.062-.124.124-.217.093-.249s-.093.032-.155.093c-.062.093-.124.093-.124.031a.394.394,0,0,1,.124-.217,4.973,4.973,0,0,0,.5-.962,7.157,7.157,0,0,1,.527-1.085c.124-.155.186-.31.124-.372-.031-.062-.031-.062.031-.031s.124-.031.186-.155c.093-.248-.093-.31-.217-.031a.767.767,0,0,0-.124.341,1.087,1.087,0,0,1-.155.248,2.187,2.187,0,0,0-.31.62c-.124.248-.31.745-.5,1.054A1.347,1.347,0,0,0,219.095,22.427Zm1.519-3.349c.093.155.124.124.4-.4.279-.558.31-.62.155-.589-.062,0-.124.093-.186.248a2.259,2.259,0,0,1-.155.372.413.413,0,0,0-.093.248c0,.093-.032.124-.093.093S220.552,19.015,220.614,19.077Zm.155,2.388c-.062.155-.124.279-.155.279s0-.124.062-.248c.063-.155.124-.31.155-.31S220.831,21.31,220.769,21.465Zm1.458-3.225c-.062-.032-.372.558-.341.682,0,.062.093-.062.186-.28C222.2,18.457,222.258,18.271,222.227,18.24ZM222.1,17.5c0,.155.155-.062.434-.558.5-.992.62-1.3.558-1.333-.031-.062-.093-.031-.093.031-.031.031-.217.465-.465.93A7.458,7.458,0,0,0,222.1,17.5Zm.9-.806-.217.279a1.405,1.405,0,0,0-.186.4c.032.062,0,.124-.062.124-.031,0-.093.093-.093.186-.031.155-.031.186.062.062a2.616,2.616,0,0,0,.279-.589Zm.124-1.24c.031.217.279-.186.806-1.21,1.116-2.2,1.116-2.233.992-2.2a2.818,2.818,0,0,0-.4.62c-.186.372-.558,1.116-.868,1.675A7.9,7.9,0,0,0,223.126,15.449Zm37.089-7.132c-.465.062-1.24.093-1.705.124-.806.031-1.52.062-2.016.093-.248.434-.465.837-.714,1.271-2.326,4.4-2.636,5.055-3.38,6.792-.5,1.209-1.271,2.884-1.613,3.535a93.41,93.41,0,0,0-4.248,12c-.186.775-.465,1.767-.62,2.232a32.156,32.156,0,0,0-1.24,9.459,3.481,3.481,0,0,0,.4,1.613,3.323,3.323,0,0,0,.651-.372,3.194,3.194,0,0,1,.682-.341c.217.031.589,1.427.4,1.582a.882.882,0,0,0-.155.341c-.031.248-.682.527-1.147.434a1.53,1.53,0,0,1-.682-.248,4.781,4.781,0,0,1-.652-.435,1.065,1.065,0,0,0-.434-.248,3.622,3.622,0,0,1-.589-.713c-.869-1.24-1.023-3.163-.589-6.916a46.7,46.7,0,0,1,1.612-7.66,101.845,101.845,0,0,1,6.7-17.521c-3.473,3.845-6.419,6.357-9.52,6.667a.973.973,0,0,0-.558.124,1.934,1.934,0,0,0,.217.558,5.356,5.356,0,0,1,.558,2.326,13,13,0,0,1-.775,3.535,22.313,22.313,0,0,1-4.094,5.644A4.487,4.487,0,0,1,235,33.249c-.868.155-1.427-.186-2.016-1.148a7.1,7.1,0,0,1-.868-4.9,23.064,23.064,0,0,1,2.543-6.513c1.209-2.2,1.209-2.2,1.457-2.264a1.873,1.873,0,0,0,.434-.217c.186-.124.248-.124.4-.031a.333.333,0,0,0,.279.062.076.076,0,0,1,.124.031,1.435,1.435,0,0,0,.31.279c.248.124.434.155,1.21.093.5-.031,1.116-.124,1.364-.155,2.326-.4,6.792-1.613,12.653-9.645h-.032c0-.062-4.527.372-4.745.465-.062.032-.031.032-5.3.5-4.372.4-6.947.682-8.994.93-.868.093-3.194.186-3.473.155a.823.823,0,0,1-.558-.589c0-.062-.031-.124-.093-.124-.155.031-.124-.5,0-.62a.47.47,0,0,0,.124-.249c.062-.155.062-.155.837-.155.745,0,.775,0,1.054-.155a1.2,1.2,0,0,1,1.4.093c.124.124.186.124.589.093.248,0,1.333-.093,2.388-.186,1.086-.062,2.109-.155,2.326-.155.248-.031.372-.031.372.031,0,.031-.124.062-.248.062a2.407,2.407,0,0,0-.465.062,35.011,35.011,0,0,0,5.024-.341c.5-.031,2.109-.186,3.566-.279,1.458-.124,3.256-.279,4-.341s1.581-.124,1.8-.155a7.643,7.643,0,0,0,.869-.062l.31-.031c.124-.186.248-.372.4-.589.931-1.675,2.419-4.311,2.7-4.713a2.574,2.574,0,0,0,.4-.745.8.8,0,0,1,.868-.589c.372.031,1.179.5,1.148.651,0,.062.093.124.248.124.5.062.775,1.116.372,1.427a.491.491,0,0,0-.186.279,6.736,6.736,0,0,1-1.179,1.83,19.325,19.325,0,0,0-1.333,2.078c1.984-.155,4.342-.341,5.241-.4,1.054-.093,2.264-.124,4.869-.124,3.287,0,3.442,0,4.031.124a3.992,3.992,0,0,1,1.55.62.554.554,0,0,1,.093.341.471.471,0,0,0,.124.31c.124.062.155.31.062.651a2.358,2.358,0,0,1-1.023.745.7.7,0,0,0-.341.031,7.932,7.932,0,0,1-1.922.279c-.062,0-.31-.031-.62-.031a1.985,1.985,0,0,1-.62-.062.434.434,0,0,0-.279-.093c-.217,0-.186-.093.062-.155a8.9,8.9,0,0,0,1.8-.527,3.556,3.556,0,0,1,1.271-.5c.341-.093.4-.155.248-.186a55.414,55.414,0,0,0-5.83-.434C265.208,8.13,261.456,8.254,260.215,8.317ZM239.779,20.225a2.115,2.115,0,0,0-.651-.186c-.31-.031-.682-.062-.837-.093-.217-.062-.248-.031-.31.155-.062.124-.4.806-.775,1.488-1.954,3.473-3.225,6.977-3.225,8.807,0,1.085.217,1.179,1.148.589a11.416,11.416,0,0,0,2.915-3.163,10.29,10.29,0,0,0,2.233-4.993A4.067,4.067,0,0,0,239.779,20.225Zm8.063-11.6c0-.031-.031-.031-.093-.031a1.083,1.083,0,0,1-.4.062c-.651.031-2.729.217-3.846.341-.62.062-1.613.155-2.17.186-.558.062-1.023.124-1.054.124a9.984,9.984,0,0,0,2.015-.124c.558-.062,1.582-.124,2.264-.186s1.613-.155,2.078-.186C247.718,8.72,247.842,8.688,247.842,8.626Zm-7.349,15.32c-.031-.062-.031,0-.031.124s0,.124.031.062C240.523,24.039,240.523,23.977,240.492,23.946ZM253.362,10.7a4.555,4.555,0,0,1-.5.589,21.877,21.877,0,0,0-2.015,3.877c-.031.124-.093.217-.124.217-.062,0-.093.062-.093.155a8.973,8.973,0,0,1-1.086,2.357c-.186.4-.372.744-.372.806a3.378,3.378,0,0,1-.249.5,68.027,68.027,0,0,0-2.76,7.07,13.426,13.426,0,0,1-.9,2.264,10.753,10.753,0,0,0-.651,1.923c-.62,2.14-.652,2.357-.5,2.388.093,0-.031.4-.186.5a3.507,3.507,0,0,0-.341,1.055,2.645,2.645,0,0,0-.155,1.24c.124.341.124.372-.031.341a18.065,18.065,0,0,0-.558,4.714,8.4,8.4,0,0,1,.031,1.271c-.031,1.333.124.651.465-2.078.217-1.675.466-3.132.652-3.938.185-.682.4-1.582.465-1.953a10.022,10.022,0,0,1,.4-1.427c.124-.434.372-1.21.5-1.706.155-.5.372-1.271.527-1.736.124-.465.31-1.023.341-1.21a6.515,6.515,0,0,1,.249-.713,21.116,21.116,0,0,0,.806-2.388c.032-.155,1.4-3.69,2.3-5.861.558-1.4,2.7-5.954,3.535-7.567C253.61,10.487,253.672,10.3,253.362,10.7ZM243.9,40.164c-.062-.217-.093,0-.155.806-.062,1.21-.062,1.861.032,1.768a5.2,5.2,0,0,0,.062-1.054,6.383,6.383,0,0,1,.062-1.117A.863.863,0,0,0,243.9,40.164Zm.155-1.8c-.031-.062-.062.031-.062.155,0,.155,0,.155.062.062A.263.263,0,0,0,244.059,38.366Zm5.3-17.987c-.5,1.21-.558,1.458-.434,1.55.093.093.093.124-.062.124-.124-.031-.31.31-.682,1.3-.806,2.047-1.488,4.063-1.985,5.8-.124.465-.434,1.52-.682,2.357s-.558,1.984-.714,2.543c-.093.558-.31,1.427-.4,1.892-.124.465-.218,1.148-.28,1.519-.124,1.086.124.372.434-1.178.186-1.086.28-1.4.466-1.52.155-.124.185-.155.031-.341-.124-.186-.093-.249.093-.527a2.088,2.088,0,0,0,.217-.713c.062-.341.217-.869.868-2.915.093-.249.124-.5.062-.527-.031,0-.031-.124,0-.279.031-.093.124-.186.186-.124.124.062.31-.527.527-1.582a2.476,2.476,0,0,1,.186-.62,5.89,5.89,0,0,0,.434-1.116,16.263,16.263,0,0,1,.931-2.512,4.525,4.525,0,0,0,.279-.775,1.353,1.353,0,0,1,.186-.558,2.4,2.4,0,0,0,.217-.683c.093-.4.186-.589.248-.558.062.062.093.031.062-.093a1.717,1.717,0,0,1,.466-1.116,1.214,1.214,0,0,0,.217-.745c.031-.341.124-.651.155-.62.062,0,.155-.124.217-.279.063-.186.124-.31.186-.31a4.813,4.813,0,0,0,.466-1.271C251.315,16.007,250.261,18.178,249.361,20.38ZM248.276,8.626a.066.066,0,0,0-.062-.062c-.062,0-.093.031-.093.062s.032.062.093.062A.066.066,0,0,0,248.276,8.626Zm.465-.062c0-.031-.031-.062-.093-.062a.238.238,0,0,0-.124.062c-.031.031,0,.062.063.062C248.679,8.626,248.741,8.6,248.741,8.565Zm1.055-.093c-.093,0-.186,0-.186.032q0,.139.279,0C249.981,8.471,249.981,8.471,249.8,8.471Zm2.295-.124a12.016,12.016,0,0,0-2.047.155h.4c.248-.032.713-.062,1.023-.093A3.2,3.2,0,0,0,252.091,8.347Zm6.667,13.117c0,.031.155.372.31.775a5.686,5.686,0,0,1,.372,2.729,3.482,3.482,0,0,1-.4,1.644,8.865,8.865,0,0,1-2.109,2.853,4.657,4.657,0,0,1-2.171,1.21c-.4.093-.837.248-.962.279a1.618,1.618,0,0,1-1.147-.031c-.466-.124-1.24-.868-1.21-1.179a1.32,1.32,0,0,0-.279-.434c-.589-.745-.714-3.07-.249-4.4a13.845,13.845,0,0,1,3.567-5.272l.589-.527-.217-.31c-.124-.155-.186-.341-.155-.372.062-.124.589-.031.9.155.248.155.341.186.558.093a1.265,1.265,0,0,1,1.054.093c.31.155.961.868.93,1.054,0,.28,1.861.4,4.063.217a30.308,30.308,0,0,0,4.155-.589h.62c.031,0,.186.032.217.032a.282.282,0,0,1,.155.031.108.108,0,0,1,.062.031.1.1,0,0,1,.062.031h.031l.062.062c-.093,0-.155.031-.217.031-.31.062-.558.124-.527.155a3.28,3.28,0,0,0,.806-.124,28.324,28.324,0,0,0,.062.062c0,.031.031.124.062.124a1.324,1.324,0,0,0,.031.155c-.031-.062,0,.093,0,.124v.217a1.383,1.383,0,0,1-.031.155l-.032.031c0,.031-.031.062-.031.093-.031.031-.031.031-.031.062h-.031c0,.031-.031.062-.062.093h-.031v.031a28.216,28.216,0,0,1-8.125.682A2.064,2.064,0,0,0,258.757,21.465Zm-.868.124c-.217-.372-.279-.4-.558-.4a.685.685,0,0,1-.372-.093c-.031-.062-.124-.093-.217-.124a.312.312,0,0,1-.248-.434c0-.062,0-.124-.062-.093a10.11,10.11,0,0,0-1.427,1.4,2.105,2.105,0,0,1-.341.434,17.765,17.765,0,0,0-2.109,3.566,6.15,6.15,0,0,0-.465,3.318c.062.248.093.248.62.248a3.656,3.656,0,0,0,1.519-.4,6.827,6.827,0,0,0,2.543-1.922C258.23,25.434,258.726,23.047,257.889,21.589Zm28.965,3.721a4.227,4.227,0,0,0-2.078.372c-2.419.9-6.513,3.07-6.667,3.567-.062.124-.218.682-.372,1.24a73.5,73.5,0,0,1-5.241,13.552,32.772,32.772,0,0,1-5.954,8.4c-.837.837-3.164,2.853-3.969,3.442a27.455,27.455,0,0,1-2.3,1.551c-2.326,1.333-3.6,1.644-4.713,1.085a3.087,3.087,0,0,0-.651-.248c-.435-.031-1.334-1.52-1.3-2.109a2.79,2.79,0,0,0-.186-.806c-.124-.372-.186-.62-.124-.683s.062-.155,0-.279a5.993,5.993,0,0,1,.589-2.605c.279-.682.4-.992.465-.868.062.062.062.031.062-.124-.031-.124-.031-.217,0-.186a6.727,6.727,0,0,0,.744-1.21c1.861-3.442,5.551-7.908,10.172-12.343a83.266,83.266,0,0,1,10.823-8.714c.558-.372.558-.4.714-1.054a21.086,21.086,0,0,0,.31-7.412l-.062-.434-.466.806c-.248.466-.62,1.054-.775,1.334a6.066,6.066,0,0,1-.558.806c-.5.527-4.186,5.272-4.62,5.923-.434.682-.466.806-.28.682.372-.217-.5.9-1.612,1.985a3.573,3.573,0,0,1-2.171,1.365c-.62.093-.93.031-1.023-.249-.031-.093-.124-.124-.279-.124-.558.093-1.21-1.613-1.117-3.008a16.85,16.85,0,0,1,1.954-5.55,35.5,35.5,0,0,1,3.5-4.869,5.34,5.34,0,0,1,2.264-1.705c.186-.031.527-.093.806-.124.434-.062.527-.031,1.085.248.93.527,1.364.869,1.581,1.365l.186.434.5-.558c.341-.434.465-.527.5-.372s.124.062.527-.341c.248-.31.5-.5.558-.465.032.062-.031.186-.124.279-.155.155-.155.217-.062.217.31.031.651.31.651.558-.031.155.031.217.155.217.217.031.341.465.5,1.736a20.493,20.493,0,0,1,.062,5.489c-.062.5-.124.9-.124.9s.4-.186.9-.4a3.2,3.2,0,0,1,.992-.4,5.808,5.808,0,0,0,1.675-.651,10.115,10.115,0,0,1,4.031-.868c.558.093,1.24.465,1.148.62a.638.638,0,0,0,.217.248C288.125,25.248,287.845,25.342,286.854,25.311Zm-10.947,4.962a.265.265,0,0,0-.186.217,6.317,6.317,0,0,1-.837.744c-.651.527-.837.589-.9.465s-.093-.093-.062.032-.031.248-.217.341a2.317,2.317,0,0,0-.372.28c-.062.062-.775.651-1.581,1.271-.806.651-1.613,1.3-1.8,1.488-.155.155-1.21,1.116-2.357,2.109a84.632,84.632,0,0,0-6.016,6.016,11.443,11.443,0,0,1-.931.992c-.093.093-.341.4-.589.713-.217.31-.713.9-1.054,1.334s-.713.93-.868,1.116a27.912,27.912,0,0,0-2.915,5.582,9.921,9.921,0,0,0-.558,3.039c.032.589.186.682,1.054.744.806.032.962.186.435.341-.186.031-.249.093-.155.093a5.965,5.965,0,0,0,1.613-.5c.31-.217.5-.155.248.093a2.684,2.684,0,0,1-1.271.682c-.372.093-.434.124-.249.155a4.321,4.321,0,0,0,.993-.186,10.506,10.506,0,0,0,2.636-1.21c.589-.341,1.085-.62,1.085-.62a12.781,12.781,0,0,0,1.24-.868,28.977,28.977,0,0,0,2.543-2.171c1.3-1.3,1.055-1.116-.682.5-1.705,1.55-4.434,3.349-4.155,2.76.031-.093.093-.155.155-.155a19.158,19.158,0,0,0,2.357-1.519,45.786,45.786,0,0,0,4-3.815,15.368,15.368,0,0,0,1.519-1.861c-.248.249-.714.775-1.023,1.148a13.449,13.449,0,0,1-2.016,2.047c-.062-.031-.031-.093.031-.186a.181.181,0,0,0,.093-.217,3.512,3.512,0,0,0-.745.651c-.775.775-1.271,1.148-1.333,1.054a11.4,11.4,0,0,1,1.4-1.488,23.323,23.323,0,0,0,3.628-4.217,54.534,54.534,0,0,0,4.62-8.435,56.214,56.214,0,0,0,2.45-5.83c.093-.341.31-.993.465-1.458C276.155,30.086,276.124,30.148,275.907,30.272Zm.62-1.8c-.093-.093-1.023.527-1.21.775a.374.374,0,0,1-.31.217,19.385,19.385,0,0,0-3.443,2.512c-.186.186-.31.279-.248.217.062-.124.031-.124-.031-.093a.284.284,0,0,0-.093.155c.062.124-.186.341-.341.28a.318.318,0,0,0-.248.217c-.093.093-.155.185-.186.155-.062-.093-.589.341-.589.527s-.31.4-.527.4c-.093,0-.155.031-.155.062a31.434,31.434,0,0,1-4.4,4c-.031-.062-.031-.031,0,0,.093.155-.155.5-.279.435a9.03,9.03,0,0,0-1.861,1.8c-.124.155-.62.745-1.148,1.3a33.39,33.39,0,0,0-3.69,4.621c.031.062-.062.279-.217.5a1.7,1.7,0,0,0-.279.5c0,.093.031.062.527-.683.372-.5.9-1.178,2.3-2.853.279-.341.682-.775.9-.992s.93-.962,1.55-1.644c1.737-1.892,5.241-5.21,7.753-7.35,1.054-.868,2.946-2.326,4.062-3.132.714-.5,1.489-1.054,1.768-1.24C276.558,28.815,276.713,28.6,276.527,28.474ZM263.44,7.572a5.462,5.462,0,0,0-1.581,0c-.434.031-1.023.062-1.365.093-.837.031-.9.062-.992.124-.031,0,.062.031.217,0,.186-.031.28,0,.249.031s.062.031.279.031c.31,0,.31,0,.062-.031-.217-.031-.248-.031-.093-.062a2.058,2.058,0,0,1,.589.031,1.987,1.987,0,0,0,.992-.031,8.461,8.461,0,0,1,1.489-.155C263.378,7.634,263.44,7.6,263.44,7.572ZM259.812,57c-.031,0-.062.062-.093.155s-.031.155.031.155c.031,0,.093-.062.093-.155S259.842,57,259.812,57Zm.651-.28a.268.268,0,0,0-.186.093c-.031.062,0,.124.032.124a.22.22,0,0,0,.186-.093C260.525,56.787,260.494,56.724,260.463,56.724Zm.745-.372a.709.709,0,0,0-.31.155c-.093.062-.155.155-.093.155a.508.508,0,0,0,.279-.155C261.207,56.446,261.238,56.384,261.207,56.352Zm1.613-1.147c-.28.186-.527.372-.558.4-.031,0-.248.155-.5.31a1.459,1.459,0,0,0-.434.341c0,.062.217-.031.5-.217.248-.186.62-.465.837-.589a2.287,2.287,0,0,0,.5-.4C263.254,54.957,263.1,55.019,262.82,55.205ZM264.277,54c-.031-.031-.248.124-.5.372s-.4.434-.372.465a2.242,2.242,0,0,0,.527-.4A1.365,1.365,0,0,0,264.277,54Zm1.21-46.454a6.49,6.49,0,0,0,1.179-.062c.093-.032-2.636-.032-2.884.031-.217.031-.186.031.093.062a2.224,2.224,0,0,0,.4.031C264.309,7.572,264.867,7.572,265.487,7.541Zm-.249,45.617a3.642,3.642,0,0,0-.837.713c0,.124.341-.124.714-.465C265.3,53.189,265.363,53.066,265.238,53.158Zm1.023-1.054c-.434.4-.465.434-.341.434.031.031.248-.124.4-.341C266.789,51.7,266.728,51.67,266.262,52.1Zm.032-32.127a1.217,1.217,0,0,0,.4-.124c.093-.062-.558.062-.651.124C265.983,20.007,266.107,20.007,266.293,19.977Zm.434,30.7.248-.31-.341.279c-.31.31-.372.341-.248.341A1.162,1.162,0,0,0,266.728,50.677Zm6.76-28.84c.5-.5.528-.651.434-1.83a6.6,6.6,0,0,0-.186-1.147c-.155-.218-2.543,2.388-4,4.372a27.408,27.408,0,0,0-3.256,6.047c-.093.279-.093.279.124.155a13.8,13.8,0,0,0,1.085-1.055c.434-.5,1.054-1.178,1.4-1.488.31-.31.868-.93,1.24-1.4s.775-.962.93-1.117a15.067,15.067,0,0,0,1.148-1.271C272.9,22.519,273.364,21.962,273.487,21.837ZM268,49.53c-.062.062-.466.527-.868,1.023-.745.931-.372.589.589-.5C268.153,49.561,268.278,49.313,268,49.53ZM266.975,7.479a1.238,1.238,0,0,0,.466.062c.217-.031.4,0,.4.031s.062.062.155.062c.124,0,.124-.031.032-.062s-.093-.031,0-.062c.062-.031-.155-.062-.5-.062A3.746,3.746,0,0,0,266.975,7.479Zm.713,42.764c-.031,0-.093.062-.124.155s0,.155.031.155c.062,0,.093-.062.124-.155A.376.376,0,0,0,267.688,50.243Zm1.52-1.861c-.155.093-.155-.155,0-.341.062-.062.062-.062-.032,0-.062.062-.31.372-.527.652-.279.372-.341.527-.279.589.186.093.186.093.124-.031a.264.264,0,0,1,.093-.279c.093-.093.124-.124.185-.031.032.093.063.093.124-.031s.031-.155-.031-.093c-.062.031-.093,0-.062-.093a.2.2,0,0,1,.155-.124c.063.031.155-.031.249-.124Q269.348,48.29,269.208,48.383Zm-.4-40.78a1,1,0,0,1,.5.031,1.018,1.018,0,0,0,.434.062,12.092,12.092,0,0,1,1.984.217c.341.093.5.093.217-.031a10.535,10.535,0,0,0-3.318-.4C268.185,7.541,268.34,7.634,268.805,7.6Zm.062,39.912a.341.341,0,0,0,.093-.186c-.031-.031-.093.031-.155.124C268.743,47.576,268.774,47.607,268.867,47.514Zm2.233-2.481c-.031-.031-.155.124-.28.341-.124.249-.5.838-.806,1.334s-.589.962-.589.992.031,0,.093-.062a.321.321,0,0,1,.217-.155c.093,0,.124-.062.124-.186a.142.142,0,0,1,.124-.155c.063.031.093-.031.124-.124a.793.793,0,0,1,.217-.372.939.939,0,0,0,.248-.5.315.315,0,0,1,.186-.279.357.357,0,0,0,.155-.279.589.589,0,0,1,.124-.372C271.131,45.157,271.131,45.064,271.1,45.034Zm-.931.434c.062-.031.093-.124.062-.155s-.093,0-.124.124C270.046,45.56,270.046,45.592,270.169,45.468Zm1.271-.837c0-.031-.031-.031-.093-.062a.139.139,0,0,0-.093.124c0,.062.032.093.093.031A.1.1,0,0,0,271.441,44.63Zm.31-1.736c0-.062-.031-.062-.093.031a.61.61,0,0,0-.124.248c0,.062.031.031.093-.031A.879.879,0,0,0,271.751,42.894Zm1.054-10.3c.031,0,.093-.062.186-.155a1.566,1.566,0,0,0,.093-.155.369.369,0,0,0-.186.155C272.805,32.5,272.775,32.6,272.805,32.6Zm.465,8.311a3.272,3.272,0,0,0-.372.806c0,.124.093-.062.249-.4C273.24,41.1,273.3,40.909,273.27,40.909Zm.589-1.179c-.062-.062-.4.745-.4.868,0,.032.093-.124.217-.372A2.067,2.067,0,0,0,273.86,39.73Zm.5-17.831a3.46,3.46,0,0,0-.837,1.054,3.405,3.405,0,0,0,.527-.62C274.325,21.992,274.449,21.775,274.356,21.9Zm-.155,1.427c-.032,0-.093.062-.186.155-.062.062-.093.124-.062.124s.093-.062.155-.124C274.2,23.387,274.232,23.326,274.2,23.326Zm.434,14.607c0-.062-.093.062-.186.31-.341.837-.341.9-.062.341A1.73,1.73,0,0,0,274.635,37.932Zm.341-.745c-.031-.062-.093.062-.155.248-.155.372-.093.434.062.062C274.976,37.343,275.007,37.188,274.976,37.188ZM280.992,25.9c-.185.062-.217.155-.062.155.031,0,.093-.062.155-.093C281.116,25.9,281.085,25.868,280.992,25.9Zm.931-.372c0-.062-.589.186-.682.279s.124.031.372-.093C281.8,25.651,281.923,25.559,281.923,25.528Zm5.085-.931a5.029,5.029,0,0,0-2.512-.031,17.111,17.111,0,0,0-2.326.837c-.062.062.093.031.31-.031.186-.093.837-.31,1.426-.5a4.408,4.408,0,0,1,2.109-.249C286.729,24.69,287.071,24.66,287.008,24.6ZM300,22.953a2.772,2.772,0,0,1-.776,1.271c-.744.869-1.054,1.055-1.83,1.117a1.445,1.445,0,0,1-.806-.062c-.093-.062-.279-.155-.4-.218a5.451,5.451,0,0,1-1.767-2.481,10.135,10.135,0,0,1-.186-1.426,6.168,6.168,0,0,0-.124-1.054c-.062-.062-.124-.062-.341.062-.186.093-.249.155-.217.217s.031.062-.032.031c-.124-.062-.527.31-.4.4.062.031.062.031-.032.031-.124-.031-.713.527-1.085.993-.093.124-.186.217-.248.217a.858.858,0,0,0-.4.465.288.288,0,0,1-.155.217.233.233,0,0,0-.155.217c.031.062-.032.186-.093.28a12,12,0,0,0-1.085,1.675c-.31.5-.589.961-.62,1.054a1.635,1.635,0,0,0-.217.465,10.714,10.714,0,0,1-.962,1.985c-.248.434-.558.961-.651,1.116-.062.155-.341.62-.558.992-.248.4-.5.868-.589,1.054-.217.434-.806,1.116-.992,1.116a.688.688,0,0,1-.249-.031.254.254,0,0,1-.185-.124.489.489,0,0,0-.249-.155.383.383,0,0,1-.248-.155,1.633,1.633,0,0,0-.248-.434l-.155-.31.155-.713a27.178,27.178,0,0,1,1.8-5.148c.155-.372.4-.992.558-1.364.155-.341.4-.992.589-1.4.186-.434.465-1.117.651-1.551a23.97,23.97,0,0,1,1.086-2.2c.155-.31.434-.837.62-1.21a2.853,2.853,0,0,1,.465-.775.611.611,0,0,0,.124-.248c0-.031.062-.093.155-.093.806-.155.806-.155.931.031a.452.452,0,0,0,.248.155c.155,0,.155.249,0,.558a.947.947,0,0,0-.093.341,3.179,3.179,0,0,1-.341.682,15.2,15.2,0,0,0-1.271,2.636c-.124.341-.5,1.271-.837,2.078a9.393,9.393,0,0,0-.714,1.892,3.373,3.373,0,0,0,.341-.5c.31-.466.5-.652.372-.31a.68.68,0,0,1-.124.217c-.062.093-.806,1.334-.962,1.644-.279.589-.062.341.558-.713.372-.558.868-1.4,1.148-1.768a33.377,33.377,0,0,1,3.225-3.938,2.224,2.224,0,0,0,.434-.434,6.519,6.519,0,0,0-1.116.868,31.821,31.821,0,0,0-2.543,3.195c-.341.558-.652.868-.5.527a38.372,38.372,0,0,1,2.45-3.256,5.751,5.751,0,0,1,1.736-1.55,1.592,1.592,0,0,1,1.52.31.88.88,0,0,0,.217.249,2.187,2.187,0,0,1,.682,1.085,15.043,15.043,0,0,1,.31,1.613c.217,1.209.4,1.8.62,1.923a1.4,1.4,0,0,0,.527,0c.372-.031.527-.093,1.179-.527a15.142,15.142,0,0,0,1.271-1.023C300.188,21.962,300.25,21.992,300,22.953Zm-15.041,7.722a.392.392,0,0,0-.124.217.03.03,0,0,0,.031.031,1.874,1.874,0,0,0,.124-.186C285.086,30.582,285.055,30.582,284.961,30.676Zm2.512-6.451c0-.031-.062-.031-.155-.031s-.155.093-.217.248a.535.535,0,0,0-.062.218c.031,0,0,.093-.062.185a7.24,7.24,0,0,0-.589,1.365c.031.031.062,0,.093-.031.062-.031.062-.031.062.031-.031.062-.093.093-.124.062-.062,0-.093.031-.124.093a10.356,10.356,0,0,1-.4,1.023c-.4.961-.558,1.427-.434,1.333.031-.031.062,0,.031.062s-.062.093-.124.093c-.031-.031-.062-.031,0,.031.062.093,0,.4-.093.341q-.046,0,0,.093c.031.062,0,.124-.093.124-.062,0-.093.031-.062.124a.7.7,0,0,1-.062.4c-.155.341-.155.4.031.124.062-.124.341-.775.589-1.457s.5-1.271.527-1.334a2.061,2.061,0,0,0,.217-.558c.063-.248.155-.5.217-.5a.447.447,0,0,0,.062-.217,1.13,1.13,0,0,1,.155-.4A8.245,8.245,0,0,0,287.473,24.225Zm-.217-.155V24.1c.031,0,.062-.093.124-.186.093-.155.093-.155-.031-.062C287.287,23.946,287.225,24.008,287.256,24.07Zm.217-.558a.234.234,0,0,0-.062.124c.031.124.062.093.124-.062C287.536,23.512,287.536,23.481,287.473,23.512Zm30.112.837a1.106,1.106,0,0,0-.341.527.326.326,0,0,1-.124.279.1.1,0,0,0-.093.093,7.818,7.818,0,0,1-.868,1.054,9.815,9.815,0,0,0-.9,1.055,7.312,7.312,0,0,1-1.581,1.519c-.031-.031-.093.031-.093.093,0,.372-2.171,1.954-3.473,2.512a3.458,3.458,0,0,1-2.977.249c-.372-.155-.868-.589-.9-.837a.9.9,0,0,0-.248-.341A2.037,2.037,0,0,1,305.429,29a5.016,5.016,0,0,1,.341-1.8c.031-.093.186-.465.31-.837a41.717,41.717,0,0,1,1.705-4l.435-.837-.31.217a3.552,3.552,0,0,0-.682.683c-.248.4-.372.527-.62.558-.248.062-.528.28-1.241.992a5.888,5.888,0,0,1-1.054.9.141.141,0,0,0-.124.155c0,.186-.341.683-.341.5,0-.031-.093.062-.185.217s-.466.62-.806,1.054c-.372.434-1.117,1.4-1.706,2.17a12.025,12.025,0,0,1-2.326,2.636c-.806.713-1.023.775-1.4.558a2.131,2.131,0,0,1-.434-.28.362.362,0,0,0-.186-.155c-.124,0-.186-.341-.093-.4.062-.031.062-.093-.031-.155-.527-.4-.558-1.21-.031-2.295.186-.341.341-.651.4-.651.124,0,.124,0-.186.651a2.926,2.926,0,0,0-.341,1.644c.062.093.093.093.093-.031a2.894,2.894,0,0,1,.186-.589.9.9,0,0,0,.155-.62c-.062-.155,0-.31.372-.806.4-.589.5-.837.217-.589-.093.062-.155.062-.155,0a.082.082,0,0,1,.093-.093,1.752,1.752,0,0,0,.279-.372,3.589,3.589,0,0,1,.4-.682,13.961,13.961,0,0,0,.9-1.272,18.966,18.966,0,0,1,1.4-1.923.384.384,0,0,0,.124-.248,3.582,3.582,0,0,1,.5-.806,3.508,3.508,0,0,0,.527-.713,14.289,14.289,0,0,1,1.736-2.14,5.767,5.767,0,0,1,1.116-1.023,1.49,1.49,0,0,0,.589-.341,1.488,1.488,0,0,1,1.551-.434,1.322,1.322,0,0,1,.589.248,1.968,1.968,0,0,0,.434.31,2.111,2.111,0,0,1,.558.745,2.3,2.3,0,0,0,.4.589,2.262,2.262,0,0,1,.31.279.737.737,0,0,0,.341.217c.186,0,.4.589.4,1.054a5.318,5.318,0,0,1-.31,1.365c-.186.465-.465,1.271-.62,1.736-.155.5-.558,1.52-.868,2.326a9.8,9.8,0,0,0-.931,3.35c0,.5,0,.558.217.589a2.477,2.477,0,0,0,1.551-.31,17.3,17.3,0,0,0,4.434-2.977c.465-.435.775-.62.837-.558.031.062.4-.248.962-.775.62-.62.9-.837.93-.744.062.093-.031.248-.124.341a.658.658,0,0,0-.186.28,5.109,5.109,0,0,0,.589-.5,2.339,2.339,0,0,1,.713-.589c.093-.031.217-.093.248-.186a1.159,1.159,0,0,1,.589-.62C317.9,24.008,317.864,24.1,317.585,24.349Zm-10.947-4.993a11.879,11.879,0,0,0-1.613,1.3c-.186.217-.341.217-.248.031.031-.093.031-.124-.062-.093-.062.031-.093.155-.093.217,0,.186-.341.589-1.4,1.736a19,19,0,0,0-1.395,1.706c-.466.62-.9,1.178-.962,1.271a22.268,22.268,0,0,0-1.8,3.07c0,.155.186-.032,1.054-1.055,1.644-1.984,2.016-2.387,2.047-2.015,0,.062.031.031.062-.062a.232.232,0,0,0,0-.279,3.913,3.913,0,0,1,.806-1.054c.775-.837.9-.962,1.116-.931s.217,0,.124-.124c-.124-.124-.032-.248.744-1.023a4.524,4.524,0,0,0,1.271-1.768C306.483,19.79,306.638,19.387,306.638,19.356Zm-7.1,6.047c0,.155.093.093.217-.093.062-.093.093-.186.031-.217s-.093,0-.093.093c0,.062-.031.124-.093.124C299.568,25.311,299.537,25.372,299.537,25.4Zm4.807-1.83a21.229,21.229,0,0,0-1.737,1.923c.032,0,.5-.527,1.086-1.148.682-.745,1.085-1.148,1.209-1.148.093,0,.155-.031.124-.093a.775.775,0,0,1,.155-.341A7.265,7.265,0,0,0,304.344,23.574Zm-.589,1.21c-.031-.124-.062-.155-.155-.062-.093.062-.093.093,0,.217C303.723,25.094,303.816,25,303.754,24.783Zm28.809-7.753c.558,1.427-.28,3.752-2.667,7.474a50.99,50.99,0,0,1-7.1,8.032,11.035,11.035,0,0,1-4.218,2.388,4.053,4.053,0,0,1-2.635-.434l-.5-.31-.372.683c-.4.775-1.644,3.5-2.109,4.62-.155.4-.372.992-.527,1.3a18.931,18.931,0,0,0-1.3,5.613h-.558c-.434-.031-.589-.062-.683-.185a1.02,1.02,0,0,0-.4-.28c-.155-.062-.341-.186-.372-.31a3.166,3.166,0,0,0-.31-.5c-.248-.4-.186-.837.248-2.512.466-1.8,2.605-8.559,3.132-9.83.124-.28.434-1.117.714-1.83a8.22,8.22,0,0,1,.713-1.488,1.288,1.288,0,0,0,.28-.62c.062-.248.186-.651.279-.9s.4-.992.682-1.644a39.254,39.254,0,0,1,1.892-4.186,1.543,1.543,0,0,0,.217-.527,3.43,3.43,0,0,1,.31-.651c.155-.28.62-1.117.993-1.861.4-.714.806-1.489.93-1.675a3.77,3.77,0,0,0,.4-.869,2.91,2.91,0,0,1,.31-.682,15.409,15.409,0,0,0,1.054-2.016.95.95,0,0,1,1.178-.682,1.454,1.454,0,0,1,.652.155,1.2,1.2,0,0,0,.4.341c.341.217.372.28.341.683a2.172,2.172,0,0,1-.279.744,45.235,45.235,0,0,0-3.721,6.513c-.837,1.767-2.543,5.737-2.512,5.8a4.647,4.647,0,0,0,.682-.931,21.254,21.254,0,0,1,1.8-2.388,11.383,11.383,0,0,0,1.054-1.271c.465-.589,1.24-1.551,1.736-2.109a10.385,10.385,0,0,0,.931-1.178,1.866,1.866,0,0,1,.465-.5c.248-.186.992-.837,1.613-1.427a9.632,9.632,0,0,1,3.132-2.109,2.21,2.21,0,0,1,1.488-.186,2.987,2.987,0,0,1,1.116.28,1.015,1.015,0,0,0,.466.217C331.819,15.821,332.347,16.441,332.564,17.031Zm-18.2,12.931a49.632,49.632,0,0,0,1.8-4.745,15.07,15.07,0,0,0-1.427,3.1,15.028,15.028,0,0,1-.745,1.923c-.155.372-.589,1.644-1.023,2.853s-.837,2.295-.9,2.388a8.179,8.179,0,0,0-.341.993c-.124.434-.279.868-.31.992-.062.124-.062.217-.031.249a6.242,6.242,0,0,0,.465-.993A13.9,13.9,0,0,1,312.5,35.3a2.835,2.835,0,0,0,.341-1.023,6.926,6.926,0,0,1,.4-1.4,14.819,14.819,0,0,0,.931-2.418A1.968,1.968,0,0,1,314.36,29.962Zm-.744,2.729c-.031-.031-.062,0-.062.124,0,.093,0,.124.062.062A.2.2,0,0,0,313.616,32.691Zm1.892-.558c.249-.4.869-1.427,1.4-2.295a51.216,51.216,0,0,1,10.73-13.025c.868-.714,1.271-.992,1.55-1.023,1.21-.217,1.179-.217.683-.217-1.054-.031-2.512.744-4.466,2.326a11.805,11.805,0,0,0-1.21,1.085c-.031.062-.4.527-.837,1.023a16.461,16.461,0,0,0-2.047,2.45c.062,0,.124,0,.124.031.062.093-.31.682-.434.713-.186.032-.186,0,.031-.372.341-.5.031-.217-.434.4-.217.31-.4.62-.372.682.031.031-.124.217-.341.4-.341.279-.372.341-.372.713,0,.249-.062.372-.093.341-.062-.031-.093-.124-.093-.248.031-.124.031-.124-.093,0a.335.335,0,0,0-.062.279c.031.062-.062.124-.155.186-.124.031-.248.248-.31.434a3.812,3.812,0,0,1-.465.962,3.134,3.134,0,0,0-.372.744c0,.217-.31.4-.341.217,0-.062-.124.032-.248.186-.093.186-.186.372-.124.4,0,.031.031,0,.063-.062,0-.062.031-.124.093-.124.186.031.093.28-.186.5-.155.124-.248.248-.248.31a1.813,1.813,0,0,1-.372.714c-.217.372-.62,1.023-.868,1.519a6.326,6.326,0,0,1-.528.962.339.339,0,0,0-.062.31C315.073,32.784,315.2,32.691,315.507,32.133Zm15.35-15.35a1.106,1.106,0,0,0-.186-.527,2.811,2.811,0,0,0-.869.217,7.389,7.389,0,0,0-2.109,1.365,41.955,41.955,0,0,0-8.869,10.637c-.9,1.4-1.8,2.853-1.984,3.194-.868,1.551-1.054,1.861-1.054,1.861a4.364,4.364,0,0,0,1.21-.062,13.3,13.3,0,0,0,4.062-2.357,2.655,2.655,0,0,1,.9-.527c.155.031.217-.031.217-.186a.277.277,0,0,1,.217-.31,9.35,9.35,0,0,0,1.892-1.488l.31-.28-.217.28c-.124.155-.155.248-.093.217a9.108,9.108,0,0,0,1.457-1.675,2.31,2.31,0,0,1,.682-.9,27.509,27.509,0,0,0,3.318-4.838,8.571,8.571,0,0,1,.651-1.675A8.159,8.159,0,0,0,330.858,16.783Zm-14.078,5.706a.7.7,0,0,0,.124-.279c0-.031-.031-.062-.093-.031a.338.338,0,0,0-.124.279C316.686,22.675,316.686,22.675,316.779,22.488Zm4.651,9.428c-.341.248-.651.5-.713.558-.032,0-.341.248-.683.5-.651.465-.993.589-.868.279.062-.093.031-.124-.031-.093s-.093.185-.093.31c.032.186-.031.279-.279.372-.341.124-.434.124-.341,0,.062-.062.032-.093-.031-.093-.031-.031-.093.062-.093.186s.031.217.062.217.341-.155.745-.341a11.028,11.028,0,0,0,2.45-1.675,2.213,2.213,0,0,1,.279-.435C322.02,31.513,321.9,31.544,321.431,31.916Zm29.584,0a4.459,4.459,0,0,1-2.418,1.612l-.806.217-.62-.217a3.028,3.028,0,0,1-2.078-1.953,3.726,3.726,0,0,1-.4-1.8,10.323,10.323,0,0,1,.279-3.69c.062-.341.155-.837.186-1.147s.124-.9.217-1.334c.186-.93.186-1.023-.031-1.147-.124-.062-.217-.031-.589.279a42.375,42.375,0,0,0-3.38,4.218c-.372.527-.931,1.271-1.21,1.644a7.392,7.392,0,0,0-.775,1.116c-.155.248-.5.837-.837,1.365-.5.868-.837,1.458-1.984,3.473a9.651,9.651,0,0,0-.558,1.023c-.062.155-.248.558-.434.931a30.953,30.953,0,0,0-1.644,3.845c.062.248,0,.372-.372.868-.465.589-.589.714-.837.683a1.979,1.979,0,0,1-.868-.466.589.589,0,0,1-.155-.372c-.031-.186-.062-.249-.186-.186-.124.031-.155-.062-.248-.62-.093-.775.124-1.892.837-4.28.248-.868.528-1.861.651-2.233a54.333,54.333,0,0,1,3.225-8.342,6.269,6.269,0,0,0,.341-.744c.155-.31.4-.869.558-1.24a4.684,4.684,0,0,0,.31-.745.863.863,0,0,1,.185-.4c.093-.155.4-.775.652-1.365.279-.589.744-1.519,1.023-2.046.31-.558.682-1.272.837-1.582.279-.62,3.008-5.768,4.062-7.66.31-.62.682-1.3.775-1.551a5.1,5.1,0,0,1,.341-.713,8.671,8.671,0,0,0,.527-.9c.031-.062-.031-.062-.186-.031-.186.062,0-.249.993-1.458a17.462,17.462,0,0,0,1.24-1.612c0-.093.155-.248.806-.683.527-.372,1.4-.185,1.457.31,0,.062.093.155.155.217.155.062.155.124.093.465-.093.5-.124.558-.713,1.21a21.237,21.237,0,0,0-2.45,3.442,11.968,11.968,0,0,1-1.023,1.427,3.3,3.3,0,0,0-.372.589c-.186.341-.465.806-.62,1.054a1.9,1.9,0,0,0-.279.62c.031.093-.031.186-.062.186-.062,0-.124.124-.155.28s-.093.248-.124.248c-.093-.062-.651.9-.62,1.054a.1.1,0,0,1-.093.093.261.261,0,0,0-.063.186c.031.093-.093.31-.217.466a1.279,1.279,0,0,0-.217.372.161.161,0,0,1-.062.124c-.062,0-.155.186-.217.434a8.119,8.119,0,0,1-.589,1.116,5.183,5.183,0,0,0-.434.869c-.031.062-.248.5-.5.93-.217.434-.5.962-.589,1.21-.093.217-.28.62-.4.868a1.514,1.514,0,0,0-.217.589,7.779,7.779,0,0,1-.5,1.148c-.279.589-.806,1.767-1.147,2.6-.372.868-.868,2.109-1.117,2.729-.279.651-.713,1.8-.992,2.574s-.62,1.705-.745,2.047c-.31.775-.31.9-.031.31.124-.248.248-.434.31-.4s.4-.465.4-.558c-.031-.031.031-.155.124-.248.062-.093.217-.31.31-.434a2.684,2.684,0,0,0,.341-.558c.093-.155.341-.589.589-.961a2.09,2.09,0,0,0,.4-.775c-.062-.062-.031-.093,0-.062.062.031.248-.155.4-.4.5-.745.682-.992,1.023-1.427.186-.217.341-.5.31-.558,0-.093.031-.124.062-.062s.217-.124.465-.465.372-.62.31-.651-.062-.062,0-.124a.206.206,0,0,1,.186-.031c.093.062.745-.806.651-.9-.031-.062,0-.062.063-.062s.124-.093.124-.186c0-.155.062-.217.124-.186.124.032.279-.155.806-.93a6.986,6.986,0,0,1,1.488-1.4c.62-.372,2.016-.372,2.047,0,0,.093.31.372.558.465a.35.35,0,0,1,.218.341,3.578,3.578,0,0,0,.186.651,11.2,11.2,0,0,1-.093,3.318c-.62,3.752-.651,4.466-.372,5.675a2.16,2.16,0,0,0,.31.806,2.248,2.248,0,0,0,.775-.031c1.117-.186,1.861-.744,3.35-2.449.31-.372.62-.652.651-.62.062.031.062.093.031.185a1.453,1.453,0,0,0,.124.993C352.1,30.52,351.759,31.079,351.015,31.916Zm-16.591.9c.31-.714.558-1.4.589-1.519a6.313,6.313,0,0,1,.372-1.086c.713-1.984.961-2.635,1.054-2.822.093-.217.217-.558.341-.931.062-.155.186-.465.31-.713.434-.962,1.148-2.605,1.334-3.132a16.094,16.094,0,0,1,.744-1.52,15.578,15.578,0,0,0,1.519-3.473.1.1,0,0,0-.062.031c-.124.217-.775,1.644-.775,1.675a7.691,7.691,0,0,1-.465.93,26.78,26.78,0,0,0-1.644,3.535,4.972,4.972,0,0,1-.279.62c-.155.341-.465,1.086-.714,1.675a7.348,7.348,0,0,1-.527,1.148c-.124.093-.093-.155.062-.62.124-.372.155-.465.031-.5-.124,0-.155-.124-.031-.217a.107.107,0,0,1,.155.031c.062.062.124-.031.248-.249.124-.279.124-.372.031-.465s-.062-.093.062-.124c.155,0,.372-.372.372-.714a1.4,1.4,0,0,1,.186-.4,1.493,1.493,0,0,0,.249-.5,1.5,1.5,0,0,1,.185-.4c.124-.155.124-.217.032-.279-.124-.062-.155-.062-.186.093,0,.155-.062.186-.155.155s-.186.031-.217.155c-.093.186-.093.218.031.093.093-.093.155-.093.186-.031.062.062.062.093,0,.062-.093-.062-.341.5-.31.745,0,.124,0,.124-.124,0-.124-.155-.155-.124-.248.124s-.093.28,0,.28c.124.031.124.062.062.186-.062.093-.093.093-.124.031-.062-.155-.248.093-.341.465-.032.186-.032.217.062.186.062-.031.124-.031.124.031.031.124-.186.31-.31.279-.155,0-.992,2.109-2.357,6.047-.62,1.768-1.861,5.862-1.83,6.079,0,.062.062.062.124.031.032-.031.062-.031.062.062a.206.206,0,0,1-.155.124c-.062,0-.186.279-.248.713-.186.9-.155,1.271.062.683.062-.124.186-.589.31-1.023a3.987,3.987,0,0,1,.31-.9c.155-.217.341-.837.217-.806-.031,0-.093-.124-.093-.279-.031-.186,0-.248.062-.217s.093.031.031-.031A1.58,1.58,0,0,1,333,35.11c.186-.155.186-.093.031.248-.248.434-.248.62,0,.217.093-.186.341-.806.558-1.4.186-.589.558-1.675.868-2.418a14.649,14.649,0,0,0,.5-1.488,3.382,3.382,0,0,1,.279-.837c.217-.558.217-.652.062-.435-.155.249-.186.249-.186.124a.558.558,0,0,1,.093-.372.507.507,0,0,0,.031-.372c-.031-.093-.031-.217.031-.248.031-.031.093,0,.093.062,0,.093.062.124.124.062.063-.031.063.031.063.217-.032.124-.032.186,0,.124.031-.124.185-.155.217-.032,0,.032-.249.775-.558,1.582-.31.837-.558,1.519-.558,1.55s-.186.589-.4,1.24c-.248.652-.465,1.3-.527,1.489-.031.186-.186.651-.31,1.085s-.217.775-.217.806c.031,0,.093-.124.155-.31C333.8,34.459,333.99,33.962,334.424,32.815ZM333.06,36.66c-.032.155-.093.372-.124.5,0,.186,0,.186.062-.031a1.826,1.826,0,0,0,.124-.527C333.152,36.443,333.152,36.443,333.06,36.66Zm.9-3.969c0,.124-.031.248-.124.28a.113.113,0,0,0-.062.155.336.336,0,0,1-.062.28c-.093.186-.093.186-.093-.155a.891.891,0,0,1,.155-.527l.155-.217Zm.062,2.357c-.031-.031-.062,0-.093.062a.96.96,0,0,0-.062.248c0,.031.031,0,.093-.062A.965.965,0,0,0,334.021,35.048Zm.683-4.372c-.093.31-.28.434-.31.185,0-.062.031-.124.062-.124.062,0,.093-.062.093-.124a.257.257,0,0,1,.093-.248C334.8,30.21,334.8,30.272,334.7,30.676Zm.341,1.178a11.965,11.965,0,0,0-.62,1.861c0,.062.5-1.271.62-1.705C335.075,31.885,335.075,31.823,335.044,31.854Zm.31-.682c.031-.124.093-.279.093-.31,0-.062-.062,0-.124.124a.933.933,0,0,0-.093.341C335.23,31.358,335.292,31.3,335.354,31.172Zm1.085-3.07c-.124.186-.837,2.047-.962,2.419-.124.5.063.124.434-.837C336.44,28.318,336.595,27.853,336.44,28.1Zm-.62-.9c0-.434.062-.5.186-.217a.382.382,0,0,1-.062.372C335.85,27.512,335.819,27.481,335.819,27.2Zm4.528-7.939a6.851,6.851,0,0,0-.558,1.179.619.619,0,0,1-.093.248c-.062.124-.217.341-.341.558-.124.186-.248.4-.217.465a.469.469,0,0,1-.124.249,3.585,3.585,0,0,0-.372.775,4.056,4.056,0,0,1-.341.775,7.971,7.971,0,0,0-.31.745c-.124.341-.341.806-.434,1.085-.248.527-.868,2.047-.868,2.109.031.124.124-.062.465-.9.217-.527.589-1.4.837-1.954.28-.558.558-1.147.62-1.3.063-.124.249-.5.435-.806.155-.279.372-.745.5-1.023.093-.279.248-.682.341-.9A8.789,8.789,0,0,0,340.347,19.263Zm-2.605,3.164c.093.186.093.186.217-.031.063-.124.124-.217.093-.249s-.093.032-.155.093c-.062.093-.124.093-.124.031a.4.4,0,0,1,.124-.217,4.981,4.981,0,0,0,.5-.962,7.081,7.081,0,0,1,.527-1.085c.124-.155.186-.31.124-.372-.032-.062-.032-.062.031-.031s.124-.031.186-.155c.093-.248-.093-.31-.217-.031a.759.759,0,0,0-.124.341,1.093,1.093,0,0,1-.155.248,2.206,2.206,0,0,0-.31.62c-.124.248-.31.745-.5,1.054A1.353,1.353,0,0,0,337.742,22.427Zm1.52-3.349c.093.155.124.124.4-.4.279-.558.31-.62.155-.589-.062,0-.124.093-.186.248a2.268,2.268,0,0,1-.155.372.41.41,0,0,0-.093.248c0,.093-.031.124-.093.093S339.2,19.015,339.262,19.077Zm.155,2.388c-.062.155-.124.279-.155.279s0-.124.062-.248c.062-.155.124-.31.155-.31S339.479,21.31,339.416,21.465Zm1.458-3.225c-.062-.032-.372.558-.341.682,0,.062.093-.062.186-.28C340.843,18.457,340.9,18.271,340.874,18.24Zm-.124-.745c0,.155.155-.062.434-.558.5-.992.62-1.3.558-1.333-.032-.062-.093-.031-.093.031-.031.031-.217.465-.465.93A7.454,7.454,0,0,0,340.75,17.5Zm.9-.806-.217.279a1.4,1.4,0,0,0-.186.4c.031.062,0,.124-.062.124-.031,0-.093.093-.093.186-.031.155-.031.186.062.062a2.62,2.62,0,0,0,.279-.589Zm.124-1.24c.031.217.279-.186.806-1.21,1.116-2.2,1.116-2.233.992-2.2a2.818,2.818,0,0,0-.4.62c-.186.372-.558,1.116-.868,1.675A7.939,7.939,0,0,0,341.774,15.449Zm34.112,10.792c0,.248-.062.31-.434.372a21.877,21.877,0,0,0-6.2,3.132c-1.054.775-1.085.806-1.21,1.4a47.532,47.532,0,0,1-3.473,8.59,74.936,74.936,0,0,1-4.218,6.482,20.092,20.092,0,0,1-5.427,5.085,3.892,3.892,0,0,1-2.45.31,4.672,4.672,0,0,1-1.675-2.14,4.047,4.047,0,0,1-.031-2.45c.186-.124.186-.155,0-.155-.093,0-.186-.062-.186-.124a17.015,17.015,0,0,1,1.675-3.752c.4-.713,2.233-3.38,2.295-3.38.031,0,.031.124-.031.248-.031.155.093.062.4-.31a44.532,44.532,0,0,1,3.535-3.783c.651-.589,1.458-1.364,1.83-1.736a6.109,6.109,0,0,1,1.116-.868,13.817,13.817,0,0,0,1.24-.9,25.274,25.274,0,0,1,2.822-1.984c.4-.28.589-.466.651-.714.031-.155.155-.651.248-1.085a12.655,12.655,0,0,0,.434-3.938,20.12,20.12,0,0,0-.217-3.194c-.372-2.357-.5-2.7-1.023-2.7a1.145,1.145,0,0,1-.527-.155,1.163,1.163,0,0,1,.031.341,4.628,4.628,0,0,1-.993,3.008,6.637,6.637,0,0,0-.93,1.861,16.654,16.654,0,0,1-1.892,3.38c-.186.248-.62.9-.93,1.427a19.27,19.27,0,0,1-1.365,1.892c-.4.5-.961,1.21-1.271,1.582a14.2,14.2,0,0,1-3.039,2.791,1.806,1.806,0,0,1-2.109-.093,3.4,3.4,0,0,1-1.519-2.512,9.973,9.973,0,0,1,.4-3.721c.248-.962.465-1.644,1.334-4.155.062-.248.527-1.3.992-2.295a15.58,15.58,0,0,0,.869-2.109,12.839,12.839,0,0,1,1.458-3.1l1.458-2.3c.124-.248.217-.279.682-.279.434,0,.527.031.589.217.031.186.124.217.372.155.28-.062.341-.031.28.124-.031.093-.031.186.031.186.186,0,.31.5.155.745-.062.124-.248.527-.4.93a12.284,12.284,0,0,1-.837,1.768c-.341.62-.9,1.675-1.24,2.388-.341.682-.775,1.55-.962,1.892a60.829,60.829,0,0,0-2.295,6.419,19.914,19.914,0,0,0-.682,3.473c.155.124,1.147-.744,2.357-2.046a26.238,26.238,0,0,0,2.171-2.481,5.92,5.92,0,0,1,.527-.62,39.872,39.872,0,0,0,2.76-3.784,2.74,2.74,0,0,0,.558-1.147c-.062-.155-.062-.186.031-.062.063.124.186,0,.434-.4a5.609,5.609,0,0,0,.775-1.551,19.783,19.783,0,0,1,1.551-2.636c-.093-.217-.032-.279.217-.651.217-.279.434-.465.651-.465a.982.982,0,0,0,.434-.155c.124-.093.186-.062.248.155.062.186.186.31.279.31a2.27,2.27,0,0,1,.62.683,10.942,10.942,0,0,1,1.427,4.031,25.3,25.3,0,0,1,.31,4.9c-.031.558-.031.9.031.868.062,0,.651-.341,1.3-.682,1.24-.683,1.737-.837,1.24-.434-.279.217-.248.217.31,0,.682-.28,1.085-.527.651-.4a3.2,3.2,0,0,0-.4.124c-.062.031-.124,0-.124-.062a2.4,2.4,0,0,1,.9-.4,3.4,3.4,0,0,1,1.923-.279c.961.062,1.3.217,1.21.5-.031.124,0,.186.124.186C375.824,25.993,375.885,26.085,375.885,26.241Zm-22.2-.31a4.986,4.986,0,0,0,.279-.775c0-.217-.217-.124-.434.155-.155.186-.248.217-.31.093s-.155.031-.341.5a7.253,7.253,0,0,0-.589,2.2.16.16,0,0,1-.093.217,10.3,10.3,0,0,0-.558,3.349c.062,1.489.31,1.457.465-.031A20.775,20.775,0,0,1,353.682,25.931Zm.341,23.01A18.983,18.983,0,0,0,355.6,47.67a30.514,30.514,0,0,0,3.318-3.846c1.023-1.488,1.334-1.83,1.52-1.892a6.42,6.42,0,0,0,.992-1.4,49.582,49.582,0,0,0,2.419-4.59,6.229,6.229,0,0,0-.868,1.488c-.031.124-.093.186-.124.186a5.227,5.227,0,0,1,.868-1.892,5.871,5.871,0,0,0,.62-1.24c.775-1.861.775-1.83-.31-.992a48.346,48.346,0,0,0-7.877,7.846c-1.923,2.574-3.69,5.923-3.846,7.164a4.924,4.924,0,0,0-.031.9C352.41,49.685,353.186,49.468,354.023,48.941Zm11.5-14.607c0-.124-.217.248-.5.837a12.847,12.847,0,0,1-.992,1.737,5.969,5.969,0,0,0-.744,1.178,1.182,1.182,0,0,1-.279.466c-.062,0-.093.093-.093.185a.142.142,0,0,1-.124.155c-.062,0-.093.062-.062.093a3.021,3.021,0,0,1-.589,1.178c-.062,0-.093.093-.093.186s-.062.155-.093.124c-.062-.031-.093.031-.093.124.032.124-.031.186-.093.186-.093,0-.124.062-.093.155a1.312,1.312,0,0,1-.28.714c-.186.279-.279.5-.217.5s.093.062.093.186c0,.217-.28.62-.466.62-.062,0,0-.155.155-.28.124-.155.186-.31.124-.372-.062-.031-.186.093-.31.31q-.279.512-.372.186c-.031-.093-.124-.031-.186.155-.155.248-.124.248.031.124.217-.217.248,0,0,.466-.124.279-.186.31-.341.186-.124-.124-.155-.124-.248.031a31.094,31.094,0,0,1-5.179,5.737,4.81,4.81,0,0,1-1.3.683c-.714.217-.714.217-.558.434.279.341.992.217,1.953-.31a9.877,9.877,0,0,0,1.675-1.21,4.318,4.318,0,0,1,.9-.682c.093.062.155.031.186-.031.031-.093,0-.124-.062-.124s.217-.4.683-.9c.434-.5,1.178-1.365,1.612-1.922a3.64,3.64,0,0,1,.869-1.023c.062.031.093,0,.062-.062a10.885,10.885,0,0,1,1.085-1.954,24.582,24.582,0,0,0,1.271-2.2,3.851,3.851,0,0,1,.434-.775,2.362,2.362,0,0,0,.279-.465c0-.032.124-.249.248-.5A29.99,29.99,0,0,0,365.528,34.335ZM353.465,25a.779.779,0,0,0,.155-.341c0-.155-.186-.093-.248.093C353.248,25.094,353.309,25.217,353.465,25Zm.248-.806c.062.217.093.217.124,0,0-.093.062-.186.124-.186.032,0,.124.062.124.124a9.573,9.573,0,0,0,.93-2.264c.032-.062-.093.031-.31.217A4.9,4.9,0,0,0,353.713,24.194Zm3.163,14.824a.329.329,0,0,0,.186-.186c.093-.093.124-.155.093-.155a.363.363,0,0,0-.186.155Zm.714-.745.5-.527c.28-.28.5-.527.5-.527,0-.186-.249.031-.589.5Zm.589,9.211a3.45,3.45,0,0,0-.466.527,2.95,2.95,0,0,0,.745-.713C358.55,47.142,358.426,47.235,358.178,47.484ZM363.016,32.6a49.706,49.706,0,0,0-4.528,4c-.775.775-.837.962-.124.341.185-.155.589-.527.9-.837.341-.341.62-.528.744-.5a.3.3,0,0,0,.31-.093c.124-.155.124-.186,0-.186-.155,0,.248-.5.682-.837.341-.248.527-.186.28.124-.124.185-.124.185.062,0a.741.741,0,0,1,.4-.217c.217,0,.248-.124.062-.31-.155-.186,0-.4,1.117-1.21,2.326-1.736,2.853-2.109,2.884-2.264C365.869,30.459,365.59,30.644,363.016,32.6Zm1.3-12.435a19.793,19.793,0,0,0-1.4,2.295,24.054,24.054,0,0,1-1.52,2.45c-1.55,2.357-1.581,2.512-.031.465a17.161,17.161,0,0,0,1.116-1.675c.186-.372.714-1.365,1.148-2.171A6.7,6.7,0,0,0,364.318,20.163Zm-3.442,14.885c.031-.031.093-.093.093-.124s-.062-.062-.093-.062a.133.133,0,0,0-.124.124C360.752,35.048,360.814,35.079,360.876,35.048Zm1.023,7.163c-.124.155-.155.28-.093.217.093-.031.186-.186.248-.31C362.21,41.808,362.117,41.839,361.9,42.211Zm.217-8.156c-.062-.062-.124-.124-.186-.124s-.063.062-.031.124a.205.205,0,0,0,.155.124C362.117,34.179,362.148,34.117,362.117,34.056Zm.093-.217c.093.155.186.124.465-.124.249-.186.249-.186.032-.186-.155-.031-.218.031-.218.155,0,.093-.062.124-.185.093C362.21,33.745,362.179,33.777,362.21,33.839Zm1.4-.931a.261.261,0,0,0,.217-.124c.031-.031-.031-.062-.155-.031C363.419,32.815,363.388,32.908,363.605,32.908Zm1.116-14.7a1.356,1.356,0,0,1-.186-.217,5.158,5.158,0,0,0-.806,1.737c.032,0,.28-.434.62-.931A4.981,4.981,0,0,1,364.721,18.209Zm-.186,13.986.249-.372-.341.248c-.186.155-.341.31-.341.372C364.1,32.66,364.287,32.536,364.535,32.195Z" transform="matrix(0.996, -0.087, 0.087, 0.996, 0, 32.761)" fill="#fff"/>
</svg>
