<svg xmlns="http://www.w3.org/2000/svg" xmlns:xlink="http://www.w3.org/1999/xlink" width="191.696" height="91.475" viewBox="0 0 191.696 91.475">
  <defs>
    <clipPath id="clip-path">
      <rect id="長方形_682" data-name="長方形 682" width="184.237" height="66.481"/>
    </clipPath>
  </defs>
  <g id="グループ_591" data-name="グループ 591" transform="translate(0 25.641) rotate(-8)" clip-path="url(#clip-path)">
    <path id="パス_360" data-name="パス 360" d="M33.082,8.373a2.617,2.617,0,0,0-.139,1.112,7.964,7.964,0,0,1-.66,2.466c-.486,1.215-1.493,3.369-2.153,4.62a46.413,46.413,0,0,1-2.953,4.516c-.138.173-.555.695-.938,1.146-.833,1.008-4.2,4.342-5.7,5.662a30.116,30.116,0,0,1-3.716,2.813c-.174.1-.313.174-.313.243a19.737,19.737,0,0,1-3.508,2.119,18.423,18.423,0,0,1-7.571,2.362H4.844L4.7,36.02c-.1.347-.208.764-.278.938s-.138.382-.174.452c0,.1-.243,1.007-.521,2.015a11.21,11.21,0,0,0-.521,3.229c-.035,1.425-.069,1.632-.348,1.632-.1,0-.173.1-.173.313a1.026,1.026,0,0,1-.869.9c-.278.069-.348.035-.417-.208-.069-.174-.208-.313-.278-.313a1.465,1.465,0,0,1-.486-.312C.364,44.391.329,44.286.4,43.8c.069-.452.035-.625-.174-.868-.243-.313-.243-.452-.208-1.841a23.541,23.541,0,0,1,1.042-5.94c.312-1.146.347-1.355.208-1.667a4.469,4.469,0,0,1,.069-2.6,1.827,1.827,0,0,1,.312-.66,1.627,1.627,0,0,1,.1.729c0,.834.138,1.25.278.729.243-1.042.312-1.215.486-1.215.139,0,.174-.1.1-.312a3.925,3.925,0,0,1,.348-1.459c.208-.625.8-2.431,1.32-3.96.486-1.562,1.076-3.3,1.319-3.855.556-1.389.9-2.258,1.215-3.057.1-.312.244-.521.313-.521.035,0,.1-.1.1-.278a24.619,24.619,0,0,1,1.112-2.813c.139-.278.243-.625.312-.8.035-.208.139-.347.278-.347.278,0,.452-.312.278-.486-.1-.069-.069-.278.035-.591a53.049,53.049,0,0,1,2.084-5,3.879,3.879,0,0,0,.486-1.146c-.035-.069-.1-.069-.139.035a2.245,2.245,0,0,1-1.007.521.647.647,0,0,1-.66-.208c-.486-.347-.452-.625.174-1.007.278-.174.521-.348.521-.417,0-.035.556-.695,1.285-1.493,1.319-1.424,1.493-1.632,1.945-2.154.208-.278.417-.347,1.146-.451a2.462,2.462,0,0,1,2.362.659c.522.591.625.938.486,1.425-.1.208-.173.416-.243.416a1.235,1.235,0,0,0-.278.452A2.356,2.356,0,0,1,17,4.343,29.178,29.178,0,0,0,14.916,7.99a4.6,4.6,0,0,1-.416.834c-.313.521-1.772,3.473-1.772,3.577,0,.069-.591,1.389-1.146,2.5-.312.695-.312.695,1.077-1.459a48.94,48.94,0,0,1,5.314-6.738c4.376-4.446,8.2-6.669,11.149-6.5a4.135,4.135,0,0,1,3.612,1.876C33.672,3.545,33.777,5.386,33.082,8.373Zm-30.67,26.5c-.069-.069-.312.764-.312,1.007,0,.1.1-.069.174-.382A1.6,1.6,0,0,0,2.412,34.874ZM6.2,25.426c.243-.521.59-1.389.8-1.945.174-.521.417-1.181.521-1.459a11.762,11.762,0,0,0,.591-1.563,31.366,31.366,0,0,1,1.285-3.2,6.593,6.593,0,0,0,.59-1.91c-.035-.035-.174.208-.278.555a3.448,3.448,0,0,1-.521,1.008,5.491,5.491,0,0,0-.695,1.25,3.663,3.663,0,0,1-.556.972.5.5,0,0,0-.173.382,7.633,7.633,0,0,1-.73,2.153,3.405,3.405,0,0,0-.208.695.237.237,0,0,1-.243.174c-.208,0-.243.035-.173.243A11.636,11.636,0,0,1,5.087,26.5a.771.771,0,0,0-.278.764,1.249,1.249,0,0,1-.1.625,3.97,3.97,0,0,0-.243.764,10.126,10.126,0,0,1-.416,1.355,5.806,5.806,0,0,0-.313.834c0,.243.208-.1.417-.695C4.5,29.247,5.678,26.469,6.2,25.426ZM4.6,34.145a.384.384,0,0,0-.278,0c-.1.035-.035.069.138.069S4.67,34.179,4.6,34.145Zm.555-2.709c.208-.521.208-.695.1-.764s-.174,0-.243.174c-.035.138-.174.521-.278.833-.313.8-.452,1.285-.278,1.215a1.091,1.091,0,0,0,.174-.486c.035-.243.139-.382.174-.347C4.879,32.1,5.018,31.783,5.157,31.435ZM5.5,34.11a.092.092,0,0,0-.1-.1.19.19,0,0,0-.173.1c-.035.069,0,.1.1.1S5.5,34.179,5.5,34.11Zm1.979-1.077c1.077-.382,1.494-.555,1.251-.555a11.241,11.241,0,0,0-1.216.382,8.877,8.877,0,0,1-1.528.486,1.259,1.259,0,0,0-.486.174C5.5,33.658,6.234,33.484,7.484,33.033ZM31,4.691c-.035-2.4-.174-2.987-.695-3.126a5.474,5.474,0,0,0-2.084.243,3,3,0,0,1-.834.452,14.732,14.732,0,0,0-3.543,2.189.534.534,0,0,1-.313.174c-.173.035-.243.138-.208.208,0,.1-.139.278-.348.417s-.9.765-1.563,1.389a9.518,9.518,0,0,1-1.285,1.112,3.918,3.918,0,0,0-.625.66c-.382.486-.555.625-.729.59-.139-.035-.278,0-.312.07-.07.1-.035.138.1.069.1-.035.174-.035.174.035,0,.139-.243.278-.486.313-.174,0-.452.278-1.529,1.806-.66.9-.695,1.008-.278.625.174-.174.312-.347.312-.452,0-.069.035-.174.07-.174a2.076,2.076,0,0,0,.555-.625c.452-.625.66-.8.66-.556,0,.07-.069.174-.208.278a15.705,15.705,0,0,0-1.285,1.668c-.278.452-1.076,1.667-1.493,2.222a3.424,3.424,0,0,0-.417.625,6.542,6.542,0,0,1-.486.764,2.866,2.866,0,0,0-.486.8c0,.208-.312.452-.382.278-.035-.1-.1-.069-.208.035-.138.174-.1.208.035.139.312-.1.243.138-.139.695-.174.278-.486.764-.66,1.111-.312.591-.521.8-.521.452a.819.819,0,0,1,.069-.278c.069-.035,0,0-.1.069a1.362,1.362,0,0,0-.278.486c-.035.244-.035.244.035.139.278-.382.312,0,.035.417-.313.521-2.675,5.349-3.126,6.321a1.931,1.931,0,0,1-.416.729.428.428,0,0,0-.139.278c0,.208-1.667,4.55-1.945,5.037a1.441,1.441,0,0,0-.174.348c0,.208,2.848-.8,4.689-1.7,1.042-.486,1.112-.521,1.112-.347,0,.069-.208.243-.452.347-.243.139-.729.417-1.077.66a3.515,3.515,0,0,1-.764.452c-.069.035-.1.1-.035.139a4.736,4.736,0,0,0,1.841-1.008c.66-.452.833-.555.833-.382a8.065,8.065,0,0,1-2.292,1.7,25.807,25.807,0,0,1-3.473,1.285c-.486.069-.659.347-.208.312a1.349,1.349,0,0,0,.382-.1.8.8,0,0,1,.382-.07,1.736,1.736,0,0,0,.452-.1,10.962,10.962,0,0,1,1.563-.66,27.765,27.765,0,0,0,3.022-1.285,3.828,3.828,0,0,1,.764-.382,5.946,5.946,0,0,0,1.007-.591c.382-.278,1.355-.938,2.119-1.459A22.887,22.887,0,0,0,19.293,26.5c1.008-.9,1.042-1.042.035-.174a4.106,4.106,0,0,1-.695.521c0-.069-.069-.035-.173.07-.139.1-.174.1-.174,0A.9.9,0,0,1,18.6,26.5a51.482,51.482,0,0,0,8.2-9.17,15.664,15.664,0,0,0,1.562-2.779c-.208.1-.208.035.417-1.215a15.356,15.356,0,0,0,.869-2.015c.174-.451.417-1.007.521-1.25a14.344,14.344,0,0,0,.521-1.806A10.244,10.244,0,0,0,31,4.691ZM6.164,29.177a.868.868,0,0,0-.174.382c0,.069.069,0,.174-.1a.874.874,0,0,0,.173-.382C6.337,29,6.268,29.073,6.164,29.177ZM9.29,20.217c0,.035.1.035.208,0,.174-.07.174-.035.1.312a2.342,2.342,0,0,0-.1.625c-.035.1-.069.243-.139.278a2.538,2.538,0,0,0-.521,1.112c0,.138-.069.208-.138.208-.1,0-.348.452-1.529,3.091-.417.938-.486,1.146-.348,1.32.1.208.07.347-.173.868a3.093,3.093,0,0,0-.313.765c.035.138.035.138.1,0a3.939,3.939,0,0,1,.278-.486,1.011,1.011,0,0,0,.208-.522c0-.1.069-.173.1-.138.07.035.1-.035.1-.174,0-.174.035-.278.1-.243.1,0,.139-.069.1-.208-.07-.278.833-2.292,1.007-2.188.035.035.139-.035.174-.139s0-.139-.069-.1c-.035.035-.1.035-.1,0,0-.139,3.2-6.53,3.4-6.738.1-.139.347-.522.555-.834a37.993,37.993,0,0,1,2.779-4.342c.452-.59.9-1.25,1.007-1.424a40.377,40.377,0,0,1,3.022-3.543,36.143,36.143,0,0,1,5.836-5,15.891,15.891,0,0,1,3.23-1.424c1.007-.243.764-.347-.278-.1-.938.208-1.7.486-1.7.66,0,.069-.069.1-.174.069-.208-.1-.417.035-1.562.729a8.143,8.143,0,0,0-2.432,1.945c-.069.139-.139.208-.208.174-.208-.138-.59.278-.521.486.069.139.035.139-.174.1-.174-.07-.243-.035-.243.035s.035.1.139.069c.069-.069.1-.035.035.035a.38.38,0,0,1-.312.139c-.244,0-.417.208-.208.243.069.035.069.139-.07.278-.173.174-.243.174-.312.035-.1-.138-.139-.035-.1.208.035.174-.625.765-.869.765-.278,0-1.146.868-1.112,1.111.035.07.035.1,0,.035-.069-.1-1.007.73-1.077.938-.035.07-.347.452-.695.869a4.016,4.016,0,0,0-.695,1.042c-.1.555-.173.66-.278.555-.069-.035-.1.035-.035.139.035.1,0,.173-.1.138-.139-.035-.556.625-.625,1.008-.1.486-.556,1.042-.869,1.042-.278,0-.729.556-.729.938,0,.1-.139.278-.278.417a4.009,4.009,0,0,0-.591.938c-.417.764-.695,1.042-.695.729a20.14,20.14,0,0,1,2.258-3.994,34.593,34.593,0,0,1,6.7-7.745A23.682,23.682,0,0,1,25.684,1.53C26.309,1.183,26.8.905,26.76.905s-.416.138-.868.312a9.84,9.84,0,0,0-2.744,1.7.347.347,0,0,1-.348.174c-.069-.035-.382.139-.729.452-.312.278-.938.834-1.424,1.215a43.573,43.573,0,0,0-4.515,4.62c-1.529,2.015-3.161,4.342-3.716,5.314a13.759,13.759,0,0,1-.8,1.25,4.467,4.467,0,0,0-.555,1.008.415.415,0,0,1-.174.312A24.2,24.2,0,0,0,9.29,20.217ZM6.337,21.884c.035.139.07.174.1.069.035-.069.035-.173-.035-.208C6.373,21.71,6.337,21.78,6.337,21.884Zm.382-.869c.069-.069.1-.174.069-.208s-.1.035-.138.139C6.58,21.12,6.616,21.154,6.72,21.015Zm.695-1.841c0,.139.035.174.069.07a.3.3,0,0,0,0-.243C7.449,18.966,7.414,19.07,7.414,19.174Zm.348,4.168c.138-.278.138-.278-.035-.069a1.452,1.452,0,0,0-.208.347C7.518,23.794,7.588,23.725,7.762,23.342Zm.312-5.73c.069.069.138,0,.174-.208.069-.208.069-.382.035-.382C8.213,16.917,8.005,17.473,8.074,17.612Zm16.5,5.14a1.817,1.817,0,0,0-.555.417c-.243.243-.487.416-.591.382a1.5,1.5,0,0,0-.521.313c-.243.173-.348.312-.243.312.1-.035.173,0,.173.069a.159.159,0,0,1-.173.139c-.1,0-.243.035-.313.035a.219.219,0,0,1-.208,0c-.312-.035-1.007,1.112-.764,1.215.1.069.1.1,0,.139-.069.069-.243.173-.312.243-.1.1-.174.138-.174.069a.15.15,0,0,0-.138-.139c-.07,0-.1.1-.1.244,0,.243-.486.59-.486.312,0-.069-.035-.035-.1.069-.07.139-.1.278-.07.313.035.069.035.173-.035.208s-.139,0-.139-.069-.035-.1-.1-.069c-.069.069-.1.138-.069.208.035.035-.035.173-.139.312a8.805,8.805,0,0,1-1.424,1.077.581.581,0,0,0-.312.243.482.482,0,0,1-.417.174c-.174-.07-.591.243-.591.521a.132.132,0,0,1-.173.1c-.208-.069-.695.243-.625.382.1.138-.521.555-.695.521-.069-.035-.348.139-.66.417a3.549,3.549,0,0,1-.591.452,1.053,1.053,0,0,0-.59.312c0,.069-.069.1-.174.1a.164.164,0,0,0-.174.173.2.2,0,0,1-.208.174,1.091,1.091,0,0,0-.73.243,5.755,5.755,0,0,1-.8.382c-.278.1-.521.243-.521.312,0,.035-.07.069-.139.035a.28.28,0,0,0-.312.1c-.07.1-.208.174-.243.138-.174-.1-1.042.208-.972.313.035.069-.035.1-.174.069-.174-.035-.278,0-.313.139-.035.173.07.173.9-.139a18.313,18.313,0,0,0,1.911-.764,14.392,14.392,0,0,0,2.6-1.424,5.731,5.731,0,0,1,.695-.382,9.988,9.988,0,0,0,1.042-.764c.556-.417,1.424-1.042,1.945-1.424.521-.348,1.319-.938,1.771-1.32a33.592,33.592,0,0,0,3.716-3.473,6.589,6.589,0,0,1,.765-.8C24.4,23.03,24.642,22.787,24.573,22.752ZM8.943,21.12c.138-.278.138-.278-.07-.07A1.081,1.081,0,0,0,8.7,21.4C8.7,21.536,8.769,21.467,8.943,21.12Zm.59-6.044c.174,0,.243-.1.278-.73a4.592,4.592,0,0,0,0-.764,4.068,4.068,0,0,0-.312.625C9.151,14.9,9.186,15.076,9.533,15.076Zm.556-1.946a10.333,10.333,0,0,0,.452-1.112,3.7,3.7,0,0,0,.243-.833c-.035,0-.1.1-.174.243-.069.174-.243.59-.417.972C9.846,13.165,9.776,13.687,10.089,13.131Zm-.035,2.084c.035,0,.1-.174.174-.382s.1-.348.035-.278C10.124,14.694,9.985,15.215,10.054,15.215Zm.417-.938a.778.778,0,0,0,.139-.312c0-.069-.069-.035-.139.069a1.447,1.447,0,0,0-.1.278C10.367,14.382,10.436,14.346,10.471,14.277Zm3.89.486a2.269,2.269,0,0,0-.591.9c0,.035.139-.138.313-.382S14.4,14.8,14.361,14.763Zm13.094,4.516c-.1-.1-.659.417-.659.59-.035.174-.834,1.042-.938.938-.035-.035.035-.243.138-.452l.208-.347-.278.278a3.176,3.176,0,0,1-.417.382,2.335,2.335,0,0,0-.729,1.146c0,.243.035.243.174.138a.558.558,0,0,0,.173-.382c0-.174.07-.243.243-.208.348.069,2.049-1.494,1.946-1.806-.035-.139-.035-.208.069-.208S27.49,19.313,27.455,19.279Zm-.486-.938a1.4,1.4,0,0,0,.278-.452c0-.07-.138.035-.278.278C26.587,18.653,26.587,18.758,26.969,18.341Zm1.389-1.389a2.27,2.27,0,0,0-.521.66,1.631,1.631,0,0,1-.347.555,2.892,2.892,0,0,0-.765,1.285c.07.139.313.07.313-.1a5.751,5.751,0,0,1,.695-1.181C28.671,16.778,28.636,16.813,28.358,16.952Zm-.868.555a.306.306,0,0,0,.138-.174c0-.069-.069-.1-.138-.069a.393.393,0,0,0-.1.208C27.386,17.542,27.455,17.542,27.49,17.507ZM49.58,34.457a5,5,0,0,1-2.709,1.806l-.9.243-.694-.243a3.4,3.4,0,0,1-2.328-2.188,4.184,4.184,0,0,1-.451-2.015,11.562,11.562,0,0,1,.312-4.133c.069-.382.174-.938.208-1.285s.138-1.007.243-1.493c.208-1.042.208-1.146-.035-1.285-.139-.07-.243-.035-.66.312A47.417,47.417,0,0,0,38.778,28.9c-.417.591-1.042,1.424-1.355,1.841a8.286,8.286,0,0,0-.869,1.251c-.174.278-.555.938-.938,1.528-.555.972-.938,1.632-2.223,3.89a10.893,10.893,0,0,0-.625,1.146c-.07.174-.278.625-.486,1.042A34.59,34.59,0,0,0,30.442,43.9c.069.278,0,.417-.417.972-.521.66-.66.8-.938.764a2.212,2.212,0,0,1-.972-.521.66.66,0,0,1-.174-.417c-.035-.208-.069-.278-.208-.208-.139.035-.174-.069-.278-.695-.1-.868.138-2.119.938-4.793.278-.972.59-2.084.729-2.5a60.908,60.908,0,0,1,3.612-9.343,6.894,6.894,0,0,0,.382-.834c.174-.347.452-.972.625-1.389a5.209,5.209,0,0,0,.347-.833.964.964,0,0,1,.208-.452c.1-.174.452-.869.729-1.529.313-.66.834-1.7,1.146-2.292.348-.625.765-1.424.938-1.771.313-.695,3.369-6.46,4.55-8.579.347-.695.764-1.459.869-1.737a5.761,5.761,0,0,1,.382-.8A9.608,9.608,0,0,0,43.5,5.941c.035-.069-.035-.069-.208-.035-.208.069,0-.278,1.112-1.632a19.4,19.4,0,0,0,1.389-1.806c0-.1.173-.278.9-.764.59-.417,1.562-.208,1.632.348,0,.069.1.173.173.243.174.069.174.138.1.521-.1.555-.139.625-.8,1.355a23.8,23.8,0,0,0-2.743,3.855,13.332,13.332,0,0,1-1.146,1.6,3.68,3.68,0,0,0-.417.66c-.208.382-.521.9-.695,1.181a2.121,2.121,0,0,0-.312.695c.035.1-.035.208-.07.208-.069,0-.138.139-.174.312s-.1.278-.138.278c-.1-.07-.729,1.007-.695,1.181a.111.111,0,0,1-.1.1.293.293,0,0,0-.069.208c.035.1-.1.347-.243.521a1.424,1.424,0,0,0-.243.417.183.183,0,0,1-.069.139c-.07,0-.174.208-.243.486a9.134,9.134,0,0,1-.66,1.25,5.841,5.841,0,0,0-.486.972c-.035.07-.278.556-.556,1.042-.243.486-.555,1.076-.659,1.355-.1.243-.313.695-.452.972a1.679,1.679,0,0,0-.243.66,8.813,8.813,0,0,1-.556,1.285c-.312.66-.9,1.98-1.285,2.918-.417.972-.973,2.362-1.251,3.056-.312.729-.8,2.015-1.112,2.883s-.695,1.911-.833,2.292c-.348.869-.348,1.008-.035.348.138-.278.278-.486.347-.452s.452-.521.452-.625c-.035-.035.035-.174.139-.278.069-.1.243-.348.347-.486a3.007,3.007,0,0,0,.382-.625c.1-.174.382-.66.66-1.077a2.339,2.339,0,0,0,.452-.868c-.07-.07-.035-.1,0-.07.069.035.278-.173.452-.452.555-.833.764-1.111,1.146-1.6.208-.243.382-.556.347-.625,0-.1.035-.139.069-.069s.243-.139.522-.522.416-.695.347-.729-.069-.069,0-.138a.229.229,0,0,1,.208-.035c.1.07.834-.9.729-1.007-.035-.069,0-.069.069-.069s.139-.1.139-.208c0-.174.069-.243.139-.208.138.035.312-.174.9-1.042A7.823,7.823,0,0,1,41.835,22.3c.695-.417,2.257-.417,2.292,0,0,.1.347.417.625.521a.391.391,0,0,1,.243.382,4.029,4.029,0,0,0,.208.729,12.541,12.541,0,0,1-.1,3.716c-.695,4.2-.729,5-.417,6.356a2.431,2.431,0,0,0,.347.9,2.563,2.563,0,0,0,.869-.035c1.251-.208,2.084-.834,3.751-2.744.348-.417.695-.729.73-.695.069.035.069.1.035.208a1.628,1.628,0,0,0,.138,1.112C50.8,32.894,50.414,33.519,49.58,34.457ZM31,35.464c.347-.8.625-1.562.66-1.7a7.069,7.069,0,0,1,.417-1.215c.8-2.223,1.076-2.953,1.181-3.161.1-.243.243-.625.382-1.042.07-.174.208-.521.348-.8.486-1.076,1.285-2.917,1.493-3.508a18.092,18.092,0,0,1,.834-1.7,17.435,17.435,0,0,0,1.7-3.89.107.107,0,0,0-.069.035c-.139.243-.869,1.841-.869,1.876a8.545,8.545,0,0,1-.521,1.042,29.909,29.909,0,0,0-1.841,3.96,5.754,5.754,0,0,1-.312.695c-.174.382-.522,1.215-.8,1.876a8.262,8.262,0,0,1-.59,1.285c-.139.1-.1-.174.069-.695.139-.417.174-.522.035-.556-.138,0-.174-.138-.035-.243a.121.121,0,0,1,.174.035c.069.07.138-.035.278-.278.139-.312.139-.417.035-.521s-.069-.1.069-.139c.174,0,.417-.417.417-.8a1.564,1.564,0,0,1,.208-.452,1.65,1.65,0,0,0,.278-.556,1.711,1.711,0,0,1,.208-.452c.139-.173.139-.243.035-.312-.138-.069-.173-.069-.208.1,0,.173-.069.208-.173.173s-.208.035-.243.174c-.1.208-.1.243.035.1.1-.1.174-.1.208-.035.069.07.069.1,0,.07-.1-.07-.382.555-.348.833,0,.139,0,.139-.138,0-.139-.173-.174-.138-.278.139s-.1.312,0,.312c.139.035.139.07.07.208-.07.1-.1.1-.139.035-.069-.173-.278.1-.382.522-.035.208-.035.243.07.208.069-.035.138-.035.138.035.035.138-.208.347-.347.312-.174,0-1.112,2.362-2.64,6.773-.695,1.98-2.084,6.564-2.049,6.807,0,.07.069.07.138.035.035-.035.07-.035.07.069a.232.232,0,0,1-.174.138c-.07,0-.208.313-.278.8-.208,1.007-.174,1.424.069.764.069-.138.208-.66.347-1.146a4.471,4.471,0,0,1,.348-1.007c.174-.243.382-.938.243-.9-.035,0-.1-.139-.1-.312-.035-.208,0-.278.07-.243s.1.035.035-.035a1.76,1.76,0,0,1,.278-1.146c.208-.174.208-.1.035.278-.278.486-.278.695,0,.243.1-.208.382-.9.625-1.563.208-.66.625-1.876.972-2.709a16.5,16.5,0,0,0,.556-1.667,3.8,3.8,0,0,1,.312-.938c.243-.625.243-.729.069-.486-.174.278-.208.278-.208.139a.624.624,0,0,1,.1-.417A.567.567,0,0,0,31.9,30.5c-.035-.1-.035-.243.035-.278.035-.035.1,0,.1.069,0,.1.07.139.139.069.069-.035.069.035.069.244-.035.138-.035.208,0,.138.035-.138.208-.174.243-.035,0,.035-.278.869-.625,1.772-.348.938-.625,1.7-.625,1.736s-.208.66-.452,1.389c-.278.729-.521,1.459-.59,1.667-.035.208-.208.729-.348,1.216s-.243.868-.243.9c.035,0,.1-.138.174-.347C30.3,37.3,30.511,36.749,31,35.464ZM29.921,14.729a.279.279,0,0,0-.1.312c.035.07,0,.174-.07.174s-.1-.069-.069-.1a.214.214,0,0,0-.035-.208c-.069-.035-.069-.208.035-.452s.139-.417.069-.417a.149.149,0,0,1-.138-.138c0-.07.1-.1.173-.07.243.1.243-.035.035-.347-.139-.208-.174-.174-.243.069A8.532,8.532,0,0,1,28.5,15.736c-.521.695-.556.9-.035.625.173-.069.243-.069.278.069a1.016,1.016,0,0,0,.1.208s.278-.312.591-.659a2.919,2.919,0,0,0,.625-1.008C30.1,14.659,30.061,14.625,29.921,14.729ZM28.5.766c.278,0,.347-.035.208-.069a.991.991,0,0,0-.452,0C28.115.731,28.254.766,28.5.766Zm.972,39.005c-.035.174-.1.417-.138.555,0,.208,0,.208.069-.035a2.065,2.065,0,0,0,.139-.59C29.574,39.528,29.574,39.528,29.469,39.771Zm.765-26.432c-.035-.208-.243-.417-.312-.278a.3.3,0,0,0,0,.243C29.991,13.444,30.234,13.478,30.234,13.339Zm.243,21.986c0,.138-.035.278-.139.312a.127.127,0,0,0-.069.174.375.375,0,0,1-.069.312c-.1.208-.1.208-.1-.173a.991.991,0,0,1,.174-.591l.174-.243Zm.278-23.619c-.1-.1-.174-.069-.313.139a.56.56,0,0,0-.069.382.821.821,0,0,1-.035.486c-.174.591.035.417.312-.278C30.825,11.984,30.859,11.776,30.755,11.707Zm-.209,26.258c-.035-.035-.069,0-.1.07a1.044,1.044,0,0,0-.07.278c0,.035.035,0,.1-.07A1.068,1.068,0,0,0,30.546,37.965Zm.764-4.9c-.1.348-.312.486-.347.208,0-.069.035-.139.069-.139.069,0,.1-.069.1-.138a.286.286,0,0,1,.1-.278C31.415,32.547,31.415,32.616,31.31,33.068Zm.382,1.32A13.345,13.345,0,0,0,31,36.472c0,.069.555-1.424.695-1.91C31.727,34.422,31.727,34.353,31.692,34.388Zm-.069-24.174c0-.1-.035-.208-.1-.208-.139,0-.348.555-.417,1.112l-.069.486.312-.591A4.349,4.349,0,0,0,31.623,10.214Zm.416,23.41c.035-.139.1-.313.1-.348,0-.069-.069,0-.139.139a1.054,1.054,0,0,0-.1.382C31.9,33.831,31.97,33.762,32.039,33.624Zm.14-28.794c-.035-.035-.07.035-.07.174s.035.139.07.07A.287.287,0,0,0,32.179,4.829Zm1.076,25.356c-.139.208-.938,2.292-1.077,2.709-.139.556.069.139.486-.938C33.255,30.428,33.429,29.907,33.255,30.185Zm-.695-1.008c0-.486.069-.555.208-.243a.426.426,0,0,1-.07.417C32.6,29.525,32.561,29.49,32.561,29.177Zm5.071-8.891a7.646,7.646,0,0,0-.625,1.32.687.687,0,0,1-.1.278c-.069.139-.243.382-.382.625-.139.208-.278.452-.243.521a.529.529,0,0,1-.139.278,4.035,4.035,0,0,0-.417.869,4.559,4.559,0,0,1-.382.869,8.75,8.75,0,0,0-.348.833c-.138.382-.382.9-.486,1.215-.278.591-.972,2.292-.972,2.362.035.138.139-.07.521-1.008.243-.59.66-1.562.938-2.188.313-.625.625-1.285.695-1.459.069-.139.278-.556.486-.9.174-.313.417-.834.556-1.146.1-.313.278-.765.382-1.008A9.794,9.794,0,0,0,37.632,20.286Zm-2.918,3.543c.1.208.1.208.243-.035.069-.138.139-.243.1-.278s-.1.035-.174.1c-.07.1-.139.1-.139.035a.436.436,0,0,1,.139-.243,5.648,5.648,0,0,0,.555-1.077,7.887,7.887,0,0,1,.591-1.215c.138-.174.208-.348.138-.417-.035-.069-.035-.069.035-.035s.139-.035.208-.174c.1-.278-.1-.348-.243-.035a.855.855,0,0,0-.138.382,1.227,1.227,0,0,1-.174.278,2.479,2.479,0,0,0-.348.695c-.138.278-.347.833-.555,1.181A1.515,1.515,0,0,0,34.714,23.828Zm1.7-3.751c.1.174.139.139.452-.452.313-.625.348-.695.174-.66-.069,0-.139.1-.208.278a2.455,2.455,0,0,1-.174.416.464.464,0,0,0-.1.278c0,.1-.035.138-.1.1S36.346,20.008,36.416,20.077Zm.174,2.675c-.069.173-.139.312-.174.312s0-.139.07-.278c.069-.174.138-.348.173-.348S36.659,22.578,36.59,22.752Zm1.632-3.613c-.069-.035-.417.625-.382.764,0,.07.1-.069.208-.312C38.187,19.383,38.257,19.174,38.222,19.14Zm-.138-.833c0,.173.173-.07.486-.625.555-1.112.695-1.459.625-1.494-.035-.069-.1-.035-.1.035-.035.035-.243.521-.521,1.042A8.127,8.127,0,0,0,38.084,18.306Zm1.007-.9-.243.312a1.553,1.553,0,0,0-.208.452c.035.069,0,.139-.069.139-.035,0-.1.1-.1.208-.035.174-.035.208.069.07a2.96,2.96,0,0,0,.313-.66Zm.138-1.389c.035.243.313-.208.9-1.355,1.251-2.466,1.251-2.5,1.112-2.466a3.176,3.176,0,0,0-.452.695c-.208.417-.625,1.251-.972,1.876A8.98,8.98,0,0,0,39.229,16.014ZM80.77,8.025c-.521.07-1.389.1-1.91.139-.9.035-1.7.069-2.258.1-.278.486-.521.938-.8,1.424-2.6,4.933-2.952,5.662-3.786,7.607-.556,1.355-1.425,3.23-1.806,3.96A104.578,104.578,0,0,0,65.452,34.7c-.208.869-.521,1.98-.695,2.5a36.011,36.011,0,0,0-1.389,10.594A3.9,3.9,0,0,0,63.82,49.6a3.675,3.675,0,0,0,.729-.416,3.576,3.576,0,0,1,.765-.382c.243.035.66,1.6.452,1.772a.967.967,0,0,0-.174.382c-.035.278-.764.591-1.285.486a1.7,1.7,0,0,1-.764-.278,5.274,5.274,0,0,1-.729-.486,1.193,1.193,0,0,0-.486-.278,4.063,4.063,0,0,1-.66-.8c-.972-1.389-1.146-3.543-.66-7.745a52.317,52.317,0,0,1,1.806-8.579,113.977,113.977,0,0,1,7.5-19.624c-3.89,4.306-7.19,7.12-10.663,7.467a1.092,1.092,0,0,0-.625.138,2.118,2.118,0,0,0,.243.625,6.006,6.006,0,0,1,.625,2.6,14.577,14.577,0,0,1-.868,3.96,25,25,0,0,1-4.585,6.321,5.029,5.029,0,0,1-1.91,1.182c-.973.173-1.6-.208-2.258-1.285a7.947,7.947,0,0,1-.972-5.488,25.847,25.847,0,0,1,2.848-7.294c1.355-2.466,1.355-2.466,1.632-2.536a2.128,2.128,0,0,0,.486-.243c.208-.139.278-.139.452-.035a.375.375,0,0,0,.312.069.086.086,0,0,1,.139.035,1.625,1.625,0,0,0,.347.313c.278.138.487.173,1.355.1.556-.035,1.251-.139,1.529-.174,2.6-.452,7.607-1.806,14.171-10.8h-.035c0-.069-5.071.417-5.314.521-.069.035-.035.035-5.94.555-4.9.452-7.78.765-10.072,1.042-.972.1-3.577.208-3.89.174a.921.921,0,0,1-.625-.66c0-.069-.035-.139-.1-.139-.174.035-.139-.555,0-.695a.524.524,0,0,0,.139-.278c.069-.174.069-.174.938-.174.833,0,.868,0,1.181-.173a1.347,1.347,0,0,1,1.562.1c.139.139.208.139.66.1.278,0,1.494-.1,2.675-.208,1.215-.07,2.362-.174,2.6-.174.278-.035.417-.035.417.035,0,.035-.139.069-.278.069a2.64,2.64,0,0,0-.522.07A39.494,39.494,0,0,0,61.6,8.407c.555-.035,2.362-.208,3.994-.312,1.632-.139,3.647-.313,4.48-.382s1.772-.139,2.015-.174a8.564,8.564,0,0,0,.972-.069l.348-.035c.138-.208.278-.417.451-.66C74.9,4.9,76.567,1.947,76.88,1.5a2.876,2.876,0,0,0,.451-.833A.9.9,0,0,1,78.3,0c.416.035,1.319.555,1.285.729,0,.069.1.138.278.138.556.07.869,1.251.417,1.6a.555.555,0,0,0-.208.313,7.554,7.554,0,0,1-1.319,2.049,21.647,21.647,0,0,0-1.494,2.328c2.223-.174,4.863-.382,5.87-.452,1.182-.1,2.536-.139,5.453-.139,3.682,0,3.856,0,4.515.139a4.464,4.464,0,0,1,1.737.695.624.624,0,0,1,.1.382.533.533,0,0,0,.139.348c.139.069.174.347.069.729A2.633,2.633,0,0,1,94,9.692a.769.769,0,0,0-.382.035,8.963,8.963,0,0,1-2.154.312c-.069,0-.347-.035-.695-.035a2.2,2.2,0,0,1-.695-.07.485.485,0,0,0-.312-.1c-.243,0-.208-.1.069-.174a9.935,9.935,0,0,0,2.015-.59,3.985,3.985,0,0,1,1.424-.556c.382-.1.452-.173.278-.208a62.478,62.478,0,0,0-6.53-.486C86.362,7.816,82.159,7.956,80.77,8.025ZM57.881,21.363a2.34,2.34,0,0,0-.729-.208c-.348-.035-.765-.069-.939-.1-.243-.069-.278-.035-.347.174-.069.139-.452.9-.869,1.667-2.188,3.89-3.612,7.815-3.612,9.865,0,1.215.243,1.32,1.285.66a12.769,12.769,0,0,0,3.265-3.543c1.6-2.257,2.327-3.855,2.5-5.592A4.557,4.557,0,0,0,57.881,21.363Zm9.031-12.99c0-.035-.035-.035-.1-.035a1.21,1.21,0,0,1-.452.069c-.729.035-3.056.243-4.306.382-.695.069-1.806.173-2.432.208-.625.07-1.146.139-1.181.139A11.256,11.256,0,0,0,60.694,9c.625-.069,1.771-.138,2.536-.208s1.806-.174,2.327-.208C66.773,8.477,66.912,8.442,66.912,8.373ZM58.68,25.531c-.035-.07-.035,0-.035.138s0,.139.035.07C58.714,25.635,58.714,25.565,58.68,25.531ZM73.094,10.7a5.038,5.038,0,0,1-.555.66A24.449,24.449,0,0,0,70.28,15.7c-.035.139-.1.243-.139.243-.069,0-.1.07-.1.174a10.045,10.045,0,0,1-1.215,2.64c-.208.451-.417.833-.417.9a3.78,3.78,0,0,1-.278.556,76.267,76.267,0,0,0-3.092,7.919,15.04,15.04,0,0,1-1.007,2.536,12.051,12.051,0,0,0-.729,2.153c-.695,2.4-.729,2.639-.555,2.675.1,0-.035.452-.208.555a3.9,3.9,0,0,0-.382,1.181,2.962,2.962,0,0,0-.174,1.389c.139.382.139.417-.035.382-.208-.07-.764,4.376-.625,5.279a9.319,9.319,0,0,1,.035,1.425c-.035,1.493.138.729.521-2.327.243-1.876.521-3.509.729-4.411.208-.765.452-1.772.521-2.189a11.321,11.321,0,0,1,.452-1.6c.139-.486.417-1.355.556-1.91.173-.555.416-1.424.59-1.945.139-.522.348-1.146.382-1.355a7.3,7.3,0,0,1,.278-.8,23.55,23.55,0,0,0,.9-2.674c.035-.174,1.563-4.133,2.57-6.564.625-1.563,3.022-6.669,3.96-8.475C73.371,10.457,73.441,10.248,73.094,10.7ZM62.5,43.7c-.07-.243-.1,0-.174.9-.069,1.355-.069,2.084.035,1.979a5.826,5.826,0,0,0,.069-1.181,7.027,7.027,0,0,1,.07-1.25A.966.966,0,0,0,62.5,43.7Zm.173-2.015c-.035-.069-.069.035-.069.174,0,.174,0,.174.069.069A.3.3,0,0,0,62.674,41.681Zm5.94-20.145c-.555,1.355-.625,1.633-.486,1.737.1.1.1.139-.069.139-.139-.035-.348.347-.765,1.459-.9,2.292-1.667,4.55-2.222,6.5-.139.521-.486,1.7-.765,2.639s-.625,2.223-.8,2.848c-.1.625-.348,1.6-.452,2.119-.139.521-.243,1.285-.312,1.7-.139,1.215.138.417.486-1.32.208-1.215.312-1.562.521-1.7.174-.139.208-.174.035-.382-.139-.208-.1-.278.1-.59a2.358,2.358,0,0,0,.243-.8c.069-.382.243-.972.972-3.265.1-.278.138-.555.069-.59-.035,0-.035-.139,0-.313.035-.1.139-.208.208-.138.139.069.347-.591.591-1.772a2.773,2.773,0,0,1,.208-.695,6.561,6.561,0,0,0,.487-1.25,18.123,18.123,0,0,1,1.042-2.813,5.071,5.071,0,0,0,.312-.869,1.533,1.533,0,0,1,.208-.625,2.671,2.671,0,0,0,.243-.764c.1-.452.208-.66.278-.625.07.069.1.035.07-.1a1.922,1.922,0,0,1,.521-1.251,1.355,1.355,0,0,0,.243-.833c.035-.382.139-.729.174-.695.069,0,.174-.139.243-.313.069-.208.139-.347.208-.347a5.4,5.4,0,0,0,.521-1.424C70.8,16.639,69.62,19.07,68.613,21.536ZM67.4,8.373a.075.075,0,0,0-.07-.07c-.069,0-.1.035-.1.07s.035.069.1.069A.075.075,0,0,0,67.4,8.373Zm.521-.07c0-.035-.035-.069-.1-.069a.262.262,0,0,0-.138.069c-.035.035,0,.07.069.07C67.85,8.373,67.919,8.338,67.919,8.3ZM69.1,8.2c-.1,0-.208,0-.208.035,0,.1.1.1.312,0C69.308,8.2,69.308,8.2,69.1,8.2Zm2.57-.139a13.539,13.539,0,0,0-2.292.174h.452c.278-.035.8-.069,1.146-.1A3.542,3.542,0,0,0,71.67,8.06Zm7.467,14.693c0,.035.173.417.347.868a6.373,6.373,0,0,1,.417,3.057,3.9,3.9,0,0,1-.452,1.841,9.923,9.923,0,0,1-2.362,3.195,5.211,5.211,0,0,1-2.432,1.355c-.452.1-.938.278-1.076.313a1.82,1.82,0,0,1-1.285-.035c-.521-.138-1.389-.972-1.355-1.319a1.451,1.451,0,0,0-.312-.486c-.66-.834-.8-3.439-.278-4.933a15.5,15.5,0,0,1,3.994-5.9l.66-.591-.243-.347c-.139-.174-.208-.382-.174-.417.069-.139.66-.035,1.007.174.278.174.382.208.625.1a1.42,1.42,0,0,1,1.181.1c.348.173,1.077.972,1.042,1.181,0,.312,2.084.452,4.55.243a34.16,34.16,0,0,0,4.654-.66h.695c.035,0,.208.035.243.035a.313.313,0,0,1,.174.035.121.121,0,0,1,.069.035.109.109,0,0,1,.07.035h.035L89,20.7c-.1,0-.174.035-.243.035-.347.069-.625.139-.59.174a3.652,3.652,0,0,0,.9-.139.034.034,0,0,0,.035.035.034.034,0,0,0,.035.035c0,.035.035.139.069.139a1.518,1.518,0,0,0,.035.174c-.035-.069,0,.1,0,.138v.243a1.485,1.485,0,0,1-.035.174l-.035.035c0,.035-.035.07-.035.1-.035.035-.035.035-.035.069H89.07c0,.035-.035.069-.069.1h-.035v.035a31.6,31.6,0,0,1-9.1.764A2.313,2.313,0,0,0,79.137,22.752Zm-.973.138c-.243-.416-.312-.452-.625-.452a.767.767,0,0,1-.417-.1c-.035-.069-.139-.1-.243-.139a.349.349,0,0,1-.278-.486c0-.069,0-.138-.07-.1a11.364,11.364,0,0,0-1.6,1.563,2.344,2.344,0,0,1-.382.486,19.837,19.837,0,0,0-2.362,3.994,6.881,6.881,0,0,0-.522,3.716c.07.278.1.278.695.278a4.1,4.1,0,0,0,1.7-.452,7.639,7.639,0,0,0,2.848-2.153C78.546,27.2,79.1,24.523,78.164,22.891ZM110.6,27.059a4.727,4.727,0,0,0-2.327.417c-2.709,1.007-7.294,3.439-7.467,3.994-.069.139-.243.765-.417,1.389a82.321,82.321,0,0,1-5.87,15.179,36.7,36.7,0,0,1-6.669,9.412c-.938.938-3.543,3.2-4.446,3.856a30.706,30.706,0,0,1-2.57,1.736c-2.6,1.494-4.029,1.841-5.28,1.216a3.457,3.457,0,0,0-.729-.278c-.486-.035-1.493-1.7-1.459-2.362a3.158,3.158,0,0,0-.208-.9c-.139-.417-.208-.695-.139-.764s.07-.174,0-.312a6.735,6.735,0,0,1,.66-2.918c.312-.764.452-1.112.521-.972.07.069.07.035.07-.139-.035-.138-.035-.243,0-.208a7.5,7.5,0,0,0,.833-1.354c2.084-3.856,6.217-8.858,11.392-13.824a93.2,93.2,0,0,1,12.122-9.76c.625-.417.625-.452.8-1.181a23.617,23.617,0,0,0,.347-8.3l-.069-.486-.521.9c-.278.521-.695,1.181-.869,1.493a6.742,6.742,0,0,1-.625.9c-.555.591-4.689,5.905-5.175,6.634-.486.764-.521.9-.312.764.417-.243-.556,1.007-1.806,2.223a4,4,0,0,1-2.431,1.528c-.695.1-1.042.035-1.146-.278-.035-.1-.139-.139-.313-.139-.625.1-1.355-1.806-1.25-3.369a18.856,18.856,0,0,1,2.188-6.217,39.782,39.782,0,0,1,3.925-5.453A5.989,5.989,0,0,1,93.9,17.576c.208-.035.591-.1.9-.138.486-.069.591-.035,1.215.278,1.042.591,1.529.972,1.772,1.529L98,19.73l.555-.625c.382-.486.521-.591.556-.417s.138.07.59-.382c.278-.348.556-.556.625-.522.035.07-.035.208-.139.313-.174.173-.174.243-.069.243.347.035.729.347.729.625-.035.174.035.243.174.243.243.035.382.522.555,1.946a22.916,22.916,0,0,1,.07,6.147c-.07.556-.139,1.008-.139,1.008s.452-.208,1.007-.452a3.6,3.6,0,0,1,1.112-.452,6.518,6.518,0,0,0,1.876-.729,11.346,11.346,0,0,1,4.516-.973c.625.1,1.389.522,1.285.695a.722.722,0,0,0,.243.278C112.029,26.989,111.717,27.093,110.6,27.059ZM98.344,32.616a.3.3,0,0,0-.208.243,7.055,7.055,0,0,1-.938.834c-.729.59-.938.66-1.007.521s-.1-.1-.069.035-.035.278-.243.382a2.533,2.533,0,0,0-.417.312c-.069.07-.869.729-1.772,1.424-.9.73-1.806,1.459-2.014,1.668-.174.173-1.355,1.25-2.64,2.362A94.8,94.8,0,0,0,82.3,47.135a13.086,13.086,0,0,1-1.042,1.112c-.1.1-.382.452-.66.8-.243.347-.8,1.007-1.181,1.493s-.8,1.042-.972,1.251a31.3,31.3,0,0,0-3.266,6.252,11.106,11.106,0,0,0-.625,3.4c.035.66.208.765,1.181.834.9.035,1.077.208.486.382-.208.035-.278.1-.174.1a6.67,6.67,0,0,0,1.806-.555c.348-.243.555-.174.278.1a2.994,2.994,0,0,1-1.424.764c-.417.1-.486.139-.278.174a4.8,4.8,0,0,0,1.112-.208,11.754,11.754,0,0,0,2.952-1.355c.66-.382,1.216-.695,1.216-.695A14.255,14.255,0,0,0,83.1,60.02a32.549,32.549,0,0,0,2.848-2.431c1.459-1.459,1.181-1.251-.764.555-1.911,1.737-4.967,3.751-4.654,3.092.035-.1.1-.174.173-.174a21.4,21.4,0,0,0,2.64-1.7,51.378,51.378,0,0,0,4.48-4.272A17.212,17.212,0,0,0,89.522,53c-.278.278-.8.869-1.146,1.285a15.051,15.051,0,0,1-2.257,2.292c-.07-.035-.035-.1.035-.208a.2.2,0,0,0,.1-.243,3.894,3.894,0,0,0-.833.729c-.869.868-1.425,1.285-1.494,1.181a12.715,12.715,0,0,1,1.563-1.667,26.1,26.1,0,0,0,4.063-4.724A60.969,60.969,0,0,0,94.732,42.2a63.306,63.306,0,0,0,2.744-6.53c.1-.382.347-1.111.521-1.632C98.623,32.407,98.587,32.477,98.344,32.616Zm.695-2.014c-.1-.1-1.146.59-1.355.868a.416.416,0,0,1-.347.243,21.779,21.779,0,0,0-3.856,2.813c-.208.208-.347.313-.278.243.069-.138.035-.138-.035-.1a.318.318,0,0,0-.1.174c.069.138-.208.382-.382.312a.355.355,0,0,0-.278.243c-.1.1-.174.208-.208.174-.069-.1-.66.382-.66.59s-.348.452-.591.452c-.1,0-.173.035-.173.07a35.25,35.25,0,0,1-4.933,4.48c-.035-.069-.035-.035,0,0,.1.174-.173.555-.312.486a10.164,10.164,0,0,0-2.084,2.015c-.138.174-.695.833-1.285,1.459a37.35,37.35,0,0,0-4.133,5.175c.035.07-.07.313-.243.556a1.906,1.906,0,0,0-.313.555c0,.1.035.069.591-.764.417-.556,1.007-1.32,2.57-3.2.312-.382.764-.869,1.007-1.112s1.042-1.076,1.737-1.841c1.945-2.119,5.87-5.835,8.683-8.231,1.181-.972,3.3-2.6,4.55-3.508.8-.556,1.667-1.181,1.979-1.389C99.073,30.984,99.247,30.74,99.039,30.6ZM84.382,7.192a6.058,6.058,0,0,0-1.772,0c-.486.035-1.146.069-1.528.1-.938.035-1.008.069-1.112.139-.035,0,.069.035.243,0,.208-.035.312,0,.278.035s.069.035.312.035c.348,0,.348,0,.07-.035-.243-.035-.278-.035-.1-.069a2.277,2.277,0,0,1,.66.035A2.229,2.229,0,0,0,82.541,7.4a9.389,9.389,0,0,1,1.667-.174C84.313,7.261,84.382,7.226,84.382,7.192ZM80.318,62.556c-.035,0-.07.07-.1.174s-.035.174.035.174c.035,0,.1-.07.1-.174S80.353,62.556,80.318,62.556Zm.729-.312a.3.3,0,0,0-.208.1c-.035.07,0,.139.035.139a.247.247,0,0,0,.208-.1C81.117,62.313,81.082,62.243,81.047,62.243Zm.833-.417a.781.781,0,0,0-.347.174c-.1.069-.174.174-.1.174A.576.576,0,0,0,81.742,62C81.881,61.931,81.916,61.861,81.881,61.827Zm1.806-1.285c-.312.208-.59.416-.625.451-.035,0-.278.174-.555.348a1.621,1.621,0,0,0-.486.382c0,.069.243-.035.555-.243.278-.208.695-.522.938-.66a2.629,2.629,0,0,0,.556-.452C84.173,60.263,84,60.333,83.687,60.542Zm1.632-1.355c-.035-.035-.278.138-.555.416s-.452.487-.417.522a2.525,2.525,0,0,0,.591-.452A1.52,1.52,0,0,0,85.319,59.187Zm1.355-52.03a7.22,7.22,0,0,0,1.319-.07c.1-.035-2.952-.035-3.23.035-.243.035-.208.035.1.07a2.5,2.5,0,0,0,.452.035C85.355,7.192,85.98,7.192,86.675,7.157ZM86.4,58.249a4.061,4.061,0,0,0-.938.8c0,.139.382-.138.8-.521C86.465,58.284,86.535,58.145,86.4,58.249Zm1.146-1.181c-.486.452-.521.486-.382.486.035.035.278-.139.452-.382C88.133,56.617,88.063,56.582,87.542,57.068Zm.035-35.983a1.381,1.381,0,0,0,.452-.139c.1-.069-.625.069-.729.139C87.229,21.12,87.369,21.12,87.577,21.085Zm.486,34.386.278-.348-.382.313c-.348.347-.417.382-.278.382A1.284,1.284,0,0,0,88.063,55.471Zm7.572-32.3c.555-.556.59-.73.486-2.049a7.571,7.571,0,0,0-.208-1.285c-.174-.243-2.848,2.675-4.48,4.9A30.685,30.685,0,0,0,87.786,31.5c-.1.313-.1.313.139.174A15.5,15.5,0,0,0,89.14,30.5c.486-.555,1.181-1.32,1.562-1.667.348-.348.973-1.042,1.389-1.563s.868-1.076,1.042-1.25a17.182,17.182,0,0,0,1.285-1.424C94.975,23.933,95.5,23.308,95.635,23.169ZM89.487,54.185c-.069.069-.521.591-.972,1.146-.834,1.042-.417.66.66-.555C89.661,54.22,89.8,53.942,89.487,54.185Zm-1.146-47.1a1.373,1.373,0,0,0,.521.07c.243-.035.452,0,.452.035s.069.069.174.069c.139,0,.139-.035.035-.069s-.1-.035,0-.07c.069-.035-.174-.069-.555-.069A4.272,4.272,0,0,0,88.342,7.087Zm.8,47.9c-.035,0-.1.069-.139.173s0,.174.035.174c.069,0,.1-.069.139-.174A.42.42,0,0,0,89.14,54.984Zm1.7-2.084c-.174.1-.174-.174,0-.382.069-.069.069-.069-.035,0-.069.069-.348.417-.591.729-.312.417-.382.591-.312.66.208.1.208.1.139-.035a.3.3,0,0,1,.1-.313c.1-.1.139-.139.208-.035.035.1.069.1.139-.035s.035-.174-.035-.1c-.069.035-.1,0-.069-.1a.23.23,0,0,1,.174-.138c.069.035.174-.035.278-.139Q91,52.8,90.842,52.9ZM90.391,7.226a1.119,1.119,0,0,1,.555.035,1.157,1.157,0,0,0,.486.069,13.633,13.633,0,0,1,2.223.243c.382.1.555.1.243-.035a11.844,11.844,0,0,0-3.716-.452C89.7,7.157,89.87,7.261,90.391,7.226Zm.068,44.7a.378.378,0,0,0,.1-.208c-.035-.035-.1.035-.174.139C90.321,52,90.356,52.032,90.46,51.927Zm2.5-2.779c-.035-.035-.174.139-.312.382-.139.278-.556.938-.9,1.494s-.66,1.076-.66,1.111.035,0,.1-.069a.362.362,0,0,1,.244-.174c.1,0,.139-.069.139-.208a.158.158,0,0,1,.139-.173c.069.035.1-.035.138-.139a.9.9,0,0,1,.243-.417,1.052,1.052,0,0,0,.278-.555.353.353,0,0,1,.208-.313.4.4,0,0,0,.174-.312.661.661,0,0,1,.139-.417C93,49.288,93,49.184,92.961,49.149Zm-1.042.487c.069-.035.1-.139.069-.174s-.1,0-.139.138C91.78,49.739,91.78,49.774,91.919,49.636Zm1.424-.938c0-.035-.035-.035-.1-.07a.156.156,0,0,0-.1.139c0,.069.035.1.1.035A.111.111,0,0,0,93.343,48.7Zm.347-1.946c0-.069-.035-.069-.1.035a.692.692,0,0,0-.139.278c0,.07.035.035.1-.035A.987.987,0,0,0,93.69,46.752Zm1.181-11.532c.035,0,.1-.069.208-.173a1.781,1.781,0,0,0,.1-.174.407.407,0,0,0-.208.174C94.871,35.117,94.836,35.221,94.871,35.221Zm.522,9.309a3.644,3.644,0,0,0-.417.9c0,.139.1-.069.278-.452C95.357,44.738,95.427,44.53,95.392,44.53Zm.659-1.32c-.069-.069-.452.833-.452.972,0,.035.1-.139.244-.417A2.32,2.32,0,0,0,96.052,43.21Zm.556-19.971a3.864,3.864,0,0,0-.938,1.181,3.859,3.859,0,0,0,.59-.695C96.573,23.342,96.712,23.1,96.608,23.238Zm-.174,1.6c-.035,0-.1.069-.208.173-.069.07-.1.139-.069.139s.1-.069.174-.139C96.434,24.905,96.469,24.836,96.434,24.836ZM96.92,41.2c0-.069-.1.069-.208.348-.382.938-.382,1.007-.069.382A1.919,1.919,0,0,0,96.92,41.2Zm.382-.833c-.035-.07-.1.069-.174.278-.174.417-.1.486.069.069C97.3,40.535,97.337,40.362,97.3,40.362Zm6.738-12.643c-.208.069-.243.174-.069.174.035,0,.1-.069.173-.1C104.179,27.719,104.144,27.684,104.041,27.719Zm1.042-.417c0-.069-.659.208-.764.313s.139.035.417-.1C104.944,27.441,105.082,27.336,105.082,27.3Zm5.7-1.042a5.634,5.634,0,0,0-2.813-.035,19.023,19.023,0,0,0-2.6.938c-.07.069.1.035.347-.035.208-.1.938-.348,1.6-.556a4.941,4.941,0,0,1,2.362-.278C110.466,26.364,110.848,26.329,110.779,26.26Zm14.553-1.841a3.109,3.109,0,0,1-.868,1.424c-.833.972-1.181,1.181-2.049,1.25a1.6,1.6,0,0,1-.9-.069c-.1-.069-.313-.174-.452-.243A6.1,6.1,0,0,1,119.079,24a11.351,11.351,0,0,1-.208-1.6,6.953,6.953,0,0,0-.139-1.181c-.07-.069-.139-.069-.382.069-.208.1-.278.174-.243.243s.035.07-.035.035c-.139-.07-.591.347-.452.452.069.035.069.035-.035.035-.139-.035-.8.59-1.215,1.112-.1.138-.208.243-.278.243a.967.967,0,0,0-.452.521.325.325,0,0,1-.173.243.26.26,0,0,0-.174.243c.035.069-.035.208-.1.312a13.621,13.621,0,0,0-1.215,1.876c-.347.556-.66,1.077-.695,1.181a1.848,1.848,0,0,0-.243.522,11.947,11.947,0,0,1-1.076,2.222c-.278.486-.625,1.077-.73,1.251-.069.173-.382.695-.625,1.111-.278.452-.556.973-.66,1.182-.243.486-.9,1.25-1.112,1.25a.766.766,0,0,1-.278-.035.287.287,0,0,1-.208-.139.554.554,0,0,0-.278-.174.427.427,0,0,1-.278-.173,1.837,1.837,0,0,0-.278-.486l-.173-.348.173-.8a30.531,30.531,0,0,1,2.015-5.766c.174-.417.452-1.112.625-1.529.174-.382.452-1.112.66-1.563.209-.486.521-1.25.729-1.736a27.068,27.068,0,0,1,1.215-2.466c.174-.347.486-.938.695-1.354a3.234,3.234,0,0,1,.521-.869.682.682,0,0,0,.139-.278c0-.035.069-.1.174-.1.9-.174.9-.174,1.042.035a.506.506,0,0,0,.278.174c.174,0,.174.278,0,.625a1.054,1.054,0,0,0-.1.382,3.574,3.574,0,0,1-.382.765,17.022,17.022,0,0,0-1.424,2.952c-.139.382-.555,1.425-.938,2.327a10.384,10.384,0,0,0-.8,2.119,3.841,3.841,0,0,0,.382-.556c.348-.521.556-.729.417-.347a.734.734,0,0,1-.139.243c-.069.1-.9,1.493-1.076,1.841-.313.659-.07.382.625-.8.417-.625.973-1.563,1.285-1.979a37.264,37.264,0,0,1,3.613-4.411,2.508,2.508,0,0,0,.486-.486,7.269,7.269,0,0,0-1.251.972,35.8,35.8,0,0,0-2.848,3.577c-.382.625-.729.972-.555.591a42.688,42.688,0,0,1,2.743-3.647,6.457,6.457,0,0,1,1.946-1.737c.452-.208,1.528,0,1.7.348a.993.993,0,0,0,.243.278,2.449,2.449,0,0,1,.764,1.215,16.549,16.549,0,0,1,.348,1.806c.243,1.355.452,2.015.695,2.153a1.544,1.544,0,0,0,.591,0c.416-.035.59-.1,1.319-.59a16.968,16.968,0,0,0,1.424-1.146C125.54,23.308,125.609,23.342,125.331,24.419Zm-16.845,8.648a.439.439,0,0,0-.139.243.034.034,0,0,0,.035.035,2.093,2.093,0,0,0,.139-.208C108.625,32.964,108.59,32.964,108.486,33.068Zm2.813-7.224c0-.035-.07-.035-.174-.035s-.174.1-.243.278a.6.6,0,0,0-.069.243c.035,0,0,.1-.07.208a8.157,8.157,0,0,0-.66,1.529c.035.035.07,0,.1-.035.069-.035.069-.035.069.035-.035.069-.1.1-.138.069-.07,0-.1.035-.139.1a11.248,11.248,0,0,1-.452,1.146c-.452,1.077-.625,1.6-.486,1.494.035-.035.069,0,.035.069s-.069.1-.139.1c-.035-.035-.07-.035,0,.035.069.1,0,.452-.1.382-.035,0-.035.035,0,.1s0,.138-.1.138c-.07,0-.1.035-.07.139a.788.788,0,0,1-.069.452c-.174.382-.174.452.035.138.069-.138.382-.868.66-1.632s.555-1.424.591-1.493a2.343,2.343,0,0,0,.243-.625c.069-.278.173-.555.243-.555a.5.5,0,0,0,.069-.243,1.255,1.255,0,0,1,.174-.452A9.313,9.313,0,0,0,111.3,25.843Zm-.243-.174V25.7c.035,0,.069-.1.138-.208.1-.174.1-.174-.035-.07C111.091,25.531,111.022,25.6,111.057,25.669Zm.243-.625a.264.264,0,0,0-.07.138c.035.139.07.1.139-.069C111.369,25.045,111.369,25.009,111.3,25.045Zm33.725.938a1.239,1.239,0,0,0-.382.59.368.368,0,0,1-.138.313.111.111,0,0,0-.1.1,8.743,8.743,0,0,1-.972,1.181,11.149,11.149,0,0,0-1.007,1.181,8.14,8.14,0,0,1-1.772,1.7c-.035-.035-.1.035-.1.1,0,.417-2.432,2.188-3.89,2.813a3.869,3.869,0,0,1-3.334.278c-.417-.173-.973-.66-1.008-.938a1,1,0,0,0-.278-.382,2.284,2.284,0,0,1-.625-1.737,5.624,5.624,0,0,1,.382-2.015c.035-.1.208-.521.348-.938a46.82,46.82,0,0,1,1.91-4.48l.486-.938-.348.243a4,4,0,0,0-.764.764c-.278.452-.417.591-.695.625-.278.069-.59.312-1.389,1.112a6.586,6.586,0,0,1-1.181,1.007.159.159,0,0,0-.139.174c0,.208-.382.764-.382.555,0-.035-.1.07-.208.243s-.521.695-.9,1.181c-.417.487-1.25,1.563-1.91,2.432a13.526,13.526,0,0,1-2.6,2.953c-.9.8-1.146.868-1.563.625a2.348,2.348,0,0,1-.486-.312.413.413,0,0,0-.208-.174c-.139,0-.208-.382-.1-.452.07-.035.07-.1-.035-.173-.59-.452-.625-1.355-.035-2.571.208-.382.382-.729.452-.729.139,0,.139,0-.208.729a3.291,3.291,0,0,0-.382,1.841c.07.1.1.1.1-.035a3.239,3.239,0,0,1,.208-.66,1.01,1.01,0,0,0,.174-.695c-.07-.173,0-.347.416-.9.452-.66.556-.938.243-.66-.1.069-.173.069-.173,0a.092.092,0,0,1,.1-.1,1.936,1.936,0,0,0,.312-.417,4.081,4.081,0,0,1,.452-.764,15.4,15.4,0,0,0,1.008-1.424,21.128,21.128,0,0,1,1.563-2.153.431.431,0,0,0,.139-.278,3.98,3.98,0,0,1,.555-.9,3.925,3.925,0,0,0,.591-.8,16.124,16.124,0,0,1,1.945-2.4,6.4,6.4,0,0,1,1.251-1.146,1.668,1.668,0,0,0,.66-.382,1.666,1.666,0,0,1,1.736-.486,1.494,1.494,0,0,1,.66.278,2.2,2.2,0,0,0,.486.348,2.377,2.377,0,0,1,.625.833,2.53,2.53,0,0,0,.452.66,2.5,2.5,0,0,1,.347.313.837.837,0,0,0,.382.243c.208,0,.452.66.452,1.181a5.963,5.963,0,0,1-.348,1.528c-.208.522-.521,1.425-.695,1.946-.173.555-.625,1.7-.972,2.6a10.968,10.968,0,0,0-1.042,3.751c0,.556,0,.625.243.66a2.777,2.777,0,0,0,1.736-.347,19.419,19.419,0,0,0,4.967-3.335c.521-.486.868-.695.938-.625.035.07.452-.278,1.076-.868.695-.695,1.008-.938,1.042-.834.069.1-.035.278-.139.382a.744.744,0,0,0-.208.312,5.6,5.6,0,0,0,.66-.555,2.6,2.6,0,0,1,.8-.66c.1-.035.243-.1.278-.208a1.293,1.293,0,0,1,.66-.695C145.373,25.6,145.337,25.7,145.025,25.982ZM132.764,20.39a13.244,13.244,0,0,0-1.806,1.459c-.208.243-.382.243-.278.035.035-.1.035-.139-.069-.1-.069.035-.1.173-.1.243,0,.208-.382.659-1.563,1.945a21.128,21.128,0,0,0-1.563,1.91c-.521.695-1.007,1.32-1.077,1.424a24.973,24.973,0,0,0-2.014,3.439c0,.174.208-.035,1.181-1.181,1.841-2.223,2.258-2.674,2.292-2.258,0,.07.035.035.069-.069a.259.259,0,0,0,0-.312,4.375,4.375,0,0,1,.9-1.181c.869-.938,1.007-1.077,1.25-1.042s.243,0,.139-.139c-.139-.138-.035-.278.834-1.145a5.08,5.08,0,0,0,1.424-1.98C132.591,20.877,132.764,20.425,132.764,20.39Zm-7.954,6.773c0,.173.1.1.243-.1.069-.1.1-.208.035-.243s-.1,0-.1.1c0,.069-.035.138-.1.138C124.845,27.059,124.811,27.129,124.811,27.163Zm5.383-2.049a23.772,23.772,0,0,0-1.945,2.153c.035,0,.555-.59,1.215-1.285.764-.834,1.215-1.285,1.355-1.285.1,0,.174-.035.139-.1a.87.87,0,0,1,.173-.382A8.039,8.039,0,0,0,130.194,25.114Zm-.66,1.355c-.035-.139-.069-.174-.173-.07-.1.07-.1.1,0,.243C129.5,26.816,129.6,26.712,129.534,26.469ZM161.8,17.785c.625,1.6-.312,4.2-2.987,8.371a57.072,57.072,0,0,1-7.954,9,12.357,12.357,0,0,1-4.723,2.675,4.546,4.546,0,0,1-2.952-.486l-.555-.348-.417.764c-.452.869-1.841,3.925-2.362,5.176-.174.452-.417,1.111-.591,1.459a21.215,21.215,0,0,0-1.459,6.287h-.625c-.486-.035-.66-.069-.764-.208a1.155,1.155,0,0,0-.452-.312c-.174-.07-.382-.208-.417-.348a3.517,3.517,0,0,0-.348-.555c-.278-.452-.208-.938.278-2.813.521-2.015,2.917-9.587,3.508-11.011.138-.312.486-1.25.8-2.049a9.238,9.238,0,0,1,.8-1.668,1.435,1.435,0,0,0,.312-.695c.069-.278.208-.729.312-1.007s.452-1.112.765-1.841a43.807,43.807,0,0,1,2.119-4.689,1.739,1.739,0,0,0,.243-.591,3.913,3.913,0,0,1,.347-.729c.174-.312.695-1.25,1.112-2.084.452-.8.9-1.667,1.042-1.876a4.293,4.293,0,0,0,.452-.972,3.25,3.25,0,0,1,.347-.764,17.129,17.129,0,0,0,1.181-2.258,1.064,1.064,0,0,1,1.32-.764,1.638,1.638,0,0,1,.729.173,1.348,1.348,0,0,0,.452.382c.382.243.417.312.382.764a2.438,2.438,0,0,1-.313.834,50.724,50.724,0,0,0-4.168,7.294c-.938,1.98-2.848,6.426-2.813,6.5a5.177,5.177,0,0,0,.764-1.042,23.919,23.919,0,0,1,2.015-2.675,12.6,12.6,0,0,0,1.181-1.424c.521-.66,1.389-1.736,1.946-2.362a11.65,11.65,0,0,0,1.042-1.32,2.1,2.1,0,0,1,.521-.555c.278-.208,1.112-.938,1.806-1.6a10.784,10.784,0,0,1,3.508-2.362,2.471,2.471,0,0,1,1.667-.208,3.352,3.352,0,0,1,1.251.312,1.13,1.13,0,0,0,.521.243C160.968,16.43,161.558,17.125,161.8,17.785ZM141.413,32.269a55.484,55.484,0,0,0,2.015-5.314,16.9,16.9,0,0,0-1.6,3.473A16.629,16.629,0,0,1,141,32.581c-.173.417-.659,1.841-1.145,3.2s-.938,2.57-1.008,2.674a9.287,9.287,0,0,0-.382,1.112c-.139.486-.313.972-.348,1.112-.069.139-.069.243-.035.278a6.957,6.957,0,0,0,.521-1.112,15.883,15.883,0,0,1,.729-1.6,3.165,3.165,0,0,0,.382-1.145,7.707,7.707,0,0,1,.452-1.563,16.6,16.6,0,0,0,1.042-2.709A2.257,2.257,0,0,1,141.413,32.269Zm-.833,3.056c-.035-.035-.07,0-.07.138,0,.1,0,.139.07.07A.219.219,0,0,0,140.579,35.325ZM142.7,34.7c.278-.452.972-1.6,1.563-2.57a57.373,57.373,0,0,1,12.017-14.588c.973-.8,1.424-1.112,1.737-1.146,1.355-.243,1.32-.243.764-.243-1.181-.035-2.813.834-5,2.606a13.037,13.037,0,0,0-1.355,1.215c-.035.069-.452.59-.938,1.146a18.313,18.313,0,0,0-2.292,2.744c.069,0,.139,0,.139.035.07.1-.347.764-.486.8-.208.035-.208,0,.035-.417.382-.555.035-.243-.486.452-.243.348-.452.695-.416.765.035.035-.139.243-.382.451-.382.313-.417.382-.417.8,0,.278-.069.417-.1.382-.07-.035-.1-.139-.1-.278.035-.138.035-.138-.1,0a.375.375,0,0,0-.07.313c.035.069-.069.138-.173.208-.139.035-.278.278-.348.486a4.256,4.256,0,0,1-.521,1.076,3.51,3.51,0,0,0-.417.834c0,.243-.347.452-.382.243,0-.069-.139.035-.278.208-.1.208-.208.417-.138.452,0,.035.035,0,.069-.069,0-.07.035-.139.1-.139.208.035.1.312-.208.555-.174.139-.278.278-.278.348a2.007,2.007,0,0,1-.416.8c-.243.417-.695,1.146-.973,1.7a7.114,7.114,0,0,1-.59,1.076.379.379,0,0,0-.069.348C142.212,35.429,142.35,35.325,142.7,34.7Zm17.193-17.193a1.237,1.237,0,0,0-.208-.59,3.127,3.127,0,0,0-.972.243,8.27,8.27,0,0,0-2.362,1.528c-3.3,2.64-6.53,6.5-9.934,11.914-1.008,1.562-2.015,3.195-2.223,3.577-.972,1.736-1.181,2.084-1.181,2.084a4.916,4.916,0,0,0,1.355-.069,14.886,14.886,0,0,0,4.55-2.64,2.979,2.979,0,0,1,1.007-.59c.174.035.243-.035.243-.208a.312.312,0,0,1,.243-.348,10.421,10.421,0,0,0,2.119-1.667l.348-.312-.243.312c-.139.174-.174.278-.1.243a10.173,10.173,0,0,0,1.632-1.876,2.584,2.584,0,0,1,.764-1.007,30.817,30.817,0,0,0,3.717-5.419,9.59,9.59,0,0,1,.729-1.876A9.149,9.149,0,0,0,159.891,17.507ZM144.122,23.9a.791.791,0,0,0,.139-.313c0-.035-.035-.069-.1-.035a.382.382,0,0,0-.139.313C144.018,24.107,144.018,24.107,144.122,23.9Zm5.21,10.558c-.382.278-.729.556-.8.625-.035,0-.382.278-.764.555-.729.521-1.112.66-.973.313.07-.1.035-.139-.035-.1s-.1.208-.1.348c.035.208-.035.312-.312.416-.382.139-.487.139-.382,0,.069-.069.035-.1-.035-.1-.035-.035-.1.069-.1.208s.035.243.07.243.382-.174.833-.382a12.311,12.311,0,0,0,2.744-1.876,2.536,2.536,0,0,1,.312-.486C149.992,34.005,149.853,34.04,149.332,34.457Zm33.135,0a5,5,0,0,1-2.709,1.806l-.9.243-.695-.243a3.4,3.4,0,0,1-2.327-2.188,4.192,4.192,0,0,1-.452-2.015,11.583,11.583,0,0,1,.313-4.133c.069-.382.173-.938.208-1.285s.139-1.007.243-1.493c.208-1.042.208-1.146-.035-1.285-.139-.07-.243-.035-.66.312a47.522,47.522,0,0,0-3.786,4.723c-.417.591-1.042,1.424-1.355,1.841a8.276,8.276,0,0,0-.868,1.251c-.174.278-.556.938-.938,1.528-.556.972-.938,1.632-2.223,3.89a11.085,11.085,0,0,0-.625,1.146c-.069.174-.278.625-.486,1.042a34.707,34.707,0,0,0-1.841,4.307c.07.278,0,.417-.417.972-.521.66-.659.8-.938.764A2.216,2.216,0,0,1,161,45.12a.664.664,0,0,1-.174-.417c-.035-.208-.069-.278-.208-.208-.139.035-.174-.069-.278-.695-.1-.868.139-2.119.938-4.793.278-.972.591-2.084.73-2.5a60.833,60.833,0,0,1,3.612-9.343,7.135,7.135,0,0,0,.382-.834c.174-.347.452-.972.625-1.389a5.251,5.251,0,0,0,.348-.833.956.956,0,0,1,.208-.452c.1-.174.452-.869.729-1.529.312-.66.834-1.7,1.146-2.292.347-.625.764-1.424.938-1.771.312-.695,3.369-6.46,4.55-8.579.347-.695.764-1.459.868-1.737a5.839,5.839,0,0,1,.382-.8,9.614,9.614,0,0,0,.591-1.008c.035-.069-.035-.069-.208-.035-.208.069,0-.278,1.111-1.632a19.25,19.25,0,0,0,1.389-1.806c0-.1.174-.278.9-.764.591-.417,1.563-.208,1.632.348,0,.069.1.173.174.243.174.069.174.138.1.521-.1.555-.139.625-.8,1.355a23.784,23.784,0,0,0-2.744,3.855,13.138,13.138,0,0,1-1.146,1.6,3.654,3.654,0,0,0-.416.66c-.208.382-.522.9-.695,1.181a2.127,2.127,0,0,0-.313.695c.035.1-.035.208-.069.208-.069,0-.139.139-.174.312s-.1.278-.139.278c-.1-.07-.73,1.007-.695,1.181a.111.111,0,0,1-.1.1.293.293,0,0,0-.069.208c.035.1-.1.347-.243.521a1.424,1.424,0,0,0-.243.417.181.181,0,0,1-.07.139c-.069,0-.173.208-.243.486a9.038,9.038,0,0,1-.659,1.25,5.8,5.8,0,0,0-.487.972c-.035.07-.278.556-.555,1.042-.243.486-.555,1.076-.66,1.355-.1.243-.312.695-.452.972a1.7,1.7,0,0,0-.243.66,8.769,8.769,0,0,1-.555,1.285c-.313.66-.9,1.98-1.285,2.918-.417.972-.972,2.362-1.25,3.056-.312.729-.8,2.015-1.112,2.883s-.695,1.911-.834,2.292c-.347.869-.347,1.008-.035.348.139-.278.278-.486.348-.452s.452-.521.452-.625c-.035-.035.035-.174.138-.278.07-.1.243-.348.348-.486a3.07,3.07,0,0,0,.382-.625c.1-.174.382-.66.659-1.077a2.325,2.325,0,0,0,.452-.868c-.069-.07-.035-.1,0-.07.07.035.278-.173.452-.452.556-.833.765-1.111,1.146-1.6.208-.243.382-.556.348-.625,0-.1.035-.139.069-.069s.243-.139.521-.522.417-.695.348-.729-.07-.069,0-.138a.228.228,0,0,1,.208-.035c.1.07.833-.9.729-1.007-.035-.069,0-.069.069-.069s.139-.1.139-.208c0-.174.069-.243.138-.208.139.035.313-.174.9-1.042a7.857,7.857,0,0,1,1.667-1.563c.695-.417,2.258-.417,2.292,0,0,.1.348.417.625.521a.391.391,0,0,1,.243.382,3.971,3.971,0,0,0,.208.729,12.547,12.547,0,0,1-.1,3.716c-.695,4.2-.729,5-.416,6.356a2.431,2.431,0,0,0,.347.9,2.563,2.563,0,0,0,.868-.035c1.25-.208,2.084-.834,3.751-2.744a2.585,2.585,0,0,1,.729-.695c.069.035.069.1.035.208a1.627,1.627,0,0,0,.139,1.112C183.683,32.894,183.3,33.519,182.467,34.457Zm-18.582,1.007c.347-.8.625-1.562.659-1.7a7.067,7.067,0,0,1,.417-1.215c.8-2.223,1.077-2.953,1.181-3.161.1-.243.243-.625.382-1.042.069-.174.208-.521.348-.8.486-1.076,1.285-2.917,1.493-3.508a18.092,18.092,0,0,1,.834-1.7,17.512,17.512,0,0,0,1.7-3.89.107.107,0,0,0-.069.035c-.139.243-.868,1.841-.868,1.876a8.547,8.547,0,0,1-.521,1.042,29.815,29.815,0,0,0-1.841,3.96,5.686,5.686,0,0,1-.313.695c-.173.382-.521,1.215-.8,1.876a8.152,8.152,0,0,1-.591,1.285c-.138.1-.1-.174.07-.695.138-.417.173-.522.035-.556-.139,0-.174-.138-.035-.243a.121.121,0,0,1,.173.035c.07.07.139-.035.278-.278.139-.312.139-.417.035-.521s-.07-.1.069-.139c.174,0,.417-.417.417-.8a1.544,1.544,0,0,1,.208-.452,1.664,1.664,0,0,0,.278-.556,1.687,1.687,0,0,1,.208-.452c.138-.173.138-.243.035-.312-.139-.069-.174-.069-.208.1,0,.173-.069.208-.174.173s-.208.035-.243.174c-.1.208-.1.243.035.1.1-.1.174-.1.208-.035.07.07.07.1,0,.07-.1-.07-.382.555-.347.833,0,.139,0,.139-.139,0-.139-.173-.174-.138-.278.139s-.1.312,0,.312c.139.035.139.07.069.208-.069.1-.1.1-.138.035-.07-.173-.278.1-.382.522-.035.208-.035.243.069.208.07-.035.139-.035.139.035.035.138-.208.347-.348.312-.173,0-1.111,2.362-2.639,6.773-.695,1.98-2.084,6.564-2.049,6.807,0,.07.07.07.139.035.035-.035.069-.035.069.069a.23.23,0,0,1-.174.138c-.069,0-.208.313-.278.8-.208,1.007-.174,1.424.07.764.069-.138.208-.66.347-1.146a4.4,4.4,0,0,1,.348-1.007c.173-.243.382-.938.243-.9-.035,0-.1-.139-.1-.312-.035-.208,0-.278.069-.243s.1.035.035-.035a1.76,1.76,0,0,1,.278-1.146c.208-.174.208-.1.035.278-.278.486-.278.695,0,.243.1-.208.382-.9.625-1.563.208-.66.625-1.876.972-2.709a16.387,16.387,0,0,0,.555-1.667,3.818,3.818,0,0,1,.313-.938c.243-.625.243-.729.069-.486-.174.278-.208.278-.208.139a.628.628,0,0,1,.1-.417.563.563,0,0,0,.035-.417c-.035-.1-.035-.243.035-.278.035-.035.1,0,.1.069,0,.1.069.139.139.069.069-.035.069.035.069.244-.035.138-.035.208,0,.138.035-.138.208-.174.243-.035,0,.035-.278.869-.625,1.772-.347.938-.625,1.7-.625,1.736s-.208.66-.452,1.389c-.278.729-.521,1.459-.591,1.667-.035.208-.208.729-.347,1.216s-.243.868-.243.9c.035,0,.1-.138.173-.347C163.19,37.3,163.4,36.749,163.885,35.464Zm-1.529,4.307c-.035.174-.1.417-.139.555,0,.208,0,.208.07-.035a2.061,2.061,0,0,0,.138-.59C162.461,39.528,162.461,39.528,162.356,39.771Zm1.007-4.446c0,.138-.035.278-.139.312a.127.127,0,0,0-.069.174.373.373,0,0,1-.07.312c-.1.208-.1.208-.1-.173a.991.991,0,0,1,.174-.591l.173-.243Zm.07,2.639c-.035-.035-.07,0-.1.07a1.068,1.068,0,0,0-.069.278c0,.035.035,0,.1-.07A1.044,1.044,0,0,0,163.433,37.965Zm.764-4.9c-.1.348-.312.486-.348.208,0-.069.035-.139.07-.139.069,0,.1-.069.1-.138a.287.287,0,0,1,.1-.278C164.3,32.547,164.3,32.616,164.2,33.068Zm.382,1.32a13.191,13.191,0,0,0-.695,2.084c0,.069.555-1.424.695-1.91C164.614,34.422,164.614,34.353,164.58,34.388Zm.347-.764c.035-.139.1-.313.1-.348,0-.069-.07,0-.139.139a1.054,1.054,0,0,0-.1.382C164.788,33.831,164.857,33.762,164.927,33.624Zm1.215-3.439c-.138.208-.938,2.292-1.076,2.709-.139.556.069.139.486-.938C166.142,30.428,166.316,29.907,166.142,30.185Zm-.695-1.008c0-.486.07-.555.208-.243a.427.427,0,0,1-.069.417C165.483,29.525,165.447,29.49,165.447,29.177Zm5.071-8.891a7.7,7.7,0,0,0-.625,1.32.7.7,0,0,1-.1.278c-.069.139-.243.382-.382.625-.138.208-.278.452-.243.521a.527.527,0,0,1-.138.278,4,4,0,0,0-.417.869,4.546,4.546,0,0,1-.382.869,8.814,8.814,0,0,0-.347.833c-.139.382-.382.9-.486,1.215-.278.591-.972,2.292-.972,2.362.035.138.139-.07.521-1.008.243-.59.66-1.562.938-2.188.312-.625.625-1.285.695-1.459.069-.139.278-.556.486-.9.174-.313.417-.834.555-1.146.1-.313.278-.765.382-1.008A9.766,9.766,0,0,0,170.519,20.286ZM167.6,23.828c.1.208.1.208.243-.035.069-.138.138-.243.1-.278s-.1.035-.174.1c-.069.1-.138.1-.138.035a.439.439,0,0,1,.138-.243,5.6,5.6,0,0,0,.556-1.077,7.974,7.974,0,0,1,.59-1.215c.139-.174.208-.348.139-.417-.035-.069-.035-.069.035-.035s.139-.035.208-.174c.1-.278-.1-.348-.243-.035a.856.856,0,0,0-.139.382,1.22,1.22,0,0,1-.173.278,2.459,2.459,0,0,0-.348.695c-.139.278-.347.833-.555,1.181A1.515,1.515,0,0,0,167.6,23.828Zm1.7-3.751c.1.174.139.139.452-.452.312-.625.347-.695.174-.66-.07,0-.139.1-.208.278a2.519,2.519,0,0,1-.174.416.464.464,0,0,0-.1.278c0,.1-.035.138-.1.1S169.234,20.008,169.3,20.077Zm.174,2.675c-.07.173-.139.312-.174.312s0-.139.069-.278c.07-.174.139-.348.174-.348S169.546,22.578,169.477,22.752Zm1.632-3.613c-.07-.035-.417.625-.382.764,0,.07.1-.069.208-.312C171.075,19.383,171.144,19.174,171.109,19.14Zm-.139-.833c0,.173.174-.07.486-.625.556-1.112.695-1.459.625-1.494-.035-.069-.1-.035-.1.035-.035.035-.244.521-.522,1.042A8.247,8.247,0,0,0,170.97,18.306Zm1.008-.9-.244.312a1.566,1.566,0,0,0-.208.452c.035.069,0,.139-.07.139-.035,0-.1.1-.1.208-.035.174-.035.208.069.07a2.966,2.966,0,0,0,.312-.66Zm.138-1.389c.035.243.312-.208.9-1.355,1.25-2.466,1.25-2.5,1.112-2.466a3.177,3.177,0,0,0-.452.695c-.208.417-.625,1.251-.972,1.876A8.879,8.879,0,0,0,172.116,16.014Z" transform="translate(0 0)"/>
  </g>
</svg>
