<svg xmlns="http://www.w3.org/2000/svg" width="413.886" height="134.582" viewBox="0 0 413.886 134.582">
  <path id="パス_321" data-name="パス 321" d="M31.964,53.259a25.984,25.984,0,0,0-3.8.59c-1.507.328-2.882.589-3.144.589a10.822,10.822,0,0,0-1.833.328c-1.244.262-1.31.328-1.7,1.047-.2.393-.654,1.244-.982,1.9-3.143,5.631-7.727,14.994-9.036,18.267-.85,2.161-1.833,4.584-2.487,5.894a9.539,9.539,0,0,0-.262,1.112c-.131.393-.261.721-.393.655-.131,0-.261.2-.261.458a8.194,8.194,0,0,1-.525,2.03c-.326.851-.85,2.75-1.31,4.32A17.491,17.491,0,0,1,5.184,93.66c-.065.261-.262.786-.328,1.179C4.53,96.672,3.744,97.065,2.5,96.147a6.936,6.936,0,0,0-.786-.458,4.526,4.526,0,0,1-1.047-.654c-.524-.458-.721-.786-.655-.982C.077,93.921.4,92.678.732,91.3A77.1,77.1,0,0,1,3.81,82.07a4.443,4.443,0,0,0,.262-.719c.131-.458,1.047-2.619,1.964-4.715.131-.2.721-1.572,1.375-3.077,2.161-4.845,5.827-12.244,8.055-16.042l.392-.786-.654.132c-2.882.589-10.739,3.4-10.935,3.994-.131.328-.655.393-.655.065,0-.2,0-.2-.2,0-.328.328-.524.262-.524-.131,0-.2-.131-.393-.262-.393-.261,0-.524-.721-.786-1.9-.065-.524,0-.589,1.376-1.178a86.049,86.049,0,0,1,10.738-3.536,35.606,35.606,0,0,0,3.47-.983c.851-.326,2.489-2.552,3.143-4.19.132-.262.262-.458.328-.458.131,0,.2-.132.2-.328s.132-.262.262-.2c.328.131.589-.132.328-.328-.132-.065-.065-.328.065-.589a1.605,1.605,0,0,0,.262-.721,7.585,7.585,0,0,1,.654-.982,2.7,2.7,0,0,0,.655-1.179c0-.262.261-.655.982-1.44.131-.132.328-.525.524-.786.131-.262.589-1.048.982-1.637a5.414,5.414,0,0,0,.655-1.44.482.482,0,0,1,.326-.393c.132,0,.262-.2.262-.328a1.305,1.305,0,0,1,.393-.589A29.868,29.868,0,0,0,30.394,32.9c0-.328.719-.917,1.112-.917a2,2,0,0,0,.786-.655c.721-.982,3.536-5.172,3.536-5.369a2.988,2.988,0,0,1,.589-.721c.262-.326,1.441-1.9,2.619-3.47,2.358-3.338,5.959-7.923,6.941-9.035a19.659,19.659,0,0,0,1.441-1.7c3.011-3.666,7.988-8.709,9.69-9.888,2.226-1.44,3.8-1.505,4.911-.261a3.441,3.441,0,0,0,.851.786c.328,0,1.112.785,1.572,1.571A8.762,8.762,0,0,1,64.7,8.277a11.171,11.171,0,0,0-.261,2.029,10.426,10.426,0,0,1-.393,1.833c-.2.721-.851,3.275-1.441,5.7-1.244,4.583-1.375,5.3-2.684,9.625-1.571,5.565-5.041,18.857-5.892,22.589-.328,1.375-.851,3.6-1.244,5.042-.982,3.994-2.1,8.9-2.161,9.3a1.935,1.935,0,0,1-.262.654,1.574,1.574,0,0,0-.131.59,29.605,29.605,0,0,1-.589,3.405,40.6,40.6,0,0,0-1.375,9.952c0,2.751.261,4.977.654,4.977.131,0,.328.261.458.524.065.261.262.654.328.851.261.458.261,1.178,0,1.375a1.959,1.959,0,0,1-1.048.2,6.74,6.74,0,0,1-3.4-2.291c-.525-.654-.59-.786-.59-1.44a4.826,4.826,0,0,0-.393-1.637c-.982-3.208-.2-9.428,2.751-22.2.261-1.112.654-3.143.982-4.452a19.551,19.551,0,0,1,.721-2.815c.2-.262.2-.458.065-.524a32.489,32.489,0,0,0-6.155.065c-2.293.393-3.34.393-3.34.131,0-.131-.065-.262-.2-.262-.067,0-.132.067-.132.2,0,.328-.851.654-2.161.786a19.2,19.2,0,0,0-2.422.458C33.667,53.064,32.62,53.194,31.964,53.259ZM11.6,69.63c2.815-5.566,4.452-8.643,4.78-9.036A5.882,5.882,0,0,0,16.708,60c.067-.2.2-.328.328-.328.065,0,.131-.261.131-.524s.132-.458.328-.458c.132,0,.262-.131.262-.393a4.124,4.124,0,0,1,.654-1.375,9.963,9.963,0,0,0,.655-1.114,1.293,1.293,0,0,0-.524.132c-.393.131-.786.654-1.768,2.619-2.228,4.255-4.912,9.69-5.37,10.8-.326.59-.589,1.048-.719,1.048s-.132-.132,0-.458c.326-.786.2-.983-.132-.262-.326.524-.326.655-.131.786.393.2.328.328-.589,2.226-.786,1.637-.917,1.964-.721,1.768C9.178,74.41,10.292,72.249,11.6,69.63Zm-1.833,1.7c0,.261,0,.261.2,0a2.194,2.194,0,0,0,.2-.393c0-.065-.065-.131-.2-.065A.509.509,0,0,0,9.769,71.332Zm1.112-2.554c0,.065.065.131.2.065s.2-.131.2-.2-.065-.067-.2-.067A.174.174,0,0,0,10.881,68.778Zm.393-.655c0,.262.328-.2.851-1.31.328-.589.786-1.571,1.047-2.159s.983-1.9,1.507-2.947c2.291-4.322,2.88-5.435,2.75-5.435C17.1,56.271,11.274,67.6,11.274,68.123Zm5.173-4.583a.209.209,0,0,0-.2-.2,21.2,21.2,0,0,0-2.357,4.19c-.2.393.131-.065.589-.917a16.791,16.791,0,0,1,1.834-2.882C16.382,63.736,16.447,63.671,16.447,63.54Zm-2.03,1.31c-.261.393-.261.589,0,.458a.75.75,0,0,0,.2-.393C14.614,64.654,14.547,64.587,14.417,64.85ZM17.1,61.707c-.261,0-.851.851-.851,1.244,0,.458.393.2.721-.458C17.429,61.707,17.494,61.707,17.1,61.707Zm3.405-6.287c-.131-.065-.458.262-.786.851-.2.393-.851,1.572-1.44,2.619a23.666,23.666,0,0,0-1.114,2.161c0,.262.393.065.786-.458.2-.328.458-.917.655-1.31a17.2,17.2,0,0,1,1.112-2.291A10.168,10.168,0,0,0,20.506,55.42Zm0-4.19c.262-.458.851-1.507,1.31-2.358a42.68,42.68,0,0,1,3.012-4.845,1.263,1.263,0,0,0,.262-.524c.261-.851-.2-.328-1.114,1.114-.458.851-1.047,1.768-1.179,2.029-.393.525-2.422,4.126-2.88,4.977C19.459,52.54,19.983,52.212,20.506,51.23Zm2.291-1.7c.262-.458.721-1.179.983-1.7.851-1.505,1.833-3.077,5.238-8.25.917-1.375,1.7-2.684,1.768-2.815a1.232,1.232,0,0,1,.654-.393c.393-.065.721-.393,1.31-1.31,2.489-3.863,4.322-6.483,5.108-7.53a5.906,5.906,0,0,0,.917-1.31c0-.132.2-.393.524-.59a5.073,5.073,0,0,0,.982-1.244,2.57,2.57,0,0,1,.655-1.047.539.539,0,0,0,.261-.393,8.182,8.182,0,0,1,.851-1.244,9.367,9.367,0,0,0,1.441-1.964,6.383,6.383,0,0,1,.851-1.31c.131-.2.392-.524.589-.786.328-.524,2.882-3.6,5.892-7.006a49.7,49.7,0,0,1,8.906-8.381c.982-.589.261-.524-.851.131a8.764,8.764,0,0,1-1.179.59c-.131,0-.065-.721.131-.918.067-.065.067,0,0,.132-.2.326-.065.261.983-.328.524-.262,1.112-.589,1.31-.655.458-.131.524-.458,0-.458-.851,0-3.994,2.1-3.8,2.554.065.262-.458.59-.786.458-.261-.131-5.631,5.435-7.4,7.662a14.049,14.049,0,0,1-1.571,1.768,6.75,6.75,0,0,0-.983,1.112c-.392.59-1.9,2.554-3.273,4.387-1.507,1.965-2.423,3.275-2.291,3.405.065.2,0,.2-.132.132-.065-.067-.326.065-.458.261-.2.262-.719,1.048-1.243,1.7-.525.721-.786,1.244-.655,1.179.2-.065.328,0,.328.2a.283.283,0,0,1-.262.262c-.131,0-.328.065-.393.065-.393.065-1.047.786-1.9,2.291-.917,1.507-2.75,4.191-3.208,4.715a.786.786,0,0,1-.59.328A3.651,3.651,0,0,0,30,34.86a35.045,35.045,0,0,1-2.619,4A9.127,9.127,0,0,0,25.549,41.8c-.525,1.441,0,1.179.785-.393.851-1.636,1.244-2.161,1.376-1.964a6.787,6.787,0,0,1-.851,1.768c-.59.851-1.768,2.882-2.686,4.387-.917,1.572-1.7,2.815-1.768,2.882-.131,0-.2.131-.2.261a9.366,9.366,0,0,1-.851,1.7,11.383,11.383,0,0,0-.786,1.505c0,.132.262.067.524-.065a7.353,7.353,0,0,0,.721-.917C22.078,50.575,22.536,49.921,22.8,49.528Zm1.441-.589c1.243-1.965,1.505-2.816.524-1.244A29.3,29.3,0,0,0,22.6,51.426c0,.2.328,0,.458-.326C23.125,50.968,23.649,49.986,24.239,48.939Zm16.3-.393c2.947-.328,6.876-.262,7.923.2.393.2.786.328.786.262,0,0,.917-3.536,2.029-7.857,1.114-4.256,2.358-9.1,2.816-10.674.851-3.077,2.291-8.118,3.34-11.851a15,15,0,0,0,.654-2.815,21.572,21.572,0,0,1,1.244-4.387,27.694,27.694,0,0,0,.982-3.077c.393-1.637.655-4.649.328-4.649-.065,0-.262.2-.458.393-.328.393-.721.524-.524.131.261-.326-.525.132-.917.655l-.393.393.458-.328c.2-.2.458-.328.524-.262a3.415,3.415,0,0,1-.786.851c-.524.393-1.179.983-1.505,1.244-.262.262-.525.458-.59.393-.261,0-.786.328-.786.524s-.065.262-.2.262a2.458,2.458,0,0,0-1.31,1.375c0,.328-.393.786-.589.589-.065-.065-.132,0,0,.132.065.261,0,.326-.328.393a.623.623,0,0,0-.524.326c-.065.132,0,.2.2.065.131-.065.065.067-.131.262a.6.6,0,0,1-.458.328c-.2-.131-1.507,1.244-1.637,1.637-.065.065.2-.067.458-.458.328-.328.655-.59.721-.525a10.63,10.63,0,0,1-2.358,2.619.517.517,0,0,0-.326.328,8.265,8.265,0,0,1-.983,1.507c-3.666,4.713-3.929,5.106-8.707,11.851-1.114,1.571-2.03,2.88-2.03,2.945a9.944,9.944,0,0,1-1.7,2.293c-.2,0-.2-.132.131-.786a4.135,4.135,0,0,0,.393-1.179,6.013,6.013,0,0,1,2.1-2.947,9.667,9.667,0,0,0,2.03-2.75c0-.065-.132-.131-.328-.131-.393,0-3.34,3.994-6.024,8.25-1.768,2.815-1.964,3.077-2.489,3.143-.326.065-.917.786-2.226,2.815a49.939,49.939,0,0,0-3.536,5.959A29.357,29.357,0,0,0,28.1,42.587c2.554-4.124,3.012-4.715,3.275-4.583.131.131,1.637-1.31,1.637-1.637A7.031,7.031,0,0,1,34.388,34.4c.261,0,.065.458-1.114,2.226-.851,1.244-1.375,1.9-1.7,1.965a2.153,2.153,0,0,0-1.243,1.833c.065.262-.262.982-1.114,2.291-1.44,2.226-1.31,2.1-1.7,2.161-.2,0-.328.262-.393.59-.065.785-1.244,2.684-1.571,2.619-.132-.067-.2.065-.2.326a5.609,5.609,0,0,1-.917,2.293c-.065,0-.2-.2-.2-.393-.067-.328-.132-.262-.393.326l-.328.655.524-.065c.262,0,1.965-.328,3.733-.655C32.423,49.724,37.726,48.939,40.543,48.546Zm-12.9-4.191c.132-.2.458-.654.721-1.047.262-.328.786-1.179,1.179-1.768a5.941,5.941,0,0,0,.654-1.179,26.25,26.25,0,0,0-2.487,3.666C27.577,44.42,27.512,44.552,27.643,44.355ZM40.412,24.974a.549.549,0,0,0-.2.328.126.126,0,0,0,.2.065.361.361,0,0,0,.2-.328C40.608,24.974,40.543,24.909,40.412,24.974Zm1.047-.851q-.1.2,0,.2a23.917,23.917,0,0,0,2.161-2.75,20.87,20.87,0,0,1,1.31-1.9c1.112-1.31,1.768-2.489,1.572-2.751-.067-.065-.262.328-.525.851-.261.655-.393.786-.524.59s-.2-.2-.131.131c0,.2-.065.328-.2.328a.3.3,0,0,0-.261.326,2.7,2.7,0,0,1-.786,1.179,26.656,26.656,0,0,0-2.161,2.554c-.982,1.31-1.244,1.7-1.047,1.9.261.262.524,0,.393-.326a.314.314,0,0,1,.131-.393C41.524,23.992,41.59,23.992,41.459,24.123ZM46.37,72.379c.917-5.434,2.882-14.34,4.059-18.792.2-.719.132-.786-.524-.719-.393.065-.458.131-.458.785,0,1.244-.261,2.489-.524,2.489s-.851,2.161-1.244,4.322c-.261,1.7-1.047,5.434-1.571,7.464-.525,1.964-.59,2.423-.328,2.554.328.131.393.786.131,1.179-.261.326-.261.326-.261-.262,0-.393-.067-.589-.132-.524a14.661,14.661,0,0,0-.719,4.583c0,1.179,0,1.833.065,1.507.065-.59.328-.786.458-.328a3.679,3.679,0,0,1,0,1.244,5.612,5.612,0,0,0,.065,1.571c.065.393.2-.065.262-1.7C45.781,76.505,46.042,74.147,46.37,72.379Zm3.8-10.869c-.262-.261-.458.525-.655,2.489a1.3,1.3,0,0,1-.131.458c-.131.065-.2.655-.261,1.31-.132,1.047-.393,1.9-.655,1.9-.065,0,0-.393,0-.785.131-.525.131-.721-.065-.655-.131.131-.131,0-.131-.2.065-.2.2-.328.326-.262.262,0,.262-.328,0-.393a3.368,3.368,0,0,1,.2-1.375c.458-2.03.589-2.489.393-2.489s-.2,0-.851,3.405c-.262,1.44-.524,2.947-.655,3.275a54.126,54.126,0,0,0-1.44,11.326c.131,1.441.458,3.079.654,2.947,0-.065-.065-.719-.2-1.44a9.457,9.457,0,0,1,.065-3.012,24.06,24.06,0,0,0,.2-2.489c0-.458.065-.851.2-.917.065-.065.131.065.131.328,0,.786.2.131.721-2.489.328-1.44.982-4.518,1.44-6.744A34.133,34.133,0,0,0,50.168,61.51ZM47.09,49.463a1.624,1.624,0,0,0-.589.065c-.132,0,.065.065.326.065C47.156,49.593,47.221,49.528,47.09,49.463Zm.654-34.049a1.358,1.358,0,0,0-.524.458c-.131.262-.2.458-.131.458s.261-.2.458-.458S47.811,15.414,47.744,15.414Zm2.882-3.34a16.292,16.292,0,0,0-2.554,3.012,9.02,9.02,0,0,0,1.31-1.375c.524-.654,1.114-1.375,1.244-1.572C50.888,11.813,50.888,11.813,50.626,12.074ZM48.793,55.552c0,.2.065.131.2-.065a2.919,2.919,0,0,0,.132-.655c0-.2-.067-.131-.132.065A3.537,3.537,0,0,0,48.793,55.552Zm7.988-20.757c0-.326-.524.786-.524,1.179,0,.2-.065.458-.2.524a4.3,4.3,0,0,0-.261.721,10.394,10.394,0,0,1-.393,1.505c-.262.917-.851,3.536-1.114,4.911-.065.328-.2.525-.261.46-.262-.132-.132-.983.524-3.8.851-3.405.786-3.275.589-3.012a12.021,12.021,0,0,0-1.047,3.6,6.88,6.88,0,0,1-.393,1.375,7.681,7.681,0,0,0-.328,1.31c-.065.393-.131,1.179-.2,1.768-.2,1.048.131,1.244.393.2a1.027,1.027,0,0,1,.261-.655c.262-.2.2.132-.065,1.048a3.907,3.907,0,0,0-.328,1.244c-.065.326-.2.524-.524.524-.458.065-1.047,1.244-.851,1.7.065.131-.065.524-.328.917a3.342,3.342,0,0,0-.392,1.375,2.173,2.173,0,0,1-.132.917,3.825,3.825,0,0,0-.326,1.637c-.132,1.178-.132,1.505.065,1.505.261,0,.326.458.065,1.375-.065.524-.131.524-.2.132-.065-.262-.2-.393-.393-.262a.275.275,0,0,0-.2.393c.065.131.065.261-.065.131-.131,0-.2.2-.2.59a3.969,3.969,0,0,1-.392,1.44q-.787,1.669-.393,1.571a1.91,1.91,0,0,0,.458-.917c.2-.917.785-2.094.917-1.964a2.851,2.851,0,0,1-.2,1.244c-.326,1.375-.326,1.636-.065,1.636.131,0,.524-1.636,1.768-7.071.458-1.9,1.244-5.3,2.358-9.821.2-.851.654-2.75,1.047-4.191C56.323,36.891,56.781,34.992,56.781,34.795ZM51.019,47.1a2.846,2.846,0,0,0-.262.721,1.673,1.673,0,0,1-.328.786.85.85,0,0,0-.326.458,7.321,7.321,0,0,0,.917,2.03,6.743,6.743,0,0,0,.458-1.637c.2-.851.524-2.619.851-3.863.328-1.179.786-3.34,1.112-4.715s.786-3.143,1.048-3.929c.524-1.768,1.768-6.548,1.7-6.613s-.262.524-.525,1.31a9.563,9.563,0,0,1-.785,1.768,1.631,1.631,0,0,0-.328.721,28.813,28.813,0,0,1-.917,3.338,28.881,28.881,0,0,0-.917,3.34,1.625,1.625,0,0,1-.262.721,6.17,6.17,0,0,0-.786,2.487c-.065.458-.2.917-.326.983s-.132.2-.067.393a.36.36,0,0,1-.2.458c-.2.131-.2.261-.065.589A1.023,1.023,0,0,1,51.019,47.1Zm1.047-36.666c-.328.326-.261.326.2-.132.326-.326.654-.589.654-.719C52.917,9.39,52.656,9.652,52.066,10.438Zm.917,36.078c-.065-.065-.065,0-.065.131a.125.125,0,0,1-.2.067c-.132-.067-.2.131-.2.458v.458l.262-.458C52.983,46.843,53.048,46.581,52.983,46.516Zm3.077-13.1a3.8,3.8,0,0,1-.393,1.244,3.233,3.233,0,0,0-.326,1.179c-.065.851.326.131.786-1.572a13.8,13.8,0,0,0,.458-1.964C56.585,31.849,56.06,32.9,56.06,33.42ZM90.3,47.63a5.86,5.86,0,0,1-1.637,2.684C87.1,52.147,86.441,52.54,84.8,52.671a3.05,3.05,0,0,1-1.7-.131c-.2-.131-.589-.328-.85-.458-1.114-.458-3.275-3.6-3.733-5.238a21.419,21.419,0,0,1-.393-3.012,13.086,13.086,0,0,0-.261-2.226c-.132-.131-.262-.131-.721.131-.393.2-.524.328-.458.458s.065.131-.065.065c-.262-.131-1.114.655-.851.851.131.065.131.065-.065.065-.262-.065-1.507,1.114-2.293,2.1-.2.262-.393.458-.524.458a1.82,1.82,0,0,0-.851.983.613.613,0,0,1-.328.458.491.491,0,0,0-.326.458c.065.131-.065.392-.2.589a25.581,25.581,0,0,0-2.291,3.536c-.654,1.047-1.244,2.03-1.31,2.226a3.451,3.451,0,0,0-.458.982,22.5,22.5,0,0,1-2.03,4.191c-.524.917-1.178,2.03-1.375,2.357-.131.328-.719,1.31-1.179,2.1-.524.851-1.047,1.833-1.243,2.226-.458.917-1.7,2.358-2.1,2.358a1.416,1.416,0,0,1-.524-.067.537.537,0,0,1-.393-.261,1.036,1.036,0,0,0-.524-.328.808.808,0,0,1-.525-.328,3.452,3.452,0,0,0-.524-.917l-.328-.654.328-1.507a57.419,57.419,0,0,1,3.8-10.87c.328-.785.851-2.094,1.179-2.88.326-.721.85-2.1,1.243-2.947.393-.917.983-2.357,1.376-3.273A50.656,50.656,0,0,1,66.6,39.51c.328-.654.917-1.768,1.31-2.554a6.144,6.144,0,0,1,.982-1.637,1.287,1.287,0,0,0,.262-.524c0-.065.131-.2.326-.2,1.7-.328,1.7-.328,1.965.065a.958.958,0,0,0,.524.328c.328,0,.328.524,0,1.178a2,2,0,0,0-.2.721,6.742,6.742,0,0,1-.721,1.44A32.141,32.141,0,0,0,68.37,43.9c-.262.721-1.048,2.684-1.768,4.387-1.244,3.077-1.637,3.994-1.507,3.994a7.124,7.124,0,0,0,.721-1.047c.654-.982,1.047-1.375.786-.655a1.394,1.394,0,0,1-.262.458c-.131.2-1.7,2.816-2.029,3.47-.59,1.244-.132.721,1.178-1.505.786-1.179,1.833-2.947,2.423-3.733A70.477,70.477,0,0,1,74.72,40.95c.59-.524.983-.917.917-.917a13.758,13.758,0,0,0-2.357,1.833,67.52,67.52,0,0,0-5.369,6.745c-.721,1.179-1.375,1.833-1.048,1.112a81.1,81.1,0,0,1,5.173-6.874A12.115,12.115,0,0,1,75.7,39.575c.851-.393,2.88,0,3.208.655a1.873,1.873,0,0,0,.458.524,4.616,4.616,0,0,1,1.44,2.291,31.538,31.538,0,0,1,.655,3.405c.458,2.554.851,3.8,1.31,4.059a2.966,2.966,0,0,0,1.112,0c.786-.065,1.114-.2,2.489-1.112a32.287,32.287,0,0,0,2.684-2.161C90.7,45.534,90.828,45.6,90.3,47.63ZM56.911,30.866c-.065-.065-.131.065-.131.262.065.2.065.261.131.131A.413.413,0,0,0,56.911,30.866Zm0,3.143c-.065,0-.131.067-.131.262.065.262.065.262.131.131A.419.419,0,0,0,56.911,34.009Zm.065-3.469a1.081,1.081,0,0,0,.2-.655c-.065-.589-.065-.589-.2-.131Q56.683,30.735,56.977,30.54Zm1.7-3.144a4.087,4.087,0,0,0-.458,1.31c-.2.59-.524,1.9-.785,2.816-.46,1.7-.59,2.487-.393,2.291a16.651,16.651,0,0,0,.589-1.964c.262-1.048.589-2.161.654-2.489.067-.393.262-.917.328-1.179C58.876,27.528,58.876,27.135,58.679,27.4ZM57.3,29.033a1.219,1.219,0,0,0,.328-.721c.065-.392.065-.458-.065-.261C57.3,28.51,57.109,29.3,57.3,29.033Zm.59-1.7a1.264,1.264,0,0,0,.2-.654c0-.328,0-.328-.2-.132a2.292,2.292,0,0,0-.132.655C57.763,27.528,57.763,27.528,57.895,27.331Zm.326-1.7c.065.2.132.2.262-.065a2.883,2.883,0,0,0,.131-.654.136.136,0,0,0-.131-.2C58.286,24.711,58.09,25.3,58.221,25.628Zm.326,38.305a.832.832,0,0,0-.261.458.064.064,0,0,0,.065.065,3.948,3.948,0,0,0,.262-.393C58.81,63.736,58.744,63.736,58.547,63.933Zm1.9-45.246c-.065-.2-.589.983-.851,1.9-.131.458-.458,1.44-.719,2.161-.458,1.375-.524,1.636-.2,1.571a11.5,11.5,0,0,0,.983-2.75A17.691,17.691,0,0,0,60.447,18.687Zm3.4,31.627c0-.065-.131-.065-.326-.065s-.328.2-.458.524a1.121,1.121,0,0,0-.132.458c.067,0,0,.2-.131.393a15.275,15.275,0,0,0-1.244,2.88c.065.065.132,0,.2-.065.131-.065.131-.065.131.065-.065.132-.2.2-.262.132-.131,0-.2.065-.261.2a21.211,21.211,0,0,1-.851,2.161c-.851,2.03-1.179,3.012-.917,2.815.065-.065.131,0,.065.132s-.131.2-.262.2c-.065-.065-.131-.065,0,.065.132.2,0,.851-.2.721q-.1,0,0,.2c.065.132,0,.262-.2.262-.131,0-.2.065-.131.262a1.486,1.486,0,0,1-.131.851c-.328.719-.328.851.065.261.131-.261.721-1.637,1.244-3.077s1.047-2.684,1.112-2.815a4.341,4.341,0,0,0,.458-1.179c.132-.524.328-1.047.458-1.047a.939.939,0,0,0,.132-.458,2.365,2.365,0,0,1,.326-.851A17.381,17.381,0,0,0,63.851,50.314Zm-4.909-23.7c-.065-.067-.065.065-.065.261s0,.262.065.065A.291.291,0,0,0,58.942,26.611Zm.524-1.9c-.131-.131-.458.917-.458,1.375,0,.2.131.067.328-.458A1.861,1.861,0,0,0,59.465,24.711Zm.982-2.947a7.341,7.341,0,0,0-.851,2.423c0,.262.2-.2.458-.982A8.055,8.055,0,0,0,60.447,21.765Zm2.945,28.222v.065c.067,0,.132-.2.262-.393.2-.328.2-.328-.065-.131C63.459,49.724,63.327,49.856,63.393,49.986Zm.458-1.179a.5.5,0,0,0-.131.262c.065.261.131.2.262-.131C63.983,48.807,63.983,48.742,63.851,48.807Zm102.932,4.912a17.931,17.931,0,0,0-.851,1.7,18.356,18.356,0,0,1-2.882,4c-4.255,5.106-7.66,7.725-11.458,8.9-2.619.851-5.958-.721-8.316-3.8-1.833-2.291-2.422-4.911-2.815-12.112-.132-2.358-.262-4.388-.328-4.454-.131-.261-2.1,1.9-4.976,5.631a47.276,47.276,0,0,0-4.977,7.006c-.719,1.244-1.768,2.947-2.291,3.8-.589.851-1.637,2.75-2.423,4.19s-1.9,3.537-2.487,4.584c-.983,1.7-2.489,4.845-4.584,9.429a9.455,9.455,0,0,1-.786,1.44c-.131.131-.131.393.067.719a1.347,1.347,0,0,1-.067,1.114c-.2.654-.458.721-1.44.328a2.117,2.117,0,0,1-.917-.524c-.2-.262-.654-.721-1.047-1.179a6.2,6.2,0,0,1-1.507-4.845c.328-4.649,7.269-24.489,12.835-36.733.785-1.7,1.375-3.143,1.375-3.143-.132-.2-4.845,6.22-5.631,7.53-1.244,2.291-7.4,9.69-13.489,16.369a76.186,76.186,0,0,1-8.511,7.464,4.763,4.763,0,0,1-3.668,1.048c-1.7,0-2.029-.065-3.012-.655a10.924,10.924,0,0,1-4.255-5.434c-.786-2.161-.786-6.613.131-10.935a53.136,53.136,0,0,1,5.762-13.684c.524-.655,1.637-2.161,2.489-3.34,3.012-4.191,5.565-6.09,7.595-5.7a6.824,6.824,0,0,1,3.536,2.75c.721,1.375.851,3.275.2,3.405a2.205,2.205,0,0,0-.721.458c-.262.262-.393.262-.786-.065-.328-.262-.524-.328-.654-.131-.393.392-.786,0-.525-.46a2.719,2.719,0,0,0,.2-.785c0-.393-.131-.328-.917.261a26.172,26.172,0,0,0-4.649,5.3,52.407,52.407,0,0,0-7.137,15.977,26.317,26.317,0,0,0-.721,7.857c.132.721.2.786,1.114.917a7.146,7.146,0,0,0,2.1-.458,8.316,8.316,0,0,1,1.571-.524c.982,0,6.548-4.977,11.917-10.739,2.751-2.88,9.3-10.738,14.405-17.22,1.834-2.358,4.256-5.369,5.238-6.678s2.226-2.947,2.751-3.668,1.571-2.161,2.357-3.143a68.935,68.935,0,0,0,4.387-6.941c2.75-4.715,4.976-8.446,7.923-12.964,1.833-2.751,3.863-4.322,4.256-3.144.065.2.2.262.458.2.458-.2.524.131.131.589-.2.2-.065.262.458.262s.655.131.917.786a1.852,1.852,0,0,1,.065,1.178,24.664,24.664,0,0,1-2.029,2.816,79.638,79.638,0,0,0-6.024,8.839c-.786,1.31-2.03,3.47-2.75,4.78-1.572,2.684-2.75,4.911-3.863,7.2-.393.917-1.114,2.358-1.572,3.209s-1.178,2.357-1.636,3.273c-.393.917-1.114,2.489-1.637,3.47-.458.917-1.179,2.489-1.572,3.536-.458.982-1.244,2.75-1.9,3.994a20.086,20.086,0,0,0-2.03,4.845c0,.458-3.208,8.513-3.863,9.69a7.224,7.224,0,0,0-.589,1.572,15.063,15.063,0,0,1-.589,1.833,8.962,8.962,0,0,0-.721,2.619c.065.065.393-.524.786-1.31a130.226,130.226,0,0,1,11.589-17.613c3.47-4.124,4.977-5.238,6.155-4.518.328.2.59.393.59.524,0,.065.2.131.524.2,1.572.065,2.554,2.226,2.947,6.68.2,1.7.393,4.452.524,6.088.262,3.47.786,6.09,1.505,7.006.458.46.721.525,1.9.525,1.636,0,3.143-.59,5.892-2.293a58.758,58.758,0,0,0,11-9.886c1.244-1.572,1.376-1.7,1.637-1.31a1.2,1.2,0,0,0,.721.328C167.764,51.558,167.634,52.082,166.783,53.719Zm-52.448,24.75c-.065-.065-.131.065-.065.328,0,.261,0,.393.065.2A.719.719,0,0,0,114.335,78.469ZM119.9,61.837a24.832,24.832,0,0,0,.917-2.684c.589-1.637,4.256-10.739,4.715-11.721.326-.589,2.226-5.173,2.226-5.3,0-.393-.525.524-1.375,2.423-.525,1.243-1.31,3.077-1.769,3.994-.392.917-.85,1.9-.982,2.161s-.719,1.7-1.244,3.077-1.243,3.338-1.636,4.322a10.686,10.686,0,0,0-.655,2.226,3.473,3.473,0,0,1-.458,1.31,47.429,47.429,0,0,0-2.291,6.285c-.131.458-.589,1.9-1.048,3.208-.654,2.03-1.9,6.417-1.9,6.68,0,.458.262-.2.721-1.9C116.1,72.314,118.984,63.933,119.9,61.837ZM118.329,71a20.726,20.726,0,0,0-1.44,4.124,24.358,24.358,0,0,0,1.31-3.4C118.329,71.2,118.394,70.874,118.329,71Zm11.917-39.09c-.785.917-.917.589-.131-.458.524-.655.458-.59-.2.131-.393.458-.655.851-.525.982.132.065.067.262-.131.458-.261.262-.261.262-.261,0,0-.2-.721.524-1.507,1.572-1.964,2.619-2.489,3.47-1.112,1.964l1.047-1.244-.786,1.244a17.645,17.645,0,0,1-1.31,1.7l-.393.393-.786,1.114a11.765,11.765,0,0,1-1.178,1.571c-.328.328-.328.328-.132-.131a10.66,10.66,0,0,1,1.179-1.572l.917-1.047a1.155,1.155,0,0,1,.065-.328c.067-.261.132-.393.067-.328,0,.067-.851,1.114-1.834,2.358A7.278,7.278,0,0,0,121.6,42.85c.131.131.065.2-.067.131-.261-.2-2.094,2.03-2.159,2.619,0,.262-.132.458-.2.458-.328-.131-.917.655-.786.917.065.131.458-.131.917-.654.393-.525.721-1.048.59-1.179,0-.131,0-.131.131-.065.262.2,2.554-2.619,2.357-2.947,0-.2,0-.393.132-.458.2-.131.2-.065.065.2-.328.655,1.637-1.768,4.256-5.172C131.294,30.67,130.966,31.129,130.245,31.915Zm-9.493,31.429a12.744,12.744,0,0,0-1.049,3.011c0,.393.2-.131.786-1.505C121.145,63.017,121.276,62.493,120.752,63.344Zm1.31-2.816c0-.2-.132-.065-.262.2a1.747,1.747,0,0,0-.328.85C121.471,61.968,122.062,60.921,122.062,60.528Zm2.226-6.155c-.132-.2-1.179,2.1-1.179,2.554a1.6,1.6,0,0,1-.262.719,4.522,4.522,0,0,0-.654,1.965,14,14,0,0,0,1.112-2.554A28.362,28.362,0,0,0,124.288,54.373Zm2.619-6.483c-.065-.328-2.03,3.994-2.293,5.173-.261,1.047.2.2,1.31-2.357A11.5,11.5,0,0,0,126.907,47.891Zm3.8-8.97c-.524,1.31-1.375,3.077-1.833,3.994-1.112,2.554-1.9,4.256-1.9,4.387a.14.14,0,0,0,.131.131,6.869,6.869,0,0,0,1.048-2.029c.458-1.114,1.047-2.423,1.31-3.012a43.221,43.221,0,0,0,2.422-5.7A7.782,7.782,0,0,0,130.7,38.921ZM128.74,40.1c.262-.589.262-.589-.065-.131a1.631,1.631,0,0,0-.328.721Q128.347,41.178,128.74,40.1Zm1.244,4c0-.2-.065-.328-.2-.328-.2,0-.589,1.112-.589,1.571C129.2,45.73,129.984,44.485,129.984,44.094Zm.851-2.554c-.132,0-.328.393-.525.851-.261.654-.261.851-.065.719.2-.065.393-.393.525-.719C131.031,41.671,131.031,41.54,130.836,41.54Zm1.44-5.828a5.51,5.51,0,0,0,.654-.982c.525-1.047.655-1.637.2-.851A4.821,4.821,0,0,0,132.276,35.712ZM245.42,16.724a4.667,4.667,0,0,1-2.226,1.572,1.432,1.432,0,0,0-.655.131,28.385,28.385,0,0,1-4.125.589,5.063,5.063,0,0,0-1.244-.065,2.475,2.475,0,0,1-1.31-.2,1.544,1.544,0,0,0-.589-.2c-.458,0-.458-.2.065-.261a18.47,18.47,0,0,0,3.863-1.114,7.285,7.285,0,0,1,2.619-1.114c.719-.131.851-.261.589-.392-.589-.262-7.334-.721-12.31-.851-1.244-.067-9.232.2-11.786.393-1.047.065-2.684.131-3.666.2-1.637.065-3.144.131-4.256.262-.458.851-.982,1.768-1.44,2.684-4.912,9.232-5.631,10.672-7.138,14.273-1.112,2.619-2.684,6.155-3.405,7.531-1.964,3.731-6.874,17.613-8.97,25.273-.458,1.637-1.047,3.733-1.31,4.715-1.833,6.024-3.077,15.126-2.684,20.036.131,1.44.589,3.34.917,3.34a6.771,6.771,0,0,0,1.375-.721,5.41,5.41,0,0,1,1.44-.786c.458.065,1.179,3.012.851,3.34a1.051,1.051,0,0,0-.326.719c-.067.59-1.507,1.114-2.489.983a7.806,7.806,0,0,1-1.44-.525c-.393-.261-.983-.654-1.31-.917a2.266,2.266,0,0,0-.918-.524,8.353,8.353,0,0,1-1.31-1.571c-1.768-2.619-2.159-6.68-1.178-14.537a98.228,98.228,0,0,1,3.338-16.238A209.112,209.112,0,0,1,191.4,42c-5.434,7.53-11.589,15.911-13.161,17.876a21.985,21.985,0,0,1-3.012,3.208.581.581,0,0,0-.261.328c.065.2-1.244,1.505-2.882,3.012-1.44,1.243-4.845,3.208-5.631,3.208h-.917a6.639,6.639,0,0,1-5.369-2.75,10.658,10.658,0,0,1-.851-1.244,61.7,61.7,0,0,1,1.31-7.2c.131-.458.393-1.31.524-1.833a16.839,16.839,0,0,1,.721-2.161c.2-.589.654-1.833.982-2.815.393-.917.851-2.1,1.114-2.619s.982-1.9,1.505-3.077a33.734,33.734,0,0,1,3.012-5.631c.851-1.179.917-1.244,1.572-1.31.524-.065.785.065,1.833.719l1.31.851v.721a3.482,3.482,0,0,1-.393,1.572c-.262.458-.655,1.31-.982,1.9-.262.655-.786,1.505-1.048,2.03-.261.458-.851,1.571-1.244,2.357s-.917,1.768-1.178,2.161a15.055,15.055,0,0,0-.851,1.768c-.262.589-.59,1.244-.721,1.505a41.367,41.367,0,0,0-3.012,8.971q-.1.981-.393.982a.435.435,0,0,0-.326.262q0,.2.2,0c.328-.131.458.393.262.654a1.645,1.645,0,0,0-.065,1.048l.131.851.851-.2c.982-.2,2.75-1.375,5.041-3.339,3.733-3.275,18.857-22.918,27.5-34.769,1.965-4.059,4.059-8.316,6.417-12.768a4.43,4.43,0,0,1-.655.065c0-.131-9.56.786-9.952.917-.132.065-.067.065-11.2,1.114-9.232.851-14.668,1.375-19.055,1.9a64.884,64.884,0,0,1-7.267.328,1.647,1.647,0,0,1-1.179-1.179c0-.2-.131-.328-.261-.262-.262,0-.262-1.112,0-1.308a1.432,1.432,0,0,0,.326-.525c.132-.326.132-.326,1.768-.326,1.507,0,1.637-.067,2.226-.393a2.655,2.655,0,0,1,2.947.2c.262.328.328.328,1.244.262.524-.065,2.815-.2,5.042-.393s4.452-.328,4.845-.393c.524-.065.851,0,.851.065s-.262.131-.525.131a4.475,4.475,0,0,0-.982.132c-1.112.261,4.976-.132,10.607-.655,1.049-.131,4.454-.393,7.464-.654,3.077-.262,6.876-.59,8.513-.721,1.571-.131,3.273-.262,3.8-.262a17.3,17.3,0,0,1,1.833-.131l.786-.131c1.768-3.275,5.762-10.215,6.416-11.132a6.618,6.618,0,0,0,.786-1.571A1.664,1.664,0,0,1,213.6.092c.851.065,2.489.982,2.423,1.375,0,.065.261.2.524.262,1.112.131,1.7,2.291.786,2.945a1.734,1.734,0,0,0-.393.655,16.533,16.533,0,0,1-2.423,3.863c-.654.851-1.7,2.422-2.88,4.322,4.255-.328,9.167-.721,11.131-.851,2.226-.132,4.78-.2,10.214-.2,7.006,0,7.269,0,8.513.262a7.142,7.142,0,0,1,3.273,1.31,1.184,1.184,0,0,1,.262.719c0,.262.065.525.2.59C245.551,15.545,245.616,16.068,245.42,16.724Zm-73.335,16.3c-.261-.2-.261-.328.524-1.768a45.586,45.586,0,0,1,5.959-7.792c1.7-1.505,2.03-1.571,2.619-.261.328.654.328.917.2,1.178a6.587,6.587,0,0,0-.2.786,5.494,5.494,0,0,1-.917,1.7,35.945,35.945,0,0,0-3.208,5.042c-1.179,2.422-1.835,3.273-2.226,2.945a1.668,1.668,0,0,0-.786-.131,1.16,1.16,0,0,1-1.114-.524,4.214,4.214,0,0,1-.524-.721C172.413,33.355,172.217,33.159,172.085,33.027Zm20.1-17.22c0-.065-.131-.065-.2,0a7.428,7.428,0,0,1-.917.131c-1.31.065-5.762.393-8.12.655-1.31.131-3.338.326-4.517.458a10.357,10.357,0,0,0-2.226.261,33.038,33.038,0,0,0,4.255-.261c1.179-.132,3.275-.328,4.715-.458s3.405-.262,4.387-.393C191.859,16.068,192.187,16,192.187,15.807Zm-8.118,57.751c.326-1.507.785-3.34.982-4.126.131-.785.524-2.161.786-3.077s.786-2.487,1.112-3.536c.262-1.047.786-2.75,1.048-3.731.326-.917.654-2.1.785-2.489a10.15,10.15,0,0,1,.46-1.505c.719-1.9,1.7-4.78,1.768-5.042,0-.393,2.945-7.857,4.779-12.44.393-.983,1.179-2.684,2.1-4.649-.851,1.179-1.768,2.489-2.815,3.929a.507.507,0,0,0-.065.2,4.6,4.6,0,0,1-.59,1.112,153.568,153.568,0,0,0-5.827,14.929,23.657,23.657,0,0,1-1.833,4.715,24.406,24.406,0,0,0-1.44,4.059c-1.244,4.584-1.376,5.042-1.048,5.042.262.065-.065.851-.393,1.047a21.876,21.876,0,0,0-.719,2.226c-.393,1.637-.458,2.291-.262,2.684.262.655.2.786-.131.655-.393-.131-1.375,8.316-1.179,9.953.065.654.131,1.9.131,2.75-.065,2.815.262,1.31.983-4.387A71.791,71.791,0,0,1,184.068,73.558Zm-.262,8.839c-.065-.458-.2.065-.262,1.7-.131,2.554-.131,3.929.067,3.731a13.993,13.993,0,0,0,.065-2.226,12.476,12.476,0,0,1,.131-2.291A1.076,1.076,0,0,0,183.806,82.4Zm.393-3.731c-.065-.132-.131,0-.2.261,0,.328.065.393.131.2S184.264,78.731,184.2,78.666Zm11.131-37.977c-.982,2.487-1.178,3.012-.917,3.208.262.262.262.328-.065.262-.261,0-.654.654-1.505,2.815a124.262,124.262,0,0,0-4.191,12.244c-.261.982-.917,3.208-1.44,4.911-.524,1.768-1.179,4.191-1.44,5.37-.262,1.243-.655,3.011-.918,3.994-.2.982-.458,2.422-.524,3.208-.261,2.291.262.786.851-2.489.458-2.226.655-2.945.982-3.143.393-.261.393-.328.132-.719s-.262-.525.131-1.179a5.834,5.834,0,0,0,.524-1.507,45.021,45.021,0,0,1,1.768-6.09,2.234,2.234,0,0,0,.2-1.112c-.132-.065-.132-.328-.065-.589.131-.262.326-.393.458-.328.261.2.654-1.114,1.047-3.34a3.521,3.521,0,0,1,.458-1.244,10.532,10.532,0,0,0,.851-2.422,38.269,38.269,0,0,1,2.03-5.3,6.705,6.705,0,0,0,.589-1.637,3.81,3.81,0,0,1,.328-1.179,4.38,4.38,0,0,0,.524-1.44c.2-.786.328-1.244.524-1.114.065.132.131.067.065-.261a3.813,3.813,0,0,1,.983-2.291,3.229,3.229,0,0,0,.524-1.572c.065-.786.2-1.375.328-1.375s.261-.262.392-.589.328-.655.393-.655a7.579,7.579,0,0,0,1.048-2.684C199.455,31.456,197.229,35.974,195.329,40.689ZM193.1,15.872c0-.065-.065-.131-.2-.131-.065,0-.2.065-.2.131s.132.131.2.131C193.038,16,193.1,15.938,193.1,15.872Zm.917-.131c0-.065-.065-.132-.2-.132a.507.507,0,0,0-.263.132c-.065.065,0,.131.2.131C193.889,15.872,194.02,15.807,194.02,15.742Zm2.293-.262c-.2,0-.393.065-.393.131,0,.132.2.132.524,0C196.639,15.479,196.639,15.479,196.312,15.479Zm4.78-.261a32.561,32.561,0,0,0-4.256.326c-.065.065.328.065.851,0,.458,0,1.44-.131,2.161-.131A4.457,4.457,0,0,0,201.092,15.218Zm-1.507,13.029c0-.065-.2-.131-.458-.2,0,.131-.065.2-.131.328a.386.386,0,0,0,.261-.067C199.52,28.312,199.651,28.247,199.586,28.247Zm38.043,20.364c-.918,1.244-8.448,8.9-9.692,9.953a54.132,54.132,0,0,1-8.577,5.7c-1.048.589-2.161,1.178-2.423,1.31-1.768,1.178-8.577,2.226-9.756,1.571a.742.742,0,0,0-.656-.2c-.524.326-4.124-2.816-5.041-4.387-.328-.59-.656-.851-1.047-.917-.655-.132-.655-.262-.067-.59.393-.131.458-.326.393-.589-.589-2.161-.131-5.108,1.31-8.316a45.968,45.968,0,0,1,5.566-8.839c.328-.328.982-1.114,1.572-1.768,1.44-1.768,2.75-3.012,3.338-3.077a3.529,3.529,0,0,1,1.637.065c.589.131,1.44.328,1.9.393a8.171,8.171,0,0,1,4.126,2.487c1.9,1.835,2.487,3.012,2.291,4.584a9.521,9.521,0,0,1-1.833,4.583,25.477,25.477,0,0,1-5.238,5.37,46.032,46.032,0,0,1-10.018,5.762,5.946,5.946,0,0,0-1.244.719c0,.721,1.965,1.31,3.8,1.114a27.975,27.975,0,0,0,12.505-4.649,10.65,10.65,0,0,1,1.835-.982c.392,0,1.375-.786,1.375-1.047a6.369,6.369,0,0,1,1.768-1.572c.326-.261.393-.261.131.065-.524.655.065.262,1.768-1.112.917-.851,2.226-1.9,2.882-2.423a53.43,53.43,0,0,0,4.517-4.124c.393-.524,1.505-1.637,2.357-2.554.917-.917,2.1-2.161,2.619-2.75,2.1-2.293,3.077-3.405,3.209-3.275a6.329,6.329,0,0,1-1.244,1.768c-1.114,1.44-1.179,1.507-.262.524.982-1.047,1.637-1.31.982-.393a1.367,1.367,0,0,0-.326.786c0,.262.065.262.261.065.59-.458.262,0-.719,1.179a14.312,14.312,0,0,0-1.507,2.161,8.8,8.8,0,0,1-1.178,1.833A15.37,15.37,0,0,1,237.628,48.611ZM202.074,24.123c-.655.917-1.244,1.833-1.572,2.291a1.387,1.387,0,0,0-.261.655c-.067.261,0,.261.326-.132l.2-.2Zm1.833-3.994c-.2.326-.458.786-.721,1.244-.523.917-.982,1.636-.982,1.7.065.132.2-.065.328-.326a5.282,5.282,0,0,1,.524-.786c.065-.131.393-.655.721-1.244C204.3,19.736,204.3,19.538,203.907,20.129Zm.261,38.827c0,.067.2-.065,2.489-1.636a35.442,35.442,0,0,0,4.059-2.947,11.634,11.634,0,0,1,1.505-1.244,52.247,52.247,0,0,0,5.37-5.566,8.955,8.955,0,0,0,1.375-4.452c-.131-.851-.393-1.112-1.507-1.44-1.571-.393-2.75.393-5.5,3.8a50.335,50.335,0,0,0-5.827,8.709A27.843,27.843,0,0,0,204.168,58.956Zm20.888-45.375a11.23,11.23,0,0,0-3.338,0,22.9,22.9,0,0,1-2.882.2c-1.7.132-1.9.132-2.1.262-.065.065.132.065.458,0,.393,0,.59,0,.525.065s.2.131.589.131c.654-.065.654-.065.131-.065-.458-.065-.458-.131-.2-.2a11.316,11.316,0,0,1,1.31.065,3.6,3.6,0,0,0,2.1-.065,30.2,30.2,0,0,1,3.077-.262C224.926,13.711,225.056,13.646,225.056,13.581Zm.721-.132c-.393.067-.393.132.262.132a4.466,4.466,0,0,0,.785.065c.132,0,1.244-.065,2.619-.065,1.31-.065,2.423-.132,2.489-.132C232.062,13.318,226.366,13.384,225.777,13.449Zm5.958,40.138c-1.047,1.179-1.179,1.375-.458.655a17.418,17.418,0,0,0,1.572-1.637C233.83,51.426,233.241,51.885,231.734,53.587Zm3.014-39.941c-.2-.131-.2-.131,0-.2.131-.065-.328-.065-1.049-.065-.654,0-1.179,0-1.112.065a2.689,2.689,0,0,0,.917.067c.458,0,.851.065.851.131s.131.065.326.065C234.944,13.711,234.944,13.711,234.748,13.646Zm50.088,34.9a21.884,21.884,0,0,1-2.291,3.273,12.333,12.333,0,0,0-1.768,2.423c-.2.786-4.78,5.369-7.662,7.53-1.31,1.047-3.8,2.815-5.434,3.929-1.7,1.112-3.536,2.357-4.061,2.815a43.361,43.361,0,0,1-13.094,5.37c-.721.131-1.7.326-2.161.393a16.571,16.571,0,0,1-5.37.131,12.657,12.657,0,0,1-7.006-4.322c-.393-.589-.917-1.44-1.178-1.833-1.9-2.751-2.293-5.435-1.507-9.3,1.049-5.237,5.042-12.243,10.281-18.267,2.945-3.34,6.874-7.071,7.464-6.941a1.73,1.73,0,0,0,1.047-.589,18.162,18.162,0,0,1,7.334-3.34c3.208-.655,5.434-.393,7.2.851a4.868,4.868,0,0,1,2.423,3.536c.2,1.179.13,1.244-.524,3.273a17.916,17.916,0,0,1-1.507,3.536,11.5,11.5,0,0,0-.851,1.507,31.013,31.013,0,0,1-1.9,3.012c-2.03,3.077-4.191,5.434-5.762,6.351a4.794,4.794,0,0,1-5.238-.458,3.3,3.3,0,0,1-1.507-2.684l.067-.786h1.178a2.308,2.308,0,0,1,1.965.59,4.022,4.022,0,0,0,.917.654,13.108,13.108,0,0,0,3.273-2.947,44.659,44.659,0,0,0,5.5-8.316c1.179-2.357,1.244-2.619,1.244-3.8a11.318,11.318,0,0,0-.132-1.768c-.2-.655-1.112-1.048-2.75-1.048a7.061,7.061,0,0,0-4.124,1.375c-.524.328-1.572.918-2.293,1.31a20.735,20.735,0,0,0-2.159,1.376,5.588,5.588,0,0,1-.918.589c-.326,0-6.22,5.827-8.249,8.12-2.293,2.619-6.024,8.184-6.352,9.493-.065.262-.458,1.31-.851,2.291a38.159,38.159,0,0,0-1.31,3.863,14.049,14.049,0,0,0-.589,4.322,7.617,7.617,0,0,0,1.244,4.845c.524.786,2.619,1.9,4.19,2.291a17.074,17.074,0,0,0,8.709-.654c8.9-2.75,19.381-9.232,27.108-16.762a42.7,42.7,0,0,0,3.275-3.47c.458-.655,1.243-1.637,1.768-2.293a14.552,14.552,0,0,0,1.178-1.636c.132-.328.328-.524.458-.524s.393-.328.656-.655c.654-.982.851-.786.261.328-.392.851-.392.917-.065.524.393-.458.393-.458.328-.065-.065.2,0,.393.065.393C285.688,46.385,285.49,47.236,284.836,48.546Zm-47.93,4.059c.851-1.505,1.244-2.554.918-2.226-.59.524-2.489,4.715-3.34,7.267a10.289,10.289,0,0,0-.524,2.619L233.9,61.51l.261-1.375c.131-.719.393-1.768.524-2.291A45.217,45.217,0,0,1,236.906,52.605ZM243,14.3a18.911,18.911,0,0,0-7.006-.851c-.851.132-.589.262.393.2.524,0,.982,0,1.048.131.065,0,.524.065.982.065a24.287,24.287,0,0,1,4.125.525C243.259,14.563,243.652,14.5,243,14.3Zm-3.93,34.049c0,.065.2-.131.458-.458.262-.393.458-.719.458-.719C239.983,46.974,239.067,48.153,239.067,48.349Zm1.114-1.7c0,.262.654-.524.917-1.112.131-.2,0-.065-.328.261A3.9,3.9,0,0,0,240.181,46.646Zm2.03-2.75c0,.2.982-.786,1.505-1.7.2-.261-.065-.065-.524.458A5.964,5.964,0,0,0,242.211,43.9Zm64.56-23.114c-4.91,9.232-5.631,10.674-7.138,14.275-1.047,2.619-2.684,6.155-3.4,7.53-1.965,3.733-6.876,17.613-8.971,25.275-.458,1.637-1.047,3.8-1.31,4.715-1.833,6.023-3.012,15.125-2.684,20.035.131,1.442.589,3.34.917,3.405a6.973,6.973,0,0,0,1.375-.786A3.347,3.347,0,0,1,287,94.511c.458,0,1.178,3.012.851,3.273a1.758,1.758,0,0,0-.328.721c-.065.589-1.44,1.112-2.423.982a8.312,8.312,0,0,1-1.505-.524c-.393-.262-.982-.655-1.31-.917a2.254,2.254,0,0,0-.917-.524,8.274,8.274,0,0,1-1.31-1.572c-1.768-2.619-2.1-6.678-1.179-14.536a92.663,92.663,0,0,1,3.405-16.238C286.6,49.528,292.3,35.516,301.205,18.754h-.589c0-.132-9.625.785-10.018.917-.131.065-.065.065-11.2,1.112-9.232.851-14.666,1.375-19.053,1.9-1.835.2-6.745.458-7.269.392-.458-.131-1.179-.85-1.179-1.243,0-.2-.065-.328-.2-.262-.328,0-.328-1.114,0-1.31a4.062,4.062,0,0,0,.262-.524c.131-.328.131-.328,1.768-.328,1.571,0,1.636,0,2.226-.393a2.653,2.653,0,0,1,2.945.2c.262.326.393.326,1.244.261.524-.065,2.816-.2,5.042-.393s4.452-.326,4.91-.393c.458,0,.786,0,.786.067s-.262.131-.523.131a4.48,4.48,0,0,0-.983.131c-1.112.262,4.977-.131,10.608-.654,1.047-.132,4.452-.393,7.53-.655s6.876-.524,8.446-.654c1.572-.2,3.275-.328,3.8-.328a17.306,17.306,0,0,1,1.833-.131l.786-.132c1.833-3.273,5.762-10.214,6.416-11.131a6.62,6.62,0,0,0,.786-1.572,1.729,1.729,0,0,1,1.833-1.244c.851.067,2.489,1.048,2.489,1.376-.065.131.2.261.523.261,1.048.132,1.637,2.291.786,2.947a2,2,0,0,0-.458.654,14.513,14.513,0,0,1-2.422,3.863c-.656.851-1.7,2.423-2.882,4.322,4.256-.328,9.167-.719,11.131-.851,2.226-.131,4.78-.2,10.215-.2,7.006,0,7.267,0,8.577.261a7.918,7.918,0,0,1,3.275,1.31,1.909,1.909,0,0,1,.2.721c0,.262.065.524.263.589.261.2.328.721.131,1.375a4.373,4.373,0,0,1-2.226,1.572,1.573,1.573,0,0,0-.654.131,28.233,28.233,0,0,1-4.126.59,5.056,5.056,0,0,0-1.244-.065,2.476,2.476,0,0,1-1.31-.2,1.566,1.566,0,0,0-.589-.131c-.458,0-.458-.262.065-.328a18.5,18.5,0,0,0,3.863-1.112,6.431,6.431,0,0,1,2.684-1.048c.655-.2.786-.328.523-.458-.523-.2-7.332-.721-12.31-.851-1.244-.065-9.232.2-11.786.393-1.047.065-2.684.131-3.666.2-1.637.065-3.143.2-4.256.261C307.753,18.95,307.229,19.866,306.771,20.783ZM280.645,53.129c0-.261-.654.262-1.964,1.7-1.114,1.114-2.489,2.554-3.077,3.208-.655.59-1.114,1.179-1.048,1.244,0,.132,0,.132-.065.065s-.458.132-.785.393-1.376,1.114-2.358,1.9c-2.226,1.636-3.47,2.75-3.47,3.012a1.716,1.716,0,0,1-.393.524c-.654.589-.065.2,1.7-.983.851-.654,2.161-1.636,2.947-2.291.786-.589,1.572-1.244,1.833-1.375a49.529,49.529,0,0,0,3.929-3.863C279.533,54.9,280.58,53.587,280.645,53.129ZM290.008,18.3c0-.132-.131-.132-.2-.067a2.673,2.673,0,0,1-.917.132c-1.31.065-5.762.393-8.12.654-1.31.131-3.338.328-4.517.458s-2.161.2-2.226.262a32.976,32.976,0,0,0,4.256-.262c1.178-.131,3.338-.328,4.713-.458,1.507-.131,3.405-.261,4.387-.393C289.681,18.491,290.008,18.426,290.008,18.3Zm11.59,4.387a7.824,7.824,0,0,1-.982,1.178,57.436,57.436,0,0,0-4.322,8.185c0,.328-.131.524-.262.524-.065,0-.131.131-.131.328,0,.393-.786,2.03-2.291,4.976a7.621,7.621,0,0,0-.786,1.637,4.65,4.65,0,0,1-.589,1.114,153.505,153.505,0,0,0-5.828,14.929,23.583,23.583,0,0,1-1.833,4.713,21.405,21.405,0,0,0-1.375,4.061c-1.31,4.583-1.44,5.041-1.114,5.106.262,0-.065.786-.326.983a9.817,9.817,0,0,0-.786,2.291c-.328,1.572-.458,2.226-.262,2.619.262.654.2.786-.065.654-.458-.131-1.44,8.316-1.244,9.953.065.655.132,1.9.132,2.75-.067,2.816.261,1.31.982-4.387.458-3.536.982-6.613,1.375-8.316.393-1.505.786-3.338.982-4.125.13-.786.524-2.161.786-3.077.328-.917.786-2.489,1.114-3.536.261-1.048.785-2.75,1.112-3.668.262-.982.589-2.159.721-2.552.131-.458.326-1.114.458-1.507.719-1.9,1.7-4.78,1.768-5.041.065-.393,2.947-7.857,4.78-12.442,1.244-2.945,5.762-12.571,7.53-15.911C302.122,22.224,302.252,21.831,301.6,22.683ZM282.675,50.51a11.707,11.707,0,0,0-1.44,1.965c0,.261.654-.525,1.112-1.31C282.61,50.772,282.741,50.51,282.675,50.51Zm-1.048,34.376c-.065-.524-.131,0-.261,1.7-.132,2.552-.132,3.862.065,3.666a8.493,8.493,0,0,0,.065-2.226,13.051,13.051,0,0,1,.131-2.291A.94.94,0,0,0,281.627,84.886Zm.393-3.8c-.065-.131-.131,0-.2.328,0,.261.065.328.13.131S282.085,81.153,282.02,81.088Zm11.132-37.977c-.983,2.489-1.179,3.012-.917,3.209.261.261.261.326-.067.261-.261,0-.654.721-1.505,2.816a107.669,107.669,0,0,0-4.124,12.244c-.328.982-.983,3.208-1.507,4.976-.524,1.7-1.179,4.124-1.44,5.3-.262,1.244-.655,3.012-.851,3.994a21.575,21.575,0,0,0-.589,3.275c-.263,2.226.261.786.85-2.554.46-2.226.656-2.947.983-3.143.393-.262.393-.328.131-.721s-.262-.524.131-1.179a4.144,4.144,0,0,0,.525-1.505A61.376,61.376,0,0,1,286.539,64a2.177,2.177,0,0,0,.2-1.114c-.131-.065-.131-.326-.065-.589.131-.261.328-.393.458-.328.261.2.654-1.047,1.047-3.338a3.512,3.512,0,0,1,.458-1.244,13.533,13.533,0,0,0,.917-2.423,32.939,32.939,0,0,1,1.965-5.3,6.686,6.686,0,0,0,.589-1.637,2.371,2.371,0,0,1,.393-1.178,5.053,5.053,0,0,0,.458-1.44c.2-.786.393-1.244.524-1.114s.132.065.067-.2a3.986,3.986,0,0,1,.982-2.358,3.207,3.207,0,0,0,.524-1.571c.065-.786.2-1.376.328-1.376s.328-.261.458-.589c.065-.328.261-.654.328-.589a8.032,8.032,0,0,0,1.047-2.751C297.342,33.878,295.05,38.463,293.152,43.111ZM290.926,18.3c0-.067-.067-.132-.2-.132a.131.131,0,0,0,0,.262C290.859,18.426,290.926,18.361,290.926,18.3Zm.917-.132a.141.141,0,0,0-.132-.131.5.5,0,0,0-.326.131c-.067.065,0,.132.2.132C291.71,18.3,291.842,18.229,291.842,18.164Zm2.291-.261c-.2,0-.393.065-.393.131,0,.131.2.131.524,0C294.527,17.968,294.461,17.9,294.134,17.9Zm4.78-.262c0-.065-4.126.262-4.256.328-.065.065.328.065.851,0,.524,0,1.505-.065,2.161-.131A3.923,3.923,0,0,0,298.914,17.64Zm41.25,29.2c.065,2.226-.065,2.88-.851,4.322a50.5,50.5,0,0,1-3.47,4.976,21.932,21.932,0,0,0-1.375,1.833c-.328.393-1.375,1.572-2.423,2.619-.982,1.048-2.029,2.161-2.357,2.554a13.431,13.431,0,0,1-3.536,2.423,2.711,2.711,0,0,0-.786.458,6.906,6.906,0,0,1-2.815.524,4.805,4.805,0,0,1-1.441-.393c-.393-.2-.851-.393-.851-.524a.745.745,0,0,0-.393-.2c-.589,0-1.9-1.833-2.291-3.208-.589-1.833-.458-4.452.263-7.464a9.858,9.858,0,0,0,.393-1.507c-.132-.065-4.78,6.156-6.548,8.775a6.417,6.417,0,0,1-2.751,2.619,2.982,2.982,0,0,1-1.636.524,3.6,3.6,0,0,1-2.226-.721,1,1,0,0,0-.525-.262.783.783,0,0,1-.523-.326c-1.31-1.833-1.44-2.489-1.179-4.452.59-4.061,2.03-8.316,4.847-14.275,1.964-3.994,2.291-4.584,3.011-4.976.458-.262,1.244-.2,1.244.065,0,.131.2.261.393.261a1.674,1.674,0,0,1,.917.524c.59.525.59.525.523,1.507a6.937,6.937,0,0,1-.917,2.619c-.393.917-.719,1.7-.719,1.7,0,.065-.59,1.375-1.244,2.815-.721,1.507-1.833,4.126-2.489,5.894a30.532,30.532,0,0,0-1.833,6.613l-.131.589.393-.458a10.587,10.587,0,0,1,1.178-1.047,24.359,24.359,0,0,0,3.077-3.405c.458-.589,4.126-4.845,4.649-5.5a3.736,3.736,0,0,0,.721-.917c.261-.261,1.178-1.375,2.029-2.357,2.489-2.947,2.751-3.275,3.47-4.715,2.554-4.976,3.405-6.22,4.322-6.22.262,0,.523.065.589.2,0,.132.263.262.458.328.393.065.525.2.721.851a1.886,1.886,0,0,1-.065,1.768,4.929,4.929,0,0,1-.851,1.768,49.867,49.867,0,0,0-5.042,11c-1.375,4.126-1.833,6.876-1.505,8.906.065.785.131.851.655.982.392.131.524.065.654-.065a2.313,2.313,0,0,1,.982-.393,12.93,12.93,0,0,0,4.256-2.358,93.994,93.994,0,0,0,8.643-8.839,35.55,35.55,0,0,0,3.012-4.059,18.165,18.165,0,0,1,1.178-1.7C340.032,46.45,340.1,46.646,340.164,46.843ZM315.087,16.528c.328-.067.524-.067.458,0s.2.131.589.131c.656,0,.656,0,.2-.065s-.525-.065-.2-.2a5.491,5.491,0,0,1,1.244.132,4.023,4.023,0,0,0,2.1-.132,30.257,30.257,0,0,1,3.077-.261c.2,0,.328,0,.328-.067,0-.2-1.31-.2-3.34,0-.851.067-2.161.132-2.882.2-1.7.065-1.9.065-2.094.2C314.5,16.528,314.759,16.528,315.087,16.528Zm8.774-.46c.328,0,.721.067.786,0,.131,0,1.31-.065,2.619-.065,1.31-.065,2.422-.131,2.487-.131.132-.131-5.565-.065-6.09,0C323.205,15.938,323.205,16,323.861,16.068Zm6.548-.2a3,3,0,0,0,.982.065c.458,0,.786.065.786.131s.2.067.328.067c.261,0,.261,0,.131-.067-.262-.131-.262-.131,0-.2a6.053,6.053,0,0,0-1.047-.065C330.867,15.807,330.343,15.807,330.408,15.872ZM366.682,47.63a5.859,5.859,0,0,1-1.637,2.684c-1.571,1.833-2.226,2.226-3.863,2.357a3.043,3.043,0,0,1-1.7-.131c-.2-.131-.59-.328-.851-.458-1.114-.458-3.275-3.6-3.733-5.238a21.418,21.418,0,0,1-.393-3.012,13.1,13.1,0,0,0-.261-2.226c-.132-.131-.262-.131-.721.131-.393.2-.523.328-.458.458s.065.131-.065.065c-.263-.131-1.114.655-.851.851.131.065.131.065-.065.065-.263-.065-1.507,1.114-2.293,2.1-.2.262-.393.458-.524.458a1.82,1.82,0,0,0-.851.983.613.613,0,0,1-.328.458.491.491,0,0,0-.326.458c.065.131-.065.392-.2.589a25.586,25.586,0,0,0-2.291,3.536c-.654,1.047-1.244,2.03-1.31,2.226a3.452,3.452,0,0,0-.458.982,22.5,22.5,0,0,1-2.03,4.191c-.524.917-1.178,2.03-1.375,2.357-.131.328-.719,1.31-1.178,2.1-.525.851-1.048,1.833-1.244,2.226-.458.917-1.7,2.358-2.1,2.358a1.416,1.416,0,0,1-.524-.067.537.537,0,0,1-.393-.261,1.035,1.035,0,0,0-.523-.328.808.808,0,0,1-.525-.328,3.453,3.453,0,0,0-.524-.917l-.328-.654.328-1.507a57.424,57.424,0,0,1,3.8-10.87c.328-.785.851-2.094,1.179-2.88.326-.721.851-2.1,1.243-2.947.393-.917.983-2.357,1.376-3.273a50.662,50.662,0,0,1,2.291-4.649c.328-.654.917-1.768,1.31-2.554a6.145,6.145,0,0,1,.982-1.637,1.287,1.287,0,0,0,.263-.524c0-.065.131-.2.326-.2,1.7-.328,1.7-.328,1.965.065a.959.959,0,0,0,.524.328c.328,0,.328.524,0,1.178a2,2,0,0,0-.2.721,6.742,6.742,0,0,1-.721,1.44,32.145,32.145,0,0,0-2.684,5.566c-.262.721-1.048,2.684-1.768,4.387-1.244,3.077-1.637,3.994-1.507,3.994a7.011,7.011,0,0,0,.721-1.047c.655-.982,1.047-1.375.786-.655a1.394,1.394,0,0,1-.262.458c-.131.2-1.7,2.816-2.029,3.47-.59,1.244-.132.721,1.178-1.505.786-1.179,1.833-2.947,2.423-3.733A70.613,70.613,0,0,1,351.1,40.95c.59-.524.983-.917.917-.917a13.756,13.756,0,0,0-2.357,1.833,67.518,67.518,0,0,0-5.369,6.745c-.721,1.179-1.375,1.833-1.048,1.112a81.1,81.1,0,0,1,5.173-6.874,12.115,12.115,0,0,1,3.668-3.275c.851-.393,2.88,0,3.208.655a1.872,1.872,0,0,0,.458.524,4.617,4.617,0,0,1,1.44,2.291,31.56,31.56,0,0,1,.655,3.405c.458,2.554.851,3.8,1.31,4.059a2.966,2.966,0,0,0,1.112,0c.786-.065,1.114-.2,2.489-1.112a32.278,32.278,0,0,0,2.684-2.161C367.075,45.534,367.205,45.6,366.682,47.63ZM334.207,16.135a2.091,2.091,0,0,1,1.047.065,2.6,2.6,0,0,0,.982.131,24.875,24.875,0,0,1,4.126.458c.719.2,1.112.131.458-.065a18.856,18.856,0,0,0-7.006-.851C332.962,16,333.223,16.135,334.207,16.135Zm.718,47.8a.832.832,0,0,0-.261.458.064.064,0,0,0,.065.065,3.957,3.957,0,0,0,.263-.393C335.187,63.736,335.122,63.736,334.925,63.933Zm5.3-13.619c0-.065-.132-.065-.328-.065s-.328.2-.458.524a1.121,1.121,0,0,0-.132.458c.067,0,0,.2-.13.393a15.365,15.365,0,0,0-1.244,2.88c.065.065.132,0,.2-.065.131-.065.131-.065.131.065-.065.132-.2.2-.263.132-.131,0-.2.065-.261.2a21.212,21.212,0,0,1-.851,2.161c-.851,2.03-1.179,3.012-.917,2.815.065-.065.131,0,.065.132s-.131.2-.263.2c-.065-.065-.131-.065,0,.065.132.2,0,.851-.2.721q-.1,0,0,.2c.065.132,0,.262-.2.262-.131,0-.2.065-.131.262a1.486,1.486,0,0,1-.131.851c-.328.719-.328.851.065.261.13-.261.721-1.637,1.244-3.077s1.047-2.684,1.112-2.815A4.338,4.338,0,0,0,338,55.683c.132-.524.328-1.047.458-1.047a.939.939,0,0,0,.132-.458,2.349,2.349,0,0,1,.328-.851A17.6,17.6,0,0,0,340.229,50.314Zm-.46-.328v.065c.067,0,.132-.2.262-.393.2-.328.2-.328-.065-.131C339.836,49.724,339.7,49.856,339.77,49.986Zm.46-1.179a.491.491,0,0,0-.132.262c.065.261.132.2.262-.131C340.36,48.807,340.36,48.742,340.229,48.807Zm61.222-.2c-.918,1.244-8.448,8.9-9.692,9.953a54.134,54.134,0,0,1-8.577,5.7c-1.048.589-2.161,1.178-2.423,1.31-1.768,1.178-8.577,2.226-9.756,1.571a.742.742,0,0,0-.655-.2c-.524.326-4.124-2.816-5.041-4.387-.328-.59-.655-.851-1.047-.917-.655-.132-.655-.262-.067-.59.393-.131.458-.326.393-.589-.589-2.161-.13-5.108,1.31-8.316a45.972,45.972,0,0,1,5.566-8.839c.328-.328.982-1.114,1.572-1.768,1.44-1.768,2.75-3.012,3.338-3.077a3.528,3.528,0,0,1,1.637.065c.589.131,1.44.328,1.9.393a8.17,8.17,0,0,1,4.126,2.487c1.9,1.835,2.487,3.012,2.291,4.584a9.522,9.522,0,0,1-1.833,4.583,25.477,25.477,0,0,1-5.238,5.37,46.03,46.03,0,0,1-10.018,5.762,5.944,5.944,0,0,0-1.244.719c0,.721,1.965,1.31,3.8,1.114a27.975,27.975,0,0,0,12.505-4.649,10.65,10.65,0,0,1,1.834-.982c.392,0,1.375-.786,1.375-1.047a6.371,6.371,0,0,1,1.768-1.572c.326-.261.393-.261.131.065-.524.655.065.262,1.768-1.112.917-.851,2.226-1.9,2.882-2.423a53.422,53.422,0,0,0,4.517-4.124c.393-.524,1.505-1.637,2.357-2.554.917-.917,2.1-2.161,2.619-2.75,2.1-2.293,3.077-3.405,3.209-3.275a6.331,6.331,0,0,1-1.244,1.768c-1.114,1.44-1.179,1.507-.262.524.982-1.047,1.637-1.31.982-.393a1.368,1.368,0,0,0-.326.786c0,.262.065.262.261.065.59-.458.262,0-.719,1.179a14.322,14.322,0,0,0-1.507,2.161,8.8,8.8,0,0,1-1.178,1.833A15.378,15.378,0,0,1,401.451,48.611Zm-33.46,10.345c0,.067.2-.065,2.489-1.636a35.442,35.442,0,0,0,4.059-2.947,11.628,11.628,0,0,1,1.505-1.244,52.253,52.253,0,0,0,5.37-5.566,8.956,8.956,0,0,0,1.375-4.452c-.131-.851-.393-1.112-1.507-1.44-1.571-.393-2.75.393-5.5,3.8a50.336,50.336,0,0,0-5.827,8.709A27.846,27.846,0,0,0,367.991,58.956Zm27.566-5.369c-1.047,1.179-1.179,1.375-.458.655a17.406,17.406,0,0,0,1.572-1.637C397.653,51.426,397.064,51.885,395.557,53.587Z" transform="matrix(0.996, -0.087, 0.087, 0.996, 0.001, 35.453)" fill="#fff"/>
</svg>
