<svg id="グループ_287" data-name="グループ 287" xmlns="http://www.w3.org/2000/svg" xmlns:xlink="http://www.w3.org/1999/xlink" width="896.606" height="1106.98" viewBox="0 0 896.606 1106.98">
  <defs>
    <clipPath id="clip-path">
      <rect id="長方形_488" data-name="長方形 488" width="896.606" height="1106.98" fill="#767676"/>
    </clipPath>
  </defs>
  <g id="グループ_157" data-name="グループ 157" clip-path="url(#clip-path)">
    <path id="パス_130" data-name="パス 130" d="M191.256,827.284S-32.088,696.13,9.418,419.694,305.89,0,305.89,0L875.119,181.6S377.047,254.232,207.07,470.139c-170,215.931-15.814,357.145-15.814,357.145" transform="translate(21.487 0.005)" fill="#767676"/>
    <path id="パス_131" data-name="パス 131" d="M291.825,191.218c0,66.86-53.1,121.064-118.588,121.064S54.65,258.078,54.65,191.218,107.739,70.147,173.238,70.147s118.588,54.21,118.588,121.071" transform="translate(274.71 361.439)" fill="#767676"/>
    <path id="パス_132" data-name="パス 132" d="M683.863,45.46S907.207,176.615,865.7,453.051s-296.472,419.7-296.472,419.7L0,691.143s498.072-72.631,668.049-288.538c170-215.931,15.814-357.146,15.814-357.146" transform="translate(0 234.237)" fill="#767676"/>
  </g>
</svg>
