<svg xmlns="http://www.w3.org/2000/svg" width="158.479" height="49.674" viewBox="0 0 158.479 49.674">
  <path id="パス_2358" data-name="パス 2358" d="M14.837-23.347c0,.222.111.148.222-.111a.6.6,0,0,0,.074-.407C15.059-23.976,14.874-23.643,14.837-23.347ZM.3-34.928c-.037.111.037.185.185.185.185.037.222.111.185.3,0,.407.222.629.555.481.111-.037.222-.148.222-.222a2,2,0,0,1,.518-.259c.259-.111.814-.407,1.221-.629a46.423,46.423,0,0,1,7.1-3.4c.592-.259,1.332-.592,1.628-.7a5.4,5.4,0,0,1,.814-.333,1.7,1.7,0,0,0,.592-.259,4.333,4.333,0,0,1,1.665-.518c.074.074.666-.185.592-.3,0-.074.259-.185.629-.259s.777-.185.888-.222c.148-.037.444-.111.666-.148a13.35,13.35,0,0,0,2.516-.814c.148-.074.259-.111.259-.074,0,.074.074.037.185-.037.3-.259.333,0,0,.481-.148.259-.259.518-.222.592a.135.135,0,0,1-.074.185q-.111.056,0,.222c.074.111.037.222-.074.37s-.185.185-.148.111a.283.283,0,0,0-.074-.185c-.037-.037-.222.185-.407.444-.333.629-1.887,3.515-1.887,3.589a7.3,7.3,0,0,1-.407.814c-.222.444-.407.814-.407.851a2.91,2.91,0,0,1-.148.444c-.518.962-.518,1.073-.407,1.11a.2.2,0,0,1,.111.185c0,.074-.074.074-.111.037-.148-.111-.407.37-.37.629.037.148,0,.222-.074.222-.074-.037-.259.3-.444.74-.148.407-.555,1.332-.851,2.072a4.3,4.3,0,0,0-.444,1.369A31.651,31.651,0,0,1,13.1-24.568c-.666,1.813-1.3,3.478-1.369,3.737-.111.222-.222.407-.3.407a.725.725,0,0,0-.444.074c-.148.037-.74.222-1.332.407a42.6,42.6,0,0,0-5.55,2.331c-.3.3-.3.3-.148.814.222.7.666,1.48.888,1.48a.62.62,0,0,0,.407-.111,2.187,2.187,0,0,1,.518-.222,2.767,2.767,0,0,0,.666-.333,1.229,1.229,0,0,1,.481-.259,13.342,13.342,0,0,0,1.554-.592,6.2,6.2,0,0,1,1.591-.629.246.246,0,0,0,.185-.148c.037-.074.111-.111.111-.074a16.958,16.958,0,0,1-.629,2.072C8.954-13.431,7.4-8.51,7.1-7.437c-.148.666-.7,3.367-.814,4.07A4.343,4.343,0,0,0,7.363-.148c.37.518.7.74.592.37C7.918,0,8.066,0,8.251.259A2.236,2.236,0,0,0,8.769.7c.481.333.37.333.777.148L9.879.666,9.731.185C9.62-.148,9.509-.333,9.4-.333q-.611-.056-.333-2.331a17.685,17.685,0,0,1,.3-1.961c.074-.518.074-.592-.111-.592q-.167-.056-.111-.111a.3.3,0,0,0,.148-.222c.074-.444.111-.481.3-.518a15.864,15.864,0,0,0,1.258-4c0-.185,0-.3.111-.259a8.83,8.83,0,0,0,1-2.4c.481-1.332,1.184-3.256,1.554-4.255l.74-1.813.555-.185a25.083,25.083,0,0,1,2.553-.629c1.073-.259,2.109-.518,2.331-.592a2.021,2.021,0,0,1,.666-.037,9.723,9.723,0,0,0,1.443-.148,17.78,17.78,0,0,1,3.367-.222,1.1,1.1,0,0,0,.74-.222c.333-.3.3-.407-.148-.666-.407-.222-.444-.407-.111-.481s.3-.185-.185-.629a2.023,2.023,0,0,0-1.073-.481c-.407-.037-.555-.037-.444.037.148.074-.3.148-1.369.259a35.7,35.7,0,0,0-4.958.851c-1.517.333-1.7.333-1.591.148.111-.148-.111-.148-.37,0-.148.037-.259.074-.259.074.037-.148,2.294-5.661,2.886-7.03.259-.518.518-1.221.666-1.591.222-.592.925-2.146,2.035-4.4.185-.407.851-1.665,1.443-2.849a34.162,34.162,0,0,1,3.071-4.81c.7-.962.407-.814,2.923-1.369.444-.111,1.591-.259,2.516-.37,1.739-.185,2.109-.259,1.517-.333-.185-.037.111-.074.666-.111,1.11-.111,1.443-.037.629.074l-.518.074.481.074c.592.037,1.184-.037,1.11-.185-.037-.037.111-.074.3-.074.185.037.333.111.333.148,0,.148.851.185,1.628.111a2.108,2.108,0,0,1,1,.037,3.5,3.5,0,0,0,1.11.259,15.584,15.584,0,0,1,2.109.444c.777.259,1.628.481,1.961.555a17.7,17.7,0,0,1,2.775,1.3c.333.185.629.37.629.37a2.441,2.441,0,0,1-.407.444l-.407.444.407.481c.259.3.518.518.629.518.074.037.37-.111.629-.3.518-.407.74-1.036.481-1.406a1.372,1.372,0,0,1-.148-.555c.037-.518-.629-1.406-1.591-2.109A20.219,20.219,0,0,0,39.516-46.4a34.137,34.137,0,0,0-9.324-.037,2.522,2.522,0,0,1-.925-.037,8.4,8.4,0,0,0-1.887.148c-1.406.259-1.443.222-1.813,0a1.373,1.373,0,0,0-1.813.148,3.788,3.788,0,0,0-.777.777,1.176,1.176,0,0,1-.444.407,8.014,8.014,0,0,1-1.332.444c-.222.074-.592.185-.777.259-.222.074-.962.3-1.628.518-1.406.407-1.924.592-4.477,1.517-.925.37-2.22.814-2.812,1.036s-1.221.444-1.332.481a5.268,5.268,0,0,1-.777.222,3.8,3.8,0,0,0-.925.259,2.234,2.234,0,0,1-.814.222,28.4,28.4,0,0,0-4.588,1.85l-1.332.666c-.148.074-.259.148-.259.222a.207.207,0,0,1-.222.037.94.94,0,0,0-.518.3A.809.809,0,0,1,.3-36.7c-.148,0-.148,0-.037.888A2.515,2.515,0,0,1,.3-34.928ZM23.162-22.089a1.8,1.8,0,0,1,.444.037c.148.037.074.074-.185.037C23.162-22.015,23.051-22.052,23.162-22.089ZM18.8-21.5a28.5,28.5,0,0,1,3.848-.518c.185.037-.333.111-1.11.222-.777.074-1.665.222-1.961.259C19.055-21.46,18.722-21.423,18.8-21.5Zm-2.035,1.221a1.573,1.573,0,0,1,.407-.074l.222.037-.222.074a1.574,1.574,0,0,1-.407.074C16.613-20.165,16.613-20.165,16.761-20.276ZM7.881-7.844c-.074.444-.185.777-.259.777s-.111.074-.074.185a2.446,2.446,0,0,1-.037.7c-.074.333-.185.518-.259.518A.159.159,0,0,1,7.1-5.809,82.944,82.944,0,0,1,9.62-14.393c.37-1.036.74-2.183.851-2.553.259-.7.407-.962.592-.925.111,0,.037.333-.148.777-.037.074-.037.185.037.185s.148-.148.222-.37c.074-.185.111-.333.148-.3a9.842,9.842,0,0,1-.444,1.443,6.127,6.127,0,0,1-.592,1.332,5.08,5.08,0,0,1,.185-.666,1.623,1.623,0,0,0,.185-.7,20.8,20.8,0,0,0-.814,2.22c0,.111.111,0,.185-.222.259-.555.185-.222-.333,1.3-.222.7-.407,1.147-.481,1.073-.037-.111-.074-.074-.148.185a4.941,4.941,0,0,1-.259.666c-.148.444-.148.666,0,.444.111-.148.111-.148.111.037a.278.278,0,0,1-.185.259,2.063,2.063,0,0,0-.37.814,3.23,3.23,0,0,1-.259.814C8.029-8.621,7.955-8.251,7.881-7.844Zm.666-1.3c-.037.074-.074.037-.037-.111,0-.111.037-.185.037-.148A.3.3,0,0,1,8.547-9.139Zm4.4-8.251c-.518,1.554-.629,1.85-.777,1.961a.469.469,0,0,0-.148.333,3.124,3.124,0,0,1-.518,1.258c-.037,0-.074.148-.111.333a3.379,3.379,0,0,1-.407,1.221,1.8,1.8,0,0,0-.148.592,1.727,1.727,0,0,1-.259.74c-.111.222-.888,2.442-.925,2.664q0,.055-.111,0c-.111-.111-.148.074-.037.222.074.074,0,.444-.148.962a6.477,6.477,0,0,0-.3,1.147q-.056.333-.222.333c-.111,0-.185.111-.185.259,0,.259,0,.259.111.037.037-.111.111-.148.111-.074,0,.222-.185.518-.259.407-.074-.037-.111.222-.074.555a2.1,2.1,0,0,1-.185.962c-.148.259-.185.37-.074.481.074.111.074.148-.074.148-.148-.037-.222.111-.259.592l-.074.666L7.77-2.257c-.259-1.554.259-4.292,1.85-9.361.3-1.036,1.258-3.737,1.887-5.291.518-1.332.555-1.369,1.406-1.48C13.32-18.463,13.32-18.5,12.95-17.39Zm6.623-18.2a34.235,34.235,0,0,0-1.517,3.811,3.072,3.072,0,0,1-.185.666,5.429,5.429,0,0,0-.555,1.887,13.077,13.077,0,0,1-.777,2.183,9.919,9.919,0,0,1-.962,2.072c-.037-.037-.111.3-.148.7a4.047,4.047,0,0,1-.444,1.48,4.1,4.1,0,0,0-.37.888.455.455,0,0,1-.185.37c-.111.074-.185.111-.185.037,0-.037-.074,0-.148.074-.111.074-.185.185-.148.222.037.074-.074.185-.222.222-.444.148-.481.111-.481-.185a47.059,47.059,0,0,1,2.22-5.735c.37-.888.888-2.146,1.184-2.812.666-1.628,2.516-5.661,2.886-6.364C20.017-36.926,20.054-36.556,19.573-35.594ZM14.726-26.27a2.222,2.222,0,0,1,.185-.518c.111-.185.185-.3.185-.259a1.863,1.863,0,0,1-.185.555C14.8-26.27,14.726-26.159,14.726-26.27Zm.444-1.073a2.19,2.19,0,0,1,.259-.629c.111-.259.185-.333.148-.185C15.429-27.713,15.133-27.121,15.17-27.343Zm.814-2.035a.288.288,0,0,1,.111-.259c.074-.037.074.037.037.185C16.021-29.156,15.947-29.156,15.984-29.378Zm1.628-3.811a1.523,1.523,0,0,1,.111-.3c.074-.074.148-.111.148-.037a2.181,2.181,0,0,1-.148.3C17.649-33.152,17.612-33.115,17.612-33.189Zm2.479-5.55a.422.422,0,0,0-.111.222c-.037.074-.592,1.3-1.3,2.664-1.665,3.293-2.331,4.958-1.813,4.329.185-.222.222-.222.111.074-.074.148-.185.444-.3.629l-.185.37.074-.444.111-.407-.222.37c-.185.37-.259.666-.111.592.074-.037.074.037.037.185-.074.185-.111.222-.148.074-.037-.074-.111-.148-.111-.111,0,.074-.666,1.665-1.776,4.366-.3.74-.555,1.406-.555,1.48s.037,0,.111-.148c.185-.407.259-.222.074.222-.074.222-.185.333-.222.3-.148-.074-.407.481-.888,1.776a8.08,8.08,0,0,1-.518,1.221c-.111.148-.3.185-.3.037.037-.37,3.885-9.768,5.143-12.654,1.221-2.7,3.034-6.031,3-5.476A1.118,1.118,0,0,1,20.091-38.739ZM40.848-45.4c1.258.037,5.661,2.035,6.142,2.775.222.37.074.3-.444-.148a16.565,16.565,0,0,0-4.995-2.368C41-45.288,40.7-45.436,40.848-45.4ZM40-45.584a1.259,1.259,0,0,1,.37.037c.111.037.037.037-.185.037S39.886-45.547,40-45.584Zm-1.11-.185a1.411,1.411,0,0,1,.555.037c.111.037-.037.037-.333,0C38.813-45.732,38.7-45.769,38.887-45.769Zm-.481.3a16.238,16.238,0,0,1,3.922.888c.666.222,1.11.407.962.407-.111,0-.222,0-.259-.074a29.65,29.65,0,0,0-4-1.036C37.7-45.473,37.407-45.547,38.406-45.473ZM35.927-46.1a10.975,10.975,0,0,1,1.554.111c.407.037.037.037-.777-.037C35.853-46.1,35.52-46.139,35.927-46.1Zm3.293,1.369a7.745,7.745,0,0,1-2.072-.037,20.737,20.737,0,0,1-2.553-.3A34.056,34.056,0,0,1,39.22-44.733Zm-5.254-1.406a1.025,1.025,0,0,1,.481.037c.148.037.037.074-.259.037C33.929-46.1,33.818-46.1,33.966-46.139Zm-5.883,1.591a37.229,37.229,0,0,1,5.365-.481c1.036,0,1.036,0-1.332.185-.925.074-2.183.185-2.812.3C28.046-44.4,27.824-44.4,28.083-44.548Zm-.555.148a.233.233,0,0,1,.222,0c.074.037.074.074-.074.074C27.565-44.326,27.491-44.363,27.528-44.4Zm-.666.148c.037-.074.185-.111.333-.111.222.037.222.037,0,.111C26.9-44.1,26.788-44.141,26.862-44.252Zm-9.99,1.517c.444-.148,1.813-.555,2.96-.888,2-.592,2.146-.629,1.85-.333a7.528,7.528,0,0,1-2.923.925,37.357,37.357,0,0,0-5.735,1.85c-.074.111-.222.148-.259.111-.074-.074-.444.037-.888.222a1.769,1.769,0,0,1-.7.222A48.987,48.987,0,0,1,16.872-42.735Zm-6.512,3.4c.259-.074,1.665-.555,2.738-1a3.474,3.474,0,0,1,.7-.259c.037,0,.592-.185,1.184-.407,1-.37,5.106-1.665,5.809-1.813.185-.037.259-.037.185.037s-1.221.444-2.553.888c-1.369.407-3.108,1-3.922,1.295-.777.3-2.035.74-2.775,1s-1.406.518-1.48.518c-.074.037-.148,0-.148-.037C10.1-39.183,10.212-39.294,10.36-39.331ZM9.62-39c.185-.074.37-.111.37-.037a.646.646,0,0,1-.37.185C8.991-38.665,8.991-38.7,9.62-39Zm.407,27.491c-.037,0-.148.148-.222.3-.185.333-.037.407.185.074C10.138-11.4,10.175-11.507,10.027-11.507ZM49.95-19.684c-.222.111-.222,0,.037-.37.259-.444.222-.814-.074-.555a10.391,10.391,0,0,0-.74,1.036,39.161,39.161,0,0,1-3.33,4.255,6.286,6.286,0,0,0-.962,1.073c-.37.518-.814.962-1.036,1a10.336,10.336,0,0,0-1.739,1.85A41.1,41.1,0,0,1,36.3-5.7a10.705,10.705,0,0,1-4.181,1.924c-.222,0-.629-.037-.962-.074A1.093,1.093,0,0,1,30.3-4.44c-.851-1.221-1-2.812-.555-5.513.185-.888.444-2.072.592-2.59.3-.962.3-.962.629-.888.7.111,2.183-.666,3.145-1.665a100.917,100.917,0,0,0,8.1-10.36l1.48-2.22c.444-.629,1.184-1.85,1.7-2.664s.962-1.591,1.036-1.665c1.11-1.739,4.7-8.362,5.883-10.915A10.784,10.784,0,0,0,53.5-46.1c.074-.629.037-.777-.666-1.85a1.923,1.923,0,0,0-2.257-.592c-5.661,2.812-13.764,15.355-14.208,16.206-.148.259-.555,1.036-.962,1.7a64.969,64.969,0,0,0-3.959,7.622c0,.037-.185.444-.37.888A55.627,55.627,0,0,0,27.639-11.1,9.065,9.065,0,0,0,27.9-6.29a11.975,11.975,0,0,1,.481,1.147A5.657,5.657,0,0,0,31.45-2.072a2.6,2.6,0,0,0,1.739.3A4.764,4.764,0,0,0,34.6-2c.222-.111.555-.222.74-.3A15.17,15.17,0,0,0,38.7-4.477c.814-.7,2.59-2.368,3.441-3.256a59.228,59.228,0,0,0,4.144-5.217c.259-.444.777-1.221,1.184-1.776a7.382,7.382,0,0,0,.7-1.221A32,32,0,0,0,44.7-11.618c-.592.74-1.776,2.146-2.7,3.108A11.416,11.416,0,0,1,40.4-7.178c-.037,0,0-.111.074-.222a1.008,1.008,0,0,0,.222-.444,3.572,3.572,0,0,1,.814-.888,90.5,90.5,0,0,0,6.179-7.7,10.013,10.013,0,0,1,1.036-1.443l.333-.3-.259.444c-.37.592-.185.851.222.407C49.765-18.093,50.468-19.943,49.95-19.684Zm-19.5,2.035c.037-.3,1.406-3.737,1.517-3.848.037-.074-.222.7-.629,1.739C30.71-18.13,30.377-17.279,30.451-17.649ZM48.322-36.3c-.074.185-.185.333-.222.333-.074,0,.148-.481.259-.555C48.433-36.593,48.4-36.482,48.322-36.3Zm-2.4-5.106A47.323,47.323,0,0,1,49.8-45.436c.37-.333.814-.74,1-.925a5.217,5.217,0,0,1,.666-.518l.37-.259-.111.777a4.051,4.051,0,0,1-.666,1.887c-.074.074-.111.185-.074.222.074.111-.037.37-1.332,2.923-1.221,2.368-2.4,4.477-4,7.1a33.2,33.2,0,0,1-2.812,4.366,15.29,15.29,0,0,0-1.184,1.7c-.333.518-.814,1.184-1.036,1.48-.259.333-1.221,1.665-2.183,2.96a50.611,50.611,0,0,1-6.586,7.844c-.555.481-.592.481-.518.185.111-.481,1.591-4.329,1.924-5.143a18,18,0,0,0,1.406-3.293c.074-.3,1.443-2.886,2.96-5.55.74-1.258,2.479-3.885,3-4.514C40.774-34.336,45.14-40.478,45.917-41.4ZM32-21.793a.253.253,0,0,1,.111-.185c.074-.037.074,0,.037.111C32.116-21.645,32.042-21.608,32-21.793Zm.629-1.3c.111-.148.074-.037-.037.259a2.54,2.54,0,0,1-.333.592A2.89,2.89,0,0,1,32.634-23.088Zm.555-1.147c-.037-.074.037-.185.148-.3.148-.148.148-.148.037.074a1.4,1.4,0,0,1-.185.3Zm1.036-2.22a.837.837,0,0,1,.185-.37l.222-.222-.148.333C34.3-26.381,34.225-26.307,34.225-26.455Zm1.073-1.85c.074-.037-.037.222-.185.555-.185.333-.333.629-.407.629C34.6-27.121,35.15-28.194,35.3-28.305Zm.259-.407a1.939,1.939,0,0,1,.37-.74,2.81,2.81,0,0,0,.333-.555c0-.037.037-.074.111-.074s-.074.259-.259.592a4.393,4.393,0,0,0-.481.851C35.483-28.453,35.483-28.453,35.557-28.712Zm.888-1.628a.493.493,0,0,1,.111-.185c.037-.037.074,0,.037.111C36.519-30.192,36.482-30.155,36.445-30.34Zm.666-1.332a.54.54,0,0,1,.185-.3c.148-.148.185-.148.037.074a1.4,1.4,0,0,1-.185.3C37.148-31.561,37.148-31.6,37.111-31.672Zm3.182-3.293c.185-.3.259-.333.259-.185a.625.625,0,0,1-.222.259C40.108-34.706,40.108-34.706,40.293-34.965Zm-8.88,13.542a77.7,77.7,0,0,1,5.735-10.915c1-1.517,2.812-4.107,2.886-4.107,0,0-.074.185-.185.407a1.521,1.521,0,0,0-.259.444,12.788,12.788,0,0,1-1,1.406A16.035,16.035,0,0,0,37.3-32.3a6.573,6.573,0,0,1-.444.666c-.074.037-.111.185-.111.3,0,.148,0,.148.148,0,.185-.148.185-.148.074.037-.074.111-.185.222-.259.222-.111,0-.481.481-.444.592a1.22,1.22,0,0,1-.333.481,1.521,1.521,0,0,0-.259.444A10.574,10.574,0,0,1,35-28.379c-.333.592-.7,1.258-.777,1.443-.074.222-.481,1.036-.851,1.776-.407.814-.814,1.7-.962,2a7.2,7.2,0,0,1-.481,1.073c-.111.259-.333.814-.481,1.221-.185.37-.444,1.036-.629,1.48a9.1,9.1,0,0,0-.407,1.184c-.148.407-.666,1.48-.7,1.332C29.711-17.057,30.784-19.943,31.413-21.423Zm-2.849,10.73c-.111.333-.185.555-.185.444a3.417,3.417,0,0,1,.148-.814c.074-.333.148-.518.185-.407C28.712-11.4,28.638-11.026,28.564-10.693Zm.555-2.331c-.185.666-.333,1.258-.37,1.3-.111.148-.037-.3.185-1,.111-.407.222-.814.222-.888a.98.98,0,0,1,.111-.37C29.341-14.134,29.3-13.69,29.119-13.024Zm40.219-8.621A4.963,4.963,0,0,0,70-22.681a8.117,8.117,0,0,1,.851-1.221c.555-.666.74-.925.407-.666-.111.111-.148.111-.148-.037a.769.769,0,0,1,.185-.444c.37-.518,0-.37-.555.222-.518.555-.481.518.148-.3a3.576,3.576,0,0,0,.7-1c-.074-.074-.629.555-1.813,1.85-.3.333-.962,1.036-1.48,1.554-.481.518-1.11,1.147-1.332,1.443a30.235,30.235,0,0,1-2.553,2.331c-.37.3-1.11.888-1.628,1.369-.962.777-1.295,1-1,.629.148-.185.111-.185-.074-.037a3.6,3.6,0,0,0-1,.888c0,.148-.555.592-.777.592a6.037,6.037,0,0,0-1.036.555,15.807,15.807,0,0,1-7.067,2.627c-1.036.111-2.146-.222-2.146-.629a3.344,3.344,0,0,1,.7-.407,25.972,25.972,0,0,0,5.661-3.256,14.386,14.386,0,0,0,2.96-3.034,5.381,5.381,0,0,0,1.036-2.59c.111-.888-.222-1.554-1.3-2.59a4.614,4.614,0,0,0-2.331-1.406c-.259-.037-.74-.148-1.073-.222a2.008,2.008,0,0,0-.925-.037c-.333.037-1.073.74-1.887,1.739-.333.37-.7.814-.888,1a25.993,25.993,0,0,0-3.145,5,7.342,7.342,0,0,0-.74,4.7c.037.148,0,.259-.222.333-.333.185-.333.259.037.333.222.037.407.185.592.518.518.888,2.553,2.664,2.849,2.479a.418.418,0,0,1,.37.111c.666.37,4.514-.222,5.513-.888.148-.074.777-.407,1.369-.74a30.55,30.55,0,0,0,4.847-3.219c.7-.592,4.958-4.921,5.476-5.624A8.556,8.556,0,0,0,69.338-21.645ZM50.8-17.612a28.462,28.462,0,0,1,3.293-4.921c1.554-1.924,2.22-2.368,3.108-2.146.629.185.777.333.851.814a5.061,5.061,0,0,1-.777,2.516A29.576,29.576,0,0,1,54.242-18.2a6.488,6.488,0,0,0-.851.7A20,20,0,0,1,51.1-15.836c-1.3.888-1.406.962-1.406.925A15.788,15.788,0,0,1,50.8-17.612ZM65.9-18.5a9.8,9.8,0,0,1-.888.925c-.407.407-.333.3.259-.37C66.119-18.907,66.452-19.166,65.9-18.5Zm22.274-1.85v-.074l-.222-.111c-.259.3-.518.555-.74.777-1.369,1.369-2.146,2.072-1.887,1.739a17.768,17.768,0,0,1,1.48-1.7.377.377,0,0,0,.185-.3c0-.148-1.147.962-1.628,1.591a3.612,3.612,0,0,1-.666.629c-.259.185-.814.629-1.258,1-.629.518-.407.3.925-1.11,1.147-1.147,1.887-1.887,2.368-2.405a1.334,1.334,0,0,1-.777-.111,41.951,41.951,0,0,1-6.512,5.957,33.612,33.612,0,0,1-3.959,2.22,5.745,5.745,0,0,1-2.664.185,4.757,4.757,0,0,1-1.11-2.368,9.878,9.878,0,0,1-.3-2.627v-1.591l.814-.888c1.184-1.221,3.441-3.4,4.218-4.07a2.536,2.536,0,0,0,.666-.666.38.38,0,0,1,.259-.185c.148-.074.259-.185.259-.3,0-.074.037-.111.111-.074s.222-.074.333-.259c.148-.185.444-.555.7-.851.444-.592.481-.777.111-.666-.259.037-.259.037-.037-.111.185-.148.185-.185.037-.333s-.185-.148-.518.037a46.962,46.962,0,0,0-5.994,4.847l-.7.7v-.518c0-.3.037-.814.074-1.11a4.2,4.2,0,0,0,.111-2.109c-.111-.148-.111-.222,0-.333s.111-.111.074.037c-.074.111-.037.185,0,.185.111,0,.333-.555.333-.962a.7.7,0,0,1,.148-.444.3.3,0,0,0,.037-.3c0-.111,0-.185.037-.185.074,0,.111-.074.111-.148a5.35,5.35,0,0,1,.259-.888c.222-.7.259-.777.074-1.147-.185-.444-.407-.629-.74-.629-.185.037-.259,0-.3-.185-.074-.259-.222-.333-.666-.333-.407-.037-.592.148-.962.851a4.893,4.893,0,0,1-.74,1,2.115,2.115,0,0,0-.481.74c0,.111.148,0,.481-.37.444-.444.444-.481.259-.111-.111.185-.185.37-.148.444.037,0-.037.148-.148.259-.111.148-.148.222-.074.185.185-.111.185,0,0,.962A26.044,26.044,0,0,0,69-21.127c.074.037.111.407.111,1.184,0,1.295.111,1.147-1.332,2.7-2,2.109-5.587,6.882-5.587,7.363,0,.037.111.148.259.222a.789.789,0,0,1,.37.407c.074.148.185.333.222.407.148.148.148.148.629.037a1.659,1.659,0,0,0,.925-1,4.058,4.058,0,0,1,.3-.37c.111-.148.629-.851,1.073-1.591.481-.7,1-1.443,1.147-1.665a5.9,5.9,0,0,0,.555-.777,8.574,8.574,0,0,1,1.369-1.739,1.69,1.69,0,0,1,.185.555,7.663,7.663,0,0,0,1.036,2.368,11.088,11.088,0,0,0,2.479,2.368c.3.148.666.37.851.481a3.1,3.1,0,0,0,1.924.111c.259-.037.777-.148,1.11-.222a1.705,1.705,0,0,0,.814-.3c.148-.148.259-.185.3-.111.111.185,1.11-.3,2.516-1.221a16.442,16.442,0,0,0,2.627-2c.259-.222.777-.666,1.11-.925a34.653,34.653,0,0,0,3.034-3.108c.222-.259.481-.518.555-.592.037-.037.259-.3.481-.555a5.238,5.238,0,0,0,.148-.74c-.111.111-.185.185-.259.185-.148.074-.074-.074.259-.444C88.208-20.165,88.171-20.239,88.171-20.35ZM77.293-25.456a.246.246,0,0,0,.148-.185c0-.111.74-.555.74-.444a5.918,5.918,0,0,1-.555.481c-.3.222-.518.37-.518.333C77.108-25.345,77.182-25.419,77.293-25.456Zm-.592.518c.074-.074.148-.148.185-.148a.229.229,0,0,1-.074.148.4.4,0,0,1-.185.148C76.59-24.79,76.627-24.827,76.7-24.938ZM84.73-17.39c-.111.148-.185.3-.222.3-.074,0,.185-.407.3-.481C84.841-17.612,84.841-17.538,84.73-17.39Zm1.11.037c-.37.444-.74.814-.74.74a2.539,2.539,0,0,1,.74-.851C85.951-17.538,85.988-17.538,85.84-17.353ZM86.876-18.5a2.232,2.232,0,0,1-.518.481c-.333.3-.3.259.111-.185C86.95-18.722,87.061-18.8,86.876-18.5Zm.481-.481a.662.662,0,0,1-.259.185.821.821,0,0,1,.148-.185c.111-.111.222-.222.259-.222A.635.635,0,0,1,87.357-18.981Zm4.477,6.771a.23.23,0,0,1,.148-.222,13.083,13.083,0,0,0,1.665-1.813,22.683,22.683,0,0,0,2.627-3.478c2.368-3.7,2.7-4.4,2.7-5l-.037-.37-.148.259c-.111.111-.148.259-.111.3.111.111-.148.592-.259.518-.074,0-.111,0-.037.074a18.812,18.812,0,0,1-2,2.923c-.222.222-.259.259-.222.074a.781.781,0,0,1,.148-.37c.407-.555,1.369-2.035,1.813-2.738a4.833,4.833,0,0,1,.666-.962.326.326,0,0,0,.074-.3c-.074-.185-.222,0-.666.74-.185.333-.407.666-.444.74-.074.074-.185.3-.3.444-.074.148-.148.259-.185.185,0-.037.259-.444.555-.962.3-.444.518-.888.444-.925-.037-.037,0-.111.074-.111.185-.037.74-1.073.629-1.147-.037-.037-.148.148-.3.407s-.3.481-.37.481a4.25,4.25,0,0,0-.74,1.036,54.333,54.333,0,0,1-8.843,10.4,8.34,8.34,0,0,1-2.886,1.887l-.481.111-.037-.444a1.426,1.426,0,0,1,0-.592c.148-.185.074-.481-.111-.37-.074.037-.111.037-.111-.037a.169.169,0,0,1,.185-.148c.074,0,.148-.185.222-.518a23,23,0,0,1,1.7-5.106c.074-.111.259-.518.407-.851s.37-.777.481-1,.407-.74.666-1.221c.222-.444.555-1.036.7-1.332a10.883,10.883,0,0,0,.592-1.147c.185-.333.407-.814.555-1.073a2.419,2.419,0,0,0,.222-.851L90.8-25.16l-.7-.444c-.592-.407-.777-.481-1.073-.444-.333.037-.407.111-.888.777a20.437,20.437,0,0,0-1.7,3.182c-.3.629-.666,1.406-.814,1.7a13.652,13.652,0,0,0-.629,1.517c-.185.518-.444,1.221-.592,1.591-.111.333-.3.888-.37,1.184-.111.3-.222.777-.3,1.036a36.279,36.279,0,0,0-.74,4.07,3.239,3.239,0,0,0,.481.7,3.685,3.685,0,0,0,3,1.554h.555a9.173,9.173,0,0,0,3.145-1.813A11.994,11.994,0,0,0,91.834-12.21Zm3.7-6.179c.148.037.259.111.3.111a1.193,1.193,0,0,1-.222.074c-.148,0-.259-.037-.259-.111S95.386-18.426,95.534-18.389ZM90.576-30.266c.074.074.148.185.185.222a1.462,1.462,0,0,0,.3.444.7.7,0,0,0,.629.3,1.277,1.277,0,0,1,.444.037c.185.222.555-.259,1.258-1.628A19.407,19.407,0,0,1,95.2-33.781a2.676,2.676,0,0,0,.518-.925,1.293,1.293,0,0,1,.111-.444c.074-.148.037-.3-.148-.666-.333-.74-.518-.7-1.443.148a25.935,25.935,0,0,0-3.4,4.4C90.428-30.451,90.391-30.377,90.576-30.266ZM105.45-8.1c0,.037.074.074.185.037a.686.686,0,0,1,.259-.074c.037,0,.148-.148.259-.3.074-.185.111-.333.037-.333C106.042-8.769,105.45-8.251,105.45-8.1Zm12.136-10.4c-1.295-.851-2.96-.888-5.106-.111l-.666.259v-1.591a5.17,5.17,0,0,0-.259-2.183,3.345,3.345,0,0,0-1.443-1.7,5.251,5.251,0,0,1-.666-.407,5.119,5.119,0,0,0-2.664-.3,10.86,10.86,0,0,0-5.328,4c-.222.259-.444.555-.555.7a14.492,14.492,0,0,0-1.406,1.739,3.439,3.439,0,0,1-.518.7s.148-.518.333-1.184c.185-.629.407-1.258.444-1.406,0-.111.333-.481.7-.74a56.058,56.058,0,0,0,8.029-9.213A100.684,100.684,0,0,0,115.44-39.96c1.517-2.627,2.146-4.144,2.257-5.328a1.612,1.612,0,0,0-.777-1.739,1.05,1.05,0,0,0-.962-.37,3.93,3.93,0,0,0-2.146.629c-.74.407-1,.7-.629.7.074,0,.148.037.148.111,0,.111-.259.222-.518.222-.407,0-3.071,2.775-5.513,5.735-.333.407-.7.814-.814.962-.518.629-2.146,2.849-2.923,4a27.851,27.851,0,0,0-2.257,3.848c-.444.888-.925,1.776-1.036,2a53.74,53.74,0,0,0-2.59,6.66,3.76,3.76,0,0,1-.444,1,1.058,1.058,0,0,0-.185.629,6.946,6.946,0,0,1-.3,1.517c-.7,2.479-1.554,6.179-1.85,8.066a8.88,8.88,0,0,0-.111,2.257l.074,1.184.518.481c.592.518.962.7,1.147.481a.264.264,0,0,1,.222-.111c.259.111.407-.259.481-1,.111-1.924,1.443-4.7,4.107-8.547a11.389,11.389,0,0,0,.888-1.406c0-.074.037-.111.037-.074.074.074.666-.666.666-.814a12.687,12.687,0,0,1,2.738-2.96,7.556,7.556,0,0,1,3-1.628c.407,0,.888.74.888,1.369a.561.561,0,0,0,.148.3c.259.222.148,1.665-.222,3.145-.518,2.146-.407,2-1.739,2.886a48.12,48.12,0,0,0-7.437,6.438,39.03,39.03,0,0,0-4.181,4.81c-.444.629-.592.629-.555.037.037-.407,0-.629-.111-.629-.037,0-.111.111-.111.222a.556.556,0,0,1-.148.407c-.148.148-.148.111-.111-.3.074-.444.074-.444-.074-.259a.726.726,0,0,0,0,.925.287.287,0,0,1,.037.37c-.111.074-.111.148,0,.3a.6.6,0,0,1,.074.481c-.074.3-.037.407.37.814a5.887,5.887,0,0,1,.592.7,2.507,2.507,0,0,0,1.554.962,3.48,3.48,0,0,0,2.7-.222c1.332-.555,2.516-1.591,4.255-3.7.629-.74,1.332-1.628,1.554-1.961a49.419,49.419,0,0,0,3.4-5.809,23.5,23.5,0,0,0,1.554-3.848,4.792,4.792,0,0,1,1.628-1.036c1.628-.74,3.589-1.147,4.144-.851.185.111.222.222.222.888a1.747,1.747,0,0,0,.111.851,1.191,1.191,0,0,0,.592-.148c.37-.185.481-.3.555-.666C118.548-17.612,118.326-17.982,117.586-18.5Zm-5.513-23.939a16.722,16.722,0,0,1,3.848-3.7c.259-.148.259-.148.222.481a10.334,10.334,0,0,1-1.258,3.33c-.259.481-.592,1.036-.7,1.258-.629,1.184-2.627,4.255-3.663,5.661-.481.629-1.073,1.443-1.295,1.739-.222.333-.555.777-.74,1.036-.592.7-2.849,3.737-2.96,3.922l-.3.3c-.111.111-.555.629-1,1.184s-1.332,1.591-1.961,2.331c-1.11,1.258-1.443,1.554-1.295,1.147.148-.37.925-2.4,1.221-3.219a13.173,13.173,0,0,1,1-2.368.776.776,0,0,0,.148-.407,19.644,19.644,0,0,1,1.85-3.589c.37-.518.481-.814.259-.666-.185.111-.074-.074.925-1.443a60.032,60.032,0,0,1,3.959-5C110.741-40.885,111.555-41.773,112.073-42.439Zm-7.252,8.51a21.087,21.087,0,0,1,1.554-2.035c.037,0,0,.074-.037.148a12.655,12.655,0,0,0-.814,1.036A8.015,8.015,0,0,1,104.821-33.929Zm2.22-2.96a.283.283,0,0,1,.074-.185c.074-.037.111,0,.037.111C107.115-36.778,107.041-36.741,107.041-36.889Zm-5.7,6.179c.148-.222.259-.407.3-.37.037,0-.037.185-.111.333a1.424,1.424,0,0,1-.3.407C101.195-30.3,101.232-30.488,101.343-30.71Zm-.481,1.036c.037,0,.037.111-.037.259-.111.333-1.147,2.59-1.258,2.812a2.85,2.85,0,0,0-.259.7c-.185.444-.37.814-.37.629A28.623,28.623,0,0,1,100.862-29.674Zm-2.368,7.733a.431.431,0,0,0,.074-.259,4.948,4.948,0,0,1,.592-2.146,1.528,1.528,0,0,0,.259-.74c-.037-.111,0-.185.074-.185.037,0,.074-.074.037-.222a3.638,3.638,0,0,1,.481-1.443c.777-1.7,2.405-5,2.886-5.772,1.517-2.368,2-3.071,3.145-4.588,1.517-2,1.887-2.368.629-.629a19.972,19.972,0,0,0-1.406,2.257c-.259.555-.592,1.184-.7,1.369-.592.925-2.257,3.811-2.257,3.848s-.37.851-.814,1.776a30.462,30.462,0,0,0-1.517,3.256c-.111.3-.333.925-.518,1.369-.185.481-.444,1.258-.629,1.739-.3.962-.555,1.443-.666,1.295C98.087-21.164,98.309-21.9,98.494-21.941ZM96.9-14.134l-.185.3.074-.333a4.716,4.716,0,0,1,.148-.518c.074-.185.111-.185.111.037A1.372,1.372,0,0,1,96.9-14.134Zm.259-1.073c-.111.259-.111-.037,0-.37.037-.222.074-.222.074-.074A2.215,2.215,0,0,1,97.162-15.207Zm.259-1.184c-.037.074-.037.037-.037-.074s0-.185.037-.148S97.458-16.5,97.421-16.391Zm.3-1a3.775,3.775,0,0,1-.148.555c-.074.074-.074,0-.037-.222a2.294,2.294,0,0,1,.148-.518C97.754-17.686,97.791-17.612,97.717-17.39Zm.222-.814-.148.259.074-.333c.037-.148.111-.407.148-.518.074-.185.074-.185.074.037A1.55,1.55,0,0,1,97.939-18.2Zm.111-1.665c-.037.111-.185.74-.37,1.369-.148.592-.333,1.258-.407,1.443-.111.333-.777,3.145-.888,3.848a6.357,6.357,0,0,1-.592,1.3c0-.111.407-2.257.592-3,.518-2.183.777-3.256.925-3.589a5.839,5.839,0,0,0,.259-.592,2.772,2.772,0,0,0,.148-.592c0-.259.074-.37.222-.407S98.124-20.091,98.05-19.869Zm.148.814a.118.118,0,0,1-.111-.111c0-.037.037-.111.074-.111l.111.111C98.309-19.092,98.272-19.055,98.2-19.055Zm.666-2.664c.074-.148.185-.592.333-1a7.724,7.724,0,0,1,.37-1c.074-.148.185-.518.333-.851a10.133,10.133,0,0,1,.407-1.036c.111-.259.481-1.147.888-2a12.46,12.46,0,0,1,.814-1.7c.222-.222-.074.592-.851,2.479-.851,2-1.221,2.886-1.7,4.181a3.193,3.193,0,0,1-.481.962C98.827-21.534,98.79-21.534,98.864-21.719ZM96.829-2.294a12.879,12.879,0,0,1,1.887-2.738,83.125,83.125,0,0,1,7.659-7.659c.666-.555,1.295-1.036,1.332-1.11.148-.222.259-.111.148.148a29.867,29.867,0,0,1-2.59,4.736c-.037-.074.037-.185.111-.222.148-.148.074-.37-.074-.3-.074.074-.481.629-.925,1.258a35.2,35.2,0,0,1-3.182,3.959,14.566,14.566,0,0,1-2.627,1.7C97.9-2.22,96.829-2.072,96.829-2.294Zm3.182.962c-.259.148-.333.148-.333.037s.407-.333.481-.222C100.2-1.48,100.122-1.369,100.011-1.332Zm.666-.3a.2.2,0,0,1-.185.111c-.148,0-.111-.074.074-.148C100.677-1.7,100.714-1.665,100.677-1.628Zm.407-.222c-.333.148-.333.074,0-.111.148-.111.259-.148.259-.111C101.343-2,101.232-1.924,101.084-1.85ZM106-6.623c-.111.074-.148.074-.074-.074.037-.111.074-.148.148-.111A.289.289,0,0,1,106-6.623Zm.925-2.035a.577.577,0,0,0-.222.37.246.246,0,0,1-.148.185c-.111.037-.148.111-.148.148.111.333-2.294,3.4-3.626,4.7-.407.37-.888.777-1.073.925l-.3.222.333-.37a1.22,1.22,0,0,0,.333-.481.1.1,0,0,1,.111-.111c.111.037.629-.518.629-.666,0-.037.074-.074.185-.074.222,0,.7-.444.7-.7a1.771,1.771,0,0,1,.3-.407,2.081,2.081,0,0,0,.259-.481,1.554,1.554,0,0,1,.407-.74c.037,0,.037.074,0,.111-.074.074.037.037.185-.074a.469.469,0,0,0,.259-.3,1.717,1.717,0,0,1,.407-.444,1.329,1.329,0,0,0,.333-.555,1.357,1.357,0,0,1,.37-.555,1.022,1.022,0,0,0,.3-.481c-.037-.074,0-.111.074-.111s.111-.074.111-.185c0-.074.074-.185.148-.185.111-.037.185-.111.185-.148a18.337,18.337,0,0,1,1.295-2.331A11.782,11.782,0,0,1,106.93-8.658Zm.037-1.369c-.037-.037.037-.222.148-.37s.222-.222.222-.185C107.337-10.36,107.041-9.916,106.967-10.027Zm.555-1.11c.111-.185.185-.333.222-.3a.934.934,0,0,1-.148.333C107.374-10.656,107.3-10.656,107.522-11.137Zm1-2.886c-.185.518-1.739,3.4-2.294,4.366-.629,1-.7,1.3-.148.555.37-.518.518-.629.518-.37,0,.074.074.037.148-.111.037-.111.148-.222.185-.222.111,0,.037.259-.111.481a9.194,9.194,0,0,0-.481.814A10.7,10.7,0,0,1,104.821-6.4c0-.037.222-.333.481-.74.3-.407.407-.7.333-.74a.183.183,0,0,0-.111-.037c-.037.037-.259.37-.518.777A26.356,26.356,0,0,1,101.639-3c-.333.333-.74.7-.851.814a1.107,1.107,0,0,1-.333.259,5.128,5.128,0,0,0-.814.333c-.7.37-.74.407-.481.481L99.419-1H99.16a2.8,2.8,0,0,0-.555.037c-.629.111-1.369-.148-1.258-.481.037-.111.074-.148.148-.074a4.851,4.851,0,0,0,2.035-.666,13.417,13.417,0,0,0,2.775-2.22,7.608,7.608,0,0,1,.777-.925c.148-.185.629-.814,1-1.369,1.036-1.554,1.184-1.776,1.036-1.85-.074-.037-.037-.111.111-.148a.721.721,0,0,0,.37-.37.875.875,0,0,1,.185-.333,18.978,18.978,0,0,0,1.776-3C108.373-13.986,108.743-14.578,108.521-14.023Zm28.49-5.661c-.222.111-.222,0,.037-.37.259-.444.222-.814-.074-.555a10.392,10.392,0,0,0-.74,1.036,39.16,39.16,0,0,1-3.33,4.255,6.286,6.286,0,0,0-.962,1.073c-.37.518-.814.962-1.036,1a10.335,10.335,0,0,0-1.739,1.85,41.1,41.1,0,0,1-5.809,5.7,10.705,10.705,0,0,1-4.181,1.924c-.222,0-.629-.037-.962-.074a1.093,1.093,0,0,1-.851-.592c-.851-1.221-1-2.812-.555-5.513.185-.888.444-2.072.592-2.59.3-.962.3-.962.629-.888.7.111,2.183-.666,3.145-1.665a100.917,100.917,0,0,0,8.1-10.36l1.48-2.22c.444-.629,1.184-1.85,1.7-2.664s.962-1.591,1.036-1.665c1.11-1.739,4.7-8.362,5.883-10.915a10.784,10.784,0,0,0,1.184-3.182c.074-.629.037-.777-.666-1.85a1.923,1.923,0,0,0-2.257-.592c-5.661,2.812-13.764,15.355-14.208,16.206-.148.259-.555,1.036-.962,1.7a64.968,64.968,0,0,0-3.959,7.622c0,.037-.185.444-.37.888A55.627,55.627,0,0,0,114.7-11.1a9.065,9.065,0,0,0,.259,4.81,11.975,11.975,0,0,1,.481,1.147,5.657,5.657,0,0,0,3.071,3.071,2.6,2.6,0,0,0,1.739.3A4.764,4.764,0,0,0,121.656-2c.222-.111.555-.222.74-.3a15.17,15.17,0,0,0,3.367-2.183c.814-.7,2.59-2.368,3.441-3.256a59.226,59.226,0,0,0,4.144-5.217c.259-.444.777-1.221,1.184-1.776a7.383,7.383,0,0,0,.7-1.221,32,32,0,0,0-3.478,4.329c-.592.74-1.776,2.146-2.7,3.108a11.416,11.416,0,0,1-1.591,1.332c-.037,0,0-.111.074-.222a1.008,1.008,0,0,0,.222-.444,3.571,3.571,0,0,1,.814-.888,90.494,90.494,0,0,0,6.179-7.7,10.013,10.013,0,0,1,1.036-1.443l.333-.3-.259.444c-.37.592-.185.851.222.407C136.826-18.093,137.529-19.943,137.011-19.684Zm-19.5,2.035c.037-.3,1.406-3.737,1.517-3.848.037-.074-.222.7-.629,1.739C117.771-18.13,117.438-17.279,117.512-17.649ZM135.383-36.3c-.074.185-.185.333-.222.333-.074,0,.148-.481.259-.555C135.494-36.593,135.457-36.482,135.383-36.3Zm-2.4-5.106a47.323,47.323,0,0,1,3.885-4.033c.37-.333.814-.74,1-.925a5.217,5.217,0,0,1,.666-.518l.37-.259-.111.777a4.051,4.051,0,0,1-.666,1.887c-.074.074-.111.185-.074.222.074.111-.037.37-1.332,2.923-1.221,2.368-2.4,4.477-4,7.1a33.2,33.2,0,0,1-2.812,4.366,15.292,15.292,0,0,0-1.184,1.7c-.333.518-.814,1.184-1.036,1.48-.259.333-1.221,1.665-2.183,2.96a50.611,50.611,0,0,1-6.586,7.844c-.555.481-.592.481-.518.185.111-.481,1.591-4.329,1.924-5.143a18,18,0,0,0,1.406-3.293c.074-.3,1.443-2.886,2.96-5.55.74-1.258,2.479-3.885,3-4.514C127.835-34.336,132.2-40.478,132.978-41.4Zm-13.912,19.61a.253.253,0,0,1,.111-.185c.074-.037.074,0,.037.111C119.177-21.645,119.1-21.608,119.066-21.793Zm.629-1.3c.111-.148.074-.037-.037.259a2.54,2.54,0,0,1-.333.592A2.89,2.89,0,0,1,119.695-23.088Zm.555-1.147c-.037-.074.037-.185.148-.3.148-.148.148-.148.037.074a1.4,1.4,0,0,1-.185.3Zm1.036-2.22a.837.837,0,0,1,.185-.37l.222-.222-.148.333C121.36-26.381,121.286-26.307,121.286-26.455Zm1.073-1.85c.074-.037-.037.222-.185.555-.185.333-.333.629-.407.629C121.656-27.121,122.211-28.194,122.359-28.305Zm.259-.407a1.939,1.939,0,0,1,.37-.74,2.81,2.81,0,0,0,.333-.555c0-.037.037-.074.111-.074s-.074.259-.259.592a4.392,4.392,0,0,0-.481.851C122.544-28.453,122.544-28.453,122.618-28.712Zm.888-1.628a.493.493,0,0,1,.111-.185c.037-.037.074,0,.037.111C123.58-30.192,123.543-30.155,123.506-30.34Zm.666-1.332a.54.54,0,0,1,.185-.3c.148-.148.185-.148.037.074a1.4,1.4,0,0,1-.185.3C124.209-31.561,124.209-31.6,124.172-31.672Zm3.182-3.293c.185-.3.259-.333.259-.185a.625.625,0,0,1-.222.259C127.169-34.706,127.169-34.706,127.354-34.965Zm-8.88,13.542a77.7,77.7,0,0,1,5.735-10.915c1-1.517,2.812-4.107,2.886-4.107,0,0-.074.185-.185.407a1.521,1.521,0,0,0-.259.444,12.788,12.788,0,0,1-1,1.406,16.035,16.035,0,0,0-1.3,1.887,6.573,6.573,0,0,1-.444.666c-.074.037-.111.185-.111.3,0,.148,0,.148.148,0,.185-.148.185-.148.074.037-.074.111-.185.222-.259.222-.111,0-.481.481-.444.592a1.22,1.22,0,0,1-.333.481,1.521,1.521,0,0,0-.259.444,10.573,10.573,0,0,1-.666,1.184c-.333.592-.7,1.258-.777,1.443-.074.222-.481,1.036-.851,1.776-.407.814-.814,1.7-.962,2a7.2,7.2,0,0,1-.481,1.073c-.111.259-.333.814-.481,1.221-.185.37-.444,1.036-.629,1.48a9.1,9.1,0,0,0-.407,1.184c-.148.407-.666,1.48-.7,1.332C116.772-17.057,117.845-19.943,118.474-21.423Zm-2.849,10.73c-.111.333-.185.555-.185.444a3.417,3.417,0,0,1,.148-.814c.074-.333.148-.518.185-.407C115.773-11.4,115.7-11.026,115.625-10.693Zm.555-2.331c-.185.666-.333,1.258-.37,1.3-.111.148-.037-.3.185-1,.111-.407.222-.814.222-.888a.98.98,0,0,1,.111-.37C116.4-14.134,116.365-13.69,116.18-13.024ZM156.4-21.645a4.962,4.962,0,0,0,.666-1.036,8.116,8.116,0,0,1,.851-1.221c.555-.666.74-.925.407-.666-.111.111-.148.111-.148-.037a.769.769,0,0,1,.185-.444c.37-.518,0-.37-.555.222-.518.555-.481.518.148-.3a3.575,3.575,0,0,0,.7-1c-.074-.074-.629.555-1.813,1.85-.3.333-.962,1.036-1.48,1.554-.481.518-1.11,1.147-1.332,1.443a30.234,30.234,0,0,1-2.553,2.331c-.37.3-1.11.888-1.628,1.369-.962.777-1.295,1-1,.629.148-.185.111-.185-.074-.037a3.6,3.6,0,0,0-1,.888c0,.148-.555.592-.777.592a6.038,6.038,0,0,0-1.036.555,15.807,15.807,0,0,1-7.067,2.627c-1.036.111-2.146-.222-2.146-.629a3.343,3.343,0,0,1,.7-.407,25.972,25.972,0,0,0,5.661-3.256,14.386,14.386,0,0,0,2.96-3.034,5.38,5.38,0,0,0,1.036-2.59c.111-.888-.222-1.554-1.295-2.59a4.614,4.614,0,0,0-2.331-1.406c-.259-.037-.74-.148-1.073-.222a2.008,2.008,0,0,0-.925-.037c-.333.037-1.073.74-1.887,1.739-.333.37-.7.814-.888,1a25.993,25.993,0,0,0-3.145,5,7.342,7.342,0,0,0-.74,4.7c.037.148,0,.259-.222.333-.333.185-.333.259.037.333.222.037.407.185.592.518.518.888,2.553,2.664,2.849,2.479a.418.418,0,0,1,.37.111c.666.37,4.514-.222,5.513-.888.148-.074.777-.407,1.369-.74a30.55,30.55,0,0,0,4.847-3.219c.7-.592,4.958-4.921,5.476-5.624A8.556,8.556,0,0,0,156.4-21.645Zm-18.537,4.033a28.461,28.461,0,0,1,3.293-4.921c1.554-1.924,2.22-2.368,3.108-2.146.629.185.777.333.851.814a5.061,5.061,0,0,1-.777,2.516A29.575,29.575,0,0,1,141.3-18.2a6.487,6.487,0,0,0-.851.7,20,20,0,0,1-2.294,1.665c-1.295.888-1.406.962-1.406.925A15.788,15.788,0,0,1,137.862-17.612Zm15.1-.888a9.8,9.8,0,0,1-.888.925c-.407.407-.333.3.259-.37C153.18-18.907,153.513-19.166,152.958-18.5Z" transform="translate(-0.18 48.698)" fill="#fff"/>
</svg>
