<svg xmlns="http://www.w3.org/2000/svg" width="127.754" height="62.803" viewBox="0 0 127.754 62.803">
  <g id="グループ_1073" data-name="グループ 1073" transform="translate(-30 -188)">
    <path id="パス_300" data-name="パス 300" d="M.077,23.778a9.556,9.556,0,0,1,.266-3.466c.571-1.79,1.829-3.542,4.533-6.056C6.742,12.5,7.885,11.589,8,11.7c.038.076-.114.267-.3.458l-.381.419.458-.343c.229-.228.457-.419.5-.458a3.371,3.371,0,0,1,.571-.343c.648-.381,2.247-1.485,2.971-1.981a73.489,73.489,0,0,1,7.351-4.3c.267-.114.5-.267.5-.343,0-.038-.229,0-.5.114-.267.152-.495.19-.533.114-.076-.153.077-.267,1.3-.838,2.133-1.029,2.133-1.029,2.971-1.029a3.513,3.513,0,0,0,1.18-.114c.267-.114.838-.343,1.3-.495.495-.152,1.1-.381,1.371-.495a16.979,16.979,0,0,1,6.323-.991c3.047.038,3.77.152,5.065.724a4.989,4.989,0,0,1,2.438,2.628c.839,2.171-.266,4.037-5.98,9.979-.876.914-2.133,2.247-2.818,2.971a74.572,74.572,0,0,1-7.427,7.008c-.915.724-1.1.839-1.562.8a1.062,1.062,0,0,1-.876-.495c-.8-.915-1.066-2.019-.648-2.629.267-.419.724-.571.571-.19-.038.114-.038.19.038.19a.1.1,0,0,0,.114-.114c0-.114.038-.114.152,0,.305.3,2.172-1.142,5.523-4.228a15.225,15.225,0,0,1,2.057-1.714c.076.038.114,0,.076-.153-.076-.19.267-.571,2.59-2.97.076-.077.19-.114.228-.077.038.077-.076.267-.3.5-.19.228-.114.152.229-.152a42.477,42.477,0,0,0,4.19-4.838,4.147,4.147,0,0,0-.762.876c-.381.495-.875,1.029-1.066,1.257-.305.3-1.143,1.256-1.828,2.057-.076.114-.19.152-.229.114-.076-.077.419-.724,1.523-1.9,2.362-2.59,4.38-5.6,4.494-6.666,0-.3-.533-.952-.685-.762-.038.076-.19.076-.381,0a29.868,29.868,0,0,0-6.932.458c-.458.114-1.067.19-1.333.228a8.357,8.357,0,0,0-1.828.457,6.866,6.866,0,0,1-1.295.457c-2.4.686-8.723,3.733-9.6,4.571a14.355,14.355,0,0,1-2.133,1.41c-2.019,1.257-1.981,1.257-3.657,2.438a40.241,40.241,0,0,0-7.085,6.4A13.154,13.154,0,0,0,2.1,23.169a5.647,5.647,0,0,0-.19,2.628,3.36,3.36,0,0,0,.8,1.486,6.972,6.972,0,0,0,2.743,2.171,13.549,13.549,0,0,0,2.895.99,41.646,41.646,0,0,0,6.551.838c1.3.114,2.971.3,3.771.419A29.987,29.987,0,0,1,23.2,32.767c.228.076.571,0,1.486-.419a14.412,14.412,0,0,1,1.637-.609c.229-.076.534-.19.686-.228.229-.076.229-.076.076.114-.152.114-.152.19-.038.19q.114,0,.228-.228c.038-.152.152-.267.267-.229.114,0,.267-.038.3-.114a28.2,28.2,0,0,1,3.733-1.067c.495.038.228.228-.457.419-.838.152-1.676.458-1.6.572a1.815,1.815,0,0,0,.609-.114c1.867-.61,7.428-1.41,7.656-1.1.114.114.114.114-.876.3a2.252,2.252,0,0,0-.8.228c-.076.038-.381.153-.685.267a8.827,8.827,0,0,0-1.067.381c-.267.114-1.371.495-2.438.876a54.086,54.086,0,0,0-5.561,2.209c-.076.076.114.381.5.838a8.682,8.682,0,0,1,1.409,2.59,4.493,4.493,0,0,1,.076,1.371,3.733,3.733,0,0,1-.571,1.981,10.945,10.945,0,0,1-3.237,3.352,23.685,23.685,0,0,0-2.971,1.943c.114,0,.114.038.076.114a33.084,33.084,0,0,1-4.114,2.133,10.872,10.872,0,0,0-1.333.533,36.72,36.72,0,0,1-5.409,1.523,4.818,4.818,0,0,1-2.743-.076c-.571-.267-.914-.685-1.3-1.79a2.73,2.73,0,0,1-.19-1.828,12.62,12.62,0,0,1,.3-1.562c.19-.533.267-.648.533-.648.19-.038.343-.114.381-.3a3.16,3.16,0,0,1,.419-.762l.343-.5-.457.5c-.3.343-.457.419-.419.266a8.608,8.608,0,0,1,2.095-2.133.256.256,0,0,1-.076.3c-.381.457.114.114,1.066-.685a5.913,5.913,0,0,1,1.181-.914,8.015,8.015,0,0,0,2.057-1.486c.076-.076.152-.152.228-.152.19.038.838-.457,1.791-1.257a3.731,3.731,0,0,1,1.1-.724c.228.076.991-.381,1.6-.876a9.866,9.866,0,0,1,1.256-.914c.572-.343.724-.5.61-.61-.228-.114-4.609-.571-8.723-.914-2.743-.19-3.237-.267-3.5-.457a2.877,2.877,0,0,0-.838-.381,9.047,9.047,0,0,1-4-1.9,10.553,10.553,0,0,1-3.2-5.827,10.719,10.719,0,0,0-.228-1.181M1.3,19.741c0,.076.152-.19.381-.533A15.926,15.926,0,0,1,4.419,15.97l.914-.838-1.1,1.257a22.352,22.352,0,0,0-2.59,3.39c-.457.876-.572,1.181-.153.534.19-.229.609-.876,1.029-1.41A28.815,28.815,0,0,1,6.59,14.447,25.269,25.269,0,0,1,10.361,11.4c.114-.038.724-.457,1.372-.876.647-.457,1.523-1.029,1.942-1.257.42-.267,1.181-.724,1.752-1.066a7.648,7.648,0,0,1,1.105-.61,1.556,1.556,0,0,0,.457-.267,11.838,11.838,0,0,1,1.524-.838c.914-.457,1.371-.724,1.142-.762-.038,0-.5.228-1.029.457s-1.219.495-1.562.609a3.113,3.113,0,0,0-.952.381C12.3,9.457,12.342,9.418,9.98,11.057a41.965,41.965,0,0,0-7.2,6.4A9.928,9.928,0,0,0,1.3,19.741m4.3-2.933-.648.609c-.381.3-.686.533-.686.457a1.344,1.344,0,0,1,.19-.3c.076-.114.038-.076-.152.038-.19.19-.228.267-.114.343.19.153.19.153.838-.533Zm1.371-1.6c0-.114-.228-.038-.3.152-.076.152-.038.19.114.038.114-.076.19-.153.19-.19m15.96,20.645c-.648.381-2.057,1.219-3.086,1.866-1.066.648-1.942,1.219-1.981,1.219a14.294,14.294,0,0,0-1.409.952c-.762.533-1.676,1.181-2.095,1.486a31.989,31.989,0,0,0-5.3,5.028c-.723.99-.8,1.18-.495,1.295.19.077.152.077-.076.19-.3.114-.267.114.228.153A5.009,5.009,0,0,0,9.79,48c1.142-.19,1.333-.19,1.333-.076a5.372,5.372,0,0,1-2.095.609l-.762.114.875.038a7.815,7.815,0,0,0,2.019-.19A34.742,34.742,0,0,0,17.445,46.4c1.3-.571,1.676-.8.8-.5-.305.114-.572.153-.61.076-.038-.038,0-.114.038-.152a21.21,21.21,0,0,0,2.667-1.371,3.526,3.526,0,0,0-.839.343,16.121,16.121,0,0,1-2.78,1.181c-.267,0,.343-.419,1.219-.8a8.752,8.752,0,0,0,1.3-.724,5.2,5.2,0,0,1,.952-.571,6.8,6.8,0,0,0,1.066-.838,11.332,11.332,0,0,1,2.019-1.6A10.39,10.39,0,0,0,26.168,38.1c.571-1.181.419-1.638-.762-2.362-1.066-.609-1.181-.647-2.476.114M9.37,13.189c.038-.038-.152.038-.343.19-.229.152-.381.267-.381.3s.152-.038.343-.19a.855.855,0,0,0,.381-.3m.571,28.453a.58.58,0,0,1,.152-.3c.419-.381,2.666-2.095,2.895-2.209.457-.228.153.076-.99.991-.61.495-1.3,1.066-1.562,1.257-.267.229-.5.343-.5.267M10.627,12.2a.45.45,0,0,0-.228.19c-.076.076-.152.19-.114.19s.153-.114.229-.19c.076-.114.152-.19.114-.19m8.456,24.339c-.609.457-1.9,1.257-2.818,1.828A40.627,40.627,0,0,0,12,41.452c-.381.343.114.153.685-.267a18,18,0,0,1,2.971-1.943c.381-.152.686-.343.648-.419-.076-.153.19-.267.571-.229.267,0,.343-.038.343-.19a.255.255,0,0,1,.152-.267c.114,0,.152,0,.076.114s-.076.152.038.076a.312.312,0,0,0,.152-.228c0-.19.534-.571.724-.533a2.645,2.645,0,0,0,.685-.5,1.8,1.8,0,0,1,.647-.457c.114,0,.19-.038.19-.114s.076-.114.19-.114a.455.455,0,0,0,.3-.19.805.805,0,0,1,.381-.152.806.806,0,0,0,.381-.153,3.167,3.167,0,0,1,.838-.533c.648-.266.915-.533.762-.686a15.352,15.352,0,0,0-3.657,1.867m-5.371,12c-.076-.076-.724.152-.724.228,0,.038.19,0,.381-.038.19-.076.343-.152.343-.19m4.419-1.828a4.943,4.943,0,0,0-1.257.457,12.635,12.635,0,0,1-1.257.533c-.228-.038-.381,0-.343.114.076.153-.19.19-.533.114-.114-.038-.152,0-.114.076.077.038,0,.152-.19.229-.381.19-.229.19.343.038a19.1,19.1,0,0,0,3.352-1.562m-2.286-37.9a.717.717,0,0,1-.3.19c-.038.038,0,.038.076.076a.54.54,0,0,0,.305-.228c.152-.19.152-.19-.077-.038m1.448,36.452c-.419.343-.762.3-.343-.038.152-.114.381-.228.495-.19.114,0,.114.076-.152.229M18.36,7.171c-.381,0-.8.3-.724.572.038.152.076.152.114.076a.257.257,0,0,1,.228-.153.7.7,0,0,0,.381-.229c.228-.228.228-.228,0-.267m.19,39.118a.324.324,0,0,0-.114.19c0,.19.076.152.152-.076.076-.077.038-.153-.038-.114m.19-10.779a4.276,4.276,0,0,1,1.066-.686c.038,0,.038.076,0,.152a3.461,3.461,0,0,1-1.066.534m4.685,7.617c-.038-.038-.3.114-.609.343s-.686.457-.8.571c-.419.228-2.248,1.523-2.4,1.676a7.735,7.735,0,0,0,1.638-.914,12.142,12.142,0,0,0,2.171-1.676M21.1,5.267A12.513,12.513,0,0,1,22.626,4.7c.228-.038.419-.076.457-.153.19-.3-2.856.8-3.238,1.143-.152.153.229,0,1.257-.419m.609.343c-.076.076.038.076.228-.038.19-.077.8-.305,1.3-.534.495-.19.838-.381.762-.419a11.491,11.491,0,0,0-2.285.99m2.476,36.833c-.3.267-.609.457-.609.495,0,.114.495-.228.838-.571s.343-.343-.229.076M23.768,4.315a.1.1,0,0,0,.114-.114c0-.076-.038-.114-.114-.076-.152.114-.152.19,0,.19m.5-.228a.261.261,0,0,0,.191-.114c.038-.076,0-.076-.114-.038-.191.076-.267.153-.077.153m.419.3a.509.509,0,0,0-.3.114c-.114.038-.153.076-.076.114a.763.763,0,0,0,.3-.114c.114-.076.114-.114.076-.114m5.6,27.387a1.022,1.022,0,0,0,.5-.19l.3-.152-.3.038c-.153.076-.381.114-.5.19-.153.076-.153.076,0,.114M38.395,7.971l-.267.267c-.152.19-.609.762-1.028,1.295a37.718,37.718,0,0,1-2.971,3.39c-2.285,2.362-3.427,3.619-3.275,3.5a5.012,5.012,0,0,0,.8-.724c.3-.343,1.028-1.1,1.6-1.676a15.638,15.638,0,0,1,1.409-1.409A54.335,54.335,0,0,0,38.128,8.39Zm-.228,21.6q-.571,0-2.742.228c-1.638.153-1.867.19-1.714.038.381-.3,4.495-.648,4.609-.381.038.076-.038.114-.152.114M36.8,8.124c0,.153.114,0,.648-.686a3.684,3.684,0,0,0,.457-.724,10.7,10.7,0,0,0-1.1,1.41M38.014,6.6c.038,0,.114-.114.228-.267.076-.114.076-.229.038-.229a1.774,1.774,0,0,0-.19.229c-.076.152-.114.267-.076.267" transform="translate(30 187.421)" fill="#fff"/>
    <path id="パス_301" data-name="パス 301" d="M110.521,37.5a4.221,4.221,0,0,0-.229.419l-1.256.038a16,16,0,0,0-2.819.3,36.742,36.742,0,0,0-6.094,1.9c-1.219.495-1.029.457,1.561-.457a30.726,30.726,0,0,1,7.352-1.676l1.256-.114c-.152.381-.343.762-.495,1.142a39.155,39.155,0,0,0-7.58,1.752c-.153.076-.648.228-1.1.419a52.856,52.856,0,0,0-7.923,3.923,2.947,2.947,0,0,0-.419.914l-.229.685.571.114a7.617,7.617,0,0,1,5.18,5.1c1.181,3.162.8,6.171-1.181,9.637a5.193,5.193,0,0,0-.5,1.066,13.136,13.136,0,0,1-2.095,2.971A4.957,4.957,0,0,1,92.657,66.9a3.6,3.6,0,0,1-2.819.458,10.949,10.949,0,0,1-1.409-.686,4.012,4.012,0,0,1-1.943-2.4,8.917,8.917,0,0,1-.419-3.351,60.129,60.129,0,0,1,3.009-12.494c-.038,0-.952.19-2.019.457-1.637.419-2.019.457-2.209.343a1.961,1.961,0,0,0-.5-.228.423.423,0,0,1-.343-.267.885.885,0,0,0-.3-.5l-.3-.19.343-.191c.19-.114.99-.571,1.828-.99.8-.457,2.247-1.257,3.2-1.828,1.638-.952,1.676-.99,1.942-1.676,2.285-5.751,4.571-10.7,6.628-14.74-.228.381-.571.876-1.028,1.523-.762,1.143-1.41,2.171-2.743,4.342-.266.419-.99,1.448-1.6,2.285-.61.8-1.181,1.638-1.676,2.362,0,0-.152.228-.533.762-.19.3-.381.571-.5.762a1.392,1.392,0,0,1-.267.381.14.14,0,0,0-.038-.114c-.495.609-1.143,1.372-1.981,2.324-2.59,2.971-3.771,1.562-3.771,1.562a1.842,1.842,0,0,1-.3-.457.736.736,0,0,0-.3-.419,2.566,2.566,0,0,1-.685-1.9,6.215,6.215,0,0,1,.419-2.248c.038-.076.228-.533.381-.99a52.69,52.69,0,0,1,2.095-4.951l.534-.991-.381.229a3.013,3.013,0,0,0-.8.876c-.343.5-.495.609-.8.686-.305.038-.648.3-1.524,1.181a8.4,8.4,0,0,1-1.3,1.143.174.174,0,0,0-.152.19c0,.228-.419.8-.419.61,0-.076-.114.038-.229.228a14,14,0,0,1-.99,1.333c-.457.5-1.371,1.714-2.095,2.666A15.8,15.8,0,0,1,73.8,45.227c-.99.838-1.219.952-1.714.686a2.437,2.437,0,0,1-.533-.381.577.577,0,0,0-.228-.152c-.152,0-.228-.419-.114-.495.076-.038.076-.114-.038-.19-.648-.533-.686-1.486-.038-2.819a3.219,3.219,0,0,1,.495-.8c.153,0,.153,0-.228.762a3.765,3.765,0,0,0-.419,2.057c.076.114.114.076.114-.038a3.533,3.533,0,0,1,.228-.724,1.186,1.186,0,0,0,.19-.762c-.076-.19,0-.381.457-1.029.5-.724.61-.99.267-.724-.114.114-.19.114-.19.038a.17.17,0,0,1,.114-.152,1.382,1.382,0,0,0,.343-.457,5.133,5.133,0,0,1,.534-.838c.3-.419.838-1.18,1.066-1.561a23.305,23.305,0,0,1,1.714-2.362.32.32,0,0,0,.153-.267,3.161,3.161,0,0,1,.609-.99,5.89,5.89,0,0,0,.648-.876,15.72,15.72,0,0,1,2.133-2.628,5.011,5.011,0,0,1,1.371-1.257,2,2,0,0,0,.724-.458,1.99,1.99,0,0,1,1.9-.533,2.241,2.241,0,0,1,.723.3A1.62,1.62,0,0,0,84.62,29a2.128,2.128,0,0,1,.686.876,3.082,3.082,0,0,0,.5.724,3.5,3.5,0,0,1,.381.381,1.161,1.161,0,0,0,.419.229c.229,0,.5.724.5,1.333a6.012,6.012,0,0,1-.381,1.638c-.228.609-.571,1.562-.762,2.171s-.686,1.866-1.067,2.819a17.077,17.077,0,0,0-.914,2.666,1.9,1.9,0,0,0,.114,1.409c.419.61,2.514-2.095,3.619-3.618-.038,0-.038,0-.076-.038a3.848,3.848,0,0,0,.495-.572c.038-.038.038-.076.076-.114a1.368,1.368,0,0,1,.152-.19c.267-.343.533-.648.648-.8.152-.19.648-.8,1.067-1.371s.838-1.142.914-1.257c.724-.914,1.867-2.475,2.133-2.819.533-.762,1.066-1.447,1.447-1.942a3.025,3.025,0,0,0,.419-.571,2.883,2.883,0,0,1,.457-.647c.267-.3.458-.61.419-.648A1.624,1.624,0,0,1,96.2,28.2l.381-.381-.19.381c-.381.723.076.114,1.257-1.638.686-1.028,2.171-3.123,3.276-4.723.419-.609.8-1.219,1.143-1.714.267-.381.5-.8.724-1.142-.5.686-1.714,2.4-1.9,2.7-.457.724-1.828,2.59-1.981,2.743-.267.228.724-1.257,2.438-3.656l1.371-1.943h-.19a5.386,5.386,0,0,0,.838-.762c.267-.457.495-.8.648-1.028a3.162,3.162,0,0,0,.3-.839.228.228,0,0,0,.152.038,2.767,2.767,0,0,1,.343-.419c.267-.3.609-.762.8-1.028a1.685,1.685,0,0,1,.457-.61c.114-.038.19-.228.228-.381.153-.724,1.714-.876,1.981-.19a.485.485,0,0,0,.419.3c.19,0,.3.076.3.3,0,.191-.076.305-.152.305s-.152.114-.19.228a3.134,3.134,0,0,1-.267.495,40.91,40.91,0,0,0-2.552,4.114c-4.495,8-6.247,11.16-6.818,12.379-.381.723-1.1,2.171-1.676,3.2A22.55,22.55,0,0,0,96.352,37a10.148,10.148,0,0,1-.571,1.41,23.687,23.687,0,0,0-.99,2.324l-.381,1.1.723-.343c.419-.19.724-.267.762-.19a4.99,4.99,0,0,0,1.485-.495,42.81,42.81,0,0,1,7.123-2.552,20.125,20.125,0,0,1,6.018-.762M83.4,30.182a21.452,21.452,0,0,0-1.981,1.562c-.228.267-.419.3-.3.038.038-.114.038-.152-.077-.076a.438.438,0,0,0-.114.267c0,.19-.419.685-1.714,2.133A19.529,19.529,0,0,0,77.5,36.2c-.571.723-1.1,1.447-1.181,1.562a25.253,25.253,0,0,0-2.209,3.77c0,.153.228-.076,1.3-1.333,2.019-2.438,2.476-2.9,2.514-2.476,0,.076.038.038.076-.076a.285.285,0,0,0,0-.343,7.4,7.4,0,0,1,.991-1.295,5.02,5.02,0,0,0,.457-.495c-.3-.229-.419-.381-.19-.381a1.648,1.648,0,0,1,.343.229c.419-.419.571-.5.762-.5.267.038.267.038.152-.114-.152-.19-.038-.3.953-1.295a5.294,5.294,0,0,0,1.523-2.171c.229-.61.419-1.067.419-1.1M74.678,37.61c0,.153.115.114.267-.114.077-.115.114-.229.038-.267s-.114,0-.114.076c0,.114-.038.191-.114.191-.038,0-.077.038-.077.114m5.9-2.285a3.031,3.031,0,0,1-.5.5l.038.038h-.038a14.724,14.724,0,0,0-1.638,1.866c.038,0,.648-.648,1.333-1.41.838-.914,1.333-1.41,1.486-1.41a.174.174,0,0,0,.19-.152c-.038-.076.038-.267.152-.381.114-.153-.343.267-1.029.952m-.724,1.523c-.038-.19-.076-.19-.19-.114-.114.114-.114.152,0,.266.152.19.267.114.19-.152m9.179,16.227c.229-.762.458-1.638.572-1.9a8.117,8.117,0,0,0,.343-1.028c.076-.305.228-.839.343-1.219.152-.5.152-.648.038-.648s-.3.343-.419.724c-.114.419-.419,1.447-.648,2.285-.267.838-.571,2.057-.724,2.666a8.4,8.4,0,0,1-.343,1.219,25.465,25.465,0,0,0-.724,3.237,9.215,9.215,0,0,1-.153.99c-.038.152-.076.267,0,.267a1.428,1.428,0,0,0,.229-.571c.076-.343.266-1.029.381-1.524s.3-1.41.457-1.981c.152-.609.457-1.752.647-2.514M87.4,56.921c.038.152.076.19.114.114a.311.311,0,0,0,0-.267c-.076-.038-.114.038-.114.153m.3-1.257c0,.152.038.152.076.076a.314.314,0,0,0,0-.267c-.038-.038-.076.038-.076.19m.19-.495a4.39,4.39,0,0,0,.381-1.219,10.338,10.338,0,0,0,.229-1.143c-.038-.038-.19.343-.3.876-.114.495-.267,1.067-.3,1.257-.077.153-.077.267,0,.229m.685-2.666c0,.114.076-.076.19-.381a4.14,4.14,0,0,0,.19-.762c0-.114-.114.038-.228.381a1.736,1.736,0,0,0-.152.762m3.542-4.533L91.7,49.379c-.267.8-.5,1.524-.534,1.638-.076.153,0,.153.114-.038l.228-.343-.076.381c-.038.229-.267.99-.495,1.752-1.867,6.209-2.514,10.4-1.9,12.265.229.609.267.686.61.686a4.778,4.778,0,0,0,1.1-.381c1.181-.61,2.818-2.59,4.228-5.028a10.922,10.922,0,0,0,1.333-8.875c-.648-2.209-1.638-3.161-3.466-3.352Zm-2.9,2.628a2.31,2.31,0,0,0,.229-.724c.038-.343.038-.419-.038-.267-.19.419-.343,1.219-.19.99m.952,3.618c-.038-.076-.076.038-.076.153.038.152.038.19.076.076.076-.076.076-.191,0-.229M92.847,41.19c-.038-.038-.153,0-.3.114s-.19.267-.152.3,0,.229-.114.457c-.152.343-.152.343-.114.038.076-.343-.381.495-.572,1.028-.076.267-.076.267.267.076a2.289,2.289,0,0,0,.533-.457,4.183,4.183,0,0,0,.457-1.562m2.514-11.35c-.076.114-.838,1.142-1.714,2.323-1.447,2.019-1.409,2.133.153.3a11.822,11.822,0,0,0,1.485-2.285.531.531,0,0,1,.114-.343c.077-.076.038-.076-.038,0M93.076,40.5c0-.076-.038-.038-.114.076a.457.457,0,0,0-.152.3c0,.076.038.038.152-.076a.5.5,0,0,0,.114-.3m2.209-4a2.188,2.188,0,0,0,.3-.838c0-.076-.152.114-.267.419-.381,1.028-.419,1.1-.038.419m.419,4.99c-.038-.038-.19.038-.3.153-.228.228-.228.228.077.076.152-.114.267-.191.228-.229m.038-6.094a8.184,8.184,0,0,0,.8-1.486c.685-1.371.838-1.828.343-.991A15.044,15.044,0,0,0,95.742,35.4m1.638-3.124c.076-.076.114-.19.076-.229s-.114.038-.19.153c-.038.19-.038.19.114.076m1.6,8.3a6.8,6.8,0,0,0-.914.381c-.419.19-.724.381-.648.381a6.816,6.816,0,0,0,.915-.381c.457-.19.723-.381.647-.381" transform="translate(-8.074 180.903)" fill="#fff"/>
    <path id="パス_302" data-name="パス 302" d="M188.393,8.8c-.609.076-1.562.114-2.133.152-.952.039-1.828.077-2.476.115-.267.533-.571,1.028-.838,1.561a83.834,83.834,0,0,0-4.152,8.342c-.647,1.486-1.561,3.542-1.98,4.342A114.643,114.643,0,0,0,171.6,38.055c-.267.952-.609,2.171-.762,2.743a38.359,38.359,0,0,0-1.562,11.617,3.739,3.739,0,0,0,.533,1.981,5.779,5.779,0,0,0,.8-.457,3.924,3.924,0,0,1,.838-.419c.267.038.685,1.752.495,1.943a.547.547,0,0,0-.191.419c-.038.3-.876.648-1.447.533a2.045,2.045,0,0,1-.838-.3,5.414,5.414,0,0,1-.762-.533,2.083,2.083,0,0,0-.533-.305,4.042,4.042,0,0,1-.762-.876c-1.028-1.523-1.257-3.885-.723-8.494a61.547,61.547,0,0,1,1.981-9.408,124.267,124.267,0,0,1,7.922-20.874c-.648.99-1.219,1.981-1.79,3.009a8.232,8.232,0,0,0-.533.762c-.648,1.029-.914,1.41-2.248,3.39-.762,1.105-1.409,2.133-2.742,4.3-.152.228-.457.647-.8,1.143a.139.139,0,0,1-.038.114c-2.133,3.009-4.723,6.514-6.514,7.846a10.211,10.211,0,0,1-2.818,1.6,1.425,1.425,0,0,0-.3.19c-1.029.648-5.028,1.257-5.713.876-.114-.114-.3-.153-.343-.114-.3.19-2.4-1.638-2.933-2.553-.228-.3-.381-.457-.61-.495-.381-.076-.419-.19-.038-.381.229-.076.267-.152.229-.343a7.312,7.312,0,0,1,.762-4.837,24.468,24.468,0,0,1,3.237-5.142c.153-.19.572-.648.876-1.028.876-1.029,1.638-1.752,1.981-1.791a2.79,2.79,0,0,1,.952.038c.343.076.8.19,1.066.267a4.378,4.378,0,0,1,2.438,1.41c1.066,1.066,1.41,1.751,1.333,2.666a5.813,5.813,0,0,1-1.067,2.7,15.77,15.77,0,0,1-3.047,3.124,26.389,26.389,0,0,1-5.828,3.314c-.381.19-.724.381-.724.457,0,.381,1.143.724,2.21.61a15.628,15.628,0,0,0,6.475-2.209,41.934,41.934,0,0,0,6.78-6.895.132.132,0,0,1,.076-.038c.724-.914,1.676-2.209,1.9-2.552.533-.762,1.066-1.447,1.447-1.943a2.191,2.191,0,0,0,.381-.571,3.924,3.924,0,0,1,.495-.648c.267-.3.457-.61.419-.648a2.5,2.5,0,0,1,.343-.457l.381-.343-.19.343c-.381.724.077.114,1.257-1.638.685-1.028,2.171-3.123,3.275-4.723,1.067-1.6,2.019-2.971,2.057-3.085.076-.114.076-.114-.038.038-.267.343-1.828,2.552-2.057,2.895-.457.724-1.828,2.59-1.981,2.742-.267.229.724-1.256,2.438-3.656l1.371-1.942h-.191a4.205,4.205,0,0,0,.838-.8c.229-.381.419-.8.648-1.181h-.381c0-.076-5.561.457-5.79.571-.076.038-.038.038-6.513.609-5.371.5-8.532.838-11.084,1.143-1.067.114-3.923.228-4.228.19a.945.945,0,0,1-.686-.723.164.164,0,0,0-.152-.153c-.152.038-.152-.609,0-.762a.6.6,0,0,0,.19-.3c.076-.19.076-.19,1.029-.19.876,0,.952,0,1.295-.19a1.42,1.42,0,0,1,1.676.114c.19.152.228.152.762.114.3,0,1.6-.114,2.933-.229,1.3-.076,2.59-.19,2.818-.19.3-.038.458-.038.458.038,0,.038-.115.076-.267.076a2.313,2.313,0,0,0-.571.076,43.157,43.157,0,0,0,6.171-.419c.609-.038,2.552-.228,4.342-.343,1.79-.152,4-.343,4.913-.419.952-.076,1.943-.153,2.248-.19a10.1,10.1,0,0,0,1.066-.076l.457-.038c1.029-1.942,3.352-5.942,3.733-6.513a2.822,2.822,0,0,0,.457-.914A1.045,1.045,0,0,1,185.651,0c.495.038,1.447.61,1.409.8,0,.076.153.152.305.152.609.076.952,1.371.457,1.752a.9.9,0,0,0-.229.343A8.919,8.919,0,0,1,186.184,5.3c-.381.495-.991,1.409-1.676,2.514,2.476-.152,5.333-.381,6.475-.457,1.3-.114,2.781-.152,5.942-.152,4.076,0,4.228,0,4.951.152a4.638,4.638,0,0,1,1.9.762.681.681,0,0,1,.114.419.584.584,0,0,0,.152.381c.191.077.229.381.114.8-.076.229-1.1.952-1.295.876a2.223,2.223,0,0,0-.381.076,10.036,10.036,0,0,1-2.4.343c-.038,0-.381-.038-.724-.038a2.442,2.442,0,0,1-.762-.076.532.532,0,0,0-.343-.114c-.267,0-.267-.114.038-.19a10.715,10.715,0,0,0,2.248-.647,4.4,4.4,0,0,1,1.523-.609c.419-.114.5-.19.343-.229a70.177,70.177,0,0,0-7.161-.534c-.723,0-5.37.153-6.856.229M151.37,34.094c0,.076.115,0,1.448-.914a22.876,22.876,0,0,0,2.323-1.752c.038-.038.419-.381.876-.724a24.357,24.357,0,0,0,3.123-3.238,5.292,5.292,0,0,0,.839-2.59c-.077-.495-.267-.647-.876-.838-.914-.229-1.6.228-3.2,2.209a27.272,27.272,0,0,0-3.39,5.066,13.553,13.553,0,0,0-1.143,2.78M173.2,9.183c0-.038-.076-.038-.114-.038a1.583,1.583,0,0,1-.533.076c-.762.038-3.352.267-4.724.419-.762.076-1.942.19-2.628.229-.685.076-1.3.152-1.3.152a19.252,19.252,0,0,0,2.476-.152c.685-.077,1.9-.153,2.743-.229s1.981-.19,2.552-.228c1.333-.114,1.524-.152,1.524-.229m6.742,2.552c-.152.19-.419.533-.609.724a33.052,33.052,0,0,0-2.475,4.761c-.038.152-.077.267-.153.267s-.114.076-.114.19a11.008,11.008,0,0,1-1.333,2.895,7.292,7.292,0,0,0-.419.99,2.717,2.717,0,0,1-.343.61,83.519,83.519,0,0,0-3.39,8.685,18.589,18.589,0,0,1-1.067,2.78A11.53,11.53,0,0,0,169.2,36c-.724,2.629-.8,2.9-.609,2.934.152,0-.038.495-.229.609a9.786,9.786,0,0,0-.419,1.3c-.228.952-.267,1.295-.152,1.523.152.42.114.458-.076.42-.229-.077-.8,4.8-.685,5.789.038.381.076,1.067.076,1.562-.038,1.638.152.8.571-2.552a36.893,36.893,0,0,1,.8-4.837c.19-.876.457-1.943.571-2.4.077-.457.3-1.219.457-1.752s.457-1.486.648-2.095c.152-.61.458-1.562.61-2.133.19-.571.381-1.257.457-1.486a7.789,7.789,0,0,1,.267-.876c.419-1.066.99-2.742,1.029-2.933,0-.19,1.676-4.533,2.781-7.2.685-1.714,3.314-7.313,4.38-9.294.571-1.1.648-1.333.267-.838M168.32,47.921c-.038-.267-.114,0-.152.99-.077,1.486-.077,2.286.038,2.171a8.389,8.389,0,0,0,.038-1.295,7.791,7.791,0,0,1,.076-1.371.548.548,0,0,0,0-.495m2.743-25.444c-.076.076-.838,1.1-1.714,2.285-1.447,2.057-1.41,2.133.114.3a10.8,10.8,0,0,0,1.523-2.285.532.532,0,0,1,.114-.343c.038-.076.038-.076-.038.038m-2.514,23.235c-.038-.076-.076.038-.114.19,0,.19.038.19.077.076.038-.076.076-.229.038-.267m6.475-22.092c-.572,1.486-.686,1.79-.534,1.9s.114.152-.038.152c-.152-.038-.381.381-.876,1.6-.99,2.514-1.828,4.99-2.438,7.123-.152.571-.533,1.866-.838,2.895s-.685,2.438-.838,3.123-.381,1.752-.533,2.324c-.114.571-.267,1.409-.3,1.866-.19,1.333.152.457.5-1.447.267-1.333.381-1.714.571-1.866.228-.153.228-.19.076-.419s-.152-.3.076-.648a4.01,4.01,0,0,0,.3-.876,24,24,0,0,1,1.029-3.581,1.265,1.265,0,0,0,.114-.648c-.077,0-.077-.152-.038-.343.076-.114.191-.228.267-.152.152.076.381-.648.609-1.943a2,2,0,0,1,.267-.762,5.631,5.631,0,0,0,.5-1.371,18.841,18.841,0,0,1,1.181-3.086,5.548,5.548,0,0,0,.343-.952,1.88,1.88,0,0,1,.19-.685,2.554,2.554,0,0,0,.3-.838c.114-.495.19-.762.3-.685.038.076.076.038.038-.114a2.326,2.326,0,0,1,.571-1.371,1.488,1.488,0,0,0,.266-.914c.077-.419.153-.8.229-.762.076,0,.152-.152.228-.343.076-.228.19-.381.229-.381a4.748,4.748,0,0,0,.61-1.562c.038-.609-1.257,2.057-2.362,4.761m-1.3-14.436c0-.038-.038-.076-.114-.076s-.114.038-.114.076.038.077.114.077.114-.038.114-.077m.533-.076c0-.038-.038-.076-.114-.076a.289.289,0,0,0-.152.076c-.038.038,0,.076.114.076.076,0,.153-.038.153-.076m1.333-.114c-.152,0-.228,0-.228.038,0,.114.076.114.3,0,.114-.038.114-.038-.076-.038m2.78-.153a14.056,14.056,0,0,0-2.475.191h.457c.3-.038.876-.077,1.3-.114a3.741,3.741,0,0,0,.723-.077m13.941-.952a6.59,6.59,0,0,0-1.943,0c-.495.038-1.257.076-1.676.114-.99.038-1.1.076-1.219.152-.038,0,.076.038.267,0,.228-.038.343,0,.3.038s.114.038.343.038c.381,0,.381,0,.076-.038-.267-.038-.267-.038-.114-.076a2.819,2.819,0,0,1,.762.038,2.476,2.476,0,0,0,1.219-.038,10.3,10.3,0,0,1,1.79-.19c.114.038.191,0,.191-.038m2.514-.038a8.222,8.222,0,0,0,1.486-.076c.076-.038-3.238-.038-3.581.038-.228.038-.228.038.153.076a2.581,2.581,0,0,0,.457.038c.076-.038.724-.038,1.486-.076m1.867-.076a1.6,1.6,0,0,0,.533.038c.267,0,.495.038.495.076s.076.076.191.076c.152,0,.152-.038.038-.076s-.114-.076,0-.076c.076-.038-.19-.076-.61-.076a4.345,4.345,0,0,0-.647.038m2.209.152a1.225,1.225,0,0,1,.609.038,1.505,1.505,0,0,0,.572.077,14.459,14.459,0,0,1,2.4.266c.419.114.648.114.267-.038a12.969,12.969,0,0,0-4.076-.495c-.495.076-.343.19.228.152" transform="translate(-50.217 188)" fill="#fff"/>
    <path id="パス_303" data-name="パス 303" d="M240.672,51.121c0,.3-.076.381-.533.457a26.887,26.887,0,0,0-7.618,3.847c-1.3.952-1.333.99-1.486,1.714a58.328,58.328,0,0,1-4.266,10.551,92.027,92.027,0,0,1-5.18,7.961c-1.943,2.59-4.952,5.409-6.666,6.247a4.776,4.776,0,0,1-3.009.381,5.738,5.738,0,0,1-2.057-2.628c-.3-1.028-.343-2.743-.038-3.009.228-.152.228-.19,0-.19-.114,0-.229-.076-.229-.153a20.907,20.907,0,0,1,2.057-4.609c.495-.876,2.742-4.152,2.818-4.152.038,0,.038.152-.038.3-.038.19.114.076.495-.381a54.821,54.821,0,0,1,4.342-4.647c.8-.723,1.791-1.676,2.248-2.133a7.521,7.521,0,0,1,1.371-1.066,16.938,16.938,0,0,0,1.523-1.1,31.036,31.036,0,0,1,3.466-2.438c.5-.343.724-.571.8-.876.038-.19.191-.8.3-1.333a15.56,15.56,0,0,0,.533-4.837,24.8,24.8,0,0,0-.267-3.923c-.457-2.9-.609-3.314-1.257-3.314a1.4,1.4,0,0,1-.648-.19,1.437,1.437,0,0,1,.038.419c.076,1.219-.19,1.981-1.219,3.7A8.148,8.148,0,0,0,225.017,48a20.47,20.47,0,0,1-2.323,4.152c-.228.3-.761,1.1-1.142,1.752a23.914,23.914,0,0,1-1.676,2.323c-.495.609-1.181,1.486-1.562,1.943a17.432,17.432,0,0,1-3.733,3.428,2.215,2.215,0,0,1-2.59-.114,4.17,4.17,0,0,1-1.867-3.085,12.241,12.241,0,0,1,.5-4.57c.3-1.181.571-2.019,1.638-5.1.076-.3.647-1.6,1.219-2.818a19.258,19.258,0,0,0,1.066-2.59,15.8,15.8,0,0,1,1.79-3.809l1.79-2.819c.153-.3.267-.343.838-.343.534,0,.648.038.724.267.038.229.153.267.457.19.343-.076.419-.038.343.152-.038.114-.038.229.038.229.228,0,.381.609.19.914-.076.153-.3.648-.5,1.143a14.942,14.942,0,0,1-1.029,2.171c-.419.762-1.1,2.057-1.523,2.933-.419.838-.952,1.9-1.181,2.323a74.852,74.852,0,0,0-2.818,7.884,24.561,24.561,0,0,0-.839,4.266c.191.153,1.41-.914,2.9-2.514a32.106,32.106,0,0,0,2.666-3.047,7.45,7.45,0,0,1,.648-.762,48.985,48.985,0,0,0,3.39-4.647,3.356,3.356,0,0,0,.685-1.41c-.076-.19-.076-.228.038-.076.076.153.228,0,.534-.495a6.887,6.887,0,0,0,.952-1.9,24.341,24.341,0,0,1,1.9-3.237c-.114-.267-.038-.343.267-.8.267-.343.533-.571.8-.571a1.209,1.209,0,0,0,.533-.19c.153-.114.229-.076.3.19.076.228.228.381.343.381a2.789,2.789,0,0,1,.761.839,13.446,13.446,0,0,1,1.752,4.951,31.114,31.114,0,0,1,.381,6.018c-.038.685-.038,1.1.038,1.066.076,0,.8-.419,1.6-.838,1.523-.838,2.133-1.029,1.523-.533-.343.267-.3.267.381,0,.838-.343,1.333-.648.8-.5a4.068,4.068,0,0,0-.5.152c-.076.038-.152,0-.152-.076a2.94,2.94,0,0,1,1.105-.495,4.182,4.182,0,0,1,2.361-.343c1.181.076,1.6.267,1.485.609-.038.152,0,.228.153.228.114,0,.19.114.19.305M213.4,50.74a6.193,6.193,0,0,0,.343-.952c0-.267-.267-.152-.533.19-.19.228-.305.267-.381.114s-.19.038-.419.609a8.908,8.908,0,0,0-.724,2.7.2.2,0,0,1-.114.267,12.626,12.626,0,0,0-.686,4.114c.077,1.828.381,1.79.571-.038A25.5,25.5,0,0,1,213.4,50.74M213.819,79a23.146,23.146,0,0,0,1.943-1.562,37.576,37.576,0,0,0,4.076-4.723c1.256-1.828,1.638-2.248,1.866-2.324a7.878,7.878,0,0,0,1.219-1.714,60.8,60.8,0,0,0,2.971-5.637,7.631,7.631,0,0,0-1.067,1.828c-.038.152-.114.228-.152.228a6.4,6.4,0,0,1,1.067-2.323,7.244,7.244,0,0,0,.762-1.524c.952-2.285.952-2.247-.381-1.219a59.363,59.363,0,0,0-9.675,9.637c-2.362,3.161-4.533,7.275-4.723,8.8a6.049,6.049,0,0,0-.038,1.1c.153.343,1.1.076,2.133-.571m14.132-17.94c0-.152-.267.3-.61,1.029a15.781,15.781,0,0,1-1.219,2.133,7.342,7.342,0,0,0-.915,1.447,1.453,1.453,0,0,1-.343.572c-.076,0-.114.114-.114.228a.174.174,0,0,1-.152.19c-.076,0-.114.076-.076.114a3.7,3.7,0,0,1-.724,1.447c-.076,0-.114.114-.114.229s-.077.19-.114.152c-.077-.038-.115.038-.115.152.038.152-.038.228-.114.228-.114,0-.152.077-.114.19a1.613,1.613,0,0,1-.343.876c-.229.343-.343.609-.267.609s.114.076.114.229c0,.267-.343.762-.571.762-.076,0,0-.19.19-.343.152-.19.228-.381.152-.457-.076-.038-.228.114-.381.381q-.342.628-.457.228c-.038-.114-.152-.038-.229.19-.191.3-.153.3.038.152.267-.267.3,0,0,.572-.153.343-.229.381-.419.228-.153-.152-.19-.152-.3.038a38.164,38.164,0,0,1-6.361,7.047,5.892,5.892,0,0,1-1.6.838c-.876.267-.876.267-.685.534.343.419,1.219.267,2.4-.381a12.178,12.178,0,0,0,2.057-1.486,5.254,5.254,0,0,1,1.105-.838c.114.076.191.038.228-.038.038-.114,0-.152-.076-.152s.267-.495.838-1.1c.533-.609,1.448-1.676,1.981-2.362a4.482,4.482,0,0,1,1.066-1.257c.076.038.114,0,.076-.076a13.412,13.412,0,0,1,1.333-2.4,30.287,30.287,0,0,0,1.562-2.7,4.685,4.685,0,0,1,.533-.952,2.88,2.88,0,0,0,.343-.571c0-.038.153-.3.305-.609a36.928,36.928,0,0,0,2.095-5.066M213.134,49.6a.957.957,0,0,0,.19-.419c0-.19-.229-.114-.3.114-.153.419-.077.571.114.3m.3-.991c.076.267.114.267.152,0,0-.114.077-.228.153-.228.038,0,.152.076.152.152a11.748,11.748,0,0,0,1.143-2.78c.038-.076-.114.038-.381.267a6.019,6.019,0,0,0-1.219,2.59m3.885,18.207a.407.407,0,0,0,.228-.228c.114-.114.152-.191.114-.191a.447.447,0,0,0-.229.191l-.114.228m.876-.914.609-.648c.343-.343.61-.647.61-.647,0-.229-.305.038-.724.609Zm.723,11.312a4.217,4.217,0,0,0-.571.647,3.616,3.616,0,0,0,.914-.875c.115-.19-.038-.077-.343.228m5.942-18.283a61,61,0,0,0-5.561,4.914c-.952.952-1.028,1.18-.152.419.229-.19.724-.648,1.1-1.029.419-.419.761-.647.914-.609a.366.366,0,0,0,.381-.114c.152-.19.152-.229,0-.229-.191,0,.3-.609.838-1.029.419-.3.648-.228.343.153-.153.229-.153.229.076,0a.909.909,0,0,1,.495-.267c.267,0,.3-.153.076-.381-.191-.228,0-.495,1.371-1.486,2.857-2.133,3.5-2.59,3.543-2.78.076-.19-.267.038-3.428,2.438m1.6-15.274a24.446,24.446,0,0,0-1.714,2.819,29.325,29.325,0,0,1-1.866,3.009c-1.9,2.895-1.943,3.085-.038.571A21.258,21.258,0,0,0,224.217,48c.229-.457.876-1.676,1.409-2.666a8.251,8.251,0,0,0,.839-1.676m-4.228,18.283c.038-.038.114-.114.114-.152s-.076-.076-.114-.076a.164.164,0,0,0-.152.152c0,.076.076.114.152.076m1.257,8.8c-.153.19-.19.343-.114.267.114-.038.229-.228.305-.381.19-.381.076-.343-.191.114m.267-10.018c-.076-.076-.153-.152-.229-.152s-.077.076-.038.152a.254.254,0,0,0,.191.153c.076,0,.114-.077.076-.153m.114-.267c.114.191.229.153.572-.152.3-.228.3-.228.038-.228-.19-.038-.267.038-.267.19,0,.114-.076.152-.228.114-.114-.038-.152,0-.114.076m1.714-1.142a.322.322,0,0,0,.267-.153c.038-.038-.038-.076-.191-.038-.3.076-.343.19-.076.19m1.371-18.054a1.646,1.646,0,0,1-.228-.267,6.311,6.311,0,0,0-.99,2.133c.038,0,.343-.534.762-1.143a6,6,0,0,1,.457-.724m-.228,17.179.3-.457-.419.3c-.228.19-.419.381-.419.457,0,.267.228.114.533-.3" transform="translate(-82.918 168.42)" fill="#fff"/>
  </g>
</svg>
