<svg xmlns="http://www.w3.org/2000/svg" width="149.97" height="65.652" viewBox="0 0 149.97 65.652">
  <path id="パス_310" data-name="パス 310" d="M36.483,15.013c-.2,3.545-.591,5.632-2.127,11.264a50.38,50.38,0,0,1-7.09,14.454c-.118.2-.433.63-.709,1.024a46.49,46.49,0,0,1-4.293,4.805l.118.59c0,.04.276,1.024.394,1.5.04.118.709,2.757.709,2.757.945,2.836,1.615,4.214,2.481,5.159.709.748.709.748.985.473s.827-.354.827-.118c0,.079.157.158.354.2.867.2,1.261,1.182.63,1.536a4.851,4.851,0,0,1-1.457.2,3.33,3.33,0,0,1-2.206-.394c-.945-.433-1.063-.67-2.127-1.733-1.851-1.811-3.072-4.844-3.86-7.483a3.22,3.22,0,0,0-.315.237,17.776,17.776,0,0,1-2.993,1.93.342.342,0,0,0-.276.2A7.743,7.743,0,0,1,12.5,52.625a5.244,5.244,0,0,1-1.536-.118,5.172,5.172,0,0,1-2.009-1.1C7.653,50.42,7.3,50.026,7.1,49.2a5.2,5.2,0,0,0-.512-1.064,4.788,4.788,0,0,1-.551-2.009,26.178,26.178,0,0,1,.945-9.019l.473-2.048-1.3.157a3.777,3.777,0,0,1-2.088-.157,5.722,5.722,0,0,1-3.032-2.4l-.709-1.1L.17,29.979a7.282,7.282,0,0,1,.236-3.19,37.607,37.607,0,0,1,3.033-7.523c.236-.393.67-1.181.945-1.694a48.085,48.085,0,0,1,7.129-9.295,43.508,43.508,0,0,1,4.884-3.9,21.557,21.557,0,0,0,2.8-1.654,3.23,3.23,0,0,1,1.221-.394c.551-.079,1.772-.355,2.678-.551a15.043,15.043,0,0,1,5.435-.355,10.289,10.289,0,0,1,5.356,3.427C35.971,7.254,36.8,10.483,36.483,15.013ZM2.77,23.52a1.355,1.355,0,0,0,.276-.591,35.527,35.527,0,0,1,2.56-4.962,44.678,44.678,0,0,1,8.744-10.4c1.024-.827,2.048-1.615,2.284-1.733.512-.276.67-.473.276-.433a29.26,29.26,0,0,0-5.159,4.175A50.889,50.889,0,0,0,7.1,14.894c-.354.512-.867,1.261-1.1,1.654-.276.394-1.024,1.654-1.694,2.757-.63,1.142-1.221,2.088-1.261,2.127s-.118.118-.079.2c0,.079-.354,1.024-.788,2.088A28.517,28.517,0,0,0,.564,28.876,6.286,6.286,0,0,0,.8,30.845c.157.315.157.157.04-.433a1.966,1.966,0,0,1,.039-.748c.118-.118.158-.118.2,0,.04.276.2-.276.2-.551-.04-.118-.079-.079-.118.079-.079.276-.118.276-.118-.04a7.312,7.312,0,0,1,.709-2.757c.118-.118.2-.276.157-.315-.157-.118.237-1.261.512-1.536.118-.118.2-.315.157-.394-.079-.039-.039-.118.04-.118.118,0,.118-.079.079-.2A.247.247,0,0,1,2.77,23.52ZM1.549,27.813c0-.079-.079.079-.157.276a1.433,1.433,0,0,0-.118.631c0,.118.079,0,.157-.276A3.148,3.148,0,0,0,1.549,27.813Zm.473-1.221c0-.039-.04-.079-.118-.079-.118,0-.354.827-.354,1.064C1.588,27.695,2.021,26.789,2.021,26.592ZM23.88,40.18c.118,0,.158-.118.158-.2a1.4,1.4,0,0,1,.315-.67c.2-.276.434-.63.551-.788.434-.748,1.261-1.969,1.339-2.048.079,0,.118-.118.118-.236-.04-.079.079-.2.157-.2.157,0,.237-.118.237-.276-.04-.118.079-.355.2-.552a11.323,11.323,0,0,0,1.063-1.93,6.482,6.482,0,0,1,.434-.788,67.439,67.439,0,0,0,3.584-9.177c1.615-5.789,1.851-7.207,1.93-11.343a13.324,13.324,0,0,0-.709-4.687,1.485,1.485,0,0,1-.157-.63,5.945,5.945,0,0,0-1.378-2.324,6.488,6.488,0,0,0-4.648-1.5c-1.536.118-6.5,1.733-5.789,1.891.236.04-.63.709-2.442,1.851A38.1,38.1,0,0,0,7.772,17.809c-1.536,2.284-3.584,6.3-3.348,6.577a1.643,1.643,0,0,1-.2.787A16.512,16.512,0,0,0,2.77,31.318c.079,1.339.079,1.339.709,1.457a8.8,8.8,0,0,0,3.938-.827l1.063-.393.591-1.379c2.284-5.553,5-10.949,6.616-13.115.591-.827.67-.945.67-1.064a23.1,23.1,0,0,1,2.875-3.308c.118-.039.2-.079.2-.157-.04-.2,1.457-.591,2.008-.551.591.04,1.261.473.945.63-.118.079-.039.118.276.2.67.157.906.434.63.788a.933.933,0,0,0-.2.473c0,.236-.551.827-1.379,1.5a11.392,11.392,0,0,0-1.3,1.378c-.394.512-.827.906-.984.906-.118.04-.2.118-.158.237a12.974,12.974,0,0,1-1.063,2.009c-.63.984-1.812,2.993-2.56,4.411-.788,1.457-1.5,2.718-1.615,2.835a.789.789,0,0,0-.118.315c.04.04-.039.315-.157.551-.157.276-.276.512-.236.551a43.909,43.909,0,0,0,6.183-3.584c.787-.551,1.221-.748,1.3-.669.118.079,0,.236-.315.473q-.827.59-.118.354c.2-.079.355-.079.355-.04A4.449,4.449,0,0,1,19.9,26.513a4.886,4.886,0,0,0-.788.551,17.183,17.183,0,0,1-1.654,1.1,4.047,4.047,0,0,0-.945.669,6.733,6.733,0,0,0,1.063-.551A19.378,19.378,0,0,0,20.1,26.552c.354-.315.669-.512.709-.473.354.236-.867,1.5-2.8,2.836-2.718,1.89-5.12,3.5-5.593,3.741s-.59.394-.945,1.339a45.081,45.081,0,0,0-2.442,12.17,9.073,9.073,0,0,1-.039,1.221,5.477,5.477,0,0,0,.394,2.284A2.328,2.328,0,0,0,11,50.1a4.539,4.539,0,0,0,1.024-.315,18.516,18.516,0,0,0,3.348-1.772,5.767,5.767,0,0,1,.984-.551.477.477,0,0,0,.355-.276,7.818,7.818,0,0,1,.906-.788c.157-.118.394-.315.67-.512a19.066,19.066,0,0,1-.354-2.088c-.158-.867-.237-1.024-.512-1.181-.354-.118-.354-.2-.276-.748a5.962,5.962,0,0,0-.079-2.521,1.992,1.992,0,0,1,.984-2.6,1.542,1.542,0,0,1,2.048.2c.551.551.748,1.142.984,3.033.079.709.237,1.733.433,2.8.158-.2.355-.394.552-.63A18.423,18.423,0,0,1,23.88,40.18ZM4.227,21.9c-.237.079-.355.315-.276.434.118.157.2.118.315-.2C4.385,21.9,4.345,21.866,4.227,21.9Zm.315-.512c-.118.2-.118.315-.039.276a1.7,1.7,0,0,0,.276-.394C4.936,20.881,4.778,20.96,4.542,21.393ZM6.787,42.936c-.039-.039-.079.04-.039.158,0,.157.039.2.079.079A.243.243,0,0,0,6.787,42.936Zm.079-.63c-.039-.079-.039,0-.039.2s.039.236.079.157A.381.381,0,0,0,6.865,42.306Zm.079-.591c-.04-.039-.079.04-.04.2,0,.158.04.158.079.04A.243.243,0,0,0,6.945,41.715Zm1.536-7.05a41.836,41.836,0,0,0-1.5,6.774c.04.237.315-.748.315-1.063A20.7,20.7,0,0,1,8.2,36.438a2.524,2.524,0,0,0,.2-.787,1.353,1.353,0,0,1,.157-.63C8.756,34.665,8.717,34.508,8.48,34.665ZM7.5,41.479a2,2,0,0,0-.158.787,1.134,1.134,0,0,1-.118.631c-.118.276-.079,1.457.039,1.418a7.161,7.161,0,0,0,.2-1.3C7.693,40.849,7.693,40.967,7.5,41.479Zm.118-1.694c-.079.394-.039.827.04.709.079-.039.118-.315.157-.551C7.89,39.392,7.693,39.274,7.614,39.786Zm.827-2.8c-.079,0-.237.433-.355.945-.118.473-.236,1.024-.276,1.181-.079.2-.039.236.04.118a3.652,3.652,0,0,0,.354-.945,7.5,7.5,0,0,1,.276-1.064C8.52,37.068,8.48,36.99,8.441,36.99ZM9.111,14.3a4.5,4.5,0,0,0-.591.748,2.924,2.924,0,0,0-.434.709,4.182,4.182,0,0,0,.552-.709A3.013,3.013,0,0,0,9.111,14.3Zm4.253,8.94c.158-.315.276-.551.2-.63-.079-.04-.118.039-1.1,1.969-.67,1.3-2.718,5.986-2.718,6.183.039.236.2,0,.473-.63.157-.434.315-.67.433-.63s.118,0,.04-.079a1.821,1.821,0,0,1,.433-1.26c.04,0,.079.079.04.2s0,.2.079.118a.887.887,0,0,0,.039-.512c-.079-.355-.039-.394.2-.394.2,0,.237-.04.158-.237a3.905,3.905,0,0,1,.945-2.166c.118.04.157-.039.079-.079C12.537,24.938,12.891,24.071,13.364,23.244ZM10.41,12.65a4.8,4.8,0,0,0-.512.63,2.479,2.479,0,0,0,.512-.512,4.763,4.763,0,0,0,.512-.63A2.5,2.5,0,0,0,10.41,12.65Zm.039,17.763c.079-.118.118-.2.079-.237s-.118.04-.157.158C10.292,30.53,10.332,30.57,10.45,30.412Zm.04,1.024a1.122,1.122,0,0,0,.394-.237c.2-.236.2-.236-.118-.039C10.371,31.4,10.292,31.475,10.489,31.436Zm.984-.591a.322.322,0,0,0-.276.04c-.039.039.079.079.2.039C11.553,30.924,11.592,30.885,11.474,30.845ZM13.167,9.814c-.039-.04-.2.04-.315.2-.2.236-.2.236.118.079C13.128,9.971,13.207,9.853,13.167,9.814Zm.591,12.6c.079,0,.2-.2.315-.434.2-.473-.04-.512-.315-.079C13.561,22.3,13.561,22.456,13.758,22.417Zm7.72-19.85c.157-.079-.04-.079-.551,0a4.675,4.675,0,0,0-.867.237A4.894,4.894,0,0,0,21.478,2.567Zm.67,49.625a10.892,10.892,0,0,0,1.181,2.363s-.276-.631-.591-1.379C22.383,52.468,22.108,52,22.147,52.192ZM22.9,41.873c.079,0,.236-.158.354-.355.276-.473.2-.433-.2,0C22.9,41.715,22.817,41.873,22.9,41.873ZM35.971,11.94c-.079-.945-.157-1.26-.236-1.024-.157.512-.315.394-.354-.236-.04-.709-.04-.394-.2,2.205-.079,1.182-.2,2.284-.237,2.481-.039.276,0,.354.118.276.2-.157.2.748-.039,1.891-.2,1.1-.394.867-.2-.237.315-1.772.118-1.418-.237.512-.787,4.057-2.245,8.98-2.363,7.917a7.257,7.257,0,0,1,.394-1.221c.2-.591.434-1.418.512-1.812s.276-1.182.433-1.694a5.445,5.445,0,0,0,.2-1.221c0-.157-.079,0-.157.354a15.472,15.472,0,0,1-.867,2.836.771.771,0,0,0-.079.473c.079.079,0,.276-.158.433a5.5,5.5,0,0,0-.669,2.56c.276.2-.118,1.851-.827,3.741a9.549,9.549,0,0,0-.59,1.772,80.772,80.772,0,0,0,2.954-8.31c.354-1.339.434-1.5.591-1.379a15.588,15.588,0,0,1-.788,2.875,1.043,1.043,0,0,0-.118.394,1.613,1.613,0,0,1-.2.709c-.118.315-.591,1.654-1.1,2.954-1.1,2.993-1.811,4.411-2.087,4.332-.118-.04-.2,0-.2.079a50.308,50.308,0,0,1-3.033,5.238,34.612,34.612,0,0,1-2.521,3.308,8.567,8.567,0,0,0-.945,1.536c0,.04.2-.157.394-.393.2-.276.394-.434.473-.394s0,.236-.118.394c-.157.2-.2.276-.079.2a5.221,5.221,0,0,0,1.5-1.417c.157-.315.394-.591.512-.591.315-.04,2.284-2.836,3.308-4.687.354-.591.67-1.142.709-1.182.079-.079,1.181-2.284,1.851-3.741.2-.473.433-.787.473-.748.157.079.551-.867.512-1.221a14.314,14.314,0,0,1,.867-3.072c.118-.157.157-.118.276.039.079.2.118.118.158-.276.039-.906.236-1.575.354-1.575.079,0,.118-.157.118-.315a.848.848,0,0,1,.079-.472c.2-.2.315-.591.709-2.245.118-.59.315-1.3.394-1.654a2.847,2.847,0,0,0,.118-.906.588.588,0,0,1,.118-.394c.079-.04.079-.315.04-.63a5.148,5.148,0,0,1,.04-1.1A24.31,24.31,0,0,0,35.971,11.94ZM24.746,39.549c-.827,1.064-1.064,1.536-.276.591a5.4,5.4,0,0,0,.748-1.064C25.3,38.88,25.1,39.116,24.746,39.549Zm3.7-5.829a5.5,5.5,0,0,0-.512.827c-.236.433-.63,1.063-.827,1.378-.394.551-.591,1.064-.473,1.024a13.5,13.5,0,0,0,.906-1.418C28.488,33.8,28.567,33.72,28.449,33.72Zm-.473,3.427c-.079.2-.2.394-.315.433-.157.079-.157.04-.079-.157a3,3,0,0,1,.315-.433C28.094,36.793,28.094,36.832,27.976,37.147Zm1.575-5.592c0-.079-.04-.04-.118.079a.748.748,0,0,0-.118.354c0,.039.079,0,.118-.118A.629.629,0,0,0,29.551,31.554Zm.63-1.221a4.139,4.139,0,0,0,.276-.906,3.831,3.831,0,0,0-.433.867,3.13,3.13,0,0,0-.276.906A3.834,3.834,0,0,0,30.182,30.334Zm-.039,2.008c-.04,0-.118.157-.2.276-.04.2-.079.315-.04.315a1.474,1.474,0,0,0,.2-.315C30.142,32.46,30.182,32.342,30.142,32.342Zm3.5-13.155c-.118,0-.2.04-.2.118s.118.118.237.079c.118,0,.2-.039.2-.118S33.766,19.148,33.647,19.187Zm.315-1.221c-.157-.118-.237.118-.079.394l.118.315.04-.315C34.041,18.163,34.041,18.006,33.963,17.966Zm.276-.984a.126.126,0,0,0,.118-.118,2.765,2.765,0,0,1,0-.591c.039-.394.039-.433-.118-.157C34.081,16.431,34.081,16.982,34.238,16.982Zm.118-1.891c.157,0,.236-.118.2-.315,0-.2-.04-.236-.079-.118a.759.759,0,0,1-.2.355C34.16,15.091,34.2,15.091,34.357,15.091Zm.079.157c-.157-.118-.237.079-.118.315s.118.236.157,0A.39.39,0,0,0,34.435,15.249ZM58.5,28.679a4.01,4.01,0,0,1-.512,2.6A30.385,30.385,0,0,1,55.9,34.272a13.3,13.3,0,0,0-.827,1.1c-.2.236-.827.945-1.457,1.575-.591.63-1.221,1.3-1.418,1.536a8.06,8.06,0,0,1-2.127,1.457,1.653,1.653,0,0,0-.473.276,4.14,4.14,0,0,1-1.694.315,2.875,2.875,0,0,1-.867-.237c-.236-.118-.512-.236-.512-.315a.45.45,0,0,0-.237-.118c-.354,0-1.142-1.1-1.378-1.93a8.844,8.844,0,0,1,.157-4.49,5.907,5.907,0,0,0,.237-.906c-.079-.04-2.875,3.7-3.938,5.278a3.85,3.85,0,0,1-1.654,1.575,1.789,1.789,0,0,1-.984.315,2.167,2.167,0,0,1-1.339-.434.6.6,0,0,0-.315-.157.47.47,0,0,1-.315-.2,2.909,2.909,0,0,1-.709-2.678,30.115,30.115,0,0,1,2.915-8.586c1.182-2.4,1.378-2.757,1.812-2.993.276-.157.748-.118.748.039,0,.079.118.158.236.158a1.009,1.009,0,0,1,.552.315c.354.315.354.315.315.906a4.18,4.18,0,0,1-.551,1.575c-.236.551-.433,1.024-.433,1.024,0,.04-.355.827-.748,1.694-.434.906-1.1,2.481-1.5,3.545A18.338,18.338,0,0,0,38.3,37.9l-.079.354.237-.276a6.4,6.4,0,0,1,.709-.63A14.678,14.678,0,0,0,41.013,35.3c.276-.355,2.481-2.915,2.8-3.308a2.245,2.245,0,0,0,.433-.551c.157-.158.709-.827,1.221-1.418a11.933,11.933,0,0,0,2.088-2.836c1.536-2.993,2.048-3.741,2.6-3.741.157,0,.315.039.354.118,0,.079.158.157.276.2.237.039.315.118.434.512a1.137,1.137,0,0,1-.04,1.064,2.965,2.965,0,0,1-.512,1.063,29.989,29.989,0,0,0-3.033,6.617c-.827,2.481-1.1,4.135-.906,5.356.039.473.079.512.393.591.237.079.315.039.394-.04a1.4,1.4,0,0,1,.591-.236,7.785,7.785,0,0,0,2.56-1.418,56.624,56.624,0,0,0,5.2-5.317,21.234,21.234,0,0,0,1.812-2.442,10.98,10.98,0,0,1,.709-1.024C58.421,28.443,58.46,28.561,58.5,28.679Zm20.756,2.245a1.4,1.4,0,0,0-.433.67.414.414,0,0,1-.158.354.126.126,0,0,0-.118.118,9.964,9.964,0,0,1-1.1,1.339A12.53,12.53,0,0,0,76.3,34.745a9.269,9.269,0,0,1-2.009,1.93c-.04-.04-.118.04-.118.118,0,.473-2.757,2.481-4.411,3.19-1.615.709-2.718.787-3.781.315-.472-.2-1.1-.748-1.142-1.063a1.146,1.146,0,0,0-.315-.434,2.589,2.589,0,0,1-.709-1.969,6.366,6.366,0,0,1,.433-2.284c.04-.118.236-.591.394-1.064A53,53,0,0,1,66.81,28.4l.551-1.064-.394.276a4.526,4.526,0,0,0-.867.867c-.315.512-.473.67-.787.709-.315.079-.67.354-1.576,1.26A7.448,7.448,0,0,1,62.4,31.594a.18.18,0,0,0-.158.2c0,.236-.433.867-.433.63,0-.039-.118.079-.237.276s-.59.788-1.024,1.339c-.473.551-1.418,1.772-2.166,2.757a15.3,15.3,0,0,1-2.954,3.348c-1.024.906-1.3.985-1.772.709a2.673,2.673,0,0,1-.551-.355.466.466,0,0,0-.237-.2c-.157,0-.236-.433-.118-.512.079-.04.079-.118-.039-.2-.67-.512-.709-1.536-.04-2.915.237-.433.434-.827.512-.827.157,0,.157,0-.237.827a3.724,3.724,0,0,0-.433,2.088c.079.118.118.118.118-.04a3.669,3.669,0,0,1,.236-.748,1.144,1.144,0,0,0,.2-.787c-.079-.2,0-.394.473-1.024.512-.748.63-1.063.276-.748-.118.079-.2.079-.2,0a.1.1,0,0,1,.118-.118,2.2,2.2,0,0,0,.354-.473,4.565,4.565,0,0,1,.512-.867,17.712,17.712,0,0,0,1.142-1.615A24,24,0,0,1,57.515,29.9a.486.486,0,0,0,.157-.315,4.54,4.54,0,0,1,.63-1.024,4.439,4.439,0,0,0,.67-.906,18.24,18.24,0,0,1,2.206-2.718,7.263,7.263,0,0,1,1.418-1.3,1.892,1.892,0,0,0,.748-.434,1.89,1.89,0,0,1,1.969-.551,1.684,1.684,0,0,1,.748.315,2.509,2.509,0,0,0,.551.394,2.69,2.69,0,0,1,.709.945,2.886,2.886,0,0,0,.512.748,2.856,2.856,0,0,1,.394.354.942.942,0,0,0,.433.276c.236,0,.512.748.512,1.339a6.775,6.775,0,0,1-.394,1.733c-.237.591-.591,1.615-.788,2.206-.2.63-.709,1.93-1.1,2.954a12.441,12.441,0,0,0-1.182,4.254c0,.63,0,.709.276.748a3.145,3.145,0,0,0,1.97-.394,22,22,0,0,0,5.632-3.781c.59-.552.984-.788,1.063-.709.04.079.512-.315,1.221-.984.788-.788,1.142-1.064,1.182-.945.079.118-.04.315-.158.433a.84.84,0,0,0-.236.354,6.408,6.408,0,0,0,.748-.63,2.965,2.965,0,0,1,.906-.748c.118-.04.276-.118.315-.237a1.468,1.468,0,0,1,.748-.787C79.649,30.491,79.61,30.609,79.255,30.924Zm-13.9-6.341A15.023,15.023,0,0,0,63.3,26.237c-.236.276-.433.276-.315.04.04-.118.04-.158-.079-.118-.079.04-.118.2-.118.276,0,.237-.433.748-1.772,2.206a23.989,23.989,0,0,0-1.772,2.166c-.59.788-1.142,1.5-1.221,1.615a28.258,28.258,0,0,0-2.284,3.9c0,.2.236-.04,1.339-1.339,2.088-2.521,2.56-3.033,2.6-2.56,0,.079.039.04.079-.079a.294.294,0,0,0,0-.354,4.98,4.98,0,0,1,1.024-1.339c.984-1.064,1.142-1.221,1.418-1.181s.276,0,.157-.158c-.157-.157-.04-.315.945-1.3a5.753,5.753,0,0,0,1.615-2.245C65.156,25.135,65.353,24.622,65.353,24.583Zm-9.019,7.68c0,.2.118.118.276-.118.079-.118.118-.236.04-.276s-.118,0-.118.118c0,.079-.039.157-.118.157C56.373,32.145,56.333,32.224,56.333,32.263Zm6.1-2.324a26.887,26.887,0,0,0-2.205,2.442c.039,0,.63-.67,1.378-1.457.867-.945,1.378-1.457,1.536-1.457.118,0,.2-.04.157-.118a.984.984,0,0,1,.2-.433A9.046,9.046,0,0,0,62.438,29.94Zm-.748,1.536c-.039-.157-.079-.2-.2-.079-.118.079-.118.118,0,.276C61.651,31.869,61.768,31.751,61.69,31.475ZM96.7,33.405c-.434.473-.631.2-.237-.434l.276-.473-.354.315a10.634,10.634,0,0,0-1.1,1.536,96.474,96.474,0,0,1-6.577,8.192,3.815,3.815,0,0,0-.867.945,1.071,1.071,0,0,1-.237.473c-.079.118-.118.237-.079.237a12.149,12.149,0,0,0,1.694-1.418c.985-1.024,2.245-2.521,2.875-3.308a34.073,34.073,0,0,1,3.7-4.608,7.839,7.839,0,0,1-.748,1.3c-.433.591-.984,1.418-1.26,1.891a63.026,63.026,0,0,1-4.411,5.553c-.906.945-2.8,2.718-3.663,3.466A16.164,16.164,0,0,1,82.131,49.4c-.2.079-.551.2-.788.315a5.07,5.07,0,0,1-1.5.237A2.771,2.771,0,0,1,78,49.632a6.021,6.021,0,0,1-3.269-3.269,12.858,12.858,0,0,0-.512-1.221,9.654,9.654,0,0,1-.276-5.12A59.238,59.238,0,0,1,77.6,28.285c.2-.473.394-.906.394-.945a69.153,69.153,0,0,1,4.214-8.113c.433-.709.867-1.536,1.024-1.812.473-.906,9.1-14.257,15.124-17.25a2.047,2.047,0,0,1,2.4.63c.748,1.142.788,1.3.709,1.969a11.475,11.475,0,0,1-1.261,3.387c-1.26,2.718-5.081,9.767-6.262,11.618-.079.079-.551.906-1.1,1.772s-1.339,2.166-1.812,2.836l-1.575,2.363a107.449,107.449,0,0,1-8.625,11.028c-1.024,1.063-2.6,1.89-3.348,1.772-.354-.079-.354-.079-.67.945-.157.551-.433,1.811-.63,2.757-.473,2.875-.315,4.569.591,5.869a1.163,1.163,0,0,0,.906.63c.354.04.788.079,1.024.079a11.39,11.39,0,0,0,4.451-2.048,43.74,43.74,0,0,0,6.183-6.065,11,11,0,0,1,1.851-1.969c.237-.04.709-.512,1.1-1.064a6.658,6.658,0,0,1,1.024-1.142A41.672,41.672,0,0,0,96.861,31a10.952,10.952,0,0,1,.788-1.1c.315-.276.354.118.079.591-.276.394-.276.512-.04.394C98.239,30.609,97.491,32.578,96.7,33.405ZM75.081,39.628c-.04-.118-.118.079-.2.433a3.628,3.628,0,0,0-.157.867c0,.118.079-.118.2-.473C75,40.1,75.081,39.707,75.081,39.628Zm.591-2.678a1.037,1.037,0,0,0-.118.394c0,.079-.118.512-.237.945-.236.748-.315,1.221-.2,1.063.04-.039.2-.669.394-1.378S75.75,36.793,75.672,36.95Zm.473-3.072c.039.157.59-.985.748-1.418a9.678,9.678,0,0,1,.433-1.261c.2-.473.473-1.181.67-1.575.157-.433.394-1.024.512-1.3a7.651,7.651,0,0,0,.512-1.142c.157-.315.591-1.261,1.024-2.127.394-.788.827-1.654.906-1.891.079-.2.473-.906.827-1.536a11.329,11.329,0,0,0,.709-1.26,1.621,1.621,0,0,1,.276-.473,1.3,1.3,0,0,0,.354-.512c-.039-.118.355-.63.473-.63.079,0,.2-.118.276-.237.118-.2.118-.2-.079-.039-.157.157-.157.157-.157,0,0-.118.039-.276.118-.315a7.034,7.034,0,0,0,.473-.709A17.007,17.007,0,0,1,85.6,15.446a13.634,13.634,0,0,0,1.064-1.5,1.609,1.609,0,0,1,.276-.473c.118-.236.2-.433.2-.433-.079,0-2.009,2.757-3.072,4.372a82.727,82.727,0,0,0-6.1,11.618C77.286,30.609,76.144,33.681,76.144,33.878Zm1.733-3.072c.433-1.1.709-1.93.67-1.851-.118.118-1.575,3.781-1.615,4.1C76.853,33.445,77.207,32.539,77.877,30.806Zm9.886-15.36c-.551.67-2.4,3.466-3.19,4.805-1.615,2.836-3.072,5.592-3.151,5.908a19.118,19.118,0,0,1-1.5,3.505c-.354.866-1.93,4.962-2.048,5.474-.079.315-.039.315.551-.2a53.84,53.84,0,0,0,7.011-8.35c1.024-1.378,2.048-2.8,2.324-3.151.236-.315.748-1.024,1.1-1.575a16.24,16.24,0,0,1,1.261-1.812,35.42,35.42,0,0,0,2.993-4.648c1.694-2.8,2.954-5.041,4.253-7.562,1.379-2.718,1.5-2.993,1.418-3.111-.039-.039,0-.157.079-.236a4.314,4.314,0,0,0,.709-2.009l.118-.827-.394.276a5.563,5.563,0,0,0-.709.551c-.2.2-.669.63-1.063.985a50.312,50.312,0,0,0-4.135,4.293C92.568,8.75,87.92,15.288,87.763,15.446ZM78.744,28.561c.039-.118.039-.157-.04-.118a.268.268,0,0,0-.118.2C78.625,28.836,78.7,28.8,78.744,28.561Zm.118-.393a2.725,2.725,0,0,0,.354-.63c.118-.315.157-.433.039-.276A3.074,3.074,0,0,0,78.862,28.167Zm.984-2.048a1.467,1.467,0,0,0,.2-.315c.118-.237.118-.237-.04-.079-.118.118-.2.236-.157.315ZM81.225,23.4l.158-.354-.237.237a.894.894,0,0,0-.2.393C80.949,23.835,81.028,23.756,81.225,23.4Zm.237-.433c.079,0,.236-.315.433-.67.158-.354.276-.63.2-.591C81.934,21.826,81.343,22.968,81.461,22.968Zm.984-1.615a4.679,4.679,0,0,1,.512-.906c.2-.354.354-.63.276-.63s-.118.04-.118.079a3,3,0,0,1-.354.59,2.065,2.065,0,0,0-.394.788C82.288,21.55,82.288,21.55,82.446,21.353Zm1.024-1.891c.039-.118,0-.157-.04-.118a.521.521,0,0,0-.118.2C83.352,19.739,83.391,19.7,83.47,19.463Zm.59-1.26a1.487,1.487,0,0,0,.2-.315c.157-.236.118-.236-.039-.079a.573.573,0,0,0-.2.315C84.06,18.2,84.06,18.242,84.06,18.2ZM87.448,14.7a.664.664,0,0,0,.237-.276c0-.157-.079-.118-.276.2C87.212,14.894,87.212,14.894,87.448,14.7Zm58.093-4.135a2.805,2.805,0,0,1-1.339.945.857.857,0,0,0-.394.079,16.965,16.965,0,0,1-2.481.354,3.054,3.054,0,0,0-.748-.039,1.485,1.485,0,0,1-.787-.118.941.941,0,0,0-.355-.118c-.276,0-.276-.118.04-.157a11.062,11.062,0,0,0,2.324-.67,4.379,4.379,0,0,1,1.575-.67c.434-.079.512-.157.355-.236a65.437,65.437,0,0,0-7.4-.512c-.748-.039-5.553.118-7.09.237-.63.039-1.615.079-2.205.118-.985.04-1.891.079-2.56.158-.276.512-.591,1.063-.867,1.615a87.6,87.6,0,0,0-4.293,8.586c-.67,1.575-1.615,3.7-2.048,4.529a119.908,119.908,0,0,0-5.4,15.2c-.276.985-.63,2.245-.788,2.836a39.919,39.919,0,0,0-1.614,12.051c.079.867.354,2.009.551,2.009a4.05,4.05,0,0,0,.827-.433,3.243,3.243,0,0,1,.867-.473c.276.039.709,1.811.512,2.008a.634.634,0,0,0-.2.434c-.039.354-.906.67-1.5.59a4.648,4.648,0,0,1-.866-.315c-.237-.158-.591-.394-.788-.551a1.36,1.36,0,0,0-.551-.315,4.976,4.976,0,0,1-.788-.945c-1.064-1.575-1.3-4.017-.709-8.744a59.069,59.069,0,0,1,2.008-9.767,125.729,125.729,0,0,1,4.214-12.485c-3.269,4.529-6.971,9.571-7.916,10.752a13.177,13.177,0,0,1-1.812,1.93.349.349,0,0,0-.157.2,9.212,9.212,0,0,1-1.733,1.812,11.008,11.008,0,0,1-3.387,1.93h-.551a3.991,3.991,0,0,1-3.229-1.654,6.329,6.329,0,0,1-.512-.748,37.007,37.007,0,0,1,.788-4.332c.079-.276.236-.788.315-1.1a9.98,9.98,0,0,1,.434-1.3c.118-.354.393-1.1.59-1.693.237-.552.512-1.261.67-1.576s.591-1.142.906-1.851a20.314,20.314,0,0,1,1.811-3.387c.512-.709.551-.748.945-.788.315-.039.473.04,1.1.434l.788.512v.434a2.1,2.1,0,0,1-.236.945c-.158.276-.394.787-.591,1.142-.157.393-.473.906-.63,1.221-.158.276-.512.945-.748,1.417s-.552,1.064-.709,1.3a9.112,9.112,0,0,0-.512,1.063c-.158.355-.355.748-.434.906a24.864,24.864,0,0,0-1.812,5.4q-.059.591-.236.591a.262.262,0,0,0-.2.157q0,.118.118,0c.2-.079.276.237.157.394a1,1,0,0,0-.039.63l.079.512.512-.118a9.217,9.217,0,0,0,3.033-2.009C102.1,36.91,111.2,25.095,116.4,17.966c1.181-2.442,2.442-5,3.86-7.68a2.643,2.643,0,0,1-.394.04c0-.079-5.75.473-5.986.551-.079.039-.04.039-6.735.67-5.553.512-8.822.827-11.461,1.142a38.861,38.861,0,0,1-4.372.2.989.989,0,0,1-.709-.709c0-.118-.079-.2-.158-.157-.157,0-.157-.67,0-.788a.854.854,0,0,0,.2-.315c.079-.2.079-.2,1.064-.2.906,0,.984-.039,1.339-.236a1.6,1.6,0,0,1,1.772.118c.157.2.2.2.748.157.315-.04,1.694-.118,3.032-.237s2.678-.2,2.915-.236c.315-.04.512,0,.512.04s-.157.079-.315.079a2.663,2.663,0,0,0-.59.079,47.433,47.433,0,0,0,6.38-.394c.63-.079,2.678-.236,4.49-.394,1.851-.157,4.135-.354,5.12-.433.945-.079,1.969-.157,2.284-.157a10.334,10.334,0,0,1,1.1-.079l.473-.079c1.064-1.969,3.466-6.144,3.86-6.7a3.98,3.98,0,0,0,.473-.945,1,1,0,0,1,1.1-.748c.512.039,1.5.59,1.457.827,0,.039.157.118.315.157.67.079,1.024,1.378.473,1.772a1.05,1.05,0,0,0-.236.394,9.966,9.966,0,0,1-1.457,2.324c-.393.512-1.024,1.457-1.733,2.6,2.56-.2,5.514-.434,6.7-.512,1.339-.079,2.875-.118,6.144-.118,4.214,0,4.372,0,5.12.158a4.311,4.311,0,0,1,1.969.787.717.717,0,0,1,.157.434c0,.157.04.315.118.354C145.619,9.853,145.658,10.168,145.54,10.562Zm-49.546,2.4c-.118.079-.354.591-.276.591.04,0,.157-.157.237-.354S96.073,12.886,95.994,12.964Zm5.435,7.4c-.157-.118-.157-.2.315-1.064a27.364,27.364,0,0,1,3.584-4.687c1.024-.906,1.221-.945,1.575-.157.2.393.2.551.118.709a3.994,3.994,0,0,0-.118.473,3.314,3.314,0,0,1-.551,1.024,21.606,21.606,0,0,0-1.93,3.033c-.709,1.457-1.1,1.969-1.339,1.772a1,1,0,0,0-.473-.079.7.7,0,0,1-.67-.315,2.5,2.5,0,0,1-.315-.433C101.626,20.566,101.508,20.448,101.429,20.369ZM113.52,10.011c0-.04-.079-.04-.118,0a4.356,4.356,0,0,1-.551.079c-.788.04-3.466.237-4.884.394-.788.079-2.009.2-2.718.276a6.253,6.253,0,0,0-1.339.157,19.763,19.763,0,0,0,2.56-.157c.709-.079,1.97-.2,2.836-.276s2.048-.157,2.639-.237C113.324,10.168,113.52,10.129,113.52,10.011Zm-4.884,34.737c.2-.906.473-2.009.591-2.481.079-.473.315-1.3.473-1.851s.473-1.5.67-2.127c.157-.63.473-1.654.63-2.245.2-.551.394-1.261.473-1.5a6.135,6.135,0,0,1,.276-.906c.434-1.142,1.024-2.875,1.064-3.032,0-.237,1.772-4.726,2.875-7.483.237-.59.709-1.615,1.261-2.8-.512.709-1.064,1.5-1.694,2.363a.3.3,0,0,0-.04.118,2.753,2.753,0,0,1-.354.669,92.3,92.3,0,0,0-3.505,8.98,14.2,14.2,0,0,1-1.1,2.836,14.715,14.715,0,0,0-.867,2.442c-.748,2.757-.827,3.032-.63,3.032.157.04-.039.512-.236.63a13.116,13.116,0,0,0-.434,1.339c-.236.985-.276,1.379-.157,1.615.157.394.118.473-.079.394-.237-.079-.827,5-.709,5.986.04.394.079,1.142.079,1.654-.04,1.694.157.787.59-2.639A43.178,43.178,0,0,1,108.637,44.748Zm-.157,5.317c-.039-.276-.118.04-.157,1.024-.079,1.536-.079,2.363.039,2.245A8.354,8.354,0,0,0,108.4,52a7.505,7.505,0,0,1,.079-1.378A.648.648,0,0,0,108.479,50.065Zm.237-2.245c-.04-.079-.079,0-.118.158,0,.2.039.236.079.118S108.755,47.86,108.716,47.82Zm6.7-22.843c-.59,1.5-.709,1.811-.551,1.93.157.157.157.2-.039.157-.158,0-.394.394-.906,1.694a74.562,74.562,0,0,0-2.521,7.365c-.157.591-.551,1.93-.867,2.954-.315,1.064-.709,2.521-.866,3.23-.158.748-.394,1.812-.552,2.4-.118.591-.276,1.457-.315,1.93-.158,1.378.157.473.512-1.5.276-1.339.394-1.772.591-1.891.236-.157.236-.2.079-.433s-.157-.315.079-.709a3.526,3.526,0,0,0,.315-.906,27.028,27.028,0,0,1,1.064-3.663,1.347,1.347,0,0,0,.118-.67c-.079-.04-.079-.2-.039-.354.079-.158.2-.237.276-.2.157.118.394-.67.63-2.009a2.113,2.113,0,0,1,.276-.748,6.351,6.351,0,0,0,.512-1.457,23.026,23.026,0,0,1,1.221-3.19,4.014,4.014,0,0,0,.354-.985,2.281,2.281,0,0,1,.2-.709,2.651,2.651,0,0,0,.315-.867c.118-.473.2-.748.315-.67.04.079.079.04.04-.157a2.292,2.292,0,0,1,.59-1.379,1.925,1.925,0,0,0,.315-.945c.04-.473.118-.827.2-.827s.157-.157.236-.354.2-.394.237-.394a4.556,4.556,0,0,0,.63-1.615C117.892,19.424,116.553,22.141,115.411,24.977ZM114.072,10.05c0-.04-.04-.079-.118-.079-.04,0-.118.04-.118.079s.079.079.118.079C114.032,10.129,114.072,10.089,114.072,10.05Zm.551-.079c0-.039-.04-.079-.118-.079a.3.3,0,0,0-.157.079c-.04.04,0,.079.118.079C114.545,10.05,114.623,10.011,114.623,9.971ZM116,9.814c-.118,0-.237.04-.237.079,0,.079.118.079.315,0C116.2,9.814,116.2,9.814,116,9.814Zm2.875-.157a19.559,19.559,0,0,0-2.56.2c-.04.039.2.039.512,0,.276,0,.867-.079,1.3-.079A2.674,2.674,0,0,0,118.877,9.656Zm-.906,7.837c0-.039-.118-.079-.276-.118,0,.079-.04.118-.079.2a.238.238,0,0,0,.157-.039C117.931,17.533,118.011,17.494,117.971,17.494Zm32.1,15.833c0,.315-.079.393-.551.473a27.791,27.791,0,0,0-7.877,3.978c-1.339.985-1.378,1.024-1.536,1.772a60.308,60.308,0,0,1-4.411,10.91,95.118,95.118,0,0,1-5.356,8.232c-2.008,2.678-5.12,5.592-6.892,6.459a4.94,4.94,0,0,1-3.111.394,5.935,5.935,0,0,1-2.127-2.718c-.315-1.063-.354-2.835-.039-3.111.236-.158.236-.2,0-.2-.118,0-.237-.079-.237-.158a21.619,21.619,0,0,1,2.127-4.765c.512-.906,2.836-4.293,2.914-4.293.039,0,.039.157-.04.315-.039.2.118.079.512-.394a56.456,56.456,0,0,1,4.49-4.805c.827-.748,1.851-1.733,2.324-2.206a7.8,7.8,0,0,1,1.418-1.1,17.483,17.483,0,0,0,1.575-1.142,32.2,32.2,0,0,1,3.584-2.521c.512-.354.748-.591.827-.906.04-.2.2-.827.315-1.379a16.075,16.075,0,0,0,.551-5,25.586,25.586,0,0,0-.276-4.057c-.473-2.993-.63-3.427-1.3-3.427a1.449,1.449,0,0,1-.67-.2,1.49,1.49,0,0,1,.039.434c.079,1.26-.2,2.048-1.26,3.82a8.44,8.44,0,0,0-1.182,2.363,21.167,21.167,0,0,1-2.4,4.293c-.236.315-.788,1.142-1.181,1.812a24.664,24.664,0,0,1-1.733,2.4c-.512.63-1.221,1.536-1.615,2.009a18.012,18.012,0,0,1-3.86,3.545,2.291,2.291,0,0,1-2.678-.118,4.314,4.314,0,0,1-1.93-3.19,12.658,12.658,0,0,1,.512-4.726c.315-1.221.591-2.088,1.694-5.278.079-.315.67-1.654,1.261-2.915a19.891,19.891,0,0,0,1.1-2.678,16.327,16.327,0,0,1,1.851-3.938l1.851-2.915c.158-.315.276-.355.867-.355.551,0,.67.04.748.276.04.237.158.276.473.2.354-.079.434-.039.354.158-.039.118-.039.236.04.236.236,0,.394.63.2.945-.079.157-.315.67-.512,1.181a15.516,15.516,0,0,1-1.063,2.245c-.434.787-1.142,2.127-1.576,3.032-.433.867-.984,1.969-1.221,2.4a77.467,77.467,0,0,0-2.915,8.153,25.4,25.4,0,0,0-.866,4.411c.2.157,1.457-.945,2.993-2.6a33.166,33.166,0,0,0,2.757-3.151,7.67,7.67,0,0,1,.67-.787A50.694,50.694,0,0,0,131.2,29.94a3.467,3.467,0,0,0,.709-1.457c-.079-.2-.079-.236.04-.079.079.157.237,0,.551-.512a7.114,7.114,0,0,0,.985-1.97,25.139,25.139,0,0,1,1.969-3.348c-.118-.276-.04-.354.276-.827.276-.354.551-.591.827-.591a1.247,1.247,0,0,0,.551-.2c.157-.118.237-.079.315.2.079.237.236.394.354.394a2.892,2.892,0,0,1,.788.867,13.917,13.917,0,0,1,1.811,5.12,32.136,32.136,0,0,1,.394,6.223c-.039.709-.039,1.142.04,1.1.079,0,.827-.433,1.654-.866,1.575-.867,2.206-1.064,1.575-.552-.354.276-.315.276.394,0,.867-.354,1.378-.669.827-.512a4.088,4.088,0,0,0-.512.157c-.079.04-.158,0-.158-.079a3.036,3.036,0,0,1,1.142-.512,4.33,4.33,0,0,1,2.442-.354c1.221.079,1.654.276,1.536.63-.04.157,0,.236.157.236C149.991,33.012,150.07,33.13,150.07,33.327Zm-30.6-18.314c-.394.551-.748,1.1-.945,1.378a.832.832,0,0,0-.157.394c-.04.157,0,.157.2-.079l.118-.118Zm2.4,17.92a6.373,6.373,0,0,0,.355-.985c0-.276-.276-.157-.551.2-.2.237-.315.276-.394.118s-.2.04-.434.63a9.207,9.207,0,0,0-.748,2.8.2.2,0,0,1-.118.276,13.068,13.068,0,0,0-.709,4.253c.079,1.891.394,1.851.591-.039A26.4,26.4,0,0,1,121.87,32.933Zm-1.3-20.323c-.118.2-.276.473-.433.748-.315.551-.591.985-.591,1.024.04.079.118-.039.2-.2a3.229,3.229,0,0,1,.315-.472c.039-.079.236-.394.433-.749C120.807,12.374,120.807,12.256,120.57,12.61ZM122.3,62.157a24.121,24.121,0,0,0,2.008-1.615,38.782,38.782,0,0,0,4.215-4.884c1.3-1.891,1.694-2.324,1.93-2.4a8.142,8.142,0,0,0,1.261-1.772,62.81,62.81,0,0,0,3.072-5.829,7.888,7.888,0,0,0-1.1,1.891c-.04.158-.118.237-.158.237a6.626,6.626,0,0,1,1.1-2.4,7.52,7.52,0,0,0,.787-1.575c.985-2.363.985-2.324-.394-1.261a61.435,61.435,0,0,0-10,9.964c-2.442,3.269-4.687,7.523-4.884,9.1a6.26,6.26,0,0,0-.04,1.142C120.255,63.1,121.24,62.826,122.3,62.157Zm14.612-18.551c0-.157-.276.315-.63,1.064a16.274,16.274,0,0,1-1.261,2.205,7.633,7.633,0,0,0-.945,1.5,1.5,1.5,0,0,1-.354.591c-.079,0-.118.118-.118.237a.18.18,0,0,1-.157.2c-.079,0-.118.079-.079.118a3.826,3.826,0,0,1-.748,1.5c-.079,0-.118.118-.118.237s-.079.2-.118.157c-.079-.039-.118.04-.118.157.039.158-.04.237-.118.237-.118,0-.157.079-.118.2a1.661,1.661,0,0,1-.354.906c-.236.354-.354.63-.276.63s.118.079.118.237c0,.276-.355.788-.591.788-.079,0,0-.2.2-.355.157-.2.236-.393.157-.473-.079-.039-.236.118-.394.394q-.354.65-.473.237c-.039-.118-.157-.04-.236.2-.2.315-.157.315.04.157.276-.276.315,0,0,.591-.158.354-.237.393-.434.236-.157-.157-.2-.157-.315.04a39.49,39.49,0,0,1-6.577,7.286,6.1,6.1,0,0,1-1.654.867c-.906.276-.906.276-.709.551.354.433,1.26.276,2.481-.394a12.592,12.592,0,0,0,2.127-1.536,5.42,5.42,0,0,1,1.142-.867c.118.079.2.039.237-.04.04-.118,0-.157-.079-.157s.276-.512.867-1.142c.551-.63,1.5-1.733,2.048-2.442a4.628,4.628,0,0,1,1.1-1.3c.079.039.118,0,.079-.079a13.863,13.863,0,0,1,1.378-2.481,31.253,31.253,0,0,0,1.615-2.8,4.855,4.855,0,0,1,.551-.985,3.009,3.009,0,0,0,.355-.59c0-.04.157-.315.315-.631A38.118,38.118,0,0,0,136.915,43.606ZM121.594,31.751a.984.984,0,0,0,.2-.433c0-.2-.236-.118-.315.118C121.319,31.869,121.4,32.027,121.594,31.751Zm.315-1.024c.079.276.118.276.157,0,0-.118.079-.236.158-.236.039,0,.157.079.157.157a12.133,12.133,0,0,0,1.181-2.875c.04-.079-.118.039-.393.276A6.214,6.214,0,0,0,121.909,30.727Zm4.017,18.826a.42.42,0,0,0,.237-.237c.118-.118.157-.2.118-.2a.466.466,0,0,0-.236.2Zm.906-.945.63-.67c.354-.354.63-.67.63-.67,0-.236-.315.04-.748.63Zm.748,11.7a4.364,4.364,0,0,0-.591.67,3.752,3.752,0,0,0,.945-.906C128.054,59.872,127.9,59.99,127.581,60.305Zm6.144-18.9a63.213,63.213,0,0,0-5.75,5.081c-.984.984-1.063,1.221-.157.433.237-.2.748-.67,1.142-1.064.433-.433.788-.67.945-.63a.377.377,0,0,0,.394-.118c.157-.2.157-.236,0-.236-.2,0,.315-.63.866-1.064.434-.315.67-.236.355.157-.158.237-.158.237.079,0a.945.945,0,0,1,.512-.276c.276,0,.315-.157.079-.393-.2-.237,0-.512,1.417-1.536,2.954-2.206,3.624-2.678,3.663-2.875C137.349,38.683,136.994,38.919,133.725,41.4Zm-.433-32.729a6.816,6.816,0,0,0-2.009,0,13.74,13.74,0,0,1-1.733.118c-1.024.079-1.142.079-1.261.157-.039.04.079.04.276,0,.237,0,.354,0,.315.04s.118.079.354.079c.394-.04.394-.04.079-.04-.276-.039-.276-.079-.118-.118a6.833,6.833,0,0,1,.788.039,2.161,2.161,0,0,0,1.261-.039,18.078,18.078,0,0,1,1.851-.158C133.213,8.75,133.292,8.711,133.292,8.672Zm2.087,16.936a25.125,25.125,0,0,0-1.773,2.915,30.38,30.38,0,0,1-1.93,3.111c-1.969,2.993-2.009,3.19-.04.59a21.828,21.828,0,0,0,1.418-2.127c.237-.473.906-1.733,1.458-2.757A8.581,8.581,0,0,0,135.379,25.607Zm-4.372,18.9c.04-.04.118-.118.118-.158s-.079-.079-.118-.079a.169.169,0,0,0-.157.157C130.85,44.512,130.929,44.551,131.007,44.512Zm1.3,9.1c-.157.2-.2.354-.118.276.118-.04.236-.237.315-.394C132.7,53.1,132.583,53.137,132.307,53.61Zm.276-10.358c-.079-.079-.157-.157-.236-.157s-.079.079-.04.157a.262.262,0,0,0,.2.157C132.583,43.409,132.622,43.33,132.583,43.252Zm.118-.276c.118.2.237.157.591-.157.315-.237.315-.237.039-.237-.2-.04-.276.04-.276.2,0,.118-.079.157-.236.118C132.7,42.858,132.661,42.9,132.7,42.976Zm1.024-34.383c-.236.04-.236.079.158.079a2.67,2.67,0,0,0,.473.04c.079,0,.748-.04,1.575-.04.787-.039,1.457-.079,1.5-.079C137.506,8.514,134.079,8.553,133.725,8.593Zm.748,33.2a.331.331,0,0,0,.276-.157c.04-.039-.039-.079-.2-.039C134.237,41.676,134.2,41.794,134.473,41.794Zm1.418-18.668a1.7,1.7,0,0,1-.236-.276,6.53,6.53,0,0,0-1.024,2.206c.039,0,.354-.551.787-1.182A6.2,6.2,0,0,1,135.891,23.126Zm-.236,17.763.315-.473-.433.315c-.237.2-.434.394-.434.473C135.1,41.479,135.34,41.321,135.655,40.888Zm3.466-32.177c-.118-.079-.118-.079,0-.118.079-.04-.2-.04-.63-.04-.393,0-.709,0-.669.04a1.637,1.637,0,0,0,.551.04c.276,0,.512.039.512.079s.079.039.2.039C139.239,8.75,139.239,8.75,139.121,8.711Zm4.962.394a11.358,11.358,0,0,0-4.214-.512c-.512.079-.354.157.236.118.315,0,.591,0,.631.079.039,0,.315.04.59.04a14.658,14.658,0,0,1,2.481.315C144.241,9.262,144.477,9.223,144.083,9.105Z" transform="translate(-0.1 0)" fill="#fff"/>
</svg>
