<svg xmlns="http://www.w3.org/2000/svg" width="207.844" height="69.103" viewBox="0 0 207.844 69.103">
  <g id="グループ_1075" data-name="グループ 1075" transform="translate(-29.998 -188)">
    <path id="パス_292" data-name="パス 292" d="M32.135,10.982a82.618,82.618,0,0,0-4.147,8.136c-.609,1.493-1.559,3.508-1.978,4.292A112.215,112.215,0,0,0,20.8,37.816c-.266.933-.609,2.164-.761,2.687a38.346,38.346,0,0,0-1.56,11.42c.076.821.342,1.9.532,1.941a4.072,4.072,0,0,0,.8-.448,1.961,1.961,0,0,1,.837-.41c.266,0,.685,1.716.494,1.866a1,1,0,0,0-.19.41c-.038.336-.837.635-1.408.56a4.891,4.891,0,0,1-.875-.3c-.228-.149-.57-.373-.761-.522a1.319,1.319,0,0,0-.533-.3,4.763,4.763,0,0,1-.761-.9c-1.027-1.493-1.218-3.807-.685-8.285a51.959,51.959,0,0,1,1.978-9.255A123.672,123.672,0,0,1,28.9,9.826H28.56c0-.075-5.592.448-5.82.522-.076.037-.038.037-6.505.634-5.364.485-8.521.784-11.069,1.083-1.065.112-3.918.261-4.223.224-.267-.075-.685-.485-.685-.709,0-.112-.038-.187-.114-.15-.19,0-.19-.634,0-.746a2.246,2.246,0,0,0,.152-.3C.371,10.2.371,10.2,1.322,10.2c.913,0,.951,0,1.293-.224a1.567,1.567,0,0,1,1.712.112c.152.187.228.187.723.149.3-.037,1.635-.112,2.929-.224s2.587-.187,2.853-.224c.266,0,.457,0,.457.038s-.152.075-.3.075a2.655,2.655,0,0,0-.571.075A46.722,46.722,0,0,0,16.576,9.6c.609-.075,2.587-.224,4.375-.374s3.994-.3,4.907-.373c.913-.112,1.9-.187,2.206-.187a10.311,10.311,0,0,1,1.065-.075l.457-.075c1.065-1.866,3.348-5.822,3.728-6.344a3.752,3.752,0,0,0,.457-.9,1,1,0,0,1,1.065-.71c.495.038,1.446.6,1.446.784-.038.075.114.149.3.149.609.075.951,1.306.457,1.679a1.148,1.148,0,0,0-.266.373,8.26,8.26,0,0,1-1.408,2.2c-.38.485-.989,1.38-1.674,2.463,2.472-.187,5.326-.41,6.467-.485,1.294-.075,2.777-.112,5.935-.112,4.07,0,4.222,0,4.983.149a4.643,4.643,0,0,1,1.9.746,1.072,1.072,0,0,1,.114.41c0,.15.038.3.152.336.152.112.191.411.076.784a2.547,2.547,0,0,1-1.293.9.93.93,0,0,0-.38.075,16.686,16.686,0,0,1-2.4.336,2.977,2.977,0,0,0-.723-.038,1.46,1.46,0,0,1-.761-.112.92.92,0,0,0-.342-.075c-.266,0-.266-.15.038-.187a10.84,10.84,0,0,0,2.244-.635,3.782,3.782,0,0,1,1.56-.6c.38-.112.457-.187.3-.261-.3-.112-4.261-.411-7.152-.485-.722-.038-5.363.112-6.847.224-.609.038-1.56.075-2.13.112-.951.038-1.826.113-2.473.15-.266.485-.571,1.008-.837,1.53M22.4,9.564c0-.075-.076-.075-.114-.038a1.6,1.6,0,0,1-.533.075c-.761.037-3.347.224-4.717.373-.761.075-1.94.187-2.625.261s-1.255.112-1.294.149a19.463,19.463,0,0,0,2.473-.149c.685-.075,1.94-.187,2.739-.261.875-.075,1.978-.149,2.549-.224,1.332-.075,1.522-.112,1.522-.187m6.733,2.5a4.519,4.519,0,0,1-.57.672A32.536,32.536,0,0,0,26.049,17.4c0,.187-.076.3-.153.3-.038,0-.076.075-.076.186a15.832,15.832,0,0,1-1.331,2.836,4.3,4.3,0,0,0-.456.933,2.606,2.606,0,0,1-.343.635A86.331,86.331,0,0,0,20.3,30.8a13.316,13.316,0,0,1-1.065,2.687,12.063,12.063,0,0,0-.8,2.313c-.761,2.613-.837,2.874-.647,2.911.152,0-.038.448-.19.56a5.52,5.52,0,0,0-.457,1.306c-.19.9-.266,1.269-.152,1.493.152.373.114.448-.038.373-.266-.075-.837,4.74-.723,5.673.038.373.076,1.082.076,1.568-.038,1.6.152.746.57-2.5.266-2.015.57-3.77.8-4.74.228-.858.457-1.9.57-2.351.076-.448.3-1.231.457-1.754.19-.523.457-1.419.647-2.016.152-.6.457-1.567.647-2.09.152-.56.342-1.232.418-1.456.076-.261.19-.635.266-.859.418-1.082.989-2.724,1.027-2.873.038-.224,1.712-4.479,2.778-7.091.722-1.68,3.347-7.166,4.374-9.069.571-1.082.647-1.306.266-.821M17.527,47.52c-.038-.3-.076,0-.152.97-.076,1.456-.076,2.2.038,2.09a4.745,4.745,0,0,0,.038-1.269A7.255,7.255,0,0,1,17.527,48a.528.528,0,0,0,0-.485m.228-2.165c-.038-.075-.076,0-.114.187,0,.149.038.187.076.075s.076-.224.038-.261m6.467-21.646c-.571,1.419-.685,1.717-.533,1.829.152.149.152.187-.038.149-.152,0-.38.411-.875,1.6a60.646,60.646,0,0,0-2.4,6.979c-.19.56-.571,1.829-.875,2.836-.3.97-.685,2.351-.837,3.023-.152.709-.38,1.717-.494,2.276a12.2,12.2,0,0,0-.342,1.866c-.152,1.269.152.448.494-1.455.266-1.269.38-1.679.571-1.791.228-.149.228-.187.076-.41s-.152-.3.076-.672a2.333,2.333,0,0,0,.3-.858,34.408,34.408,0,0,1,1.027-3.471,1.216,1.216,0,0,0,.114-.635c-.076-.038-.076-.187-.038-.336.076-.149.19-.224.266-.187.152.112.38-.6.609-1.9a1.97,1.97,0,0,1,.266-.709,7.722,7.722,0,0,0,.533-1.381,18.49,18.49,0,0,1,1.141-3.023,3.784,3.784,0,0,0,.342-.933,1.338,1.338,0,0,1,.228-.672,2.825,2.825,0,0,0,.267-.821c.114-.448.228-.709.3-.635s.076.038.038-.112a2.253,2.253,0,0,1,.57-1.344,1.8,1.8,0,0,0,.3-.9c.038-.448.114-.784.19-.784s.19-.149.266-.336c.038-.187.152-.373.19-.336a4.515,4.515,0,0,0,.609-1.568c.076-.559-1.255,2.053-2.358,4.7M22.929,9.564c0-.038-.038-.075-.114-.075a.075.075,0,1,0,0,.149c.076,0,.114-.037.114-.075m.533-.075a.081.081,0,0,0-.076-.075.293.293,0,0,0-.19.075c-.038.037,0,.075.114.075.076,0,.152-.038.152-.075m1.332-.15c-.114,0-.228.038-.228.075,0,.075.114.075.3,0,.152-.038.114-.075-.076-.075m2.777-.15c0-.037-2.4.15-2.473.187-.038.038.19.038.495,0,.3,0,.875-.038,1.255-.075a2.28,2.28,0,0,0,.723-.112m9.4-.634c.19-.038.3-.038.266,0s.114.075.342.075c.381,0,.381,0,.114-.038s-.3-.037-.114-.112a3.276,3.276,0,0,1,.723.075,2.388,2.388,0,0,0,1.217-.075,17.79,17.79,0,0,1,1.788-.15c.114,0,.19,0,.19-.037,0-.112-.761-.112-1.94,0-.494.037-1.255.075-1.674.112-.989.037-1.1.037-1.217.112-.038.038.114.038.3.038m5.1-.261a1.765,1.765,0,0,0,.457,0c.076,0,.761-.038,1.522-.038.761-.037,1.407-.075,1.446-.075.076-.075-3.234-.037-3.538,0-.266.038-.266.075.114.112m3.8-.112a1.759,1.759,0,0,0,.57.038c.266,0,.457.037.457.075s.114.037.191.037c.152,0,.152,0,.076-.037-.153-.075-.153-.075,0-.112a3.612,3.612,0,0,0-.609-.037c-.418,0-.723,0-.685.037m2.206.149a1.244,1.244,0,0,1,.609.038,1.533,1.533,0,0,0,.571.075,14.655,14.655,0,0,1,2.4.261c.418.112.647.075.266-.038a11.18,11.18,0,0,0-4.07-.485c-.494.075-.342.149.228.149" transform="translate(29.998 187.693)" fill="#fff"/>
    <path id="パス_293" data-name="パス 293" d="M82.935,51.654c-.533.709-4.908,5.076-5.63,5.673a31.486,31.486,0,0,1-4.983,3.247c-.609.336-1.256.672-1.408.746-1.027.672-4.983,1.269-5.668.9a.434.434,0,0,0-.38-.112c-.3.187-2.4-1.6-2.929-2.5a.882.882,0,0,0-.609-.522c-.38-.075-.38-.149-.038-.336.228-.075.266-.187.228-.336a7.281,7.281,0,0,1,.761-4.739,26.175,26.175,0,0,1,3.233-5.039c.19-.187.571-.635.913-1.007a5.457,5.457,0,0,1,1.94-1.754,2.1,2.1,0,0,1,.951.038c.343.075.837.187,1.1.224a4.763,4.763,0,0,1,2.4,1.419c1.1,1.044,1.446,1.716,1.331,2.612a5.366,5.366,0,0,1-1.065,2.612,14.637,14.637,0,0,1-3.043,3.061,26.841,26.841,0,0,1-5.82,3.284,3.493,3.493,0,0,0-.723.41c0,.411,1.141.747,2.207.635a16.448,16.448,0,0,0,7.266-2.65,6.255,6.255,0,0,1,1.065-.56c.228,0,.8-.447.8-.6a3.681,3.681,0,0,1,1.027-.9c.19-.149.228-.149.076.037-.3.374.038.15,1.028-.634.532-.485,1.293-1.082,1.674-1.381a30.872,30.872,0,0,0,2.625-2.351c.228-.3.875-.933,1.369-1.455.533-.523,1.217-1.232,1.522-1.568,1.218-1.307,1.788-1.941,1.864-1.866a3.594,3.594,0,0,1-.722,1.007c-.647.821-.685.859-.152.3.571-.6.951-.747.571-.224a.767.767,0,0,0-.19.448c0,.149.038.149.152.037.342-.261.152,0-.418.672a8.214,8.214,0,0,0-.875,1.232,5,5,0,0,1-.685,1.045,8.682,8.682,0,0,1-.761.9M63.5,57.55c0,.038.114-.037,1.446-.933A20.535,20.535,0,0,0,67.3,54.938a6.591,6.591,0,0,1,.875-.709,30.031,30.031,0,0,0,3.119-3.173,5.039,5.039,0,0,0,.8-2.538c-.076-.485-.228-.634-.875-.821-.913-.224-1.6.224-3.2,2.164a28.7,28.7,0,0,0-3.386,4.964A15.785,15.785,0,0,0,63.5,57.55m16.015-3.06c-.609.672-.685.784-.266.373a10.038,10.038,0,0,0,.913-.933c.571-.672.228-.41-.647.559" transform="translate(-2.922 162.883)" fill="#fff"/>
    <path id="パス_294" data-name="パス 294" d="M150.453,29.447a10.159,10.159,0,0,0-.494.97,10.457,10.457,0,0,1-1.674,2.277c-2.473,2.911-4.451,4.4-6.657,5.076-1.522.485-3.461-.41-4.831-2.165-1.065-1.307-1.408-2.8-1.636-6.9-.076-1.344-.152-2.5-.19-2.538-.076-.149-1.217,1.082-2.891,3.21a26.985,26.985,0,0,0-2.891,3.993c-.418.709-1.027,1.68-1.331,2.165-.342.485-.951,1.568-1.408,2.388s-1.1,2.015-1.446,2.612c-.571.971-1.445,2.762-2.663,5.374a5.506,5.506,0,0,1-.456.821c-.076.075-.076.224.038.411a.755.755,0,0,1-.038.634c-.114.373-.266.411-.837.187a1.234,1.234,0,0,1-.533-.3c-.114-.149-.38-.41-.608-.672a3.491,3.491,0,0,1-.875-2.762c.19-2.65,4.222-13.958,7.456-20.937.456-.97.8-1.792.8-1.792a43.9,43.9,0,0,0-3.272,4.292c-.722,1.307-4.3,5.524-7.837,9.331a44.121,44.121,0,0,1-4.945,4.255,2.806,2.806,0,0,1-2.13.6,2.6,2.6,0,0,1-1.75-.373,6.252,6.252,0,0,1-2.473-3.1,13.2,13.2,0,0,1,.076-6.233,29.968,29.968,0,0,1,3.348-7.8c.3-.373.951-1.232,1.445-1.9,1.75-2.388,3.234-3.471,4.413-3.247a3.96,3.96,0,0,1,2.054,1.567c.418.784.495,1.866.114,1.941a1.3,1.3,0,0,0-.419.261c-.152.15-.228.15-.456-.037-.19-.149-.3-.187-.38-.075-.228.224-.457,0-.3-.261a1.563,1.563,0,0,0,.114-.448c0-.224-.076-.187-.533.149a15.032,15.032,0,0,0-2.7,3.023,29.592,29.592,0,0,0-4.146,9.106,14.724,14.724,0,0,0-.418,4.479c.076.411.114.448.647.522a4.221,4.221,0,0,0,1.218-.261,4.921,4.921,0,0,1,.913-.3c.571,0,3.8-2.837,6.924-6.121,1.6-1.642,5.4-6.121,8.369-9.816,1.065-1.344,2.473-3.061,3.043-3.807s1.294-1.679,1.6-2.09.912-1.232,1.369-1.791a39.262,39.262,0,0,0,2.549-3.956c1.6-2.687,2.891-4.814,4.6-7.389C139.383.449,140.562-.447,140.79.225c.038.112.114.149.266.112.266-.112.3.075.076.336-.114.112-.038.149.266.149s.381.075.533.448a1.042,1.042,0,0,1,.038.672,14.192,14.192,0,0,1-1.179,1.6,45.292,45.292,0,0,0-3.5,5.039c-.457.746-1.179,1.978-1.6,2.724-.913,1.53-1.6,2.8-2.245,4.105-.228.522-.647,1.344-.913,1.829s-.684,1.344-.951,1.866c-.228.522-.647,1.419-.951,1.978-.266.522-.685,1.419-.913,2.016-.266.56-.723,1.567-1.1,2.276a11.33,11.33,0,0,0-1.179,2.762c0,.261-1.864,4.852-2.244,5.524a4.022,4.022,0,0,0-.343.9,8.462,8.462,0,0,1-.342,1.045,5.02,5.02,0,0,0-.419,1.493c.038.037.228-.3.457-.747a74.221,74.221,0,0,1,6.733-10.039c2.016-2.351,2.891-2.985,3.576-2.575.19.112.342.224.342.3,0,.037.114.075.3.112.913.038,1.484,1.269,1.712,3.807.114.97.228,2.538.3,3.471a9.255,9.255,0,0,0,.875,3.993c.266.261.418.3,1.1.3a6.505,6.505,0,0,0,3.424-1.307,33.919,33.919,0,0,0,6.391-5.635c.723-.9.8-.97.951-.747a.7.7,0,0,0,.419.187c.342,0,.266.3-.229,1.232m-30.47,14.108c-.038-.038-.076.038-.038.187,0,.149,0,.224.038.112a.4.4,0,0,0,0-.3m3.233-9.48a13.763,13.763,0,0,0,.533-1.53c.342-.933,2.473-6.12,2.739-6.681.19-.336,1.294-2.948,1.294-3.023,0-.224-.3.3-.8,1.381-.3.709-.761,1.754-1.027,2.277-.228.522-.494,1.082-.571,1.231s-.419.971-.723,1.754-.723,1.9-.951,2.463a5.987,5.987,0,0,0-.38,1.269,1.96,1.96,0,0,1-.266.746,26.718,26.718,0,0,0-1.332,3.583c-.076.261-.342,1.082-.608,1.829-.381,1.157-1.1,3.658-1.1,3.807,0,.261.152-.112.418-1.082.571-2.053,2.245-6.83,2.777-8.024M122.3,39.3a11.609,11.609,0,0,0-.837,2.351,13.79,13.79,0,0,0,.761-1.941c.076-.3.114-.485.076-.41m6.923-22.281c-.456.522-.532.336-.076-.261.3-.373.267-.336-.114.075-.228.261-.38.485-.3.56.076.037.038.149-.076.261-.152.149-.152.149-.152,0,0-.112-.419.3-.875.9-1.141,1.493-1.446,1.978-.647,1.119l.609-.709-.457.709a10.327,10.327,0,0,1-.761.971l-.228.224-.456.634a6.673,6.673,0,0,1-.685.9c-.19.187-.19.187-.076-.075a5.986,5.986,0,0,1,.685-.9l.533-.6a.643.643,0,0,1,.038-.186c.038-.15.076-.224.038-.187,0,.037-.494.634-1.065,1.343a4.151,4.151,0,0,0-.951,1.456c.076.075.038.112-.038.075-.152-.112-1.217,1.157-1.255,1.493,0,.149-.076.261-.114.261-.19-.075-.533.373-.456.522.038.075.266-.075.532-.373.229-.3.419-.6.343-.672,0-.075,0-.075.076-.038.152.112,1.483-1.493,1.369-1.679,0-.112,0-.224.076-.261.114-.075.114-.038.038.112a19.388,19.388,0,0,0,2.473-2.948c2.587-3.433,2.4-3.172,1.978-2.724M123.71,34.934a7.167,7.167,0,0,0-.609,1.716c0,.224.114-.075.457-.858.38-1.045.456-1.344.152-.858m.761-1.6c0-.112-.076-.038-.152.112a.983.983,0,0,0-.19.485c0,.224.342-.373.342-.6m1.294-3.508c-.076-.112-.685,1.194-.685,1.456a.907.907,0,0,1-.152.41,2.533,2.533,0,0,0-.38,1.12,7.915,7.915,0,0,0,.647-1.456,16.051,16.051,0,0,0,.57-1.53m1.522-3.7a13.511,13.511,0,0,0-1.332,2.949c-.152.6.114.112.761-1.344a6.491,6.491,0,0,0,.571-1.6m2.206-5.113c-.3.746-.8,1.754-1.065,2.277-.647,1.455-1.1,2.426-1.1,2.5a.081.081,0,0,0,.076.075,3.9,3.9,0,0,0,.609-1.157c.266-.635.608-1.381.761-1.717a24.256,24.256,0,0,0,1.407-3.247,4.406,4.406,0,0,0-.684,1.269m-1.141.672c.152-.336.152-.336-.038-.075a.923.923,0,0,0-.19.41q0,.28.228-.336m.723,2.277c0-.112-.038-.187-.114-.187-.114,0-.342.635-.342.9,0,.224.457-.485.457-.709m.495-1.455c-.076,0-.19.224-.3.485-.152.373-.152.485-.038.41.114-.037.229-.224.3-.41.152-.41.152-.485.038-.485m.837-3.322a3.154,3.154,0,0,0,.38-.56c.3-.6.38-.933.114-.485a2.718,2.718,0,0,0-.494,1.045" transform="translate(-26.389 188)" fill="#fff"/>
    <path id="パス_295" data-name="パス 295" d="M219.86,46.991c.266.783.076,1.344-.913,2.724a5.776,5.776,0,0,0-.761,1.232,2.036,2.036,0,0,1-.3.56.814.814,0,0,0-.228.373,18.576,18.576,0,0,1-3,3.21,2.591,2.591,0,0,1-1.028.634.945.945,0,0,0-.418.15c-.266.186-1.141-.224-1.9-.9a9.426,9.426,0,0,1-2.016-3.023A14.746,14.746,0,0,1,208.3,47.1c-.153-1.418-.3-2.65-.343-2.687a2.642,2.642,0,0,0-.457.3c-2.853,2.09-9.206,9.89-10.613,13.062-.495,1.157-.951,1.791-1.217,1.754a1.327,1.327,0,0,1-.647-.373,1.964,1.964,0,0,1-.457-.709.463.463,0,0,0-.3-.411c-.608-.112-.608-1.455.038-3.433a77.192,77.192,0,0,1,8.179-16.944,1.131,1.131,0,0,0,.3.3.5.5,0,0,1,.266.41.593.593,0,0,0,.114.41c.038.037.076.149.038.187-.038.075.076.187.228.3a1.672,1.672,0,0,1,.38.635c.114.373.076.448-.3.933a50.157,50.157,0,0,0-2.625,4.814c-.837,1.717-2.359,5.151-2.32,5.225,0,.038.837-.9,1.788-2.053a23.183,23.183,0,0,1,2.853-3.173,25.031,25.031,0,0,0,1.864-1.9,4.754,4.754,0,0,1,2.13-1.493,2.525,2.525,0,0,1,1.522.746,2.093,2.093,0,0,0,.494.709c.418.411.495.6.608,1.456.114.522.229,1.9.342,3.1a14.371,14.371,0,0,0,.8,4.4c.266.485.266.485.989.522a2.381,2.381,0,0,0,1.37-.373,22.179,22.179,0,0,0,3.994-3.658,9.2,9.2,0,0,1,1.483-1.456c.038,0,.076-.037.038-.112s.114-.336.343-.6l.418-.485-.19.448-.228.41.3-.373.266-.336Z" transform="translate(-74.531 167.36)" fill="#fff"/>
    <path id="パス_296" data-name="パス 296" d="M277.116,9.319a34.592,34.592,0,0,1-3.272,7.427c-.152.224-.456.784-.684,1.194-2.054,3.508-5.82,9.33-6.429,9.927-.114.112-.533.6-.951,1.12-2.283,2.874-4.489,4.74-6.2,5.225l-.495.149-.19.635c-.457,1.716-.57,2.276-.837,3.545-.8,4.292-.837,8.92-.076,11.533.266.933.3.97.608,1.045.494.112.609.485.342.9-.114.187-.19.187-.418.112-.077-.038-.19-.075-.229-.038s-.3-.075-.608-.261a3.428,3.428,0,0,1-1.065-1.119,7.8,7.8,0,0,1-1.331-4.031,25.165,25.165,0,0,1-.114-5.411,59.106,59.106,0,0,1,.989-6.419,4.313,4.313,0,0,1-3.005-1.194,29.632,29.632,0,0,1-3.994,4.927,5.53,5.53,0,0,1-2.092,1.269c-1.065.187-1.75-.224-2.473-1.381a8.4,8.4,0,0,1-1.065-5.9,27.451,27.451,0,0,1,3.119-7.837c1.484-2.65,1.484-2.65,1.788-2.725a2.334,2.334,0,0,0,.533-.261c.229-.149.3-.149.495-.038a.416.416,0,0,0,.342.075.1.1,0,0,1,.152.037,1.759,1.759,0,0,0,.381.336c.3.15.532-.075,1.484.112a3.607,3.607,0,0,1,2.624,2.464,6.348,6.348,0,0,1,.685,2.8,15.389,15.389,0,0,1-.951,4.255c-.076.15-.152.336-.228.522a2.639,2.639,0,0,0,2.016.933h.57a2.775,2.775,0,0,0,.114-.635c.038-.336.533-1.306.761-1.306.19-.075.3-.261.8-1.754a40.079,40.079,0,0,1,1.6-3.844c.3-.522.533-.97.57-1.007s.418-.859.913-1.792c.495-.97,1.179-2.276,1.522-2.911.647-1.119.761-1.381.571-1.194-.114.112-.114,0,0-.411a17.384,17.384,0,0,1,1.293-2.09,10.9,10.9,0,0,0,1.142-1.829,5.15,5.15,0,0,1,.685-1.232c.418-.635.722-1.119.685-1.045-.3.224-.076-.187.494-.933.343-.41.685-.9.8-1.045.228-.3.381-.373.418-.224a.405.405,0,0,1-.114.224c-.076.112-.076.112.077.075a.55.55,0,0,0,.114-.373c-.038-.224-.038-.224.114-.112.19.112.228.15.342,0a28.965,28.965,0,0,1,3.88-4.217,6.618,6.618,0,0,1,.571-.485,2.325,2.325,0,0,1,1.75-.336,1.6,1.6,0,0,1,1.445.784c.647.821.647,1.568.038,3.77m-25.3,22.467c-1.37-3.06-.989-7.352-.952-7.987-.076,0-.114.075-.152.224-.076.15-.494.971-.951,1.791-2.4,4.18-3.956,8.4-3.956,10.6,0,1.307.266,1.419,1.407.71a13.838,13.838,0,0,0,3.576-3.807c.381-.56.762-1.045,1.028-1.53m1.1-7.613a2.6,2.6,0,0,0-.8-.224h-.19a20.24,20.24,0,0,0,.8,6.158,7.989,7.989,0,0,0,.8-2.8,4.811,4.811,0,0,0-.609-3.135m.875,4.479c-.038-.075-.038,0-.038.149s0,.15.038.075q.057-.167,0-.224m1.522,14.966c-.038,0-.076.037-.038.149s.038.149.076.075c0-.112,0-.187-.038-.224m0-1.083c-.038-.075-.038,0-.038.15.038.112.076.186.076.112a.323.323,0,0,0-.038-.261m0,.56c-.038,0-.038.037-.038.149.038.149.038.149.076.075a.225.225,0,0,0-.038-.224m.038-1.008c-.038-.037-.076.037-.038.112.038.15.038.15.076.075,0-.075,0-.186-.038-.186m0-.448s-.038.037,0,.149c0,.112.038.149.076.075,0-.112,0-.187-.076-.224m.038-.41c-.038-.038-.038.037,0,.149,0,.112.038.149.038.038a.161.161,0,0,0-.038-.187m.038-.411c-.038-.037-.038.038-.038.15.038.112.076.149.076.037a.163.163,0,0,0-.038-.187m.266-1.679c-.038-.187-.228.858-.228,1.082.038.112.114-.075.152-.373.038-.336.076-.635.076-.709M256,37.5c.152-.784.343-1.866.457-2.351a.862.862,0,0,0,.076-.3h-.114c-.038.187-.114.448-.152.747-.114.559-.266,1.119-.3,1.269-.038.261-.19,1.007-.266,1.94-.076.635.076,0,.3-1.306m.419,4.217c-.038-.038-.038,0-.076.075a.86.86,0,0,0-.077.3c.038.186.152-.187.152-.373m.152-1.418c0-.112-.038-.112-.076.037a.491.491,0,0,0-.038.336l.038.224.038-.224a1.364,1.364,0,0,0,.038-.373m.076-.672c0-.075-.038-.037-.076.075a.8.8,0,0,0-.038.3c.038.149.152-.187.114-.373m.647-3.172a4.034,4.034,0,0,0-.5,1.679c-.038.3-.114.672-.114.859a.813.813,0,0,0-.038.41,5.691,5.691,0,0,0,.228-.971c.114-.559.3-1.306.381-1.6.115-.336.115-.485.039-.373m-.3,8.808a.2.2,0,0,0-.114-.149c-.114-.112-.114-.075-.038.038.038.112.114.149.152.112m0-1.232a1.029,1.029,0,0,0-.038.522c0,.448.038.373.076-.224.038-.224,0-.373-.038-.3m0,3.21c-.038-.037-.038,0-.038.15.038.149.076.186.076.112a.322.322,0,0,0-.038-.261m.685-10.413c0-.112-.038-.075-.076.075a1.137,1.137,0,0,0-.038.336c.038.112.076.075.076-.037a.684.684,0,0,0,.038-.373m1.978-7.39v.3c0,.3,0,.261.19-.186.229-.522.3-.9.229-.858a1.477,1.477,0,0,0-.114.336c-.152.448-.3.41-.228-.075.152-.971.722-2.351,2.168-5.337.761-1.567,2.016-3.807,2.739-4.964A33.738,33.738,0,0,0,266.73,15.1a3.845,3.845,0,0,1,.381-.709.6.6,0,0,0,.152-.336c0-.075-.266.225-.532.635a13.173,13.173,0,0,0-1.75,3.023c0,.075-.038.15-.076.15-.418.112-3.157,5.113-4.679,8.659-.418.933-1.1,2.836-1.636,4.292a3.918,3.918,0,0,0-.19.858,1.766,1.766,0,0,1-.152.559,1.059,1.059,0,0,0-.076.747c.038-.037.114-.037.19-.075a2.844,2.844,0,0,0,.228-.56,3.412,3.412,0,0,0,.19-.746,6.425,6.425,0,0,1,.685-1.829ZM275.936,6.52c-.076-.859-.228-.933-.875-.448A18.142,18.142,0,0,0,273.2,7.714a1.492,1.492,0,0,1-.381.485c-1.179,1.231-6.125,7.949-6.048,8.248a2.55,2.55,0,0,1-.381.672,3.669,3.669,0,0,0-.418.635c.038.075-.038.224-.114.373-.076.113-.267.448-.419.747-.19.3-.457.784-.647,1.045-.608.933-1.56,2.725-1.217,2.313.3-.373.19-.037-.381,1.083-.3.672-.76,1.6-.989,2.127-1.255,2.836-1.75,3.993-1.9,4.478-.456,1.53-.647,2.277-.685,2.5a3.5,3.5,0,0,0,.57-.336c.038-.038.076-.038.114-.075a24.7,24.7,0,0,0,4.108-4.292c.418-.485.989-1.119,1.294-1.418a38.432,38.432,0,0,0,3.309-4.777c.38-.635.951-1.6,1.331-2.2a36.132,36.132,0,0,0,2.016-3.583c.456-.9.837-1.6.837-1.642a20.92,20.92,0,0,0,1.56-3.1,10.879,10.879,0,0,0,1.179-4.478m-15.71,21.571c-.038.037-.076.112-.038.149,0,.149.076.112.114-.075,0-.075-.038-.112-.076-.075m9.091-6.158c-.3.373-1.1,1.754-.875,1.493a10.858,10.858,0,0,0,.609-.97c.266-.448.38-.672.266-.523m5.82-8.845a.93.93,0,0,1-.266.336c-.076,0-.266.261-.418.559-.647,1.307-3.538,6.233-4.679,8.024-.685,1.045-.3.6.723-.9.875-1.232,2.282-3.508,2.853-4.516.114-.261.456-.859.684-1.269a26.56,26.56,0,0,0,1.217-2.388c.038-.075-.038-.037-.114.15" transform="translate(-101.279 185.4)" fill="#fff"/>
    <path id="パス_297" data-name="パス 297" d="M308.22,49c0,.038.19.448.38.933a6.722,6.722,0,0,1,.457,3.285,4.126,4.126,0,0,1-.494,1.978,10.694,10.694,0,0,1-2.587,3.434,5.745,5.745,0,0,1-2.663,1.455c-.494.112-1.027.3-1.179.336a2.029,2.029,0,0,1-1.408-.037c-.571-.15-1.522-1.045-1.484-1.418a1.578,1.578,0,0,0-.342-.523c-.723-.9-.875-3.694-.3-5.3A16.652,16.652,0,0,1,302.97,46.8l.723-.635-.266-.373c-.152-.187-.228-.411-.19-.448.076-.149.723-.038,1.1.187.3.187.419.224.684.112a1.583,1.583,0,0,1,1.294.112c.38.187,1.179,1.045,1.141,1.269,0,.336,2.283.485,4.984.261a37.986,37.986,0,0,0,5.1-.709h.76c.038,0,.229.038.267.038a.348.348,0,0,1,.19.038.134.134,0,0,1,.076.037.119.119,0,0,1,.076.038h.038l.076.075c-.114,0-.19.037-.266.037-.381.075-.686.15-.647.187a4.062,4.062,0,0,0,.989-.149,4.016,4.016,0,0,0,.076.075c0,.038.038.149.076.149a1.592,1.592,0,0,0,.038.187c-.038-.075,0,.112,0,.149v.261a1.593,1.593,0,0,1-.038.187l-.038.037c0,.037-.038.075-.038.112-.038.037-.038.037-.038.075H319.1c0,.037-.038.075-.076.112h-.038v.038a35.254,35.254,0,0,1-9.967.821,2.565,2.565,0,0,0-.8-.075m-1.066.149c-.266-.448-.342-.485-.685-.485a.848.848,0,0,1-.457-.112c-.038-.075-.152-.112-.267-.149a.375.375,0,0,1-.3-.523c0-.075,0-.149-.076-.112a12.335,12.335,0,0,0-1.75,1.68,2.55,2.55,0,0,1-.418.522,21.284,21.284,0,0,0-2.587,4.292,7.273,7.273,0,0,0-.57,3.993c.076.3.114.3.76.3a4.568,4.568,0,0,0,1.864-.485,8.356,8.356,0,0,0,3.119-2.314c1.788-1.978,2.4-4.852,1.37-6.606m10.309-1.941a1.53,1.53,0,0,0,.495-.149c.114-.075-.685.075-.8.149-.076.038.076.038.3,0" transform="translate(-130.861 163.188)" fill="#fff"/>
    <path id="パス_298" data-name="パス 298" d="M343.582,51.18a5.257,5.257,0,0,0-2.548.448c-2.967,1.082-7.989,3.694-8.179,4.292-.076.149-.266.821-.457,1.493a87.409,87.409,0,0,1-6.429,16.309,39.468,39.468,0,0,1-7.3,10.114c-1.027,1.008-3.88,3.434-4.869,4.142a33.662,33.662,0,0,1-2.816,1.866c-2.853,1.6-4.413,1.978-5.782,1.306a3.836,3.836,0,0,0-.8-.3c-.533-.037-1.635-1.829-1.6-2.539a3.3,3.3,0,0,0-.229-.97c-.152-.448-.228-.746-.152-.821s.076-.187,0-.336c-.152-.3.114-1.455.723-3.135.343-.821.495-1.194.571-1.045.076.075.076.038.076-.149-.038-.149-.038-.261,0-.224a8.044,8.044,0,0,0,.913-1.456c2.283-4.143,6.809-9.517,12.477-14.854a101.792,101.792,0,0,1,13.276-10.487c.684-.448.684-.485.875-1.269a24.912,24.912,0,0,0,.38-8.92l-.076-.522-.571.97c-.3.56-.761,1.269-.951,1.6a7.343,7.343,0,0,1-.685.971c-.608.634-5.135,6.345-5.668,7.128-.532.822-.57.971-.342.822.457-.262-.608,1.082-1.978,2.388a4.4,4.4,0,0,1-2.663,1.642c-.761.112-1.141.038-1.255-.3-.038-.112-.152-.149-.343-.149-.685.112-1.483-1.941-1.369-3.62a20.015,20.015,0,0,1,2.4-6.681,42.832,42.832,0,0,1,4.3-5.859,6.554,6.554,0,0,1,2.777-2.053c.228-.037.647-.112.989-.149a1.731,1.731,0,0,1,1.331.3c1.141.635,1.674,1.045,1.94,1.642l.228.523.609-.672c.418-.522.571-.635.608-.448s.152.075.647-.41c.3-.373.609-.6.685-.56.038.075-.038.224-.152.336-.19.186-.19.261-.076.261.381.037.8.373.8.672-.038.186.038.261.19.261.266.037.418.56.608,2.09a24.185,24.185,0,0,1,.076,6.606c-.076.6-.152,1.082-.152,1.082s.494-.224,1.1-.485a3.982,3.982,0,0,1,1.217-.485,7.209,7.209,0,0,0,2.055-.784,12.625,12.625,0,0,1,4.946-1.045c.684.112,1.521.559,1.407.746a.774.774,0,0,0,.266.3c.533.336.19.447-1.027.41m-13.428,5.971a.321.321,0,0,0-.229.261,7.68,7.68,0,0,1-1.027.9c-.8.635-1.027.709-1.1.56s-.114-.112-.076.037-.038.3-.266.41a2.774,2.774,0,0,0-.457.336c-.076.075-.951.784-1.94,1.53-.989.784-1.978,1.567-2.206,1.791-.19.187-1.484,1.344-2.891,2.538a102.914,102.914,0,0,0-7.38,7.24,13.941,13.941,0,0,1-1.141,1.194c-.114.112-.419.485-.723.859-.266.373-.874,1.082-1.293,1.6s-.875,1.119-1.065,1.343a33.413,33.413,0,0,0-3.576,6.718,11.713,11.713,0,0,0-.685,3.658c.038.709.228.821,1.294.9.989.038,1.179.224.533.41-.228.038-.3.112-.19.112a7.423,7.423,0,0,0,1.978-.6c.38-.261.608-.187.3.112a3.3,3.3,0,0,1-1.56.821c-.456.112-.532.149-.3.187a5.374,5.374,0,0,0,1.218-.224,13.023,13.023,0,0,0,3.233-1.456c.723-.411,1.331-.747,1.331-.747a15.586,15.586,0,0,0,1.522-1.044,35.408,35.408,0,0,0,3.119-2.613c1.6-1.567,1.293-1.343-.836.6-2.092,1.866-5.44,4.031-5.1,3.321.038-.112.114-.187.19-.187a23.511,23.511,0,0,0,2.892-1.829,55.682,55.682,0,0,0,4.907-4.59,18.663,18.663,0,0,0,1.864-2.239c-.3.3-.875.933-1.256,1.381a16.345,16.345,0,0,1-2.472,2.463c-.076-.038-.038-.112.038-.224.114-.075.152-.187.114-.261A4.283,4.283,0,0,0,316,83.2c-.951.933-1.56,1.381-1.636,1.269a13.807,13.807,0,0,1,1.712-1.791A28.239,28.239,0,0,0,320.53,77.6,65.266,65.266,0,0,0,326.2,67.452a67.112,67.112,0,0,0,3.005-7.016c.114-.41.38-1.194.57-1.754.685-1.754.647-1.68.381-1.53m.76-2.165c-.114-.112-1.255.635-1.484.933a.458.458,0,0,1-.38.261,23.791,23.791,0,0,0-4.223,3.023c-.228.224-.38.336-.3.261.076-.15.038-.15-.038-.112a.339.339,0,0,0-.114.187c.076.15-.228.411-.418.336a.388.388,0,0,0-.3.261c-.114.112-.19.224-.229.187-.076-.112-.722.41-.722.634s-.381.485-.647.485c-.114,0-.19.037-.19.075a38.351,38.351,0,0,1-5.4,4.814c-.038-.075-.038-.037,0,0,.114.187-.19.6-.342.522a11.034,11.034,0,0,0-2.282,2.165c-.152.186-.761.9-1.408,1.567-2.206,2.426-4.6,5.337-4.527,5.561.038.075-.076.336-.266.6a2.03,2.03,0,0,0-.342.6c0,.112.038.075.646-.821.457-.6,1.1-1.419,2.815-3.434.342-.41.837-.933,1.1-1.194s1.141-1.157,1.9-1.978c2.13-2.276,6.429-6.27,9.51-8.845,1.293-1.045,3.614-2.8,4.984-3.77.875-.6,1.826-1.269,2.168-1.493.532-.411.722-.672.494-.821m-20.5,34.336c-.038,0-.076.075-.114.186s-.038.187.038.187c.038,0,.114-.075.114-.187s0-.186-.038-.186m.8-.336a.333.333,0,0,0-.229.112c-.038.075,0,.149.038.149a.273.273,0,0,0,.228-.112c.038-.075,0-.149-.038-.149m.912-.448a.866.866,0,0,0-.38.187c-.114.075-.19.186-.114.186a.632.632,0,0,0,.342-.186c.152-.075.19-.15.152-.187m1.978-1.381c-.342.224-.646.448-.685.485-.038,0-.3.187-.609.373a1.769,1.769,0,0,0-.532.41c0,.075.266-.037.608-.261.3-.224.761-.56,1.028-.709a2.853,2.853,0,0,0,.609-.485c.114-.112-.076-.037-.419.187m1.788-1.456c-.038-.038-.3.149-.609.448s-.494.523-.456.56a2.744,2.744,0,0,0,.647-.485c.266-.261.457-.522.418-.522m1.179-1.007a4.427,4.427,0,0,0-1.027.858c0,.149.418-.149.875-.56.229-.261.3-.41.152-.3m1.256-1.269c-.532.485-.571.522-.418.522.038.037.3-.15.494-.411.57-.6.494-.634-.076-.112m.57-1.717.3-.373-.418.336c-.381.373-.457.41-.3.41a1.4,1.4,0,0,0,.418-.373M327.186,47c.609-.6.647-.784.533-2.2a7.857,7.857,0,0,0-.229-1.381c-.19-.261-3.119,2.873-4.907,5.262a32.774,32.774,0,0,0-3.994,7.278c-.114.336-.114.336.152.187a16.953,16.953,0,0,0,1.332-1.27c.532-.6,1.293-1.418,1.712-1.791.38-.373,1.065-1.119,1.522-1.679s.951-1.157,1.141-1.344a18.569,18.569,0,0,0,1.407-1.53c.609-.709,1.18-1.381,1.332-1.53m-6.733,33.328c-.076.075-.57.635-1.065,1.232-.913,1.12-.456.709.723-.6.532-.6.685-.9.342-.635m-.38.858c-.038,0-.114.075-.152.187s0,.187.038.187c.076,0,.114-.075.152-.187a.448.448,0,0,0-.038-.187m1.864-2.239c-.19.112-.19-.187,0-.41.077-.075.077-.075-.038,0-.076.075-.381.448-.647.784-.342.448-.418.634-.342.709.229.112.229.112.152-.037a.316.316,0,0,1,.114-.336c.114-.112.152-.149.228-.037.038.112.076.112.152-.037s.038-.187-.038-.112c-.076.038-.114,0-.076-.112a.252.252,0,0,1,.19-.149c.076.038.191-.037.3-.149q.171-.224,0-.112m-.419-1.045a.41.41,0,0,0,.114-.224c-.038-.037-.114.037-.19.149-.076.15-.038.187.076.075m2.739-2.986c-.038-.037-.19.15-.342.411-.153.3-.609,1.008-.989,1.6s-.723,1.157-.723,1.194.038,0,.114-.075a.393.393,0,0,1,.266-.187c.114,0,.152-.075.152-.224a.172.172,0,0,1,.152-.187c.076.037.114-.038.153-.15a.951.951,0,0,1,.266-.447,1.123,1.123,0,0,0,.3-.6.378.378,0,0,1,.228-.336.426.426,0,0,0,.19-.336.7.7,0,0,1,.152-.448c.114-.075.114-.187.076-.224m-1.141.522c.076-.037.114-.149.076-.186s-.114,0-.152.149c-.076.149-.076.187.076.037m1.56-1.007c0-.037-.038-.037-.114-.075a.167.167,0,0,0-.114.149c0,.075.038.112.114.038a.12.12,0,0,0,.114-.112m.38-2.09c0-.075-.038-.075-.114.037a.731.731,0,0,0-.152.3c0,.075.038.037.114-.038a1.061,1.061,0,0,0,.152-.3m1.294-12.391c.038,0,.114-.075.228-.187a1.946,1.946,0,0,0,.114-.187.446.446,0,0,0-.228.187c-.114.075-.152.187-.114.187m.57,10a3.911,3.911,0,0,0-.457.97c0,.15.114-.075.3-.485.114-.261.19-.485.152-.485m.723-1.419c-.076-.075-.495.9-.495,1.045,0,.038.114-.149.266-.448a2.442,2.442,0,0,0,.228-.6m.609-21.46a4.162,4.162,0,0,0-1.027,1.269,4.179,4.179,0,0,0,.646-.746c.343-.411.495-.672.381-.523m-.19,1.717c-.038,0-.115.075-.228.187-.076.075-.114.149-.076.149s.114-.075.19-.149c.115-.112.153-.187.115-.187m.533,17.579c0-.075-.114.075-.229.373-.419,1.007-.419,1.082-.076.411a2.047,2.047,0,0,0,.3-.784m.418-.9c-.038-.075-.114.075-.19.3-.19.448-.114.523.076.075.114-.187.152-.374.114-.374m7.38-13.585c-.228.075-.266.187-.076.187.038,0,.114-.075.191-.112.038-.075,0-.112-.115-.075m1.141-.447c0-.075-.723.224-.836.336s.152.037.456-.112c.228-.075.38-.187.38-.224m6.239-1.12a6.287,6.287,0,0,0-3.081-.038,21.2,21.2,0,0,0-2.853,1.007c-.076.075.114.038.38-.037.228-.112,1.027-.373,1.75-.6a5.506,5.506,0,0,1,2.587-.3c.875.075,1.293.038,1.217-.037" transform="translate(-133.09 165.634)" fill="#fff"/>
    <path id="パス_299" data-name="パス 299" d="M414.854,48.673c0,.3-.076.373-.533.447a27.054,27.054,0,0,0-7.608,3.77c-1.293.933-1.332.97-1.484,1.679a56.546,56.546,0,0,1-4.26,10.338,90.035,90.035,0,0,1-5.173,7.8c-1.94,2.538-4.946,5.3-6.658,6.121a4.853,4.853,0,0,1-3,.373,5.643,5.643,0,0,1-2.055-2.575c-.3-1.007-.342-2.687-.038-2.948.228-.149.228-.186,0-.186-.114,0-.229-.075-.229-.15a20.287,20.287,0,0,1,2.055-4.516c.494-.858,2.739-4.068,2.815-4.068.038,0,.038.149-.038.3-.038.187.114.075.494-.373a54.2,54.2,0,0,1,4.336-4.553c.8-.709,1.788-1.642,2.245-2.09A7.514,7.514,0,0,1,397.089,57a16.909,16.909,0,0,0,1.521-1.082,31.005,31.005,0,0,1,3.462-2.388c.495-.336.723-.56.8-.859.038-.187.19-.784.3-1.306a14.958,14.958,0,0,0,.533-4.739,23.8,23.8,0,0,0-.266-3.844c-.457-2.837-.609-3.247-1.255-3.247a1.42,1.42,0,0,1-.647-.187,1.383,1.383,0,0,1,.038.41c.076,1.194-.19,1.941-1.217,3.62a7.918,7.918,0,0,0-1.141,2.239,19.947,19.947,0,0,1-2.32,4.068c-.228.3-.761,1.082-1.141,1.717a23.446,23.446,0,0,1-1.674,2.276c-.494.6-1.179,1.456-1.56,1.9a17.281,17.281,0,0,1-3.728,3.359,2.247,2.247,0,0,1-2.587-.112,4.076,4.076,0,0,1-1.864-3.023,11.777,11.777,0,0,1,.495-4.478c.3-1.157.571-1.978,1.636-5,.076-.3.646-1.567,1.217-2.761a18.655,18.655,0,0,0,1.065-2.538,15.343,15.343,0,0,1,1.788-3.732l1.788-2.762c.153-.3.266-.336.837-.336.533,0,.647.038.723.261.038.224.152.261.456.187.342-.075.418-.037.342.149-.038.112-.038.224.038.224.228,0,.381.6.19.9-.076.15-.3.635-.495,1.12a14.513,14.513,0,0,1-1.027,2.127c-.418.746-1.1,2.016-1.521,2.874-.418.821-.951,1.866-1.18,2.276a72.469,72.469,0,0,0-2.815,7.725,23.657,23.657,0,0,0-.837,4.18c.191.15,1.408-.9,2.891-2.463a31.634,31.634,0,0,0,2.663-2.985,7.329,7.329,0,0,1,.647-.747,48.038,48.038,0,0,0,3.386-4.553c.494-.746.723-1.232.685-1.381-.076-.186-.076-.224.038-.075.076.15.228,0,.533-.485a6.69,6.69,0,0,0,.951-1.866,23.744,23.744,0,0,1,1.9-3.172c-.114-.262-.038-.336.266-.784.266-.336.532-.56.8-.56a1.222,1.222,0,0,0,.533-.187c.153-.112.228-.075.3.187.076.224.228.373.342.373a2.757,2.757,0,0,1,.761.822,13.022,13.022,0,0,1,1.75,4.852,29.931,29.931,0,0,1,.38,5.9c-.038.672-.038,1.082.038,1.045.076,0,.8-.411,1.6-.821,1.522-.821,2.13-1.008,1.522-.522-.342.261-.3.261.38,0,.837-.336,1.332-.635.8-.485a4.085,4.085,0,0,0-.494.149c-.077.038-.152,0-.152-.075a2.96,2.96,0,0,1,1.1-.485,4.249,4.249,0,0,1,2.358-.336c1.179.075,1.6.261,1.483.6-.038.149,0,.224.153.224.114,0,.19.112.19.3M387.618,48.3a5.958,5.958,0,0,0,.342-.933c0-.261-.266-.149-.533.187-.19.224-.3.261-.381.112s-.19.038-.418.6a8.591,8.591,0,0,0-.723,2.65.192.192,0,0,1-.114.261,12.164,12.164,0,0,0-.685,4.031c.077,1.791.381,1.754.571-.037a24.633,24.633,0,0,1,1.94-6.868m.418,27.692a23.06,23.06,0,0,0,1.94-1.53,37.019,37.019,0,0,0,4.07-4.627c1.255-1.791,1.636-2.2,1.864-2.277a7.729,7.729,0,0,0,1.217-1.679,59.176,59.176,0,0,0,2.968-5.524,7.454,7.454,0,0,0-1.065,1.791c-.038.149-.114.224-.152.224a6.223,6.223,0,0,1,1.065-2.276A7.049,7.049,0,0,0,400.7,58.6c.951-2.239.951-2.2-.38-1.194a58.761,58.761,0,0,0-9.663,9.442c-2.359,3.1-4.527,7.128-4.717,8.622a5.823,5.823,0,0,0-.038,1.082c.152.336,1.1.075,2.13-.56m14.113-17.579c0-.149-.267.3-.609,1.008a15.388,15.388,0,0,1-1.217,2.09,7.172,7.172,0,0,0-.913,1.418,1.42,1.42,0,0,1-.342.56c-.076,0-.114.112-.114.224a.172.172,0,0,1-.152.187c-.076,0-.114.075-.076.112A3.6,3.6,0,0,1,398,65.43c-.076,0-.114.112-.114.224s-.077.186-.114.149c-.077-.038-.115.037-.115.149.038.149-.038.224-.114.224-.114,0-.153.075-.114.187a1.561,1.561,0,0,1-.342.859c-.228.336-.342.6-.266.6s.114.075.114.224c0,.261-.342.746-.57.746-.076,0,0-.187.19-.336.152-.187.228-.373.152-.448-.076-.037-.228.112-.38.373q-.343.616-.456.224c-.038-.112-.153-.037-.229.187-.19.3-.153.3.038.149.266-.261.3,0,0,.56-.152.336-.229.373-.419.224-.152-.149-.19-.149-.3.037a37.653,37.653,0,0,1-6.353,6.9,5.928,5.928,0,0,1-1.6.821c-.875.262-.875.262-.685.523.342.41,1.217.261,2.4-.373a12.134,12.134,0,0,0,2.054-1.456,5.246,5.246,0,0,1,1.1-.821c.114.075.19.037.228-.038.038-.112,0-.149-.076-.149s.266-.485.837-1.082c.532-.6,1.446-1.642,1.979-2.314a4.42,4.42,0,0,1,1.065-1.232c.076.038.114,0,.076-.075a13.056,13.056,0,0,1,1.331-2.351,29.6,29.6,0,0,0,1.56-2.65,4.563,4.563,0,0,1,.532-.933,2.809,2.809,0,0,0,.342-.56c0-.037.153-.3.3-.6a35.792,35.792,0,0,0,2.092-4.964m-14.8-11.233a.928.928,0,0,0,.19-.41c0-.187-.228-.112-.3.112-.152.41-.076.559.114.3m.3-.971c.076.261.114.261.152,0,0-.112.076-.224.152-.224.038,0,.152.075.152.149a11.4,11.4,0,0,0,1.141-2.724c.038-.075-.114.038-.38.261a5.849,5.849,0,0,0-1.217,2.538m3.881,17.84a.4.4,0,0,0,.228-.224c.114-.112.152-.187.114-.187a.445.445,0,0,0-.228.187l-.114.224m.875-.9.609-.635c.342-.336.609-.634.609-.634,0-.224-.3.037-.723.6Zm.722,11.084a4.155,4.155,0,0,0-.57.634,3.585,3.585,0,0,0,.912-.858c.115-.187-.038-.075-.342.224m5.935-17.914a60.649,60.649,0,0,0-5.554,4.815c-.951.933-1.027,1.157-.152.41.229-.187.723-.635,1.1-1.008.418-.41.761-.634.912-.6a.371.371,0,0,0,.381-.112c.152-.187.152-.224,0-.224-.191,0,.3-.6.836-1.008.419-.3.647-.224.342.15-.152.224-.152.224.076,0a.914.914,0,0,1,.494-.261c.267,0,.3-.15.076-.373-.19-.224,0-.485,1.369-1.456,2.853-2.09,3.5-2.538,3.538-2.724.076-.187-.266.038-3.424,2.388m1.6-14.966a23.8,23.8,0,0,0-1.712,2.762,28.585,28.585,0,0,1-1.864,2.948c-1.9,2.836-1.94,3.023-.038.56a20.68,20.68,0,0,0,1.37-2.015c.229-.448.875-1.642,1.407-2.613a8.017,8.017,0,0,0,.837-1.642m-4.223,17.914c.038-.037.114-.112.114-.149s-.076-.075-.114-.075a.162.162,0,0,0-.152.149c0,.075.076.112.152.075m1.255,8.621c-.152.187-.19.336-.114.261.114-.037.228-.224.3-.373.19-.373.076-.336-.191.112m.267-9.816c-.076-.075-.153-.149-.228-.149s-.076.075-.038.149a.253.253,0,0,0,.191.15c.076,0,.114-.075.076-.15m.114-.261c.114.187.228.15.571-.149.3-.224.3-.224.038-.224-.19-.038-.266.037-.266.187,0,.112-.076.149-.228.112-.114-.037-.152,0-.114.075M399.79,56.7a.322.322,0,0,0,.267-.15c.038-.037-.038-.075-.191-.037-.3.075-.342.187-.076.187m1.369-17.69a1.623,1.623,0,0,1-.228-.261,6.124,6.124,0,0,0-.989,2.09c.038,0,.342-.523.761-1.12a5.884,5.884,0,0,1,.456-.709m-.228,16.832.3-.448-.418.3c-.228.187-.418.373-.418.448,0,.261.228.112.533-.3" transform="translate(-177.012 169.261)" fill="#fff"/>
  </g>
</svg>
