<svg xmlns="http://www.w3.org/2000/svg" width="74.511" height="46.609" viewBox="0 0 74.511 46.609">
  <g id="グループ_311" data-name="グループ 311" transform="matrix(0.996, -0.087, 0.087, 0.996, -0.173, 6.322)">
    <path id="パス_2360" data-name="パス 2360" d="M12.124-20.02a.06.06,0,0,0,.056.056,14.73,14.73,0,0,0,.84-1.484c.056-.14.056-.14-.056-.028A9.071,9.071,0,0,0,12.124-20.02ZM25.032-33.264c.084-.168.112-.168.224-.056s.168.112.252.028a.455.455,0,0,1,.308-.14.518.518,0,0,0,.336-.224A5.26,5.26,0,0,0,26.6-35.84c-.056-.364-.112-.42-.616-.672a2,2,0,0,0-1.2-.252c-.644.028-1.232.308-1.232.56.028.056-.14.2-.336.28-.252.084-.392.2-.392.308.028.084-.056.14-.14.14-.112,0-.168.028-.14.112s-.028.14-.084.112c-.168-.056-.756.588-1.484,1.512-.28.392-.9,1.148-1.344,1.708-1.344,1.652-1.9,2.464-1.6,2.3.056-.028.728-.84,1.512-1.792.784-.98,1.624-1.96,1.848-2.156l.448-.42-.392.448c-.532.588-2.856,3.5-3.36,4.2a1.417,1.417,0,0,0-.336.588A18.047,18.047,0,0,0,19.1-30.492c.7-.924,1.736-2.156,2.3-2.772a4.862,4.862,0,0,0,.98-1.26c-.028-.14.308-.476,1.2-1.26.364-.28,1.232-.728,1.26-.616,0,.028-.084.112-.14.168a.249.249,0,0,0-.14.224.218.218,0,0,1-.084.2c-.028.028-.448.42-.9.9-4.592,4.592-9.464,11.872-14.5,21.644-.476.924-.98,1.9-1.148,2.184-.14.28-.644,1.26-1.12,2.212A17.866,17.866,0,0,1,5.74-6.888l-.224.308.14-.392c.084-.224.42-1.036.756-1.792.588-1.428.644-1.568.476-1.428-.028.028-.084.056-.084.028a13.365,13.365,0,0,1,.9-1.792c.028,0,0,.14-.084.308-.084.14-.14.308-.112.336.084.056.336-.532.28-.644A6.558,6.558,0,0,1,8.708-14c.364-.616.392-.672.336-.448-.028.112,0,.2.056.2s.084-.028.112-.084a1.263,1.263,0,0,1-.028-.364c0-.28.14-.616.784-1.82.2-.336.532-.98.756-1.428.252-.448.728-1.316,1.092-1.932.364-.644.952-1.624,1.316-2.24.336-.588,1.26-2.044,2.016-3.192.756-1.176,1.568-2.408,1.792-2.772a2.236,2.236,0,0,0,.364-.672A4.576,4.576,0,0,0,16.24-27.5c-.112.168-.364.5-.532.756-.2.252-.588.812-.868,1.26s-.7,1.148-.98,1.568a11.445,11.445,0,0,0-.728,1.2c-.392.7-1.6,2.744-1.708,2.856-.056.084-.2.336-.336.588-.112.252-.392.784-.616,1.2s-.784,1.484-1.232,2.324c-.476.9-1.316,2.464-1.876,3.5A75.483,75.483,0,0,0,3.948-5.32c-.084.224-.42.98-.672,1.68-.308.7-.56,1.26-.56,1.232-.056-.028.112-3.5.28-5.012.28-3.164.392-4.2.784-6.86.112-.812.336-2.38.476-3.5.168-1.12.336-2.3.364-2.632a4.2,4.2,0,0,0,.056-.98,5.338,5.338,0,0,1,.084-.9,78.277,78.277,0,0,0,1.4-9.324c.168-2.24.168-2.492.028-2.52a.249.249,0,0,1-.14-.224c-.028-.14-.168-.168-.756-.112-.28.028-.336,0-.336-.2.028-.252-.2-.336-.672-.168-.252.056-.336.168-.532.728-.112.336-.448,1.232-.728,1.932-.476,1.26-1.736,5.208-1.736,5.4.028.224.224.028.336-.336.14-.42.252-.532.14-.084a.57.57,0,0,0-.028.364c.056.084.42.028.5-.084.028-.056.112,0,.2.112.14.168.168.14.392-.2l.224-.364.056.336a9.38,9.38,0,0,1-.14,1.68,39.924,39.924,0,0,1-.7,4.312,1.363,1.363,0,0,0-.112.448,1.716,1.716,0,0,1-.084.532,20.123,20.123,0,0,0-.644,3.388c-.084.7-.308,2.548-.476,4.144C.2-6.272.056-3.976.28-1.26c.168,2.016.448,3.276.84,3.7a.914.914,0,0,1,.224.308c0,.14.5.616.616.616.056,0,.112-.112.112-.2.028-.14.084-.112.224.14a.878.878,0,0,0,.476.392,1.1,1.1,0,0,1,.364.056c.336.112.42-.028.728-1.232A20.755,20.755,0,0,1,4.48.476l.672-1.792S7.084-6.244,7.28-6.72a1.384,1.384,0,0,0,.168-.532c-.028-.308,3.164-6.636,4.844-9.66.28-.476.756-1.4,1.064-2.044.336-.672.728-1.372.84-1.568a13.128,13.128,0,0,0,.728-1.2,82.4,82.4,0,0,1,6.72-9.66c1.372-1.68,3.472-3.864,3.5-3.612,0,.056-.084.5-.168.952C24.78-33.236,24.808-32.9,25.032-33.264ZM2.436-20.02a2.641,2.641,0,0,1,.084-.56c.056-.084.056,0,.028.224a2.146,2.146,0,0,1-.084.56C2.436-19.712,2.408-19.8,2.436-20.02ZM1.176-1.344c-.028.084-.056.056-.084-.056,0-.14,0-.2.056-.168A.546.546,0,0,1,1.176-1.344ZM1.2-2.128c-.028.112-.056.084-.056-.056-.028-.112,0-.168.028-.14A.23.23,0,0,1,1.2-2.128ZM1.6-.952c.028.7.056,1.288.056,1.288a10.56,10.56,0,0,1-.28-2.352c-.028-.9-.084-1.316-.14-1.26-.056.028-.084.2-.084.336.028.168,0,.28-.028.252a25.062,25.062,0,0,1,.112-3.584,10.192,10.192,0,0,0,.056-2.24A34.661,34.661,0,0,0,.812-2.436c0,.448,0,.448-.056.112A51.076,51.076,0,0,1,1.372-11.4a8.458,8.458,0,0,0,.112-.9c.056-.5.448-3.136.7-4.424.14-.7.336-1.82.448-2.464a4.457,4.457,0,0,1,.28-1.148,6.637,6.637,0,0,1-.056.812c-.112.9-.112.9,0,.9a1.586,1.586,0,0,0,.168-.476c.14-.616.2-.448.084.2-.056.28-.168,1.036-.28,1.624A11.721,11.721,0,0,1,2.6-16.044a6.755,6.755,0,0,0-.112,1.036c-.028.5-.084,1.316-.14,1.82-.084.476-.2,1.736-.308,2.8A53.084,53.084,0,0,0,1.6-.952Zm6.3-8.96a3.714,3.714,0,0,1,.252-.5c.14-.224.252-.392.28-.336C8.428-10.64,7.924-9.8,7.9-9.912Zm1.736-3.22a2.139,2.139,0,0,1-.224.448c-.168.112-.084-.112.112-.448l.224-.364Zm1.148-2.156c-.112.252-.168.336-.2.168a.634.634,0,0,1,.14-.28C10.864-15.54,10.864-15.512,10.78-15.288Zm.672-1.316-.2.252.14-.308c.084-.168.168-.28.2-.252S11.564-16.744,11.452-16.6Zm.7-1.988c.056-.056.084-.028.084.028.028.084-.028.112-.084.112C12.04-18.424,12.04-18.508,12.152-18.592Zm.336.2c-.056.112-.14.308-.2.392q-.084.21-.084,0a.491.491,0,0,1,.168-.392C12.572-18.648,12.572-18.648,12.488-18.4Zm2.688-5.068-.224.28.168-.308c.084-.168.168-.28.2-.28C15.344-23.716,15.288-23.6,15.176-23.464Zm6.636-9.128c-.364.448-1.148,1.456-1.764,2.268a15.055,15.055,0,0,1-1.26,1.512A29.341,29.341,0,0,1,21.9-32.76C22.428-33.32,22.4-33.292,21.812-32.592ZM22.9-33.74c-.168.14-.28.252-.28.224,0-.056.112-.168.252-.336.168-.14.28-.224.28-.2A1.265,1.265,0,0,1,22.9-33.74Zm-7.812,8.68a4.7,4.7,0,0,0-.392.644c-.028.028-.308.42-.588.868-.588.9-.812,1.316-.784,1.456,0,.14.224-.2.952-1.372.5-.812.784-1.26,1.652-2.6a3.592,3.592,0,0,0,.532-.9A9.874,9.874,0,0,0,15.092-25.06Zm7.952,7.644a25.47,25.47,0,0,0,7.336-.616v-.028h.028c.028-.028.056-.056.056-.084h.028c0-.028,0-.028.028-.056,0-.028.028-.056.028-.084l.028-.028a1.213,1.213,0,0,0,.028-.14v-.2c0-.028-.028-.168,0-.112a1.213,1.213,0,0,1-.028-.14c-.028,0-.056-.084-.056-.112a.027.027,0,0,1-.028-.028.027.027,0,0,1-.028-.028,2.953,2.953,0,0,1-.728.112c-.028-.028.2-.084.476-.14.056,0,.112-.028.2-.028l-.056-.056h-.028a.087.087,0,0,0-.056-.028.1.1,0,0,0-.056-.028.252.252,0,0,0-.14-.028c-.028,0-.168-.028-.2-.028h-.56a27.45,27.45,0,0,1-3.752.532c-1.988.168-3.668.056-3.668-.2.028-.168-.56-.812-.84-.952a1.143,1.143,0,0,0-.952-.084c-.2.084-.28.056-.5-.084-.28-.168-.756-.252-.812-.14-.028.028.028.2.14.336l.2.28-.532.476a12.5,12.5,0,0,0-3.22,4.76,5.535,5.535,0,0,0,.224,3.976,1.183,1.183,0,0,1,.252.392c-.028.28.672.952,1.092,1.064a1.464,1.464,0,0,0,1.036.028c.112-.028.5-.168.868-.252a4.2,4.2,0,0,0,1.96-1.092,8,8,0,0,0,1.9-2.576,3.142,3.142,0,0,0,.364-1.484,5.134,5.134,0,0,0-.336-2.464c-.14-.364-.28-.672-.28-.7A1.859,1.859,0,0,1,23.044-17.416Zm5.992-1.4c.084-.056.672-.168.588-.112a1.1,1.1,0,0,1-.364.112C29.092-18.788,28.98-18.788,29.036-18.816ZM20.664-12.4a6.163,6.163,0,0,1-2.3,1.736A3.307,3.307,0,0,1,17-10.3c-.476,0-.5,0-.56-.224a5.551,5.551,0,0,1,.42-3,16.019,16.019,0,0,1,1.9-3.22,1.9,1.9,0,0,0,.308-.392,9.163,9.163,0,0,1,1.288-1.26c.056-.028.056.028.056.084a.281.281,0,0,0,.224.392c.084.028.168.056.2.112a.617.617,0,0,0,.336.084c.252,0,.308.028.5.364C22.428-16.044,21.98-13.888,20.664-12.4ZM32.7-9.24a.174.174,0,0,1,.112-.168,9.9,9.9,0,0,0,1.26-1.372,17.166,17.166,0,0,0,1.988-2.632c1.792-2.8,2.044-3.332,2.044-3.78l-.028-.28-.112.2c-.084.084-.112.2-.084.224.084.084-.112.448-.2.392-.056,0-.084,0-.028.056a14.235,14.235,0,0,1-1.512,2.212c-.168.168-.2.2-.168.056a.591.591,0,0,1,.112-.28c.308-.42,1.036-1.54,1.372-2.072a3.657,3.657,0,0,1,.5-.728.247.247,0,0,0,.056-.224c-.056-.14-.168,0-.5.56-.14.252-.308.5-.336.56-.056.056-.14.224-.224.336-.056.112-.112.2-.14.14,0-.028.2-.336.42-.728.224-.336.392-.672.336-.7-.028-.028,0-.084.056-.084.14-.028.56-.812.476-.868-.028-.028-.112.112-.224.308s-.224.364-.28.364a3.217,3.217,0,0,0-.56.784A41.117,41.117,0,0,1,30.352-9.1a6.311,6.311,0,0,1-2.184,1.428l-.364.084-.028-.336a1.079,1.079,0,0,1,0-.448c.112-.14.056-.364-.084-.28-.056.028-.084.028-.084-.028a.128.128,0,0,1,.14-.112c.056,0,.112-.14.168-.392A17.4,17.4,0,0,1,29.2-13.048c.056-.084.2-.392.308-.644s.28-.588.364-.756.308-.56.5-.924c.168-.336.42-.784.532-1.008a8.236,8.236,0,0,0,.448-.868c.14-.252.308-.616.42-.812a1.831,1.831,0,0,0,.168-.644l-.028-.336-.532-.336c-.448-.308-.588-.364-.812-.336-.252.028-.308.084-.672.588a15.466,15.466,0,0,0-1.288,2.408c-.224.476-.5,1.064-.616,1.288a10.332,10.332,0,0,0-.476,1.148c-.14.392-.336.924-.448,1.2-.084.252-.224.672-.28.9-.084.224-.168.588-.224.784a27.455,27.455,0,0,0-.56,3.08,2.451,2.451,0,0,0,.364.532,2.789,2.789,0,0,0,2.268,1.176h.42a6.942,6.942,0,0,0,2.38-1.372A9.076,9.076,0,0,0,32.7-9.24Zm2.8-4.676c.112.028.2.084.224.084a.9.9,0,0,1-.168.056c-.112,0-.2-.028-.2-.084S35.392-13.944,35.5-13.916ZM31.752-22.9c.056.056.112.14.14.168a1.106,1.106,0,0,0,.224.336.526.526,0,0,0,.476.224.966.966,0,0,1,.336.028c.14.168.42-.2.952-1.232a14.686,14.686,0,0,1,1.372-2.184,2.025,2.025,0,0,0,.392-.7.979.979,0,0,1,.084-.336c.056-.112.028-.224-.112-.5-.252-.56-.392-.532-1.092.112a19.627,19.627,0,0,0-2.576,3.332C31.64-23.044,31.612-22.988,31.752-22.9Zm24.7,6.244c-.028,0-.056-.084-.028-.168.028-.168.028-.168-.14.028-.14.168-.14.14.028-.224.252-.476.168-.56-.112-.14-.112.14-.224.28-.28.28s-.14.084-.2.224a6.234,6.234,0,0,1-.5.7c-.224.28-.56.7-.756.98a18.2,18.2,0,0,1-1.4,1.484A31.242,31.242,0,0,1,41.468-6.328a7.3,7.3,0,0,1-3.724.28,3.857,3.857,0,0,1-1.792-.98A3.257,3.257,0,0,1,35.42-9.1a6.007,6.007,0,0,1,.252-1.848,16.218,16.218,0,0,1,.56-1.652c.168-.42.336-.868.364-.98a20.216,20.216,0,0,1,2.716-4.06,42.062,42.062,0,0,1,3.528-3.472,2.368,2.368,0,0,0,.392-.252,8.854,8.854,0,0,1,.924-.588c.308-.168.756-.42.98-.56A3.02,3.02,0,0,1,46.9-23.1c.7,0,1.092.168,1.176.448a4.921,4.921,0,0,1,.056.756c0,.5-.028.616-.532,1.624a19.1,19.1,0,0,1-2.352,3.556,5.613,5.613,0,0,1-1.4,1.26,1.726,1.726,0,0,1-.392-.28.988.988,0,0,0-.84-.252h-.5l-.028.336a1.41,1.41,0,0,0,.644,1.148,2.05,2.05,0,0,0,2.24.2,9.255,9.255,0,0,0,2.464-2.716,13.181,13.181,0,0,0,.812-1.288,4.9,4.9,0,0,1,.364-.644,7.666,7.666,0,0,0,.644-1.512c.28-.868.308-.9.224-1.4A2.082,2.082,0,0,0,48.44-23.38a3.762,3.762,0,0,0-3.08-.364,7.769,7.769,0,0,0-3.136,1.428.737.737,0,0,1-.448.252c-.252-.056-1.932,1.54-3.192,2.968a19.256,19.256,0,0,0-4.4,7.812,4.687,4.687,0,0,0,.644,3.976c.112.168.336.532.5.784a5.409,5.409,0,0,0,3,1.848,7.061,7.061,0,0,0,2.3-.056c.2-.028.616-.112.924-.168a18.551,18.551,0,0,0,5.6-2.3c.224-.2,1.008-.728,1.736-1.2.7-.476,1.764-1.232,2.324-1.68a17.592,17.592,0,0,0,3.276-3.22,5.273,5.273,0,0,1,.756-1.036,9.343,9.343,0,0,0,.98-1.4C56.5-16.3,56.588-16.66,56.448-16.66Zm-18.032-1.6c.2-.224.308-.308.224-.2-.224.392-.644.812-.644.728A2.534,2.534,0,0,1,38.416-18.256ZM37.38-16.912c.14-.14.2-.2.14-.112-.112.252-.392.588-.392.476A1.652,1.652,0,0,1,37.38-16.912Zm-.336.588s-.084.14-.2.308c-.112.14-.2.224-.2.2C36.652-15.9,37.044-16.408,37.044-16.324ZM34.776-11.76c-.056.224-.168.672-.224.98l-.112.588.028-.532a4.407,4.407,0,0,1,.224-1.12,14.513,14.513,0,0,1,1.428-3.108c.14-.14-.028.308-.392.952A19.173,19.173,0,0,0,34.776-11.76Zm18.48-.5a21.214,21.214,0,0,1-1.68,1.652c-.112.056-.448.336-.784.588-.336.28-.9.7-1.26.98-.756.5-1.008.672-.728.42a.734.734,0,0,0,.168-.224,5.93,5.93,0,0,1,1.484-1.288c.42-.336.868-.7,1.008-.812s.308-.2.336-.168.028.028.028-.028c-.028-.028.168-.28.448-.532.252-.28.84-.9,1.316-1.372.56-.616.84-.84.84-.728A5.863,5.863,0,0,1,53.256-12.264Zm1.9-2.352c-.2.336-.476.672-.476.56a5.013,5.013,0,0,1,.616-.84C55.328-14.9,55.272-14.784,55.16-14.616ZM69.72-16.38a3.755,3.755,0,0,0,.5-.784,6.142,6.142,0,0,1,.644-.924c.42-.5.56-.7.308-.5-.084.084-.112.084-.112-.028a.582.582,0,0,1,.14-.336c.28-.392,0-.28-.42.168-.392.42-.364.392.112-.224a2.706,2.706,0,0,0,.532-.756c-.056-.056-.476.42-1.372,1.4-.224.252-.728.784-1.12,1.176-.364.392-.84.868-1.008,1.092A22.88,22.88,0,0,1,66-14.336c-.28.224-.84.672-1.232,1.036-.728.588-.98.756-.756.476.112-.14.084-.14-.056-.028a2.724,2.724,0,0,0-.756.672c0,.112-.42.448-.588.448a4.569,4.569,0,0,0-.784.42,11.962,11.962,0,0,1-5.348,1.988c-.784.084-1.624-.168-1.624-.476a2.53,2.53,0,0,1,.532-.308,19.654,19.654,0,0,0,4.284-2.464,10.887,10.887,0,0,0,2.24-2.3,4.072,4.072,0,0,0,.784-1.96c.084-.672-.168-1.176-.98-1.96a3.492,3.492,0,0,0-1.764-1.064c-.2-.028-.56-.112-.812-.168a1.52,1.52,0,0,0-.7-.028c-.252.028-.812.56-1.428,1.316-.252.28-.532.616-.672.756a19.671,19.671,0,0,0-2.38,3.78,5.556,5.556,0,0,0-.56,3.556c.028.112,0,.2-.168.252-.252.14-.252.2.028.252.168.028.308.14.448.392.392.672,1.932,2.016,2.156,1.876a.316.316,0,0,1,.28.084,8.213,8.213,0,0,0,4.172-.672c.112-.056.588-.308,1.036-.56a23.119,23.119,0,0,0,3.668-2.436c.532-.448,3.752-3.724,4.144-4.256A6.475,6.475,0,0,0,69.72-16.38ZM55.692-13.328a21.539,21.539,0,0,1,2.492-3.724c1.176-1.456,1.68-1.792,2.352-1.624.476.14.588.252.644.616a3.83,3.83,0,0,1-.588,1.9,22.382,22.382,0,0,1-2.3,2.38,4.91,4.91,0,0,0-.644.532,15.135,15.135,0,0,1-1.736,1.26c-.98.672-1.064.728-1.064.7A11.948,11.948,0,0,1,55.692-13.328ZM67.116-14a7.416,7.416,0,0,1-.672.7c-.308.308-.252.224.2-.28C67.284-14.308,67.536-14.5,67.116-14Z" transform="translate(-0.001 36.674)" fill="#fff"/>
  </g>
</svg>
