<svg xmlns="http://www.w3.org/2000/svg" width="120.538" height="58.406" viewBox="0 0 120.538 58.406">
  <path id="パス_320" data-name="パス 320" d="M.154,32.915A2.324,2.324,0,0,1,0,31.73a8.477,8.477,0,0,1,.258-2.164c.1-.078.1.1,0,.644a6.271,6.271,0,0,0-.051,1.443l.077.825v-.593a25.006,25.006,0,0,1,.7-4.56c.051-.258.129-.593.18-.773.1-.464.721-2.679,1.056-3.71.258-.876.954-2.809,1.675-4.792.592-1.6,1.932-4.638,3.143-7.111a.736.736,0,0,0,.1-.283c0-.026.1-.206.206-.413.1-.232.18-.412.18-.412,0-.051.8-1.572,1.288-2.422A5.855,5.855,0,0,0,9.2,6.635a1.793,1.793,0,0,0-.18.284c-.1.18-.206.258-.206.232a2.048,2.048,0,0,1,.309-.669c.18-.335.464-.8.619-1.057s.335-.567.412-.669a2.633,2.633,0,0,0,.49-.9,8.514,8.514,0,0,1,1.469-1.7c.386-.335.463-.361.721-.361.18.026.335,0,.335-.026a1.21,1.21,0,0,1,.541.18c.825.413.876.7.258,1.443a8.4,8.4,0,0,0-.748,1c-.18.284-.541.773-.8,1.134a47.93,47.93,0,0,0-2.6,4.586,41.99,41.99,0,0,0-2.061,4.2c-.128.335-.334.8-.438,1a7.244,7.244,0,0,0-.309.7c-.077.18-.155.335-.206.335a1.164,1.164,0,0,0-.232.67c.026.026-.026.155-.1.283-.051.129-.129.258-.129.284a1.56,1.56,0,0,1-.206.515,9.726,9.726,0,0,0-.386.979c-.129.386-.361.979-.49,1.34-.438,1.237-1.056,2.988-1.108,3.22-.026.129-.078.258-.1.258-.051,0-.077.128-.1.309a5.007,5.007,0,0,1-.386,1.237,1.1,1.1,0,0,0-.051.283,5.577,5.577,0,0,1-.438,1.443.263.263,0,0,0-.051.232c0,.078-.026.129-.077.129-.078,0-.078.026,0,.051.077.051.077.155-.078.49-.077.232-.18.49-.206.592,0,.078-.078.387-.129.67a10.682,10.682,0,0,0-.206,1.211,8.265,8.265,0,0,1-.155.9c-.051.077-.051.154,0,.154a.6.6,0,0,0,.155-.283,3.981,3.981,0,0,1,.257-.619c.078-.18.155-.361.18-.438s1.057-2.886,1.185-3.144a.593.593,0,0,0,.052-.206,10.528,10.528,0,0,1,.9-2.112c.129,0,.129.1-.026.438a9.693,9.693,0,0,0-.644,1.829c0,.051.051-.051.129-.206a2.019,2.019,0,0,1,.206-.412,15.034,15.034,0,0,0,.8-1.881c.257-.644.824-1.906,1.366-2.989.206-.412.515-1.082.7-1.52a16.977,16.977,0,0,1,1.056-2.164c.1-.155,1.623-2.886,1.6-2.911-.051-.026-1.906,3.246-2.216,3.891-.129.257-.541,1.185-.953,2.035a15.863,15.863,0,0,1-.773,1.6c-.026.051-.077.206-.155.361a6.093,6.093,0,0,1-.361.8c-.155.309-.335.67-.412.85-.129.207-.18.284-.258.232a6.839,6.839,0,0,1,.928-2.164,2.545,2.545,0,0,0,.18-.438,7.2,7.2,0,0,1,.67-1.34.32.32,0,0,0,.1-.206.291.291,0,0,1,.078-.18c.026-.052.128-.258.206-.464A28.09,28.09,0,0,1,9.454,15.5a.506.506,0,0,0,.1-.206,3.731,3.731,0,0,1,.257-.567,1.287,1.287,0,0,0,.232-.567c-.026-.077-.026-.1.026-.077.077.051.155-.052.257-.232.1-.155.129-.257.078-.232s-.078,0-.051-.051a.141.141,0,0,1,.128-.078c.052,0,.078-.026.052-.051-.078-.1.1-.438.206-.386.026.026.077,0,.1-.052.026-.026,0-.051-.051-.051s.026-.18.155-.386.361-.619.541-.9c.335-.567,1.056-1.572,2.6-3.71C17.467,3.39,19.838.761,21.151.169c.464-.18.515-.206.85-.129.387.078.464.155.464.386,0,.129.051.129.335.129.335,0,.335,0,.567.413a1.543,1.543,0,0,1,.232.979,18.238,18.238,0,0,1-.979,4.406c-.155.438-.335,1.082-.413,1.391-.1.335-.283.953-.438,1.366a24.693,24.693,0,0,0-.8,2.705,1.047,1.047,0,0,1-.077.257,3.065,3.065,0,0,0-.155.541c-.18.748-.773,2.731-.85,2.886-.026.051-.1.1-.155.077-.026-.026-.077.026-.077.1a.261.261,0,0,0,.1.18.157.157,0,0,1,.026.155c-.026.077-.257,1-.515,2.087-.592,2.525-.618,2.68-.8,2.653-.078-.026-.129.026-.129.129a.283.283,0,0,0,.1.232.375.375,0,0,1,.026.257c-.026.129.1-.051.309-.412.18-.387.335-.7.335-.722a.2.2,0,0,1,.128-.128c.052-.052.129-.129.129-.206a17.138,17.138,0,0,1,1.752-2.989.217.217,0,0,0,.1-.18,14.441,14.441,0,0,1,2.37-3.014c.334-.335.85-.593.927-.49.051.051.077.051.1,0s.18-.026.438,0c.361.077.361.1.335.283l-.051.207.361-.052.386-.051.258.386c.412.619.463,1.185.309,3.35a9.168,9.168,0,0,1-.309,2.551c-.078.026-.1.077-.026.18a.474.474,0,0,1,.026.386c-.026.129-.052.515-.078.825,0,.618-.1,1.082-.232,1.159-.129.052-.1.284.051.413.1.1.1.257.1.953a3.1,3.1,0,0,0,.026.85c.051,0,.051.052.026.155a.508.508,0,0,0,.026.232,11.021,11.021,0,0,0,2.731-1.314c.515-.386.619-.386.876-.1a1.476,1.476,0,0,1,.206.309,5.722,5.722,0,0,1-1.082,1.34c-.18.1-.309.257-.309.335a.068.068,0,0,1-.077.077,6.034,6.034,0,0,0-.644.258c-.592.232-1.16.335-1.262.18a.094.094,0,0,0-.129-.052,2.152,2.152,0,0,1-.9-.334c-.129-.1-.258-.155-.284-.129a2.811,2.811,0,0,1-.9-.85c0-.078-.052-.1-.078-.1-.1,0-.335-.463-.335-.7,0-.257.155-.18.207.129.077.361.154.361.154-.026,0-.155.026-.748.026-1.288.026-.541.026-1.185.026-1.468,0-.438-.026-.464-.129-.335-.155.309-.206.077-.077-.8.051-.464.18-1.34.232-1.984a10.621,10.621,0,0,1,.18-1.211,14.177,14.177,0,0,0,.051-2.113c-.026-.1-.051-.1-.232,0-.1.078-.18.155-.18.18a5.826,5.826,0,0,1-.593.773c-.309.412-.592.747-.592.773s-.232.387-.515.825c-.619.979-1.855,3.221-2.138,3.891-.129.283-.335.747-.49,1.031a7.2,7.2,0,0,0-.387.876,1.061,1.061,0,0,1-.232.412c-.077.052-.1.1-.077.129a.163.163,0,0,1,0,.155c-.052.1-.052.129-.129.026q-.077-.116-.077.077c0,.1-.026.232-.078.258a.235.235,0,0,0-.026.206.208.208,0,0,1-.078.284c-.077.051-.128.1-.1.129a10.763,10.763,0,0,1-.747,1.906,8.173,8.173,0,0,0-.773,2.061c-.051.361-.335.618-.567.541-.052-.026-.1-.026-.1,0,0,.051-.129.051-.284,0s-.257-.1-.257-.155-.077-.129-.155-.206c-.155-.129-.284-.155-.206-.052a.064.064,0,0,1-.026.1c-.026.026-.155-.077-.284-.232a.8.8,0,0,0-.386-.284c-.129-.026-.155-.1-.18-.309a5.028,5.028,0,0,1,.309-1.623c.1-.052.077.232-.052,1a2.178,2.178,0,0,0-.077.7c.051.051.257-.413.257-.593a1.209,1.209,0,0,1,.129-.412,18.156,18.156,0,0,0,.412-2.061c-.026-.361.026-.644.1-.593.051.026.078-.026.026-.232-.026-.18-.026-.309.026-.309a7.644,7.644,0,0,0,.49-2.447c0-.257.026-.361.052-.284.077.1.128-.026.232-.567.026-.257,0-.335-.078-.335-.051,0-.051-.026.052-.1q.116-.078.155-.464c0-.206.026-.413.077-.438a.648.648,0,0,0,.078-.361c0-.18.026-.309.051-.309.077,0,.155-.438.077-.463-.051-.026,0-.155.052-.284a1.372,1.372,0,0,0,.154-.49,4.084,4.084,0,0,1,.207-1.16,7.985,7.985,0,0,0,.232-.979,1.879,1.879,0,0,1,.18-.748c.078-.051.1-.128.078-.154a.8.8,0,0,1,.051-.387,2.652,2.652,0,0,0,.18-.644c.18-.7,1.082-3.607,1.778-5.617a18.175,18.175,0,0,0,1.082-3.865.8.8,0,0,1,.078-.463,12.965,12.965,0,0,0,.438-1.958c0-.128-.1-.077-.592.387a62.152,62.152,0,0,0-7.7,9.867c-.335.515-.8,1.237-1.056,1.6a11.259,11.259,0,0,0-.8,1.314,3.972,3.972,0,0,1-.438.67c-.129,0,.026-.67.206-.928a5.575,5.575,0,0,0,.309-.567,4.818,4.818,0,0,1,.85-1.314,3.982,3.982,0,0,0,.464-.7,9.041,9.041,0,0,1,.876-1.365,2.246,2.246,0,0,0,.335-.515,2.3,2.3,0,0,1,.361-.515c.283-.309,1.906-2.5,1.906-2.576a1.082,1.082,0,0,1,.232-.361,8.918,8.918,0,0,0,.721-.9,5.436,5.436,0,0,1,.567-.67c.026-.051.463-.567.979-1.185.49-.592.979-1.159,1.082-1.262s.541-.541.953-.979c.9-.9.593-.773-.541.284-2.216,2.061-6.08,7.188-8.966,11.826-.8,1.288-2.19,3.839-2.628,4.792-.155.309-.335.7-.413.8a.689.689,0,0,0-.155.361,3.383,3.383,0,0,1-.361.722,6.12,6.12,0,0,0-.361.7.931.931,0,0,1-.129.335,7.421,7.421,0,0,0-.361.824,10.308,10.308,0,0,1-.567,1.237c-.412.773-.438.954-.026.284.155-.257.335-.592.412-.721a4.766,4.766,0,0,0,.387-.9,3.454,3.454,0,0,1,.438-.928c.077-.155.18-.309.206-.386.052-.1.078-.129.129-.051.026.051.18-.206.386-.644a2.861,2.861,0,0,1,.438-.747c.155-.052.1.1-.258.876-.257.49-.412.747-.541.8s-.129.052-.026.052c.129,0,.129.026.051.206-.18.361-.309.515-.386.438-.026-.051-.051-.051-.077.026a.112.112,0,0,0,.026.128c.077.026.051.18-.078.515-.155.438-.824,1.984-1,2.37a6.294,6.294,0,0,0-.334.85,5.327,5.327,0,0,1-.361.85.766.766,0,0,0-.1.284.789.789,0,0,1-.129.335,1.072,1.072,0,0,0-.1.309,9.56,9.56,0,0,1-.463,1.391c-.026.078-.129.361-.232.644-.1.309-.206.593-.232.67s-.206.644-.361,1.237-.335,1.211-.386,1.34a3.255,3.255,0,0,0-.155.592c-.051.361-.078.387-.309.464a4.569,4.569,0,0,1-.541.078c-.18,0-.284.026-.284.1,0,.1-.1.1-.592.026a2.8,2.8,0,0,1-1.34-.67c0-.051-.077-.1-.18-.1S.257,33.121.154,32.915Zm.7-1.211A5.937,5.937,0,0,1,1,30.8a4.628,4.628,0,0,1,.206-.567,2.043,2.043,0,0,0,.155-.748c.026-.618.232-1.314.387-1.314.1,0,.128.077.077.335V28.9c.1.077.49-.129.49-.232a14.615,14.615,0,0,1,.592-2.112c.155-.49.335-1.056.387-1.288.077-.232.18-.567.232-.722.155-.386.155-.438-.026-.386-.078.026-.1,0-.078-.051A.142.142,0,0,1,3.58,24c.078,0,.18-.257.361-.721a7.813,7.813,0,0,1,.309-.825.36.36,0,0,0,.078-.232c0-.051.232-.825.541-1.675.8-2.164.876-2.37.721-2.216-.1.18-.18.052-.051-.18.051-.128.128-.18.18-.18.051.026.1,0,.1-.051a1.015,1.015,0,0,1,.052-.18c.026-.129.026-.129-.078,0-.206.232-.232.077-.051-.284.18-.335.257-.644.155-.644-.052,0-.078-.078-.078-.129,0-.129.026-.1.129,0a.6.6,0,0,1,.077.464l-.051.309.155-.257c.232-.361.335-.979.206-1.031-.051-.051-.051-.078,0-.078s.129-.077.155-.155.206-.438.386-.8c.464-.876.593-1.16.542-1.185,0-.026-.1.1-.18.309-.1.18-.258.463-.335.618l-.129.258-.026-.309v-.309l-.1.206c-.1.18-.1.207,0,.284.155.155.155.155-.1.284-.232.1-.412.335-.206.283.129-.077.129-.026,0,.309-.155.284-.283.386-.283.155,0-.051-.078.026-.207.232a.831.831,0,0,0-.128.464c.026.1.026.129-.052.1q-.077-.039-.077.077c0,.051.026.1.077.1s.078.026.078.1c0,.052-.026.1-.078.1a.082.082,0,0,1-.077-.077c0-.181-.232.1-.284.361-.026.18-.026.206.052.18s.051,0-.026.051c-.1.077-.18.129-.18.155A1.158,1.158,0,0,1,5.1,18.1c-.18.438-.206.49-.129.7.026.129.1.206.155.18.155-.026.052.541-.155.928a1.4,1.4,0,0,0-.155.412.424.424,0,0,1-.128.232c-.129.155-.129.155-.078,0,.129-.515.232-.8.309-.8.051,0,0-.078-.129-.18s-.232-.18-.232-.155a7.746,7.746,0,0,0-.361.953c-.18.541-.413,1.134-.464,1.34a4.8,4.8,0,0,0-.206.67,4.646,4.646,0,0,1-.155.567c-.1.18-.1.284-.026.309a1.878,1.878,0,0,1-.258,1.16.462.462,0,0,0-.154.257c0,.078-.026.129-.078.129s-.077.026-.051.051c.051.026,0,.1-.052.155a2.59,2.59,0,0,0-.309,1.237c.026.155.026.18-.026.078-.052-.129-.078-.129-.129.051-.026.1-.026.232.026.258a.489.489,0,0,1-.078.335.848.848,0,0,0-.128.463c0,.232-.155.593-.284.593-.155,0,0-1.211.232-1.778.1-.257.284-.747.387-1.031s.206-.618.257-.747.051-.232,0-.232c-.077,0-.026-.207.155-.7.051-.18.078-.309.026-.361s-.077.026-.129.18a.6.6,0,0,1-.18.335c-.1.077-.1.051-.051-.155.026-.129.026-.232,0-.207A37.9,37.9,0,0,0,1.236,28.02c-.129.644-.18,1.056-.1.876.051-.129.18-.129.18.026,0,.051-.051.1-.155.129C.953,29.1.824,29.875.8,31.214.8,32.039.8,32.142.849,31.7Zm.052.7c-.026-.077-.026-.026-.026.129,0,.129,0,.18.026.1A.358.358,0,0,0,.9,32.4Zm1.262-3.272c-.026-.129-.051-.129-.18.1a.762.762,0,0,1-.284.335c-.1.051-.155.128-.128.18a4.97,4.97,0,0,1-.078.85,5.44,5.44,0,0,0-.051,2.035c.051.515.155.464.18-.077a.624.624,0,0,1,.077-.361,8.9,8.9,0,0,0,.284-1.984,2.247,2.247,0,0,1,.1-.721A.91.91,0,0,0,2.163,29.128Zm-.541-3.864c0,.077.026.1.051.026a.118.118,0,0,0,0-.129C1.648,25.134,1.622,25.186,1.622,25.263Zm.49,6.492a.092.092,0,0,0-.026.052.082.082,0,0,0,.077.077c.051,0,.077-.026.051-.077A.2.2,0,0,0,2.112,31.755Zm.051-8.322c0,.077.026.1.051.051s.026-.128,0-.128C2.189,23.33,2.163,23.357,2.163,23.434Zm.077-.284c0,.078.026.1.052.052s.026-.129,0-.129C2.267,23.047,2.24,23.073,2.24,23.15Zm.464-.257a.1.1,0,0,0,.1-.1c.077-.155.077-.309,0-.283C2.7,22.558,2.627,22.893,2.7,22.893Zm.078-1.185a.343.343,0,0,0,.077-.206c0-.078-.026-.051-.077.026C2.7,21.733,2.7,21.837,2.782,21.708Zm.155.954c-.078.257-.052.438.051.438.026,0,.1-.1.155-.257a7.216,7.216,0,0,0,.541-1.7,4.36,4.36,0,0,1,.438-1.211,7.8,7.8,0,0,0,.644-1.7c-.051-.078.078-.464.619-1.881a5.011,5.011,0,0,0,.283-.876c-.128,0-.077-.129.129-.361l.232-.232-.232.155c-.309.206-.567.748-.386.825.1.026.077.051-.026.284-.129.335-.309.49-.232.232C5.2,16.22,5.2,16.22,5.1,16.3a5.858,5.858,0,0,0-.592,1.443c0,.129,0,.129.077.051.129-.18.18-.026.051.232-.1.257-.206.335-.206.128,0-.257-.386.541-.592,1.237a8.936,8.936,0,0,1-.284.876c-.051.077-.206.541-.386,1.056-.232.67-.284.927-.206.953C3.014,22.326,3.014,22.4,2.937,22.661Zm1.572-5.746c0,.026.026,0,.077-.051a.548.548,0,0,0,.078-.18c0-.026-.052-.026-.078.051A.279.279,0,0,0,4.508,16.915Zm.7-.85c0,.078.026.1.051.052s.026-.129,0-.129C5.229,15.962,5.2,15.988,5.2,16.065Zm0,2.809c0-.181.1-.387.206-.387.051,0,.1.026.1.052C5.512,18.642,5.2,18.951,5.2,18.874ZM5.925,14.7c.026-.077,0-.155-.026-.155s-.078.078-.1.18C5.77,14.932,5.874,14.906,5.925,14.7Zm.051-.412c0,.129.155.155.258.026a.356.356,0,0,0,0-.232c-.026-.1,0-.18.1-.206.129-.052.155-.232,0-.232C6.209,13.643,5.976,14.056,5.976,14.288Zm1.16-2.216a1.065,1.065,0,0,0,.18-.284c0-.128-.232.129-.284.309C6.981,12.252,6.981,12.252,7.136,12.072ZM7.11,14.03a.409.409,0,0,0-.078.207c.078.077.18-.026.18-.18S7.213,13.9,7.11,14.03Zm.412-3.014c0,.026.051.026.078.026a2.025,2.025,0,0,0,.283-.438c.129-.232.258-.515.309-.593.026-.077.051-.18.026-.18A6.261,6.261,0,0,0,7.522,11.016Zm.309,1.52c-.078-.052-.232.051-.18.128.051.052.077.052.155,0C7.832,12.638,7.857,12.561,7.832,12.536Zm.026-.232a.082.082,0,0,0,.078-.077.05.05,0,0,0-.078-.026C7.754,12.252,7.754,12.3,7.857,12.3Zm.155.464c0-.051-.051-.026-.077.026a.342.342,0,0,0-.078.18c0,.052.026.026.078-.026A.934.934,0,0,0,8.012,12.767Zm-.077,6.879c0,.026.026.026.077-.051a.863.863,0,0,0,.077-.155c0-.051-.051-.026-.077.026A.279.279,0,0,0,7.935,19.646ZM8.166,8.156a1.241,1.241,0,0,1,.257-.386c.129-.129.129-.1.052.051a1.747,1.747,0,0,1-.413.619C8.038,8.439,8.063,8.31,8.166,8.156ZM8.089,19.311c0,.026.464-.8,1.031-1.855.593-1.031,1.392-2.473,1.8-3.194.438-.7,1.056-1.7,1.391-2.216.361-.515.8-1.185,1-1.52.206-.309.592-.876.85-1.237.283-.413.386-.593.257-.49a1.151,1.151,0,0,0-.309.386,2.683,2.683,0,0,1-.309.438,1.684,1.684,0,0,0-.309.438c-.129.207-.567.876-1.391,2.087-.129.181-.438.67-.67,1.057-.232.412-.567.953-.747,1.211-.335.541-.49.824-1.675,3.065C8.5,18.461,8.089,19.286,8.089,19.311Zm.155-7.806c-.1.051-.1.1,0,.1a.082.082,0,0,0,.078-.077C8.321,11.48,8.269,11.48,8.244,11.505ZM8.321,9.65c.051-.051.077-.1.051-.1-.026-.026-.077,0-.1.078C8.244,9.727,8.244,9.727,8.321,9.65Zm.155-.361c0,.1.051.077.1-.026.026-.078,0-.1-.026-.078A.138.138,0,0,0,8.476,9.289Zm.232,1.417c0,.051.077-.026.155-.18a3.174,3.174,0,0,0,.155-.309c0-.026-.078.052-.155.155A.917.917,0,0,0,8.707,10.706Zm2.216,4.612c0,.077,0,.155.051.155.026,0,.052.026.052.077,0,.026-.052.052-.1.026a.185.185,0,0,0-.155.078c-.077.155-.051.18.026.129.18-.1.051.154-.567,1.288-.335.644-.721,1.366-.85,1.623-.155.361-.232.438-.284.361-.077-.078-.077-.078-.026.077.026.18-.051.258-.155.155-.129-.1-.051-.412.206-.9.129-.309.284-.515.335-.515a1.139,1.139,0,0,0,.207-.413,2.563,2.563,0,0,1,.438-.824,1.783,1.783,0,0,0,.309-.515,3.5,3.5,0,0,1,.515-.928C10.949,15.189,10.949,15.241,10.923,15.318Zm-1.6-8.94c0,.077.026.051.155-.18.077-.155.077-.155-.026-.026A.375.375,0,0,0,9.326,6.378Zm.824,8.528s.155-.232.309-.489a1.873,1.873,0,0,0,.232-.49,2.2,2.2,0,0,0-.309.49A1.533,1.533,0,0,0,10.15,14.906Zm.979-2.447c0,.1.051.078.1-.051.026-.051,0-.077-.026-.051C11.155,12.355,11.129,12.407,11.129,12.458Zm.567-.1a2.136,2.136,0,0,0,.284-.438c.232-.386.051-.206-.206.206C11.67,12.33,11.619,12.432,11.7,12.355Zm.49-.773a.585.585,0,0,0,.18-.18c.1-.206.026-.18-.128.051C12.16,11.557,12.16,11.608,12.185,11.582Zm.309-.412a1.508,1.508,0,0,0,.18-.206c.1-.18.026-.155-.129.051C12.469,11.118,12.469,11.17,12.495,11.17ZM14.17,8.723a1.119,1.119,0,0,0,.283-.309c.129-.18.232-.309.207-.309a1.117,1.117,0,0,0-.284.309C14.247,8.594,14.144,8.723,14.17,8.723Zm.618-.335a9.738,9.738,0,0,0,.644-.8c.541-.721.644-.954.129-.309A7.146,7.146,0,0,0,14.788,8.388Zm.207-.748c0,.026.026.052.026.026.026,0,.077-.077.128-.154.129-.129.129-.155,0-.052C15.071,7.512,14.994,7.589,14.994,7.64Zm.361,17.8a2.822,2.822,0,0,1,.206-.721c.077,0,.077.077-.051.773-.181.876-.181.927-.284.927-.051,0-.051-.077-.026-.128C15.2,26.216,15.277,25.856,15.355,25.444Zm.051-18.318c.026,0,.077-.051.155-.128.051-.052.077-.1.051-.1a.229.229,0,0,0-.129.1C15.432,7.074,15.38,7.125,15.406,7.125ZM16.025,22.4c.077,0,.077.1-.052.67-.1.49-.206.953-.232,1.134s-.18.412-.18.309c0-.026.051-.361.129-.7.077-.386.18-.85.206-1.031A.748.748,0,0,1,16.025,22.4ZM15.741,6.764c.077-.077.129-.155.1-.18a.521.521,0,0,0-.128.129C15.612,6.868,15.612,6.868,15.741,6.764ZM16,26.86c0-.026-.051,0-.1.077s-.129.18-.1.232C15.792,27.3,16,26.989,16,26.86Zm1.185-4.432c.129-.7.284-1.366.309-1.52.051-.155.051-.309.026-.309,0-.026-.026,0-.026.051a.669.669,0,0,1-.155.206c-.129.1-.18.258-.206.593a2.412,2.412,0,0,1-.1.515,1.029,1.029,0,0,0-.1.515c-.026.464-.155.593-.206.232l-.052-.206-.051.232c-.026.1-.18.954-.361,1.881S15.921,26.4,15.9,26.5c-.026.129,0,.18.051.155a.3.3,0,0,0,.078-.18c0-.052.026-.155.077-.155.026-.026.051.026.026.155-.077.335,0,.257.18-.18a1.9,1.9,0,0,0,.18-.954c0-.284-.077-.18-.129.155-.026.309-.077.412-.154.335s.077-.927.18-.9a.783.783,0,0,0,.155-.361,3.723,3.723,0,0,1,.257-.644A5.921,5.921,0,0,0,17.184,22.429Zm-.7-2.705a11.161,11.161,0,0,1,.335-1.52c.1-.078.1.051.026.361s-.077.412-.18.953C16.617,19.8,16.488,19.93,16.488,19.723Zm.026-13.655A1.826,1.826,0,0,0,16.8,5.76,2.759,2.759,0,0,0,17,5.425a1.494,1.494,0,0,0-.283.335C16.591,5.914,16.488,6.069,16.514,6.069Zm.207,16.309c0,.077.026.1.051.051a.116.116,0,0,0,0-.129C16.746,22.274,16.72,22.3,16.72,22.378Zm.232-1.185c0,.077.026.1.051.051a.163.163,0,0,0,0-.155C16.978,21.063,16.952,21.115,16.952,21.192ZM17,17.585a2.141,2.141,0,0,1,.232-.927,2.782,2.782,0,0,1-.129.876C17.081,17.611,17.029,17.637,17,17.585Zm.284,5.771a3.771,3.771,0,0,0-.284.979c.078.078.1.052.18-.232C17.287,23.665,17.364,23.279,17.287,23.357Zm-.1-3.4c0,.1.026.129.052.077a.165.165,0,0,0,0-.155C17.209,19.827,17.184,19.852,17.184,19.956Zm.206-4.1c0-.257.129-.67.207-.67.026,0,.051.051.026.155a4.824,4.824,0,0,1-.155.515c-.078.335-.206.515-.206.284a.276.276,0,0,1,.051-.155A.567.567,0,0,0,17.39,15.859Zm-.128,3.916.155-.438a4.148,4.148,0,0,0,.155-.618c0-.18.206-.361.257-.232s.335-.463.386-.8c.052-.284.052-.284-.026-.078l-.1.206-.1-.232c-.051-.18-.1-.206-.1-.129,0,.1-.026.129-.051.052-.051-.052-.1,0-.155.206a13.246,13.246,0,0,0-.386,1.7Zm.386,2.782c0-.051-.077-.051-.155,0a.261.261,0,0,0-.155.232v.155l.155-.18A.669.669,0,0,0,17.648,22.558Zm-.18-.258c-.026-.026-.051,0-.051.078s.026.1.051.051A.116.116,0,0,0,17.467,22.3Zm.1-7.317c0-.129.361-1.34.747-2.551.232-.747.49-1.468.515-1.623.155-.593,1.16-3.607,1.237-3.685.129-.232.077.155-.129.773-.128.309-.335.979-.463,1.417-.155.464-.361,1.108-.464,1.417s-.258.8-.335,1.082c-.438,1.52-.8,2.731-.876,2.834a.436.436,0,0,0-.078.257c0,.078-.026.129-.077.129S17.571,15.009,17.571,14.983Zm.051,6.544c-.026-.026-.051,0-.051.077,0,.1.026.1.051.052A.115.115,0,0,0,17.622,21.527Zm.515-1.881c-.051.129-.051.129-.078,0a1.449,1.449,0,0,1,.1-.567,2.057,2.057,0,0,0,.077-.567,4.484,4.484,0,0,0-.386,1.6c-.077.386-.155.825-.18.979,0,.129,0,.207.026.155a.237.237,0,0,1,.129-.077c.051,0,.1-.078.1-.18.026-.206.026-.206-.052-.051l-.051.18-.026-.155a.181.181,0,0,1,.155-.207c.077-.026.155-.077.155-.128.026-.155.051-.361.1-.567.026-.128.078-.361.1-.541C18.343,19.234,18.317,19.234,18.137,19.646ZM17.751,4.523a7.712,7.712,0,0,0,.592-.618,6.987,6.987,0,0,0,.541-.67c0-.052-.129.077-.773.8A5.107,5.107,0,0,0,17.751,4.523Zm.206,12.315c.077-.129.077-.1.051.1-.051.258-.051.258.078.078a1.085,1.085,0,0,0,.1-.386,3,3,0,0,1,.309-1.057c.155-.18.464-1.494.309-1.391-.052,0-.078.052-.078.1a.267.267,0,0,1-.128.18c-.078.051-.1.077-.052.051.206-.077.1.515-.155,1-.051.1-.077.129-.155.078-.026-.078-.051-.026-.026.128s.026.232-.051.232c-.051,0-.129.1-.155.309-.026.18-.051.413-.077.515C17.879,16.941,17.879,16.967,17.957,16.838Zm.463,2.112c0-.077,0-.1-.026-.1s-.051.026-.077.1c-.026.051,0,.1.026.1C18.395,19.054,18.42,19,18.42,18.951Zm-.077,2.937c0,.051.051.1.077.078a.142.142,0,0,0,.078-.129c0-.026-.026-.052-.078-.052A.115.115,0,0,0,18.343,21.888Zm.258-2.112a.163.163,0,0,0-.155,0c-.026.026.026.026.1.026C18.652,19.8,18.652,19.8,18.6,19.775Zm-.052-1.417c-.026-.026-.051.026-.026.1,0,.078,0,.1.026.026A.115.115,0,0,0,18.549,18.359Zm.1,4.663a2.589,2.589,0,0,0,.283-.464c.155-.284.361-.7.438-.876l.206-.361-.051.386c-.026.361-.026.386.1.284a.541.541,0,0,0,.1-.258.7.7,0,0,1,.206-.335c.206-.18.232-.257.206-.438,0-.052.026-.1.052-.1a.068.068,0,0,0,.077-.077,6.4,6.4,0,0,1,.9-1.572,2.894,2.894,0,0,0,.438-.7,7.05,7.05,0,0,1,.592-.953,1.791,1.791,0,0,0,.258-.412,14.551,14.551,0,0,1,1.829-2.5,4.342,4.342,0,0,0,.438-.464c0-.257-1.056.721-1.7,1.546-.232.335-.438.567-.463.515a8.925,8.925,0,0,1,1.546-1.881c.257-.232.463-.463.438-.489-.1-.078-1.056.824-1.417,1.339a3.617,3.617,0,0,1-.464.515A10.062,10.062,0,0,0,21,18.178a5.885,5.885,0,0,1-.438.953c-.051.1-.078.18-.051.206a.725.725,0,0,1-.129.206c-.18.155-.515.748-.438.825.026,0-.051.155-.155.309A23.707,23.707,0,0,0,18.652,23.022Zm.309-9.4c0-.1-.026-.1-.052-.051-.026.026-.051.051-.1.026-.078-.026-.1.206-.026.386.051.1.077.1.128-.051A1.558,1.558,0,0,0,18.962,13.618Zm-.1,2.37c-.026-.026-.051,0-.051.077.026.078.026.1.051.052S18.884,15.988,18.858,15.988Zm.155-.567c-.026-.026-.051,0-.026.078,0,.1,0,.1.026.051A.116.116,0,0,0,19.013,15.421Zm.18.387c0-.052-.026-.052-.077.051a.935.935,0,0,0-.052.232c0,.078.026.052.052-.026A.5.5,0,0,0,19.193,15.808Zm0-3.452c0-.18-.026-.129-.1.128-.026.155-.026.18.026.1A.36.36,0,0,0,19.193,12.355Zm0,.67c0-.207-.026-.18-.1.077-.026.129-.026.18.026.155S19.193,13.128,19.193,13.025Zm.051-.413c-.026-.026-.026.026-.026.078,0,.1,0,.1.026.051A.116.116,0,0,0,19.245,12.613Zm.258-.825a.473.473,0,0,0-.052-.18c-.051-.051-.077-.051-.1.078s0,.18.051.18C19.477,11.866,19.5,11.84,19.5,11.788Zm.515-1.7c-.026-.026-.026,0-.026.051a.05.05,0,0,1-.078.026c-.077-.026-.18.1-.18.257s.232.052.284-.128C20.044,10.191,20.044,10.114,20.018,10.088ZM24.527,20.6c0-.026-.026.026-.026.1s.026.1.051.051S24.578,20.626,24.527,20.6Zm.284,2.782.026.541.051-.386a7.843,7.843,0,0,0,.051-.8c0-.412,0-.412-.077-.155A6.218,6.218,0,0,0,24.81,23.382ZM43.8,19.028c-.361.49-3.323,3.5-3.813,3.916a21.264,21.264,0,0,1-3.375,2.241c-.413.232-.85.464-.954.515a7.559,7.559,0,0,1-3.839.619.291.291,0,0,0-.258-.078c-.206.129-1.623-1.108-1.984-1.726-.129-.232-.258-.335-.413-.361-.257-.051-.257-.1-.026-.232.155-.051.18-.129.155-.232a5.114,5.114,0,0,1,.515-3.272A18.111,18.111,0,0,1,32,16.941c.129-.128.386-.438.618-.7.567-.7,1.082-1.185,1.314-1.211a1.4,1.4,0,0,1,.644.026c.232.052.567.129.747.155a3.216,3.216,0,0,1,1.623.979c.747.721.979,1.185.9,1.8a3.753,3.753,0,0,1-.721,1.8,10.022,10.022,0,0,1-2.061,2.112,18.09,18.09,0,0,1-3.942,2.267,2.329,2.329,0,0,0-.49.284c0,.284.773.515,1.494.438a11.007,11.007,0,0,0,4.921-1.829,4.216,4.216,0,0,1,.721-.386c.155,0,.541-.309.541-.413a2.508,2.508,0,0,1,.7-.618c.129-.1.155-.1.052.026-.206.257.026.1.7-.438.361-.335.876-.747,1.133-.953a21.128,21.128,0,0,0,1.778-1.623c.155-.206.592-.644.927-1,.361-.361.825-.85,1.031-1.082.825-.9,1.211-1.34,1.262-1.288a2.482,2.482,0,0,1-.489.7c-.438.567-.464.592-.1.206.386-.412.644-.515.386-.155a.537.537,0,0,0-.128.309c0,.1.026.1.1.026.232-.18.1,0-.284.464a5.64,5.64,0,0,0-.592.85,3.467,3.467,0,0,1-.464.721A5.85,5.85,0,0,1,43.8,19.028ZM30.632,23.1c0,.026.077-.026.979-.644a13.9,13.9,0,0,0,1.6-1.159,4.437,4.437,0,0,1,.592-.49,20.559,20.559,0,0,0,2.113-2.19,3.529,3.529,0,0,0,.541-1.752c-.052-.335-.155-.438-.593-.567-.618-.155-1.082.154-2.164,1.494a19.813,19.813,0,0,0-2.293,3.427A11,11,0,0,0,30.632,23.1Zm10.847-2.112c-.413.464-.464.541-.18.257a6.837,6.837,0,0,0,.618-.644C42.3,20.136,42.071,20.316,41.479,20.986Zm26.279,1.288a2.547,2.547,0,0,0-.592.284,1.985,1.985,0,0,1-.464.257,2.3,2.3,0,0,0-.49.309c-.129.078-.515.309-.825.49a12.17,12.17,0,0,0-2.319,1.623.283.283,0,0,0,.077.154,2.914,2.914,0,0,1,.18.567c.078.232.155.592.232.773a3,3,0,0,1,.128,1.726,2.179,2.179,0,0,1-.283,1.056,4.307,4.307,0,0,1-1.417,1.52c-.078.051-.438.232-.8.438a5.6,5.6,0,0,1-.85.412,1.253,1.253,0,0,0-.335.1c-.051.026-.361.1-.619.18a1.688,1.688,0,0,1-.979.077v.026a1.826,1.826,0,0,1-.748-1.237,1.244,1.244,0,0,0-.1-.386,5.68,5.68,0,0,1,.18-1.443c.051-.207.129-.309.206-.335.1-.026.206-.155.541-.619a3.487,3.487,0,0,1,.232-.284.977.977,0,0,0,.128-.438.827.827,0,0,1,.284-.644c.335-.361,1.7-1.726,2.035-2.01a1.133,1.133,0,0,0,.257-.283.845.845,0,0,0-.232-.335,21.492,21.492,0,0,1-1.443-2.112,5.194,5.194,0,0,1-.541-1.572c-.026-.1-.077-.361-.128-.567a6.8,6.8,0,0,1-.052-2.216,2.013,2.013,0,0,0,.052-.592c-.026,0-.876.515-.954.567-.051.051-1.031.7-1.417.954l-.464.309a7.4,7.4,0,0,1-1,.7c-.155.1-.592.387-.979.67-.387.258-.979.67-1.314.9s-.644.438-.7.463a5.585,5.585,0,0,1-.747.541,14.518,14.518,0,0,0-1.855,1.366.469.469,0,0,0,.18.258,3.222,3.222,0,0,1,1.262,2.886,3.056,3.056,0,0,1-.232,1.314c-.078.232-.129.284-.258.284-.077,0-.128.026-.128.051.026.026-.026.1-.078.155s-.129.129-.129.155a5.856,5.856,0,0,1-.8.85,8.873,8.873,0,0,1-2.087,1.366,5.836,5.836,0,0,1-2.551.644,2.03,2.03,0,0,1-1.16-.207,4.691,4.691,0,0,1-.49-.335,2.188,2.188,0,0,1-.283-.85.7.7,0,0,0-.1-.413,1.053,1.053,0,0,1-.1-.721c.078-.49.18-.773.309-.773.052,0,.1-.051.129-.18a.172.172,0,0,1,.155-.18,1.325,1.325,0,0,0,.464-.876c.077-.386.154-.49,1.52-1.726.67-.618.722-.644.619-.361-.026.1-.051.206,0,.18a7.165,7.165,0,0,0,1.031-.9c.026-.051-.051-.051-.155-.026a.3.3,0,0,1-.232-.026,7.228,7.228,0,0,0-.748-.49c-.7-.464-1.237-.9-1.262-1.108a.6.6,0,0,0-.18-.18,3.6,3.6,0,0,1-.927-1.881,1.424,1.424,0,0,0-.078-.412,3.184,3.184,0,0,1,.026-1.7,11.478,11.478,0,0,1,3.762-4.405c.258-.18.49-.361.515-.387.206-.18,1.391-.927,2.4-1.52A14.251,14.251,0,0,1,52.2,11.093c.18-.077.438-.18.541-.232a1.011,1.011,0,0,1,.67-.077c.515.051.721.206.67.438-.026.1,0,.155.1.155a.917.917,0,0,1,.309.206.79.79,0,0,1,.077.85c-.077.1-.077.155-.026.232.078.1.026.129-.206.335a1.9,1.9,0,0,1-.825.309,5.208,5.208,0,0,0-1.314.386,21.682,21.682,0,0,0-3.916,2.241c-2.035,1.494-3.71,3.375-3.865,4.3-.026.207.026.309.309.644a6.229,6.229,0,0,0,2.6,1.675c.85.412.825.386,1.108.18.953-.721,1.288-.927,1.8-1.262a3.445,3.445,0,0,0,.593-.464c0-.026.1-.077.206-.129.155-.077,1.52-1,1.829-1.262.077-.051.154-.1.154-.078.026.026-.1.18-.309.335-.748.619-.928.773-.928.825s0,.078.026.078.593-.387,1.263-.825l1.546-1.031c.155-.1.49-.335.721-.49.232-.18.515-.361.592-.412.1-.078.438-.284.722-.464.747-.49,1-.619,1.056-.515.026.077.051.077.206,0a6.738,6.738,0,0,0,.773-.515,1.241,1.241,0,0,0,.232-.1.468.468,0,0,0,.206-.155c0-.026.026-.051.077-.051.155,0,.438-.309.413-.412a.513.513,0,0,1,.18-.284,5.63,5.63,0,0,0,.438-.541,7.719,7.719,0,0,1,.464-.619c.129-.155.309-.386.438-.515A31.4,31.4,0,0,1,64.95,10.6a8.729,8.729,0,0,0,.721-.542,1.658,1.658,0,0,1,.257-.18A5.13,5.13,0,0,0,66.47,9.5,11.235,11.235,0,0,1,67.5,8.851c.257-.155.618-.361.773-.438s.438-.232.644-.309a3.809,3.809,0,0,0,.361-.206.444.444,0,0,0-.078-.18c-.1-.1-.1-.129.026-.206a.847.847,0,0,1,.386-.1.505.505,0,0,1,.438.232l.207.232L70,9.727l-.438.361a7.51,7.51,0,0,1-1.082.85c-.051,0-.077.026-.077.052a2.9,2.9,0,0,1-.386.283,7.487,7.487,0,0,0-.67.49,2.283,2.283,0,0,1-.335.206,4.189,4.189,0,0,0-.541.361c-.284.18-.644.412-.825.515-.155.128-.515.334-.748.515-.232.154-.515.334-.644.412a1.344,1.344,0,0,0-.284.18c-.026.026-.464.309-.927.619a5.328,5.328,0,0,0-1.829,1.8,6.122,6.122,0,0,0-1.237,3.143,1.921,1.921,0,0,0,.129,1.134,3.341,3.341,0,0,0,.386.747c.1.129.412.567.67.928.283.386.567.8.67.927s.232.335.335.438l.18.232.155-.129a14.273,14.273,0,0,1,1.906-1.34,1.43,1.43,0,0,0,.361-.206c.206-.129.541-.309.747-.412.232-.078.438-.18.438-.232a.271.271,0,0,1,.128-.051c.052,0,0,.078-.1.129-.155.129-.18.284,0,.155a1.322,1.322,0,0,1,.257-.1,5.42,5.42,0,0,0,.773-.361c.335-.18.721-.386.876-.464a.994.994,0,0,0,.361-.206.2.2,0,0,1,.129-.051c2.937-1.211,4.534-2.241,4.792-1.494C73.3,19.543,67.964,22.172,67.758,22.274ZM49.233,25.418c-.412-.207-.85-.438-.979-.49l-.232-.078-.747.644c-.721.619-1.984,1.8-2.705,2.5a4.317,4.317,0,0,0-.927,1.443c-.051.206-.026.232.18.309a3.1,3.1,0,0,0,1.469-.026,5.669,5.669,0,0,0,1.778-.593.98.98,0,0,1,.438-.18c.258-.051.309-.077.361-.257a3.658,3.658,0,0,1,.7-.85,5.087,5.087,0,0,0,1.339-1.8l.078-.232Zm13.243.721c-.128-.232-.155-.284-.257-.232a9.848,9.848,0,0,0-1.237,1.134,5.509,5.509,0,0,1-.567.541,16.588,16.588,0,0,0-1.6,2.01c-.155.257-.232.515-.18.592a4.512,4.512,0,0,0,1.417-.438,7.859,7.859,0,0,0,.825-.464.534.534,0,0,1,.206-.18,1.54,1.54,0,0,0,.67-.361.93.93,0,0,0,.051-.284c-.026-.155.078-.309.542-.927a1.579,1.579,0,0,0,.206-.67A1.043,1.043,0,0,0,62.476,26.139ZM63.3,13.876c0,.026.1-.026.258-.1.155-.1.386-.232.515-.335.128-.077.412-.258.618-.412a1.924,1.924,0,0,1,.413-.258,3.5,3.5,0,0,0,.824-.644,1.474,1.474,0,0,0-.618.335c-.051.052-.078.052-.1-.026-.051-.051-.077-.051-.1,0-.026.026-.026.078.026.078.026,0,.051.026.026.051a.235.235,0,0,1-.206.026c-.1-.026-.129-.026-.026.026s.051.1-.335.335A6.552,6.552,0,0,0,63.3,13.876Zm2.01,8.244c-.155.078-.155.078,0,.078.1-.026.18-.051.206-.1C65.568,21.991,65.465,21.991,65.31,22.12Zm.077-9.867a1.44,1.44,0,0,0,.206-.1,1.961,1.961,0,0,1,.309-.232c.129-.077.232-.155.206-.18-.051-.051-.541.232-.7.412C65.285,12.3,65.285,12.3,65.387,12.252Zm2.731-1.829a.776.776,0,0,0,.258-.232c.026-.1-.026-.077-.258.078Q67.5,10.732,68.119,10.423ZM85.844,19.8a.923.923,0,0,0-.283.438.273.273,0,0,1-.1.232.082.082,0,0,0-.077.077,6.513,6.513,0,0,1-.722.876,8.274,8.274,0,0,0-.747.876A6.065,6.065,0,0,1,82.6,23.563c-.026-.026-.078.026-.078.077,0,.309-1.8,1.623-2.886,2.087a2.872,2.872,0,0,1-2.473.207c-.309-.129-.721-.49-.747-.7a.741.741,0,0,0-.207-.284,1.7,1.7,0,0,1-.463-1.288,4.167,4.167,0,0,1,.283-1.494c.026-.078.155-.387.258-.7A34.684,34.684,0,0,1,77.7,18.152l.361-.7-.257.18a2.937,2.937,0,0,0-.567.567c-.206.335-.309.438-.515.463-.206.052-.438.232-1.031.825a4.838,4.838,0,0,1-.876.747.118.118,0,0,0-.1.129c0,.155-.284.567-.284.413,0-.026-.077.051-.155.18s-.386.515-.67.876c-.309.361-.927,1.159-1.417,1.8a9.99,9.99,0,0,1-1.932,2.19c-.67.592-.85.644-1.16.464a1.738,1.738,0,0,1-.361-.232.3.3,0,0,0-.155-.128c-.1,0-.155-.284-.077-.335.051-.026.051-.078-.026-.129-.438-.335-.463-1-.026-1.906.155-.284.284-.541.335-.541.1,0,.1,0-.155.541a2.434,2.434,0,0,0-.283,1.366c.051.077.077.077.077-.026a2.418,2.418,0,0,1,.155-.49.75.75,0,0,0,.129-.515c-.051-.129,0-.258.309-.67.335-.49.412-.7.18-.49-.078.051-.129.051-.129,0a.068.068,0,0,1,.077-.077,1.43,1.43,0,0,0,.232-.309,2.975,2.975,0,0,1,.335-.567,11.519,11.519,0,0,0,.747-1.056,15.671,15.671,0,0,1,1.16-1.6.318.318,0,0,0,.1-.206,2.966,2.966,0,0,1,.413-.67,2.926,2.926,0,0,0,.438-.592,11.931,11.931,0,0,1,1.443-1.778,4.775,4.775,0,0,1,.927-.85,1.238,1.238,0,0,0,.49-.283,1.235,1.235,0,0,1,1.288-.361,1.093,1.093,0,0,1,.49.206,1.649,1.649,0,0,0,.361.257,1.761,1.761,0,0,1,.464.619,1.911,1.911,0,0,0,.335.49,1.883,1.883,0,0,1,.257.232.616.616,0,0,0,.284.18c.155,0,.335.49.335.876a4.444,4.444,0,0,1-.257,1.134c-.155.386-.387,1.056-.515,1.443-.129.412-.464,1.262-.722,1.932a8.136,8.136,0,0,0-.773,2.782c0,.413,0,.464.18.49a2.055,2.055,0,0,0,1.288-.257A14.367,14.367,0,0,0,82.134,22.3c.386-.361.644-.515.7-.463.026.051.335-.206.8-.644.515-.515.748-.7.773-.619.051.078-.026.207-.1.284a.555.555,0,0,0-.155.232,4.106,4.106,0,0,0,.49-.412,1.943,1.943,0,0,1,.593-.49c.077-.026.18-.077.206-.155a.959.959,0,0,1,.49-.515C86.1,19.517,86.076,19.6,85.844,19.8Zm-9.094-4.148a9.833,9.833,0,0,0-1.34,1.082c-.155.18-.284.18-.206.026.026-.077.026-.1-.052-.077-.051.026-.077.129-.077.18,0,.155-.284.49-1.16,1.443a15.749,15.749,0,0,0-1.16,1.417c-.386.515-.747.979-.8,1.057a18.472,18.472,0,0,0-1.494,2.55c0,.129.155-.026.876-.876,1.366-1.649,1.675-1.984,1.7-1.674,0,.051.026.026.051-.052a.191.191,0,0,0,0-.232,3.278,3.278,0,0,1,.67-.876c.644-.7.748-.8.928-.773s.18,0,.1-.1c-.1-.1-.026-.206.619-.85a3.765,3.765,0,0,0,1.056-1.469C76.62,16.014,76.749,15.679,76.749,15.653Zm-5.9,5.024c0,.129.078.077.18-.077.052-.078.078-.155.026-.18s-.077,0-.077.077c0,.051-.026.1-.077.1C70.875,20.6,70.849,20.651,70.849,20.677Zm3.993-1.52a17.722,17.722,0,0,0-1.443,1.6c.026,0,.412-.438.9-.953.567-.619.9-.954,1-.954.078,0,.129-.026.1-.077a.648.648,0,0,1,.128-.284A6.041,6.041,0,0,0,74.842,19.157ZM101.534,20.6a3.505,3.505,0,0,0-1.726.309c-2.009.748-5.41,2.551-5.539,2.963-.051.1-.18.567-.309,1.031a61.058,61.058,0,0,1-4.354,11.259,27.227,27.227,0,0,1-4.947,6.982c-.7.7-2.628,2.37-3.3,2.859a22.943,22.943,0,0,1-1.906,1.288c-1.932,1.108-2.988,1.366-3.916.9A2.541,2.541,0,0,0,75,47.987c-.361-.026-1.108-1.263-1.082-1.752a2.336,2.336,0,0,0-.155-.669c-.1-.309-.155-.515-.1-.567s.052-.128,0-.232a5,5,0,0,1,.49-2.164c.232-.567.335-.824.386-.721.052.051.052.026.052-.1-.026-.1-.026-.18,0-.155a5.6,5.6,0,0,0,.618-1,46.852,46.852,0,0,1,8.451-10.254,69.181,69.181,0,0,1,8.992-7.24c.463-.309.463-.335.592-.876a17.518,17.518,0,0,0,.258-6.158l-.052-.361-.386.67c-.206.386-.515.876-.644,1.108a5.089,5.089,0,0,1-.463.67c-.413.438-3.479,4.38-3.839,4.921-.361.567-.386.67-.232.567.309-.18-.413.748-1.34,1.649a2.966,2.966,0,0,1-1.8,1.134c-.515.077-.773.026-.85-.207-.026-.077-.1-.1-.232-.1-.463.077-1-1.34-.927-2.5a13.991,13.991,0,0,1,1.623-4.612,29.575,29.575,0,0,1,2.911-4.045,4.435,4.435,0,0,1,1.881-1.417c.155-.026.438-.078.67-.1.361-.051.438-.026.9.206.773.438,1.134.722,1.314,1.134l.155.361.412-.464c.284-.361.387-.438.413-.309s.1.051.438-.284c.206-.258.413-.413.464-.386.026.051-.026.155-.1.232-.128.129-.128.18-.051.18.258.026.541.258.541.464-.026.128.026.18.129.18.18.026.284.386.412,1.443a17,17,0,0,1,.052,4.56c-.052.412-.1.747-.1.747s.335-.155.747-.335a2.672,2.672,0,0,1,.825-.335,4.812,4.812,0,0,0,1.391-.541,8.4,8.4,0,0,1,3.35-.721c.463.077,1.031.386.953.515a.54.54,0,0,0,.18.206C102.59,20.548,102.358,20.626,101.534,20.6Zm-27.18-.438c-.026-.1-.052-.129-.129-.051-.078.051-.078.077,0,.18C74.327,20.42,74.4,20.342,74.353,20.162Zm18.086,4.56a.221.221,0,0,0-.155.18,5.207,5.207,0,0,1-.7.618c-.541.438-.7.49-.747.386s-.077-.077-.051.026-.026.206-.18.283a1.876,1.876,0,0,0-.309.232c-.051.051-.644.541-1.314,1.056-.67.541-1.339,1.082-1.494,1.237-.129.129-1,.927-1.958,1.752a70.549,70.549,0,0,0-5,5,9.621,9.621,0,0,1-.773.825c-.078.077-.284.335-.49.592-.18.258-.593.748-.876,1.108s-.593.773-.721.927a23.189,23.189,0,0,0-2.422,4.638,8.242,8.242,0,0,0-.464,2.525c.026.49.155.567.876.618.67.026.8.155.361.284-.155.026-.206.077-.129.077a4.948,4.948,0,0,0,1.34-.412c.258-.18.412-.129.206.077a2.225,2.225,0,0,1-1.056.567c-.309.077-.361.1-.206.129a3.591,3.591,0,0,0,.825-.155,8.738,8.738,0,0,0,2.19-1c.49-.284.9-.515.9-.515a10.614,10.614,0,0,0,1.031-.721,24.155,24.155,0,0,0,2.113-1.8c1.082-1.082.876-.927-.567.413-1.417,1.288-3.685,2.782-3.452,2.293.026-.078.077-.129.128-.129a15.91,15.91,0,0,0,1.958-1.262,38.04,38.04,0,0,0,3.323-3.169,12.77,12.77,0,0,0,1.262-1.546c-.206.207-.592.644-.85.954a11.18,11.18,0,0,1-1.674,1.7c-.052-.026-.026-.078.026-.155a.151.151,0,0,0,.077-.18,2.922,2.922,0,0,0-.618.541c-.644.644-1.056.954-1.108.876a9.471,9.471,0,0,1,1.16-1.237,19.377,19.377,0,0,0,3.015-3.5,45.306,45.306,0,0,0,3.839-7.008A46.974,46.974,0,0,0,91.8,26.989c.077-.284.257-.825.386-1.211C92.646,24.568,92.619,24.619,92.439,24.722Zm.515-1.494c-.077-.078-.85.438-1,.644a.311.311,0,0,1-.258.18,16.127,16.127,0,0,0-2.86,2.087c-.154.155-.257.232-.206.18.052-.1.026-.1-.026-.078a.237.237,0,0,0-.077.129c.051.1-.155.284-.284.232a.265.265,0,0,0-.206.18c-.078.078-.129.155-.155.129-.051-.077-.49.284-.49.438s-.257.335-.438.335c-.078,0-.129.026-.129.051a26.174,26.174,0,0,1-3.658,3.323c-.026-.051-.026-.026,0,0,.077.129-.129.413-.232.361a7.554,7.554,0,0,0-1.546,1.494c-.1.129-.515.619-.953,1.082a27.742,27.742,0,0,0-3.066,3.839c.026.051-.051.232-.18.412a1.414,1.414,0,0,0-.232.412c0,.078.026.052.438-.567.309-.412.747-.979,1.906-2.37.232-.283.567-.644.747-.824s.773-.8,1.288-1.366c1.443-1.572,4.354-4.328,6.441-6.106.876-.721,2.448-1.932,3.375-2.6.592-.412,1.237-.876,1.468-1.031C92.98,23.511,93.109,23.33,92.954,23.228Zm-13.886,23.7c-.026,0-.052.051-.078.128s-.026.129.026.129c.026,0,.078-.051.078-.129S79.094,46.931,79.068,46.931Zm.541-.232a.222.222,0,0,0-.155.078c-.026.051,0,.1.026.1a.184.184,0,0,0,.155-.077C79.66,46.75,79.635,46.7,79.609,46.7Zm.618-.309a.588.588,0,0,0-.257.129c-.078.051-.129.129-.078.129a.424.424,0,0,0,.232-.129C80.227,46.467,80.253,46.415,80.227,46.389Zm1.34-.953c-.232.155-.438.309-.463.335-.026,0-.207.129-.413.257a1.212,1.212,0,0,0-.361.284c0,.051.18-.026.412-.18.207-.155.515-.386.7-.49a1.934,1.934,0,0,0,.413-.335C81.927,45.23,81.8,45.282,81.567,45.436Zm1.211-1c-.026-.026-.206.1-.412.309s-.335.361-.309.386a1.873,1.873,0,0,0,.438-.335A1.128,1.128,0,0,0,82.778,44.431Zm.8-.7a3.012,3.012,0,0,0-.7.592c0,.1.284-.1.592-.386C83.628,43.761,83.679,43.659,83.576,43.736Zm.85-.876c-.361.335-.386.361-.284.361.026.026.206-.1.335-.284C84.864,42.525,84.813,42.5,84.427,42.86Zm.386-1.185.206-.258-.283.232c-.258.257-.309.283-.207.283A.952.952,0,0,0,84.813,41.675Zm5.617-23.96c.412-.413.438-.541.361-1.52a5.563,5.563,0,0,0-.155-.954c-.129-.18-2.112,1.984-3.323,3.633A22.748,22.748,0,0,0,84.607,23.9c-.078.232-.078.232.1.128a11.39,11.39,0,0,0,.9-.876c.361-.412.876-.979,1.159-1.237.258-.257.722-.773,1.031-1.16s.644-.8.773-.927a12.653,12.653,0,0,0,.953-1.056C89.94,18.281,90.326,17.817,90.43,17.714Zm-4.56,23.007c-.051.052-.386.438-.721.85-.619.773-.309.49.49-.412C86,40.747,86.1,40.541,85.869,40.721Zm-.257.593c-.026,0-.078.051-.1.129s0,.128.026.128c.052,0,.078-.051.1-.128A.313.313,0,0,0,85.612,41.314Zm1.262-1.546c-.129.077-.129-.129,0-.284.051-.051.051-.051-.026,0-.051.052-.258.309-.438.541-.232.309-.283.438-.232.49.155.078.155.078.1-.026a.219.219,0,0,1,.077-.232c.078-.078.1-.1.155-.026.026.077.051.077.1-.026s.026-.128-.026-.077c-.051.026-.077,0-.051-.077a.171.171,0,0,1,.129-.1c.051.026.129-.026.206-.1Q86.991,39.691,86.874,39.768Zm-.284-.721a.283.283,0,0,0,.078-.155c-.026-.026-.078.026-.129.1C86.488,39.1,86.514,39.124,86.591,39.047Zm1.855-2.061c-.026-.026-.129.1-.232.283-.1.207-.413.7-.67,1.108s-.49.8-.49.825.026,0,.078-.052a.266.266,0,0,1,.18-.128c.077,0,.1-.052.1-.155a.118.118,0,0,1,.1-.129c.051.026.077-.026.1-.1a.664.664,0,0,1,.18-.309.782.782,0,0,0,.207-.413.26.26,0,0,1,.155-.232.3.3,0,0,0,.128-.232.489.489,0,0,1,.1-.309C88.471,37.088,88.471,37.011,88.446,36.986Zm-.773.361c.051-.026.077-.1.051-.129s-.077,0-.1.1C87.57,37.423,87.57,37.449,87.673,37.346Zm1.056-.7c0-.026-.026-.026-.078-.051a.115.115,0,0,0-.077.1c0,.051.026.078.077.026A.082.082,0,0,0,88.729,36.651Zm.257-1.443c0-.051-.026-.051-.077.026a.506.506,0,0,0-.1.206c0,.051.026.026.078-.026A.734.734,0,0,0,88.987,35.208Zm.876-8.553c.026,0,.078-.052.155-.129a1.252,1.252,0,0,0,.078-.129.3.3,0,0,0-.155.129C89.863,26.577,89.837,26.654,89.863,26.654Zm.387,6.9a2.718,2.718,0,0,0-.309.67c0,.1.077-.052.206-.335C90.224,33.714,90.275,33.559,90.249,33.559Zm.49-.979c-.052-.051-.335.619-.335.721,0,.026.077-.1.18-.309A1.744,1.744,0,0,0,90.739,32.58Zm.412-14.814a2.866,2.866,0,0,0-.7.876,2.861,2.861,0,0,0,.438-.515C91.125,17.843,91.228,17.663,91.151,17.766Zm-.129,1.185c-.026,0-.077.051-.155.129-.051.051-.077.1-.051.1s.077-.051.129-.1C91.022,19,91.048,18.951,91.022,18.951Zm.361,12.135c0-.051-.077.052-.155.258-.283.7-.283.747-.051.284A1.425,1.425,0,0,0,91.383,31.085Zm.284-.618c-.026-.051-.078.051-.129.206-.129.309-.077.361.051.051C91.666,30.6,91.692,30.467,91.666,30.467Zm5-9.378c-.155.052-.18.129-.051.129.026,0,.077-.051.128-.077C96.768,21.089,96.742,21.063,96.665,21.089Zm.773-.309c0-.052-.489.155-.567.232s.1.026.309-.077C97.334,20.883,97.437,20.806,97.437,20.78Zm4.226-.773a4.179,4.179,0,0,0-2.087-.026,14.108,14.108,0,0,0-1.932.7c-.052.051.077.026.257-.026.155-.078.7-.258,1.185-.413a3.665,3.665,0,0,1,1.752-.206C101.431,20.085,101.714,20.058,101.663,20.007Zm13.01-.979c-.361.49-3.323,3.5-3.813,3.916a21.241,21.241,0,0,1-3.375,2.241c-.412.232-.85.464-.953.515a7.559,7.559,0,0,1-3.839.619.291.291,0,0,0-.258-.078c-.206.129-1.623-1.108-1.984-1.726-.129-.232-.258-.335-.413-.361-.257-.051-.257-.1-.026-.232.155-.051.18-.129.155-.232a5.114,5.114,0,0,1,.515-3.272,18.084,18.084,0,0,1,2.19-3.479c.128-.128.386-.438.618-.7.567-.7,1.082-1.185,1.314-1.211a1.4,1.4,0,0,1,.644.026c.232.052.567.129.747.155a3.215,3.215,0,0,1,1.623.979c.748.721.979,1.185.9,1.8A3.749,3.749,0,0,1,108,19.8a10,10,0,0,1-2.061,2.112A18.065,18.065,0,0,1,102,24.181a2.334,2.334,0,0,0-.489.284c0,.284.773.515,1.494.438a11.01,11.01,0,0,0,4.921-1.829,4.216,4.216,0,0,1,.721-.386c.155,0,.541-.309.541-.413a2.508,2.508,0,0,1,.7-.618c.129-.1.155-.1.052.026-.207.257.026.1.7-.438.361-.335.876-.747,1.133-.953a21.126,21.126,0,0,0,1.778-1.623c.154-.206.592-.644.927-1,.361-.361.825-.85,1.031-1.082.825-.9,1.211-1.34,1.262-1.288a2.491,2.491,0,0,1-.49.7c-.438.567-.463.592-.1.206.386-.412.644-.515.386-.155a.537.537,0,0,0-.129.309c0,.1.026.1.1.026.232-.18.1,0-.284.464a5.64,5.64,0,0,0-.592.85,3.467,3.467,0,0,1-.464.721A5.917,5.917,0,0,1,114.673,19.028ZM101.508,23.1c0,.026.077-.026.979-.644a13.918,13.918,0,0,0,1.6-1.159,4.438,4.438,0,0,1,.592-.49,20.6,20.6,0,0,0,2.112-2.19,3.518,3.518,0,0,0,.541-1.752c-.051-.335-.154-.438-.592-.567-.619-.155-1.082.154-2.164,1.494a19.838,19.838,0,0,0-2.293,3.427A11,11,0,0,0,101.508,23.1Zm10.847-2.112c-.413.464-.464.541-.18.257a6.9,6.9,0,0,0,.618-.644C113.179,20.136,112.947,20.316,112.355,20.986Z" transform="matrix(0.996, -0.087, 0.087, 0.996, 0.001, 10.177)" fill="#fff"/>
</svg>
